M48
; DRILL file {KiCad (6.0.5)} date Fri Jun 24 12:55:23 2022
; FORMAT={-:-/ absolute / metric / decimal}
; #@! TF.CreationDate,2022-06-24T12:55:23+01:00
; #@! TF.GenerationSoftware,Kicad,Pcbnew,(6.0.5)
; #@! TF.FileFunction,Plated,1,2,PTH
FMAT,2
METRIC
; #@! TA.AperFunction,Plated,PTH,ViaDrill
T1C0.700
; #@! TA.AperFunction,Plated,PTH,ComponentDrill
T2C0.800
; #@! TA.AperFunction,Plated,PTH,ComponentDrill
T3C1.000
; #@! TA.AperFunction,Plated,PTH,ComponentDrill
T4C1.100
; #@! TA.AperFunction,Plated,PTH,ComponentDrill
T5C1.300
%
G90
G05
T1
X93.32Y-78.638
X95.261Y-93.925
X96.571Y-80.772
X97.79Y-65.532
X100.33Y-65.278
X100.33Y-83.312
X101.879Y-79.502
X102.108Y-81.788
X103.124Y-65.024
X104.455Y-80.724
X105.41Y-68.326
X105.754Y-83.703
X106.243Y-73.559
X106.372Y-79.168
X107.794Y-92.732
X107.797Y-87.935
X107.901Y-68.307
X109.561Y-77.875
X113.05Y-80.182
X114.077Y-82.302
X118.603Y-69.179
X120.615Y-86.819
X120.929Y-72.085
X121.92Y-93.218
X122.936Y-64.591
X124.131Y-70.283
X124.206Y-61.214
X125.476Y-85.09
X125.73Y-99.314
X125.984Y-78.789
X127.508Y-102.362
X127.517Y-69.088
X129.032Y-66.802
X129.058Y-97.536
X131.318Y-101.6
X131.653Y-76.789
X132.359Y-92.456
X133.157Y-99.057
X136.933Y-77.367
X136.982Y-82.347
X139.7Y-66.116
X139.76Y-75.845
X140.284Y-86.131
X141.458Y-82.111
X141.888Y-74.295
X142.24Y-77.394
X142.891Y-68.426
X143.234Y-61.484
X143.586Y-88.214
X145.042Y-74.295
X145.348Y-69.109
X146.406Y-61.595
X147.236Y-68.192
X147.33Y-74.295
X150.419Y-63.094
X150.422Y-83.503
X151.343Y-85.48
X151.88Y-91.622
X154.051Y-88.697
X157.558Y-101.6
T2
X123.508Y-87.63
X123.508Y-89.63
X125.508Y-87.63
X125.508Y-89.63
X127.508Y-87.63
X127.508Y-89.63
T3
X110.24Y-57.658
X112.78Y-57.658
X115.32Y-57.658
X117.86Y-57.658
X119.38Y-105.918
X120.4Y-57.658
X121.92Y-105.918
X122.94Y-57.658
X124.46Y-105.918
X125.48Y-57.658
X127.0Y-105.918
X128.02Y-57.658
X129.54Y-105.918
X130.56Y-57.658
X132.08Y-105.918
X133.1Y-57.658
X134.62Y-105.918
X137.16Y-57.658
X137.16Y-105.918
X139.7Y-57.658
X142.24Y-57.658
X142.24Y-105.918
X144.78Y-57.658
X144.78Y-80.01
X144.78Y-105.918
X147.32Y-57.658
X147.32Y-105.918
X149.86Y-57.658
X149.86Y-80.01
X149.86Y-105.918
X152.4Y-57.658
X152.4Y-105.918
X154.94Y-57.658
X154.94Y-105.918
T4
X95.245Y-59.69
X97.785Y-59.69
X100.325Y-59.69
X102.865Y-59.69
X156.21Y-81.28
X156.21Y-83.82
T5
X154.686Y-102.362
X156.464Y-90.678
T0
M30
