%TF.GenerationSoftware,KiCad,Pcbnew,(6.0.5)*%
%TF.CreationDate,2022-06-24T12:54:37+01:00*%
%TF.ProjectId,Driver PCB,44726976-6572-4205-9043-422e6b696361,0*%
%TF.SameCoordinates,Original*%
%TF.FileFunction,Soldermask,Bot*%
%TF.FilePolarity,Negative*%
%FSLAX46Y46*%
G04 Gerber Fmt 4.6, Leading zero omitted, Abs format (unit mm)*
G04 Created by KiCad (PCBNEW (6.0.5)) date 2022-06-24 12:54:37*
%MOMM*%
%LPD*%
G01*
G04 APERTURE LIST*
%ADD10R,2.000000X2.000000*%
%ADD11O,2.000000X2.000000*%
%ADD12R,2.100000X2.100000*%
%ADD13C,2.100000*%
%ADD14R,1.350000X1.350000*%
%ADD15O,1.350000X1.350000*%
%ADD16C,2.600000*%
G04 APERTURE END LIST*
D10*
%TO.C,D4*%
X149860000Y-80010000D03*
D11*
X144780000Y-80010000D03*
%TD*%
D12*
%TO.C,J4*%
X95245000Y-59690000D03*
D13*
X97785000Y-59690000D03*
X100325000Y-59690000D03*
X102865000Y-59690000D03*
%TD*%
D14*
%TO.C,J1*%
X127508000Y-87630000D03*
D15*
X127508000Y-89630000D03*
X125508000Y-87630000D03*
X125508000Y-89630000D03*
X123508000Y-87630000D03*
X123508000Y-89630000D03*
%TD*%
D10*
%TO.C,A1*%
X119380000Y-105918000D03*
D11*
X121920000Y-105918000D03*
X124460000Y-105918000D03*
X127000000Y-105918000D03*
X129540000Y-105918000D03*
X132080000Y-105918000D03*
X134620000Y-105918000D03*
X137160000Y-105918000D03*
X142240000Y-105918000D03*
X144780000Y-105918000D03*
X147320000Y-105918000D03*
X149860000Y-105918000D03*
X152400000Y-105918000D03*
X154940000Y-105918000D03*
X154940000Y-57658000D03*
X152400000Y-57658000D03*
X149860000Y-57658000D03*
X147320000Y-57658000D03*
X144780000Y-57658000D03*
X142240000Y-57658000D03*
X139700000Y-57658000D03*
X137160000Y-57658000D03*
X133100000Y-57658000D03*
X130560000Y-57658000D03*
X128020000Y-57658000D03*
X125480000Y-57658000D03*
X122940000Y-57658000D03*
X120400000Y-57658000D03*
X117860000Y-57658000D03*
X115320000Y-57658000D03*
X112780000Y-57658000D03*
X110240000Y-57658000D03*
%TD*%
D16*
%TO.C,J7*%
X156464000Y-90678000D03*
%TD*%
%TO.C,J5*%
X154686000Y-102362000D03*
%TD*%
D12*
%TO.C,J2*%
X156210000Y-81280000D03*
D13*
X156210000Y-83820000D03*
%TD*%
M02*
