%TF.GenerationSoftware,KiCad,Pcbnew,(6.0.5)*%
%TF.CreationDate,2022-06-24T12:54:37+01:00*%
%TF.ProjectId,Driver PCB,44726976-6572-4205-9043-422e6b696361,0*%
%TF.SameCoordinates,Original*%
%TF.FileFunction,Copper,L1,Top*%
%TF.FilePolarity,Positive*%
%FSLAX46Y46*%
G04 Gerber Fmt 4.6, Leading zero omitted, Abs format (unit mm)*
G04 Created by KiCad (PCBNEW (6.0.5)) date 2022-06-24 12:54:37*
%MOMM*%
%LPD*%
G01*
G04 APERTURE LIST*
G04 Aperture macros list*
%AMRoundRect*
0 Rectangle with rounded corners*
0 $1 Rounding radius*
0 $2 $3 $4 $5 $6 $7 $8 $9 X,Y pos of 4 corners*
0 Add a 4 corners polygon primitive as box body*
4,1,4,$2,$3,$4,$5,$6,$7,$8,$9,$2,$3,0*
0 Add four circle primitives for the rounded corners*
1,1,$1+$1,$2,$3*
1,1,$1+$1,$4,$5*
1,1,$1+$1,$6,$7*
1,1,$1+$1,$8,$9*
0 Add four rect primitives between the rounded corners*
20,1,$1+$1,$2,$3,$4,$5,0*
20,1,$1+$1,$4,$5,$6,$7,0*
20,1,$1+$1,$6,$7,$8,$9,0*
20,1,$1+$1,$8,$9,$2,$3,0*%
G04 Aperture macros list end*
%TA.AperFunction,ComponentPad*%
%ADD10R,2.000000X2.000000*%
%TD*%
%TA.AperFunction,ComponentPad*%
%ADD11O,2.000000X2.000000*%
%TD*%
%TA.AperFunction,SMDPad,CuDef*%
%ADD12RoundRect,0.250000X0.450000X-0.350000X0.450000X0.350000X-0.450000X0.350000X-0.450000X-0.350000X0*%
%TD*%
%TA.AperFunction,SMDPad,CuDef*%
%ADD13R,0.510000X0.400000*%
%TD*%
%TA.AperFunction,ComponentPad*%
%ADD14R,2.100000X2.100000*%
%TD*%
%TA.AperFunction,ComponentPad*%
%ADD15C,2.100000*%
%TD*%
%TA.AperFunction,SMDPad,CuDef*%
%ADD16C,0.500000*%
%TD*%
%TA.AperFunction,SMDPad,CuDef*%
%ADD17R,1.550000X0.650000*%
%TD*%
%TA.AperFunction,SMDPad,CuDef*%
%ADD18RoundRect,0.250000X-0.337500X-0.475000X0.337500X-0.475000X0.337500X0.475000X-0.337500X0.475000X0*%
%TD*%
%TA.AperFunction,SMDPad,CuDef*%
%ADD19RoundRect,0.250000X0.337500X0.475000X-0.337500X0.475000X-0.337500X-0.475000X0.337500X-0.475000X0*%
%TD*%
%TA.AperFunction,SMDPad,CuDef*%
%ADD20R,1.500000X1.000000*%
%TD*%
%TA.AperFunction,SMDPad,CuDef*%
%ADD21RoundRect,0.250000X-0.450000X0.350000X-0.450000X-0.350000X0.450000X-0.350000X0.450000X0.350000X0*%
%TD*%
%TA.AperFunction,ComponentPad*%
%ADD22R,1.350000X1.350000*%
%TD*%
%TA.AperFunction,ComponentPad*%
%ADD23O,1.350000X1.350000*%
%TD*%
%TA.AperFunction,SMDPad,CuDef*%
%ADD24RoundRect,0.250000X0.450000X-0.325000X0.450000X0.325000X-0.450000X0.325000X-0.450000X-0.325000X0*%
%TD*%
%TA.AperFunction,SMDPad,CuDef*%
%ADD25R,0.650000X1.700000*%
%TD*%
%TA.AperFunction,SMDPad,CuDef*%
%ADD26RoundRect,0.250000X-0.475000X0.337500X-0.475000X-0.337500X0.475000X-0.337500X0.475000X0.337500X0*%
%TD*%
%TA.AperFunction,SMDPad,CuDef*%
%ADD27RoundRect,0.250000X0.475000X-0.337500X0.475000X0.337500X-0.475000X0.337500X-0.475000X-0.337500X0*%
%TD*%
%TA.AperFunction,SMDPad,CuDef*%
%ADD28R,0.650000X1.550000*%
%TD*%
%TA.AperFunction,SMDPad,CuDef*%
%ADD29RoundRect,0.250000X0.350000X0.450000X-0.350000X0.450000X-0.350000X-0.450000X0.350000X-0.450000X0*%
%TD*%
%TA.AperFunction,ComponentPad*%
%ADD30C,2.600000*%
%TD*%
%TA.AperFunction,SMDPad,CuDef*%
%ADD31R,1.400000X2.100000*%
%TD*%
%TA.AperFunction,SMDPad,CuDef*%
%ADD32R,0.450000X1.425000*%
%TD*%
%TA.AperFunction,ViaPad*%
%ADD33C,1.600000*%
%TD*%
%TA.AperFunction,Conductor*%
%ADD34C,0.500000*%
%TD*%
%TA.AperFunction,Conductor*%
%ADD35C,0.650000*%
%TD*%
%TA.AperFunction,Conductor*%
%ADD36C,1.000000*%
%TD*%
%TA.AperFunction,Conductor*%
%ADD37C,0.400000*%
%TD*%
%TA.AperFunction,Conductor*%
%ADD38C,0.250000*%
%TD*%
G04 APERTURE END LIST*
%TO.C,NT1*%
G36*
X147316000Y-96774000D02*
G01*
X146816000Y-96774000D01*
X146816000Y-95774000D01*
X147316000Y-95774000D01*
X147316000Y-96774000D01*
G37*
%TO.C,NT2*%
G36*
X148687600Y-96766000D02*
G01*
X148187600Y-96766000D01*
X148187600Y-95766000D01*
X148687600Y-95766000D01*
X148687600Y-96766000D01*
G37*
%TO.C,NT4*%
G36*
X147316000Y-88138000D02*
G01*
X146816000Y-88138000D01*
X146816000Y-87138000D01*
X147316000Y-87138000D01*
X147316000Y-88138000D01*
G37*
%TO.C,NT5*%
G36*
X151528400Y-89988200D02*
G01*
X150528400Y-89988200D01*
X150528400Y-89488200D01*
X151528400Y-89488200D01*
X151528400Y-89988200D01*
G37*
%TO.C,NT6*%
G36*
X149830600Y-96766000D02*
G01*
X149330600Y-96766000D01*
X149330600Y-95766000D01*
X149830600Y-95766000D01*
X149830600Y-96766000D01*
G37*
%TO.C,NT3*%
G36*
X151299800Y-87372000D02*
G01*
X150299800Y-87372000D01*
X150299800Y-86872000D01*
X151299800Y-86872000D01*
X151299800Y-87372000D01*
G37*
%TD*%
D10*
%TO.P,D4,1,A*%
%TO.N,DRIVE_GND*%
X149860000Y-80010000D03*
D11*
%TO.P,D4,2,K*%
%TO.N,Net-(D4-Pad2)*%
X144780000Y-80010000D03*
%TD*%
D12*
%TO.P,R3,1*%
%TO.N,D_GND*%
X94996000Y-76431000D03*
%TO.P,R3,2*%
%TO.N,Net-(D3-Pad1)*%
X94996000Y-74431000D03*
%TD*%
D13*
%TO.P,Q2,1,C*%
%TO.N,Net-(D4-Pad2)*%
X136870600Y-86317200D03*
%TO.P,Q2,2,B*%
%TO.N,Net-(Q2-Pad2)*%
X136870600Y-87317200D03*
%TO.P,Q2,3,E*%
%TO.N,DRIVE_GND*%
X138160600Y-86817200D03*
%TD*%
D14*
%TO.P,J4,1,Pin_1*%
%TO.N,D_GND*%
X95245000Y-59690000D03*
D15*
%TO.P,J4,2,Pin_2*%
%TO.N,OR_OUT_3*%
X97785000Y-59690000D03*
%TO.P,J4,3,Pin_3*%
%TO.N,OR_OUT_2*%
X100325000Y-59690000D03*
%TO.P,J4,4,Pin_4*%
%TO.N,OR_OUT_1*%
X102865000Y-59690000D03*
%TD*%
D16*
%TO.P,NT1,1,1*%
%TO.N,Net-(IC5-Pad6)*%
X147066000Y-95774000D03*
%TO.P,NT1,2,2*%
%TO.N,D_5V*%
X147066000Y-96774000D03*
%TD*%
D17*
%TO.P,IC3,1,A1*%
%TO.N,STUDENT_ENABLE*%
X149421000Y-66802000D03*
%TO.P,IC3,2,B1*%
X149421000Y-68072000D03*
%TO.P,IC3,3,Y1*%
%TO.N,INV_1*%
X149421000Y-69342000D03*
%TO.P,IC3,4,A2*%
%TO.N,STUDENT_ENABLE*%
X149421000Y-70612000D03*
%TO.P,IC3,5,B2*%
X149421000Y-71882000D03*
%TO.P,IC3,6,Y2*%
%TO.N,INV_2*%
X149421000Y-73152000D03*
%TO.P,IC3,7,GND*%
%TO.N,D_GND*%
X149421000Y-74422000D03*
%TO.P,IC3,8,Y3*%
%TO.N,INV_3*%
X154871000Y-74422000D03*
%TO.P,IC3,9,A3*%
%TO.N,STUDENT_ENABLE*%
X154871000Y-73152000D03*
%TO.P,IC3,10,B3*%
X154871000Y-71882000D03*
%TO.P,IC3,11,Y4*%
%TO.N,unconnected-(IC3-Pad11)*%
X154871000Y-70612000D03*
%TO.P,IC3,12,A4*%
%TO.N,unconnected-(IC3-Pad12)*%
X154871000Y-69342000D03*
%TO.P,IC3,13,B4*%
%TO.N,unconnected-(IC3-Pad13)*%
X154871000Y-68072000D03*
%TO.P,IC3,14,VCC*%
%TO.N,D_5V*%
X154871000Y-66802000D03*
%TD*%
D16*
%TO.P,NT2,1,1*%
%TO.N,Net-(IC5-Pad7)*%
X148437600Y-95766000D03*
%TO.P,NT2,2,2*%
%TO.N,D_GND*%
X148437600Y-96766000D03*
%TD*%
D17*
%TO.P,IC2,1,A1*%
%TO.N,SUP_LED_3*%
X110305000Y-67564000D03*
%TO.P,IC2,2,B1*%
%TO.N,INV_3*%
X110305000Y-68834000D03*
%TO.P,IC2,3,Y1*%
%TO.N,Net-(IC2-Pad3)*%
X110305000Y-70104000D03*
%TO.P,IC2,4,A2*%
X110305000Y-71374000D03*
%TO.P,IC2,5,B2*%
X110305000Y-72644000D03*
%TO.P,IC2,6,Y2*%
%TO.N,AND_SUP_LED_3*%
X110305000Y-73914000D03*
%TO.P,IC2,7,GND*%
%TO.N,D_GND*%
X110305000Y-75184000D03*
%TO.P,IC2,8,Y3*%
%TO.N,Net-(IC2-Pad12)*%
X115755000Y-75184000D03*
%TO.P,IC2,9,A3*%
%TO.N,STU_LED_3*%
X115755000Y-73914000D03*
%TO.P,IC2,10,B3*%
%TO.N,STUDENT_ENABLE*%
X115755000Y-72644000D03*
%TO.P,IC2,11,Y4*%
%TO.N,AND_STU_LED_3*%
X115755000Y-71374000D03*
%TO.P,IC2,12,A4*%
%TO.N,Net-(IC2-Pad12)*%
X115755000Y-70104000D03*
%TO.P,IC2,13,B4*%
X115755000Y-68834000D03*
%TO.P,IC2,14,VCC*%
%TO.N,D_5V*%
X115755000Y-67564000D03*
%TD*%
D18*
%TO.P,C8,1*%
%TO.N,D_5V*%
X141456500Y-99800500D03*
%TO.P,C8,2*%
%TO.N,D_GND*%
X143531500Y-99800500D03*
%TD*%
D13*
%TO.P,Q1,1,C*%
%TO.N,Net-(D4-Pad2)*%
X139055000Y-83066000D03*
%TO.P,Q1,2,B*%
%TO.N,Net-(Q1-Pad2)*%
X139055000Y-84066000D03*
%TO.P,Q1,3,E*%
%TO.N,DRIVE_5V*%
X140345000Y-83566000D03*
%TD*%
D12*
%TO.P,R2,1*%
%TO.N,D_GND*%
X98806000Y-76431000D03*
%TO.P,R2,2*%
%TO.N,Net-(D2-Pad1)*%
X98806000Y-74431000D03*
%TD*%
D19*
%TO.P,C3,1*%
%TO.N,DRIVE_5V*%
X155702000Y-98806000D03*
%TO.P,C3,2*%
%TO.N,DRIVE_GND*%
X153627000Y-98806000D03*
%TD*%
D20*
%TO.P,JP1,1,A*%
%TO.N,Net-(D4-Pad2)*%
X144345739Y-83668761D03*
%TO.P,JP1,2,B*%
%TO.N,Net-(J2-Pad2)*%
X144345739Y-84968761D03*
%TD*%
D21*
%TO.P,R7,1*%
%TO.N,Net-(D4-Pad2)*%
X147520739Y-83668761D03*
%TO.P,R7,2*%
%TO.N,Net-(J2-Pad2)*%
X147520739Y-85668761D03*
%TD*%
D18*
%TO.P,C9,1*%
%TO.N,D_5V*%
X147785000Y-99568000D03*
%TO.P,C9,2*%
%TO.N,D_GND*%
X149860000Y-99568000D03*
%TD*%
D22*
%TO.P,J1,1,MISO*%
%TO.N,LOAD_INPUT*%
X127508000Y-87630000D03*
D23*
%TO.P,J1,2,VCC*%
%TO.N,D_5V*%
X127508000Y-89630000D03*
%TO.P,J1,3,SCK*%
%TO.N,DRIVE_INPUT*%
X125508000Y-87630000D03*
%TO.P,J1,4,MOSI*%
%TO.N,Net-(J1-Pad4)*%
X125508000Y-89630000D03*
%TO.P,J1,5,~{RST}*%
%TO.N,Net-(J1-Pad5)*%
X123508000Y-87630000D03*
%TO.P,J1,6,GND*%
%TO.N,D_GND*%
X123508000Y-89630000D03*
%TD*%
D24*
%TO.P,D1,1,K*%
%TO.N,Net-(D1-Pad1)*%
X102616000Y-71646000D03*
%TO.P,D1,2,A*%
%TO.N,OR_OUT_1*%
X102616000Y-69596000D03*
%TD*%
D19*
%TO.P,C2,1*%
%TO.N,DRIVE_5V*%
X155702000Y-96266000D03*
%TO.P,C2,2*%
%TO.N,DRIVE_GND*%
X153627000Y-96266000D03*
%TD*%
D24*
%TO.P,D3,1,K*%
%TO.N,Net-(D3-Pad1)*%
X94996000Y-71646000D03*
%TO.P,D3,2,A*%
%TO.N,OR_OUT_3*%
X94996000Y-69596000D03*
%TD*%
D21*
%TO.P,R6,1*%
%TO.N,Net-(J1-Pad5)*%
X141478000Y-92180500D03*
%TO.P,R6,2*%
%TO.N,D_5V*%
X141478000Y-94180500D03*
%TD*%
D16*
%TO.P,NT4,1,1*%
%TO.N,Net-(J2-Pad2)*%
X147066000Y-87138000D03*
%TO.P,NT4,2,2*%
%TO.N,Net-(IC5-Pad3)*%
X147066000Y-88138000D03*
%TD*%
D24*
%TO.P,D2,1,K*%
%TO.N,Net-(D2-Pad1)*%
X98806000Y-71646000D03*
%TO.P,D2,2,A*%
%TO.N,OR_OUT_2*%
X98806000Y-69596000D03*
%TD*%
D19*
%TO.P,C5,1*%
%TO.N,D_5V*%
X115824000Y-64516000D03*
%TO.P,C5,2*%
%TO.N,D_GND*%
X113749000Y-64516000D03*
%TD*%
D25*
%TO.P,U10,1,~{RESET}/PB5*%
%TO.N,Net-(J1-Pad5)*%
X138938000Y-92340500D03*
%TO.P,U10,2,XTAL1/PB3*%
%TO.N,LOAD_MCU*%
X137668000Y-92340500D03*
%TO.P,U10,3,XTAL2/PB4*%
%TO.N,DRIVE_MCU*%
X136398000Y-92340500D03*
%TO.P,U10,4,GND*%
%TO.N,D_GND*%
X135128000Y-92340500D03*
%TO.P,U10,5,AREF/PB0*%
%TO.N,Net-(J1-Pad4)*%
X135128000Y-99640500D03*
%TO.P,U10,6,PB1*%
%TO.N,LOAD_INPUT*%
X136398000Y-99640500D03*
%TO.P,U10,7,PB2*%
%TO.N,DRIVE_INPUT*%
X137668000Y-99640500D03*
%TO.P,U10,8,VCC*%
%TO.N,D_5V*%
X138938000Y-99640500D03*
%TD*%
D10*
%TO.P,A1,1,NC*%
%TO.N,unconnected-(A1-Pad1)*%
X119380000Y-105918000D03*
D11*
%TO.P,A1,2,IOREF*%
%TO.N,unconnected-(A1-Pad2)*%
X121920000Y-105918000D03*
%TO.P,A1,3,~{RESET}*%
%TO.N,unconnected-(A1-Pad3)*%
X124460000Y-105918000D03*
%TO.P,A1,4,3V3*%
%TO.N,unconnected-(A1-Pad4)*%
X127000000Y-105918000D03*
%TO.P,A1,5,5V*%
%TO.N,D_5V*%
X129540000Y-105918000D03*
%TO.P,A1,6,GND*%
%TO.N,unconnected-(A1-Pad6)*%
X132080000Y-105918000D03*
%TO.P,A1,7,GND*%
%TO.N,D_GND*%
X134620000Y-105918000D03*
%TO.P,A1,8,Vin*%
%TO.N,unconnected-(A1-Pad8)*%
X137160000Y-105918000D03*
%TO.P,A1,9,IS_1*%
%TO.N,CURRENT_SENSE_OUT*%
X142240000Y-105918000D03*
%TO.P,A1,10,IS_2*%
%TO.N,CURRENT_SIGN_OUT*%
X144780000Y-105918000D03*
%TO.P,A1,11,A2*%
%TO.N,unconnected-(A1-Pad11)*%
X147320000Y-105918000D03*
%TO.P,A1,12,A3*%
%TO.N,unconnected-(A1-Pad12)*%
X149860000Y-105918000D03*
%TO.P,A1,13,A4*%
%TO.N,unconnected-(A1-Pad13)*%
X152400000Y-105918000D03*
%TO.P,A1,14,A5*%
%TO.N,unconnected-(A1-Pad14)*%
X154940000Y-105918000D03*
%TO.P,A1,15,D0/RX*%
%TO.N,unconnected-(A1-Pad15)*%
X154940000Y-57658000D03*
%TO.P,A1,16,D1/TX*%
%TO.N,unconnected-(A1-Pad16)*%
X152400000Y-57658000D03*
%TO.P,A1,17,D2*%
%TO.N,SUP_LED_2*%
X149860000Y-57658000D03*
%TO.P,A1,18,IN_1*%
%TO.N,unconnected-(A1-Pad18)*%
X147320000Y-57658000D03*
%TO.P,A1,19,D4*%
%TO.N,LOAD_INPUT*%
X144780000Y-57658000D03*
%TO.P,A1,20,D5*%
%TO.N,STUDENT_ENABLE*%
X142240000Y-57658000D03*
%TO.P,A1,21,D6*%
%TO.N,STU_LED_1*%
X139700000Y-57658000D03*
%TO.P,A1,22,D7*%
%TO.N,STU_LED_2*%
X137160000Y-57658000D03*
%TO.P,A1,23,D8*%
%TO.N,STU_LED_3*%
X133100000Y-57658000D03*
%TO.P,A1,24,D9*%
%TO.N,SUP_LED_3*%
X130560000Y-57658000D03*
%TO.P,A1,25,D10*%
%TO.N,SUP_LED_1*%
X128020000Y-57658000D03*
%TO.P,A1,26,IN_2*%
%TO.N,unconnected-(A1-Pad26)*%
X125480000Y-57658000D03*
%TO.P,A1,27,INH_1*%
%TO.N,DRIVE_INPUT*%
X122940000Y-57658000D03*
%TO.P,A1,28,INH_2*%
X120400000Y-57658000D03*
%TO.P,A1,29,GND*%
%TO.N,unconnected-(A1-Pad29)*%
X117860000Y-57658000D03*
%TO.P,A1,30,AREF*%
%TO.N,unconnected-(A1-Pad30)*%
X115320000Y-57658000D03*
%TO.P,A1,31,SDA/A4*%
%TO.N,unconnected-(A1-Pad31)*%
X112780000Y-57658000D03*
%TO.P,A1,32,SCL/A5*%
%TO.N,unconnected-(A1-Pad32)*%
X110240000Y-57658000D03*
%TD*%
D26*
%TO.P,C4,1*%
%TO.N,D_5V*%
X128778000Y-74676000D03*
%TO.P,C4,2*%
%TO.N,D_GND*%
X128778000Y-76751000D03*
%TD*%
D27*
%TO.P,C7,1*%
%TO.N,D_5V*%
X105410000Y-91694000D03*
%TO.P,C7,2*%
%TO.N,D_GND*%
X105410000Y-89619000D03*
%TD*%
D28*
%TO.P,IC4,1,A1*%
%TO.N,AND_SUP_LED_1*%
X102870000Y-85921000D03*
%TO.P,IC4,2,B1*%
%TO.N,AND_STU_LED_1*%
X101600000Y-85921000D03*
%TO.P,IC4,3,Y1*%
%TO.N,OR_OUT_1*%
X100330000Y-85921000D03*
%TO.P,IC4,4,A2*%
%TO.N,AND_SUP_LED_2*%
X99060000Y-85921000D03*
%TO.P,IC4,5,B2*%
%TO.N,AND_STU_LED_2*%
X97790000Y-85921000D03*
%TO.P,IC4,6,Y2*%
%TO.N,OR_OUT_2*%
X96520000Y-85921000D03*
%TO.P,IC4,7,GND*%
%TO.N,D_GND*%
X95250000Y-85921000D03*
%TO.P,IC4,8,Y3*%
%TO.N,OR_OUT_3*%
X95250000Y-91371000D03*
%TO.P,IC4,9,A3*%
%TO.N,AND_SUP_LED_3*%
X96520000Y-91371000D03*
%TO.P,IC4,10,B3*%
%TO.N,AND_STU_LED_3*%
X97790000Y-91371000D03*
%TO.P,IC4,11,Y4*%
%TO.N,unconnected-(IC4-Pad11)*%
X99060000Y-91371000D03*
%TO.P,IC4,12,A4*%
%TO.N,unconnected-(IC4-Pad12)*%
X100330000Y-91371000D03*
%TO.P,IC4,13,B4*%
%TO.N,unconnected-(IC4-Pad13)*%
X101600000Y-91371000D03*
%TO.P,IC4,14,VCC*%
%TO.N,D_5V*%
X102870000Y-91371000D03*
%TD*%
D29*
%TO.P,R5,1*%
%TO.N,Net-(Q2-Pad2)*%
X135185739Y-87478761D03*
%TO.P,R5,2*%
%TO.N,LOAD_MCU*%
X133185739Y-87478761D03*
%TD*%
%TO.P,R4,1*%
%TO.N,Net-(Q1-Pad2)*%
X135185739Y-83668761D03*
%TO.P,R4,2*%
%TO.N,DRIVE_MCU*%
X133185739Y-83668761D03*
%TD*%
D30*
%TO.P,J7,1,Pin_1*%
%TO.N,DRIVE_5V*%
X156464000Y-90678000D03*
%TD*%
%TO.P,J5,1,Pin_1*%
%TO.N,DRIVE_GND*%
X154686000Y-102362000D03*
%TD*%
D16*
%TO.P,NT5,1,1*%
%TO.N,Net-(D4-Pad2)*%
X151528400Y-89738200D03*
%TO.P,NT5,2,2*%
%TO.N,Net-(IC5-Pad1)*%
X150528400Y-89738200D03*
%TD*%
D19*
%TO.P,C1,1*%
%TO.N,DRIVE_5V*%
X155702000Y-93726000D03*
%TO.P,C1,2*%
%TO.N,DRIVE_GND*%
X153627000Y-93726000D03*
%TD*%
D31*
%TO.P,SW1,1,1*%
%TO.N,D_GND*%
X114336000Y-97876000D03*
X114336000Y-87876000D03*
%TO.P,SW1,2,2*%
%TO.N,Net-(J1-Pad5)*%
X118836000Y-97876000D03*
X118836000Y-87876000D03*
%TD*%
D14*
%TO.P,J2,1,Pin_1*%
%TO.N,DRIVE_GND*%
X156210000Y-81280000D03*
D15*
%TO.P,J2,2,Pin_2*%
%TO.N,Net-(J2-Pad2)*%
X156210000Y-83820000D03*
%TD*%
D12*
%TO.P,R1,1*%
%TO.N,D_GND*%
X102616000Y-76431000D03*
%TO.P,R1,2*%
%TO.N,Net-(D1-Pad1)*%
X102616000Y-74431000D03*
%TD*%
D19*
%TO.P,C6,1*%
%TO.N,D_5V*%
X154940000Y-64008000D03*
%TO.P,C6,2*%
%TO.N,D_GND*%
X152865000Y-64008000D03*
%TD*%
D17*
%TO.P,IC1,1,1A*%
%TO.N,SUP_LED_1*%
X137323500Y-74422000D03*
%TO.P,IC1,2,1B*%
%TO.N,INV_1*%
X137323500Y-73152000D03*
%TO.P,IC1,3,1Y*%
%TO.N,AND_SUP_LED_1*%
X137323500Y-71882000D03*
%TO.P,IC1,4,2A*%
%TO.N,SUP_LED_2*%
X137323500Y-70612000D03*
%TO.P,IC1,5,2B*%
%TO.N,INV_2*%
X137323500Y-69342000D03*
%TO.P,IC1,6,2Y*%
%TO.N,AND_SUP_LED_2*%
X137323500Y-68072000D03*
%TO.P,IC1,7,GND*%
%TO.N,D_GND*%
X137323500Y-66802000D03*
%TO.P,IC1,8,3Y*%
%TO.N,AND_STU_LED_1*%
X131873500Y-66802000D03*
%TO.P,IC1,9,3A*%
%TO.N,STU_LED_1*%
X131873500Y-68072000D03*
%TO.P,IC1,10,3B*%
%TO.N,STUDENT_ENABLE*%
X131873500Y-69342000D03*
%TO.P,IC1,11,4Y*%
%TO.N,AND_STU_LED_2*%
X131873500Y-70612000D03*
%TO.P,IC1,12,4A*%
%TO.N,STU_LED_2*%
X131873500Y-71882000D03*
%TO.P,IC1,13,4B*%
%TO.N,STUDENT_ENABLE*%
X131873500Y-73152000D03*
%TO.P,IC1,14,VCC*%
%TO.N,D_5V*%
X131873500Y-74422000D03*
%TD*%
D16*
%TO.P,NT6,1,1*%
%TO.N,Net-(IC5-Pad8)*%
X149580600Y-95766000D03*
%TO.P,NT6,2,2*%
%TO.N,CURRENT_SENSE_OUT*%
X149580600Y-96766000D03*
%TD*%
D32*
%TO.P,IC5,1,RS-*%
%TO.N,Net-(IC5-Pad1)*%
X149057000Y-89736000D03*
%TO.P,IC5,2,SIGN*%
%TO.N,Net-(IC5-Pad2)*%
X148407000Y-89736000D03*
%TO.P,IC5,3,RS+*%
%TO.N,Net-(IC5-Pad3)*%
X147757000Y-89736000D03*
%TO.P,IC5,4,N.C._1*%
%TO.N,unconnected-(IC5-Pad4)*%
X147107000Y-89736000D03*
%TO.P,IC5,5,N.C._2*%
%TO.N,unconnected-(IC5-Pad5)*%
X147107000Y-94160000D03*
%TO.P,IC5,6,VCC*%
%TO.N,Net-(IC5-Pad6)*%
X147757000Y-94160000D03*
%TO.P,IC5,7,GND*%
%TO.N,Net-(IC5-Pad7)*%
X148407000Y-94160000D03*
%TO.P,IC5,8,OUT*%
%TO.N,Net-(IC5-Pad8)*%
X149057000Y-94160000D03*
%TD*%
D16*
%TO.P,NT3,1,1*%
%TO.N,CURRENT_SIGN_OUT*%
X151299800Y-87122000D03*
%TO.P,NT3,2,2*%
%TO.N,Net-(IC5-Pad2)*%
X150299800Y-87122000D03*
%TD*%
D33*
%TO.N,Net-(D4-Pad2)*%
X141458188Y-82110514D03*
%TO.N,OR_OUT_1*%
X100330000Y-83312000D03*
X103124000Y-65024000D03*
%TO.N,OR_OUT_2*%
X100330000Y-65278000D03*
X96570900Y-80772000D03*
%TO.N,OR_OUT_3*%
X95260813Y-93925290D03*
X97790000Y-65532000D03*
%TO.N,SUP_LED_1*%
X141888021Y-74295100D03*
X124206000Y-61214000D03*
%TO.N,AND_SUP_LED_1*%
X105754345Y-83703230D03*
X113049946Y-80182346D03*
%TO.N,INV_2*%
X145347751Y-69108636D03*
X145041585Y-74295100D03*
%TO.N,AND_SUP_LED_2*%
X107797500Y-87934800D03*
X142890618Y-68426500D03*
X114077392Y-82301992D03*
X142240000Y-77394100D03*
%TO.N,AND_STU_LED_1*%
X129032000Y-66802000D03*
X104454605Y-80724442D03*
%TO.N,AND_STU_LED_2*%
X102108000Y-81788000D03*
X127517020Y-69088000D03*
%TO.N,INV_3*%
X139759733Y-75844600D03*
X107900917Y-68307181D03*
%TO.N,AND_SUP_LED_3*%
X109561219Y-77874900D03*
X106242710Y-73559500D03*
%TO.N,AND_STU_LED_3*%
X106371642Y-79167862D03*
X118603208Y-69179383D03*
%TO.N,Net-(J1-Pad4)*%
X125730000Y-99314000D03*
%TO.N,Net-(Q1-Pad2)*%
X136982200Y-82346800D03*
X140284200Y-86131400D03*
%TO.N,Net-(J1-Pad5)*%
X120615406Y-86818900D03*
%TO.N,STUDENT_ENABLE*%
X120929400Y-72085200D03*
X143234033Y-61483989D03*
X124130848Y-70282848D03*
X147236447Y-68191720D03*
%TO.N,D_5V*%
X122936000Y-64590980D03*
X132359500Y-92456000D03*
X131652924Y-76788924D03*
X136933074Y-77366799D03*
X107794088Y-92731988D03*
X127508000Y-102362000D03*
%TO.N,D_GND*%
X147329881Y-74295100D03*
X121920000Y-93218000D03*
X93319600Y-78638400D03*
X139700000Y-66116200D03*
X125984000Y-78789100D03*
X150418800Y-63093600D03*
%TO.N,LOAD_INPUT*%
X133157377Y-99056711D03*
X129057500Y-97536000D03*
X146405600Y-61595000D03*
%TO.N,DRIVE_INPUT*%
X105410000Y-68326000D03*
X131318000Y-101600000D03*
X101879500Y-79502000D03*
X125476000Y-85090000D03*
%TO.N,DRIVE_5V*%
X151880322Y-91622153D03*
X143586200Y-88214200D03*
%TO.N,DRIVE_GND*%
X157558500Y-101600000D03*
%TO.N,Net-(D4-Pad2)*%
X150421671Y-83503497D03*
X154051000Y-88696800D03*
%TO.N,Net-(J2-Pad2)*%
X151343423Y-85480322D03*
%TD*%
D34*
%TO.N,D_5V*%
X156718000Y-75946000D02*
X156718000Y-64820800D01*
X155905200Y-64008000D02*
X154940000Y-64008000D01*
X155194000Y-77470000D02*
X156718000Y-75946000D01*
X144845817Y-77470000D02*
X155194000Y-77470000D01*
X156718000Y-64820800D02*
X155905200Y-64008000D01*
X143372206Y-78943611D02*
X144845817Y-77470000D01*
X138509886Y-78943611D02*
X143372206Y-78943611D01*
X136933074Y-77366799D02*
X138509886Y-78943611D01*
%TO.N,AND_SUP_LED_2*%
X114148102Y-82231282D02*
X114077392Y-82301992D01*
X138210232Y-76435625D02*
X137591906Y-75817299D01*
X138210232Y-76486425D02*
X138210232Y-76435625D01*
X136229396Y-75817299D02*
X129815413Y-82231282D01*
X129815413Y-82231282D02*
X114148102Y-82231282D01*
X142240000Y-77394100D02*
X139117907Y-77394100D01*
X137591906Y-75817299D02*
X136229396Y-75817299D01*
X139117907Y-77394100D02*
X138210232Y-76486425D01*
%TO.N,Net-(D1-Pad1)*%
X102616000Y-71646000D02*
X102616000Y-74431000D01*
%TO.N,OR_OUT_1*%
X100330000Y-85921000D02*
X100330000Y-83312000D01*
X103124000Y-69088000D02*
X102616000Y-69596000D01*
X103124000Y-65024000D02*
X103124000Y-69088000D01*
%TO.N,Net-(D2-Pad1)*%
X98806000Y-71646000D02*
X98806000Y-74431000D01*
%TO.N,OR_OUT_2*%
X100330000Y-65278000D02*
X100330000Y-68072000D01*
X96520000Y-80822900D02*
X96570900Y-80772000D01*
X96520000Y-85921000D02*
X96520000Y-80822900D01*
X100330000Y-68072000D02*
X98806000Y-69596000D01*
%TO.N,Net-(D3-Pad1)*%
X94996000Y-71646000D02*
X94996000Y-74431000D01*
%TO.N,OR_OUT_3*%
X94996000Y-68326000D02*
X94996000Y-69596000D01*
X97790000Y-65532000D02*
X94996000Y-68326000D01*
X95250000Y-91371000D02*
X95250000Y-93914477D01*
X95250000Y-93914477D02*
X95260813Y-93925290D01*
%TO.N,SUP_LED_1*%
X138598500Y-74422000D02*
X138725400Y-74295100D01*
X128020000Y-57658000D02*
X124464000Y-61214000D01*
X137323500Y-74422000D02*
X138598500Y-74422000D01*
X138725400Y-74295100D02*
X141888021Y-74295100D01*
X124464000Y-61214000D02*
X124206000Y-61214000D01*
%TO.N,INV_1*%
X148274622Y-69342000D02*
X149421000Y-69342000D01*
X141246196Y-72745599D02*
X144871023Y-72745599D01*
X144871023Y-72745599D02*
X148274622Y-69342000D01*
X137323500Y-73152000D02*
X140839795Y-73152000D01*
X140839795Y-73152000D02*
X141246196Y-72745599D01*
%TO.N,AND_SUP_LED_1*%
X133858000Y-74018478D02*
X133858000Y-76775173D01*
X135994478Y-71882000D02*
X133858000Y-74018478D01*
X105087770Y-83703230D02*
X105754345Y-83703230D01*
X137323500Y-71882000D02*
X135994478Y-71882000D01*
X113334800Y-80467200D02*
X113049946Y-80182346D01*
X133858000Y-76775173D02*
X130165973Y-80467200D01*
X130165973Y-80467200D02*
X113334800Y-80467200D01*
X102870000Y-85921000D02*
X105087770Y-83703230D01*
%TO.N,SUP_LED_2*%
X135798989Y-65597611D02*
X136853499Y-64543101D01*
X135994478Y-70612000D02*
X135798989Y-70416511D01*
X136853499Y-64543101D02*
X145940133Y-64543101D01*
X145940133Y-64543101D02*
X149860000Y-60623234D01*
X135798989Y-70416511D02*
X135798989Y-65597611D01*
X149860000Y-60623234D02*
X149860000Y-57658000D01*
X137323500Y-70612000D02*
X135994478Y-70612000D01*
%TO.N,INV_2*%
X140319526Y-69342000D02*
X140953537Y-69976011D01*
X149421000Y-73152000D02*
X148378107Y-73152000D01*
X144480376Y-69976011D02*
X145347751Y-69108636D01*
X147971706Y-72745599D02*
X146591086Y-72745599D01*
X146591086Y-72745599D02*
X145041585Y-74295100D01*
X140953537Y-69976011D02*
X144480376Y-69976011D01*
X137323500Y-69342000D02*
X140319526Y-69342000D01*
X148378107Y-73152000D02*
X147971706Y-72745599D01*
%TO.N,AND_SUP_LED_2*%
X142536118Y-68072000D02*
X137323500Y-68072000D01*
X99060000Y-85921000D02*
X99060000Y-87250022D01*
X142890618Y-68426500D02*
X142536118Y-68072000D01*
X99060000Y-87250022D02*
X99744778Y-87934800D01*
X99744778Y-87934800D02*
X107797500Y-87934800D01*
%TO.N,AND_STU_LED_1*%
X101600000Y-84591978D02*
X104454605Y-81737373D01*
X131873500Y-66802000D02*
X129032000Y-66802000D01*
X104454605Y-81737373D02*
X104454605Y-80724442D01*
X101600000Y-85921000D02*
X101600000Y-84591978D01*
%TO.N,STU_LED_1*%
X133398011Y-67876511D02*
X133202522Y-68072000D01*
X139700000Y-57658000D02*
X133398011Y-63959989D01*
X133202522Y-68072000D02*
X131873500Y-68072000D01*
X133398011Y-63959989D02*
X133398011Y-67876511D01*
%TO.N,AND_STU_LED_2*%
X102108000Y-81788000D02*
X100997341Y-81788000D01*
X97790000Y-83312000D02*
X97790000Y-85921000D01*
X100971830Y-81762489D02*
X99339511Y-81762489D01*
X99339511Y-81762489D02*
X97790000Y-83312000D01*
X127517020Y-69088000D02*
X129041020Y-70612000D01*
X129041020Y-70612000D02*
X131873500Y-70612000D01*
X100997341Y-81788000D02*
X100971830Y-81762489D01*
%TO.N,STU_LED_2*%
X127999520Y-71882000D02*
X131873500Y-71882000D01*
X137160000Y-57658000D02*
X134874000Y-59944000D01*
X134874000Y-59944000D02*
X133096000Y-59944000D01*
X125967520Y-69850000D02*
X127999520Y-71882000D01*
X133096000Y-59944000D02*
X125967520Y-67072480D01*
X125967520Y-67072480D02*
X125967520Y-69850000D01*
%TO.N,SUP_LED_3*%
X125127040Y-62992000D02*
X125176520Y-63041480D01*
X110305000Y-64955000D02*
X112268000Y-62992000D01*
X130560000Y-57658000D02*
X125176520Y-63041480D01*
X110305000Y-67564000D02*
X110305000Y-64955000D01*
X112268000Y-62992000D02*
X125127040Y-62992000D01*
%TO.N,INV_3*%
X108427736Y-68834000D02*
X110305000Y-68834000D01*
X153448400Y-75844600D02*
X139759733Y-75844600D01*
X107900917Y-68307181D02*
X108427736Y-68834000D01*
X154871000Y-74422000D02*
X153448400Y-75844600D01*
%TO.N,Net-(IC2-Pad3)*%
X110305000Y-70104000D02*
X110305000Y-71374000D01*
X110305000Y-71374000D02*
X110305000Y-72644000D01*
%TO.N,AND_SUP_LED_3*%
X110346511Y-82517138D02*
X110346511Y-94190811D01*
X108753922Y-95783400D02*
X101253278Y-95783400D01*
X109561219Y-81731846D02*
X110346511Y-82517138D01*
X109561219Y-77874900D02*
X109561219Y-81731846D01*
X110305000Y-73914000D02*
X106597210Y-73914000D01*
X110346511Y-94190811D02*
X108753922Y-95783400D01*
X101253278Y-95783400D02*
X99364909Y-93895031D01*
X99364909Y-93895031D02*
X97571474Y-93895030D01*
X106597210Y-73914000D02*
X106242710Y-73559500D01*
X96520000Y-92843556D02*
X96520000Y-91371000D01*
X97571474Y-93895030D02*
X96520000Y-92843556D01*
%TO.N,Net-(IC2-Pad12)*%
X114230489Y-70299489D02*
X114230489Y-74606489D01*
X115755000Y-70173000D02*
X114356978Y-70173000D01*
X114356978Y-70173000D02*
X114230489Y-70299489D01*
X115755000Y-68834000D02*
X115755000Y-70230489D01*
X114230489Y-74606489D02*
X114808000Y-75184000D01*
X114808000Y-75184000D02*
X115755000Y-75184000D01*
%TO.N,STU_LED_3*%
X122478901Y-68279099D02*
X133100000Y-57658000D01*
X121291926Y-73914000D02*
X122478901Y-72727025D01*
X122478901Y-72727025D02*
X122478901Y-68279099D01*
X115755000Y-73914000D02*
X121291926Y-73914000D01*
%TO.N,AND_STU_LED_3*%
X109347000Y-93776800D02*
X108339911Y-94783889D01*
X101667289Y-94783889D02*
X99778911Y-92895511D01*
X106371642Y-79167862D02*
X108487779Y-81283999D01*
X108487779Y-81283999D02*
X108487779Y-85784379D01*
X117084022Y-71374000D02*
X118603208Y-69854814D01*
X118603208Y-69854814D02*
X118603208Y-69179383D01*
X97790000Y-92700022D02*
X97790000Y-91371000D01*
X115755000Y-71374000D02*
X117084022Y-71374000D01*
X108487779Y-85784379D02*
X109347000Y-86643600D01*
X109347000Y-86643600D02*
X109347000Y-93776800D01*
X97985489Y-92895511D02*
X97790000Y-92700022D01*
X99778911Y-92895511D02*
X97985489Y-92895511D01*
X108339911Y-94783889D02*
X101667289Y-94783889D01*
%TO.N,Net-(J1-Pad4)*%
X132747341Y-100838000D02*
X133930500Y-100838000D01*
X131223341Y-99314000D02*
X132747341Y-100838000D01*
X125730000Y-99314000D02*
X131223341Y-99314000D01*
X133930500Y-100838000D02*
X135128000Y-99640500D01*
%TO.N,Net-(Q1-Pad2)*%
X135185739Y-83668761D02*
X135660239Y-83668761D01*
X139055000Y-84546600D02*
X140284200Y-85775800D01*
X139055000Y-84066000D02*
X139055000Y-84546600D01*
X140284200Y-85775800D02*
X140284200Y-86131400D01*
X135660239Y-83668761D02*
X136982200Y-82346800D01*
%TO.N,LOAD_MCU*%
X134829677Y-89336233D02*
X133185739Y-87692295D01*
X133185739Y-87692295D02*
X133185739Y-87478761D01*
X137668000Y-92340500D02*
X137668000Y-90792944D01*
X136211289Y-89336233D02*
X134829677Y-89336233D01*
X137668000Y-90792944D02*
X136211289Y-89336233D01*
%TO.N,Net-(J1-Pad5)*%
X141318000Y-92340500D02*
X141478000Y-92180500D01*
X122850000Y-97876000D02*
X118836000Y-97876000D01*
X136924522Y-95758000D02*
X124968000Y-95758000D01*
X138938000Y-92340500D02*
X141318000Y-92340500D01*
X118836000Y-87876000D02*
X118836000Y-97876000D01*
X138938000Y-93744522D02*
X136924522Y-95758000D01*
X138938000Y-92340500D02*
X138938000Y-93744522D01*
X124968000Y-95758000D02*
X122850000Y-97876000D01*
X119893100Y-86818900D02*
X120615406Y-86818900D01*
X118836000Y-87876000D02*
X119893100Y-86818900D01*
%TO.N,DRIVE_MCU*%
X131318000Y-88646000D02*
X131318000Y-85536500D01*
X136202511Y-90740989D02*
X133412989Y-90740989D01*
X133412989Y-90740989D02*
X131318000Y-88646000D01*
X136398000Y-90936478D02*
X136202511Y-90740989D01*
X131318000Y-85536500D02*
X133185739Y-83668761D01*
X136398000Y-92340500D02*
X136398000Y-90936478D01*
%TO.N,STUDENT_ENABLE*%
X149421000Y-70612000D02*
X149421000Y-71882000D01*
X149421000Y-68072000D02*
X151688800Y-68072000D01*
X152374600Y-69723000D02*
X151485600Y-70612000D01*
X134799469Y-65032714D02*
X134799469Y-67888587D01*
X151485600Y-70612000D02*
X150750022Y-70612000D01*
X132842000Y-73152000D02*
X131873500Y-73152000D01*
X131873500Y-73152000D02*
X127000000Y-73152000D01*
X134799469Y-67888587D02*
X133346056Y-69342000D01*
X149421000Y-66802000D02*
X148626167Y-66802000D01*
X154871000Y-71882000D02*
X154871000Y-73152000D01*
X131873500Y-69342000D02*
X133202522Y-69342000D01*
X133202522Y-69342000D02*
X133398011Y-69537489D01*
X133398011Y-72595989D02*
X132842000Y-73152000D01*
X120370600Y-72644000D02*
X120929400Y-72085200D01*
X149421000Y-66802000D02*
X149421000Y-68072000D01*
X142240000Y-57658000D02*
X142240000Y-60489956D01*
X115755000Y-72644000D02*
X120370600Y-72644000D01*
X127000000Y-73152000D02*
X124130848Y-70282848D01*
X133346056Y-69342000D02*
X131873500Y-69342000D01*
X142174183Y-57658000D02*
X134799469Y-65032714D01*
X142240000Y-60489956D02*
X143234033Y-61483989D01*
X150750022Y-70612000D02*
X152020022Y-71882000D01*
X133398011Y-69537489D02*
X133398011Y-72595989D01*
X148626167Y-66802000D02*
X147236447Y-68191720D01*
X151688800Y-68072000D02*
X152374600Y-68757800D01*
X152374600Y-68757800D02*
X152374600Y-69723000D01*
X142240000Y-57658000D02*
X142174183Y-57658000D01*
X150750022Y-70612000D02*
X149421000Y-70612000D01*
X152020022Y-71882000D02*
X154871000Y-71882000D01*
%TO.N,Net-(Q2-Pad2)*%
X135347300Y-87317200D02*
X135185739Y-87478761D01*
X136870600Y-87317200D02*
X135347300Y-87317200D01*
%TO.N,D_5V*%
X131873500Y-76568348D02*
X131652924Y-76788924D01*
X136287534Y-104140000D02*
X131318000Y-104140000D01*
X115824000Y-64516000D02*
X115824000Y-67495000D01*
X138938000Y-101489534D02*
X136287534Y-104140000D01*
X141456500Y-99800500D02*
X139098000Y-99800500D01*
X154940000Y-66733000D02*
X154871000Y-66802000D01*
X115824000Y-67495000D02*
X115755000Y-67564000D01*
X132359500Y-92456000D02*
X130048000Y-90144500D01*
X130048000Y-84048600D02*
X136729801Y-77366799D01*
X129032000Y-74422000D02*
X128778000Y-74676000D01*
X141478000Y-94180500D02*
X144071500Y-96774000D01*
X138938000Y-99640500D02*
X138938000Y-101489534D01*
X147066000Y-96774000D02*
X147066000Y-98849000D01*
X136729801Y-77366799D02*
X136933074Y-77366799D01*
X115824000Y-64516000D02*
X122861020Y-64516000D01*
X127508000Y-103886000D02*
X129540000Y-105918000D01*
X131873500Y-74422000D02*
X129032000Y-74422000D01*
X154940000Y-64008000D02*
X154940000Y-66733000D01*
X131873500Y-74422000D02*
X131873500Y-76568348D01*
X130048000Y-90144500D02*
X130048000Y-84048600D01*
X106447988Y-92731988D02*
X107794088Y-92731988D01*
X139098000Y-99800500D02*
X138938000Y-99640500D01*
X127508000Y-102362000D02*
X127508000Y-103886000D01*
X103193000Y-91694000D02*
X102870000Y-91371000D01*
X105410000Y-91694000D02*
X106447988Y-92731988D01*
X141478000Y-94180500D02*
X141478000Y-99779000D01*
X131318000Y-104140000D02*
X129540000Y-105918000D01*
X105410000Y-91694000D02*
X103193000Y-91694000D01*
X147066000Y-98849000D02*
X147785000Y-99568000D01*
X144071500Y-96774000D02*
X147066000Y-96774000D01*
X122861020Y-64516000D02*
X122936000Y-64590980D01*
X141478000Y-99779000D02*
X141456500Y-99800500D01*
D35*
%TO.N,D_GND*%
X102616000Y-76431000D02*
X103572334Y-76431000D01*
X114336000Y-104523022D02*
X114336000Y-97876000D01*
X126739900Y-78789100D02*
X125984000Y-78789100D01*
X95250000Y-87400022D02*
X97468978Y-89619000D01*
X139014200Y-66802000D02*
X139700000Y-66116200D01*
X143531500Y-99800500D02*
X144889889Y-101158889D01*
X149860000Y-98958400D02*
X148437600Y-97536000D01*
X93319600Y-77787800D02*
X93319600Y-78638400D01*
X150418800Y-63296800D02*
X150418800Y-63093600D01*
X103572334Y-76431000D02*
X104819334Y-75184000D01*
X102616000Y-76431000D02*
X98806000Y-76431000D01*
X148437600Y-97536000D02*
X148437600Y-96766000D01*
X134209702Y-107742511D02*
X138129489Y-107742511D01*
X94996000Y-76431000D02*
X94676400Y-76431000D01*
X95250000Y-85921000D02*
X95250000Y-87400022D01*
X135128000Y-92340500D02*
X132785020Y-94683480D01*
X143531500Y-100057600D02*
X143531500Y-99800500D01*
X97468978Y-89619000D02*
X105410000Y-89619000D01*
X134620000Y-105918000D02*
X134620000Y-107332213D01*
X134620000Y-107332213D02*
X134209702Y-107742511D01*
X138129489Y-107742511D02*
X140208000Y-105664000D01*
X140208000Y-105664000D02*
X140208000Y-103381100D01*
X134209702Y-107742511D02*
X117555489Y-107742511D01*
X126482040Y-93218000D02*
X127947520Y-94683480D01*
X152865000Y-64008000D02*
X151950600Y-63093600D01*
X113749000Y-64516000D02*
X113155969Y-65109031D01*
X149421000Y-74422000D02*
X147456781Y-74422000D01*
X139700000Y-66116200D02*
X147599400Y-66116200D01*
X149031111Y-101158889D02*
X149860000Y-100330000D01*
X147599400Y-66116200D02*
X150418800Y-63296800D01*
X151950600Y-63093600D02*
X150418800Y-63093600D01*
X113155969Y-65109031D02*
X113155969Y-73812053D01*
X94996000Y-76431000D02*
X98806000Y-76431000D01*
X114336000Y-87876000D02*
X114336000Y-97876000D01*
X121920000Y-93218000D02*
X126482040Y-93218000D01*
X111784022Y-75184000D02*
X110305000Y-75184000D01*
X93319600Y-83990600D02*
X93319600Y-78638400D01*
X147456781Y-74422000D02*
X147329881Y-74295100D01*
X132785020Y-94683480D02*
X127947520Y-94683480D01*
X149860000Y-100330000D02*
X149860000Y-99568000D01*
X94676400Y-76431000D02*
X93319600Y-77787800D01*
X117555489Y-107742511D02*
X114336000Y-104523022D01*
X140208000Y-103381100D02*
X143531500Y-100057600D01*
X113155969Y-73812053D02*
X111784022Y-75184000D01*
X104819334Y-75184000D02*
X110305000Y-75184000D01*
X128778000Y-76751000D02*
X126739900Y-78789100D01*
X144889889Y-101158889D02*
X149031111Y-101158889D01*
X137323500Y-66802000D02*
X139014200Y-66802000D01*
X95250000Y-85921000D02*
X93319600Y-83990600D01*
X149860000Y-99568000D02*
X149860000Y-98958400D01*
D34*
%TO.N,CURRENT_SENSE_OUT*%
X149476188Y-102233400D02*
X151197020Y-100512568D01*
X142240000Y-105918000D02*
X145924600Y-102233400D01*
X151197020Y-100512568D02*
X151197020Y-98382420D01*
X145924600Y-102233400D02*
X149476188Y-102233400D01*
X151197020Y-98382420D02*
X149580600Y-96766000D01*
%TO.N,LOAD_INPUT*%
X136398000Y-98552000D02*
X136398000Y-99640500D01*
X129057500Y-97536000D02*
X131636666Y-97536000D01*
X131636666Y-97536000D02*
X133157377Y-99056711D01*
X133157377Y-98937101D02*
X134126678Y-97967800D01*
X134126678Y-97967800D02*
X135813800Y-97967800D01*
X135813800Y-97967800D02*
X136398000Y-98552000D01*
X146405600Y-59283600D02*
X146405600Y-61595000D01*
X133157377Y-99056711D02*
X133157377Y-98937101D01*
X144780000Y-57658000D02*
X146405600Y-59283600D01*
%TO.N,DRIVE_INPUT*%
X122940000Y-57658000D02*
X119384000Y-61214000D01*
X105197522Y-76325400D02*
X110250134Y-76325400D01*
X131318000Y-101600000D02*
X132842000Y-103124000D01*
X137668000Y-101346000D02*
X137668000Y-99640500D01*
X135890000Y-103124000D02*
X137668000Y-101346000D01*
X102020922Y-79502000D02*
X105197522Y-76325400D01*
X114332895Y-85090000D02*
X125476000Y-85090000D01*
X105410000Y-66446400D02*
X105410000Y-68326000D01*
X120400000Y-57658000D02*
X122940000Y-57658000D01*
X110250134Y-76325400D02*
X111174099Y-77249365D01*
X132842000Y-103124000D02*
X135890000Y-103124000D01*
X101879500Y-79502000D02*
X102020922Y-79502000D01*
X111174099Y-81931204D02*
X114332895Y-85090000D01*
X119384000Y-61214000D02*
X110642400Y-61214000D01*
X111174099Y-77249365D02*
X111174099Y-81931204D01*
X110642400Y-61214000D02*
X105410000Y-66446400D01*
D36*
%TO.N,DRIVE_5V*%
X140400000Y-83566000D02*
X142134501Y-85300501D01*
X155702000Y-96266000D02*
X155702000Y-98806000D01*
X152236169Y-91978000D02*
X151880322Y-91622153D01*
X156464000Y-90678000D02*
X156464000Y-92964000D01*
X142134501Y-86762501D02*
X143586200Y-88214200D01*
X156464000Y-90678000D02*
X155164000Y-91978000D01*
X156464000Y-92964000D02*
X155702000Y-93726000D01*
X140345000Y-83566000D02*
X140400000Y-83566000D01*
X155702000Y-93726000D02*
X155702000Y-96266000D01*
X142134501Y-85300501D02*
X142134501Y-86762501D01*
X155164000Y-91978000D02*
X152236169Y-91978000D01*
%TO.N,DRIVE_GND*%
X139274301Y-87930901D02*
X138160600Y-86817200D01*
X153627000Y-101303000D02*
X153627000Y-98806000D01*
X153627000Y-93726000D02*
X151279002Y-93726000D01*
X156796500Y-102362000D02*
X157558500Y-101600000D01*
X154686000Y-102362000D02*
X156796500Y-102362000D01*
X144721189Y-92447989D02*
X140204101Y-87930901D01*
X153627000Y-93726000D02*
X153627000Y-96266000D01*
X154686000Y-102362000D02*
X153627000Y-101303000D01*
X153627000Y-96266000D02*
X153627000Y-98806000D01*
X150000991Y-92447989D02*
X144721189Y-92447989D01*
X151279002Y-93726000D02*
X150000991Y-92447989D01*
X140204101Y-87930901D02*
X139274301Y-87930901D01*
D34*
%TO.N,Net-(D4-Pad2)*%
X138498200Y-83066000D02*
X139055000Y-83066000D01*
X141452600Y-82118200D02*
X143003161Y-83668761D01*
X143003161Y-83668761D02*
X144345739Y-83668761D01*
X150256407Y-83668761D02*
X150421671Y-83503497D01*
X137083800Y-86104000D02*
X137083800Y-84480400D01*
X139055000Y-82717800D02*
X139654600Y-82118200D01*
X139654600Y-82118200D02*
X141452600Y-82118200D01*
X137083800Y-84480400D02*
X138498200Y-83066000D01*
X153009600Y-89738200D02*
X154051000Y-88696800D01*
X147520739Y-83668761D02*
X150256407Y-83668761D01*
X136870600Y-86317200D02*
X137083800Y-86104000D01*
X139055000Y-83066000D02*
X139055000Y-82717800D01*
X151528400Y-89738200D02*
X153009600Y-89738200D01*
%TO.N,Net-(IC5-Pad3)*%
X147757000Y-88871800D02*
X147066000Y-88180800D01*
X147757000Y-89736000D02*
X147757000Y-88871800D01*
%TO.N,CURRENT_SIGN_OUT*%
X156972000Y-106934000D02*
X156238489Y-107667511D01*
X155964000Y-87130000D02*
X151282400Y-87130000D01*
X155964000Y-87130000D02*
X159258000Y-90424000D01*
X159258000Y-102870000D02*
X156972000Y-105156000D01*
X159258000Y-90424000D02*
X159258000Y-102870000D01*
X156238489Y-107667511D02*
X146529511Y-107667511D01*
X146529511Y-107667511D02*
X144780000Y-105918000D01*
X156972000Y-105156000D02*
X156972000Y-106934000D01*
D37*
%TO.N,Net-(IC5-Pad6)*%
X147757000Y-95083000D02*
X147066000Y-95774000D01*
X147757000Y-94160000D02*
X147757000Y-95083000D01*
D34*
%TO.N,Net-(IC5-Pad1)*%
X149057000Y-89736000D02*
X150526200Y-89736000D01*
%TO.N,Net-(IC5-Pad2)*%
X148407000Y-89736000D02*
X148407000Y-88150200D01*
X149250400Y-87122000D02*
X150299800Y-87122000D01*
X148407000Y-87965400D02*
X149250400Y-87122000D01*
D38*
%TO.N,Net-(IC5-Pad7)*%
X148437600Y-95766000D02*
X148407000Y-95735400D01*
D37*
X148407000Y-95735400D02*
X148407000Y-94160000D01*
%TO.N,Net-(IC5-Pad8)*%
X149580600Y-94683600D02*
X149057000Y-94160000D01*
X149580600Y-95766000D02*
X149580600Y-94683600D01*
D34*
%TO.N,Net-(J2-Pad2)*%
X147066000Y-86123500D02*
X147066000Y-87180800D01*
X151154984Y-85668761D02*
X151343423Y-85480322D01*
X145076578Y-85699600D02*
X147489900Y-85699600D01*
X144345739Y-84968761D02*
X145076578Y-85699600D01*
X147489900Y-85699600D02*
X147520739Y-85668761D01*
X147520739Y-85668761D02*
X151154984Y-85668761D01*
X147520739Y-85668761D02*
X147066000Y-86123500D01*
%TD*%
M02*
