%TF.GenerationSoftware,KiCad,Pcbnew,(6.0.5)*%
%TF.CreationDate,2022-06-24T12:54:37+01:00*%
%TF.ProjectId,Driver PCB,44726976-6572-4205-9043-422e6b696361,0*%
%TF.SameCoordinates,Original*%
%TF.FileFunction,Paste,Top*%
%TF.FilePolarity,Positive*%
%FSLAX46Y46*%
G04 Gerber Fmt 4.6, Leading zero omitted, Abs format (unit mm)*
G04 Created by KiCad (PCBNEW (6.0.5)) date 2022-06-24 12:54:37*
%MOMM*%
%LPD*%
G01*
G04 APERTURE LIST*
G04 Aperture macros list*
%AMRoundRect*
0 Rectangle with rounded corners*
0 $1 Rounding radius*
0 $2 $3 $4 $5 $6 $7 $8 $9 X,Y pos of 4 corners*
0 Add a 4 corners polygon primitive as box body*
4,1,4,$2,$3,$4,$5,$6,$7,$8,$9,$2,$3,0*
0 Add four circle primitives for the rounded corners*
1,1,$1+$1,$2,$3*
1,1,$1+$1,$4,$5*
1,1,$1+$1,$6,$7*
1,1,$1+$1,$8,$9*
0 Add four rect primitives between the rounded corners*
20,1,$1+$1,$2,$3,$4,$5,0*
20,1,$1+$1,$4,$5,$6,$7,0*
20,1,$1+$1,$6,$7,$8,$9,0*
20,1,$1+$1,$8,$9,$2,$3,0*%
G04 Aperture macros list end*
%ADD10RoundRect,0.250000X0.450000X-0.350000X0.450000X0.350000X-0.450000X0.350000X-0.450000X-0.350000X0*%
%ADD11R,0.510000X0.400000*%
%ADD12R,1.550000X0.650000*%
%ADD13RoundRect,0.250000X-0.337500X-0.475000X0.337500X-0.475000X0.337500X0.475000X-0.337500X0.475000X0*%
%ADD14RoundRect,0.250000X0.337500X0.475000X-0.337500X0.475000X-0.337500X-0.475000X0.337500X-0.475000X0*%
%ADD15RoundRect,0.250000X-0.450000X0.350000X-0.450000X-0.350000X0.450000X-0.350000X0.450000X0.350000X0*%
%ADD16RoundRect,0.250000X0.450000X-0.325000X0.450000X0.325000X-0.450000X0.325000X-0.450000X-0.325000X0*%
%ADD17R,0.650000X1.700000*%
%ADD18RoundRect,0.250000X-0.475000X0.337500X-0.475000X-0.337500X0.475000X-0.337500X0.475000X0.337500X0*%
%ADD19RoundRect,0.250000X0.475000X-0.337500X0.475000X0.337500X-0.475000X0.337500X-0.475000X-0.337500X0*%
%ADD20R,0.650000X1.550000*%
%ADD21RoundRect,0.250000X0.350000X0.450000X-0.350000X0.450000X-0.350000X-0.450000X0.350000X-0.450000X0*%
%ADD22R,1.400000X2.100000*%
%ADD23R,0.450000X1.425000*%
G04 APERTURE END LIST*
D10*
%TO.C,R3*%
X94996000Y-76431000D03*
X94996000Y-74431000D03*
%TD*%
D11*
%TO.C,Q2*%
X136870600Y-86317200D03*
X136870600Y-87317200D03*
X138160600Y-86817200D03*
%TD*%
D12*
%TO.C,IC3*%
X149421000Y-66802000D03*
X149421000Y-68072000D03*
X149421000Y-69342000D03*
X149421000Y-70612000D03*
X149421000Y-71882000D03*
X149421000Y-73152000D03*
X149421000Y-74422000D03*
X154871000Y-74422000D03*
X154871000Y-73152000D03*
X154871000Y-71882000D03*
X154871000Y-70612000D03*
X154871000Y-69342000D03*
X154871000Y-68072000D03*
X154871000Y-66802000D03*
%TD*%
%TO.C,IC2*%
X110305000Y-67564000D03*
X110305000Y-68834000D03*
X110305000Y-70104000D03*
X110305000Y-71374000D03*
X110305000Y-72644000D03*
X110305000Y-73914000D03*
X110305000Y-75184000D03*
X115755000Y-75184000D03*
X115755000Y-73914000D03*
X115755000Y-72644000D03*
X115755000Y-71374000D03*
X115755000Y-70104000D03*
X115755000Y-68834000D03*
X115755000Y-67564000D03*
%TD*%
D13*
%TO.C,C8*%
X141456500Y-99800500D03*
X143531500Y-99800500D03*
%TD*%
D11*
%TO.C,Q1*%
X139055000Y-83066000D03*
X139055000Y-84066000D03*
X140345000Y-83566000D03*
%TD*%
D10*
%TO.C,R2*%
X98806000Y-76431000D03*
X98806000Y-74431000D03*
%TD*%
D14*
%TO.C,C3*%
X155702000Y-98806000D03*
X153627000Y-98806000D03*
%TD*%
D15*
%TO.C,R7*%
X147520739Y-83668761D03*
X147520739Y-85668761D03*
%TD*%
D13*
%TO.C,C9*%
X147785000Y-99568000D03*
X149860000Y-99568000D03*
%TD*%
D16*
%TO.C,D1*%
X102616000Y-71646000D03*
X102616000Y-69596000D03*
%TD*%
D14*
%TO.C,C2*%
X155702000Y-96266000D03*
X153627000Y-96266000D03*
%TD*%
D16*
%TO.C,D3*%
X94996000Y-71646000D03*
X94996000Y-69596000D03*
%TD*%
D15*
%TO.C,R6*%
X141478000Y-92180500D03*
X141478000Y-94180500D03*
%TD*%
D16*
%TO.C,D2*%
X98806000Y-71646000D03*
X98806000Y-69596000D03*
%TD*%
D14*
%TO.C,C5*%
X115824000Y-64516000D03*
X113749000Y-64516000D03*
%TD*%
D17*
%TO.C,U10*%
X138938000Y-92340500D03*
X137668000Y-92340500D03*
X136398000Y-92340500D03*
X135128000Y-92340500D03*
X135128000Y-99640500D03*
X136398000Y-99640500D03*
X137668000Y-99640500D03*
X138938000Y-99640500D03*
%TD*%
D18*
%TO.C,C4*%
X128778000Y-74676000D03*
X128778000Y-76751000D03*
%TD*%
D19*
%TO.C,C7*%
X105410000Y-91694000D03*
X105410000Y-89619000D03*
%TD*%
D20*
%TO.C,IC4*%
X102870000Y-85921000D03*
X101600000Y-85921000D03*
X100330000Y-85921000D03*
X99060000Y-85921000D03*
X97790000Y-85921000D03*
X96520000Y-85921000D03*
X95250000Y-85921000D03*
X95250000Y-91371000D03*
X96520000Y-91371000D03*
X97790000Y-91371000D03*
X99060000Y-91371000D03*
X100330000Y-91371000D03*
X101600000Y-91371000D03*
X102870000Y-91371000D03*
%TD*%
D21*
%TO.C,R5*%
X135185739Y-87478761D03*
X133185739Y-87478761D03*
%TD*%
%TO.C,R4*%
X135185739Y-83668761D03*
X133185739Y-83668761D03*
%TD*%
D14*
%TO.C,C1*%
X155702000Y-93726000D03*
X153627000Y-93726000D03*
%TD*%
D22*
%TO.C,SW1*%
X114336000Y-97876000D03*
X114336000Y-87876000D03*
X118836000Y-97876000D03*
X118836000Y-87876000D03*
%TD*%
D10*
%TO.C,R1*%
X102616000Y-76431000D03*
X102616000Y-74431000D03*
%TD*%
D14*
%TO.C,C6*%
X154940000Y-64008000D03*
X152865000Y-64008000D03*
%TD*%
D12*
%TO.C,IC1*%
X137323500Y-74422000D03*
X137323500Y-73152000D03*
X137323500Y-71882000D03*
X137323500Y-70612000D03*
X137323500Y-69342000D03*
X137323500Y-68072000D03*
X137323500Y-66802000D03*
X131873500Y-66802000D03*
X131873500Y-68072000D03*
X131873500Y-69342000D03*
X131873500Y-70612000D03*
X131873500Y-71882000D03*
X131873500Y-73152000D03*
X131873500Y-74422000D03*
%TD*%
D23*
%TO.C,IC5*%
X149057000Y-89736000D03*
X148407000Y-89736000D03*
X147757000Y-89736000D03*
X147107000Y-89736000D03*
X147107000Y-94160000D03*
X147757000Y-94160000D03*
X148407000Y-94160000D03*
X149057000Y-94160000D03*
%TD*%
M02*
