M48
; DRILL file {KiCad (6.0.0)} date Mon May 16 13:53:23 2022
; FORMAT={-:-/ absolute / metric / decimal}
; #@! TF.CreationDate,2022-05-16T13:53:23+01:00
; #@! TF.GenerationSoftware,Kicad,Pcbnew,(6.0.0)
; #@! TF.FileFunction,Plated,1,4,PTH
FMAT,2
METRIC
; #@! TA.AperFunction,Plated,PTH,ViaDrill
T1C0.300
; #@! TA.AperFunction,Plated,PTH,ViaDrill
T2C0.350
; #@! TA.AperFunction,Plated,PTH,ViaDrill
T3C0.400
; #@! TA.AperFunction,Plated,PTH,ComponentDrill
T4C0.500
; #@! TA.AperFunction,Plated,PTH,ComponentDrill
T5C0.600
; #@! TA.AperFunction,Plated,PTH,ComponentDrill
T6C0.650
; #@! TA.AperFunction,Plated,PTH,ComponentDrill
T7C0.700
; #@! TA.AperFunction,Plated,PTH,ComponentDrill
T8C0.762
; #@! TA.AperFunction,Plated,PTH,ComponentDrill
T9C0.920
; #@! TA.AperFunction,Plated,PTH,ComponentDrill
T10C0.950
; #@! TA.AperFunction,Plated,PTH,ComponentDrill
T11C1.000
; #@! TA.AperFunction,Plated,PTH,ComponentDrill
T12C1.100
; #@! TA.AperFunction,Plated,PTH,ComponentDrill
T13C1.190
; #@! TA.AperFunction,Plated,PTH,ComponentDrill
T14C1.320
; #@! TA.AperFunction,Plated,PTH,ComponentDrill
T15C1.500
; #@! TA.AperFunction,Plated,PTH,ComponentDrill
T16C2.300
; #@! TA.AperFunction,Plated,PTH,ComponentDrill
T17C2.700
; #@! TA.AperFunction,Plated,PTH,ComponentDrill
T18C3.200
%
G90
G05
T1
X50.967Y-100.347
X51.206Y-104.343
X51.511Y-62.281
X52.273Y-46.38
X52.273Y-49.936
X52.984Y-52.273
X53.315Y-42.354
X53.866Y-49.258
X54.966Y-76.302
X56.019Y-89.649
X56.037Y-92.124
X56.083Y-51.511
X56.095Y-96.114
X56.134Y-102.006
X56.158Y-90.898
X56.185Y-99.619
X56.236Y-46.228
X56.282Y-98.568
X56.312Y-100.676
X56.54Y-31.09
X56.576Y-95.475
X56.642Y-72.339
X56.794Y-35.865
X56.873Y-94.733
X57.06Y-100.961
X57.099Y-44.348
X57.173Y-46.317
X57.321Y-47.103
X57.76Y-41.808
X57.797Y-92.068
X57.841Y-94.656
X57.919Y-63.04
X58.415Y-48.075
X58.42Y-78.334
X58.515Y-73.095
X58.559Y-41.808
X58.841Y-90.626
X58.928Y-51.003
X58.944Y-37.433
X59.253Y-41.412
X59.699Y-107.027
X59.741Y-79.959
X59.844Y-101.345
X59.944Y-29.921
X59.979Y-68.869
X60.046Y-83.261
X60.05Y-50.502
X60.328Y-37.166
X60.554Y-100.635
X60.582Y-31.376
X60.684Y-34.37
X60.706Y-89.103
X60.785Y-86.269
X60.835Y-50.653
X60.87Y-75.477
X61.247Y-99.712
X61.315Y-38.918
X61.417Y-36.424
X61.62Y-83.16
X61.629Y-50.75
X61.72Y-68.806
X61.925Y-39.675
X62.155Y-106.243
X62.165Y-100.625
X62.484Y-86.121
X62.484Y-89.51
X62.654Y-88.573
X62.89Y-38.964
X62.89Y-52.222
X63.173Y-55.699
X63.246Y-109.372
X63.486Y-88.511
X63.795Y-113.055
X63.856Y-110.236
X64.322Y-38.928
X64.359Y-63.177
X64.373Y-86.381
X64.707Y-88.881
X64.719Y-35.103
X64.719Y-60.046
X64.973Y-113.538
X65.118Y-38.804
X65.227Y-78.791
X65.314Y-52.745
X65.329Y-109.372
X65.521Y-39.494
X65.532Y-54.051
X65.684Y-64.211
X65.798Y-31.543
X65.862Y-49.861
X65.938Y-52.121
X66.0Y-41.591
X66.137Y-102.388
X66.192Y-83.464
X66.294Y-88.798
X66.33Y-39.836
X66.599Y-40.589
X66.599Y-96.622
X66.65Y-90.983
X66.676Y-109.14
X66.69Y-91.894
X66.891Y-49.124
X67.107Y-116.18
X67.305Y-48.44
X67.375Y-95.659
X67.513Y-118.923
X67.615Y-96.469
X67.666Y-37.694
X67.667Y-103.036
X67.716Y-38.557
X67.859Y-47.863
X67.869Y-109.423
X67.92Y-101.244
X68.072Y-83.769
X68.15Y-58.397
X68.224Y-42.418
X68.478Y-45.771
X68.538Y-94.3
X68.646Y-44.989
X68.682Y-50.444
X68.885Y-85.954
X68.936Y-96.063
X68.943Y-44.247
X69.103Y-46.787
X69.507Y-65.846
X69.748Y-64.922
X71.679Y-42.621
X71.831Y-37.948
X71.831Y-107.95
X71.925Y-32.689
X71.933Y-95.606
X71.984Y-86.258
X72.085Y-101.041
X72.486Y-93.04
X72.586Y-83.689
X72.824Y-94.668
X72.927Y-90.273
X73.304Y-99.06
X73.843Y-82.824
X74.545Y-83.689
X74.603Y-39.829
X75.102Y-85.364
X75.235Y-86.817
X76.048Y-89.459
X76.098Y-101.194
X76.123Y-54.331
X76.2Y-91.491
X76.2Y-98.45
X76.203Y-46.13
X76.569Y-37.437
X77.216Y-74.524
X77.283Y-58.353
X77.743Y-33.306
X78.13Y-92.172
X78.334Y-76.81
X78.384Y-71.984
X78.537Y-74.219
X78.605Y-44.094
X78.704Y-45.837
X79.096Y-110.49
X79.197Y-38.456
X79.299Y-103.683
X79.705Y-50.394
X79.854Y-44.109
X79.959Y-74.778
X80.363Y-76.304
X80.518Y-24.943
X80.569Y-75.489
X80.578Y-103.471
X80.721Y-78.994
X80.729Y-44.101
X80.846Y-81.253
X80.874Y-98.45
X80.975Y-83.058
X81.839Y-38.913
X81.89Y-39.726
X81.89Y-61.671
X82.956Y-112.624
X83.617Y-75.946
X83.642Y-28.067
X84.838Y-80.01
X84.988Y-89.916
X85.141Y-64.668
X85.382Y-81.879
X85.478Y-82.924
X86.157Y-115.113
X86.868Y-46.174
X86.919Y-73.508
X86.98Y-45.383
X87.071Y-29.261
X87.122Y-75.286
X87.173Y-52.73
X87.173Y-74.27
X87.274Y-118.872
X87.681Y-65.684
X88.29Y-115.164
X88.556Y-79.638
X88.561Y-56.067
X89.073Y-58.22
X89.103Y-98.196
X89.133Y-80.192
X89.205Y-97.13
X89.256Y-95.86
X89.306Y-77.114
X89.764Y-66.853
X90.068Y-56.642
X90.322Y-58.369
X90.729Y-66.751
X91.796Y-80.518
X92.151Y-68.428
X92.354Y-62.586
X92.456Y-103.937
X92.608Y-84.023
X92.761Y-63.449
X92.913Y-119.228
X93.452Y-55.056
X93.472Y-49.632
X93.574Y-62.128
X93.777Y-52.832
X93.789Y-99.225
X93.934Y-74.985
X93.965Y-100.209
X94.031Y-38.354
X94.077Y-34.867
X94.132Y-66.954
X94.132Y-100.99
X95.199Y-61.722
X95.199Y-77.622
X95.453Y-57.912
X95.961Y-72.644
X96.215Y-52.832
X96.52Y-85.852
X97.028Y-65.684
X97.356Y-35.994
X97.638Y-77.579
X97.892Y-83.668
X97.892Y-104.343
X98.146Y-91.745
X98.196Y-99.517
X98.603Y-52.934
X98.77Y-95.836
X98.857Y-24.943
X98.958Y-72.695
X99.365Y-35.357
X99.67Y-31.09
X100.33Y-57.099
X101.498Y-79.35
X101.549Y-87.986
X101.956Y-102.413
X102.006Y-92.659
X104.953Y-90.322
X104.953Y-102.362
X105.004Y-99.314
X105.832Y-93.077
X107.101Y-93.229
X107.34Y-90.932
X107.391Y-85.954
X109.972Y-36.535
X110.287Y-107.137
X110.439Y-101.346
X111.303Y-116.129
X111.455Y-37.548
X111.811Y-38.913
X113.03Y-33.223
X114.046Y-105.258
X114.656Y-37.548
X114.859Y-103.175
X115.316Y-33.934
X115.367Y-104.394
X116.738Y-41.656
X119.228Y-42.062
X119.276Y-37.548
X119.583Y-100.889
X119.744Y-35.162
X119.786Y-106.782
X120.853Y-110.795
X121.006Y-34.239
X121.158Y-112.116
X121.615Y-109.88
X121.869Y-113.132
X122.58Y-109.017
X123.088Y-105.258
X123.19Y-102.768
X124.714Y-59.284
X125.324Y-54.813
X126.365Y-43.797
X127.116Y-46.371
X127.305Y-44.044
X127.305Y-45.466
X127.489Y-58.467
X127.747Y-99.735
X127.747Y-103.342
X127.747Y-106.644
X127.747Y-110.149
X128.473Y-112.776
X129.54Y-51.968
X130.099Y-61.773
X130.251Y-56.896
X130.251Y-66.599
X130.944Y-43.451
X131.216Y-75.286
X131.27Y-56.761
X132.225Y-42.723
X133.223Y-82.118
X133.248Y-55.88
X133.909Y-76.302
X133.988Y-33.043
X134.01Y-67.666
X134.061Y-63.602
X134.315Y-51.816
X134.356Y-32.333
X134.671Y-72.746
X135.194Y-70.104
X135.585Y-56.896
X135.839Y-46.685
X135.992Y-45.161
X136.804Y-78.842
X136.855Y-56.591
X137.211Y-48.108
X138.836Y-68.224
X138.938Y-69.952
X139.086Y-60.06
X139.141Y-67.107
X139.497Y-71.425
X139.742Y-55.139
X139.852Y-43.434
X139.852Y-59.436
X140.31Y-56.642
X140.411Y-61.519
X140.665Y-62.84
X141.181Y-52.316
X142.047Y-67.726
X142.138Y-30.074
X142.494Y-40.437
X142.577Y-48.398
X143.307Y-44.552
X143.358Y-116.637
X143.373Y-56.983
X143.51Y-45.822
X143.713Y-58.725
X143.916Y-53.137
X145.339Y-61.468
X145.39Y-56.236
X145.456Y-48.398
X145.542Y-57.607
X146.263Y-63.485
X146.507Y-39.929
X146.66Y-116.637
X147.93Y-43.84
X148.692Y-116.637
X149.098Y-47.752
X149.25Y-51.46
X150.292Y-56.261
X151.282Y-56.439
X151.348Y-58.283
X152.502Y-91.491
X152.679Y-93.853
X152.76Y-52.034
X154.33Y-95.504
X154.34Y-51.451
X154.477Y-43.197
X154.483Y-47.092
X155.571Y-60.219
X155.829Y-97.003
X156.413Y-54.153
X156.769Y-64.11
X157.328Y-48.666
X157.734Y-39.522
X157.886Y-97.587
X157.937Y-42.875
X158.902Y-43.5
X159.41Y-46.634
X160.223Y-97.587
X161.038Y-52.677
X161.29Y-77.013
X161.834Y-52.751
X162.618Y-52.591
X162.662Y-53.691
X162.712Y-110.338
X162.712Y-112.776
X162.789Y-97.155
X163.437Y-46.423
X164.01Y-47.628
X164.414Y-95.529
X165.446Y-45.253
X166.083Y-94.521
X167.742Y-39.929
X167.992Y-48.974
X168.013Y-94.521
X168.351Y-48.26
X170.045Y-94.521
X172.263Y-40.945
X172.34Y-42.251
X172.585Y-94.521
X172.72Y-45.415
X175.125Y-94.521
X176.784Y-110.185
X177.665Y-94.521
X179.476Y-110.185
X179.934Y-37.795
X180.137Y-35.255
X180.205Y-94.521
X180.34Y-40.335
X181.864Y-110.185
X183.04Y-94.242
X183.947Y-39.776
X184.76Y-110.185
X185.452Y-93.085
X186.397Y-111.037
X189.065Y-92.646
X190.335Y-91.376
X191.465Y-111.049
X208.975Y-103.768
X209.518Y-103.226
X211.277Y-103.226
X213.563Y-103.226
X214.198Y-112.446
X215.824Y-110.82
X216.078Y-103.505
X217.17Y-109.474
X217.415Y-105.063
X217.415Y-107.451
T2
X55.903Y-44.579
X56.054Y-97.269
X57.099Y-42.367
X63.195Y-106.699
X67.056Y-62.992
X67.158Y-60.198
X72.898Y-29.566
X75.286Y-41.504
X87.884Y-78.943
X96.825Y-90.221
X163.322Y-38.659
X187.909Y-41.859
T3
X57.658Y-108.255
X66.091Y-34.9
X67.564Y-40.945
X101.143Y-116.434
X102.108Y-114.097
X104.14Y-108.509
X108.407Y-115.316
X112.878Y-119.329
X115.164Y-114.097
X180.238Y-63.602
X183.236Y-62.586
X188.57Y-27.381
X203.759Y-86.411
T4
X74.867Y-27.127
X74.968Y-117.246
X75.57Y-25.43
X75.57Y-28.824
X75.671Y-115.549
X75.671Y-118.943
X77.267Y-24.727
X77.267Y-29.527
X77.368Y-114.846
X77.368Y-119.646
X78.964Y-25.43
X78.964Y-28.824
X79.065Y-115.549
X79.065Y-118.943
X79.667Y-27.127
X79.768Y-117.246
X94.984Y-44.45
X95.687Y-42.753
X95.687Y-46.147
X97.384Y-42.05
X97.384Y-46.85
X99.081Y-42.753
X99.081Y-46.147
X99.784Y-44.45
X130.747Y-104.292
X131.45Y-102.595
X131.45Y-105.989
X133.147Y-101.892
X133.147Y-106.692
X134.844Y-102.595
X134.844Y-105.989
X135.547Y-104.292
X192.266Y-116.942
X192.969Y-115.245
X192.969Y-118.639
X194.666Y-114.542
X194.666Y-119.342
X196.363Y-115.245
X196.363Y-118.639
X197.066Y-116.942
X211.722Y-27.28
X212.425Y-25.583
X212.425Y-28.977
X214.122Y-24.88
X214.122Y-29.68
X215.819Y-25.583
X215.819Y-28.977
X216.522Y-27.28
T6
X51.714Y-75.59
X129.251Y-115.062
X130.521Y-115.062
X131.791Y-115.062
X133.061Y-115.062
X134.331Y-115.062
X135.601Y-115.062
X136.871Y-115.062
X138.141Y-115.062
X139.411Y-115.062
X140.681Y-115.062
T7
X152.502Y-89.205
X152.502Y-106.985
X192.507Y-89.205
X192.507Y-106.985
T8
X193.802Y-26.568
X193.802Y-29.108
X193.802Y-31.648
X193.802Y-34.188
X193.802Y-36.728
X193.802Y-39.268
X193.802Y-41.808
X193.802Y-44.348
X207.137Y-26.568
X207.137Y-29.108
X207.137Y-31.648
X207.137Y-34.188
X207.137Y-36.728
X207.137Y-39.268
X207.137Y-41.808
X207.137Y-44.348
T9
X178.584Y-113.644
X178.584Y-116.264
X181.084Y-113.644
X181.084Y-116.264
X183.084Y-113.644
X183.084Y-116.264
X185.584Y-113.644
X185.584Y-116.264
T10
X215.392Y-35.691
X215.392Y-38.191
X215.392Y-40.691
X215.392Y-43.191
T11
X54.856Y-78.868
X54.856Y-81.408
X54.856Y-83.948
X54.856Y-86.489
X54.856Y-89.028
X54.856Y-91.569
X54.856Y-94.108
X54.856Y-96.648
X54.856Y-99.188
X54.856Y-101.728
X54.856Y-104.268
X54.856Y-106.808
X54.856Y-109.349
X54.856Y-111.888
X54.856Y-114.428
X54.991Y-27.873
X54.991Y-30.413
X54.991Y-32.953
X54.991Y-35.493
X54.991Y-38.033
X54.991Y-40.573
X54.991Y-43.113
X54.991Y-45.653
X54.991Y-48.193
X54.991Y-50.733
X54.991Y-53.273
X54.991Y-55.813
X54.991Y-58.353
X54.991Y-60.893
X54.991Y-63.433
X59.69Y-70.866
X62.23Y-70.866
X64.77Y-70.866
X67.31Y-70.866
X69.85Y-70.866
X70.096Y-78.868
X70.096Y-81.408
X70.096Y-83.948
X70.096Y-86.489
X70.096Y-89.028
X70.096Y-91.569
X70.096Y-94.108
X70.096Y-96.648
X70.096Y-99.188
X70.096Y-101.728
X70.096Y-104.268
X70.096Y-106.808
X70.096Y-109.349
X70.096Y-111.888
X70.096Y-114.428
X70.231Y-27.873
X70.231Y-30.413
X70.231Y-32.953
X70.231Y-35.493
X70.231Y-38.033
X70.231Y-40.573
X70.231Y-43.113
X70.231Y-45.653
X70.231Y-48.193
X70.231Y-50.733
X70.231Y-53.273
X70.231Y-55.813
X70.231Y-58.353
X70.231Y-60.893
X70.231Y-63.433
X74.625Y-103.286
X74.625Y-105.826
X74.625Y-108.366
X74.625Y-110.906
X81.89Y-92.253
X81.89Y-94.793
X81.89Y-97.333
X81.89Y-99.873
X81.89Y-102.413
X81.89Y-104.953
X81.89Y-107.493
X81.89Y-110.033
X84.328Y-68.057
X84.328Y-70.597
X84.328Y-73.137
X85.293Y-25.451
X85.293Y-27.991
X85.293Y-30.531
X85.293Y-33.071
X85.293Y-35.611
X85.293Y-38.151
X85.293Y-40.691
X85.293Y-43.231
X85.852Y-92.304
X85.852Y-94.844
X85.852Y-97.384
X85.852Y-99.924
X85.852Y-102.464
X85.852Y-105.004
X85.852Y-107.544
X85.852Y-110.084
X89.002Y-25.4
X89.002Y-27.94
X89.002Y-30.48
X89.002Y-33.02
X89.002Y-35.56
X89.002Y-38.1
X89.002Y-40.64
X89.002Y-43.18
X90.78Y-108.61
X93.32Y-108.61
X95.86Y-108.61
X101.498Y-28.702
X101.498Y-31.242
X101.498Y-33.782
X110.439Y-24.943
X110.541Y-29.058
X112.573Y-88.275
X112.573Y-90.815
X112.573Y-93.355
X112.979Y-24.943
X113.081Y-29.058
X115.519Y-24.943
X115.621Y-29.058
X127.817Y-35.05
X129.748Y-119.736
X130.357Y-35.05
X132.288Y-119.736
X132.897Y-35.05
X134.828Y-119.736
X135.437Y-35.05
X136.957Y-83.31
X137.368Y-119.736
X137.977Y-35.05
X139.497Y-83.31
X139.908Y-119.736
X140.517Y-35.05
X142.037Y-83.31
X143.057Y-35.05
X144.577Y-83.31
X145.597Y-35.05
X147.117Y-83.31
X148.137Y-35.05
X149.657Y-83.31
X150.677Y-35.05
X152.197Y-83.31
X154.737Y-35.05
X154.737Y-83.31
X157.277Y-35.05
X159.817Y-35.05
X159.817Y-83.31
X162.357Y-35.05
X162.357Y-83.31
X164.897Y-35.05
X164.897Y-83.31
X167.437Y-35.05
X167.437Y-83.31
X169.977Y-35.05
X169.977Y-83.31
X172.517Y-35.05
X172.517Y-83.31
X185.064Y-67.056
X185.318Y-81.839
X187.604Y-67.056
X187.858Y-81.839
X190.144Y-67.056
X190.398Y-81.839
X196.647Y-67.061
X196.647Y-69.601
X196.647Y-72.141
X196.647Y-74.681
X196.647Y-77.221
X196.647Y-81.991
X196.647Y-84.531
X196.647Y-87.071
X196.647Y-89.611
X196.647Y-92.151
T12
X202.438Y-98.857
X202.438Y-101.397
X202.438Y-103.937
T13
X81.331Y-48.057
X81.331Y-50.597
X81.331Y-53.137
X81.331Y-55.677
X81.331Y-58.217
X83.363Y-78.486
X83.363Y-81.026
X83.363Y-83.566
X83.363Y-86.106
X83.363Y-88.646
X135.788Y-27.026
X138.328Y-27.026
X140.868Y-27.026
X143.408Y-27.026
X145.948Y-27.026
X150.622Y-26.995
X153.162Y-26.995
X158.242Y-27.026
X160.782Y-27.026
X165.303Y-27.026
X167.843Y-27.026
X170.383Y-27.026
X214.732Y-78.08
X214.732Y-80.62
T14
X118.872Y-117.196
X123.872Y-117.196
X128.981Y-90.148
X128.981Y-95.148
X152.044Y-116.637
X157.044Y-116.637
X163.83Y-116.637
X168.83Y-116.637
X197.805Y-50.179
X197.805Y-55.179
X197.805Y-60.179
X214.376Y-67.847
X214.376Y-72.847
X214.579Y-50.706
X214.579Y-55.706
X214.579Y-60.706
T15
X143.51Y-88.138
X143.51Y-110.738
X213.716Y-85.096
X213.716Y-107.696
T16
X175.514Y-113.294
X175.514Y-118.974
X188.654Y-113.294
X188.654Y-118.974
T17
X203.62Y-113.081
X210.82Y-113.081
T18
X77.267Y-27.127
X77.368Y-117.246
X97.384Y-44.45
X133.147Y-104.292
X194.666Y-116.942
X214.122Y-27.28
T5
G00X200.47Y-119.631
M15
G01X200.47Y-118.531
M16
G05
G00X213.97Y-119.631
M15
G01X213.97Y-118.531
M16
G05
T0
M30
