%TF.GenerationSoftware,KiCad,Pcbnew,(6.0.0)*%
%TF.CreationDate,2022-05-16T13:53:17+01:00*%
%TF.ProjectId,RemoteLabs_supervisor_PCB,52656d6f-7465-44c6-9162-735f73757065,rev?*%
%TF.SameCoordinates,Original*%
%TF.FileFunction,Copper,L1,Top*%
%TF.FilePolarity,Positive*%
%FSLAX46Y46*%
G04 Gerber Fmt 4.6, Leading zero omitted, Abs format (unit mm)*
G04 Created by KiCad (PCBNEW (6.0.0)) date 2022-05-16 13:53:17*
%MOMM*%
%LPD*%
G01*
G04 APERTURE LIST*
G04 Aperture macros list*
%AMRoundRect*
0 Rectangle with rounded corners*
0 $1 Rounding radius*
0 $2 $3 $4 $5 $6 $7 $8 $9 X,Y pos of 4 corners*
0 Add a 4 corners polygon primitive as box body*
4,1,4,$2,$3,$4,$5,$6,$7,$8,$9,$2,$3,0*
0 Add four circle primitives for the rounded corners*
1,1,$1+$1,$2,$3*
1,1,$1+$1,$4,$5*
1,1,$1+$1,$6,$7*
1,1,$1+$1,$8,$9*
0 Add four rect primitives between the rounded corners*
20,1,$1+$1,$2,$3,$4,$5,0*
20,1,$1+$1,$4,$5,$6,$7,0*
20,1,$1+$1,$6,$7,$8,$9,0*
20,1,$1+$1,$8,$9,$2,$3,0*%
%AMRotRect*
0 Rectangle, with rotation*
0 The origin of the aperture is its center*
0 $1 length*
0 $2 width*
0 $3 Rotation angle, in degrees counterclockwise*
0 Add horizontal line*
21,1,$1,$2,0,0,$3*%
%AMFreePoly0*
4,1,16,0.190500,0.378647,0.305577,0.360421,0.411221,0.306592,0.495061,0.222752,0.548890,0.117108,0.567438,0.000000,0.548890,-0.117108,0.495061,-0.222752,0.411221,-0.306592,0.305577,-0.360421,0.190500,-0.378647,0.190500,-0.380000,-0.190500,-0.380000,-0.190500,0.380000,0.190500,0.380000,0.190500,0.378647,0.190500,0.378647,$1*%
G04 Aperture macros list end*
%TA.AperFunction,EtchedComponent*%
%ADD10C,0.300000*%
%TD*%
%TA.AperFunction,ComponentPad*%
%ADD11R,1.700000X1.700000*%
%TD*%
%TA.AperFunction,ComponentPad*%
%ADD12O,1.700000X1.700000*%
%TD*%
%TA.AperFunction,SMDPad,CuDef*%
%ADD13RoundRect,0.250000X-0.350000X-0.450000X0.350000X-0.450000X0.350000X0.450000X-0.350000X0.450000X0*%
%TD*%
%TA.AperFunction,SMDPad,CuDef*%
%ADD14RoundRect,0.250000X-0.475000X0.337500X-0.475000X-0.337500X0.475000X-0.337500X0.475000X0.337500X0*%
%TD*%
%TA.AperFunction,SMDPad,CuDef*%
%ADD15C,0.500000*%
%TD*%
%TA.AperFunction,SMDPad,CuDef*%
%ADD16RoundRect,0.250000X-0.550000X1.050000X-0.550000X-1.050000X0.550000X-1.050000X0.550000X1.050000X0*%
%TD*%
%TA.AperFunction,SMDPad,CuDef*%
%ADD17RoundRect,0.250000X0.337500X0.475000X-0.337500X0.475000X-0.337500X-0.475000X0.337500X-0.475000X0*%
%TD*%
%TA.AperFunction,ComponentPad*%
%ADD18RoundRect,0.250000X-0.725000X0.600000X-0.725000X-0.600000X0.725000X-0.600000X0.725000X0.600000X0*%
%TD*%
%TA.AperFunction,ComponentPad*%
%ADD19O,1.950000X1.700000*%
%TD*%
%TA.AperFunction,SMDPad,CuDef*%
%ADD20RoundRect,0.250000X0.475000X-0.337500X0.475000X0.337500X-0.475000X0.337500X-0.475000X-0.337500X0*%
%TD*%
%TA.AperFunction,ComponentPad*%
%ADD21C,3.000000*%
%TD*%
%TA.AperFunction,SMDPad,CuDef*%
%ADD22RoundRect,0.250000X-0.550000X1.500000X-0.550000X-1.500000X0.550000X-1.500000X0.550000X1.500000X0*%
%TD*%
%TA.AperFunction,SMDPad,CuDef*%
%ADD23RoundRect,0.150000X0.825000X0.150000X-0.825000X0.150000X-0.825000X-0.150000X0.825000X-0.150000X0*%
%TD*%
%TA.AperFunction,SMDPad,CuDef*%
%ADD24RoundRect,0.250000X0.450000X-0.350000X0.450000X0.350000X-0.450000X0.350000X-0.450000X-0.350000X0*%
%TD*%
%TA.AperFunction,ComponentPad*%
%ADD25R,1.980000X3.960000*%
%TD*%
%TA.AperFunction,ComponentPad*%
%ADD26O,1.980000X3.960000*%
%TD*%
%TA.AperFunction,SMDPad,CuDef*%
%ADD27RoundRect,0.250000X-0.450000X0.350000X-0.450000X-0.350000X0.450000X-0.350000X0.450000X0.350000X0*%
%TD*%
%TA.AperFunction,SMDPad,CuDef*%
%ADD28FreePoly0,180.000000*%
%TD*%
%TA.AperFunction,SMDPad,CuDef*%
%ADD29R,0.500000X0.762000*%
%TD*%
%TA.AperFunction,SMDPad,CuDef*%
%ADD30FreePoly0,0.000000*%
%TD*%
%TA.AperFunction,ComponentPad*%
%ADD31R,3.960000X1.980000*%
%TD*%
%TA.AperFunction,ComponentPad*%
%ADD32O,3.960000X1.980000*%
%TD*%
%TA.AperFunction,SMDPad,CuDef*%
%ADD33RoundRect,0.150000X-0.825000X-0.150000X0.825000X-0.150000X0.825000X0.150000X-0.825000X0.150000X0*%
%TD*%
%TA.AperFunction,ComponentPad*%
%ADD34RoundRect,0.250000X-0.620000X-0.845000X0.620000X-0.845000X0.620000X0.845000X-0.620000X0.845000X0*%
%TD*%
%TA.AperFunction,ComponentPad*%
%ADD35O,1.740000X2.190000*%
%TD*%
%TA.AperFunction,SMDPad,CuDef*%
%ADD36R,1.700000X1.300000*%
%TD*%
%TA.AperFunction,ComponentPad*%
%ADD37R,1.500000X2.300000*%
%TD*%
%TA.AperFunction,ComponentPad*%
%ADD38O,1.500000X2.300000*%
%TD*%
%TA.AperFunction,ComponentPad*%
%ADD39R,1.000000X1.000000*%
%TD*%
%TA.AperFunction,ComponentPad*%
%ADD40O,1.000000X1.000000*%
%TD*%
%TA.AperFunction,ComponentPad*%
%ADD41RoundRect,0.250000X-0.845000X0.620000X-0.845000X-0.620000X0.845000X-0.620000X0.845000X0.620000X0*%
%TD*%
%TA.AperFunction,ComponentPad*%
%ADD42O,2.190000X1.740000*%
%TD*%
%TA.AperFunction,SMDPad,CuDef*%
%ADD43RoundRect,0.150000X0.150000X-0.825000X0.150000X0.825000X-0.150000X0.825000X-0.150000X-0.825000X0*%
%TD*%
%TA.AperFunction,SMDPad,CuDef*%
%ADD44R,1.100000X1.300000*%
%TD*%
%TA.AperFunction,SMDPad,CuDef*%
%ADD45RoundRect,0.250000X-0.337500X-0.475000X0.337500X-0.475000X0.337500X0.475000X-0.337500X0.475000X0*%
%TD*%
%TA.AperFunction,SMDPad,CuDef*%
%ADD46RoundRect,0.250000X0.350000X0.450000X-0.350000X0.450000X-0.350000X-0.450000X0.350000X-0.450000X0*%
%TD*%
%TA.AperFunction,ComponentPad*%
%ADD47C,0.800000*%
%TD*%
%TA.AperFunction,ComponentPad*%
%ADD48C,6.400000*%
%TD*%
%TA.AperFunction,SMDPad,CuDef*%
%ADD49RoundRect,0.250000X-0.275000X0.400000X-0.275000X-0.400000X0.275000X-0.400000X0.275000X0.400000X0*%
%TD*%
%TA.AperFunction,SMDPad,CuDef*%
%ADD50RoundRect,0.250000X0.550000X-1.050000X0.550000X1.050000X-0.550000X1.050000X-0.550000X-1.050000X0*%
%TD*%
%TA.AperFunction,WasherPad*%
%ADD51C,4.200000*%
%TD*%
%TA.AperFunction,ComponentPad*%
%ADD52C,1.500000*%
%TD*%
%TA.AperFunction,SMDPad,CuDef*%
%ADD53RoundRect,0.250000X-0.325000X-0.450000X0.325000X-0.450000X0.325000X0.450000X-0.325000X0.450000X0*%
%TD*%
%TA.AperFunction,SMDPad,CuDef*%
%ADD54RoundRect,0.250000X0.275000X-0.400000X0.275000X0.400000X-0.275000X0.400000X-0.275000X-0.400000X0*%
%TD*%
%TA.AperFunction,ComponentPad*%
%ADD55R,1.600000X1.600000*%
%TD*%
%TA.AperFunction,ComponentPad*%
%ADD56O,1.600000X1.600000*%
%TD*%
%TA.AperFunction,SMDPad,CuDef*%
%ADD57R,0.650000X1.560000*%
%TD*%
%TA.AperFunction,SMDPad,CuDef*%
%ADD58RoundRect,0.250000X0.450000X-0.325000X0.450000X0.325000X-0.450000X0.325000X-0.450000X-0.325000X0*%
%TD*%
%TA.AperFunction,SMDPad,CuDef*%
%ADD59RoundRect,0.250000X-1.500000X-0.550000X1.500000X-0.550000X1.500000X0.550000X-1.500000X0.550000X0*%
%TD*%
%TA.AperFunction,SMDPad,CuDef*%
%ADD60R,1.400000X1.200000*%
%TD*%
%TA.AperFunction,SMDPad,CuDef*%
%ADD61R,1.400000X1.000000*%
%TD*%
%TA.AperFunction,SMDPad,CuDef*%
%ADD62RoundRect,0.250000X0.550000X-1.500000X0.550000X1.500000X-0.550000X1.500000X-0.550000X-1.500000X0*%
%TD*%
%TA.AperFunction,SMDPad,CuDef*%
%ADD63R,2.000000X1.500000*%
%TD*%
%TA.AperFunction,SMDPad,CuDef*%
%ADD64R,2.000000X3.800000*%
%TD*%
%TA.AperFunction,SMDPad,CuDef*%
%ADD65C,2.000000*%
%TD*%
%TA.AperFunction,ComponentPad*%
%ADD66C,3.716000*%
%TD*%
%TA.AperFunction,ComponentPad*%
%ADD67R,3.716000X3.716000*%
%TD*%
%TA.AperFunction,ComponentPad*%
%ADD68O,1.200000X2.400000*%
%TD*%
%TA.AperFunction,SMDPad,CuDef*%
%ADD69RoundRect,0.100000X-0.712500X-0.100000X0.712500X-0.100000X0.712500X0.100000X-0.712500X0.100000X0*%
%TD*%
%TA.AperFunction,SMDPad,CuDef*%
%ADD70R,2.800000X1.000000*%
%TD*%
%TA.AperFunction,SMDPad,CuDef*%
%ADD71RoundRect,0.062500X-0.309359X0.220971X0.220971X-0.309359X0.309359X-0.220971X-0.220971X0.309359X0*%
%TD*%
%TA.AperFunction,SMDPad,CuDef*%
%ADD72RoundRect,0.062500X-0.309359X-0.220971X-0.220971X-0.309359X0.309359X0.220971X0.220971X0.309359X0*%
%TD*%
%TA.AperFunction,SMDPad,CuDef*%
%ADD73RotRect,5.150000X5.150000X315.000000*%
%TD*%
%TA.AperFunction,SMDPad,CuDef*%
%ADD74R,0.500000X2.000000*%
%TD*%
%TA.AperFunction,SMDPad,CuDef*%
%ADD75R,2.000000X1.700000*%
%TD*%
%TA.AperFunction,SMDPad,CuDef*%
%ADD76RoundRect,0.250000X-1.050000X-0.550000X1.050000X-0.550000X1.050000X0.550000X-1.050000X0.550000X0*%
%TD*%
%TA.AperFunction,SMDPad,CuDef*%
%ADD77FreePoly0,270.000000*%
%TD*%
%TA.AperFunction,SMDPad,CuDef*%
%ADD78R,0.762000X0.500000*%
%TD*%
%TA.AperFunction,SMDPad,CuDef*%
%ADD79FreePoly0,90.000000*%
%TD*%
%TA.AperFunction,SMDPad,CuDef*%
%ADD80R,1.200000X1.200000*%
%TD*%
%TA.AperFunction,ComponentPad*%
%ADD81R,2.000000X1.905000*%
%TD*%
%TA.AperFunction,ComponentPad*%
%ADD82O,2.000000X1.905000*%
%TD*%
%TA.AperFunction,SMDPad,CuDef*%
%ADD83RoundRect,0.250000X-0.350000X0.275000X-0.350000X-0.275000X0.350000X-0.275000X0.350000X0.275000X0*%
%TD*%
%TA.AperFunction,SMDPad,CuDef*%
%ADD84RoundRect,0.062500X0.309359X-0.220971X-0.220971X0.309359X-0.309359X0.220971X0.220971X-0.309359X0*%
%TD*%
%TA.AperFunction,SMDPad,CuDef*%
%ADD85RoundRect,0.062500X0.309359X0.220971X0.220971X0.309359X-0.309359X-0.220971X-0.220971X-0.309359X0*%
%TD*%
%TA.AperFunction,SMDPad,CuDef*%
%ADD86RotRect,5.150000X5.150000X135.000000*%
%TD*%
%TA.AperFunction,SMDPad,CuDef*%
%ADD87R,0.306000X0.692500*%
%TD*%
%TA.AperFunction,SMDPad,CuDef*%
%ADD88R,0.306000X0.698500*%
%TD*%
%TA.AperFunction,SMDPad,CuDef*%
%ADD89R,2.160000X1.120000*%
%TD*%
%TA.AperFunction,ComponentPad*%
%ADD90R,1.500000X1.500000*%
%TD*%
%TA.AperFunction,SMDPad,CuDef*%
%ADD91RoundRect,0.250000X0.350000X-0.275000X0.350000X0.275000X-0.350000X0.275000X-0.350000X-0.275000X0*%
%TD*%
%TA.AperFunction,ComponentPad*%
%ADD92R,1.524000X1.524000*%
%TD*%
%TA.AperFunction,ComponentPad*%
%ADD93C,1.524000*%
%TD*%
%TA.AperFunction,SMDPad,CuDef*%
%ADD94R,0.692500X0.306000*%
%TD*%
%TA.AperFunction,SMDPad,CuDef*%
%ADD95R,0.698500X0.306000*%
%TD*%
%TA.AperFunction,ViaPad*%
%ADD96C,0.600000*%
%TD*%
%TA.AperFunction,ViaPad*%
%ADD97C,0.700000*%
%TD*%
%TA.AperFunction,ViaPad*%
%ADD98C,0.800000*%
%TD*%
%TA.AperFunction,Conductor*%
%ADD99C,0.250000*%
%TD*%
%TA.AperFunction,Conductor*%
%ADD100C,0.300000*%
%TD*%
%TA.AperFunction,Conductor*%
%ADD101C,0.500000*%
%TD*%
%TA.AperFunction,Conductor*%
%ADD102C,4.000000*%
%TD*%
%TA.AperFunction,Conductor*%
%ADD103C,3.000000*%
%TD*%
%TA.AperFunction,Conductor*%
%ADD104C,0.400000*%
%TD*%
%TA.AperFunction,Conductor*%
%ADD105C,0.200000*%
%TD*%
G04 APERTURE END LIST*
%TO.C,NT2*%
G36*
X185619200Y-91635200D02*
G01*
X185119200Y-91635200D01*
X185119200Y-90635200D01*
X185619200Y-90635200D01*
X185619200Y-91635200D01*
G37*
D10*
%TO.C,JP6*%
X64465200Y-55067200D02*
X64723200Y-55067200D01*
%TO.C,JP3*%
X58572400Y-84175600D02*
X58830400Y-84175600D01*
%TO.C,NT4*%
G36*
X187794400Y-28432000D02*
G01*
X183794400Y-28432000D01*
X183794400Y-26432000D01*
X187794400Y-26432000D01*
X187794400Y-28432000D01*
G37*
%TO.C,NT1*%
G36*
X126631200Y-112506000D02*
G01*
X122631200Y-112506000D01*
X122631200Y-110506000D01*
X126631200Y-110506000D01*
X126631200Y-112506000D01*
G37*
%TO.C,JP7*%
X63144400Y-61590938D02*
X63144400Y-61332938D01*
%TO.C,JP4*%
X60742069Y-77266800D02*
X60484069Y-77266800D01*
%TD*%
D11*
%TO.P,J20,1,Pin_1*%
%TO.N,SERVO_1*%
X110439200Y-24942800D03*
D12*
%TO.P,J20,2,Pin_2*%
%TO.N,5V_DC_SERVO*%
X112979200Y-24942800D03*
%TO.P,J20,3,Pin_3*%
%TO.N,GNDD*%
X115519200Y-24942800D03*
%TD*%
D13*
%TO.P,R11,1*%
%TO.N,GNDD*%
X169291000Y-40843200D03*
%TO.P,R11,2*%
%TO.N,MODE_0*%
X171291000Y-40843200D03*
%TD*%
D14*
%TO.P,C16,1*%
%TO.N,3V3_DC_MCU*%
X58166000Y-52810500D03*
%TO.P,C16,2*%
%TO.N,GNDD*%
X58166000Y-54885500D03*
%TD*%
%TO.P,C38,1*%
%TO.N,3V3_DC_MCU*%
X90373200Y-73948800D03*
%TO.P,C38,2*%
%TO.N,GNDD*%
X90373200Y-76023800D03*
%TD*%
D15*
%TO.P,NT2,1,1*%
%TO.N,GND_PB*%
X185369200Y-90635200D03*
%TO.P,NT2,2,2*%
%TO.N,GNDPWR*%
X185369200Y-91635200D03*
%TD*%
D16*
%TO.P,EC4,1*%
%TO.N,Net-(C11-Pad2)*%
X74676000Y-96062800D03*
%TO.P,EC4,2*%
%TO.N,GNDD*%
X74676000Y-99662800D03*
%TD*%
D17*
%TO.P,C28,1*%
%TO.N,3V3_DC_MCU*%
X134612200Y-38862000D03*
%TO.P,C28,2*%
%TO.N,GNDD*%
X132537200Y-38862000D03*
%TD*%
D18*
%TO.P,J19,1,Pin_1*%
%TO.N,Net-(A4-Pad14)*%
X215392000Y-35690800D03*
D19*
%TO.P,J19,2,Pin_2*%
%TO.N,Net-(A4-Pad13)*%
X215392000Y-38190800D03*
%TO.P,J19,3,Pin_3*%
%TO.N,Net-(A4-Pad12)*%
X215392000Y-40690800D03*
%TO.P,J19,4,Pin_4*%
%TO.N,Net-(A4-Pad11)*%
X215392000Y-43190800D03*
%TD*%
D20*
%TO.P,C33,1*%
%TO.N,Net-(C32-Pad2)*%
X104851200Y-112311000D03*
%TO.P,C33,2*%
%TO.N,GNDD*%
X104851200Y-110236000D03*
%TD*%
D21*
%TO.P,F2,1*%
%TO.N,12V_DC_BUS*%
X143510000Y-88138000D03*
%TO.P,F2,2*%
%TO.N,/DC Motor Controller/HC*%
X143510000Y-110738000D03*
%TD*%
D22*
%TO.P,EC9,1*%
%TO.N,12V_DC_BUS*%
X203758800Y-78521600D03*
%TO.P,EC9,2*%
%TO.N,GNDPWR*%
X203758800Y-83921600D03*
%TD*%
D23*
%TO.P,U7,1,STROBE*%
%TO.N,/Supervisor MCU/LATCH*%
X97572600Y-35179000D03*
%TO.P,U7,2,DATA*%
%TO.N,/Supervisor MCU/MOSI*%
X97572600Y-33909000D03*
%TO.P,U7,3,CLOCK*%
%TO.N,/Supervisor MCU/SCK*%
X97572600Y-32639000D03*
%TO.P,U7,4,Q0*%
%TO.N,/Output Logic/SUPERVISOR_MOTOR_EN*%
X97572600Y-31369000D03*
%TO.P,U7,5,Q1*%
%TO.N,/Output Logic/MCU_MOTOR_SELECT*%
X97572600Y-30099000D03*
%TO.P,U7,6,Q2*%
%TO.N,/Output Logic/MCU_STEP_SELECT*%
X97572600Y-28829000D03*
%TO.P,U7,7,Q3*%
%TO.N,/Output Logic/MCU_PIXEL_SELECT*%
X97572600Y-27559000D03*
%TO.P,U7,8,GND*%
%TO.N,GNDD*%
X97572600Y-26289000D03*
%TO.P,U7,9,QS*%
%TO.N,unconnected-(U7-Pad9)*%
X92622600Y-26289000D03*
%TO.P,U7,10,NC*%
%TO.N,unconnected-(U7-Pad10)*%
X92622600Y-27559000D03*
%TO.P,U7,11,Q7*%
%TO.N,/Supervisor MCU/SHIFT_REG_7*%
X92622600Y-28829000D03*
%TO.P,U7,12,Q6*%
%TO.N,/Output Logic/SUPERVISOR_STEP_RST*%
X92622600Y-30099000D03*
%TO.P,U7,13,Q5*%
%TO.N,/Output Logic/SUPERVISOR_STEP_EN*%
X92622600Y-31369000D03*
%TO.P,U7,14,Q4*%
%TO.N,/Output Logic/SUPERVISOR_DIRECTION*%
X92622600Y-32639000D03*
%TO.P,U7,15,OE*%
%TO.N,3V3_DC_MCU*%
X92622600Y-33909000D03*
%TO.P,U7,16,VCC*%
X92622600Y-35179000D03*
%TD*%
D24*
%TO.P,R35,1*%
%TO.N,/Analog Sensor Buffers/A_OUT_C2*%
X111658400Y-106172000D03*
%TO.P,R35,2*%
%TO.N,/Analog Sensor Buffers/DB3B*%
X111658400Y-104172000D03*
%TD*%
D14*
%TO.P,C18,1*%
%TO.N,3V3_DC_MCU*%
X57708800Y-56692800D03*
%TO.P,C18,2*%
%TO.N,GNDD*%
X57708800Y-58767800D03*
%TD*%
D25*
%TO.P,J31,1,Pin_1*%
%TO.N,GNDPWR*%
X152044400Y-116636800D03*
D26*
%TO.P,J31,2,Pin_2*%
%TO.N,5V_DC_RPI*%
X157044400Y-116636800D03*
%TD*%
D27*
%TO.P,R4,1*%
%TO.N,Net-(C2A1-Pad2)*%
X67665600Y-105562400D03*
%TO.P,R4,2*%
%TO.N,/Student MCU/MCU_RESET*%
X67665600Y-107562400D03*
%TD*%
D28*
%TO.P,JP6,1,A*%
%TO.N,Net-(C20-Pad1)*%
X64399669Y-55067200D03*
D29*
%TO.P,JP6,2,C*%
%TO.N,Net-(C23-Pad1)*%
X64973200Y-55067200D03*
D30*
%TO.P,JP6,3,B*%
%TO.N,/Supervisor MCU/HSE_IN*%
X65544700Y-55067200D03*
%TD*%
D31*
%TO.P,J17,1,Pin_1*%
%TO.N,/DC Motor Controller/HC3*%
X197805200Y-50178600D03*
D32*
%TO.P,J17,2,Pin_2*%
%TO.N,/DC Motor Controller/HC2*%
X197805200Y-55178600D03*
%TO.P,J17,3,Pin_3*%
%TO.N,/DC Motor Controller/HC1*%
X197805200Y-60178600D03*
%TD*%
D11*
%TO.P,J15,1,Pin_1*%
%TO.N,/Supervisor MCU/MOSI*%
X101498400Y-33782000D03*
D12*
%TO.P,J15,2,Pin_2*%
%TO.N,/Supervisor MCU/SCK*%
X101498400Y-31242000D03*
%TO.P,J15,3,Pin_3*%
%TO.N,/Supervisor MCU/LATCH*%
X101498400Y-28702000D03*
%TD*%
D33*
%TO.P,U10,1*%
%TO.N,/Output Logic/STUDENT_DIRECTION*%
X132043400Y-66344800D03*
%TO.P,U10,2*%
%TO.N,/Output Logic/MCU_STEP_SELECT*%
X132043400Y-67614800D03*
%TO.P,U10,3*%
%TO.N,Net-(U10-Pad3)*%
X132043400Y-68884800D03*
%TO.P,U10,4*%
%TO.N,Net-(U10-Pad4)*%
X132043400Y-70154800D03*
%TO.P,U10,5*%
%TO.N,/Output Logic/STUDENT_STEP*%
X132043400Y-71424800D03*
%TO.P,U10,6*%
%TO.N,/Output Logic/MCU_STEP_SELECT*%
X132043400Y-72694800D03*
%TO.P,U10,7,VSS*%
%TO.N,GNDD*%
X132043400Y-73964800D03*
%TO.P,U10,8*%
%TO.N,/Output Logic/STUDENT_STEP_EN*%
X136993400Y-73964800D03*
%TO.P,U10,9*%
%TO.N,/Output Logic/MCU_STEP_SELECT*%
X136993400Y-72694800D03*
%TO.P,U10,10*%
%TO.N,Net-(U10-Pad10)*%
X136993400Y-71424800D03*
%TO.P,U10,11*%
%TO.N,Net-(U10-Pad11)*%
X136993400Y-70154800D03*
%TO.P,U10,12*%
%TO.N,/Output Logic/STUDENT_STEP_RST*%
X136993400Y-68884800D03*
%TO.P,U10,13*%
%TO.N,/Output Logic/MCU_STEP_SELECT*%
X136993400Y-67614800D03*
%TO.P,U10,14,VDD*%
%TO.N,3V3_DC_MCU*%
X136993400Y-66344800D03*
%TD*%
D34*
%TO.P,J24,1,Pin_1*%
%TO.N,/Digital Sensor Buffers/D_IN_B*%
X158242000Y-27025600D03*
D35*
%TO.P,J24,2,Pin_2*%
%TO.N,GNDD*%
X160782000Y-27025600D03*
%TD*%
D20*
%TO.P,C4,1*%
%TO.N,3V3_DC_MCU*%
X65481200Y-87376000D03*
%TO.P,C4,2*%
%TO.N,GNDD*%
X65481200Y-85301000D03*
%TD*%
D13*
%TO.P,R32,1*%
%TO.N,/Analog Sensor Buffers/A_OUT_B2*%
X98974400Y-104851200D03*
%TO.P,R32,2*%
%TO.N,/Analog Sensor Buffers/DB2B*%
X100974400Y-104851200D03*
%TD*%
D17*
%TO.P,C24,1*%
%TO.N,3V3_DC_MCU*%
X161072600Y-39116000D03*
%TO.P,C24,2*%
%TO.N,GNDD*%
X158997600Y-39116000D03*
%TD*%
D36*
%TO.P,D1,1,K*%
%TO.N,12V_DC_BUS*%
X196392800Y-98072000D03*
%TO.P,D1,2,A*%
%TO.N,/Power Input & Distribution/01*%
X196392800Y-101572000D03*
%TD*%
D37*
%TO.P,U18,1,IN*%
%TO.N,12V_DC_BUS*%
X190144400Y-67056000D03*
D38*
%TO.P,U18,2,GND*%
%TO.N,GND_PB*%
X187604400Y-67056000D03*
%TO.P,U18,3,OUT*%
%TO.N,5V_DC_SERVO*%
X185064400Y-67056000D03*
%TD*%
D14*
%TO.P,C11,1*%
%TO.N,GNDD*%
X57302400Y-88116500D03*
%TO.P,C11,2*%
%TO.N,Net-(C11-Pad2)*%
X57302400Y-90191500D03*
%TD*%
D11*
%TO.P,J9,1,Pin_1*%
%TO.N,/Student MCU/SPARE_0*%
X74625200Y-103286400D03*
D12*
%TO.P,J9,2,Pin_2*%
%TO.N,/Student MCU/SPARE_1*%
X74625200Y-105826400D03*
%TO.P,J9,3,Pin_3*%
%TO.N,/Student MCU/SPARE_2*%
X74625200Y-108366400D03*
%TO.P,J9,4,Pin_4*%
%TO.N,/Student MCU/SPARE_3*%
X74625200Y-110906400D03*
%TD*%
D14*
%TO.P,C40,1*%
%TO.N,3V3_DC_MCU*%
X86258400Y-61671200D03*
%TO.P,C40,2*%
%TO.N,GNDD*%
X86258400Y-63746200D03*
%TD*%
D34*
%TO.P,J23,1,Pin_1*%
%TO.N,/Digital Sensor Buffers/D_IN_A*%
X150622000Y-26994800D03*
D35*
%TO.P,J23,2,Pin_2*%
%TO.N,GNDD*%
X153162000Y-26994800D03*
%TD*%
D11*
%TO.P,J14,1,Pin_1*%
%TO.N,/Output Logic/SUPERVISOR_MOTOR_EN*%
X89001600Y-43180000D03*
D12*
%TO.P,J14,2,Pin_2*%
%TO.N,/Output Logic/MCU_MOTOR_SELECT*%
X89001600Y-40640000D03*
%TO.P,J14,3,Pin_3*%
%TO.N,/Output Logic/MCU_STEP_SELECT*%
X89001600Y-38100000D03*
%TO.P,J14,4,Pin_4*%
%TO.N,/Output Logic/MCU_PIXEL_SELECT*%
X89001600Y-35560000D03*
%TO.P,J14,5,Pin_5*%
%TO.N,/Output Logic/SUPERVISOR_DIRECTION*%
X89001600Y-33020000D03*
%TO.P,J14,6,Pin_6*%
%TO.N,/Output Logic/SUPERVISOR_STEP_EN*%
X89001600Y-30480000D03*
%TO.P,J14,7,Pin_7*%
%TO.N,/Output Logic/SUPERVISOR_STEP_RST*%
X89001600Y-27940000D03*
%TO.P,J14,8,Pin_8*%
%TO.N,/Supervisor MCU/SHIFT_REG_7*%
X89001600Y-25400000D03*
%TD*%
D20*
%TO.P,C8,1*%
%TO.N,3V3_DC_MCU*%
X67614800Y-87651500D03*
%TO.P,C8,2*%
%TO.N,GNDD*%
X67614800Y-85576500D03*
%TD*%
D17*
%TO.P,C10,1*%
%TO.N,5V_DC_LED*%
X191051000Y-85852000D03*
%TO.P,C10,2*%
%TO.N,GND_PB*%
X188976000Y-85852000D03*
%TD*%
D25*
%TO.P,J30,1,Pin_1*%
%TO.N,GNDPWR*%
X163830000Y-116636800D03*
D26*
%TO.P,J30,2,Pin_2*%
%TO.N,12V_DC_BUS*%
X168830000Y-116636800D03*
%TD*%
D39*
%TO.P,J32,1,Pin_1*%
%TO.N,GNDPWR*%
X129250600Y-115062000D03*
D40*
%TO.P,J32,2,Pin_2*%
X130520600Y-115062000D03*
%TO.P,J32,3,Pin_3*%
X131790600Y-115062000D03*
%TO.P,J32,4,Pin_4*%
X133060600Y-115062000D03*
%TO.P,J32,5,Pin_5*%
X134330600Y-115062000D03*
%TO.P,J32,6,Pin_6*%
X135600600Y-115062000D03*
%TO.P,J32,7,Pin_7*%
X136870600Y-115062000D03*
%TO.P,J32,8,Pin_8*%
X138140600Y-115062000D03*
%TO.P,J32,9,Pin_9*%
X139410600Y-115062000D03*
%TO.P,J32,10,Pin_10*%
X140680600Y-115062000D03*
%TD*%
D27*
%TO.P,R39,1*%
%TO.N,Net-(D9-Pad2)*%
X104800400Y-24282400D03*
%TO.P,R39,2*%
%TO.N,/Supervisor MCU/SCK*%
X104800400Y-26282400D03*
%TD*%
%TO.P,R21,1*%
%TO.N,/Digital Sensor Buffers/D_IN_E*%
X113588800Y-34153600D03*
%TO.P,R21,2*%
%TO.N,3V3_DC_MCU*%
X113588800Y-36153600D03*
%TD*%
D41*
%TO.P,J26,1,Pin_1*%
%TO.N,GNDD*%
X83362800Y-78486000D03*
D42*
%TO.P,J26,2,Pin_2*%
%TO.N,3V3_DC_MCU*%
X83362800Y-81026000D03*
%TO.P,J26,3,Pin_3*%
%TO.N,/Student MCU/PROG_TX*%
X83362800Y-83566000D03*
%TO.P,J26,4,Pin_4*%
%TO.N,/Student MCU/PROG_RX*%
X83362800Y-86106000D03*
%TO.P,J26,5,Pin_5*%
%TO.N,/Student MCU/MCU_RESET*%
X83362800Y-88646000D03*
%TD*%
D24*
%TO.P,R27,1*%
%TO.N,LIMIT_1*%
X93827600Y-84434200D03*
%TO.P,R27,2*%
%TO.N,Net-(R27-Pad2)*%
X93827600Y-82434200D03*
%TD*%
D43*
%TO.P,U8,1*%
%TO.N,/Output Logic/MCU_MOTOR_SELECT*%
X129235200Y-58456600D03*
%TO.P,U8,2*%
%TO.N,Net-(U8-Pad2)*%
X130505200Y-58456600D03*
%TO.P,U8,3*%
%TO.N,/Output Logic/MCU_STEP_SELECT*%
X131775200Y-58456600D03*
%TO.P,U8,4*%
%TO.N,Net-(U11-Pad13)*%
X133045200Y-58456600D03*
%TO.P,U8,5*%
%TO.N,/Output Logic/MCU_PIXEL_SELECT*%
X134315200Y-58456600D03*
%TO.P,U8,6*%
%TO.N,Net-(U12-Pad13)*%
X135585200Y-58456600D03*
%TO.P,U8,7,VSS*%
%TO.N,GNDD*%
X136855200Y-58456600D03*
%TO.P,U8,8*%
%TO.N,unconnected-(U8-Pad8)*%
X136855200Y-53506600D03*
%TO.P,U8,9*%
%TO.N,GNDD*%
X135585200Y-53506600D03*
%TO.P,U8,10*%
%TO.N,unconnected-(U8-Pad10)*%
X134315200Y-53506600D03*
%TO.P,U8,11*%
%TO.N,GNDD*%
X133045200Y-53506600D03*
%TO.P,U8,12*%
%TO.N,unconnected-(U8-Pad12)*%
X131775200Y-53506600D03*
%TO.P,U8,13*%
%TO.N,GNDD*%
X130505200Y-53506600D03*
%TO.P,U8,14,VDD*%
%TO.N,3V3_DC_MCU*%
X129235200Y-53506600D03*
%TD*%
D33*
%TO.P,U14,1*%
%TO.N,Net-(U12-Pad3)*%
X152980300Y-54813200D03*
%TO.P,U14,2*%
%TO.N,Net-(U14-Pad2)*%
X152980300Y-56083200D03*
%TO.P,U14,3*%
%TO.N,Net-(U14-Pad3)*%
X152980300Y-57353200D03*
%TO.P,U14,4*%
%TO.N,Net-(U12-Pad4)*%
X152980300Y-58623200D03*
%TO.P,U14,5*%
%TO.N,Net-(U14-Pad5)*%
X152980300Y-59893200D03*
%TO.P,U14,6*%
%TO.N,/DC Motor Controller/ENABLE*%
X152980300Y-61163200D03*
%TO.P,U14,7,GND*%
%TO.N,GNDD*%
X152980300Y-62433200D03*
%TO.P,U14,8*%
%TO.N,/Output Logic/PIXEL_DATA_OUT*%
X157930300Y-62433200D03*
%TO.P,U14,9*%
%TO.N,Net-(U12-Pad10)*%
X157930300Y-61163200D03*
%TO.P,U14,10*%
%TO.N,Net-(U12-Pad11)*%
X157930300Y-59893200D03*
%TO.P,U14,11*%
%TO.N,unconnected-(U14-Pad11)*%
X157930300Y-58623200D03*
%TO.P,U14,12*%
%TO.N,GNDD*%
X157930300Y-57353200D03*
%TO.P,U14,13*%
X157930300Y-56083200D03*
%TO.P,U14,14,VCC*%
%TO.N,3V3_DC_MCU*%
X157930300Y-54813200D03*
%TD*%
D20*
%TO.P,C34,1*%
%TO.N,GNDD*%
X102870000Y-119481600D03*
%TO.P,C34,2*%
X102870000Y-117406600D03*
%TD*%
D44*
%TO.P,X2,1,TRI*%
%TO.N,Net-(C23-Pad1)*%
X63652400Y-58826400D03*
%TO.P,X2,2,GND*%
%TO.N,GNDD*%
X63652400Y-56726400D03*
%TO.P,X2,3,OUT*%
%TO.N,Net-(C36-Pad1)*%
X62002400Y-56726400D03*
%TO.P,X2,4,Vdd*%
%TO.N,Net-(C20-Pad1)*%
X62002400Y-58826400D03*
%TD*%
D11*
%TO.P,J29,1,Pin_1*%
%TO.N,5V_DC_RPI*%
X84328000Y-73137000D03*
D12*
%TO.P,J29,2,Pin_2*%
%TO.N,/Power Input & Distribution/5_to_3v3_reg*%
X84328000Y-70597000D03*
%TO.P,J29,3,Pin_3*%
%TO.N,USB_BUS*%
X84328000Y-68057000D03*
%TD*%
D45*
%TO.P,C12,1*%
%TO.N,3V3_DC_MCU*%
X95707200Y-93319600D03*
%TO.P,C12,2*%
%TO.N,GNDD*%
X97782200Y-93319600D03*
%TD*%
D46*
%TO.P,R33,1*%
%TO.N,A_BUFFER_OUT_B*%
X113674400Y-97231200D03*
%TO.P,R33,2*%
%TO.N,/Analog Sensor Buffers/DB4B*%
X111674400Y-97231200D03*
%TD*%
%TO.P,R14,1*%
%TO.N,GNDD*%
X111645200Y-119684800D03*
%TO.P,R14,2*%
%TO.N,Net-(J22-Pad1)*%
X109645200Y-119684800D03*
%TD*%
D27*
%TO.P,R3,1*%
%TO.N,Net-(C2A1-Pad2)*%
X65633600Y-105578400D03*
%TO.P,R3,2*%
%TO.N,3V3_DC_MCU*%
X65633600Y-107578400D03*
%TD*%
D14*
%TO.P,C1B1,1*%
%TO.N,Net-(C1A1-Pad2)*%
X52171600Y-48818800D03*
%TO.P,C1B1,2*%
%TO.N,GNDD*%
X52171600Y-50893800D03*
%TD*%
D25*
%TO.P,J22,1,Pin_1*%
%TO.N,Net-(J22-Pad1)*%
X118872000Y-117195600D03*
D26*
%TO.P,J22,2,Pin_2*%
%TO.N,Net-(J22-Pad2)*%
X123872000Y-117195600D03*
%TD*%
D47*
%TO.P,H5,1*%
%TO.N,N/C*%
X131449744Y-105989456D03*
X131449744Y-102595344D03*
X134843856Y-102595344D03*
X133146800Y-106692400D03*
D48*
X133146800Y-104292400D03*
D47*
X130746800Y-104292400D03*
X134843856Y-105989456D03*
X135546800Y-104292400D03*
X133146800Y-101892400D03*
%TD*%
D49*
%TO.P,C7,1*%
%TO.N,Net-(C7-Pad1)*%
X67716400Y-89550600D03*
%TO.P,C7,2*%
%TO.N,GNDD*%
X67716400Y-91500600D03*
%TD*%
D11*
%TO.P,J21,1,Pin_1*%
%TO.N,SERVO_2*%
X110540800Y-29057600D03*
D12*
%TO.P,J21,2,Pin_2*%
%TO.N,5V_DC_SERVO*%
X113080800Y-29057600D03*
%TO.P,J21,3,Pin_3*%
%TO.N,GNDD*%
X115620800Y-29057600D03*
%TD*%
D17*
%TO.P,C25,1*%
%TO.N,3V3_DC_MCU*%
X137312400Y-63754000D03*
%TO.P,C25,2*%
%TO.N,GNDD*%
X135237400Y-63754000D03*
%TD*%
D50*
%TO.P,EC6,1*%
%TO.N,Net-(C21-Pad2)*%
X74269600Y-51663600D03*
%TO.P,EC6,2*%
%TO.N,GNDD*%
X74269600Y-48063600D03*
%TD*%
D51*
%TO.P,A5,*%
%TO.N,*%
X157251400Y-90271600D03*
X187782200Y-106019600D03*
D52*
%TO.P,A5,1,IN-*%
%TO.N,GNDPWR*%
X192506600Y-89204800D03*
%TO.P,A5,2,IN+*%
%TO.N,12V_DC_BUS*%
X192506600Y-106984800D03*
%TO.P,A5,3,OUT-*%
%TO.N,GNDPWR*%
X152501600Y-89204800D03*
%TO.P,A5,4,Out+*%
%TO.N,5V_DC_RPI*%
X152501600Y-106984800D03*
%TD*%
D34*
%TO.P,J2,1,Pin_1*%
%TO.N,5V_DC_LED*%
X165303200Y-27025600D03*
D35*
%TO.P,J2,2,Pin_2*%
%TO.N,Net-(J2-Pad2)*%
X167843200Y-27025600D03*
%TO.P,J2,3,Pin_3*%
%TO.N,GNDD*%
X170383200Y-27025600D03*
%TD*%
D27*
%TO.P,R30,1*%
%TO.N,STU_STP_FLT*%
X95300800Y-68884800D03*
%TO.P,R30,2*%
%TO.N,Net-(R30-Pad2)*%
X95300800Y-70884800D03*
%TD*%
D14*
%TO.P,C1A1,1*%
%TO.N,3V3_DC_MCU*%
X52171600Y-43187800D03*
%TO.P,C1A1,2*%
%TO.N,Net-(C1A1-Pad2)*%
X52171600Y-45262800D03*
%TD*%
D27*
%TO.P,R31,1*%
%TO.N,OE_B*%
X97815400Y-68897800D03*
%TO.P,R31,2*%
%TO.N,Net-(R31-Pad2)*%
X97815400Y-70897800D03*
%TD*%
D50*
%TO.P,EC3,1*%
%TO.N,3V3_DC_MCU*%
X74676000Y-92579600D03*
%TO.P,EC3,2*%
%TO.N,GNDD*%
X74676000Y-88979600D03*
%TD*%
D43*
%TO.P,U9,1*%
%TO.N,Net-(U14-Pad3)*%
X140563600Y-47012400D03*
%TO.P,U9,2*%
%TO.N,/Output Logic/MOTOR_DIR_A*%
X141833600Y-47012400D03*
%TO.P,U9,3*%
%TO.N,/DC Motor Controller/IN_1*%
X143103600Y-47012400D03*
%TO.P,U9,4*%
%TO.N,Net-(U14-Pad2)*%
X144373600Y-47012400D03*
%TO.P,U9,5*%
%TO.N,/Output Logic/SUPERVISOR_MOTOR_PWM*%
X145643600Y-47012400D03*
%TO.P,U9,6*%
%TO.N,Net-(U8-Pad2)*%
X146913600Y-47012400D03*
%TO.P,U9,7,VSS*%
%TO.N,GNDD*%
X148183600Y-47012400D03*
%TO.P,U9,8*%
%TO.N,Net-(U14-Pad3)*%
X148183600Y-42062400D03*
%TO.P,U9,9*%
%TO.N,/Output Logic/MOTOR_DIR_B*%
X146913600Y-42062400D03*
%TO.P,U9,10*%
%TO.N,/DC Motor Controller/IN_2*%
X145643600Y-42062400D03*
%TO.P,U9,11*%
%TO.N,Net-(U14-Pad5)*%
X144373600Y-42062400D03*
%TO.P,U9,12*%
%TO.N,/Output Logic/SUPERVISOR_MOTOR_EN*%
X143103600Y-42062400D03*
%TO.P,U9,13*%
%TO.N,Net-(U8-Pad2)*%
X141833600Y-42062400D03*
%TO.P,U9,14,VDD*%
%TO.N,3V3_DC_MCU*%
X140563600Y-42062400D03*
%TD*%
D20*
%TO.P,C9,1*%
%TO.N,GNDD*%
X67767200Y-99995900D03*
%TO.P,C9,2*%
%TO.N,3V3_DC_MCU*%
X67767200Y-97920900D03*
%TD*%
D21*
%TO.P,F1,1*%
%TO.N,/Power Input & Distribution/12V_DC*%
X213715600Y-107696000D03*
%TO.P,F1,2*%
%TO.N,/Power Input & Distribution/12V*%
X213715600Y-85096000D03*
%TD*%
D27*
%TO.P,R40,1*%
%TO.N,Net-(C15-Pad1)*%
X59537600Y-85801200D03*
%TO.P,R40,2*%
%TO.N,/Student MCU/HSE_OUT*%
X59537600Y-87801200D03*
%TD*%
D11*
%TO.P,J10,1,Pin_1*%
%TO.N,/Output Logic/STUDENT_MOTOR_EN*%
X85852000Y-92303600D03*
D12*
%TO.P,J10,2,Pin_2*%
%TO.N,/Student MCU/SHIFT_1*%
X85852000Y-94843600D03*
%TO.P,J10,3,Pin_3*%
%TO.N,/Student MCU/SHIFT_2*%
X85852000Y-97383600D03*
%TO.P,J10,4,Pin_4*%
%TO.N,/Student MCU/SHIFT_3*%
X85852000Y-99923600D03*
%TO.P,J10,5,Pin_5*%
%TO.N,/Output Logic/STUDENT_DIRECTION*%
X85852000Y-102463600D03*
%TO.P,J10,6,Pin_6*%
%TO.N,/Output Logic/STUDENT_STEP_EN*%
X85852000Y-105003600D03*
%TO.P,J10,7,Pin_7*%
%TO.N,/Output Logic/STUDENT_STEP_RST*%
X85852000Y-107543600D03*
%TO.P,J10,8,Pin_8*%
%TO.N,/Student MCU/SHIFT_7*%
X85852000Y-110083600D03*
%TD*%
D14*
%TO.P,C32,1*%
%TO.N,Net-(C31-Pad2)*%
X107238800Y-110236000D03*
%TO.P,C32,2*%
%TO.N,Net-(C32-Pad2)*%
X107238800Y-112311000D03*
%TD*%
D24*
%TO.P,R25,1*%
%TO.N,/Student MCU/DC_MOTOR_DIR1*%
X64465200Y-66312800D03*
%TO.P,R25,2*%
%TO.N,/Supervisor MCU/STDNT_DC_M_DIR_1*%
X64465200Y-64312800D03*
%TD*%
D47*
%TO.P,H1,1*%
%TO.N,N/C*%
X78963856Y-25430144D03*
X79666800Y-27127200D03*
X78963856Y-28824256D03*
X74866800Y-27127200D03*
X77266800Y-24727200D03*
X77266800Y-29527200D03*
D48*
X77266800Y-27127200D03*
D47*
X75569744Y-25430144D03*
X75569744Y-28824256D03*
%TD*%
D14*
%TO.P,C19,1*%
%TO.N,GNDD*%
X58064400Y-38514200D03*
%TO.P,C19,2*%
%TO.N,3V3_DC_MCU*%
X58064400Y-40589200D03*
%TD*%
D31*
%TO.P,J16,1,Pin_1*%
%TO.N,/DC Motor Controller/HC*%
X128981200Y-90148200D03*
D32*
%TO.P,J16,2,Pin_2*%
%TO.N,GNDPWR*%
X128981200Y-95148200D03*
%TD*%
D45*
%TO.P,C35,1*%
%TO.N,3V3_DC_MCU*%
X112522000Y-115620800D03*
%TO.P,C35,2*%
%TO.N,GNDD*%
X114597000Y-115620800D03*
%TD*%
D17*
%TO.P,C20,1*%
%TO.N,Net-(C20-Pad1)*%
X61815800Y-61010800D03*
%TO.P,C20,2*%
%TO.N,GNDD*%
X59740800Y-61010800D03*
%TD*%
D31*
%TO.P,J18,1,Pin_1*%
%TO.N,/DC Motor Controller/HC1*%
X214579200Y-60706000D03*
D32*
%TO.P,J18,2,Pin_2*%
%TO.N,/DC Motor Controller/HC2*%
X214579200Y-55706000D03*
%TO.P,J18,3,Pin_3*%
%TO.N,/DC Motor Controller/HC3*%
X214579200Y-50706000D03*
%TD*%
D11*
%TO.P,J33,1,Pin_1*%
%TO.N,12V_DC_BUS*%
X196646800Y-81991200D03*
D12*
%TO.P,J33,2,Pin_2*%
X196646800Y-84531200D03*
%TO.P,J33,3,Pin_3*%
X196646800Y-87071200D03*
%TO.P,J33,4,Pin_4*%
X196646800Y-89611200D03*
%TO.P,J33,5,Pin_5*%
X196646800Y-92151200D03*
%TD*%
D47*
%TO.P,H2,1*%
%TO.N,N/C*%
X79065456Y-115549344D03*
X79768400Y-117246400D03*
X77368400Y-119646400D03*
X77368400Y-114846400D03*
X79065456Y-118943456D03*
X75671344Y-115549344D03*
X74968400Y-117246400D03*
D48*
X77368400Y-117246400D03*
D47*
X75671344Y-118943456D03*
%TD*%
D53*
%TO.P,D9,1,K*%
%TO.N,GNDD*%
X100482400Y-24384000D03*
%TO.P,D9,2,A*%
%TO.N,Net-(D9-Pad2)*%
X102532400Y-24384000D03*
%TD*%
D27*
%TO.P,R29,1*%
%TO.N,OE_IDX*%
X100355400Y-68962800D03*
%TO.P,R29,2*%
%TO.N,Net-(R29-Pad2)*%
X100355400Y-70962800D03*
%TD*%
D13*
%TO.P,R36,1*%
%TO.N,GNDPWR*%
X193106800Y-110896400D03*
%TO.P,R36,2*%
%TO.N,/Power Input & Distribution/02*%
X195106800Y-110896400D03*
%TD*%
D28*
%TO.P,JP3,1,A*%
%TO.N,Net-(C5-Pad1)*%
X58506869Y-84175600D03*
D29*
%TO.P,JP3,2,C*%
%TO.N,Net-(C14-Pad1)*%
X59080400Y-84175600D03*
D30*
%TO.P,JP3,3,B*%
%TO.N,/Student MCU/HSE_IN*%
X59651900Y-84175600D03*
%TD*%
D17*
%TO.P,C43,1*%
%TO.N,3V3_DC_MCU*%
X100974400Y-101041200D03*
%TO.P,C43,2*%
%TO.N,GNDD*%
X98899400Y-101041200D03*
%TD*%
D24*
%TO.P,R24,1*%
%TO.N,/Student MCU/DC_MOTOR_DIR2*%
X62534800Y-66312800D03*
%TO.P,R24,2*%
%TO.N,/Supervisor MCU/STDNT_DC_M_DIR_2*%
X62534800Y-64312800D03*
%TD*%
%TO.P,R41,1*%
%TO.N,Net-(C36-Pad1)*%
X64008000Y-53171600D03*
%TO.P,R41,2*%
%TO.N,/Supervisor MCU/HSE_OUT*%
X64008000Y-51171600D03*
%TD*%
D54*
%TO.P,C17,1*%
%TO.N,Net-(C17-Pad1)*%
X57251600Y-50911400D03*
%TO.P,C17,2*%
%TO.N,GNDD*%
X57251600Y-48961400D03*
%TD*%
D20*
%TO.P,C21,1*%
%TO.N,GNDD*%
X67259200Y-52294700D03*
%TO.P,C21,2*%
%TO.N,Net-(C21-Pad2)*%
X67259200Y-50219700D03*
%TD*%
D55*
%TO.P,A2,1,D1/TX*%
%TO.N,/Supervisor MCU/PROG_TX*%
X70231000Y-63432923D03*
D56*
%TO.P,A2,2,D0/RX*%
%TO.N,/Supervisor MCU/PROG_RX*%
X70231000Y-60892923D03*
%TO.P,A2,3,~{RESET}*%
%TO.N,/Supervisor MCU/MCU_RESET*%
X70231000Y-58352923D03*
%TO.P,A2,4,GND*%
%TO.N,GNDD*%
X70231000Y-55812923D03*
%TO.P,A2,5,D2*%
%TO.N,/Digital Sensor Buffers/D_OUT_E1*%
X70231000Y-53272923D03*
%TO.P,A2,6,D3*%
%TO.N,/Digital Sensor Buffers/D_OUT_C1*%
X70231000Y-50732923D03*
%TO.P,A2,7,D4*%
%TO.N,/Digital Sensor Buffers/D_OUT_D1*%
X70231000Y-48192923D03*
%TO.P,A2,8,D5*%
%TO.N,/Output Logic/SUPERVISOR_PIXEL_DATA*%
X70231000Y-45652923D03*
%TO.P,A2,9,D6*%
%TO.N,/Output Logic/SUPERVISOR_STEP*%
X70231000Y-43112923D03*
%TO.P,A2,10,D7*%
%TO.N,/Output Logic/MOTOR_DIR_B*%
X70231000Y-40572923D03*
%TO.P,A2,11,D8*%
%TO.N,/Supervisor MCU/LATCH*%
X70231000Y-38032923D03*
%TO.P,A2,12,D9*%
%TO.N,SERVO_1*%
X70231000Y-35492923D03*
%TO.P,A2,13,D10*%
%TO.N,/Output Logic/SUPERVISOR_MOTOR_PWM*%
X70231000Y-32952923D03*
%TO.P,A2,14,D11*%
%TO.N,/Supervisor MCU/MOSI*%
X70231000Y-30412923D03*
%TO.P,A2,15,D12*%
%TO.N,/Output Logic/MOTOR_DIR_A*%
X70231000Y-27872923D03*
%TO.P,A2,16,D13*%
%TO.N,/Supervisor MCU/SCK*%
X54991000Y-27872923D03*
%TO.P,A2,17,3V3*%
%TO.N,3V3_DC_MCU*%
X54991000Y-30412923D03*
%TO.P,A2,18,AREF*%
%TO.N,unconnected-(A2-Pad18)*%
X54991000Y-32952923D03*
%TO.P,A2,19,A0*%
%TO.N,/Supervisor MCU/STDNT_DC_M_DIR_2*%
X54991000Y-35492923D03*
%TO.P,A2,20,A1*%
%TO.N,/Supervisor MCU/STDNT_DC_M_DIR_1*%
X54991000Y-38032923D03*
%TO.P,A2,21,A2*%
%TO.N,/Supervisor MCU/STDNT_SRVO_RX_1*%
X54991000Y-40572923D03*
%TO.P,A2,22,A3*%
%TO.N,/Analog Sensor Buffers/A_OUT_C1*%
X54991000Y-43112923D03*
%TO.P,A2,23,A4*%
%TO.N,/Digital Sensor Buffers/D_OUT_A1*%
X54991000Y-45652923D03*
%TO.P,A2,24,A5*%
%TO.N,/Digital Sensor Buffers/D_OUT_F1*%
X54991000Y-48192923D03*
%TO.P,A2,25,A6*%
%TO.N,/Analog Sensor Buffers/A_OUT_B1*%
X54991000Y-50732923D03*
%TO.P,A2,26,A7*%
%TO.N,/Analog Sensor Buffers/A_OUT_A1*%
X54991000Y-53272923D03*
%TO.P,A2,27,+5V*%
%TO.N,unconnected-(A2-Pad27)*%
X54991000Y-55812923D03*
%TO.P,A2,28,~{RESET}*%
%TO.N,/Supervisor MCU/MCU_RESET*%
X54991000Y-58352923D03*
%TO.P,A2,29,GND*%
%TO.N,GNDD*%
X54991000Y-60892923D03*
%TO.P,A2,30,VIN*%
%TO.N,unconnected-(A2-Pad30)*%
X54991000Y-63432923D03*
%TD*%
D57*
%TO.P,U23,1,NC*%
%TO.N,unconnected-(U23-Pad1)*%
X60264000Y-54690000D03*
%TO.P,U23,2*%
%TO.N,Net-(C36-Pad1)*%
X61214000Y-54690000D03*
%TO.P,U23,3,GND*%
%TO.N,GNDD*%
X62164000Y-54690000D03*
%TO.P,U23,4*%
%TO.N,/Supervisor MCU/HSE_IN*%
X62164000Y-51990000D03*
%TO.P,U23,5,VCC*%
%TO.N,3V3_DC_MCU*%
X60264000Y-51990000D03*
%TD*%
D46*
%TO.P,R6,1*%
%TO.N,GNDPWR*%
X207384400Y-105359200D03*
%TO.P,R6,2*%
%TO.N,/Power Input & Distribution/01*%
X205384400Y-105359200D03*
%TD*%
D58*
%TO.P,D8,1,K*%
%TO.N,GNDD*%
X94589600Y-120345200D03*
%TO.P,D8,2,A*%
%TO.N,Net-(D8-Pad2)*%
X94589600Y-118295200D03*
%TD*%
D24*
%TO.P,R38,1*%
%TO.N,Net-(D8-Pad2)*%
X94640400Y-116078000D03*
%TO.P,R38,2*%
%TO.N,/Student MCU/SCK*%
X94640400Y-114078000D03*
%TD*%
%TO.P,R26,1*%
%TO.N,LIMIT_2*%
X96367600Y-84434200D03*
%TO.P,R26,2*%
%TO.N,Net-(R26-Pad2)*%
X96367600Y-82434200D03*
%TD*%
D16*
%TO.P,EC7,1*%
%TO.N,GNDD*%
X98907600Y-116433600D03*
%TO.P,EC7,2*%
X98907600Y-120033600D03*
%TD*%
D14*
%TO.P,C39,1*%
%TO.N,3V3_DC_MCU*%
X88595200Y-51590400D03*
%TO.P,C39,2*%
%TO.N,GNDD*%
X88595200Y-53665400D03*
%TD*%
D59*
%TO.P,EC10,1*%
%TO.N,5V_DC_SERVO*%
X124815600Y-26822400D03*
%TO.P,EC10,2*%
%TO.N,GNDD*%
X130215600Y-26822400D03*
%TD*%
D11*
%TO.P,J36,1,Pin_1*%
%TO.N,3V3_DC_MCU*%
X69850000Y-70866000D03*
D12*
%TO.P,J36,2,Pin_2*%
X67310000Y-70866000D03*
%TO.P,J36,3,Pin_3*%
X64770000Y-70866000D03*
%TO.P,J36,4,Pin_4*%
X62230000Y-70866000D03*
%TO.P,J36,5,Pin_5*%
X59690000Y-70866000D03*
%TD*%
D14*
%TO.P,C29,1*%
%TO.N,3V3_DC_MCU*%
X126847600Y-53100200D03*
%TO.P,C29,2*%
%TO.N,GNDD*%
X126847600Y-55175200D03*
%TD*%
D27*
%TO.P,R12,1*%
%TO.N,GNDD*%
X159766000Y-78365600D03*
%TO.P,R12,2*%
%TO.N,M_I_SENSE_1*%
X159766000Y-80365600D03*
%TD*%
D60*
%TO.P,D4,1,GND*%
%TO.N,Net-(C13-Pad1)*%
X61722000Y-32387200D03*
D61*
%TO.P,D4,2,I/O1*%
%TO.N,/Supervisor MCU/USB_P*%
X61722000Y-34107200D03*
%TO.P,D4,3,I/O2*%
%TO.N,/Supervisor MCU/USB_N*%
X63922000Y-34107200D03*
%TO.P,D4,4,VCC*%
%TO.N,Net-(D4-Pad4)*%
X63922000Y-32207200D03*
%TD*%
D27*
%TO.P,R7,1*%
%TO.N,GNDD*%
X67310000Y-110522000D03*
%TO.P,R7,2*%
%TO.N,Net-(C3-Pad1)*%
X67310000Y-112522000D03*
%TD*%
D60*
%TO.P,D3,1,GND*%
%TO.N,Net-(C3-Pad1)*%
X62687200Y-112166400D03*
D61*
%TO.P,D3,2,I/O1*%
%TO.N,/Student MCU/USB_P*%
X62687200Y-110446400D03*
%TO.P,D3,3,I/O2*%
%TO.N,/Student MCU/USB_N*%
X60487200Y-110446400D03*
%TO.P,D3,4,VCC*%
%TO.N,Net-(D2-Pad2)*%
X60487200Y-112346400D03*
%TD*%
D62*
%TO.P,EC11,1*%
%TO.N,12V_DC_BUS*%
X203708000Y-73558400D03*
%TO.P,EC11,2*%
%TO.N,GNDPWR*%
X203708000Y-68158400D03*
%TD*%
D24*
%TO.P,R1,1*%
%TO.N,Net-(C1A1-Pad2)*%
X52222400Y-40522400D03*
%TO.P,R1,2*%
%TO.N,3V3_DC_MCU*%
X52222400Y-38522400D03*
%TD*%
D17*
%TO.P,C42,1*%
%TO.N,3V3_DC_MCU*%
X101367500Y-91033600D03*
%TO.P,C42,2*%
%TO.N,GNDD*%
X99292500Y-91033600D03*
%TD*%
D39*
%TO.P,J28,1,Pin_1*%
%TO.N,Net-(J28-Pad1)*%
X51714400Y-75590400D03*
%TD*%
D27*
%TO.P,R18,1*%
%TO.N,/Digital Sensor Buffers/D_IN_A*%
X113588800Y-38404800D03*
%TO.P,R18,2*%
%TO.N,3V3_DC_MCU*%
X113588800Y-40404800D03*
%TD*%
D63*
%TO.P,U3,1,GND*%
%TO.N,GNDD*%
X80112400Y-73369200D03*
D64*
%TO.P,U3,2,VO*%
%TO.N,3V3_DC_MCU*%
X73812400Y-71069200D03*
D63*
X80112400Y-71069200D03*
%TO.P,U3,3,VI*%
%TO.N,/Power Input & Distribution/5_to_3v3_reg*%
X80112400Y-68769200D03*
%TD*%
D20*
%TO.P,C3,1*%
%TO.N,Net-(C3-Pad1)*%
X65176400Y-112318800D03*
%TO.P,C3,2*%
%TO.N,GNDD*%
X65176400Y-110243800D03*
%TD*%
D17*
%TO.P,C13,1*%
%TO.N,Net-(C13-Pad1)*%
X59326600Y-34137600D03*
%TO.P,C13,2*%
%TO.N,GNDD*%
X57251600Y-34137600D03*
%TD*%
D43*
%TO.P,U22,1*%
%TO.N,Net-(U20-Pad2)*%
X92608400Y-79116200D03*
%TO.P,U22,2*%
%TO.N,Net-(R27-Pad2)*%
X93878400Y-79116200D03*
%TO.P,U22,3*%
%TO.N,Net-(U20-Pad4)*%
X95148400Y-79116200D03*
%TO.P,U22,4*%
%TO.N,Net-(R26-Pad2)*%
X96418400Y-79116200D03*
%TO.P,U22,5*%
%TO.N,Net-(U20-Pad6)*%
X97688400Y-79116200D03*
%TO.P,U22,6*%
%TO.N,Net-(R28-Pad2)*%
X98958400Y-79116200D03*
%TO.P,U22,7,GND*%
%TO.N,GNDD*%
X100228400Y-79116200D03*
%TO.P,U22,8*%
%TO.N,Net-(R29-Pad2)*%
X100228400Y-74166200D03*
%TO.P,U22,9*%
%TO.N,Net-(U20-Pad8)*%
X98958400Y-74166200D03*
%TO.P,U22,10*%
%TO.N,Net-(R31-Pad2)*%
X97688400Y-74166200D03*
%TO.P,U22,11*%
%TO.N,Net-(U20-Pad10)*%
X96418400Y-74166200D03*
%TO.P,U22,12*%
%TO.N,Net-(R30-Pad2)*%
X95148400Y-74166200D03*
%TO.P,U22,13*%
%TO.N,Net-(U20-Pad12)*%
X93878400Y-74166200D03*
%TO.P,U22,14,VCC*%
%TO.N,3V3_DC_MCU*%
X92608400Y-74166200D03*
%TD*%
D27*
%TO.P,R19,1*%
%TO.N,/Digital Sensor Buffers/D_IN_D*%
X118211600Y-34153600D03*
%TO.P,R19,2*%
%TO.N,3V3_DC_MCU*%
X118211600Y-36153600D03*
%TD*%
D13*
%TO.P,R16,1*%
%TO.N,Net-(C32-Pad2)*%
X105105200Y-119684800D03*
%TO.P,R16,2*%
%TO.N,Net-(J22-Pad1)*%
X107105200Y-119684800D03*
%TD*%
D37*
%TO.P,U1,1,IN*%
%TO.N,12V_DC_BUS*%
X185318400Y-81838800D03*
D38*
%TO.P,U1,2,GND*%
%TO.N,GND_PB*%
X187858400Y-81838800D03*
%TO.P,U1,3,OUT*%
%TO.N,5V_DC_LED*%
X190398400Y-81838800D03*
%TD*%
D57*
%TO.P,U2,1,NC*%
%TO.N,unconnected-(U2-Pad1)*%
X63520400Y-84523600D03*
%TO.P,U2,2*%
%TO.N,Net-(C15-Pad1)*%
X62570400Y-84523600D03*
%TO.P,U2,3,GND*%
%TO.N,GNDD*%
X61620400Y-84523600D03*
%TO.P,U2,4*%
%TO.N,/Student MCU/HSE_IN*%
X61620400Y-87223600D03*
%TO.P,U2,5,VCC*%
%TO.N,3V3_DC_MCU*%
X63520400Y-87223600D03*
%TD*%
D65*
%TO.P,NT4,1,1*%
%TO.N,GNDPWR*%
X187794400Y-27432000D03*
%TO.P,NT4,2,2*%
%TO.N,/Power Input & Distribution/PGND0*%
X183794400Y-27432000D03*
%TD*%
D24*
%TO.P,R28,1*%
%TO.N,OE_A*%
X98907600Y-84434200D03*
%TO.P,R28,2*%
%TO.N,Net-(R28-Pad2)*%
X98907600Y-82434200D03*
%TD*%
D14*
%TO.P,C26,1*%
%TO.N,3V3_DC_MCU*%
X137871200Y-41641800D03*
%TO.P,C26,2*%
%TO.N,GNDD*%
X137871200Y-43716800D03*
%TD*%
D66*
%TO.P,J3,1,V-*%
%TO.N,GNDPWR*%
X210820000Y-113080800D03*
D67*
%TO.P,J3,2,V+*%
%TO.N,/Power Input & Distribution/12V_DC*%
X203620000Y-113080800D03*
D68*
%TO.P,J3,S1,S1*%
%TO.N,unconnected-(J3-PadS1)*%
X200470000Y-119080800D03*
%TO.P,J3,S2,S2*%
%TO.N,unconnected-(J3-PadS2)*%
X213970000Y-119080800D03*
%TD*%
D69*
%TO.P,U19,1,-IN*%
%TO.N,Net-(C32-Pad2)*%
X105460800Y-114676400D03*
%TO.P,U19,2,REF*%
%TO.N,GNDD*%
X105460800Y-115326400D03*
%TO.P,U19,3,-Vs*%
X105460800Y-115976400D03*
%TO.P,U19,4,NC*%
%TO.N,unconnected-(U19-Pad4)*%
X105460800Y-116626400D03*
%TO.P,U19,5,SENSE*%
%TO.N,/Analog Sensor Buffers/A_IN_C*%
X109685800Y-116626400D03*
%TO.P,U19,6*%
X109685800Y-115976400D03*
%TO.P,U19,7,+Vs*%
%TO.N,3V3_DC_MCU*%
X109685800Y-115326400D03*
%TO.P,U19,8,+IN*%
%TO.N,Net-(C31-Pad2)*%
X109685800Y-114676400D03*
%TD*%
D43*
%TO.P,U20,1*%
%TO.N,/Digital Sensor Buffers/D_IN_A*%
X91643200Y-56424600D03*
%TO.P,U20,2*%
%TO.N,Net-(U20-Pad2)*%
X92913200Y-56424600D03*
%TO.P,U20,3*%
%TO.N,/Digital Sensor Buffers/D_IN_B*%
X94183200Y-56424600D03*
%TO.P,U20,4*%
%TO.N,Net-(U20-Pad4)*%
X95453200Y-56424600D03*
%TO.P,U20,5*%
%TO.N,/Digital Sensor Buffers/D_IN_C*%
X96723200Y-56424600D03*
%TO.P,U20,6*%
%TO.N,Net-(U20-Pad6)*%
X97993200Y-56424600D03*
%TO.P,U20,7,GND*%
%TO.N,GNDD*%
X99263200Y-56424600D03*
%TO.P,U20,8*%
%TO.N,Net-(U20-Pad8)*%
X99263200Y-51474600D03*
%TO.P,U20,9*%
%TO.N,/Digital Sensor Buffers/D_IN_D*%
X97993200Y-51474600D03*
%TO.P,U20,10*%
%TO.N,Net-(U20-Pad10)*%
X96723200Y-51474600D03*
%TO.P,U20,11*%
%TO.N,/Digital Sensor Buffers/D_IN_E*%
X95453200Y-51474600D03*
%TO.P,U20,12*%
%TO.N,Net-(U20-Pad12)*%
X94183200Y-51474600D03*
%TO.P,U20,13*%
%TO.N,STPPR_FAULT*%
X92913200Y-51474600D03*
%TO.P,U20,14,VCC*%
%TO.N,3V3_DC_MCU*%
X91643200Y-51474600D03*
%TD*%
D14*
%TO.P,C2B1,1*%
%TO.N,Net-(C2A1-Pad2)*%
X61010800Y-105562400D03*
%TO.P,C2B1,2*%
%TO.N,GNDD*%
X61010800Y-107637400D03*
%TD*%
D24*
%TO.P,R23,1*%
%TO.N,/Student MCU/SERVO_1*%
X60553600Y-66294000D03*
%TO.P,R23,2*%
%TO.N,/Supervisor MCU/STDNT_SRVO_RX_1*%
X60553600Y-64294000D03*
%TD*%
D41*
%TO.P,J1,1,Pin_1*%
%TO.N,GNDD*%
X81330800Y-48056800D03*
D42*
%TO.P,J1,2,Pin_2*%
%TO.N,3V3_DC_MCU*%
X81330800Y-50596800D03*
%TO.P,J1,3,Pin_3*%
%TO.N,/Supervisor MCU/PROG_TX*%
X81330800Y-53136800D03*
%TO.P,J1,4,Pin_4*%
%TO.N,/Supervisor MCU/PROG_RX*%
X81330800Y-55676800D03*
%TO.P,J1,5,Pin_5*%
%TO.N,/Supervisor MCU/MCU_RESET*%
X81330800Y-58216800D03*
%TD*%
D27*
%TO.P,R2,1*%
%TO.N,Net-(C1A1-Pad2)*%
X52222400Y-53594000D03*
%TO.P,R2,2*%
%TO.N,/Supervisor MCU/MCU_RESET*%
X52222400Y-55594000D03*
%TD*%
D70*
%TO.P,SW2,1,1*%
%TO.N,GNDD*%
X84378800Y-119062000D03*
X90178800Y-119062000D03*
%TO.P,SW2,2,2*%
%TO.N,/Student MCU/MCU_RESET*%
X90178800Y-115062000D03*
X84378800Y-115062000D03*
%TD*%
D55*
%TO.P,A1,1,D1/TX*%
%TO.N,/Student MCU/PROG_TX*%
X54856000Y-78868500D03*
D56*
%TO.P,A1,2,D0/RX*%
%TO.N,/Student MCU/PROG_RX*%
X54856000Y-81408500D03*
%TO.P,A1,3,~{RESET}*%
%TO.N,/Student MCU/MCU_RESET*%
X54856000Y-83948500D03*
%TO.P,A1,4,GND*%
%TO.N,GNDD*%
X54856000Y-86488500D03*
%TO.P,A1,5,D2*%
%TO.N,OE_B*%
X54856000Y-89028500D03*
%TO.P,A1,6,D3*%
%TO.N,OE_A*%
X54856000Y-91568500D03*
%TO.P,A1,7,D4*%
%TO.N,OE_IDX*%
X54856000Y-94108500D03*
%TO.P,A1,8,D5*%
%TO.N,/Output Logic/STUDENT_PIXEL_DATA*%
X54856000Y-96648500D03*
%TO.P,A1,9,D6*%
%TO.N,/Output Logic/STUDENT_STEP*%
X54856000Y-99188500D03*
%TO.P,A1,10,D7*%
%TO.N,/Student MCU/DC_MOTOR_DIR2*%
X54856000Y-101728500D03*
%TO.P,A1,11,D8*%
%TO.N,/Student MCU/LATCH*%
X54856000Y-104268500D03*
%TO.P,A1,12,D9*%
%TO.N,/Student MCU/SERVO_1*%
X54856000Y-106808500D03*
%TO.P,A1,13,D10*%
%TO.N,/Output Logic/STUDENT_MOTOR_PWM*%
X54856000Y-109348500D03*
%TO.P,A1,14,D11*%
%TO.N,/Student MCU/MOSI*%
X54856000Y-111888500D03*
%TO.P,A1,15,D12*%
%TO.N,/Student MCU/DC_MOTOR_DIR1*%
X54856000Y-114428500D03*
%TO.P,A1,16,D13*%
%TO.N,/Student MCU/SCK*%
X70096000Y-114428500D03*
%TO.P,A1,17,3V3*%
%TO.N,3V3_DC_MCU*%
X70096000Y-111888500D03*
%TO.P,A1,18,AREF*%
%TO.N,unconnected-(A1-Pad18)*%
X70096000Y-109348500D03*
%TO.P,A1,19,A0*%
%TO.N,/Student MCU/SPARE_0*%
X70096000Y-106808500D03*
%TO.P,A1,20,A1*%
%TO.N,/Student MCU/SPARE_1*%
X70096000Y-104268500D03*
%TO.P,A1,21,A2*%
%TO.N,/Student MCU/SPARE_2*%
X70096000Y-101728500D03*
%TO.P,A1,22,A3*%
%TO.N,/Analog Sensor Buffers/A_OUT_C2*%
X70096000Y-99188500D03*
%TO.P,A1,23,A4*%
%TO.N,LIMIT_1*%
X70096000Y-96648500D03*
%TO.P,A1,24,A5*%
%TO.N,STU_STP_FLT*%
X70096000Y-94108500D03*
%TO.P,A1,25,A6*%
%TO.N,/Analog Sensor Buffers/A_OUT_B2*%
X70096000Y-91568500D03*
%TO.P,A1,26,A7*%
%TO.N,/Analog Sensor Buffers/A_OUT_A2*%
X70096000Y-89028500D03*
%TO.P,A1,27,+5V*%
%TO.N,unconnected-(A1-Pad27)*%
X70096000Y-86488500D03*
%TO.P,A1,28,~{RESET}*%
%TO.N,/Student MCU/MCU_RESET*%
X70096000Y-83948500D03*
%TO.P,A1,29,GND*%
%TO.N,GNDD*%
X70096000Y-81408500D03*
%TO.P,A1,30,VIN*%
%TO.N,unconnected-(A1-Pad30)*%
X70096000Y-78868500D03*
%TD*%
D14*
%TO.P,C31,1*%
%TO.N,GNDD*%
X109626400Y-110236000D03*
%TO.P,C31,2*%
%TO.N,Net-(C31-Pad2)*%
X109626400Y-112311000D03*
%TD*%
D71*
%TO.P,U4,1,PA00*%
%TO.N,/Student MCU/HSE_IN*%
X61995632Y-90011177D03*
%TO.P,U4,2,PA01*%
%TO.N,/Student MCU/HSE_OUT*%
X61642079Y-90364730D03*
%TO.P,U4,3,PA02*%
%TO.N,/Student MCU/SPARE_0*%
X61288525Y-90718284D03*
%TO.P,U4,4,PA03*%
%TO.N,Net-(J28-Pad1)*%
X60934972Y-91071837D03*
%TO.P,U4,5,GNDANA*%
%TO.N,GNDD*%
X60581419Y-91425390D03*
%TO.P,U4,6,VDDANA*%
%TO.N,Net-(C11-Pad2)*%
X60227865Y-91778944D03*
%TO.P,U4,7,PB08*%
%TO.N,LIMIT_1*%
X59874312Y-92132497D03*
%TO.P,U4,8,PB09*%
%TO.N,STU_STP_FLT*%
X59520758Y-92486051D03*
%TO.P,U4,9,PA04*%
%TO.N,/Output Logic/STUDENT_STEP*%
X59167205Y-92839604D03*
%TO.P,U4,10,PA05*%
%TO.N,/Output Logic/STUDENT_PIXEL_DATA*%
X58813652Y-93193157D03*
%TO.P,U4,11,PA06*%
%TO.N,/Student MCU/DC_MOTOR_DIR2*%
X58460098Y-93546711D03*
%TO.P,U4,12,PA07*%
%TO.N,OE_IDX*%
X58106545Y-93900264D03*
D72*
%TO.P,U4,13,PA08*%
%TO.N,Net-(J8-Pad1)*%
X58106545Y-94872536D03*
%TO.P,U4,14,PA09*%
%TO.N,/Analog Sensor Buffers/A_OUT_B2*%
X58460098Y-95226089D03*
%TO.P,U4,15,PA10*%
%TO.N,/Analog Sensor Buffers/A_OUT_C2*%
X58813652Y-95579643D03*
%TO.P,U4,16,PA11*%
%TO.N,/Student MCU/SPARE_2*%
X59167205Y-95933196D03*
%TO.P,U4,17,VDDIO*%
%TO.N,3V3_DC_MCU*%
X59520758Y-96286749D03*
%TO.P,U4,18,GND*%
%TO.N,GNDD*%
X59874312Y-96640303D03*
%TO.P,U4,19,PB10*%
%TO.N,OE_B*%
X60227865Y-96993856D03*
%TO.P,U4,20,PB11*%
%TO.N,OE_A*%
X60581419Y-97347410D03*
%TO.P,U4,21,PA12*%
%TO.N,/Student MCU/SERVO_2*%
X60934972Y-97700963D03*
%TO.P,U4,22,PA13*%
%TO.N,/Student MCU/SPARE_3*%
X61288525Y-98054516D03*
%TO.P,U4,23,PA14*%
%TO.N,/Student MCU/MODE_2*%
X61642079Y-98408070D03*
%TO.P,U4,24,PA15*%
%TO.N,Net-(J8-Pad2)*%
X61995632Y-98761623D03*
D71*
%TO.P,U4,25,PA16*%
%TO.N,/Student MCU/MOSI*%
X62967904Y-98761623D03*
%TO.P,U4,26,PA17*%
%TO.N,/Student MCU/SCK*%
X63321457Y-98408070D03*
%TO.P,U4,27,PA18*%
%TO.N,/Student MCU/LATCH*%
X63675011Y-98054516D03*
%TO.P,U4,28,PA19*%
%TO.N,/Student MCU/DC_MOTOR_DIR1*%
X64028564Y-97700963D03*
%TO.P,U4,29,PA20*%
%TO.N,/Student MCU/SERVO_1*%
X64382117Y-97347410D03*
%TO.P,U4,30,PA21*%
%TO.N,/Output Logic/STUDENT_MOTOR_PWM*%
X64735671Y-96993856D03*
%TO.P,U4,31,PA22*%
%TO.N,LIMIT_2*%
X65089224Y-96640303D03*
%TO.P,U4,32,PA23*%
%TO.N,Net-(J8-Pad3)*%
X65442778Y-96286749D03*
%TO.P,U4,33,PA24*%
%TO.N,/Student MCU/USB_N*%
X65796331Y-95933196D03*
%TO.P,U4,34,PA25*%
%TO.N,/Student MCU/USB_P*%
X66149884Y-95579643D03*
%TO.P,U4,35,GND*%
%TO.N,GNDD*%
X66503438Y-95226089D03*
%TO.P,U4,36,VDDIO*%
%TO.N,3V3_DC_MCU*%
X66856991Y-94872536D03*
D72*
%TO.P,U4,37,PB22*%
%TO.N,/Student MCU/PROG_TX*%
X66856991Y-93900264D03*
%TO.P,U4,38,PB23*%
%TO.N,/Student MCU/PROG_RX*%
X66503438Y-93546711D03*
%TO.P,U4,39,PA27*%
%TO.N,Net-(J8-Pad4)*%
X66149884Y-93193157D03*
%TO.P,U4,40,~{RESET}*%
%TO.N,Net-(C2A1-Pad2)*%
X65796331Y-92839604D03*
%TO.P,U4,41,PA28*%
%TO.N,Net-(J8-Pad5)*%
X65442778Y-92486051D03*
%TO.P,U4,42,GND*%
%TO.N,GNDD*%
X65089224Y-92132497D03*
%TO.P,U4,43,VDDCORE*%
%TO.N,Net-(C7-Pad1)*%
X64735671Y-91778944D03*
%TO.P,U4,44,VDDIN*%
%TO.N,3V3_DC_MCU*%
X64382117Y-91425390D03*
%TO.P,U4,45,PA30*%
%TO.N,Net-(J8-Pad6)*%
X64028564Y-91071837D03*
%TO.P,U4,46,PA31*%
%TO.N,Net-(J8-Pad7)*%
X63675011Y-90718284D03*
%TO.P,U4,47,PB02*%
%TO.N,/Student MCU/SPARE_1*%
X63321457Y-90364730D03*
%TO.P,U4,48,PB03*%
%TO.N,/Analog Sensor Buffers/A_OUT_A2*%
X62967904Y-90011177D03*
D73*
%TO.P,U4,49,EP*%
%TO.N,GNDD*%
X62481768Y-94386400D03*
%TD*%
D74*
%TO.P,J7,1,VBUS*%
%TO.N,Net-(D2-Pad2)*%
X61006000Y-114744400D03*
%TO.P,J7,2,D-*%
%TO.N,/Student MCU/USB_N*%
X61806000Y-114744400D03*
%TO.P,J7,3,D+*%
%TO.N,/Student MCU/USB_P*%
X62606000Y-114744400D03*
%TO.P,J7,4,ID*%
%TO.N,unconnected-(J7-Pad4)*%
X63406000Y-114744400D03*
%TO.P,J7,5,GND*%
%TO.N,GNDD*%
X64206000Y-114744400D03*
D75*
%TO.P,J7,6,Shield*%
%TO.N,Net-(C3-Pad1)*%
X58156000Y-120294400D03*
X67056000Y-120294400D03*
X58156000Y-114844400D03*
X67056000Y-114844400D03*
%TD*%
D50*
%TO.P,EC1,1*%
%TO.N,/Power Input & Distribution/5_to_3v3_reg*%
X80111600Y-65532000D03*
%TO.P,EC1,2*%
%TO.N,GNDD*%
X80111600Y-61932000D03*
%TD*%
D55*
%TO.P,A3,1,NC*%
%TO.N,unconnected-(A3-Pad1)*%
X136956800Y-83309520D03*
D56*
%TO.P,A3,2,IOREF*%
%TO.N,unconnected-(A3-Pad2)*%
X139496800Y-83309520D03*
%TO.P,A3,3,~{RESET}*%
%TO.N,unconnected-(A3-Pad3)*%
X142036800Y-83309520D03*
%TO.P,A3,4,3V3*%
%TO.N,unconnected-(A3-Pad4)*%
X144576800Y-83309520D03*
%TO.P,A3,5,5V*%
%TO.N,unconnected-(A3-Pad5)*%
X147116800Y-83309520D03*
%TO.P,A3,6,GND*%
%TO.N,GNDD*%
X149656800Y-83309520D03*
%TO.P,A3,7,GND*%
X152196800Y-83309520D03*
%TO.P,A3,8,Vin*%
%TO.N,unconnected-(A3-Pad8)*%
X154736800Y-83309520D03*
%TO.P,A3,9,IS_1*%
%TO.N,M_I_SENSE_1*%
X159816800Y-83309520D03*
%TO.P,A3,10,IS_2*%
%TO.N,M_I_SENSE_2*%
X162356800Y-83309520D03*
%TO.P,A3,11,A2*%
%TO.N,unconnected-(A3-Pad11)*%
X164896800Y-83309520D03*
%TO.P,A3,12,A3*%
%TO.N,unconnected-(A3-Pad12)*%
X167436800Y-83309520D03*
%TO.P,A3,13,A4*%
%TO.N,unconnected-(A3-Pad13)*%
X169976800Y-83309520D03*
%TO.P,A3,14,A5*%
%TO.N,unconnected-(A3-Pad14)*%
X172516800Y-83309520D03*
%TO.P,A3,15,D0/RX*%
%TO.N,unconnected-(A3-Pad15)*%
X172516800Y-35049520D03*
%TO.P,A3,16,D1/TX*%
%TO.N,unconnected-(A3-Pad16)*%
X169976800Y-35049520D03*
%TO.P,A3,17,D2*%
%TO.N,unconnected-(A3-Pad17)*%
X167436800Y-35049520D03*
%TO.P,A3,18,IN_1*%
%TO.N,/DC Motor Controller/IN_1*%
X164896800Y-35049520D03*
%TO.P,A3,19,D4*%
%TO.N,unconnected-(A3-Pad19)*%
X162356800Y-35049520D03*
%TO.P,A3,20,D5*%
%TO.N,unconnected-(A3-Pad20)*%
X159816800Y-35049520D03*
%TO.P,A3,21,D6*%
%TO.N,unconnected-(A3-Pad21)*%
X157276800Y-35049520D03*
%TO.P,A3,22,D7*%
%TO.N,unconnected-(A3-Pad22)*%
X154736800Y-35049520D03*
%TO.P,A3,23,D8*%
%TO.N,unconnected-(A3-Pad23)*%
X150676800Y-35049520D03*
%TO.P,A3,24,D9*%
%TO.N,unconnected-(A3-Pad24)*%
X148136800Y-35049520D03*
%TO.P,A3,25,D10*%
%TO.N,unconnected-(A3-Pad25)*%
X145596800Y-35049520D03*
%TO.P,A3,26,IN_2*%
%TO.N,/DC Motor Controller/IN_2*%
X143056800Y-35049520D03*
%TO.P,A3,27,INH_1*%
%TO.N,/DC Motor Controller/ENABLE*%
X140516800Y-35049520D03*
%TO.P,A3,28,INH_2*%
X137976800Y-35049520D03*
%TO.P,A3,29,GND*%
%TO.N,GNDD*%
X135436800Y-35049520D03*
%TO.P,A3,30,AREF*%
%TO.N,unconnected-(A3-Pad30)*%
X132896800Y-35049520D03*
%TO.P,A3,31,SDA/A4*%
%TO.N,unconnected-(A3-Pad31)*%
X130356800Y-35049520D03*
%TO.P,A3,32,SCL/A5*%
%TO.N,unconnected-(A3-Pad32)*%
X127816800Y-35049520D03*
D65*
%TO.P,A3,33,PWRGND*%
%TO.N,unconnected-(A3-Pad33)*%
X176199800Y-52194520D03*
%TO.P,A3,34,VBAT*%
%TO.N,unconnected-(A3-Pad34)*%
X176199800Y-54734520D03*
%TO.P,A3,35,OUT2*%
%TO.N,unconnected-(A3-Pad35)*%
X176199800Y-57274520D03*
%TO.P,A3,36,M_GND*%
%TO.N,unconnected-(A3-Pad36)*%
X176199800Y-59814520D03*
%TO.P,A3,37,OUT1*%
%TO.N,unconnected-(A3-Pad37)*%
X176199800Y-62354520D03*
%TD*%
%TO.P,NT1,1,1*%
%TO.N,GNDD*%
X122631200Y-111506000D03*
%TO.P,NT1,2,2*%
%TO.N,GNDPWR*%
X126631200Y-111506000D03*
%TD*%
D76*
%TO.P,EC5,1*%
%TO.N,3V3_DC_MCU*%
X73558400Y-41808400D03*
%TO.P,EC5,2*%
%TO.N,GNDD*%
X77158400Y-41808400D03*
%TD*%
D24*
%TO.P,R15,1*%
%TO.N,Net-(C31-Pad2)*%
X112014000Y-112236000D03*
%TO.P,R15,2*%
%TO.N,Net-(J22-Pad2)*%
X112014000Y-110236000D03*
%TD*%
D77*
%TO.P,JP7,1,A*%
%TO.N,3V3_DC_MCU*%
X63144400Y-61656469D03*
D78*
%TO.P,JP7,2,C*%
%TO.N,Net-(C20-Pad1)*%
X63144400Y-61082938D03*
D79*
%TO.P,JP7,3,B*%
%TO.N,GNDD*%
X63144400Y-60511438D03*
%TD*%
D50*
%TO.P,EC8,1*%
%TO.N,3V3_DC_MCU*%
X100634800Y-112776000D03*
%TO.P,EC8,2*%
%TO.N,GNDD*%
X100634800Y-109176000D03*
%TD*%
D44*
%TO.P,X1,1,TRI*%
%TO.N,Net-(C14-Pad1)*%
X60935600Y-79840400D03*
%TO.P,X1,2,GND*%
%TO.N,GNDD*%
X60935600Y-81940400D03*
%TO.P,X1,3,OUT*%
%TO.N,Net-(C15-Pad1)*%
X62585600Y-81940400D03*
%TO.P,X1,4,Vdd*%
%TO.N,Net-(C5-Pad1)*%
X62585600Y-79840400D03*
%TD*%
D80*
%TO.P,D5,1,K*%
%TO.N,USB_BUS*%
X67665600Y-34854800D03*
%TO.P,D5,2,A*%
%TO.N,Net-(D4-Pad4)*%
X67665600Y-32054800D03*
%TD*%
D33*
%TO.P,U12,1*%
%TO.N,/Output Logic/STUDENT_MOTOR_PWM*%
X141949400Y-55118000D03*
%TO.P,U12,2*%
%TO.N,/Output Logic/MCU_MOTOR_SELECT*%
X141949400Y-56388000D03*
%TO.P,U12,3*%
%TO.N,Net-(U12-Pad3)*%
X141949400Y-57658000D03*
%TO.P,U12,4*%
%TO.N,Net-(U12-Pad4)*%
X141949400Y-58928000D03*
%TO.P,U12,5*%
%TO.N,/Output Logic/STUDENT_MOTOR_EN*%
X141949400Y-60198000D03*
%TO.P,U12,6*%
%TO.N,/Output Logic/MCU_MOTOR_SELECT*%
X141949400Y-61468000D03*
%TO.P,U12,7,VSS*%
%TO.N,GNDD*%
X141949400Y-62738000D03*
%TO.P,U12,8*%
%TO.N,/Output Logic/STUDENT_PIXEL_DATA*%
X146899400Y-62738000D03*
%TO.P,U12,9*%
%TO.N,/Output Logic/MCU_PIXEL_SELECT*%
X146899400Y-61468000D03*
%TO.P,U12,10*%
%TO.N,Net-(U12-Pad10)*%
X146899400Y-60198000D03*
%TO.P,U12,11*%
%TO.N,Net-(U12-Pad11)*%
X146899400Y-58928000D03*
%TO.P,U12,12*%
%TO.N,/Output Logic/SUPERVISOR_PIXEL_DATA*%
X146899400Y-57658000D03*
%TO.P,U12,13*%
%TO.N,Net-(U12-Pad13)*%
X146899400Y-56388000D03*
%TO.P,U12,14,VDD*%
%TO.N,3V3_DC_MCU*%
X146899400Y-55118000D03*
%TD*%
D14*
%TO.P,C41,1*%
%TO.N,3V3_DC_MCU*%
X124612400Y-104140000D03*
%TO.P,C41,2*%
%TO.N,GNDD*%
X124612400Y-106215000D03*
%TD*%
D81*
%TO.P,Q1,1,G*%
%TO.N,/Power Input & Distribution/01*%
X202438000Y-103936800D03*
D82*
%TO.P,Q1,2,D*%
%TO.N,/Power Input & Distribution/12V*%
X202438000Y-101396800D03*
%TO.P,Q1,3,S*%
%TO.N,12V_DC_BUS*%
X202438000Y-98856800D03*
%TD*%
D34*
%TO.P,J25,1,Pin_1*%
%TO.N,GNDD*%
X135788400Y-27025600D03*
D35*
%TO.P,J25,2,Pin_2*%
%TO.N,/Digital Sensor Buffers/D_IN_E*%
X138328400Y-27025600D03*
%TO.P,J25,3,Pin_3*%
%TO.N,/Digital Sensor Buffers/D_IN_D*%
X140868400Y-27025600D03*
%TO.P,J25,4,Pin_4*%
%TO.N,/Digital Sensor Buffers/D_IN_C*%
X143408400Y-27025600D03*
%TO.P,J25,5,Pin_5*%
%TO.N,3V3_DC_MCU*%
X145948400Y-27025600D03*
%TD*%
D17*
%TO.P,C30,1*%
%TO.N,3V3_DC_MCU*%
X147356600Y-52679600D03*
%TO.P,C30,2*%
%TO.N,GNDD*%
X145281600Y-52679600D03*
%TD*%
D83*
%TO.P,FB1,1*%
%TO.N,3V3_DC_MCU*%
X57708800Y-97605200D03*
%TO.P,FB1,2*%
%TO.N,Net-(C11-Pad2)*%
X57708800Y-99905200D03*
%TD*%
D17*
%TO.P,C6,1*%
%TO.N,12V_DC_BUS*%
X184904200Y-85852000D03*
%TO.P,C6,2*%
%TO.N,GND_PB*%
X182829200Y-85852000D03*
%TD*%
D27*
%TO.P,R13,1*%
%TO.N,GNDD*%
X162407600Y-78365600D03*
%TO.P,R13,2*%
%TO.N,M_I_SENSE_2*%
X162407600Y-80365600D03*
%TD*%
D43*
%TO.P,U21,1*%
%TO.N,Net-(U20-Pad2)*%
X88417400Y-65143200D03*
%TO.P,U21,2*%
%TO.N,/Digital Sensor Buffers/D_OUT_A1*%
X89687400Y-65143200D03*
%TO.P,U21,3*%
%TO.N,Net-(U20-Pad4)*%
X90957400Y-65143200D03*
%TO.P,U21,4*%
%TO.N,/Digital Sensor Buffers/D_OUT_B1*%
X92227400Y-65143200D03*
%TO.P,U21,5*%
%TO.N,Net-(U20-Pad6)*%
X93497400Y-65143200D03*
%TO.P,U21,6*%
%TO.N,/Digital Sensor Buffers/D_OUT_C1*%
X94767400Y-65143200D03*
%TO.P,U21,7,GND*%
%TO.N,GNDD*%
X96037400Y-65143200D03*
%TO.P,U21,8*%
%TO.N,/Digital Sensor Buffers/D_OUT_D1*%
X96037400Y-60193200D03*
%TO.P,U21,9*%
%TO.N,Net-(U20-Pad8)*%
X94767400Y-60193200D03*
%TO.P,U21,10*%
%TO.N,/Digital Sensor Buffers/D_OUT_E1*%
X93497400Y-60193200D03*
%TO.P,U21,11*%
%TO.N,Net-(U20-Pad10)*%
X92227400Y-60193200D03*
%TO.P,U21,12*%
%TO.N,/Digital Sensor Buffers/D_OUT_F1*%
X90957400Y-60193200D03*
%TO.P,U21,13*%
%TO.N,Net-(U20-Pad12)*%
X89687400Y-60193200D03*
%TO.P,U21,14,VCC*%
%TO.N,3V3_DC_MCU*%
X88417400Y-60193200D03*
%TD*%
D27*
%TO.P,R20,1*%
%TO.N,/Digital Sensor Buffers/D_IN_B*%
X118211600Y-38423600D03*
%TO.P,R20,2*%
%TO.N,3V3_DC_MCU*%
X118211600Y-40423600D03*
%TD*%
D84*
%TO.P,U6,1,PA00*%
%TO.N,/Supervisor MCU/HSE_IN*%
X62868536Y-49434823D03*
%TO.P,U6,2,PA01*%
%TO.N,/Supervisor MCU/HSE_OUT*%
X63222089Y-49081270D03*
%TO.P,U6,3,PA02*%
%TO.N,/Supervisor MCU/STDNT_DC_M_DIR_2*%
X63575643Y-48727716D03*
%TO.P,U6,4,PA03*%
%TO.N,/Supervisor MCU/STDNT_SRVO_RX_2*%
X63929196Y-48374163D03*
%TO.P,U6,5,GNDANA*%
%TO.N,GNDD*%
X64282749Y-48020610D03*
%TO.P,U6,6,VDDANA*%
%TO.N,Net-(C21-Pad2)*%
X64636303Y-47667056D03*
%TO.P,U6,7,PB08*%
%TO.N,/Digital Sensor Buffers/D_OUT_A1*%
X64989856Y-47313503D03*
%TO.P,U6,8,PB09*%
%TO.N,/Digital Sensor Buffers/D_OUT_F1*%
X65343410Y-46959949D03*
%TO.P,U6,9,PA04*%
%TO.N,/Output Logic/SUPERVISOR_STEP*%
X65696963Y-46606396D03*
%TO.P,U6,10,PA05*%
%TO.N,/Output Logic/SUPERVISOR_PIXEL_DATA*%
X66050516Y-46252843D03*
%TO.P,U6,11,PA06*%
%TO.N,/Output Logic/MOTOR_DIR_B*%
X66404070Y-45899289D03*
%TO.P,U6,12,PA07*%
%TO.N,/Digital Sensor Buffers/D_OUT_D1*%
X66757623Y-45545736D03*
D85*
%TO.P,U6,13,PA08*%
%TO.N,Net-(J12-Pad1)*%
X66757623Y-44573464D03*
%TO.P,U6,14,PA09*%
%TO.N,/Analog Sensor Buffers/A_OUT_B1*%
X66404070Y-44219911D03*
%TO.P,U6,15,PA10*%
%TO.N,/Analog Sensor Buffers/A_OUT_C1*%
X66050516Y-43866357D03*
%TO.P,U6,16,PA11*%
%TO.N,/Supervisor MCU/STDNT_SRVO_RX_1*%
X65696963Y-43512804D03*
%TO.P,U6,17,VDDIO*%
%TO.N,3V3_DC_MCU*%
X65343410Y-43159251D03*
%TO.P,U6,18,GND*%
%TO.N,GNDD*%
X64989856Y-42805697D03*
%TO.P,U6,19,PB10*%
%TO.N,/Digital Sensor Buffers/D_OUT_E1*%
X64636303Y-42452144D03*
%TO.P,U6,20,PB11*%
%TO.N,/Digital Sensor Buffers/D_OUT_C1*%
X64282749Y-42098590D03*
%TO.P,U6,21,PA12*%
%TO.N,MODE_0*%
X63929196Y-41745037D03*
%TO.P,U6,22,PA13*%
%TO.N,MODE_1*%
X63575643Y-41391484D03*
%TO.P,U6,23,PA14*%
%TO.N,MODE_2*%
X63222089Y-41037930D03*
%TO.P,U6,24,PA15*%
%TO.N,Net-(J12-Pad2)*%
X62868536Y-40684377D03*
D84*
%TO.P,U6,25,PA16*%
%TO.N,/Supervisor MCU/MOSI*%
X61896264Y-40684377D03*
%TO.P,U6,26,PA17*%
%TO.N,/Supervisor MCU/SCK*%
X61542711Y-41037930D03*
%TO.P,U6,27,PA18*%
%TO.N,/Supervisor MCU/LATCH*%
X61189157Y-41391484D03*
%TO.P,U6,28,PA19*%
%TO.N,/Output Logic/MOTOR_DIR_A*%
X60835604Y-41745037D03*
%TO.P,U6,29,PA20*%
%TO.N,SERVO_1*%
X60482051Y-42098590D03*
%TO.P,U6,30,PA21*%
%TO.N,/Output Logic/SUPERVISOR_MOTOR_PWM*%
X60128497Y-42452144D03*
%TO.P,U6,31,PA22*%
%TO.N,/Digital Sensor Buffers/D_OUT_B1*%
X59774944Y-42805697D03*
%TO.P,U6,32,PA23*%
%TO.N,Net-(J12-Pad3)*%
X59421390Y-43159251D03*
%TO.P,U6,33,PA24*%
%TO.N,/Supervisor MCU/USB_N*%
X59067837Y-43512804D03*
%TO.P,U6,34,PA25*%
%TO.N,/Supervisor MCU/USB_P*%
X58714284Y-43866357D03*
%TO.P,U6,35,GND*%
%TO.N,GNDD*%
X58360730Y-44219911D03*
%TO.P,U6,36,VDDIO*%
%TO.N,3V3_DC_MCU*%
X58007177Y-44573464D03*
D85*
%TO.P,U6,37,PB22*%
%TO.N,/Supervisor MCU/PROG_TX*%
X58007177Y-45545736D03*
%TO.P,U6,38,PB23*%
%TO.N,/Supervisor MCU/PROG_RX*%
X58360730Y-45899289D03*
%TO.P,U6,39,PA27*%
%TO.N,Net-(J12-Pad4)*%
X58714284Y-46252843D03*
%TO.P,U6,40,~{RESET}*%
%TO.N,Net-(C1A1-Pad2)*%
X59067837Y-46606396D03*
%TO.P,U6,41,PA28*%
%TO.N,Net-(J12-Pad5)*%
X59421390Y-46959949D03*
%TO.P,U6,42,GND*%
%TO.N,GNDD*%
X59774944Y-47313503D03*
%TO.P,U6,43,VDDCORE*%
%TO.N,Net-(C17-Pad1)*%
X60128497Y-47667056D03*
%TO.P,U6,44,VDDIN*%
%TO.N,3V3_DC_MCU*%
X60482051Y-48020610D03*
%TO.P,U6,45,PA30*%
%TO.N,Net-(J12-Pad6)*%
X60835604Y-48374163D03*
%TO.P,U6,46,PA31*%
%TO.N,SERVO_2*%
X61189157Y-48727716D03*
%TO.P,U6,47,PB02*%
%TO.N,/Supervisor MCU/STDNT_DC_M_DIR_1*%
X61542711Y-49081270D03*
%TO.P,U6,48,PB03*%
%TO.N,/Analog Sensor Buffers/A_OUT_A1*%
X61896264Y-49434823D03*
D86*
%TO.P,U6,49,EP*%
%TO.N,GNDD*%
X62382400Y-45059600D03*
%TD*%
D33*
%TO.P,U5,1,STROBE*%
%TO.N,/Student MCU/LATCH*%
X90757200Y-95758000D03*
%TO.P,U5,2,DATA*%
%TO.N,/Student MCU/MOSI*%
X90757200Y-97028000D03*
%TO.P,U5,3,CLOCK*%
%TO.N,/Student MCU/SCK*%
X90757200Y-98298000D03*
%TO.P,U5,4,Q0*%
%TO.N,/Output Logic/STUDENT_MOTOR_EN*%
X90757200Y-99568000D03*
%TO.P,U5,5,Q1*%
%TO.N,/Student MCU/SHIFT_1*%
X90757200Y-100838000D03*
%TO.P,U5,6,Q2*%
%TO.N,/Student MCU/SHIFT_2*%
X90757200Y-102108000D03*
%TO.P,U5,7,Q3*%
%TO.N,/Student MCU/SHIFT_3*%
X90757200Y-103378000D03*
%TO.P,U5,8,GND*%
%TO.N,GNDD*%
X90757200Y-104648000D03*
%TO.P,U5,9,QS*%
%TO.N,unconnected-(U5-Pad9)*%
X95707200Y-104648000D03*
%TO.P,U5,10,NC*%
%TO.N,unconnected-(U5-Pad10)*%
X95707200Y-103378000D03*
%TO.P,U5,11,Q7*%
%TO.N,/Student MCU/SHIFT_7*%
X95707200Y-102108000D03*
%TO.P,U5,12,Q6*%
%TO.N,/Output Logic/STUDENT_STEP_RST*%
X95707200Y-100838000D03*
%TO.P,U5,13,Q5*%
%TO.N,/Output Logic/STUDENT_STEP_EN*%
X95707200Y-99568000D03*
%TO.P,U5,14,Q4*%
%TO.N,/Output Logic/STUDENT_DIRECTION*%
X95707200Y-98298000D03*
%TO.P,U5,15,OE*%
%TO.N,3V3_DC_MCU*%
X95707200Y-97028000D03*
%TO.P,U5,16,VCC*%
X95707200Y-95758000D03*
%TD*%
D13*
%TO.P,R9,1*%
%TO.N,GNDD*%
X169291000Y-45923200D03*
%TO.P,R9,2*%
%TO.N,MODE_2*%
X171291000Y-45923200D03*
%TD*%
D11*
%TO.P,J27,1,Pin_1*%
%TO.N,Net-(J27-Pad1)*%
X112572800Y-93355400D03*
D12*
%TO.P,J27,2,Pin_2*%
%TO.N,A_BUFFER_OUT_A*%
X112572800Y-90815400D03*
%TO.P,J27,3,Pin_3*%
%TO.N,A_BUFFER_OUT_B*%
X112572800Y-88275400D03*
%TD*%
D11*
%TO.P,J11,1,Pin_1*%
%TO.N,/Student MCU/MOSI*%
X90779600Y-108610400D03*
D12*
%TO.P,J11,2,Pin_2*%
%TO.N,/Student MCU/SCK*%
X93319600Y-108610400D03*
%TO.P,J11,3,Pin_3*%
%TO.N,/Student MCU/LATCH*%
X95859600Y-108610400D03*
%TD*%
D33*
%TO.P,U17,1*%
%TO.N,/Analog Sensor Buffers/DB1B*%
X103644400Y-97231200D03*
%TO.P,U17,2,-*%
X103644400Y-98501200D03*
%TO.P,U17,3,+*%
%TO.N,/Analog Sensor Buffers/DB1*%
X103644400Y-99771200D03*
%TO.P,U17,4,V+*%
%TO.N,3V3_DC_MCU*%
X103644400Y-101041200D03*
%TO.P,U17,5,+*%
%TO.N,/Analog Sensor Buffers/DB2*%
X103644400Y-102311200D03*
%TO.P,U17,6,-*%
%TO.N,/Analog Sensor Buffers/DB2B*%
X103644400Y-103581200D03*
%TO.P,U17,7*%
X103644400Y-104851200D03*
%TO.P,U17,8*%
%TO.N,/Analog Sensor Buffers/DB3B*%
X108594400Y-104851200D03*
%TO.P,U17,9,-*%
X108594400Y-103581200D03*
%TO.P,U17,10,+*%
%TO.N,/Analog Sensor Buffers/DB3*%
X108594400Y-102311200D03*
%TO.P,U17,11,V-*%
%TO.N,GNDD*%
X108594400Y-101041200D03*
%TO.P,U17,12,+*%
%TO.N,/Analog Sensor Buffers/DB4*%
X108594400Y-99771200D03*
%TO.P,U17,13,-*%
%TO.N,/Analog Sensor Buffers/DB4B*%
X108594400Y-98501200D03*
%TO.P,U17,14*%
X108594400Y-97231200D03*
%TD*%
D27*
%TO.P,R17,1*%
%TO.N,/Digital Sensor Buffers/D_IN_C*%
X122631200Y-34153600D03*
%TO.P,R17,2*%
%TO.N,3V3_DC_MCU*%
X122631200Y-36153600D03*
%TD*%
D11*
%TO.P,J8,1,Pin_1*%
%TO.N,Net-(J8-Pad1)*%
X81889600Y-110032800D03*
D12*
%TO.P,J8,2,Pin_2*%
%TO.N,Net-(J8-Pad2)*%
X81889600Y-107492800D03*
%TO.P,J8,3,Pin_3*%
%TO.N,Net-(J8-Pad3)*%
X81889600Y-104952800D03*
%TO.P,J8,4,Pin_4*%
%TO.N,Net-(J8-Pad4)*%
X81889600Y-102412800D03*
%TO.P,J8,5,Pin_5*%
%TO.N,Net-(J8-Pad5)*%
X81889600Y-99872800D03*
%TO.P,J8,6,Pin_6*%
%TO.N,Net-(J8-Pad6)*%
X81889600Y-97332800D03*
%TO.P,J8,7,Pin_7*%
%TO.N,Net-(J8-Pad7)*%
X81889600Y-94792800D03*
%TO.P,J8,8,Pin_8*%
%TO.N,/Student MCU/MODE_2*%
X81889600Y-92252800D03*
%TD*%
D47*
%TO.P,H6,1*%
%TO.N,N/C*%
X196362656Y-118638656D03*
X192968544Y-118638656D03*
X196362656Y-115244544D03*
D48*
X194665600Y-116941600D03*
D47*
X194665600Y-114541600D03*
X197065600Y-116941600D03*
X192265600Y-116941600D03*
X192968544Y-115244544D03*
X194665600Y-119341600D03*
%TD*%
D87*
%TO.P,JP10,1,A*%
%TO.N,GNDD*%
X58928000Y-105613200D03*
D88*
%TO.P,JP10,2,B*%
%TO.N,Net-(C2A1-Pad2)*%
X59436000Y-105613200D03*
%TD*%
D89*
%TO.P,SW1,1*%
%TO.N,MODE_0*%
X182042800Y-35255200D03*
%TO.P,SW1,2*%
%TO.N,MODE_1*%
X182042800Y-37795200D03*
%TO.P,SW1,3*%
%TO.N,MODE_2*%
X182042800Y-40335200D03*
%TO.P,SW1,4*%
%TO.N,3V3_DC_MCU*%
X188772800Y-40335200D03*
%TO.P,SW1,5*%
X188772800Y-37795200D03*
%TO.P,SW1,6*%
X188772800Y-35255200D03*
%TD*%
D58*
%TO.P,D6,1,K*%
%TO.N,/Power Input & Distribution/02*%
X197510400Y-109644400D03*
%TO.P,D6,2,A*%
%TO.N,12V_DC_BUS*%
X197510400Y-107594400D03*
%TD*%
D47*
%TO.P,H3,1*%
%TO.N,N/C*%
X215819056Y-28976656D03*
X216522000Y-27279600D03*
D48*
X214122000Y-27279600D03*
D47*
X215819056Y-25582544D03*
X212424944Y-25582544D03*
X214122000Y-29679600D03*
X212424944Y-28976656D03*
X214122000Y-24879600D03*
X211722000Y-27279600D03*
%TD*%
D11*
%TO.P,J34,1,Pin_1*%
%TO.N,5V_DC_LED*%
X196646800Y-67061000D03*
D12*
%TO.P,J34,2,Pin_2*%
X196646800Y-69601000D03*
%TO.P,J34,3,Pin_3*%
X196646800Y-72141000D03*
%TO.P,J34,4,Pin_4*%
X196646800Y-74681000D03*
%TO.P,J34,5,Pin_5*%
X196646800Y-77221000D03*
%TD*%
D13*
%TO.P,R34,1*%
%TO.N,/Analog Sensor Buffers/A_OUT_A2*%
X98936900Y-97231200D03*
%TO.P,R34,2*%
%TO.N,/Analog Sensor Buffers/DB1B*%
X100936900Y-97231200D03*
%TD*%
D53*
%TO.P,D7,1,K*%
%TO.N,Net-(D7-Pad1)*%
X53576000Y-69469000D03*
%TO.P,D7,2,A*%
%TO.N,3V3_DC_MCU*%
X55626000Y-69469000D03*
%TD*%
D33*
%TO.P,U16,1*%
%TO.N,/Analog Sensor Buffers/A_OUT_A1*%
X103718500Y-87223600D03*
%TO.P,U16,2,-*%
X103718500Y-88493600D03*
%TO.P,U16,3,+*%
%TO.N,/Analog Sensor Buffers/DB1*%
X103718500Y-89763600D03*
%TO.P,U16,4,V+*%
%TO.N,3V3_DC_MCU*%
X103718500Y-91033600D03*
%TO.P,U16,5,+*%
%TO.N,/Analog Sensor Buffers/DB2*%
X103718500Y-92303600D03*
%TO.P,U16,6,-*%
%TO.N,/Analog Sensor Buffers/A_OUT_B1*%
X103718500Y-93573600D03*
%TO.P,U16,7*%
X103718500Y-94843600D03*
%TO.P,U16,8*%
%TO.N,/Analog Sensor Buffers/A_OUT_C1*%
X108668500Y-94843600D03*
%TO.P,U16,9,-*%
X108668500Y-93573600D03*
%TO.P,U16,10,+*%
%TO.N,/Analog Sensor Buffers/DB3*%
X108668500Y-92303600D03*
%TO.P,U16,11,V-*%
%TO.N,GNDD*%
X108668500Y-91033600D03*
%TO.P,U16,12,+*%
%TO.N,/Analog Sensor Buffers/DB4*%
X108668500Y-89763600D03*
%TO.P,U16,13,-*%
%TO.N,A_BUFFER_OUT_A*%
X108668500Y-88493600D03*
%TO.P,U16,14*%
X108668500Y-87223600D03*
%TD*%
D11*
%TO.P,J35,1,Pin_1*%
%TO.N,5V_DC_RPI*%
X129748200Y-119735600D03*
D12*
%TO.P,J35,2,Pin_2*%
X132288200Y-119735600D03*
%TO.P,J35,3,Pin_3*%
X134828200Y-119735600D03*
%TO.P,J35,4,Pin_4*%
X137368200Y-119735600D03*
%TO.P,J35,5,Pin_5*%
X139908200Y-119735600D03*
%TD*%
D20*
%TO.P,C2,1*%
%TO.N,5V_DC_SERVO*%
X179832000Y-67056000D03*
%TO.P,C2,2*%
%TO.N,GND_PB*%
X179832000Y-64981000D03*
%TD*%
D41*
%TO.P,J4,1,Pin_1*%
%TO.N,GNDPWR*%
X214731600Y-78079600D03*
D42*
%TO.P,J4,2,Pin_2*%
%TO.N,12V_DC_BUS*%
X214731600Y-80619600D03*
%TD*%
D33*
%TO.P,U11,1*%
%TO.N,/Output Logic/SUPERVISOR_DIRECTION*%
X128944600Y-41452800D03*
%TO.P,U11,2*%
%TO.N,Net-(U11-Pad13)*%
X128944600Y-42722800D03*
%TO.P,U11,3*%
%TO.N,Net-(U11-Pad3)*%
X128944600Y-43992800D03*
%TO.P,U11,4*%
%TO.N,Net-(U11-Pad4)*%
X128944600Y-45262800D03*
%TO.P,U11,5*%
%TO.N,/Output Logic/SUPERVISOR_STEP*%
X128944600Y-46532800D03*
%TO.P,U11,6*%
%TO.N,Net-(U11-Pad13)*%
X128944600Y-47802800D03*
%TO.P,U11,7,VSS*%
%TO.N,GNDD*%
X128944600Y-49072800D03*
%TO.P,U11,8*%
%TO.N,/Output Logic/SUPERVISOR_STEP_EN*%
X133894600Y-49072800D03*
%TO.P,U11,9*%
%TO.N,Net-(U11-Pad13)*%
X133894600Y-47802800D03*
%TO.P,U11,10*%
%TO.N,Net-(U11-Pad10)*%
X133894600Y-46532800D03*
%TO.P,U11,11*%
%TO.N,Net-(U11-Pad11)*%
X133894600Y-45262800D03*
%TO.P,U11,12*%
%TO.N,/Output Logic/SUPERVISOR_STEP_RST*%
X133894600Y-43992800D03*
%TO.P,U11,13*%
%TO.N,Net-(U11-Pad13)*%
X133894600Y-42722800D03*
%TO.P,U11,14,VDD*%
%TO.N,3V3_DC_MCU*%
X133894600Y-41452800D03*
%TD*%
D24*
%TO.P,R22,1*%
%TO.N,/Student MCU/SERVO_2*%
X58623200Y-66278000D03*
%TO.P,R22,2*%
%TO.N,/Supervisor MCU/STDNT_SRVO_RX_2*%
X58623200Y-64278000D03*
%TD*%
D70*
%TO.P,SW3,1,1*%
%TO.N,GNDD*%
X74773200Y-33306000D03*
X80573200Y-33306000D03*
%TO.P,SW3,2,2*%
%TO.N,/Supervisor MCU/MCU_RESET*%
X80573200Y-37306000D03*
X74773200Y-37306000D03*
%TD*%
D59*
%TO.P,EC12,1*%
%TO.N,5V_DC_LED*%
X175143200Y-27381200D03*
%TO.P,EC12,2*%
%TO.N,/Power Input & Distribution/PGND0*%
X180543200Y-27381200D03*
%TD*%
D14*
%TO.P,C22,1*%
%TO.N,3V3_DC_MCU*%
X93014800Y-37388800D03*
%TO.P,C22,2*%
%TO.N,GNDD*%
X93014800Y-39463800D03*
%TD*%
D90*
%TO.P,J5,1,VBUS1*%
%TO.N,5V_DC_RPI*%
X178584000Y-113643600D03*
D52*
%TO.P,J5,2,D1-*%
%TO.N,unconnected-(J5-Pad2)*%
X181084000Y-113643600D03*
%TO.P,J5,3,D1+*%
%TO.N,unconnected-(J5-Pad3)*%
X183084000Y-113643600D03*
%TO.P,J5,4,GND1*%
%TO.N,GNDPWR*%
X185584000Y-113643600D03*
%TO.P,J5,5,VBUS2*%
%TO.N,5V_DC_RPI*%
X178584000Y-116263600D03*
%TO.P,J5,6,D2-*%
%TO.N,unconnected-(J5-Pad6)*%
X181084000Y-116263600D03*
%TO.P,J5,7,D2+*%
%TO.N,unconnected-(J5-Pad7)*%
X183084000Y-116263600D03*
%TO.P,J5,8,GND2*%
%TO.N,GNDPWR*%
X185584000Y-116263600D03*
D21*
%TO.P,J5,9,Shield*%
X188654000Y-118973600D03*
X188654000Y-113293600D03*
X175514000Y-118973600D03*
X175514000Y-113293600D03*
%TD*%
D31*
%TO.P,J6,1,Pin_1*%
%TO.N,GNDPWR*%
X214376000Y-72847200D03*
D32*
%TO.P,J6,2,Pin_2*%
%TO.N,5V_DC_LED*%
X214376000Y-67847200D03*
%TD*%
D33*
%TO.P,U13,1*%
%TO.N,Net-(U10-Pad3)*%
X155919400Y-41706800D03*
%TO.P,U13,2*%
%TO.N,Net-(U11-Pad3)*%
X155919400Y-42976800D03*
%TO.P,U13,3*%
%TO.N,/Output Logic/DIRECTION_OUT*%
X155919400Y-44246800D03*
%TO.P,U13,4*%
%TO.N,Net-(U10-Pad4)*%
X155919400Y-45516800D03*
%TO.P,U13,5*%
%TO.N,Net-(U11-Pad4)*%
X155919400Y-46786800D03*
%TO.P,U13,6*%
%TO.N,/Output Logic/STEPP_STEP_OUT*%
X155919400Y-48056800D03*
%TO.P,U13,7,GND*%
%TO.N,GNDD*%
X155919400Y-49326800D03*
%TO.P,U13,8*%
%TO.N,/Output Logic/STEP_EN_OUT*%
X160869400Y-49326800D03*
%TO.P,U13,9*%
%TO.N,Net-(U10-Pad10)*%
X160869400Y-48056800D03*
%TO.P,U13,10*%
%TO.N,Net-(U11-Pad10)*%
X160869400Y-46786800D03*
%TO.P,U13,11*%
%TO.N,/Output Logic/STEP_RST_OUT*%
X160869400Y-45516800D03*
%TO.P,U13,12*%
%TO.N,Net-(U10-Pad11)*%
X160869400Y-44246800D03*
%TO.P,U13,13*%
%TO.N,Net-(U11-Pad11)*%
X160869400Y-42976800D03*
%TO.P,U13,14,VCC*%
%TO.N,3V3_DC_MCU*%
X160869400Y-41706800D03*
%TD*%
D23*
%TO.P,U15,1*%
%TO.N,/Analog Sensor Buffers/DB1*%
X121513600Y-107797600D03*
%TO.P,U15,2,-*%
X121513600Y-106527600D03*
%TO.P,U15,3,+*%
%TO.N,M_I_SENSE_1*%
X121513600Y-105257600D03*
%TO.P,U15,4,V+*%
%TO.N,3V3_DC_MCU*%
X121513600Y-103987600D03*
%TO.P,U15,5,+*%
%TO.N,M_I_SENSE_2*%
X121513600Y-102717600D03*
%TO.P,U15,6,-*%
%TO.N,/Analog Sensor Buffers/DB2*%
X121513600Y-101447600D03*
%TO.P,U15,7*%
X121513600Y-100177600D03*
%TO.P,U15,8*%
%TO.N,/Analog Sensor Buffers/DB3*%
X116563600Y-100177600D03*
%TO.P,U15,9,-*%
X116563600Y-101447600D03*
%TO.P,U15,10,+*%
%TO.N,/Analog Sensor Buffers/A_IN_C*%
X116563600Y-102717600D03*
%TO.P,U15,11,V-*%
%TO.N,GNDD*%
X116563600Y-103987600D03*
%TO.P,U15,12,+*%
%TO.N,A_BUFFER_IN*%
X116563600Y-105257600D03*
%TO.P,U15,13,-*%
%TO.N,/Analog Sensor Buffers/DB4*%
X116563600Y-106527600D03*
%TO.P,U15,14*%
X116563600Y-107797600D03*
%TD*%
D14*
%TO.P,C23,1*%
%TO.N,Net-(C23-Pad1)*%
X65735200Y-58826400D03*
%TO.P,C23,2*%
%TO.N,GNDD*%
X65735200Y-60901400D03*
%TD*%
D47*
%TO.P,H4,1*%
%TO.N,N/C*%
X99783600Y-44450000D03*
X97383600Y-42050000D03*
X99080656Y-42752944D03*
X97383600Y-46850000D03*
D48*
X97383600Y-44450000D03*
D47*
X99080656Y-46147056D03*
X95686544Y-42752944D03*
X95686544Y-46147056D03*
X94983600Y-44450000D03*
%TD*%
D30*
%TO.P,JP4,1,A*%
%TO.N,3V3_DC_MCU*%
X60807600Y-77266800D03*
D29*
%TO.P,JP4,2,C*%
%TO.N,Net-(C5-Pad1)*%
X60234069Y-77266800D03*
D28*
%TO.P,JP4,3,B*%
%TO.N,GNDD*%
X59662569Y-77266800D03*
%TD*%
D20*
%TO.P,C2A1,1*%
%TO.N,3V3_DC_MCU*%
X63347600Y-107637400D03*
%TO.P,C2A1,2*%
%TO.N,Net-(C2A1-Pad2)*%
X63347600Y-105562400D03*
%TD*%
D74*
%TO.P,J13,1,VBUS*%
%TO.N,Net-(D4-Pad4)*%
X64165200Y-29832400D03*
%TO.P,J13,2,D-*%
%TO.N,/Supervisor MCU/USB_N*%
X63365200Y-29832400D03*
%TO.P,J13,3,D+*%
%TO.N,/Supervisor MCU/USB_P*%
X62565200Y-29832400D03*
%TO.P,J13,4,ID*%
%TO.N,unconnected-(J13-Pad4)*%
X61765200Y-29832400D03*
%TO.P,J13,5,GND*%
%TO.N,GNDD*%
X60965200Y-29832400D03*
D75*
%TO.P,J13,6,Shield*%
%TO.N,Net-(C13-Pad1)*%
X58115200Y-29732400D03*
X67015200Y-24282400D03*
X58115200Y-24282400D03*
X67015200Y-29732400D03*
%TD*%
D17*
%TO.P,C27,1*%
%TO.N,3V3_DC_MCU*%
X158227800Y-52374800D03*
%TO.P,C27,2*%
%TO.N,GNDD*%
X156152800Y-52374800D03*
%TD*%
D20*
%TO.P,C15,1*%
%TO.N,Net-(C15-Pad1)*%
X64871600Y-82085000D03*
%TO.P,C15,2*%
%TO.N,GNDD*%
X64871600Y-80010000D03*
%TD*%
D16*
%TO.P,EC2,1*%
%TO.N,3V3_DC_MCU*%
X75438000Y-76301600D03*
%TO.P,EC2,2*%
%TO.N,GNDD*%
X75438000Y-79901600D03*
%TD*%
D80*
%TO.P,D2,1,K*%
%TO.N,USB_BUS*%
X58064400Y-109620400D03*
%TO.P,D2,2,A*%
%TO.N,Net-(D2-Pad2)*%
X58064400Y-112420400D03*
%TD*%
D91*
%TO.P,FB2,1*%
%TO.N,3V3_DC_MCU*%
X67919600Y-56402000D03*
%TO.P,FB2,2*%
%TO.N,Net-(C21-Pad2)*%
X67919600Y-54102000D03*
%TD*%
D14*
%TO.P,C14,1*%
%TO.N,Net-(C14-Pad1)*%
X58572400Y-79806800D03*
%TO.P,C14,2*%
%TO.N,GNDD*%
X58572400Y-81881800D03*
%TD*%
D11*
%TO.P,J12,1,Pin_1*%
%TO.N,Net-(J12-Pad1)*%
X85293200Y-25450800D03*
D12*
%TO.P,J12,2,Pin_2*%
%TO.N,Net-(J12-Pad2)*%
X85293200Y-27990800D03*
%TO.P,J12,3,Pin_3*%
%TO.N,Net-(J12-Pad3)*%
X85293200Y-30530800D03*
%TO.P,J12,4,Pin_4*%
%TO.N,Net-(J12-Pad4)*%
X85293200Y-33070800D03*
%TO.P,J12,5,Pin_5*%
%TO.N,Net-(J12-Pad5)*%
X85293200Y-35610800D03*
%TO.P,J12,6,Pin_6*%
%TO.N,Net-(J12-Pad6)*%
X85293200Y-38150800D03*
%TO.P,J12,7,Pin_7*%
%TO.N,SERVO_2*%
X85293200Y-40690800D03*
%TO.P,J12,8,Pin_8*%
%TO.N,MODE_2*%
X85293200Y-43230800D03*
%TD*%
D24*
%TO.P,R5,1*%
%TO.N,/Output Logic/PIXEL_DATA_OUT*%
X122625530Y-40420677D03*
%TO.P,R5,2*%
%TO.N,Net-(J2-Pad2)*%
X122625530Y-38420677D03*
%TD*%
D13*
%TO.P,R8,1*%
%TO.N,GNDD*%
X57318400Y-32156400D03*
%TO.P,R8,2*%
%TO.N,Net-(C13-Pad1)*%
X59318400Y-32156400D03*
%TD*%
D46*
%TO.P,R37,1*%
%TO.N,GNDD*%
X55499000Y-72771000D03*
%TO.P,R37,2*%
%TO.N,Net-(D7-Pad1)*%
X53499000Y-72771000D03*
%TD*%
D92*
%TO.P,A4,1,EN*%
%TO.N,/Output Logic/STEP_EN_OUT*%
X193802000Y-26568400D03*
D93*
%TO.P,A4,2,MODE_0*%
%TO.N,MODE_0*%
X193802000Y-29108400D03*
%TO.P,A4,3,MODE_1*%
%TO.N,MODE_1*%
X193802000Y-31648400D03*
%TO.P,A4,4,MODE_2*%
%TO.N,MODE_2*%
X193802000Y-34188400D03*
%TO.P,A4,5,~{RESET}*%
%TO.N,/Output Logic/STEP_RST_OUT*%
X193802000Y-36728400D03*
%TO.P,A4,6,~{SLEEP}*%
%TO.N,3V3_DC_MCU*%
X193802000Y-39268400D03*
%TO.P,A4,7,STEP*%
%TO.N,/Output Logic/STEPP_STEP_OUT*%
X193802000Y-41808400D03*
%TO.P,A4,8,DIR*%
%TO.N,/Output Logic/DIRECTION_OUT*%
X193802000Y-44348400D03*
%TO.P,A4,9,GND_D*%
%TO.N,GNDPWR*%
X207137000Y-44348400D03*
%TO.P,A4,10,FAULT*%
%TO.N,STPPR_FAULT*%
X207137000Y-41808400D03*
%TO.P,A4,11,2A*%
%TO.N,Net-(A4-Pad11)*%
X207137000Y-39268400D03*
%TO.P,A4,12,1A*%
%TO.N,Net-(A4-Pad12)*%
X207137000Y-36728400D03*
%TO.P,A4,13,1B*%
%TO.N,Net-(A4-Pad13)*%
X207137000Y-34188400D03*
%TO.P,A4,14,2B*%
%TO.N,Net-(A4-Pad14)*%
X207137000Y-31648400D03*
%TO.P,A4,15,GND_P*%
%TO.N,GNDPWR*%
X207137000Y-29108400D03*
%TO.P,A4,16,VMOT*%
%TO.N,12V_DC_BUS*%
X207137000Y-26568400D03*
%TD*%
D17*
%TO.P,C1,1*%
%TO.N,12V_DC_BUS*%
X186580600Y-63042800D03*
%TO.P,C1,2*%
%TO.N,GND_PB*%
X184505600Y-63042800D03*
%TD*%
D94*
%TO.P,JP9,1,A*%
%TO.N,GNDD*%
X52171600Y-46888400D03*
D95*
%TO.P,JP9,2,B*%
%TO.N,Net-(C1A1-Pad2)*%
X52171600Y-47396400D03*
%TD*%
D45*
%TO.P,C5,1*%
%TO.N,Net-(C5-Pad1)*%
X63152200Y-77419200D03*
%TO.P,C5,2*%
%TO.N,GNDD*%
X65227200Y-77419200D03*
%TD*%
D13*
%TO.P,R10,1*%
%TO.N,GNDD*%
X169291000Y-43383200D03*
%TO.P,R10,2*%
%TO.N,MODE_1*%
X171291000Y-43383200D03*
%TD*%
D14*
%TO.P,C36,1*%
%TO.N,Net-(C36-Pad1)*%
X59893200Y-56751400D03*
%TO.P,C36,2*%
%TO.N,GNDD*%
X59893200Y-58826400D03*
%TD*%
D96*
%TO.N,/Student MCU/PROG_TX*%
X68537670Y-94299700D03*
X78130400Y-92172199D03*
D97*
%TO.N,3V3_DC_MCU*%
X67056000Y-62992000D03*
X56054438Y-97268907D03*
X87884000Y-78943200D03*
X72898000Y-29565600D03*
X163322000Y-38658800D03*
X67157600Y-60198000D03*
D98*
X67564000Y-40944800D03*
D97*
X63195200Y-106699400D03*
D98*
X102108000Y-114096800D03*
X108407200Y-115316000D03*
D97*
X187909200Y-41859200D03*
X96824800Y-90220800D03*
X55903333Y-44579067D03*
X75285600Y-41503600D03*
X57099200Y-42367200D03*
D96*
%TO.N,/Student MCU/PROG_RX*%
X72927004Y-90273158D03*
%TO.N,/Student MCU/MCU_RESET*%
X71831200Y-107950000D03*
X86156800Y-115112800D03*
X88290400Y-115163600D03*
X79095600Y-110490000D03*
%TO.N,/Student MCU/SPARE_0*%
X66676365Y-109139547D03*
X60706000Y-89103200D03*
%TO.N,/Student MCU/SPARE_1*%
X62653751Y-88572730D03*
X71932800Y-95605600D03*
%TO.N,OE_B*%
X79959200Y-74777600D03*
X56184800Y-99618800D03*
X78536800Y-74218800D03*
X86918800Y-73507600D03*
%TO.N,/Student MCU/SPARE_2*%
X56095358Y-96114454D03*
%TO.N,OE_A*%
X80363041Y-76304159D03*
X78333600Y-76809600D03*
X57059524Y-100960600D03*
X60870111Y-75477089D03*
X97891600Y-83667600D03*
%TO.N,/Analog Sensor Buffers/A_OUT_C2*%
X76200000Y-98450400D03*
X80873600Y-98450400D03*
X82956400Y-112623600D03*
X110286800Y-107137200D03*
X56575631Y-95475282D03*
%TO.N,OE_IDX*%
X87121841Y-75285759D03*
X73843211Y-82823989D03*
X64373452Y-86380581D03*
X80721200Y-78994000D03*
X83616800Y-75946000D03*
%TO.N,LIMIT_1*%
X85478451Y-82923813D03*
X92608400Y-84023200D03*
X58841300Y-90626409D03*
%TO.N,/Output Logic/STUDENT_PIXEL_DATA*%
X74544814Y-83688814D03*
X72586080Y-83688814D03*
X142046590Y-67726190D03*
X80846134Y-81252534D03*
X146262989Y-63485100D03*
X88555927Y-79638456D03*
X56036644Y-92124221D03*
X84837934Y-80009808D03*
%TO.N,STU_STP_FLT*%
X77216000Y-74523600D03*
X87172800Y-74269600D03*
X80568800Y-75488800D03*
X56157557Y-90897752D03*
%TO.N,/Output Logic/STUDENT_STEP*%
X85381951Y-81878700D03*
X75102389Y-85363989D03*
X80975200Y-83058000D03*
X68884800Y-85953600D03*
X57797258Y-92067762D03*
X89132805Y-80192005D03*
%TO.N,/Analog Sensor Buffers/A_OUT_B2*%
X84988400Y-89916000D03*
X56872629Y-94732991D03*
X97891600Y-104343200D03*
%TO.N,/Student MCU/DC_MOTOR_DIR2*%
X59978800Y-68868800D03*
X58515489Y-73095089D03*
%TO.N,/Analog Sensor Buffers/A_OUT_A2*%
X62484000Y-89509600D03*
X75234800Y-86817200D03*
X98770100Y-95836367D03*
%TO.N,/Student MCU/LATCH*%
X89255600Y-95859600D03*
%TO.N,/Student MCU/SERVO_1*%
X51206400Y-104343200D03*
%TO.N,/Output Logic/STUDENT_MOTOR_PWM*%
X139741905Y-55138980D03*
%TO.N,/Student MCU/MOSI*%
X89204800Y-97129600D03*
%TO.N,/Student MCU/DC_MOTOR_DIR1*%
X61719567Y-68806500D03*
%TO.N,/Student MCU/SCK*%
X62155257Y-106242610D03*
X62164987Y-100625062D03*
X89103200Y-98196400D03*
%TO.N,/Supervisor MCU/PROG_TX*%
X56235600Y-46228000D03*
%TO.N,/Supervisor MCU/PROG_RX*%
X57173083Y-46317479D03*
%TO.N,/Supervisor MCU/MCU_RESET*%
X79705200Y-50393600D03*
X77283077Y-58352923D03*
X76568984Y-37437116D03*
X79197200Y-38455600D03*
%TO.N,/Supervisor MCU/STDNT_DC_M_DIR_2*%
X64359374Y-63176611D03*
X65313900Y-52745300D03*
%TO.N,/Supervisor MCU/STDNT_DC_M_DIR_1*%
X65684400Y-64211200D03*
X60835316Y-50652961D03*
X52984400Y-52273200D03*
X53315086Y-42353953D03*
%TO.N,/Digital Sensor Buffers/D_OUT_E1*%
X88560550Y-56067050D03*
X76123080Y-54331320D03*
X68681600Y-50444400D03*
X66598800Y-40589200D03*
%TO.N,/Supervisor MCU/STDNT_SRVO_RX_1*%
X51511200Y-62280800D03*
X60328267Y-37165730D03*
%TO.N,/Digital Sensor Buffers/D_OUT_C1*%
X66329898Y-39836275D03*
X94132400Y-66954400D03*
%TO.N,/Analog Sensor Buffers/A_OUT_C1*%
X61417200Y-36423600D03*
X71678800Y-42621200D03*
X107101300Y-93229069D03*
%TO.N,/Digital Sensor Buffers/D_OUT_D1*%
X90068400Y-56642000D03*
X68478400Y-45770800D03*
%TO.N,/Digital Sensor Buffers/D_OUT_A1*%
X53866489Y-49257511D03*
X66891040Y-49123821D03*
X68150266Y-58396666D03*
X89763600Y-66852800D03*
X69748400Y-64922400D03*
%TO.N,/Output Logic/SUPERVISOR_PIXEL_DATA*%
X78704101Y-45836501D03*
X141181264Y-52315936D03*
X86867647Y-46174455D03*
X145542000Y-57607200D03*
X137210800Y-48107600D03*
%TO.N,/Digital Sensor Buffers/D_OUT_F1*%
X67305022Y-48439845D03*
X56083200Y-51511200D03*
X90322400Y-58369200D03*
%TO.N,/Output Logic/SUPERVISOR_STEP*%
X127116500Y-46370611D03*
X86980500Y-45382957D03*
X67859011Y-47863389D03*
X79854154Y-44109300D03*
%TO.N,/Analog Sensor Buffers/A_OUT_B1*%
X80728763Y-44100731D03*
X68943255Y-44246830D03*
X105831590Y-93077285D03*
%TO.N,/Output Logic/MOTOR_DIR_B*%
X69102900Y-46786800D03*
X146507200Y-39928800D03*
%TO.N,/Analog Sensor Buffers/A_OUT_A1*%
X69507370Y-65845638D03*
X101549200Y-87985600D03*
X61628879Y-50750239D03*
%TO.N,/Supervisor MCU/LATCH*%
X97355641Y-35994359D03*
X67716400Y-38557200D03*
X99364800Y-35356800D03*
%TO.N,/Output Logic/SUPERVISOR_MOTOR_PWM*%
X64719200Y-35102800D03*
X56794400Y-35864800D03*
X145455819Y-48397500D03*
X59253429Y-41412023D03*
%TO.N,/Supervisor MCU/MOSI*%
X61925200Y-39674800D03*
X87071200Y-29260800D03*
X65798500Y-31543377D03*
%TO.N,/Output Logic/MOTOR_DIR_A*%
X142577070Y-48397500D03*
X67665600Y-37693600D03*
X71924678Y-32688525D03*
%TO.N,/Supervisor MCU/SCK*%
X61315121Y-38917615D03*
%TO.N,/DC Motor Controller/IN_1*%
X143510000Y-45821600D03*
%TO.N,M_I_SENSE_1*%
X123088400Y-105257600D03*
%TO.N,M_I_SENSE_2*%
X123190000Y-102768400D03*
X136804400Y-78841600D03*
X133223000Y-82118200D03*
%TO.N,/Output Logic/STEP_EN_OUT*%
X163437064Y-46422854D03*
%TO.N,MODE_0*%
X81889600Y-39725600D03*
X180136800Y-35255200D03*
X172262800Y-40944800D03*
X74602516Y-39828854D03*
X65521340Y-39494193D03*
%TO.N,MODE_1*%
X179933600Y-37795200D03*
X71831200Y-37947600D03*
X65118288Y-38803719D03*
X172339532Y-42250700D03*
%TO.N,MODE_2*%
X80518000Y-24942800D03*
X83642200Y-28067000D03*
X180340000Y-40335200D03*
X172720000Y-45415200D03*
X183946800Y-39776400D03*
X165445811Y-45253011D03*
X64322048Y-38927700D03*
%TO.N,/Output Logic/STEP_RST_OUT*%
X168351200Y-48260000D03*
%TO.N,/Output Logic/STEPP_STEP_OUT*%
X162661625Y-53690557D03*
%TO.N,/Output Logic/DIRECTION_OUT*%
X157937200Y-42875200D03*
%TO.N,STPPR_FAULT*%
X93472000Y-49631600D03*
X167992323Y-48974431D03*
X164010359Y-47627559D03*
%TO.N,GNDPWR*%
X217169750Y-109473750D03*
X154330400Y-95504000D03*
X148691600Y-116636800D03*
X177665279Y-94521121D03*
X185451689Y-93084711D03*
X172585279Y-94521121D03*
X175125279Y-94521121D03*
X127747289Y-103341911D03*
X191465200Y-111048800D03*
X189064900Y-92646500D03*
X160223200Y-97586800D03*
X183040121Y-94241721D03*
X162788600Y-97155000D03*
X155829000Y-97002600D03*
X157886400Y-97586800D03*
X162712400Y-110337600D03*
X211277200Y-103225600D03*
X217415111Y-105063289D03*
X215823550Y-110819950D03*
X152679400Y-93853000D03*
X184759600Y-110185200D03*
X127747289Y-99735111D03*
X127747289Y-106643911D03*
X217415111Y-107450889D03*
X128473200Y-112776000D03*
X181864000Y-110185200D03*
X209518000Y-103225600D03*
X179476400Y-110185200D03*
X143357600Y-116636800D03*
X186397200Y-111036800D03*
X168013279Y-94521121D03*
X162712400Y-112776000D03*
X190334900Y-91376500D03*
X213563200Y-103225600D03*
X208975200Y-103768400D03*
X166082879Y-94521121D03*
X216077800Y-103505000D03*
X176784000Y-110185200D03*
X152501600Y-91490800D03*
D98*
X188569600Y-27381200D03*
D96*
X214197950Y-112445550D03*
D98*
X203758800Y-86410800D03*
D96*
X127747289Y-110149111D03*
X146659600Y-116636800D03*
X164414200Y-95529400D03*
X180205279Y-94521121D03*
X170045279Y-94521121D03*
%TO.N,Net-(C3-Pad1)*%
X67106800Y-116179600D03*
X67513200Y-118922800D03*
%TO.N,Net-(C11-Pad2)*%
X56312340Y-100676135D03*
X56018629Y-89648751D03*
X72085200Y-101041200D03*
%TO.N,/Supervisor MCU/HSE_IN*%
X65532000Y-54051200D03*
X62890400Y-52222400D03*
D98*
%TO.N,USB_BUS*%
X66090800Y-34899600D03*
X57658000Y-108254800D03*
D96*
%TO.N,/Student MCU/USB_P*%
X67614800Y-96469200D03*
X63855600Y-110236000D03*
X63794692Y-113055281D03*
%TO.N,/Student MCU/USB_N*%
X63246000Y-109372400D03*
X66598800Y-96621600D03*
%TO.N,/Supervisor MCU/USB_P*%
X60581624Y-31376042D03*
X60684119Y-34369719D03*
%TO.N,Net-(J2-Pad2)*%
X133987810Y-33042590D03*
%TO.N,Net-(J8-Pad1)*%
X79298800Y-103682800D03*
X57840739Y-94655743D03*
%TO.N,Net-(J8-Pad2)*%
X61246875Y-99711803D03*
X76098400Y-101193600D03*
X80577689Y-103470711D03*
%TO.N,Net-(J8-Pad3)*%
X67667142Y-103035587D03*
%TO.N,Net-(J8-Pad4)*%
X76200000Y-91490800D03*
%TO.N,Net-(J8-Pad5)*%
X66649600Y-90982800D03*
X72823866Y-94667866D03*
%TO.N,Net-(J8-Pad6)*%
X71983600Y-86258400D03*
X64707085Y-88880893D03*
X66294000Y-88798400D03*
%TO.N,Net-(J8-Pad7)*%
X63485701Y-88510523D03*
X72485777Y-93040200D03*
%TO.N,/Student MCU/MODE_2*%
X60553600Y-100634800D03*
%TO.N,/Student MCU/SPARE_3*%
X59844415Y-101345366D03*
%TO.N,/Output Logic/STUDENT_MOTOR_EN*%
X130098800Y-61772800D03*
X107391200Y-85953600D03*
%TO.N,/Output Logic/STUDENT_DIRECTION*%
X93789148Y-99224748D03*
X130251200Y-66598800D03*
%TO.N,/Output Logic/STUDENT_STEP_EN*%
X133908800Y-76301600D03*
X93965489Y-100208514D03*
%TO.N,/Output Logic/STUDENT_STEP_RST*%
X94132400Y-100990400D03*
X135193700Y-70104000D03*
%TO.N,Net-(J12-Pad1)*%
X68646231Y-44989111D03*
X78605153Y-44094401D03*
%TO.N,Net-(J12-Pad2)*%
X62890400Y-38963600D03*
%TO.N,Net-(J12-Pad3)*%
X57759600Y-41808400D03*
%TO.N,Net-(J12-Pad4)*%
X68224400Y-42418000D03*
X81838800Y-38912800D03*
X57320862Y-47103205D03*
%TO.N,Net-(J12-Pad5)*%
X58414822Y-48075128D03*
%TO.N,Net-(J12-Pad6)*%
X58928000Y-51003200D03*
%TO.N,SERVO_2*%
X109971746Y-36535454D03*
X60050191Y-50502019D03*
%TO.N,/Output Logic/SUPERVISOR_MOTOR_EN*%
X99669600Y-31089600D03*
X142494000Y-40436800D03*
%TO.N,/Output Logic/MCU_MOTOR_SELECT*%
X140411200Y-61518800D03*
X127489380Y-58467125D03*
X139085980Y-60060500D03*
X140309600Y-56642000D03*
%TO.N,/Output Logic/MCU_STEP_SELECT*%
X134010400Y-67665600D03*
X94076540Y-34866874D03*
X134670800Y-72745600D03*
X131269539Y-56760839D03*
%TO.N,/Output Logic/MCU_PIXEL_SELECT*%
X133248400Y-55880000D03*
X139852400Y-59436000D03*
X145338800Y-61468000D03*
%TO.N,/Output Logic/SUPERVISOR_DIRECTION*%
X126364640Y-43796811D03*
%TO.N,/Output Logic/SUPERVISOR_STEP_EN*%
X130944497Y-43451052D03*
%TO.N,/Output Logic/SUPERVISOR_STEP_RST*%
X132225450Y-42722800D03*
%TO.N,/Digital Sensor Buffers/D_IN_A*%
X142138400Y-30073600D03*
X114655600Y-37548410D03*
X119744280Y-35162280D03*
%TO.N,/Digital Sensor Buffers/D_IN_B*%
X119276117Y-37548410D03*
X134356325Y-32333083D03*
X116738400Y-41656000D03*
%TO.N,/Digital Sensor Buffers/D_IN_E*%
X111455200Y-37548410D03*
X113030000Y-33223200D03*
%TO.N,/Digital Sensor Buffers/D_IN_D*%
X111810800Y-38912800D03*
X115316000Y-33934400D03*
%TO.N,/Digital Sensor Buffers/D_IN_C*%
X119227600Y-42062400D03*
X121005600Y-34239200D03*
%TO.N,Net-(J28-Pad1)*%
X54965600Y-76301600D03*
%TO.N,A_BUFFER_IN*%
X114046000Y-105257600D03*
%TO.N,Net-(C14-Pad1)*%
X60045600Y-83261200D03*
X59740800Y-79959200D03*
%TO.N,/Output Logic/PIXEL_DATA_OUT*%
X156768800Y-64109600D03*
X124714000Y-59283600D03*
%TO.N,/Student MCU/SERVO_2*%
X50966618Y-100347004D03*
X56134000Y-102006400D03*
%TO.N,/Supervisor MCU/STDNT_SRVO_RX_2*%
X57919476Y-63039767D03*
X65938400Y-52120800D03*
%TO.N,LIMIT_2*%
X96520000Y-85852000D03*
X66136607Y-102388229D03*
%TO.N,/Digital Sensor Buffers/D_OUT_B1*%
X58559103Y-41808400D03*
X92760800Y-63449200D03*
%TO.N,Net-(U8-Pad2)*%
X149250400Y-51460400D03*
X130251200Y-56896000D03*
%TO.N,Net-(U12-Pad13)*%
X135585200Y-56896000D03*
X145389600Y-56235600D03*
%TO.N,Net-(U14-Pad3)*%
X147929600Y-43840400D03*
X152760020Y-52034100D03*
X143306800Y-44551600D03*
X151282400Y-56438800D03*
%TO.N,Net-(U11-Pad3)*%
X127304800Y-44043600D03*
X154477084Y-43197147D03*
%TO.N,Net-(U10-Pad3)*%
X154340189Y-51450611D03*
X139141200Y-67106800D03*
%TO.N,Net-(U10-Pad4)*%
X161038385Y-52677215D03*
X138836400Y-68224400D03*
%TO.N,Net-(U10-Pad10)*%
X162617692Y-52591011D03*
X139496800Y-71424800D03*
%TO.N,Net-(U10-Pad11)*%
X138938000Y-69951600D03*
X161834440Y-52751386D03*
%TO.N,Net-(U11-Pad4)*%
X154482800Y-47091600D03*
X127304800Y-45466000D03*
%TO.N,Net-(U11-Pad10)*%
X135839200Y-46685200D03*
X159410400Y-46634400D03*
%TO.N,Net-(U11-Pad11)*%
X158902400Y-43499700D03*
X135991600Y-45161200D03*
%TO.N,Net-(U12-Pad3)*%
X143372501Y-56982699D03*
X150291800Y-56261000D03*
%TO.N,Net-(U12-Pad4)*%
X143713200Y-58724800D03*
X151348120Y-58282520D03*
%TO.N,/Analog Sensor Buffers/DB1*%
X119786400Y-106781600D03*
X104952800Y-90322400D03*
X105003600Y-99314000D03*
%TO.N,/Analog Sensor Buffers/DB2*%
X104952800Y-102362000D03*
X101955600Y-102412800D03*
X102006400Y-92659200D03*
X119583200Y-100888800D03*
%TO.N,/Analog Sensor Buffers/A_IN_C*%
X114858800Y-103174800D03*
X111302800Y-116128800D03*
%TO.N,Net-(U20-Pad2)*%
X91795600Y-80518000D03*
X93451826Y-55056152D03*
X87680800Y-65684400D03*
%TO.N,Net-(U20-Pad4)*%
X90728800Y-66751200D03*
X95453200Y-57912000D03*
X95199200Y-77622400D03*
X92354400Y-62585600D03*
%TO.N,Net-(U20-Pad6)*%
X92151200Y-68427600D03*
X97637600Y-77578811D03*
%TO.N,Net-(U20-Pad8)*%
X98958400Y-72694800D03*
X98602800Y-52933600D03*
X95199200Y-61722000D03*
%TO.N,Net-(U20-Pad10)*%
X93573600Y-62128400D03*
X96215200Y-52832000D03*
X95961200Y-72644000D03*
%TO.N,Net-(U20-Pad12)*%
X89073399Y-58220385D03*
X93776800Y-52832000D03*
X93934484Y-74985179D03*
%TO.N,Net-(C2A1-Pad2)*%
X66690191Y-91893805D03*
X68935600Y-96062800D03*
%TO.N,Net-(C15-Pad1)*%
X60784902Y-86268619D03*
X62484000Y-86120900D03*
%TO.N,GNDD*%
X115366800Y-104394000D03*
X65328800Y-109372400D03*
X56540400Y-31089600D03*
X58944159Y-37433383D03*
X64719200Y-60045600D03*
X121615200Y-109880400D03*
X78384400Y-71983600D03*
X121869200Y-113131600D03*
X139852400Y-43434000D03*
X98145600Y-91744800D03*
X58420000Y-78333600D03*
D98*
X112877600Y-119329200D03*
D96*
X134315200Y-51816000D03*
X67374876Y-95659061D03*
X81889600Y-61671200D03*
X87172800Y-52730400D03*
X167741600Y-39928800D03*
X110439200Y-101346000D03*
X64973200Y-113538000D03*
X157327600Y-48666400D03*
X125323600Y-54813200D03*
D98*
X101142800Y-116433600D03*
D96*
X121158000Y-112115600D03*
X92913200Y-119227600D03*
X61620400Y-83159600D03*
X76047600Y-89458800D03*
X52273200Y-49936400D03*
X57099200Y-44348400D03*
X56642000Y-72339200D03*
X134061200Y-63601600D03*
X149098000Y-47752000D03*
X76203400Y-46129800D03*
X131216400Y-75285600D03*
X73304400Y-99060000D03*
X161290000Y-77012800D03*
X59944000Y-29921200D03*
X98856800Y-24942800D03*
X143916400Y-53136800D03*
X77742800Y-33306000D03*
X52273200Y-46380400D03*
X67868800Y-109423200D03*
X98196400Y-99517200D03*
X65862118Y-49861255D03*
X65227200Y-78790800D03*
X63173000Y-55699000D03*
X92456000Y-103936800D03*
X101498400Y-79349600D03*
X89306400Y-77114400D03*
X120853200Y-110794800D03*
X136855200Y-56591200D03*
X140665200Y-62839600D03*
X107340400Y-90932000D03*
X156413200Y-54152800D03*
X67919600Y-101244400D03*
X66192400Y-83464400D03*
X87274400Y-118872000D03*
D98*
X104140000Y-108508800D03*
X115163600Y-114096800D03*
D96*
X65999543Y-41590724D03*
X97028000Y-65684400D03*
X68072000Y-83769200D03*
X59698564Y-107027036D03*
X85140800Y-64668400D03*
X94030800Y-38354000D03*
X122580400Y-109016800D03*
X100330000Y-57099200D03*
X56281761Y-98567908D03*
X155570586Y-60218986D03*
X157734000Y-39522400D03*
X129540000Y-51968400D03*
D98*
%TO.N,GND_PB*%
X183235600Y-62585600D03*
X180238400Y-63601600D03*
%TD*%
D99*
%TO.N,/Student MCU/PROG_TX*%
X78130400Y-88798400D02*
X78130400Y-92172199D01*
X83362800Y-83566000D02*
X78130400Y-88798400D01*
X68138234Y-93900264D02*
X68537670Y-94299700D01*
X66856991Y-93900264D02*
X68138234Y-93900264D01*
D100*
%TO.N,3V3_DC_MCU*%
X68188633Y-108773699D02*
X68619901Y-109204967D01*
X87426800Y-40518434D02*
X87426800Y-44902395D01*
X92608400Y-74577627D02*
X93925973Y-75895200D01*
X144272000Y-31038800D02*
X145948400Y-29362400D01*
X62230000Y-70866000D02*
X59690000Y-70866000D01*
X59690000Y-70866000D02*
X57023000Y-70866000D01*
X80112400Y-71069200D02*
X78762889Y-69719689D01*
X57708800Y-97605200D02*
X56390731Y-97605200D01*
X137312400Y-63754000D02*
X144068800Y-63754000D01*
X79806800Y-80670400D02*
X75438000Y-76301600D01*
X109685800Y-115326400D02*
X108417600Y-115326400D01*
X98853857Y-47999511D02*
X103604827Y-43248541D01*
X68681600Y-95453200D02*
X68224400Y-95453200D01*
X73120080Y-42246720D02*
X73120080Y-49361929D01*
X128117600Y-31038800D02*
X144272000Y-31038800D01*
X80289400Y-82727800D02*
X80289400Y-83083400D01*
X162864800Y-39116000D02*
X163322000Y-38658800D01*
X86258400Y-61671200D02*
X86939400Y-61671200D01*
X77992400Y-102906400D02*
X77368400Y-103530400D01*
X67229050Y-108773699D02*
X68188633Y-108773699D01*
X134612200Y-40735200D02*
X133894600Y-41452800D01*
X87517148Y-46442452D02*
X87517148Y-46443488D01*
X123002800Y-36153600D02*
X128117600Y-31038800D01*
X92186089Y-47999511D02*
X98853857Y-47999511D01*
X99923600Y-104152551D02*
X99923920Y-104152871D01*
X53448833Y-44465033D02*
X55789299Y-44465033D01*
X59443500Y-52810500D02*
X60264000Y-51990000D01*
X133245080Y-40803280D02*
X124655982Y-40803280D01*
X66583980Y-61838420D02*
X63565620Y-61838420D01*
X59963345Y-48716547D02*
X59963344Y-48574914D01*
X76454000Y-109575600D02*
X77368400Y-108661200D01*
X68619901Y-109204967D02*
X68619901Y-110412401D01*
X52516301Y-41768499D02*
X52812880Y-41471920D01*
X61798200Y-75158600D02*
X61798200Y-76276200D01*
X87638329Y-45220329D02*
X87655400Y-45237400D01*
X77754720Y-49713120D02*
X79451200Y-51409600D01*
X67310000Y-70866000D02*
X67310000Y-81306949D01*
X59690000Y-73050400D02*
X61798200Y-75158600D01*
X99485280Y-111626480D02*
X100634800Y-112776000D01*
X112030000Y-34594800D02*
X113588800Y-36153600D01*
X90373200Y-74363451D02*
X87884000Y-76852651D01*
X147356600Y-54660800D02*
X146899400Y-55118000D01*
X58202307Y-97605200D02*
X57708800Y-97605200D01*
X73812400Y-71069200D02*
X80112400Y-71069200D01*
X64692159Y-91066189D02*
X65101078Y-90657272D01*
X78762889Y-69719689D02*
X78762889Y-64432862D01*
X99485280Y-107877671D02*
X99485280Y-111626480D01*
X80492600Y-82524600D02*
X80289400Y-82727800D01*
X109318054Y-34594800D02*
X112030000Y-34594800D01*
X63520400Y-87223600D02*
X65328800Y-87223600D01*
X127711200Y-63957200D02*
X132787052Y-63957200D01*
X64262000Y-85586022D02*
X63996022Y-85852000D01*
X86258400Y-55524400D02*
X86258400Y-61671200D01*
X123323859Y-39471157D02*
X120091643Y-39471157D01*
X53271920Y-39571920D02*
X52222400Y-38522400D01*
X124655982Y-40803280D02*
X123323859Y-39471157D01*
X134612200Y-38862000D02*
X134612200Y-40735200D01*
X100974400Y-101041200D02*
X99923600Y-102092000D01*
X161072600Y-39116000D02*
X161072600Y-41503600D01*
X101955600Y-114096800D02*
X100634800Y-112776000D01*
X140143000Y-41641800D02*
X140563600Y-42062400D01*
X57362173Y-45218468D02*
X56542734Y-45218468D01*
X95707200Y-93319600D02*
X95707200Y-91795600D01*
X63957200Y-85852000D02*
X63996022Y-85852000D01*
X74218800Y-109575600D02*
X76454000Y-109575600D01*
X57404000Y-40589200D02*
X57099200Y-40894000D01*
X73993600Y-92579600D02*
X71315189Y-95258011D01*
X97332800Y-89712800D02*
X100046700Y-89712800D01*
X109016800Y-108813600D02*
X117229027Y-108813600D01*
X77368400Y-108661200D02*
X77368400Y-103530400D01*
X188772800Y-40335200D02*
X188772800Y-37795200D01*
X113588800Y-40404800D02*
X118192800Y-40404800D01*
X66856991Y-94872536D02*
X67643736Y-94872536D01*
X57099200Y-40894000D02*
X57099200Y-42367200D01*
X52812880Y-41471920D02*
X52920729Y-41471920D01*
X68619901Y-110412401D02*
X70096000Y-111888500D01*
X66033751Y-107578400D02*
X67229050Y-108773699D01*
X119634000Y-39928800D02*
X118706400Y-39928800D01*
X64262000Y-84354949D02*
X64262000Y-85586022D01*
X95707200Y-97028000D02*
X95707200Y-95758000D01*
X53271920Y-41120729D02*
X53271920Y-39571920D01*
X67310000Y-81306949D02*
X64262000Y-84354949D01*
X67157600Y-61264800D02*
X66583980Y-61838420D01*
X146899400Y-55118000D02*
X145135600Y-55118000D01*
X58166000Y-50513892D02*
X59963345Y-48716547D01*
X80492600Y-82524600D02*
X80162400Y-82194400D01*
X68876789Y-95258011D02*
X68681600Y-95453200D01*
X60967720Y-59997571D02*
X60677820Y-60287471D01*
X63520400Y-86288800D02*
X63957200Y-85852000D01*
X126839880Y-62034520D02*
X126839880Y-57005320D01*
X119583200Y-103987600D02*
X121513600Y-103987600D01*
X155397200Y-37795200D02*
X159969200Y-37795200D01*
X87884000Y-76852651D02*
X87884000Y-78943200D01*
X77992400Y-95896000D02*
X74676000Y-92579600D01*
X80289400Y-82524600D02*
X80289400Y-82219800D01*
X73471271Y-49713120D02*
X77754720Y-49713120D01*
X120091643Y-39471157D02*
X119634000Y-39928800D01*
X87655400Y-46304200D02*
X87517148Y-46442452D01*
X101367500Y-91033600D02*
X103718500Y-91033600D01*
X74676000Y-92579600D02*
X73993600Y-92579600D01*
X71315189Y-95258011D02*
X68876789Y-95258011D01*
X161340800Y-57812273D02*
X158341727Y-54813200D01*
X82143600Y-80873600D02*
X83210400Y-80873600D01*
X79614231Y-63581520D02*
X84348080Y-63581520D01*
X80162400Y-82194400D02*
X80162400Y-82092800D01*
X67157600Y-58470800D02*
X67157600Y-60198000D01*
X64692159Y-91115348D02*
X64692159Y-91066189D01*
X161072600Y-41503600D02*
X160869400Y-41706800D01*
X79578200Y-84251800D02*
X80289400Y-83540600D01*
X118211600Y-40423600D02*
X117162080Y-39374080D01*
X161072600Y-39116000D02*
X162864800Y-39116000D01*
X76962000Y-92151200D02*
X76962000Y-86868000D01*
X61374651Y-62230000D02*
X62738000Y-62230000D01*
X92391000Y-73948800D02*
X92608400Y-74166200D01*
X76533600Y-92579600D02*
X76962000Y-92151200D01*
X63347600Y-107637400D02*
X65574600Y-107637400D01*
X145135600Y-55118000D02*
X144373600Y-55880000D01*
X78762889Y-64432862D02*
X79614231Y-63581520D01*
X117162080Y-37203120D02*
X118211600Y-36153600D01*
X88504745Y-39440489D02*
X87426800Y-40518434D01*
X73023689Y-41273689D02*
X73023689Y-29691289D01*
X67919600Y-57708800D02*
X67157600Y-58470800D01*
X99923600Y-102092000D02*
X99923600Y-104152551D01*
X88595200Y-51590400D02*
X91527400Y-51590400D01*
X133894600Y-41452800D02*
X133245080Y-40803280D01*
X65349549Y-43159251D02*
X67564000Y-40944800D01*
X52516301Y-42843099D02*
X52516301Y-41768499D01*
X60482051Y-48056207D02*
X60482051Y-48020610D01*
X158445200Y-65836800D02*
X161340800Y-62941200D01*
X80289400Y-82524600D02*
X80492600Y-82524600D01*
X73812400Y-74676000D02*
X75438000Y-76301600D01*
X77992400Y-95896000D02*
X77992400Y-102906400D01*
X60677820Y-61533169D02*
X61374651Y-62230000D01*
X129235200Y-54610000D02*
X129235200Y-53506600D01*
X188772800Y-35255200D02*
X188772800Y-37795200D01*
X103604827Y-43248541D02*
X103604827Y-40308027D01*
X117162080Y-39374080D02*
X117162080Y-37203120D01*
X73120080Y-49361929D02*
X73471271Y-49713120D01*
X103644400Y-101041200D02*
X105003600Y-101041200D01*
X70096000Y-111888500D02*
X71905900Y-111888500D01*
X65101078Y-90657272D02*
X65101078Y-89405434D01*
X95707200Y-95758000D02*
X95707200Y-93319600D01*
X161072600Y-38898600D02*
X159969200Y-37795200D01*
X88595200Y-51590400D02*
X92186089Y-47999511D01*
X67643736Y-94872536D02*
X68224400Y-95453200D01*
X99923920Y-104152871D02*
X99923920Y-107439031D01*
X73812400Y-71069200D02*
X73812400Y-74676000D01*
X79806800Y-81737200D02*
X79806800Y-80670400D01*
X88595200Y-51590400D02*
X87601600Y-50596800D01*
X62738000Y-62230000D02*
X63144400Y-61823600D01*
X100046700Y-89712800D02*
X101367500Y-91033600D01*
X80162400Y-82092800D02*
X79806800Y-81737200D01*
X68224400Y-95453200D02*
X68264301Y-95493101D01*
X126839880Y-57005320D02*
X129235200Y-54610000D01*
X59240520Y-55471329D02*
X59240520Y-53885020D01*
X58166000Y-52810500D02*
X58166000Y-50513892D01*
X59963344Y-48574914D02*
X60482051Y-48056207D01*
X73812400Y-71069200D02*
X70053200Y-71069200D01*
X65101078Y-89405434D02*
X65481200Y-89025312D01*
X106070400Y-102108000D02*
X106070400Y-105867200D01*
X92622600Y-35179000D02*
X92622600Y-33909000D01*
X86939400Y-61671200D02*
X88417400Y-60193200D01*
X95707200Y-91795600D02*
X96824800Y-90678000D01*
X87135644Y-46823956D02*
X83362800Y-50596800D01*
X157930300Y-54813200D02*
X157930300Y-52672300D01*
X93014800Y-37388800D02*
X90963111Y-39440489D01*
X118668800Y-104902000D02*
X119583200Y-103987600D01*
X81330800Y-50596800D02*
X86258400Y-55524400D01*
X60677820Y-60287471D02*
X60677820Y-61533169D01*
X73812400Y-71069200D02*
X67056000Y-64312800D01*
X187909200Y-41198800D02*
X188772800Y-40335200D01*
X124045880Y-64828520D02*
X126839880Y-64828520D01*
X61798200Y-76276200D02*
X60833580Y-77240820D01*
X136993400Y-66344800D02*
X136993400Y-64073000D01*
X144373600Y-63246000D02*
X143865600Y-63754000D01*
X57023000Y-70866000D02*
X55626000Y-69469000D01*
X124045880Y-64828520D02*
X126839880Y-62034520D01*
X69850000Y-70866000D02*
X62230000Y-70866000D01*
X147356600Y-52679600D02*
X147356600Y-54660800D01*
X59240520Y-53885020D02*
X58166000Y-52810500D01*
X52222400Y-33181523D02*
X54991000Y-30412923D01*
X90963111Y-39440489D02*
X88504745Y-39440489D01*
X137871200Y-41641800D02*
X140143000Y-41641800D01*
X52920729Y-41471920D02*
X53271920Y-41120729D01*
X145948400Y-29362400D02*
X145948400Y-27025600D01*
X192735200Y-40335200D02*
X193802000Y-39268400D01*
X65343410Y-43159251D02*
X65349549Y-43159251D01*
X96824800Y-90220800D02*
X97332800Y-89712800D01*
X58007177Y-44573464D02*
X57362173Y-45218468D01*
X60967720Y-58240571D02*
X60967720Y-59997571D01*
X64382117Y-91425390D02*
X64692159Y-91115348D01*
X80289400Y-83083400D02*
X80289400Y-82524600D01*
X136237880Y-62679480D02*
X137312400Y-63754000D01*
X105003600Y-101041200D02*
X106070400Y-102108000D01*
X108417600Y-115326400D02*
X108407200Y-115316000D01*
X58166000Y-52810500D02*
X59443500Y-52810500D01*
X73863200Y-41503600D02*
X75285600Y-41503600D01*
X68264301Y-97423799D02*
X67767200Y-97920900D01*
X144373600Y-55880000D02*
X144373600Y-63246000D01*
X93925973Y-75895200D02*
X112979200Y-75895200D01*
X100974400Y-101041200D02*
X103644400Y-101041200D01*
X144068800Y-63754000D02*
X146151600Y-65836800D01*
X71905900Y-111888500D02*
X74218800Y-109575600D01*
X137871200Y-41641800D02*
X134083600Y-41641800D01*
X52222400Y-38522400D02*
X52222400Y-33181523D01*
X106070400Y-105867200D02*
X109016800Y-108813600D01*
X76962000Y-86868000D02*
X79578200Y-84251800D01*
X84348080Y-63581520D02*
X86258400Y-61671200D01*
X124612400Y-104140000D02*
X121666000Y-104140000D01*
X80289400Y-83540600D02*
X80289400Y-83083400D01*
X109685800Y-115326400D02*
X112227600Y-115326400D01*
X132787052Y-63957200D02*
X134064772Y-62679480D01*
X134064772Y-62679480D02*
X136237880Y-62679480D01*
X80492600Y-82524600D02*
X82143600Y-80873600D01*
X113655600Y-36086800D02*
X122564400Y-36086800D01*
X134083600Y-41641800D02*
X133894600Y-41452800D01*
X118668800Y-107373827D02*
X118668800Y-104902000D01*
X80518000Y-51409600D02*
X81330800Y-50596800D01*
X59520758Y-96286749D02*
X58202307Y-97605200D01*
X56390731Y-97605200D02*
X56054438Y-97268907D01*
X67919600Y-56402000D02*
X67919600Y-57708800D01*
X87655400Y-45237400D02*
X87655400Y-46304200D01*
X55789299Y-44465033D02*
X55903333Y-44579067D01*
X126839880Y-64828520D02*
X127711200Y-63957200D01*
X83210400Y-80873600D02*
X83362800Y-81026000D01*
X87426800Y-44902395D02*
X87638329Y-45113924D01*
X93014800Y-35571200D02*
X92622600Y-35179000D01*
X65481200Y-89025312D02*
X65481200Y-87376000D01*
X67056000Y-64312800D02*
X67056000Y-62992000D01*
X188772800Y-40335200D02*
X192735200Y-40335200D01*
X96824800Y-90678000D02*
X96824800Y-90220800D01*
X117229027Y-108813600D02*
X118668800Y-107373827D01*
X93014800Y-37388800D02*
X93014800Y-35571200D01*
X63195200Y-106699400D02*
X63195200Y-107485000D01*
X67157600Y-60198000D02*
X67157600Y-61264800D01*
X145948400Y-28346400D02*
X155397200Y-37795200D01*
X68264301Y-95493101D02*
X68264301Y-97423799D01*
X58064400Y-40589200D02*
X57404000Y-40589200D01*
X73023689Y-29691289D02*
X72898000Y-29565600D01*
X81330800Y-50596800D02*
X87601600Y-50596800D01*
X63520400Y-86288800D02*
X63520400Y-87223600D01*
X112979200Y-75895200D02*
X124045880Y-64828520D01*
X87136680Y-46823956D02*
X87135644Y-46823956D01*
X102108000Y-114096800D02*
X101955600Y-114096800D01*
X74676000Y-92579600D02*
X76533600Y-92579600D01*
X103604827Y-40308027D02*
X109318054Y-34594800D01*
X161340800Y-62941200D02*
X161340800Y-57812273D01*
X65481200Y-87376000D02*
X67339300Y-87376000D01*
X99923920Y-107439031D02*
X99485280Y-107877671D01*
X56542734Y-45218468D02*
X55903333Y-44579067D01*
X90373200Y-73948800D02*
X92391000Y-73948800D01*
X57708800Y-56692800D02*
X58905380Y-57889380D01*
X52171600Y-43187800D02*
X53448833Y-44465033D01*
X63565620Y-61838420D02*
X63409649Y-61682449D01*
X60616529Y-57889380D02*
X60967720Y-58240571D01*
X100974400Y-101041200D02*
X96961200Y-97028000D01*
X58905380Y-57889380D02*
X60616529Y-57889380D01*
X79451200Y-51409600D02*
X80518000Y-51409600D01*
X118706400Y-39928800D02*
X118211600Y-40423600D01*
X87638329Y-45113924D02*
X87638329Y-45220329D01*
X59690000Y-70866000D02*
X59690000Y-73050400D01*
X58019049Y-56692800D02*
X59240520Y-55471329D01*
X80289400Y-82219800D02*
X80162400Y-82092800D01*
X96961200Y-97028000D02*
X95707200Y-97028000D01*
X187909200Y-41859200D02*
X187909200Y-41198800D01*
X129235200Y-53506600D02*
X127254000Y-53506600D01*
X146151600Y-65836800D02*
X158445200Y-65836800D01*
X87517148Y-46443488D02*
X87136680Y-46823956D01*
D99*
%TO.N,/Student MCU/PROG_RX*%
X66933749Y-93116400D02*
X69240400Y-93116400D01*
X69240400Y-93116400D02*
X69372811Y-92983989D01*
X69372811Y-92983989D02*
X70388811Y-92983989D01*
X66503438Y-93546711D02*
X66933749Y-93116400D01*
X72927004Y-90445796D02*
X72927004Y-90273158D01*
X70388811Y-92983989D02*
X72927004Y-90445796D01*
%TO.N,/Student MCU/MCU_RESET*%
X84677489Y-113633489D02*
X84677489Y-100791803D01*
X84227978Y-100342292D02*
X84227978Y-89511178D01*
X86156800Y-115112800D02*
X84677489Y-113633489D01*
X71831200Y-107950000D02*
X68053200Y-107950000D01*
X86156800Y-115112800D02*
X84429600Y-115112800D01*
X84677489Y-100791803D02*
X84227978Y-100342292D01*
X79349600Y-110439200D02*
X79146400Y-110439200D01*
X79400400Y-110439200D02*
X84023200Y-115062000D01*
X79146400Y-110439200D02*
X79095600Y-110490000D01*
X90178800Y-115062000D02*
X88392000Y-115062000D01*
X88392000Y-115062000D02*
X88290400Y-115163600D01*
X84227978Y-89511178D02*
X83362800Y-88646000D01*
X79400400Y-110439200D02*
X79349600Y-110439200D01*
%TO.N,/Student MCU/SPARE_0*%
X60814334Y-89211534D02*
X60706000Y-89103200D01*
X61288525Y-90718284D02*
X60814334Y-90244093D01*
X60814334Y-90244093D02*
X60814334Y-89211534D01*
%TO.N,/Student MCU/SPARE_1*%
X71932800Y-95605600D02*
X71257499Y-96280901D01*
X63321457Y-90364730D02*
X63664282Y-90021905D01*
X72622574Y-104268500D02*
X74180474Y-105826400D01*
X62653751Y-88682930D02*
X62653751Y-88572730D01*
X71257499Y-96280901D02*
X71257499Y-103107001D01*
X71257499Y-103107001D02*
X70096000Y-104268500D01*
X63664282Y-89591861D02*
X63241322Y-89168901D01*
X63241322Y-89168901D02*
X63139722Y-89168901D01*
X63664282Y-90021905D02*
X63664282Y-89591861D01*
X70096000Y-104268500D02*
X72622574Y-104268500D01*
X63139722Y-89168901D02*
X62653751Y-88682930D01*
%TO.N,OE_B*%
X58364413Y-99037280D02*
X56766320Y-99037280D01*
X86918800Y-73507600D02*
X89989169Y-70437231D01*
X93614927Y-67960280D02*
X96877880Y-67960280D01*
X96877880Y-67960280D02*
X97815400Y-68897800D01*
X56766320Y-99037280D02*
X56184800Y-99618800D01*
X79959200Y-74777600D02*
X79095600Y-74777600D01*
X60227865Y-96993856D02*
X59545289Y-97676432D01*
X59545289Y-97856404D02*
X58364413Y-99037280D01*
X91137977Y-70437231D02*
X93614927Y-67960280D01*
X59545289Y-97676432D02*
X59545289Y-97856404D01*
X89989169Y-70437231D02*
X91137977Y-70437231D01*
X79095600Y-74777600D02*
X78536800Y-74218800D01*
%TO.N,/Student MCU/SPARE_2*%
X56486803Y-96505899D02*
X56095358Y-96114454D01*
X68971489Y-103802711D02*
X68971489Y-104734289D01*
X71651811Y-105393011D02*
X74625200Y-108366400D01*
X69630211Y-105393011D02*
X71651811Y-105393011D01*
X58594502Y-96505899D02*
X56486803Y-96505899D01*
X68971489Y-104734289D02*
X69630211Y-105393011D01*
X59167205Y-95933196D02*
X58594502Y-96505899D01*
X70096000Y-102678200D02*
X68971489Y-103802711D01*
X70096000Y-101728500D02*
X70096000Y-102678200D01*
%TO.N,OE_A*%
X98141000Y-83667600D02*
X98907600Y-84434200D01*
X60117614Y-97919778D02*
X58841779Y-99195613D01*
X54090289Y-75477089D02*
X60870111Y-75477089D01*
X80363041Y-76304159D02*
X79857600Y-76809600D01*
X58841779Y-99195613D02*
X58841779Y-99908221D01*
X58118896Y-100960600D02*
X57059524Y-100960600D01*
X79857600Y-76809600D02*
X78333600Y-76809600D01*
X58633320Y-100116680D02*
X58633320Y-100446176D01*
X54856000Y-91568500D02*
X53731489Y-90443989D01*
X60117614Y-97811214D02*
X60117614Y-97919778D01*
X58841779Y-99908221D02*
X58633320Y-100116680D01*
X60581419Y-97347410D02*
X60117614Y-97811214D01*
X53731489Y-90443989D02*
X53731489Y-75835889D01*
X97891600Y-83667600D02*
X98141000Y-83667600D01*
X58633320Y-100446176D02*
X58118896Y-100960600D01*
X53731489Y-75835889D02*
X54090289Y-75477089D01*
%TO.N,/Analog Sensor Buffers/A_OUT_C2*%
X58813652Y-95579643D02*
X58373606Y-96019689D01*
X82346410Y-98552000D02*
X80975200Y-98552000D01*
X110286800Y-107137200D02*
X110693200Y-107137200D01*
X82956400Y-112623600D02*
X83778468Y-111801532D01*
X58373606Y-96019689D02*
X57120038Y-96019689D01*
X83778468Y-111801532D02*
X83778468Y-99984058D01*
X57120038Y-96019689D02*
X56575631Y-95475282D01*
X110693200Y-107137200D02*
X111658400Y-106172000D01*
X80975200Y-98552000D02*
X80873600Y-98450400D01*
X83778468Y-99984058D02*
X82346410Y-98552000D01*
%TO.N,OE_IDX*%
X66026612Y-86380581D02*
X66530720Y-85876473D01*
X89067724Y-73629283D02*
X91360755Y-71336252D01*
X55987370Y-94108500D02*
X54856000Y-94108500D01*
X83616800Y-75946000D02*
X83490504Y-75946000D01*
X64373452Y-86380581D02*
X66026612Y-86380581D01*
X66530720Y-85876473D02*
X66530720Y-84427301D01*
X80721200Y-78715304D02*
X80721200Y-78994000D01*
X91757852Y-71336252D02*
X93133824Y-69960280D01*
X91360755Y-71336252D02*
X91757852Y-71336252D01*
X99357920Y-69960280D02*
X100355400Y-68962800D01*
X68134032Y-82823989D02*
X73843211Y-82823989D01*
X56195606Y-93900264D02*
X55987370Y-94108500D01*
X93133824Y-69960280D02*
X99357920Y-69960280D01*
X58106545Y-93900264D02*
X56195606Y-93900264D01*
X66530720Y-84427301D02*
X68134032Y-82823989D01*
X89067724Y-74864195D02*
X89067724Y-73629283D01*
X83490504Y-75946000D02*
X80721200Y-78715304D01*
X87121841Y-75285759D02*
X88646159Y-75285759D01*
X88646159Y-75285759D02*
X89067724Y-74864195D01*
%TO.N,LIMIT_1*%
X59874312Y-92132497D02*
X58841300Y-91099485D01*
X58841300Y-91099485D02*
X58841300Y-90626409D01*
X92608400Y-84023200D02*
X93416600Y-84023200D01*
%TO.N,/Output Logic/STUDENT_PIXEL_DATA*%
X94278150Y-76826910D02*
X94600260Y-76504800D01*
X58813652Y-93193157D02*
X58335191Y-92714696D01*
X138993460Y-70779320D02*
X142046590Y-67726190D01*
X72586080Y-83688814D02*
X74544814Y-83688814D01*
X58335191Y-92714696D02*
X56627119Y-92714696D01*
X120802400Y-76504800D02*
X126527880Y-70779320D01*
X94600260Y-76504800D02*
X120802400Y-76504800D01*
X84634926Y-79806800D02*
X82291868Y-79806800D01*
X56627119Y-92714696D02*
X56036644Y-92124221D01*
X84837934Y-80009808D02*
X84634926Y-79806800D01*
X126527880Y-70779320D02*
X138993460Y-70779320D01*
X146899400Y-62848689D02*
X146262989Y-63485100D01*
X82291868Y-79806800D02*
X80846134Y-81252534D01*
X91367473Y-76826910D02*
X94278150Y-76826910D01*
X88555927Y-79638456D02*
X91367473Y-76826910D01*
%TO.N,STU_STP_FLT*%
X91571659Y-70886741D02*
X93532589Y-68925811D01*
X58142059Y-91107352D02*
X56367157Y-91107352D01*
X87726948Y-73715452D02*
X88345852Y-73715452D01*
X78181200Y-75488800D02*
X77216000Y-74523600D01*
X59520758Y-92486051D02*
X58142059Y-91107352D01*
X88345852Y-73715452D02*
X91174562Y-70886741D01*
X80568800Y-75488800D02*
X78181200Y-75488800D01*
X91174562Y-70886741D02*
X91571659Y-70886741D01*
X87172800Y-74269600D02*
X87726948Y-73715452D01*
X56367157Y-91107352D02*
X56157557Y-90897752D01*
X95259789Y-68925811D02*
X93532589Y-68925811D01*
%TO.N,/Output Logic/STUDENT_STEP*%
X94786453Y-76954311D02*
X94464343Y-77276421D01*
X84913851Y-82346800D02*
X81686400Y-82346800D01*
X85381951Y-81878700D02*
X84913851Y-82346800D01*
X59167205Y-92839604D02*
X58395363Y-92067762D01*
X126137817Y-76954311D02*
X94786453Y-76954311D01*
X81686400Y-82346800D02*
X80975200Y-83058000D01*
X94464343Y-77276421D02*
X92048389Y-77276421D01*
X69474411Y-85363989D02*
X75102389Y-85363989D01*
X92048389Y-77276421D02*
X89132805Y-80192005D01*
X68884800Y-85953600D02*
X69474411Y-85363989D01*
X131667328Y-71424800D02*
X126137817Y-76954311D01*
X58395363Y-92067762D02*
X57797258Y-92067762D01*
%TO.N,/Analog Sensor Buffers/A_OUT_B2*%
X57034809Y-94732991D02*
X56872629Y-94732991D01*
X97891600Y-104343200D02*
X98466400Y-104343200D01*
X98466400Y-104343200D02*
X98974400Y-104851200D01*
X57262947Y-94961129D02*
X57034809Y-94732991D01*
X58460098Y-95226089D02*
X58117273Y-95568914D01*
X58117273Y-95568914D02*
X57691693Y-95568914D01*
X57691693Y-95568914D02*
X57262947Y-95140168D01*
X57262947Y-95140168D02*
X57262947Y-94961129D01*
%TO.N,/Student MCU/DC_MOTOR_DIR2*%
X58077594Y-93164207D02*
X56193453Y-93164207D01*
X53042889Y-91345689D02*
X54535700Y-92838500D01*
X53042889Y-75888785D02*
X53042889Y-91345689D01*
X53731489Y-100603989D02*
X53731489Y-93642711D01*
X58515489Y-73095089D02*
X58515489Y-73701521D01*
X62534800Y-66312800D02*
X59978800Y-68868800D01*
X58460098Y-93546711D02*
X58077594Y-93164207D01*
X57189432Y-75027578D02*
X53904095Y-75027579D01*
X58515489Y-73701521D02*
X57189432Y-75027578D01*
X55867746Y-92838500D02*
X56193453Y-93164207D01*
X54856000Y-101728500D02*
X53731489Y-100603989D01*
X53731489Y-93642711D02*
X54535700Y-92838500D01*
X54535700Y-92838500D02*
X55867746Y-92838500D01*
X53904095Y-75027579D02*
X53042889Y-75888785D01*
%TO.N,/Analog Sensor Buffers/A_OUT_A2*%
X62967904Y-89993504D02*
X62484000Y-89509600D01*
X72307300Y-86817200D02*
X75234800Y-86817200D01*
X62967904Y-90011177D02*
X62967904Y-89993504D01*
X98770100Y-97064400D02*
X98770100Y-95836367D01*
X70096000Y-89028500D02*
X72307300Y-86817200D01*
%TO.N,/Student MCU/LATCH*%
X55987370Y-104268500D02*
X57190360Y-103065510D01*
X61242370Y-102659110D02*
X64117289Y-99784191D01*
X64117289Y-98496794D02*
X64117289Y-99784191D01*
X89255600Y-95859600D02*
X90655600Y-95859600D01*
X57190360Y-103065510D02*
X60333394Y-103065510D01*
X63675011Y-98054516D02*
X64117289Y-98496794D01*
X54856000Y-104268500D02*
X55987370Y-104268500D01*
X60333394Y-103065510D02*
X60739794Y-102659110D01*
X60739794Y-102659110D02*
X61242370Y-102659110D01*
%TO.N,/Student MCU/SERVO_1*%
X60553600Y-66294000D02*
X58403120Y-68444480D01*
X50889889Y-70567618D02*
X50889889Y-99387096D01*
X58403120Y-68444480D02*
X53013027Y-68444480D01*
X51646597Y-101312203D02*
X51206400Y-101752400D01*
X65039378Y-98004671D02*
X65039378Y-100681289D01*
X54856000Y-106808500D02*
X57669211Y-103995289D01*
X57669211Y-103995289D02*
X61725378Y-103995289D01*
X53013027Y-68444480D02*
X50889889Y-70567618D01*
X64382117Y-97347410D02*
X65039378Y-98004671D01*
X51206400Y-101752400D02*
X51206400Y-104343200D01*
X51646597Y-100143803D02*
X51646597Y-101312203D01*
X61725378Y-103995289D02*
X65039378Y-100681289D01*
X50889889Y-99387096D02*
X51646597Y-100143803D01*
%TO.N,/Output Logic/STUDENT_MOTOR_PWM*%
X64735671Y-96993856D02*
X64735671Y-97014658D01*
X57159450Y-107045050D02*
X57159450Y-105705350D01*
X141949400Y-55118000D02*
X139762885Y-55118000D01*
X58214420Y-104650380D02*
X62192971Y-104650380D01*
X65488889Y-97767876D02*
X65488889Y-101354462D01*
X64735671Y-97014658D02*
X65488889Y-97767876D01*
X62192971Y-104650380D02*
X65488889Y-101354462D01*
X139762885Y-55118000D02*
X139741905Y-55138980D01*
X54856000Y-109348500D02*
X57159450Y-107045050D01*
X57159450Y-105705350D02*
X58214420Y-104650380D01*
%TO.N,/Student MCU/MOSI*%
X82654289Y-115886511D02*
X86266268Y-115886511D01*
X89306400Y-97028000D02*
X89204800Y-97129600D01*
X62967904Y-98761623D02*
X62967904Y-98908217D01*
X56458379Y-102616000D02*
X60147200Y-102616000D01*
X86266268Y-115886511D02*
X90779600Y-111373179D01*
X53731489Y-113013011D02*
X53731489Y-114894289D01*
X54856000Y-111888500D02*
X52933600Y-109966100D01*
X56221368Y-102853011D02*
X56458379Y-102616000D01*
X52933600Y-104495600D02*
X54576189Y-102853011D01*
X54856000Y-111888500D02*
X53731489Y-113013011D01*
X52933600Y-109966100D02*
X52933600Y-104495600D01*
X75725794Y-113530310D02*
X80298088Y-113530310D01*
X70957805Y-118298299D02*
X75725794Y-113530310D01*
X90757200Y-97028000D02*
X89306400Y-97028000D01*
X61375178Y-101388022D02*
X61375178Y-100500943D01*
X67254522Y-118298299D02*
X70957805Y-118298299D01*
X54576189Y-102853011D02*
X56221368Y-102853011D01*
X53731489Y-114894289D02*
X57156121Y-118318921D01*
X80298088Y-113530310D02*
X82654289Y-115886511D01*
X60147200Y-102616000D02*
X61375178Y-101388022D01*
X90779600Y-111373179D02*
X90779600Y-108610400D01*
X67233900Y-118318921D02*
X67254522Y-118298299D01*
X62967904Y-98908217D02*
X61375178Y-100500943D01*
X57156121Y-118318921D02*
X67233900Y-118318921D01*
%TO.N,/Student MCU/DC_MOTOR_DIR1*%
X60875187Y-103159421D02*
X61625237Y-103159421D01*
X55980511Y-111422711D02*
X55030811Y-110473011D01*
X54365115Y-110473011D02*
X53731489Y-109839385D01*
X55030811Y-110473011D02*
X54365115Y-110473011D01*
X53731489Y-106342711D02*
X54390211Y-105683989D01*
X64028564Y-97700963D02*
X64566800Y-98239199D01*
X55993553Y-104939439D02*
X57417970Y-103515022D01*
X53731489Y-109839385D02*
X53731489Y-106342711D01*
X54390211Y-105683989D02*
X55030811Y-105683989D01*
X55030811Y-105683989D02*
X55775361Y-104939439D01*
X57417970Y-103515022D02*
X60519586Y-103515022D01*
X60519586Y-103515022D02*
X60875187Y-103159421D01*
X61946067Y-68580000D02*
X61719567Y-68806500D01*
X54856000Y-114428500D02*
X55980511Y-113303989D01*
X55775361Y-104939439D02*
X55993553Y-104939439D01*
X62198000Y-68580000D02*
X61946067Y-68580000D01*
X61625237Y-103159421D02*
X64566800Y-100217858D01*
X64465200Y-66312800D02*
X62198000Y-68580000D01*
X55980511Y-113303989D02*
X55980511Y-111422711D01*
X64566800Y-98239199D02*
X64566800Y-100217858D01*
%TO.N,/Student MCU/SCK*%
X65587478Y-108747899D02*
X62833106Y-108747899D01*
X93319600Y-112757200D02*
X94640400Y-114078000D01*
X62182123Y-100625062D02*
X63664282Y-99142903D01*
X65953301Y-109113722D02*
X65587478Y-108747899D01*
X89103200Y-98196400D02*
X90655600Y-98196400D01*
X70096000Y-114428500D02*
X70096000Y-113544547D01*
X63664282Y-99142903D02*
X63664282Y-98750895D01*
X67997973Y-111446520D02*
X66622027Y-111446520D01*
X66285480Y-111109973D02*
X66285480Y-109631841D01*
X66622027Y-111446520D02*
X66285480Y-111109973D01*
X63664282Y-98750895D02*
X63321457Y-98408070D01*
X62833106Y-108747899D02*
X62155257Y-108070050D01*
X70096000Y-113544547D02*
X67997973Y-111446520D01*
X62164987Y-100625062D02*
X62182123Y-100625062D01*
X66285480Y-109631841D02*
X65953301Y-109299662D01*
X62155257Y-108070050D02*
X62155257Y-106242610D01*
X65953301Y-109299662D02*
X65953301Y-109113722D01*
X93319600Y-108610400D02*
X93319600Y-112757200D01*
%TO.N,/Supervisor MCU/PROG_TX*%
X56770622Y-45692978D02*
X56235600Y-46228000D01*
X57793069Y-45692978D02*
X56770622Y-45692978D01*
X57826502Y-45726411D02*
X57793069Y-45692978D01*
%TO.N,/Supervisor MCU/PROG_RX*%
X57942540Y-46317479D02*
X57173083Y-46317479D01*
X58360730Y-45899289D02*
X57942540Y-46317479D01*
%TO.N,/Supervisor MCU/MCU_RESET*%
X78863831Y-44736016D02*
X78790242Y-44736016D01*
X79255211Y-40649561D02*
X79255211Y-43878872D01*
X54991000Y-58352923D02*
X52232077Y-55594000D01*
X77927200Y-45599058D02*
X77927200Y-48615600D01*
X78790242Y-44736016D02*
X77927200Y-45599058D01*
X79423600Y-38455600D02*
X80573200Y-37306000D01*
X79255211Y-43878872D02*
X79229654Y-43904429D01*
X77283077Y-58352923D02*
X81194677Y-58352923D01*
X77927200Y-48615600D02*
X79705200Y-50393600D01*
X79197200Y-40591550D02*
X79255211Y-40649561D01*
X79229654Y-43904429D02*
X79229654Y-44370193D01*
X79197200Y-38455600D02*
X79197200Y-40591550D01*
X76437868Y-37306000D02*
X76568984Y-37437116D01*
X70231000Y-58352923D02*
X77283077Y-58352923D01*
X79229654Y-44370193D02*
X78863831Y-44736016D01*
X74773200Y-37306000D02*
X76437868Y-37306000D01*
X79197200Y-38455600D02*
X79423600Y-38455600D01*
%TO.N,/Supervisor MCU/STDNT_DC_M_DIR_2*%
X63575643Y-48727716D02*
X64753402Y-49905475D01*
X64753403Y-50289945D02*
X65310658Y-50847200D01*
X63670989Y-63176611D02*
X64359374Y-63176611D01*
X62534800Y-64312800D02*
X63670989Y-63176611D01*
X65310658Y-52742058D02*
X65313900Y-52745300D01*
X65310658Y-50847200D02*
X65310658Y-52742058D01*
X64753402Y-49905475D02*
X64753403Y-50289945D01*
%TO.N,/Supervisor MCU/STDNT_DC_M_DIR_1*%
X61542711Y-49081270D02*
X60835316Y-49788665D01*
X64566800Y-64211200D02*
X65684400Y-64211200D01*
X54991000Y-38032923D02*
X53866489Y-39157434D01*
X60835316Y-49788665D02*
X60835316Y-50652961D01*
X53866489Y-39157434D02*
X53866489Y-41802550D01*
X53866489Y-41802550D02*
X53315086Y-42353953D01*
%TO.N,/Digital Sensor Buffers/D_OUT_E1*%
X65375042Y-41713405D02*
X65375042Y-41332046D01*
X93497400Y-59715400D02*
X92659904Y-58877904D01*
X90631878Y-57744699D02*
X90238199Y-57744699D01*
X70231000Y-53272923D02*
X71289397Y-54331320D01*
X65375042Y-41332046D02*
X66117888Y-40589200D01*
X71289397Y-54331320D02*
X76123080Y-54331320D01*
X92659904Y-58877904D02*
X91765083Y-58877904D01*
X66117888Y-40589200D02*
X66598800Y-40589200D01*
X91765083Y-58877904D02*
X90631878Y-57744699D01*
X64636303Y-42452144D02*
X65375042Y-41713405D01*
X90238199Y-57744699D02*
X88560550Y-56067050D01*
%TO.N,/Supervisor MCU/STDNT_SRVO_RX_1*%
X66381577Y-42828190D02*
X66743842Y-42828190D01*
X67750331Y-41821701D02*
X68016499Y-41821701D01*
X60424898Y-37069099D02*
X60328267Y-37165730D01*
X59645080Y-65202520D02*
X60553600Y-64294000D01*
X68016499Y-41821701D02*
X68440901Y-41397299D01*
X68440901Y-41397299D02*
X68440901Y-37534922D01*
X67975078Y-37069099D02*
X60424898Y-37069099D01*
X68440901Y-37534922D02*
X67975078Y-37069099D01*
X65696963Y-43512804D02*
X66381577Y-42828190D01*
X54432920Y-65202520D02*
X59645080Y-65202520D01*
X66743842Y-42828190D02*
X67750331Y-41821701D01*
X51511200Y-62280800D02*
X54432920Y-65202520D01*
%TO.N,/Digital Sensor Buffers/D_OUT_C1*%
X66235109Y-39836275D02*
X66329898Y-39836275D01*
X94132400Y-66954400D02*
X94132400Y-65778200D01*
X94132400Y-65778200D02*
X94767400Y-65143200D01*
X64925531Y-41455808D02*
X64925532Y-41145852D01*
X64925532Y-41145852D02*
X66235109Y-39836275D01*
X64282749Y-42098590D02*
X64925531Y-41455808D01*
%TO.N,/Analog Sensor Buffers/A_OUT_C1*%
X71355511Y-39816156D02*
X70696789Y-39157434D01*
X108668500Y-94843600D02*
X108668500Y-93573600D01*
X71355511Y-41351308D02*
X71355511Y-39816156D01*
X69748400Y-41878779D02*
X70828040Y-41878779D01*
X70828040Y-41878779D02*
X70936379Y-41878779D01*
X69280399Y-36423600D02*
X61417200Y-36423600D01*
X66050516Y-43866357D02*
X66630069Y-43286804D01*
X108668500Y-93573600D02*
X107445831Y-93573600D01*
X69106489Y-37567134D02*
X69765211Y-36908412D01*
X69106489Y-38498712D02*
X69106489Y-37567134D01*
X107445831Y-93573600D02*
X107101300Y-93229069D01*
X70696789Y-39157434D02*
X69765211Y-39157434D01*
X66630069Y-43286804D02*
X68340375Y-43286804D01*
X70828040Y-41878779D02*
X71355511Y-41351308D01*
X69765211Y-39157434D02*
X69106489Y-38498712D01*
X70936379Y-41878779D02*
X71678800Y-42621200D01*
X69765211Y-36908412D02*
X69280399Y-36423600D01*
X68340375Y-43286804D02*
X69748400Y-41878779D01*
%TO.N,/Digital Sensor Buffers/D_OUT_D1*%
X96037400Y-59817128D02*
X93944392Y-57724120D01*
X90164883Y-56642000D02*
X90068400Y-56642000D01*
X91247003Y-57724120D02*
X90164883Y-56642000D01*
X66982687Y-45770800D02*
X66757623Y-45545736D01*
X93944392Y-57724120D02*
X91247003Y-57724120D01*
X68478400Y-45770800D02*
X66982687Y-45770800D01*
%TO.N,/Digital Sensor Buffers/D_OUT_A1*%
X68122800Y-61925200D02*
X68122800Y-58424132D01*
X59022590Y-62308412D02*
X54816189Y-62308412D01*
X63748522Y-62317499D02*
X63310710Y-62755311D01*
X64989856Y-47313503D02*
X66800174Y-49123821D01*
X63310710Y-62755311D02*
X59469489Y-62755311D01*
X67868800Y-62179200D02*
X68122800Y-61925200D01*
X69584527Y-65035473D02*
X69697600Y-64922400D01*
X68187527Y-63638473D02*
X69584527Y-65035473D01*
X51612396Y-54591511D02*
X52837382Y-54591511D01*
X68187527Y-62497927D02*
X67868800Y-62179200D01*
X52837382Y-54591511D02*
X53256889Y-54172004D01*
X68122800Y-58424132D02*
X68150266Y-58396666D01*
X51197880Y-58690103D02*
X51197880Y-55006027D01*
X66800174Y-49123821D02*
X66891040Y-49123821D01*
X51197880Y-55006027D02*
X51612396Y-54591511D01*
X53866489Y-53270711D02*
X53866489Y-49257511D01*
X89763600Y-66852800D02*
X89763600Y-65219400D01*
X68187527Y-62497927D02*
X68187527Y-63638473D01*
X67027798Y-62179200D02*
X66889499Y-62317499D01*
X54816189Y-62308412D02*
X51197880Y-58690103D01*
X53256889Y-53880311D02*
X53866489Y-53270711D01*
X59469489Y-62755311D02*
X59022590Y-62308412D01*
X69697600Y-64922400D02*
X69748400Y-64922400D01*
X69584527Y-65035473D02*
X69609927Y-65060873D01*
X67868800Y-62179200D02*
X67027798Y-62179200D01*
X53256889Y-54172004D02*
X53256889Y-53880311D01*
X66889499Y-62317499D02*
X63748522Y-62317499D01*
%TO.N,/Output Logic/SUPERVISOR_PIXEL_DATA*%
X70231000Y-46541879D02*
X70231000Y-45764979D01*
X69361578Y-47411301D02*
X70231000Y-46541879D01*
X140435017Y-51331817D02*
X137210800Y-48107600D01*
X140435017Y-51569689D02*
X140435017Y-51331817D01*
X86716021Y-46099732D02*
X86792924Y-46099732D01*
X68647120Y-47229099D02*
X68829322Y-47411301D01*
X68829322Y-47411301D02*
X69361578Y-47411301D01*
X86452790Y-45836501D02*
X86716021Y-46099732D01*
X66050516Y-46252843D02*
X67026772Y-47229099D01*
X78704101Y-45836501D02*
X86452790Y-45836501D01*
X140435017Y-51569689D02*
X141181264Y-52315936D01*
X146899400Y-57658000D02*
X145592800Y-57658000D01*
X67026772Y-47229099D02*
X68647120Y-47229099D01*
X86792924Y-46099732D02*
X86867647Y-46174455D01*
X145592800Y-57658000D02*
X145542000Y-57607200D01*
%TO.N,/Digital Sensor Buffers/D_OUT_F1*%
X65343410Y-46999493D02*
X66783762Y-48439845D01*
X56134000Y-49885600D02*
X56134000Y-51460400D01*
X90957400Y-59004200D02*
X90322400Y-58369200D01*
X65343410Y-46959949D02*
X65343410Y-46999493D01*
X66783762Y-48439845D02*
X67305022Y-48439845D01*
X54991000Y-48742600D02*
X56134000Y-49885600D01*
X56134000Y-51460400D02*
X56083200Y-51511200D01*
X90957400Y-60193200D02*
X90957400Y-59004200D01*
%TO.N,/Output Logic/SUPERVISOR_STEP*%
X65696963Y-46606396D02*
X66872368Y-47781801D01*
X127278689Y-46532800D02*
X127116500Y-46370611D01*
X81007654Y-45262800D02*
X86860343Y-45262800D01*
X66872368Y-47781801D02*
X67777423Y-47781801D01*
X67777423Y-47781801D02*
X67859011Y-47863389D01*
X86860343Y-45262800D02*
X86980500Y-45382957D01*
X79854154Y-44109300D02*
X81007654Y-45262800D01*
X128944600Y-46532800D02*
X127278689Y-46532800D01*
%TO.N,/Analog Sensor Buffers/A_OUT_B1*%
X103718500Y-94843600D02*
X105484815Y-93077285D01*
X105484815Y-93077285D02*
X105831590Y-93077285D01*
X66404070Y-44219911D02*
X66746895Y-43877086D01*
X66746895Y-43877086D02*
X68573511Y-43877086D01*
X68573511Y-43877086D02*
X68943255Y-44246830D01*
X103718500Y-93573600D02*
X103718500Y-94843600D01*
%TO.N,/Output Logic/MOTOR_DIR_B*%
X146507200Y-41656000D02*
X146913600Y-42062400D01*
X67284370Y-46779589D02*
X69095689Y-46779589D01*
X146507200Y-39928800D02*
X146507200Y-41656000D01*
X69095689Y-46779589D02*
X69102900Y-46786800D01*
X66404070Y-45899289D02*
X67284370Y-46779589D01*
%TO.N,/Analog Sensor Buffers/A_OUT_A1*%
X103718500Y-87223600D02*
X103718500Y-88493600D01*
X61628879Y-49702208D02*
X61628879Y-50750239D01*
X61896264Y-49434823D02*
X61628879Y-49702208D01*
X103210500Y-87985600D02*
X103718500Y-88493600D01*
X101549200Y-87985600D02*
X103210500Y-87985600D01*
%TO.N,/Supervisor MCU/LATCH*%
X60671515Y-39456692D02*
X60690621Y-39437587D01*
X65754948Y-38557200D02*
X67716400Y-38557200D01*
X64859610Y-38179218D02*
X65376966Y-38179218D01*
X60750375Y-40754380D02*
X60750375Y-39535552D01*
X60776950Y-40780957D02*
X60750375Y-40754380D01*
X97572600Y-35179000D02*
X99187000Y-35179000D01*
X99187000Y-35179000D02*
X99364800Y-35356800D01*
X60776951Y-40979278D02*
X60776950Y-40780957D01*
X61189157Y-41391484D02*
X60776951Y-40979278D01*
X60690621Y-39437587D02*
X60690622Y-38252400D01*
X97572600Y-35179000D02*
X97355641Y-35395959D01*
X97355641Y-35395959D02*
X97355641Y-35994359D01*
X60690622Y-38252400D02*
X64786428Y-38252400D01*
X60750375Y-39535552D02*
X60671515Y-39456692D01*
X65376966Y-38179218D02*
X65754948Y-38557200D01*
X64786428Y-38252400D02*
X64859610Y-38179218D01*
%TO.N,SERVO_1*%
X59877930Y-41153345D02*
X59501892Y-40777308D01*
X70231000Y-35492923D02*
X72549179Y-33174744D01*
X72223499Y-27186089D02*
X76051708Y-23357880D01*
X72223499Y-29844989D02*
X72223499Y-27186089D01*
X76051708Y-23357880D02*
X108854280Y-23357880D01*
X61006122Y-35799099D02*
X69924824Y-35799099D01*
X59568659Y-36810259D02*
X59658941Y-36810259D01*
X59877930Y-41494469D02*
X59877930Y-41153345D01*
X59568659Y-38627741D02*
X59568659Y-36810259D01*
X108854280Y-23357880D02*
X110439200Y-24942800D01*
X59924259Y-36544941D02*
X60260281Y-36544941D01*
X59501892Y-38694508D02*
X59568659Y-38627741D01*
X59501892Y-40777308D02*
X59501892Y-38694508D01*
X60260281Y-36544941D02*
X61006122Y-35799099D01*
X59658941Y-36810259D02*
X59924259Y-36544941D01*
X72549179Y-30170669D02*
X72223499Y-29844989D01*
X72549179Y-33174744D02*
X72549179Y-30170669D01*
X60482051Y-42098590D02*
X59877930Y-41494469D01*
%TO.N,/Output Logic/SUPERVISOR_MOTOR_PWM*%
X69431001Y-33752922D02*
X66069078Y-33752922D01*
X60128497Y-42452144D02*
X59253429Y-41577076D01*
X145643600Y-47012400D02*
X145643600Y-48209719D01*
X59253429Y-41577076D02*
X59253429Y-41412023D01*
X66069078Y-33752922D02*
X64719200Y-35102800D01*
X70231000Y-32952923D02*
X69431001Y-33752922D01*
X145643600Y-48209719D02*
X145455819Y-48397500D01*
%TO.N,/Supervisor MCU/MOSI*%
X66211588Y-31130289D02*
X65798500Y-31543377D01*
X61896264Y-40684377D02*
X61896264Y-39703736D01*
X61896264Y-39703736D02*
X61925200Y-39674800D01*
X69513634Y-31130289D02*
X66211588Y-31130289D01*
X101498400Y-33782000D02*
X97699600Y-33782000D01*
X70231000Y-30412923D02*
X69513634Y-31130289D01*
%TO.N,/Output Logic/MOTOR_DIR_A*%
X60683576Y-37693600D02*
X60586945Y-37790231D01*
X60256012Y-40895723D02*
X60327440Y-40967151D01*
X60139510Y-38051773D02*
X60139510Y-39723028D01*
X60139510Y-39723028D02*
X60256012Y-39839530D01*
X71924678Y-30181872D02*
X71924678Y-32688525D01*
X70231000Y-28488194D02*
X71924678Y-30181872D01*
X60586945Y-37790231D02*
X60401052Y-37790231D01*
X60327440Y-40967151D02*
X60327441Y-41236874D01*
X141833600Y-47654030D02*
X142577070Y-48397500D01*
X60401052Y-37790231D02*
X60139510Y-38051773D01*
X67665600Y-37693600D02*
X60683576Y-37693600D01*
X60327441Y-41236874D02*
X60835604Y-41745037D01*
X60256012Y-39839530D02*
X60256012Y-40895723D01*
%TO.N,/Supervisor MCU/SCK*%
X61199886Y-39032850D02*
X61315121Y-38917615D01*
X100101400Y-32639000D02*
X97572600Y-32639000D01*
X101498400Y-31242000D02*
X100101400Y-32639000D01*
X101498400Y-31242000D02*
X104800400Y-27940000D01*
X104800400Y-27940000D02*
X104800400Y-26282400D01*
X61199886Y-40623715D02*
X61199886Y-39032850D01*
X61542711Y-41037930D02*
X61542711Y-40966540D01*
X61542711Y-40966540D02*
X61199886Y-40623715D01*
%TO.N,/DC Motor Controller/IN_1*%
X143103600Y-46228000D02*
X143510000Y-45821600D01*
%TO.N,M_I_SENSE_1*%
X123088400Y-105257600D02*
X121513600Y-105257600D01*
X159816800Y-83210400D02*
X159816800Y-80416400D01*
%TO.N,M_I_SENSE_2*%
X123190000Y-102768400D02*
X121564400Y-102768400D01*
X162356800Y-83210400D02*
X162356800Y-80416400D01*
X136804400Y-78841600D02*
X133527800Y-82118200D01*
X133527800Y-82118200D02*
X133223000Y-82118200D01*
%TO.N,/DC Motor Controller/IN_2*%
X144022778Y-36891210D02*
X144022778Y-35916378D01*
X145643600Y-38512032D02*
X144022778Y-36891210D01*
X145643600Y-42062400D02*
X145643600Y-38512032D01*
X144022778Y-35916378D02*
X143056800Y-34950400D01*
%TO.N,/DC Motor Controller/ENABLE*%
X153384521Y-51935513D02*
X153384521Y-51714142D01*
X144472289Y-34484611D02*
X143813567Y-33825889D01*
X143813567Y-33825889D02*
X141641311Y-33825889D01*
X137976800Y-34950400D02*
X140516800Y-34950400D01*
X144472289Y-36705017D02*
X144472289Y-34484611D01*
X141641311Y-33825889D02*
X140516800Y-34950400D01*
X153356372Y-61163200D02*
X155635821Y-58883751D01*
X153384521Y-51714142D02*
X153314400Y-51644021D01*
X155635821Y-54186813D02*
X153384521Y-51935513D01*
X155635821Y-58883751D02*
X155635821Y-54186813D01*
X153314400Y-45547128D02*
X144472289Y-36705017D01*
X153314400Y-51644021D02*
X153314400Y-45547128D01*
%TO.N,/Output Logic/STEP_EN_OUT*%
X163437064Y-47363357D02*
X163437064Y-46422854D01*
X161473621Y-49326800D02*
X163437064Y-47363357D01*
%TO.N,MODE_0*%
X172161200Y-40843200D02*
X172262800Y-40944800D01*
X182042800Y-35255200D02*
X180136800Y-35255200D01*
X193802000Y-29108400D02*
X191414400Y-29108400D01*
X64476022Y-40959658D02*
X65521340Y-39914340D01*
X191414400Y-29108400D02*
X185267600Y-35255200D01*
X64476021Y-41198212D02*
X64476022Y-40959658D01*
X63929196Y-41745037D02*
X64476021Y-41198212D01*
X171291000Y-40843200D02*
X172161200Y-40843200D01*
X185267600Y-35255200D02*
X182042800Y-35255200D01*
X65521340Y-39914340D02*
X65521340Y-39494193D01*
%TO.N,MODE_1*%
X171291000Y-43383200D02*
X172339532Y-42334668D01*
X64896839Y-39235515D02*
X65118288Y-39014066D01*
X182042800Y-37795200D02*
X179933600Y-37795200D01*
X172339532Y-42334668D02*
X172339532Y-42250700D01*
X183943778Y-37795200D02*
X182042800Y-37795200D01*
X63575643Y-41391484D02*
X64026512Y-40940615D01*
X64026512Y-40940615D02*
X64026512Y-40773455D01*
X190090578Y-31648400D02*
X183943778Y-37795200D01*
X64896839Y-39903128D02*
X64896839Y-39235515D01*
X193802000Y-31648400D02*
X190090578Y-31648400D01*
X64026512Y-40773455D02*
X64896839Y-39903128D01*
X65118288Y-39014066D02*
X65118288Y-38803719D01*
%TO.N,MODE_2*%
X168452800Y-47447200D02*
X169767000Y-47447200D01*
X63222089Y-41037930D02*
X63577001Y-40683018D01*
X183388000Y-40335200D02*
X183946800Y-39776400D01*
X182042800Y-40335200D02*
X180340000Y-40335200D01*
X63577001Y-40683018D02*
X63577001Y-39672747D01*
X165445811Y-45253011D02*
X166258611Y-45253011D01*
X84931489Y-29356289D02*
X85779699Y-29356289D01*
X86467711Y-30044301D02*
X86467711Y-42056289D01*
X171291000Y-45923200D02*
X172212000Y-45923200D01*
X83642200Y-28067000D02*
X84931489Y-29356289D01*
X86467711Y-42056289D02*
X85293200Y-43230800D01*
X85779699Y-29356289D02*
X86467711Y-30044301D01*
X169767000Y-47447200D02*
X171291000Y-45923200D01*
X182042800Y-40335200D02*
X183388000Y-40335200D01*
X63577001Y-39672747D02*
X64322048Y-38927700D01*
X172212000Y-45923200D02*
X172720000Y-45415200D01*
X166258611Y-45253011D02*
X168452800Y-47447200D01*
%TO.N,/Output Logic/STEP_RST_OUT*%
X165075437Y-47178048D02*
X167269248Y-47178048D01*
X163414189Y-45516800D02*
X165075437Y-47178048D01*
X167269248Y-47178048D02*
X168351200Y-48260000D01*
X160869400Y-45516800D02*
X163414189Y-45516800D01*
%TO.N,/Output Logic/STEPP_STEP_OUT*%
X155543328Y-48056800D02*
X154619880Y-48980248D01*
X162582413Y-53612433D02*
X162660537Y-53690557D01*
X154619880Y-50847123D02*
X154964690Y-51191933D01*
X154619880Y-48980248D02*
X154619880Y-50847123D01*
X154964690Y-51191933D02*
X158669926Y-51191933D01*
X161003633Y-53612433D02*
X162582413Y-53612433D01*
X158669926Y-51191933D02*
X161003633Y-53525640D01*
X162660537Y-53690557D02*
X162661625Y-53690557D01*
X161003633Y-53525640D02*
X161003633Y-53612433D01*
%TO.N,/Output Logic/DIRECTION_OUT*%
X156565600Y-44246800D02*
X157937200Y-42875200D01*
%TO.N,STPPR_FAULT*%
X166645451Y-47627559D02*
X164010359Y-47627559D01*
X92913200Y-51474600D02*
X93472000Y-50915800D01*
X167992323Y-48974431D02*
X166645451Y-47627559D01*
X93472000Y-50915800D02*
X93472000Y-49631600D01*
D101*
%TO.N,Net-(A4-Pad11)*%
X207137000Y-39268400D02*
X211469600Y-39268400D01*
X211469600Y-39268400D02*
X215392000Y-43190800D01*
%TO.N,Net-(A4-Pad12)*%
X211429600Y-36728400D02*
X215392000Y-40690800D01*
X207137000Y-36728400D02*
X211429600Y-36728400D01*
%TO.N,Net-(A4-Pad13)*%
X211389600Y-34188400D02*
X215392000Y-38190800D01*
X207137000Y-34188400D02*
X211389600Y-34188400D01*
%TO.N,Net-(A4-Pad14)*%
X207137000Y-31648400D02*
X211349600Y-31648400D01*
X211349600Y-31648400D02*
X215392000Y-35690800D01*
D102*
%TO.N,GNDPWR*%
X162712400Y-115519200D02*
X162712400Y-112776000D01*
X203758800Y-83921600D02*
X203758800Y-86410800D01*
X168013279Y-94521121D02*
X166082879Y-94521121D01*
X188654000Y-113293600D02*
X190898800Y-111048800D01*
X190898800Y-111048800D02*
X191465200Y-111048800D01*
X176784000Y-110185200D02*
X176143378Y-110185200D01*
X155829000Y-97002600D02*
X154330400Y-95504000D01*
X217415111Y-109228389D02*
X217415111Y-107450889D01*
X214197950Y-112445550D02*
X215823550Y-110819950D01*
X185451689Y-93084711D02*
X188626689Y-93084711D01*
X180205279Y-94521121D02*
X182760721Y-94521121D01*
X184759600Y-110185200D02*
X181864000Y-110185200D01*
X215798400Y-103225600D02*
X213563200Y-103225600D01*
X203708000Y-68158400D02*
X209186538Y-68158400D01*
X177665279Y-94521121D02*
X180205279Y-94521121D01*
X170045279Y-94521121D02*
X172585279Y-94521121D01*
X182760721Y-94521121D02*
X183040121Y-94241721D01*
X188626689Y-93084711D02*
X189064900Y-92646500D01*
X152044400Y-116636800D02*
X148691600Y-116636800D01*
X166082879Y-94521121D02*
X165422479Y-94521121D01*
X172585279Y-94521121D02*
X175125279Y-94521121D01*
X216077800Y-103505000D02*
X215798400Y-103225600D01*
X187794400Y-27432000D02*
X188518800Y-27432000D01*
X170045279Y-94521121D02*
X168013279Y-94521121D01*
X148691600Y-116636800D02*
X146659600Y-116636800D01*
X183040121Y-94241721D02*
X184197131Y-93084711D01*
X209518000Y-103225600D02*
X208975200Y-103768400D01*
X191465200Y-111048800D02*
X192307280Y-111048800D01*
X210820000Y-113080800D02*
X213562700Y-113080800D01*
X130302000Y-114604800D02*
X128473200Y-112776000D01*
X217169750Y-109473750D02*
X217415111Y-109228389D01*
X188518800Y-27432000D02*
X188569600Y-27381200D01*
X146659600Y-116636800D02*
X143357600Y-116636800D01*
X127747289Y-99735111D02*
X127747289Y-96382111D01*
X152679400Y-93853000D02*
X152501600Y-93675200D01*
X181864000Y-110185200D02*
X179476400Y-110185200D01*
X188654000Y-113293600D02*
X188654000Y-118973600D01*
X165422479Y-94521121D02*
X164414200Y-95529400D01*
X214376000Y-72847200D02*
X214376000Y-77174080D01*
X209186538Y-68158400D02*
X213875338Y-72847200D01*
X160223200Y-97586800D02*
X157886400Y-97586800D01*
X164414200Y-95529400D02*
X162788600Y-97155000D01*
X188654000Y-118973600D02*
X186393511Y-116713111D01*
X152501600Y-91490800D02*
X152501600Y-89204800D01*
X127747289Y-96382111D02*
X128981200Y-95148200D01*
X154330400Y-95504000D02*
X152679400Y-93853000D01*
X186033511Y-110673111D02*
X186033511Y-115041871D01*
X143357600Y-116636800D02*
X141325600Y-114604800D01*
X184197131Y-93084711D02*
X185451689Y-93084711D01*
X217415111Y-105063289D02*
X217415111Y-104842311D01*
X217415111Y-107450889D02*
X217415111Y-105063289D01*
X213563200Y-103225600D02*
X211277200Y-103225600D01*
X127747289Y-103341911D02*
X127747289Y-99735111D01*
X156413200Y-97586800D02*
X155829000Y-97002600D01*
X163830000Y-116636800D02*
X162712400Y-115519200D01*
X162788600Y-97155000D02*
X162356800Y-97586800D01*
X179476400Y-110185200D02*
X176784000Y-110185200D01*
X175514000Y-113293600D02*
X175514000Y-118973600D01*
X217415111Y-104842311D02*
X216077800Y-103505000D01*
X215823550Y-110819950D02*
X217169750Y-109473750D01*
X176143378Y-110185200D02*
X175514000Y-110814578D01*
X175125279Y-94521121D02*
X177665279Y-94521121D01*
X127747289Y-110149111D02*
X127747289Y-106643911D01*
X211277200Y-103225600D02*
X209518000Y-103225600D01*
X190334900Y-91376500D02*
X192506600Y-89204800D01*
X175514000Y-110814578D02*
X175514000Y-113293600D01*
X162356800Y-97586800D02*
X160223200Y-97586800D01*
X127747289Y-106643911D02*
X127747289Y-103341911D01*
X189064900Y-92646500D02*
X190334900Y-91376500D01*
X186393511Y-116713111D02*
X186033511Y-116713111D01*
X185545600Y-110185200D02*
X184759600Y-110185200D01*
X186397200Y-111036800D02*
X188654000Y-113293600D01*
X127747289Y-112050089D02*
X127747289Y-110149111D01*
X213562700Y-113080800D02*
X214197950Y-112445550D01*
X141325600Y-114604800D02*
X130302000Y-114604800D01*
X128473200Y-112776000D02*
X127747289Y-112050089D01*
X130302000Y-114604800D02*
X129997200Y-114909600D01*
X162712400Y-112776000D02*
X162712400Y-110337600D01*
X185545600Y-110185200D02*
X186397200Y-111036800D01*
X213875338Y-72847200D02*
X214376000Y-72847200D01*
X208975200Y-103768400D02*
X208747120Y-103996480D01*
X157886400Y-97586800D02*
X156413200Y-97586800D01*
X152501600Y-93675200D02*
X152501600Y-91490800D01*
D103*
%TO.N,12V_DC_BUS*%
X192506600Y-100066600D02*
X194676400Y-97896800D01*
X187455344Y-54176159D02*
X201066400Y-40565103D01*
X196646800Y-81940400D02*
X190144400Y-75438000D01*
X203758800Y-73609200D02*
X203708000Y-73558400D01*
X185318400Y-84314463D02*
X185323411Y-84319474D01*
X206110800Y-80873600D02*
X216001600Y-80873600D01*
X168830000Y-111656800D02*
X168830000Y-109038400D01*
X201066400Y-28194000D02*
X202692000Y-26568400D01*
X190144400Y-75438000D02*
X190144400Y-67056000D01*
X196646800Y-92151200D02*
X196646800Y-81991200D01*
X203758800Y-78521600D02*
X203758800Y-73609200D01*
X192506600Y-103860600D02*
X188518800Y-99872800D01*
X202692000Y-26568400D02*
X207137000Y-26568400D01*
X196900800Y-106984800D02*
X197285880Y-107369880D01*
X190144400Y-65731856D02*
X187455344Y-63042800D01*
X196646800Y-81991200D02*
X196855000Y-82199400D01*
X192506600Y-106984800D02*
X196900800Y-106984800D01*
X187455344Y-63042800D02*
X187455344Y-54176159D01*
X201066400Y-40565103D02*
X201066400Y-28194000D01*
X192506600Y-106984800D02*
X192506600Y-100066600D01*
X156413200Y-104648000D02*
X143510000Y-91744800D01*
X143510000Y-91744800D02*
X143510000Y-88138000D01*
X203758800Y-78521600D02*
X206110800Y-80873600D01*
X198526400Y-97896800D02*
X201478000Y-97896800D01*
X196855000Y-82199400D02*
X200081000Y-82199400D01*
X196646800Y-81991200D02*
X196646800Y-81940400D01*
X180614000Y-99872800D02*
X168830000Y-111656800D01*
X185318400Y-81838800D02*
X185318400Y-80264000D01*
X200081000Y-82199400D02*
X203758800Y-78521600D01*
X188518800Y-99872800D02*
X180614000Y-99872800D01*
X194676400Y-97896800D02*
X198526400Y-97896800D01*
X185318400Y-80264000D02*
X190144400Y-75438000D01*
X190144400Y-67056000D02*
X190144400Y-65731856D01*
X185318400Y-81838800D02*
X185318400Y-86766400D01*
X201478000Y-97896800D02*
X202074609Y-98493409D01*
X164439600Y-104648000D02*
X156413200Y-104648000D01*
X192506600Y-105441375D02*
X192506600Y-103860600D01*
X198526400Y-97896800D02*
X198526400Y-94030800D01*
X168830000Y-111656800D02*
X168830000Y-116636800D01*
X198526400Y-94030800D02*
X196646800Y-92151200D01*
X168830000Y-109038400D02*
X164439600Y-104648000D01*
D101*
%TO.N,5V_DC_RPI*%
X153945600Y-119735600D02*
X157044400Y-116636800D01*
X92100400Y-86715600D02*
X98415470Y-86715600D01*
X87172800Y-80518000D02*
X89662000Y-83007200D01*
X157044400Y-111527600D02*
X157044400Y-116636800D01*
X87084499Y-79274365D02*
X87172800Y-79362666D01*
X178584000Y-113643600D02*
X178584000Y-116263600D01*
X178584000Y-119815200D02*
X178584000Y-116263600D01*
X152501600Y-106984800D02*
X157044400Y-111527600D01*
X87172800Y-79362666D02*
X87172800Y-80518000D01*
X87084499Y-77483299D02*
X87084499Y-79274365D01*
X89662000Y-84277200D02*
X92100400Y-86715600D01*
X161830711Y-121423111D02*
X176976089Y-121423111D01*
X176976089Y-121423111D02*
X178584000Y-119815200D01*
X101184070Y-83947000D02*
X129463800Y-83947000D01*
X98415470Y-86715600D02*
X101184070Y-83947000D01*
X129463800Y-83947000D02*
X152501600Y-106984800D01*
X139908200Y-119735600D02*
X153945600Y-119735600D01*
X84328000Y-73137000D02*
X84328000Y-74726800D01*
X157044400Y-116636800D02*
X161830711Y-121423111D01*
X84328000Y-74726800D02*
X87084499Y-77483299D01*
X139908200Y-119735600D02*
X129748200Y-119735600D01*
X89662000Y-83007200D02*
X89662000Y-84277200D01*
D104*
%TO.N,5V_DC_SERVO*%
X178765200Y-34747200D02*
X178765200Y-60756800D01*
X162447170Y-25721910D02*
X162447170Y-26553129D01*
X178765200Y-60756800D02*
X185064400Y-67056000D01*
X115316000Y-26822400D02*
X124815600Y-26822400D01*
X162447170Y-26553129D02*
X167390041Y-31496000D01*
X114858800Y-26822400D02*
X112979200Y-24942800D01*
X175514000Y-31496000D02*
X178765200Y-34747200D01*
X113080800Y-29057600D02*
X115316000Y-26822400D01*
X124815600Y-26822400D02*
X126706430Y-24931570D01*
X161656830Y-24931570D02*
X162447170Y-25721910D01*
X185064400Y-67056000D02*
X179832000Y-67056000D01*
X126706430Y-24931570D02*
X161656830Y-24931570D01*
X115316000Y-26822400D02*
X114858800Y-26822400D01*
X167390041Y-31496000D02*
X175514000Y-31496000D01*
D99*
%TO.N,Net-(C3-Pad1)*%
X65831489Y-116068911D02*
X67056000Y-114844400D01*
X62687200Y-112166400D02*
X65024000Y-112166400D01*
X67056000Y-116128800D02*
X67106800Y-116179600D01*
X58156000Y-120294400D02*
X67056000Y-120294400D01*
X59380511Y-116068911D02*
X65831489Y-116068911D01*
X58156000Y-114844400D02*
X59380511Y-116068911D01*
X65176400Y-112318800D02*
X67106800Y-112318800D01*
X67513200Y-118922800D02*
X67513200Y-119837200D01*
X67056000Y-114844400D02*
X67056000Y-116128800D01*
X67310000Y-112522000D02*
X67310000Y-114590400D01*
%TO.N,Net-(C5-Pad1)*%
X58665593Y-83413600D02*
X58665593Y-83422007D01*
X58665593Y-83422007D02*
X58470800Y-83616800D01*
X62585600Y-77985800D02*
X63152200Y-77419200D01*
X62585600Y-79940400D02*
X61711089Y-80814911D01*
X59621920Y-81306327D02*
X59621920Y-82457273D01*
X59720651Y-81306327D02*
X59621920Y-81306327D01*
X60299278Y-77978000D02*
X62593400Y-77978000D01*
X61711089Y-80814911D02*
X60212067Y-80814911D01*
X60212067Y-80814911D02*
X59720651Y-81306327D01*
X60234069Y-77266800D02*
X60234069Y-77912791D01*
X59621920Y-82457273D02*
X58665593Y-83413600D01*
X60234069Y-77912791D02*
X60299278Y-77978000D01*
X58470800Y-83616800D02*
X58470800Y-84139531D01*
X62585600Y-77985800D02*
X62585600Y-79840400D01*
%TO.N,Net-(C7-Pad1)*%
X65575589Y-90537928D02*
X66562917Y-89550600D01*
X65429990Y-90999421D02*
X65575588Y-90853821D01*
X65166670Y-91347945D02*
X65166670Y-91262737D01*
X66562917Y-89550600D02*
X67716400Y-89550600D01*
X65575588Y-90853821D02*
X65575589Y-90537928D01*
X65166670Y-91262737D02*
X65429990Y-90999421D01*
X64735671Y-91778944D02*
X65166670Y-91347945D01*
D104*
%TO.N,5V_DC_LED*%
X217721511Y-64501689D02*
X214376000Y-67847200D01*
X211857600Y-65328800D02*
X214376000Y-67847200D01*
X190398400Y-81838800D02*
X190398400Y-85199400D01*
X173293080Y-25531080D02*
X175143200Y-27381200D01*
X175143200Y-27381200D02*
X176936400Y-27381200D01*
X196646800Y-66954400D02*
X198272400Y-65328800D01*
X165303200Y-27025600D02*
X166797720Y-25531080D01*
X166797720Y-25531080D02*
X173293080Y-25531080D01*
X198272400Y-65328800D02*
X211857600Y-65328800D01*
X176936400Y-27381200D02*
X180637511Y-23680089D01*
X180637511Y-23680089D02*
X215612967Y-23680089D01*
X196646800Y-67061000D02*
X196646800Y-77221000D01*
X215612967Y-23680089D02*
X217721511Y-25788633D01*
X217721511Y-25788633D02*
X217721511Y-64501689D01*
X190398400Y-85199400D02*
X191051000Y-85852000D01*
D99*
%TO.N,Net-(C11-Pad2)*%
X56759651Y-89648751D02*
X56018629Y-89648751D01*
X58481022Y-90001908D02*
X58480881Y-90002049D01*
X57708800Y-99905200D02*
X57083275Y-99905200D01*
X57083275Y-99905200D02*
X56312340Y-100676135D01*
X58338431Y-90026428D02*
X58325809Y-90026428D01*
X59399904Y-90950983D02*
X59465801Y-90885087D01*
X60227865Y-91778944D02*
X59399904Y-90950983D01*
X58480881Y-90002049D02*
X58369442Y-90002049D01*
X58260918Y-90091319D02*
X57402581Y-90091319D01*
X58325809Y-90026428D02*
X58260918Y-90091319D01*
X58354360Y-90017131D02*
X58347728Y-90017131D01*
X58369442Y-90002049D02*
X58354360Y-90017131D01*
X59465801Y-90367731D02*
X59099978Y-90001908D01*
X58347728Y-90017131D02*
X58338431Y-90026428D01*
X72085200Y-98653600D02*
X72085200Y-101041200D01*
X74676000Y-96062800D02*
X72085200Y-98653600D01*
X57302400Y-90191500D02*
X56759651Y-89648751D01*
X59099978Y-90001908D02*
X58481022Y-90001908D01*
X59465801Y-90885087D02*
X59465801Y-90367731D01*
%TO.N,Net-(C13-Pad1)*%
X65790689Y-28507889D02*
X59339711Y-28507889D01*
X67015200Y-29732400D02*
X65790689Y-28507889D01*
X59339711Y-28507889D02*
X58115200Y-29732400D01*
X58115200Y-29732400D02*
X58115200Y-30953200D01*
X58115200Y-30953200D02*
X59318400Y-32156400D01*
X67015200Y-24282400D02*
X58115200Y-24282400D01*
X58115200Y-24282400D02*
X58115200Y-29732400D01*
X59326600Y-34137600D02*
X59326600Y-32164600D01*
X59318400Y-32156400D02*
X61491200Y-32156400D01*
%TO.N,/Student MCU/HSE_IN*%
X61620400Y-86193600D02*
X60299600Y-84872800D01*
X60299600Y-84823300D02*
X59654911Y-84178611D01*
X60299600Y-84872800D02*
X60299600Y-84823300D01*
X61620400Y-87223600D02*
X61620400Y-86193600D01*
X61780011Y-89795556D02*
X61780011Y-87383211D01*
%TO.N,Net-(C17-Pad1)*%
X59708679Y-48158520D02*
X59708679Y-48086874D01*
X57251600Y-50757233D02*
X59488834Y-48519999D01*
X59488834Y-48519999D02*
X59488834Y-48378365D01*
X59708679Y-48086874D02*
X60128497Y-47667056D01*
X57251600Y-50911400D02*
X57251600Y-50757233D01*
X59488834Y-48378365D02*
X59708679Y-48158520D01*
%TO.N,Net-(C20-Pad1)*%
X64414400Y-55788422D02*
X64414400Y-55575200D01*
X62002400Y-58826400D02*
X62002400Y-60824200D01*
X64519022Y-57708800D02*
X64820800Y-57407022D01*
X64820800Y-56194822D02*
X64414400Y-55788422D01*
X64414400Y-55575200D02*
X64312800Y-55473600D01*
X64820800Y-57407022D02*
X64820800Y-56194822D01*
X64312800Y-55473600D02*
X64312800Y-55154069D01*
X62890400Y-57708800D02*
X64519022Y-57708800D01*
X62002400Y-58596800D02*
X62890400Y-57708800D01*
X61881331Y-61076331D02*
X63550800Y-61076331D01*
%TO.N,Net-(C21-Pad2)*%
X68308720Y-51269220D02*
X68896934Y-51857434D01*
X68308720Y-53712880D02*
X68308720Y-51269220D01*
X66632362Y-49748322D02*
X66650915Y-49748322D01*
X68896934Y-51857434D02*
X74075766Y-51857434D01*
X68308720Y-51269220D02*
X67259200Y-50219700D01*
X66650915Y-49748322D02*
X67122293Y-50219700D01*
X64636303Y-47733710D02*
X66266539Y-49363946D01*
X66266539Y-49363946D02*
X66266539Y-49382499D01*
X64636303Y-47667056D02*
X64636303Y-47733710D01*
X67122293Y-50219700D02*
X67171287Y-50219700D01*
X66266539Y-49382499D02*
X66632362Y-49748322D01*
%TO.N,/Supervisor MCU/HSE_IN*%
X62658000Y-51990000D02*
X62890400Y-52222400D01*
X62164000Y-51990000D02*
X62658000Y-51990000D01*
X65532000Y-54051200D02*
X65532000Y-54457600D01*
X65532000Y-54457600D02*
X65735200Y-54660800D01*
X62868536Y-49434823D02*
X62868536Y-51285464D01*
X62868536Y-51285464D02*
X62164000Y-51990000D01*
%TO.N,Net-(C31-Pad2)*%
X109685800Y-114676400D02*
X109685800Y-112370400D01*
X107551400Y-110236000D02*
X109626400Y-112311000D01*
X112014000Y-112236000D02*
X109701400Y-112236000D01*
%TO.N,Net-(C32-Pad2)*%
X104851200Y-112311000D02*
X107238800Y-112311000D01*
X106597820Y-115050559D02*
X106223661Y-114676400D01*
X106597820Y-118192180D02*
X106597820Y-115050559D01*
X106223661Y-114676400D02*
X105460800Y-114676400D01*
X105460800Y-114676400D02*
X105460800Y-112920600D01*
X105460800Y-112920600D02*
X104851200Y-112311000D01*
X105105200Y-119684800D02*
X106597820Y-118192180D01*
D103*
%TO.N,/Power Input & Distribution/01*%
X201930000Y-104444800D02*
X202227009Y-104147791D01*
X196392800Y-101572000D02*
X199265600Y-104444800D01*
X199265600Y-104444800D02*
X204470000Y-104444800D01*
D101*
%TO.N,USB_BUS*%
X66090800Y-34899600D02*
X67620800Y-34899600D01*
X57658000Y-108254800D02*
X57658000Y-109214000D01*
X57658000Y-109214000D02*
X58064400Y-109620400D01*
D99*
%TO.N,Net-(D2-Pad2)*%
X58064400Y-112420400D02*
X60413200Y-112420400D01*
X60487200Y-114225600D02*
X61006000Y-114744400D01*
X60487200Y-112346400D02*
X60487200Y-114225600D01*
D105*
%TO.N,/Student MCU/USB_P*%
X63855600Y-110236000D02*
X62897600Y-110236000D01*
X62830195Y-113320205D02*
X63529768Y-113320205D01*
X66563666Y-95993425D02*
X66861416Y-95993425D01*
X66149884Y-95579643D02*
X66563666Y-95993425D01*
X63529768Y-113320205D02*
X63794692Y-113055281D01*
X66861416Y-95993425D02*
X67337191Y-96469200D01*
X62606000Y-113544400D02*
X62830195Y-113320205D01*
X62606000Y-114744400D02*
X62606000Y-113544400D01*
X67337191Y-96469200D02*
X67614800Y-96469200D01*
%TO.N,/Student MCU/USB_N*%
X65808796Y-95933196D02*
X66497200Y-96621600D01*
X61518800Y-113257200D02*
X61518800Y-111478000D01*
X61561200Y-109372400D02*
X63246000Y-109372400D01*
X61518800Y-111478000D02*
X60487200Y-110446400D01*
X61806000Y-114744400D02*
X61806000Y-113544400D01*
X66497200Y-96621600D02*
X66598800Y-96621600D01*
X60487200Y-110446400D02*
X61561200Y-109372400D01*
X61806000Y-113544400D02*
X61518800Y-113257200D01*
%TO.N,/Supervisor MCU/USB_P*%
X58657332Y-43866357D02*
X58224973Y-43434000D01*
X58224973Y-43434000D02*
X56682472Y-43434000D01*
X56050189Y-42801717D02*
X56050189Y-41932683D01*
X56093299Y-37413725D02*
X58344904Y-35162120D01*
X58344904Y-35162120D02*
X59891718Y-35162120D01*
X62565200Y-31032400D02*
X62221558Y-31376042D01*
X58714284Y-43866357D02*
X58657332Y-43866357D01*
X62221558Y-31376042D02*
X60581624Y-31376042D01*
X59891718Y-35162120D02*
X60684119Y-34369719D01*
X60946638Y-34107200D02*
X61722000Y-34107200D01*
X56050189Y-41932683D02*
X56093299Y-41889574D01*
X56682472Y-43434000D02*
X56050189Y-42801717D01*
X62565200Y-29832400D02*
X62565200Y-31032400D01*
X56093299Y-41889574D02*
X56093299Y-37413725D01*
X60684119Y-34369719D02*
X60946638Y-34107200D01*
%TO.N,/Supervisor MCU/USB_N*%
X62922489Y-31252222D02*
X63365200Y-30809511D01*
X58658755Y-43103722D02*
X58459689Y-43103722D01*
X62922489Y-33107689D02*
X62922489Y-31252222D01*
X56830167Y-43016701D02*
X56449699Y-42636233D01*
X58459689Y-43103722D02*
X58372668Y-43016701D01*
X62654612Y-35374588D02*
X63922000Y-34107200D01*
X56497289Y-42050577D02*
X56497289Y-37827982D01*
X63365200Y-30809511D02*
X63365200Y-29832400D01*
X60643240Y-35561631D02*
X60830284Y-35374588D01*
X58372668Y-43016701D02*
X56830167Y-43016701D01*
X56449699Y-42098167D02*
X56497289Y-42050577D01*
X63922000Y-34107200D02*
X62922489Y-33107689D01*
X59067837Y-43512804D02*
X58658755Y-43103722D01*
X58763642Y-35561630D02*
X60643240Y-35561631D01*
X56497289Y-37827982D02*
X58763642Y-35561630D01*
X60830284Y-35374588D02*
X62654612Y-35374588D01*
X56449699Y-42636233D02*
X56449699Y-42098167D01*
D99*
%TO.N,Net-(D4-Pad4)*%
X63922000Y-32207200D02*
X67513200Y-32207200D01*
X64165200Y-29832400D02*
X64165200Y-31964000D01*
%TO.N,/Power Input & Distribution/02*%
X196258400Y-110896400D02*
X195106800Y-110896400D01*
X197510400Y-109644400D02*
X196258400Y-110896400D01*
%TO.N,Net-(D7-Pad1)*%
X53576000Y-69469000D02*
X53576000Y-72694000D01*
%TO.N,Net-(D8-Pad2)*%
X94640400Y-116078000D02*
X94640400Y-118244400D01*
%TO.N,Net-(D9-Pad2)*%
X104800400Y-24282400D02*
X102634000Y-24282400D01*
D101*
%TO.N,/Power Input & Distribution/5_to_3v3_reg*%
X80112400Y-68769200D02*
X82500200Y-68769200D01*
X82500200Y-68769200D02*
X84328000Y-70597000D01*
X80112400Y-68769200D02*
X80112400Y-65532800D01*
D103*
%TO.N,/Power Input & Distribution/12V_DC*%
X203620000Y-113080800D02*
X209004800Y-107696000D01*
X209004800Y-107696000D02*
X213715600Y-107696000D01*
%TO.N,/Power Input & Distribution/12V*%
X213715600Y-85096000D02*
X213715600Y-91377222D01*
X213715600Y-91377222D02*
X203848422Y-101244400D01*
%TO.N,/DC Motor Controller/HC*%
X143510000Y-110738000D02*
X143510000Y-103687000D01*
X143510000Y-103687000D02*
X129971200Y-90148200D01*
X129971200Y-90148200D02*
X128981200Y-90148200D01*
D99*
%TO.N,Net-(J2-Pad2)*%
X123069600Y-38322000D02*
X126390400Y-35001200D01*
X126390400Y-35001200D02*
X126390400Y-34442400D01*
X126390400Y-34442400D02*
X127790210Y-33042590D01*
X127790210Y-33042590D02*
X133987810Y-33042590D01*
%TO.N,Net-(J8-Pad1)*%
X78943200Y-106969800D02*
X78943200Y-104038400D01*
X58106545Y-94872536D02*
X58057532Y-94872536D01*
X81889600Y-109916200D02*
X78943200Y-106969800D01*
X78943200Y-104038400D02*
X79298800Y-103682800D01*
X81889600Y-110032800D02*
X81889600Y-109916200D01*
X58057532Y-94872536D02*
X57840739Y-94655743D01*
%TO.N,Net-(J8-Pad2)*%
X80577689Y-103470711D02*
X80715089Y-103608111D01*
X61995632Y-98963046D02*
X61246875Y-99711803D01*
X80715089Y-106318289D02*
X81889600Y-107492800D01*
X80715089Y-103608111D02*
X80715089Y-106318289D01*
X61995632Y-98761623D02*
X61995632Y-98963046D01*
%TO.N,Net-(J8-Pad3)*%
X65442778Y-96286749D02*
X65854368Y-96698339D01*
X66446400Y-97453979D02*
X66446400Y-101814845D01*
X66446400Y-101814845D02*
X67667142Y-103035587D01*
X65854368Y-96861947D02*
X66446400Y-97453979D01*
X65854368Y-96698339D02*
X65854368Y-96861947D01*
%TO.N,Net-(J8-Pad4)*%
X75313320Y-90604120D02*
X73888027Y-90604120D01*
X71689628Y-89553480D02*
X71088008Y-90155099D01*
X73551480Y-90010680D02*
X73094280Y-89553480D01*
X73094280Y-89553480D02*
X71689628Y-89553480D01*
X68052421Y-92608400D02*
X68219722Y-92441099D01*
X68735202Y-91338998D02*
X68735202Y-92293093D01*
X76200000Y-91490800D02*
X75313320Y-90604120D01*
X68587196Y-92441099D02*
X68735202Y-92293093D01*
X66734641Y-92608400D02*
X68052421Y-92608400D01*
X71088008Y-90155099D02*
X69919101Y-90155099D01*
X73888027Y-90604120D02*
X73551480Y-90267573D01*
X68219722Y-92441099D02*
X68587196Y-92441099D01*
X69919101Y-90155099D02*
X68735202Y-91338998D01*
X73551480Y-90267573D02*
X73551480Y-90010680D01*
X66149884Y-93193157D02*
X66734641Y-92608400D01*
%TO.N,Net-(J8-Pad5)*%
X66431513Y-91269304D02*
X66590992Y-91269304D01*
X66065690Y-91635127D02*
X66431513Y-91269304D01*
X65442778Y-92486051D02*
X66065690Y-91863139D01*
X66065690Y-91863139D02*
X66065690Y-91635127D01*
X66590992Y-91269304D02*
X66649600Y-91210696D01*
X66649600Y-91210696D02*
X66649600Y-90982800D01*
%TO.N,Net-(J8-Pad6)*%
X66294000Y-88798400D02*
X66528880Y-88563520D01*
X68987304Y-87903989D02*
X70338011Y-87903989D01*
X64626567Y-88961411D02*
X64707085Y-88880893D01*
X64217648Y-90874747D02*
X64217648Y-90869641D01*
X70338011Y-87903989D02*
X71983600Y-86258400D01*
X64626567Y-90460724D02*
X64626567Y-88961411D01*
X64028564Y-91071837D02*
X64028564Y-91063831D01*
X64028564Y-91063831D02*
X64217648Y-90874747D01*
X68327773Y-88563520D02*
X68987304Y-87903989D01*
X64217648Y-90869641D02*
X64626567Y-90460724D01*
X66528880Y-88563520D02*
X68327773Y-88563520D01*
%TO.N,Net-(J8-Pad7)*%
X63485701Y-88769653D02*
X63485701Y-88510523D01*
X63675011Y-90718284D02*
X64145499Y-90247796D01*
X64145499Y-90247796D02*
X64145499Y-89429451D01*
X64145499Y-89429451D02*
X63485701Y-88769653D01*
%TO.N,/Student MCU/MODE_2*%
X60553600Y-99496549D02*
X60553600Y-100634800D01*
X61642079Y-98408070D02*
X60553600Y-99496549D01*
%TO.N,/Student MCU/SPARE_3*%
X61113104Y-98247904D02*
X61060896Y-98247904D01*
X59740800Y-101241751D02*
X59844415Y-101345366D01*
X61060896Y-98247904D02*
X59740800Y-99568000D01*
X61288525Y-98072483D02*
X61113104Y-98247904D01*
X61288525Y-98054516D02*
X61288525Y-98072483D01*
X59740800Y-99568000D02*
X59740800Y-101241751D01*
%TO.N,/Output Logic/STUDENT_MOTOR_EN*%
X93893952Y-92049600D02*
X99989952Y-85953600D01*
X87571511Y-97547890D02*
X87571511Y-94023111D01*
X141304380Y-60843020D02*
X138091188Y-60843020D01*
X89591621Y-99568000D02*
X87571511Y-97547890D01*
X141949400Y-60198000D02*
X141304380Y-60843020D01*
X137161408Y-61772800D02*
X130098800Y-61772800D01*
X87571511Y-94023111D02*
X85852000Y-92303600D01*
X85852000Y-92303600D02*
X86106000Y-92049600D01*
X138091188Y-60843020D02*
X137161408Y-61772800D01*
X99989952Y-85953600D02*
X107391200Y-85953600D01*
X90757200Y-99568000D02*
X89591621Y-99568000D01*
X86106000Y-92049600D02*
X93893952Y-92049600D01*
%TO.N,/Student MCU/SHIFT_1*%
X87122000Y-97734083D02*
X90225917Y-100838000D01*
X85852000Y-94843600D02*
X87122000Y-96113600D01*
X87122000Y-96113600D02*
X87122000Y-97734083D01*
%TO.N,/Student MCU/SHIFT_2*%
X86524693Y-98045579D02*
X87476022Y-98996908D01*
X86318706Y-98045578D02*
X86524693Y-98045579D01*
X87476021Y-99202893D02*
X90381128Y-102108000D01*
X85852000Y-97578872D02*
X86318706Y-98045578D01*
X87476022Y-98996908D02*
X87476021Y-99202893D01*
%TO.N,/Student MCU/SHIFT_3*%
X86106000Y-99923600D02*
X85852000Y-99923600D01*
X90757200Y-103378000D02*
X89560400Y-103378000D01*
X89560400Y-103378000D02*
X86106000Y-99923600D01*
%TO.N,/Output Logic/STUDENT_DIRECTION*%
X130251200Y-66598800D02*
X130505200Y-66344800D01*
X130505200Y-66344800D02*
X132043400Y-66344800D01*
X94715896Y-98298000D02*
X93789148Y-99224748D01*
X95707200Y-98298000D02*
X94715896Y-98298000D01*
%TO.N,/Output Logic/STUDENT_STEP_EN*%
X85852000Y-105003600D02*
X86426178Y-105577778D01*
X93334978Y-100847318D02*
X94614296Y-99568000D01*
X86426178Y-105577778D02*
X92104601Y-105577778D01*
X93334978Y-104347401D02*
X93334978Y-100847318D01*
X92104601Y-105577778D02*
X93334978Y-104347401D01*
X94614296Y-99568000D02*
X95707200Y-99568000D01*
X133908800Y-76301600D02*
X136245600Y-73964800D01*
%TO.N,/Output Logic/STUDENT_STEP_RST*%
X136412900Y-68884800D02*
X135193700Y-70104000D01*
X93784489Y-101338311D02*
X94132400Y-100990400D01*
X95707200Y-100838000D02*
X94284800Y-100838000D01*
X92290795Y-106027288D02*
X93784489Y-104533594D01*
X87368312Y-106027288D02*
X92290795Y-106027288D01*
X94284800Y-100838000D02*
X94132400Y-100990400D01*
X85852000Y-107543600D02*
X87368312Y-106027288D01*
X93784489Y-104533594D02*
X93784489Y-101338311D01*
%TO.N,/Student MCU/SHIFT_7*%
X89204800Y-106476800D02*
X92476985Y-106476800D01*
X94284800Y-102666800D02*
X94843600Y-102108000D01*
X85852000Y-109829600D02*
X89204800Y-106476800D01*
X85852000Y-110083600D02*
X85852000Y-109829600D01*
X94284800Y-104668985D02*
X94284800Y-102666800D01*
X94843600Y-102108000D02*
X95707200Y-102108000D01*
X92476985Y-106476800D02*
X94284800Y-104668985D01*
%TO.N,Net-(J12-Pad1)*%
X82297711Y-34130511D02*
X80055422Y-36372800D01*
X68230584Y-44573464D02*
X68646231Y-44989111D01*
X85293200Y-25450800D02*
X82118200Y-28625800D01*
X78446373Y-36615627D02*
X78446373Y-40476427D01*
X78446373Y-40476427D02*
X78782920Y-40812974D01*
X78782920Y-40812974D02*
X78782920Y-43715459D01*
X80055422Y-36372800D02*
X78689200Y-36372800D01*
X82297711Y-28805311D02*
X82297711Y-34130511D01*
X78605153Y-43893226D02*
X78605153Y-44094401D01*
X78689200Y-36372800D02*
X78446373Y-36615627D01*
X82118200Y-28625800D02*
X82297711Y-28805311D01*
X78782920Y-43715459D02*
X78605153Y-43893226D01*
X66757623Y-44573464D02*
X68230584Y-44573464D01*
%TO.N,Net-(J12-Pad2)*%
X62868536Y-38985464D02*
X62890400Y-38963600D01*
X62868536Y-40684377D02*
X62868536Y-38985464D01*
%TO.N,Net-(J12-Pad3)*%
X57759600Y-42031179D02*
X57759600Y-41808400D01*
X58389218Y-42432901D02*
X58161322Y-42432901D01*
X59421390Y-43159251D02*
X58941351Y-42679212D01*
X58161322Y-42432901D02*
X57759600Y-42031179D01*
X58635528Y-42679211D02*
X58389218Y-42432901D01*
X58941351Y-42679212D02*
X58635528Y-42679211D01*
%TO.N,Net-(J12-Pad4)*%
X84118689Y-36632911D02*
X81838800Y-38912800D01*
X57623644Y-46800423D02*
X57320862Y-47103205D01*
X84118689Y-34245311D02*
X84118689Y-36632911D01*
X58714284Y-46252843D02*
X58166704Y-46800423D01*
X85293200Y-33070800D02*
X84118689Y-34245311D01*
X58166704Y-46800423D02*
X57623644Y-46800423D01*
%TO.N,Net-(J12-Pad5)*%
X58414822Y-47966517D02*
X58414822Y-48075128D01*
X59421390Y-46959949D02*
X58414822Y-47966517D01*
%TO.N,Net-(J12-Pad6)*%
X58928000Y-50422952D02*
X58928000Y-51003200D01*
X60437855Y-48771912D02*
X60437855Y-48913097D01*
X60835604Y-48374163D02*
X60437855Y-48771912D01*
X60437855Y-48913097D02*
X58928000Y-50422952D01*
%TO.N,SERVO_2*%
X61189157Y-48797494D02*
X60887366Y-49099285D01*
X60887366Y-49099285D02*
X60887365Y-49099291D01*
X60887365Y-49099291D02*
X60050191Y-49936466D01*
X60050191Y-49936466D02*
X60050191Y-50502019D01*
X61189157Y-48727716D02*
X61189157Y-48797494D01*
%TO.N,/Output Logic/SUPERVISOR_MOTOR_EN*%
X96240600Y-31572200D02*
X96240600Y-38354704D01*
X96240600Y-38354704D02*
X95191510Y-39403794D01*
X96443800Y-31369000D02*
X96240600Y-31572200D01*
X97572600Y-31369000D02*
X96443800Y-31369000D01*
X95191511Y-39547786D02*
X91559297Y-43180000D01*
X99390200Y-31369000D02*
X99669600Y-31089600D01*
X142494000Y-40436800D02*
X142494000Y-41452800D01*
X97572600Y-31369000D02*
X99390200Y-31369000D01*
X142494000Y-41452800D02*
X143103600Y-42062400D01*
X95191510Y-39403794D02*
X95191511Y-39547786D01*
X91559297Y-43180000D02*
X89001600Y-43180000D01*
%TO.N,/Output Logic/MCU_MOTOR_SELECT*%
X141695400Y-56642000D02*
X141949400Y-56388000D01*
X95156089Y-34927287D02*
X95156089Y-31817807D01*
X140411200Y-61518800D02*
X141898600Y-61518800D01*
X138238004Y-60060500D02*
X139085980Y-60060500D01*
X129235200Y-58832672D02*
X130948438Y-60545910D01*
X130948438Y-60545910D02*
X137752594Y-60545910D01*
X137752594Y-60545910D02*
X138238004Y-60060500D01*
X93463593Y-40640000D02*
X94742000Y-39361593D01*
X140309600Y-56642000D02*
X141695400Y-56642000D01*
X94742000Y-39361593D02*
X94742000Y-35341376D01*
X129224675Y-58467125D02*
X127489380Y-58467125D01*
X89001600Y-40640000D02*
X93463593Y-40640000D01*
X94742000Y-35341376D02*
X95156089Y-34927287D01*
X95156089Y-31817807D02*
X96874896Y-30099000D01*
%TO.N,/Output Logic/MCU_STEP_SELECT*%
X136993400Y-67614800D02*
X134061200Y-67614800D01*
X94706578Y-34236836D02*
X94706579Y-31318949D01*
X94076540Y-34866874D02*
X94706578Y-34236836D01*
X132043400Y-72694800D02*
X136993400Y-72694800D01*
X134061200Y-67614800D02*
X134010400Y-67665600D01*
X132043400Y-67614800D02*
X132653000Y-68224400D01*
X131775200Y-57266500D02*
X131269539Y-56760839D01*
X132653000Y-68224400D02*
X133451600Y-68224400D01*
X131775200Y-58456600D02*
X131775200Y-57266500D01*
X133451600Y-68224400D02*
X134010400Y-67665600D01*
X94706579Y-31318949D02*
X97196528Y-28829000D01*
%TO.N,/Output Logic/MCU_PIXEL_SELECT*%
X95986600Y-27559000D02*
X97572600Y-27559000D01*
X91277120Y-33284480D02*
X93644152Y-33284480D01*
X146899400Y-61468000D02*
X145338800Y-61468000D01*
X94257067Y-29288533D02*
X95986600Y-27559000D01*
X139852400Y-59436000D02*
X138125200Y-59436000D01*
X138125200Y-59436000D02*
X137464800Y-60096400D01*
X134315200Y-59182000D02*
X135229600Y-60096400D01*
X137464800Y-60096400D02*
X135229600Y-60096400D01*
X89001600Y-35560000D02*
X91277120Y-33284480D01*
X133248400Y-55880000D02*
X134315200Y-56946800D01*
X94257067Y-32671565D02*
X94257067Y-29288533D01*
X134315200Y-56946800D02*
X134315200Y-58456600D01*
X93644152Y-33284480D02*
X94257067Y-32671565D01*
%TO.N,/Output Logic/SUPERVISOR_DIRECTION*%
X90474800Y-33020000D02*
X90982800Y-32512000D01*
X89001600Y-33020000D02*
X90474800Y-33020000D01*
X90982800Y-32512000D02*
X92495600Y-32512000D01*
X128506081Y-41452800D02*
X126364640Y-43594241D01*
X126364640Y-43594241D02*
X126364640Y-43796811D01*
%TO.N,/Output Logic/SUPERVISOR_STEP_EN*%
X132873048Y-47178280D02*
X130944497Y-45249729D01*
X135194120Y-47456248D02*
X134916152Y-47178280D01*
X89001600Y-30480000D02*
X89890600Y-31369000D01*
X135194120Y-48149352D02*
X135194120Y-47456248D01*
X89890600Y-31369000D02*
X92622600Y-31369000D01*
X134916152Y-47178280D02*
X132873048Y-47178280D01*
X134270672Y-49072800D02*
X135194120Y-48149352D01*
X130944497Y-45249729D02*
X130944497Y-43451052D01*
%TO.N,/Output Logic/SUPERVISOR_STEP_RST*%
X89001600Y-27940000D02*
X91160600Y-30099000D01*
X91160600Y-30099000D02*
X92622600Y-30099000D01*
X133495450Y-43992800D02*
X132225450Y-42722800D01*
%TO.N,/Supervisor MCU/SHIFT_REG_7*%
X90176111Y-26758583D02*
X92246528Y-28829000D01*
X90176111Y-26574511D02*
X90176111Y-26758583D01*
X89001600Y-25400000D02*
X90176111Y-26574511D01*
D103*
%TO.N,/DC Motor Controller/HC3*%
X197805200Y-50178600D02*
X214051800Y-50178600D01*
X214051800Y-50178600D02*
X214579200Y-50706000D01*
%TO.N,/DC Motor Controller/HC2*%
X197805200Y-55178600D02*
X214051800Y-55178600D01*
X214051800Y-55178600D02*
X214579200Y-55706000D01*
%TO.N,/DC Motor Controller/HC1*%
X214051800Y-60178600D02*
X214579200Y-60706000D01*
X197805200Y-60178600D02*
X214051800Y-60178600D01*
D99*
%TO.N,Net-(J22-Pad1)*%
X118872000Y-117195600D02*
X112134400Y-117195600D01*
X112134400Y-117195600D02*
X109645200Y-119684800D01*
X107105200Y-119684800D02*
X109645200Y-119684800D01*
%TO.N,Net-(J22-Pad2)*%
X112014000Y-110236000D02*
X116912400Y-110236000D01*
X116912400Y-110236000D02*
X123872000Y-117195600D01*
%TO.N,/Digital Sensor Buffers/D_IN_A*%
X128411740Y-30073600D02*
X142138400Y-30073600D01*
X93488320Y-53608901D02*
X100569099Y-53608901D01*
X101600000Y-52578000D02*
X101600000Y-50393600D01*
X101600000Y-50393600D02*
X113588800Y-38404800D01*
X91643200Y-56424600D02*
X91643200Y-55454021D01*
X113639600Y-38404800D02*
X114495990Y-37548410D01*
X119744280Y-35162280D02*
X123323060Y-35162280D01*
X114495990Y-37548410D02*
X114655600Y-37548410D01*
X123323060Y-35162280D02*
X128411740Y-30073600D01*
X91643200Y-55454021D02*
X93488320Y-53608901D01*
X100569099Y-53608901D02*
X101600000Y-52578000D01*
%TO.N,/Digital Sensor Buffers/D_IN_B*%
X134356325Y-32333083D02*
X127864013Y-32333083D01*
X114566246Y-43828154D02*
X116738400Y-41656000D01*
X106189282Y-54058411D02*
X114566246Y-45681446D01*
X127864013Y-32333083D02*
X125940890Y-34256206D01*
X125940890Y-34256206D02*
X125940889Y-34561007D01*
X125940889Y-34561007D02*
X123104416Y-37397480D01*
X94183200Y-56048528D02*
X96173317Y-54058411D01*
X96173317Y-54058411D02*
X106189282Y-54058411D01*
X119427047Y-37397480D02*
X119276117Y-37548410D01*
X123104416Y-37397480D02*
X119427047Y-37397480D01*
X119125187Y-37548410D02*
X119276117Y-37548410D01*
X114566246Y-45681446D02*
X114566246Y-43828154D01*
X118249997Y-38423600D02*
X119125187Y-37548410D01*
%TO.N,/Digital Sensor Buffers/D_IN_E*%
X105537000Y-43103800D02*
X111092390Y-37548410D01*
X95453200Y-51098528D02*
X97964664Y-48587064D01*
X97964664Y-48587064D02*
X100917336Y-48587064D01*
X100917336Y-48587064D02*
X105537000Y-43967400D01*
X113588800Y-33782000D02*
X113030000Y-33223200D01*
X105537000Y-43967400D02*
X105537000Y-43103800D01*
X111092390Y-37548410D02*
X111455200Y-37548410D01*
%TO.N,/Digital Sensor Buffers/D_IN_D*%
X138719422Y-29174578D02*
X140868400Y-27025600D01*
X126932194Y-29202310D02*
X126959926Y-29174578D01*
X118271800Y-34153600D02*
X123223090Y-29202310D01*
X123223090Y-29202310D02*
X126932194Y-29202310D01*
X117992400Y-33934400D02*
X115316000Y-33934400D01*
X126959926Y-29174578D02*
X138719422Y-29174578D01*
X101582993Y-49166711D02*
X111810800Y-38938904D01*
X99925017Y-49166711D02*
X101582993Y-49166711D01*
X97993200Y-51098528D02*
X99925017Y-49166711D01*
X111810800Y-38938904D02*
X111810800Y-38912800D01*
%TO.N,/Digital Sensor Buffers/D_IN_C*%
X96723200Y-56048528D02*
X98110928Y-54660800D01*
X121005600Y-34239200D02*
X122545600Y-34239200D01*
X106629200Y-54660800D02*
X119227600Y-42062400D01*
X140809911Y-29624089D02*
X143408400Y-27025600D01*
X122716800Y-34153600D02*
X127246311Y-29624089D01*
X127246311Y-29624089D02*
X140809911Y-29624089D01*
X98110928Y-54660800D02*
X106629200Y-54660800D01*
%TO.N,A_BUFFER_OUT_A*%
X110251000Y-88493600D02*
X112572800Y-90815400D01*
X108668500Y-87223600D02*
X108668500Y-88493600D01*
X108668500Y-88493600D02*
X110251000Y-88493600D01*
%TO.N,A_BUFFER_OUT_B*%
X113747311Y-97158289D02*
X113747311Y-89449911D01*
X113747311Y-89449911D02*
X112572800Y-88275400D01*
%TO.N,Net-(J28-Pad1)*%
X60934972Y-91071837D02*
X60364824Y-90501689D01*
X59297375Y-88927897D02*
X58930082Y-88927897D01*
X55980511Y-77367311D02*
X55980511Y-84580911D01*
X58513080Y-87113480D02*
X58513080Y-88510895D01*
X55980511Y-84580911D02*
X58513080Y-87113480D01*
X60364824Y-90501689D02*
X60364822Y-89995344D01*
X60364822Y-89995344D02*
X59297375Y-88927897D01*
X54914800Y-76301600D02*
X55980511Y-77367311D01*
X58513080Y-88510895D02*
X58930082Y-88927897D01*
X54914800Y-76301600D02*
X54965600Y-76301600D01*
%TO.N,A_BUFFER_IN*%
X116512800Y-105206800D02*
X114096800Y-105206800D01*
X114096800Y-105206800D02*
X114046000Y-105257600D01*
%TO.N,Net-(C14-Pad1)*%
X59080400Y-83634497D02*
X59453697Y-83261200D01*
X59453697Y-83261200D02*
X60045600Y-83261200D01*
X60935600Y-79840400D02*
X58606000Y-79840400D01*
X59080400Y-84175600D02*
X59080400Y-83634497D01*
%TO.N,/Output Logic/PIXEL_DATA_OUT*%
X122625530Y-40420677D02*
X122625530Y-57195130D01*
X157930300Y-62948100D02*
X156768800Y-64109600D01*
X122625530Y-57195130D02*
X124714000Y-59283600D01*
X157930300Y-62433200D02*
X157930300Y-62948100D01*
%TO.N,/Student MCU/SERVO_2*%
X59291290Y-99381806D02*
X59291289Y-100322311D01*
X60567124Y-98105972D02*
X59291290Y-99381806D01*
X50892500Y-100347004D02*
X50966618Y-100347004D01*
X50440378Y-99894882D02*
X50892500Y-100347004D01*
X54543803Y-66278000D02*
X50440378Y-70381425D01*
X50440378Y-70381425D02*
X50440378Y-99894882D01*
X58623200Y-66278000D02*
X54543803Y-66278000D01*
X56555300Y-101585100D02*
X56134000Y-102006400D01*
X59081701Y-100531899D02*
X59081701Y-100836699D01*
X59291289Y-100322311D02*
X59081701Y-100531899D01*
X60934972Y-97700963D02*
X60567124Y-98068811D01*
X59081701Y-100836699D02*
X58333300Y-101585100D01*
X60567124Y-98068811D02*
X60567124Y-98105972D01*
X58333300Y-101585100D02*
X56555300Y-101585100D01*
%TO.N,/Supervisor MCU/STDNT_SRVO_RX_2*%
X57919476Y-63574276D02*
X57919476Y-63039767D01*
X65760169Y-51942569D02*
X65938400Y-52120800D01*
X63929196Y-48374163D02*
X65202913Y-49647880D01*
X65202913Y-49647880D02*
X65202913Y-50103751D01*
X65760169Y-50661007D02*
X65760169Y-51942569D01*
X65202913Y-50103751D02*
X65760169Y-50661007D01*
X58623200Y-64278000D02*
X57919476Y-63574276D01*
%TO.N,LIMIT_2*%
X65404857Y-96955936D02*
X65404858Y-97048141D01*
X96520000Y-85852000D02*
X96520000Y-84586600D01*
X65404858Y-97048141D02*
X65938400Y-97581683D01*
X65938400Y-97581683D02*
X65938400Y-102190022D01*
X65938400Y-102190022D02*
X66136607Y-102388229D01*
X65089224Y-96640303D02*
X65404857Y-96955936D01*
%TO.N,Net-(R26-Pad2)*%
X96367600Y-82434200D02*
X96367600Y-79167000D01*
%TO.N,Net-(R27-Pad2)*%
X93827600Y-82434200D02*
X93827600Y-79167000D01*
%TO.N,Net-(R28-Pad2)*%
X98907600Y-82434200D02*
X98907600Y-79167000D01*
%TO.N,Net-(R29-Pad2)*%
X100228400Y-74166200D02*
X100228400Y-71089800D01*
%TO.N,Net-(R30-Pad2)*%
X95148400Y-74166200D02*
X95148400Y-71037200D01*
%TO.N,Net-(R31-Pad2)*%
X97688400Y-74166200D02*
X97688400Y-71024800D01*
%TO.N,/Analog Sensor Buffers/DB2B*%
X103644400Y-104851200D02*
X100974400Y-104851200D01*
X103644400Y-103581200D02*
X103644400Y-104851200D01*
%TO.N,/Analog Sensor Buffers/DB4B*%
X111674400Y-97231200D02*
X108594400Y-97231200D01*
X108594400Y-97231200D02*
X108594400Y-98501200D01*
%TO.N,/Analog Sensor Buffers/DB1B*%
X103644400Y-97231200D02*
X103644400Y-98501200D01*
X103644400Y-97231200D02*
X100936900Y-97231200D01*
%TO.N,/Analog Sensor Buffers/DB3B*%
X108594400Y-103581200D02*
X108594400Y-104851200D01*
X111067600Y-103581200D02*
X111658400Y-104172000D01*
X108594400Y-103581200D02*
X111067600Y-103581200D01*
%TO.N,/Student MCU/HSE_OUT*%
X61279701Y-89666678D02*
X61330501Y-89615878D01*
X60607979Y-88122000D02*
X59791600Y-88122000D01*
X61330501Y-88844522D02*
X60607979Y-88122000D01*
X61279701Y-90002352D02*
X61279701Y-89666678D01*
X61330501Y-89615878D02*
X61330501Y-88844522D01*
X61642079Y-90364730D02*
X61279701Y-90002352D01*
%TO.N,/Supervisor MCU/HSE_OUT*%
X63222089Y-49081270D02*
X64008000Y-49867181D01*
X64008000Y-49867181D02*
X64008000Y-51171600D01*
%TO.N,/Digital Sensor Buffers/D_OUT_B1*%
X59198948Y-42229701D02*
X58980404Y-42229701D01*
X58980404Y-42229701D02*
X58559103Y-41808400D01*
X92227400Y-63982600D02*
X92760800Y-63449200D01*
X59774944Y-42805697D02*
X59198948Y-42229701D01*
X92227400Y-65143200D02*
X92227400Y-63982600D01*
%TO.N,Net-(U8-Pad2)*%
X130505200Y-58456600D02*
X130505200Y-57150000D01*
X148996400Y-51460400D02*
X149250400Y-51460400D01*
X146913600Y-46636328D02*
X143639192Y-43361920D01*
X130505200Y-57150000D02*
X130251200Y-56896000D01*
X143639192Y-43361920D02*
X142472720Y-43361920D01*
X146913600Y-47012400D02*
X146913600Y-49377600D01*
X142472720Y-43361920D02*
X141833600Y-42722800D01*
X146913600Y-49377600D02*
X148996400Y-51460400D01*
%TO.N,Net-(U11-Pad13)*%
X130244120Y-51599448D02*
X130244120Y-48726248D01*
X130244120Y-48726248D02*
X129320672Y-47802800D01*
X128944600Y-42722800D02*
X129569101Y-42098299D01*
X133045200Y-58456600D02*
X133045200Y-56743600D01*
X131129720Y-54828120D02*
X131129720Y-52485048D01*
X129320672Y-47802800D02*
X130244120Y-46879352D01*
X133270099Y-42098299D02*
X133894600Y-42722800D01*
X129569101Y-42098299D02*
X133270099Y-42098299D01*
X130244120Y-43646248D02*
X129320672Y-42722800D01*
X130244120Y-51599448D02*
X131129720Y-52485048D01*
X133045200Y-56743600D02*
X131129720Y-54828120D01*
X130244120Y-46879352D02*
X130244120Y-43646248D01*
X128944600Y-47802800D02*
X133894600Y-47802800D01*
%TO.N,Net-(U12-Pad13)*%
X146899400Y-56388000D02*
X145542000Y-56388000D01*
X145542000Y-56388000D02*
X145389600Y-56235600D01*
X135585200Y-56896000D02*
X135585200Y-58456600D01*
%TO.N,Net-(U14-Pad3)*%
X152196800Y-57353200D02*
X151282400Y-56438800D01*
X147929600Y-43840400D02*
X152760020Y-48670820D01*
X147929600Y-42316400D02*
X148183600Y-42062400D01*
X142648328Y-44551600D02*
X143306800Y-44551600D01*
X140563600Y-46636328D02*
X142648328Y-44551600D01*
X147929600Y-43840400D02*
X147929600Y-42316400D01*
X152760020Y-48670820D02*
X152760020Y-52034100D01*
%TO.N,Net-(U14-Pad2)*%
X148277797Y-51975803D02*
X148277797Y-51402197D01*
X145389600Y-49428400D02*
X144373600Y-48412400D01*
X154736800Y-54559200D02*
X153670000Y-53492400D01*
X148277797Y-51402197D02*
X146304000Y-49428400D01*
X149794394Y-53492400D02*
X148277797Y-51975803D01*
X144373600Y-48412400D02*
X144373600Y-47012400D01*
X153670000Y-56083200D02*
X154736800Y-55016400D01*
X153670000Y-53492400D02*
X149794394Y-53492400D01*
X154736800Y-55016400D02*
X154736800Y-54559200D01*
X146304000Y-49428400D02*
X145389600Y-49428400D01*
%TO.N,Net-(U14-Pad5)*%
X153856193Y-53042889D02*
X152856061Y-53042889D01*
X155186311Y-58063261D02*
X155186310Y-54373006D01*
X151993600Y-52180428D02*
X151993600Y-49176328D01*
X155186310Y-54373006D02*
X153856193Y-53042889D01*
X153356372Y-59893200D02*
X155186311Y-58063261D01*
X151993600Y-49176328D02*
X148530152Y-45712880D01*
X152856061Y-53042889D02*
X151993600Y-52180428D01*
X147648008Y-45712880D02*
X144373600Y-42438472D01*
X148530152Y-45712880D02*
X147648008Y-45712880D01*
%TO.N,Net-(U11-Pad3)*%
X155699053Y-43197147D02*
X154477084Y-43197147D01*
X128944600Y-43992800D02*
X127406400Y-43992800D01*
X127304800Y-44094400D02*
X127304800Y-44043600D01*
X127406400Y-43992800D02*
X127304800Y-44094400D01*
X155919400Y-42976800D02*
X155699053Y-43197147D01*
%TO.N,Net-(U10-Pad3)*%
X153763911Y-43027141D02*
X153763911Y-50874333D01*
X130708400Y-67208400D02*
X130868480Y-67048320D01*
X130868480Y-67048320D02*
X130963808Y-67048320D01*
X153763911Y-50874333D02*
X154340189Y-51450611D01*
X131021848Y-66990280D02*
X139024680Y-66990280D01*
X139024680Y-66990280D02*
X139141200Y-67106800D01*
X155084252Y-41706800D02*
X153763911Y-43027141D01*
X130708400Y-67925872D02*
X130708400Y-67208400D01*
X130708400Y-67925872D02*
X131667328Y-68884800D01*
X130963808Y-67048320D02*
X131021848Y-66990280D01*
%TO.N,Net-(U10-Pad4)*%
X138821480Y-68239320D02*
X138836400Y-68224400D01*
X157952101Y-46598501D02*
X157952101Y-49838404D01*
X156870400Y-45516800D02*
X157952101Y-46598501D01*
X157952101Y-49838404D02*
X160790912Y-52677215D01*
X132043400Y-70154800D02*
X133045200Y-70154800D01*
X133045200Y-70154800D02*
X134960680Y-68239320D01*
X160790912Y-52677215D02*
X161038385Y-52677215D01*
X134960680Y-68239320D02*
X138821480Y-68239320D01*
X155919400Y-45516800D02*
X156870400Y-45516800D01*
%TO.N,Net-(U10-Pad10)*%
X159569880Y-48980248D02*
X159569880Y-49677590D01*
X136993400Y-71424800D02*
X139496800Y-71424800D01*
X162150391Y-52123710D02*
X162617692Y-52591011D01*
X160493328Y-48056800D02*
X159569880Y-48980248D01*
X162016000Y-52123710D02*
X162150391Y-52123710D01*
X159569880Y-49677590D02*
X162016000Y-52123710D01*
%TO.N,Net-(U10-Pad11)*%
X161297063Y-52052714D02*
X161662886Y-52418537D01*
X158597600Y-49662821D02*
X160987493Y-52052714D01*
X160869400Y-44246800D02*
X159867600Y-44246800D01*
X161662886Y-52418537D02*
X161662886Y-52728107D01*
X160987493Y-52052714D02*
X161297063Y-52052714D01*
X159867600Y-44246800D02*
X158597600Y-45516800D01*
X138734800Y-70154800D02*
X138938000Y-69951600D01*
X136993400Y-70154800D02*
X138734800Y-70154800D01*
X161662886Y-52728107D02*
X161686165Y-52751386D01*
X158597600Y-45516800D02*
X158597600Y-49662821D01*
X161686165Y-52751386D02*
X161834440Y-52751386D01*
%TO.N,Net-(U11-Pad4)*%
X154482800Y-47091600D02*
X155614600Y-47091600D01*
X128944600Y-45262800D02*
X127508000Y-45262800D01*
X127508000Y-45262800D02*
X127304800Y-45466000D01*
X155614600Y-47091600D02*
X155919400Y-46786800D01*
%TO.N,Net-(U11-Pad10)*%
X159410400Y-46634400D02*
X160717000Y-46634400D01*
X135686800Y-46532800D02*
X135839200Y-46685200D01*
X133894600Y-46532800D02*
X135686800Y-46532800D01*
%TO.N,Net-(U11-Pad11)*%
X160346500Y-43499700D02*
X158902400Y-43499700D01*
X160869400Y-42976800D02*
X160346500Y-43499700D01*
X133894600Y-45262800D02*
X135890000Y-45262800D01*
X135890000Y-45262800D02*
X135991600Y-45161200D01*
%TO.N,Net-(U12-Pad3)*%
X142697200Y-57658000D02*
X143372501Y-56982699D01*
X151739600Y-54813200D02*
X152980300Y-54813200D01*
X150291800Y-56261000D02*
X151739600Y-54813200D01*
%TO.N,Net-(U12-Pad4)*%
X152639620Y-58282520D02*
X152980300Y-58623200D01*
X151348120Y-58282520D02*
X152639620Y-58282520D01*
X143510000Y-58928000D02*
X143713200Y-58724800D01*
X141949400Y-58928000D02*
X143510000Y-58928000D01*
%TO.N,Net-(U12-Pad10)*%
X156947304Y-61163200D02*
X154313393Y-63797111D01*
X157930300Y-61163200D02*
X156947304Y-61163200D01*
X154313393Y-63797111D02*
X150874583Y-63797111D01*
X150874583Y-63797111D02*
X147275472Y-60198000D01*
%TO.N,Net-(U12-Pad11)*%
X154285872Y-63188928D02*
X155524200Y-61950600D01*
X147275472Y-58928000D02*
X151536400Y-63188928D01*
X155524200Y-61923228D02*
X157554228Y-59893200D01*
X155524200Y-61950600D02*
X155524200Y-61923228D01*
X151536400Y-63188928D02*
X154285872Y-63188928D01*
%TO.N,/Analog Sensor Buffers/DB1*%
X104101600Y-99314000D02*
X103644400Y-99771200D01*
X104394000Y-89763600D02*
X104952800Y-90322400D01*
X105003600Y-99314000D02*
X104101600Y-99314000D01*
X121513600Y-106527600D02*
X121513600Y-107797600D01*
X121259600Y-106781600D02*
X121513600Y-106527600D01*
X119786400Y-106781600D02*
X121259600Y-106781600D01*
%TO.N,/Analog Sensor Buffers/DB2*%
X119583200Y-100888800D02*
X120802400Y-100888800D01*
X104902000Y-102311200D02*
X104952800Y-102362000D01*
X103644400Y-102311200D02*
X104902000Y-102311200D01*
X103362900Y-92659200D02*
X103718500Y-92303600D01*
X102006400Y-92659200D02*
X103362900Y-92659200D01*
X103644400Y-102311200D02*
X102057200Y-102311200D01*
X102057200Y-102311200D02*
X101955600Y-102412800D01*
X120802400Y-100888800D02*
X121513600Y-100177600D01*
X121361200Y-101447600D02*
X120802400Y-100888800D01*
%TO.N,/Analog Sensor Buffers/DB3*%
X115918120Y-102093080D02*
X116563600Y-101447600D01*
X106984800Y-92303600D02*
X108668500Y-92303600D01*
X106476800Y-100569672D02*
X106476800Y-92811600D01*
X116563600Y-100177600D02*
X116563600Y-101447600D01*
X108218328Y-102311200D02*
X106476800Y-100569672D01*
X108812520Y-102093080D02*
X115918120Y-102093080D01*
X108594400Y-102311200D02*
X108812520Y-102093080D01*
X106476800Y-92811600D02*
X106984800Y-92303600D01*
%TO.N,/Analog Sensor Buffers/A_IN_C*%
X109685800Y-115976400D02*
X111150400Y-115976400D01*
X115265200Y-102717600D02*
X114858800Y-103124000D01*
X111150400Y-115976400D02*
X111302800Y-116128800D01*
X116563600Y-102717600D02*
X115265200Y-102717600D01*
X114858800Y-103124000D02*
X114858800Y-103174800D01*
X109685800Y-116626400D02*
X109685800Y-115976400D01*
%TO.N,/Analog Sensor Buffers/DB4*%
X116563600Y-107797600D02*
X116563600Y-106527600D01*
X117863120Y-99831048D02*
X117585152Y-99553080D01*
X112598920Y-96495320D02*
X109968020Y-93864420D01*
X109968020Y-93864420D02*
X109968020Y-90410020D01*
X112598920Y-97919173D02*
X112598920Y-96495320D01*
X110746893Y-99771200D02*
X112598920Y-97919173D01*
X116939672Y-106527600D02*
X117863120Y-105604152D01*
X117863120Y-105604152D02*
X117863120Y-99831048D01*
X110746893Y-99771200D02*
X108594400Y-99771200D01*
X109321600Y-89763600D02*
X109968020Y-90410020D01*
X117585152Y-99553080D02*
X110965013Y-99553080D01*
%TO.N,Net-(U20-Pad2)*%
X88222000Y-65143200D02*
X87680800Y-65684400D01*
X92913200Y-55594778D02*
X93451826Y-55056152D01*
X88417400Y-65143200D02*
X88222000Y-65143200D01*
X91795600Y-80518000D02*
X91795600Y-79929000D01*
X91795600Y-79929000D02*
X92608400Y-79116200D01*
%TO.N,Net-(U20-Pad4)*%
X90957400Y-63982600D02*
X92354400Y-62585600D01*
X90957400Y-66522600D02*
X90728800Y-66751200D01*
X95453200Y-57912000D02*
X95453200Y-56424600D01*
X90957400Y-65143200D02*
X90957400Y-63982600D01*
X95199200Y-77622400D02*
X95199200Y-79065400D01*
X90957400Y-65143200D02*
X90957400Y-66522600D01*
%TO.N,Net-(U20-Pad6)*%
X93497400Y-67081400D02*
X92151200Y-68427600D01*
X93497400Y-65143200D02*
X93497400Y-67081400D01*
X97637600Y-79065400D02*
X97637600Y-77578811D01*
X97993200Y-60271328D02*
X97993200Y-56424600D01*
X93497400Y-64767128D02*
X97993200Y-60271328D01*
%TO.N,Net-(U20-Pad8)*%
X94767400Y-61290200D02*
X95199200Y-61722000D01*
X98602800Y-52933600D02*
X99263200Y-52273200D01*
X94767400Y-60193200D02*
X94767400Y-61290200D01*
X98958400Y-74166200D02*
X98958400Y-72694800D01*
%TO.N,Net-(U20-Pad10)*%
X95961200Y-73709000D02*
X96418400Y-74166200D01*
X95961200Y-72644000D02*
X95961200Y-73709000D01*
X96215200Y-51982600D02*
X96723200Y-51474600D01*
X96215200Y-52832000D02*
X96215200Y-51982600D01*
X92227400Y-60782200D02*
X93573600Y-62128400D01*
%TO.N,Net-(U20-Pad12)*%
X93776800Y-51881000D02*
X94183200Y-51474600D01*
X93776800Y-52832000D02*
X93776800Y-51881000D01*
X89687400Y-58834386D02*
X89073399Y-58220385D01*
X89687400Y-60193200D02*
X89687400Y-58834386D01*
%TO.N,Net-(C1A1-Pad2)*%
X52222400Y-53594000D02*
X51122080Y-52493680D01*
X53133046Y-46937079D02*
X55401100Y-46937079D01*
X52171600Y-48818800D02*
X52171600Y-47396400D01*
X56174064Y-47710043D02*
X56396843Y-47710043D01*
X56396843Y-47710043D02*
X56642000Y-47955200D01*
X51358800Y-47294800D02*
X51358800Y-46075600D01*
X51358800Y-46075600D02*
X52171600Y-45262800D01*
X56642000Y-47955200D02*
X57607200Y-47955200D01*
X50937499Y-44028699D02*
X50937499Y-41549722D01*
X58064400Y-47498000D02*
X58176232Y-47498000D01*
X55401100Y-46937079D02*
X56174064Y-47710043D01*
X52171600Y-47540902D02*
X52529223Y-47540902D01*
X52529223Y-47540902D02*
X53133046Y-46937079D01*
X58176232Y-47498000D02*
X59067837Y-46606396D01*
X51122080Y-52493680D02*
X51122080Y-49868320D01*
X57607200Y-47955200D02*
X58064400Y-47498000D01*
X52171600Y-45262800D02*
X50937499Y-44028699D01*
X51122080Y-49868320D02*
X52171600Y-48818800D01*
X51460400Y-47396400D02*
X51358800Y-47294800D01*
X52171600Y-47396400D02*
X51460400Y-47396400D01*
X50937499Y-41549722D02*
X51964821Y-40522400D01*
%TO.N,Net-(C2A1-Pad2)*%
X59486800Y-105562400D02*
X59436000Y-105613200D01*
X65796331Y-92839604D02*
X65796331Y-92787665D01*
X61010800Y-105562400D02*
X63347600Y-105562400D01*
X61010800Y-105562400D02*
X59486800Y-105562400D01*
X65796331Y-92787665D02*
X66690191Y-91893805D01*
X67665600Y-105562400D02*
X67665600Y-104472896D01*
X63347600Y-105562400D02*
X65617600Y-105562400D01*
X65633600Y-105578400D02*
X67649600Y-105578400D01*
X67665600Y-104472896D02*
X68935600Y-103202896D01*
X68935600Y-103202896D02*
X68935600Y-96062800D01*
%TO.N,Net-(C15-Pad1)*%
X62585600Y-81940400D02*
X62585600Y-84508400D01*
X62570400Y-84523600D02*
X62570400Y-86034500D01*
X59537600Y-85801200D02*
X60317483Y-85801200D01*
X64871600Y-82085000D02*
X62730200Y-82085000D01*
X62570400Y-86034500D02*
X62484000Y-86120900D01*
X60317483Y-85801200D02*
X60784902Y-86268619D01*
%TO.N,Net-(C36-Pad1)*%
X59893200Y-56751400D02*
X61214000Y-55430600D01*
X62002400Y-56726400D02*
X61214000Y-55938000D01*
X61214000Y-55938000D02*
X61214000Y-53660000D01*
X61702400Y-53171600D02*
X64008000Y-53171600D01*
X61214000Y-53660000D02*
X61702400Y-53171600D01*
%TO.N,Net-(C23-Pad1)*%
X64973200Y-55711518D02*
X64973200Y-55067200D01*
X63652400Y-58826400D02*
X64787280Y-58826400D01*
X65270310Y-56008628D02*
X64973200Y-55711518D01*
X64787280Y-58826400D02*
X65270311Y-58343369D01*
X65270311Y-58343369D02*
X65270310Y-56008628D01*
X65836800Y-58775600D02*
X63703200Y-58775600D01*
%TO.N,GNDD*%
X65862118Y-49599979D02*
X65862118Y-49861255D01*
X96486800Y-65143200D02*
X97028000Y-65684400D01*
X65176400Y-110243800D02*
X65176400Y-109524800D01*
X107442000Y-91033600D02*
X107340400Y-90932000D01*
X156630780Y-58276648D02*
X157554228Y-57353200D01*
X66846263Y-95568914D02*
X67284729Y-95568914D01*
X132043400Y-74458600D02*
X131216400Y-75285600D01*
X57999330Y-43858511D02*
X57589089Y-43858511D01*
X58163723Y-98587770D02*
X56301623Y-98587770D01*
X156630780Y-59158792D02*
X156630780Y-58276648D01*
X58632450Y-89552397D02*
X59286172Y-89552398D01*
X100228400Y-79116200D02*
X101265000Y-79116200D01*
X58944159Y-37634441D02*
X58944159Y-37433383D01*
X67614800Y-84226400D02*
X68072000Y-83769200D01*
X115773200Y-103987600D02*
X115366800Y-104394000D01*
X64989856Y-42805697D02*
X62735953Y-45059600D01*
X111645200Y-119684800D02*
X112522000Y-119684800D01*
X134213600Y-63754000D02*
X134061200Y-63601600D01*
X98145600Y-91744800D02*
X98145600Y-92956200D01*
X59874312Y-96640303D02*
X58826400Y-97688214D01*
X101897000Y-116433600D02*
X102870000Y-117406600D01*
X169291000Y-40843200D02*
X168656000Y-40843200D01*
X74676000Y-99662800D02*
X73907200Y-99662800D01*
X156152800Y-53892400D02*
X156413200Y-54152800D01*
X99655400Y-56424600D02*
X100330000Y-57099200D01*
X77158400Y-45174800D02*
X76203400Y-46129800D01*
X66025099Y-91040014D02*
X66025099Y-90724122D01*
X55499000Y-72771000D02*
X56210200Y-72771000D01*
X101142800Y-116433600D02*
X101897000Y-116433600D01*
X59915313Y-90759284D02*
X60581419Y-91425390D01*
X66908278Y-90358299D02*
X67716400Y-91166421D01*
X65089224Y-92132497D02*
X62835321Y-94386400D01*
X122631200Y-110896400D02*
X121615200Y-109880400D01*
X57708800Y-58767800D02*
X59834600Y-58767800D01*
X57302400Y-88222347D02*
X58632450Y-89552397D01*
X74773200Y-33306000D02*
X77742800Y-33306000D01*
X148358400Y-47012400D02*
X149098000Y-47752000D01*
X98856800Y-24942800D02*
X99923600Y-24942800D01*
X65616180Y-91448933D02*
X66025099Y-91040014D01*
X132537200Y-38862000D02*
X132537200Y-37850000D01*
X65481200Y-85301000D02*
X65481200Y-84175600D01*
X140766800Y-62738000D02*
X140665200Y-62839600D01*
X77158400Y-41808400D02*
X77158400Y-45174800D01*
X58826400Y-97688214D02*
X58826400Y-97925093D01*
X98856800Y-91033600D02*
X98145600Y-91744800D01*
X121920000Y-110794800D02*
X120853200Y-110794800D01*
X58826400Y-97925093D02*
X58163723Y-98587770D01*
X56659280Y-57718280D02*
X56659280Y-56117327D01*
X60308928Y-107637400D02*
X61010800Y-107637400D01*
X59039323Y-48049124D02*
X59039323Y-48333806D01*
X145281600Y-52679600D02*
X144373600Y-52679600D01*
X63652400Y-56726400D02*
X63652400Y-56178400D01*
X65616179Y-91605542D02*
X65616180Y-91448933D01*
X73907200Y-99662800D02*
X73304400Y-99060000D01*
X64719200Y-60045600D02*
X63601600Y-60045600D01*
X52171600Y-46888400D02*
X52171600Y-46482000D01*
X52171600Y-50893800D02*
X52171600Y-50038000D01*
X64989856Y-42805697D02*
X65999543Y-41796010D01*
X65227200Y-78790800D02*
X65227200Y-77419200D01*
X88107800Y-53665400D02*
X87172800Y-52730400D01*
X74676000Y-88979600D02*
X75568400Y-88979600D01*
X169291000Y-40843200D02*
X169291000Y-43383200D01*
X62382400Y-46120260D02*
X64282749Y-48020610D01*
X101265000Y-79116200D02*
X101498400Y-79349600D01*
X58928000Y-105613200D02*
X58928000Y-106256472D01*
X98907600Y-116433600D02*
X101142800Y-116433600D01*
X157930300Y-57353200D02*
X157930300Y-56083200D01*
X99263200Y-56424600D02*
X99655400Y-56424600D01*
X61620400Y-82625200D02*
X61620400Y-83159600D01*
X114597000Y-115620800D02*
X114597000Y-114663400D01*
X57708800Y-58767800D02*
X56659280Y-57718280D01*
X59874312Y-96640303D02*
X62128215Y-94386400D01*
X70096000Y-81408500D02*
X73931100Y-81408500D01*
X162407600Y-78130400D02*
X161290000Y-77012800D01*
X139569600Y-43716800D02*
X139852400Y-43434000D01*
X84378800Y-119062000D02*
X87084400Y-119062000D01*
X97572600Y-26227000D02*
X98856800Y-24942800D01*
X141949400Y-62738000D02*
X140766800Y-62738000D01*
X60581419Y-91425390D02*
X62481768Y-93325739D01*
X57318400Y-31867600D02*
X56540400Y-31089600D01*
X114597000Y-114663400D02*
X115163600Y-114096800D01*
X67614800Y-85576500D02*
X67614800Y-84226400D01*
X169291000Y-45923200D02*
X169291000Y-43383200D01*
X57251600Y-34137600D02*
X57251600Y-32223200D01*
X130215600Y-26822400D02*
X135585200Y-26822400D01*
X104089200Y-116585139D02*
X104089200Y-118567200D01*
X81628800Y-61932000D02*
X81889600Y-61671200D01*
X63173000Y-55699000D02*
X62164000Y-54690000D01*
X108668500Y-91033600D02*
X107442000Y-91033600D01*
X124612400Y-106215000D02*
X124612400Y-106984800D01*
X104851200Y-109220000D02*
X104140000Y-108508800D01*
X134315200Y-51816000D02*
X135585200Y-53086000D01*
X59774944Y-47313503D02*
X62028847Y-45059600D01*
X122631200Y-109067600D02*
X122580400Y-109016800D01*
X103472800Y-109176000D02*
X104140000Y-108508800D01*
X67310000Y-110522000D02*
X67310000Y-109982000D01*
X91744800Y-104648000D02*
X92456000Y-103936800D01*
X59286172Y-89552398D02*
X59915312Y-90181538D01*
X112522000Y-119684800D02*
X112877600Y-119329200D01*
X96037400Y-65143200D02*
X96486800Y-65143200D01*
X158140400Y-39116000D02*
X157734000Y-39522400D01*
X67767200Y-99995900D02*
X67767200Y-101092000D01*
X122631200Y-111506000D02*
X121920000Y-110794800D01*
X104950200Y-115326400D02*
X102870000Y-117406600D01*
X90178800Y-119062000D02*
X87464400Y-119062000D01*
X58673500Y-48699629D02*
X58122352Y-48699629D01*
X67259200Y-52294700D02*
X66209680Y-51245180D01*
X64206000Y-114305200D02*
X64973200Y-113538000D01*
X90373200Y-76047600D02*
X89306400Y-77114400D01*
X98899400Y-101041200D02*
X98899400Y-100220200D01*
X104089200Y-118567200D02*
X103174800Y-119481600D01*
X67310000Y-109982000D02*
X67868800Y-109423200D01*
X153356372Y-62433200D02*
X155570586Y-60218986D01*
X77742800Y-33306000D02*
X80573200Y-33306000D01*
X54991000Y-60892923D02*
X57116123Y-58767800D01*
X75568400Y-88979600D02*
X76047600Y-89458800D01*
X60965200Y-29832400D02*
X60032800Y-29832400D01*
X57860581Y-48961400D02*
X57251600Y-48961400D01*
X57589089Y-43858511D02*
X57099200Y-44348400D01*
X99459600Y-119481600D02*
X102870000Y-119481600D01*
X109626400Y-110236000D02*
X107899200Y-108508800D01*
X87464400Y-119062000D02*
X87274400Y-118872000D01*
X58064400Y-38514200D02*
X58944159Y-37634441D01*
X56659280Y-56117327D02*
X57891107Y-54885500D01*
X64871600Y-80010000D02*
X64871600Y-79146400D01*
X60935600Y-81940400D02*
X61620400Y-82625200D01*
X61620400Y-84523600D02*
X61620400Y-83159600D01*
X59039323Y-48333806D02*
X58673500Y-48699629D01*
X86063000Y-63746200D02*
X85140800Y-64668400D01*
X156667200Y-49326800D02*
X157327600Y-48666400D01*
X52171600Y-46482000D02*
X52273200Y-46380400D01*
X56301623Y-98587770D02*
X56281761Y-98567908D01*
X64282749Y-48020610D02*
X65862118Y-49599979D01*
X59774944Y-47313503D02*
X59039323Y-48049124D01*
X168656000Y-40843200D02*
X167741600Y-39928800D01*
X132043400Y-73964800D02*
X132043400Y-74458600D01*
X79770000Y-73369200D02*
X78384400Y-71983600D01*
X110134400Y-101041200D02*
X110439200Y-101346000D01*
X158997600Y-39116000D02*
X158140400Y-39116000D01*
X66209680Y-50208817D02*
X65862118Y-49861255D01*
X67767200Y-101092000D02*
X67919600Y-101244400D01*
X124612400Y-106984800D02*
X122580400Y-109016800D01*
X155570586Y-60218986D02*
X156630780Y-59158792D01*
X132537200Y-37850000D02*
X135436800Y-34950400D01*
X126847600Y-55175200D02*
X125685600Y-55175200D01*
X94030800Y-120345200D02*
X92913200Y-119227600D01*
X128944600Y-51373000D02*
X129540000Y-51968400D01*
X161118800Y-77012800D02*
X159766000Y-78365600D01*
X99923600Y-24942800D02*
X100482400Y-24384000D01*
X65176400Y-109524800D02*
X65328800Y-109372400D01*
X137871200Y-43716800D02*
X139569600Y-43716800D01*
X63601600Y-60045600D02*
X63144400Y-60502800D01*
X104697939Y-115976400D02*
X104089200Y-116585139D01*
X133045200Y-53086000D02*
X134315200Y-51816000D01*
X98899400Y-100220200D02*
X98196400Y-99517200D01*
X65481200Y-84175600D02*
X66192400Y-83464400D01*
X105460800Y-115976400D02*
X104697939Y-115976400D01*
X135237400Y-63754000D02*
X134213600Y-63754000D01*
X100634800Y-109176000D02*
X103472800Y-109176000D01*
X66209680Y-51245180D02*
X66209680Y-50208817D01*
X57522880Y-79230720D02*
X59486800Y-77266800D01*
X65089224Y-92132497D02*
X65616179Y-91605542D01*
X105460800Y-115326400D02*
X105460800Y-115976400D01*
X65999543Y-41796010D02*
X65999543Y-41590724D01*
X60032800Y-29832400D02*
X59944000Y-29921200D01*
X58360730Y-44219911D02*
X57999330Y-43858511D01*
X108594400Y-101041200D02*
X110134400Y-101041200D01*
X52171600Y-50038000D02*
X52273200Y-49936400D01*
X122631200Y-112369600D02*
X121869200Y-113131600D01*
X66503438Y-95226089D02*
X66846263Y-95568914D01*
X66025099Y-90724122D02*
X66390922Y-90358299D01*
X58122352Y-48699629D02*
X57860581Y-48961400D01*
X76203400Y-46129800D02*
X74269600Y-48063600D01*
X129540000Y-51968400D02*
X130505200Y-52933600D01*
X104851200Y-110236000D02*
X104851200Y-109220000D01*
X59740800Y-61010800D02*
X59740800Y-58978800D01*
X73931100Y-81408500D02*
X75438000Y-79901600D01*
X58360730Y-44219911D02*
X59200419Y-45059600D01*
X58928000Y-106256472D02*
X60308928Y-107637400D01*
X156152800Y-52374800D02*
X156152800Y-53892400D01*
X125685600Y-55175200D02*
X125323600Y-54813200D01*
X122631200Y-111506000D02*
X122631200Y-109067600D01*
X67284729Y-95568914D02*
X67374876Y-95659061D01*
X64871600Y-79146400D02*
X65227200Y-78790800D01*
X87084400Y-119062000D02*
X87274400Y-118872000D01*
X161290000Y-77012800D02*
X161118800Y-77012800D01*
X136855200Y-58456600D02*
X136855200Y-56591200D01*
X66390922Y-90358299D02*
X66908278Y-90358299D01*
X107899200Y-108508800D02*
X104140000Y-108508800D01*
X65575000Y-60901400D02*
X64719200Y-60045600D01*
X57522880Y-80832280D02*
X57522880Y-79230720D01*
X80111600Y-61932000D02*
X81628800Y-61932000D01*
X90757200Y-104648000D02*
X91744800Y-104648000D01*
X66503438Y-95226089D02*
X65663749Y-94386400D01*
X128944600Y-49072800D02*
X128944600Y-51373000D01*
X59915312Y-90181538D02*
X59915313Y-90759284D01*
X144373600Y-52679600D02*
X143916400Y-53136800D01*
X56210200Y-72771000D02*
X56642000Y-72339200D01*
X58572400Y-81881800D02*
X57522880Y-80832280D01*
X121767600Y-111506000D02*
X121158000Y-112115600D01*
X93014800Y-39370000D02*
X94030800Y-38354000D01*
X63652400Y-56178400D02*
X63173000Y-55699000D01*
D101*
%TO.N,GND_PB*%
X184505600Y-63042800D02*
X187604400Y-66141600D01*
X182829200Y-87630000D02*
X185369200Y-90170000D01*
X185369200Y-90635200D02*
X185369200Y-90170000D01*
X187604400Y-66141600D02*
X187604400Y-67056000D01*
X187604400Y-72948800D02*
X180594000Y-79959200D01*
X179832000Y-64981000D02*
X179832000Y-64008000D01*
X184708800Y-89509600D02*
X186385200Y-89509600D01*
X180594000Y-79959200D02*
X180594000Y-83616800D01*
X183235600Y-62585600D02*
X184048400Y-62585600D01*
X187858400Y-84734400D02*
X188976000Y-85852000D01*
X179832000Y-64008000D02*
X180238400Y-63601600D01*
X184048400Y-62585600D02*
X184505600Y-63042800D01*
X188442600Y-86385400D02*
X188442600Y-87452200D01*
X187604400Y-67056000D02*
X187604400Y-72948800D01*
X180594000Y-83616800D02*
X182829200Y-85852000D01*
X187858400Y-81838800D02*
X187858400Y-84734400D01*
X186385200Y-89509600D02*
X188442600Y-87452200D01*
X188976000Y-85852000D02*
X188442600Y-86385400D01*
X182829200Y-85852000D02*
X182829200Y-87630000D01*
%TO.N,/Power Input & Distribution/PGND0*%
X180543200Y-27381200D02*
X183743600Y-27381200D01*
%TD*%
M02*
