%TF.GenerationSoftware,KiCad,Pcbnew,(6.0.0)*%
%TF.CreationDate,2022-05-16T13:53:17+01:00*%
%TF.ProjectId,RemoteLabs_supervisor_PCB,52656d6f-7465-44c6-9162-735f73757065,rev?*%
%TF.SameCoordinates,Original*%
%TF.FileFunction,Soldermask,Bot*%
%TF.FilePolarity,Negative*%
%FSLAX46Y46*%
G04 Gerber Fmt 4.6, Leading zero omitted, Abs format (unit mm)*
G04 Created by KiCad (PCBNEW (6.0.0)) date 2022-05-16 13:53:17*
%MOMM*%
%LPD*%
G01*
G04 APERTURE LIST*
G04 Aperture macros list*
%AMRoundRect*
0 Rectangle with rounded corners*
0 $1 Rounding radius*
0 $2 $3 $4 $5 $6 $7 $8 $9 X,Y pos of 4 corners*
0 Add a 4 corners polygon primitive as box body*
4,1,4,$2,$3,$4,$5,$6,$7,$8,$9,$2,$3,0*
0 Add four circle primitives for the rounded corners*
1,1,$1+$1,$2,$3*
1,1,$1+$1,$4,$5*
1,1,$1+$1,$6,$7*
1,1,$1+$1,$8,$9*
0 Add four rect primitives between the rounded corners*
20,1,$1+$1,$2,$3,$4,$5,0*
20,1,$1+$1,$4,$5,$6,$7,0*
20,1,$1+$1,$6,$7,$8,$9,0*
20,1,$1+$1,$8,$9,$2,$3,0*%
%AMFreePoly0*
4,1,22,0.550000,-0.750000,0.000000,-0.750000,0.000000,-0.745033,-0.079941,-0.743568,-0.215256,-0.701293,-0.333266,-0.622738,-0.424486,-0.514219,-0.481581,-0.384460,-0.499164,-0.250000,-0.500000,-0.250000,-0.500000,0.250000,-0.499164,0.250000,-0.499963,0.256109,-0.478152,0.396186,-0.417904,0.524511,-0.324060,0.630769,-0.204165,0.706417,-0.067858,0.745374,0.000000,0.744959,0.000000,0.750000,
0.550000,0.750000,0.550000,-0.750000,0.550000,-0.750000,$1*%
%AMFreePoly1*
4,1,20,0.000000,0.744959,0.073905,0.744508,0.209726,0.703889,0.328688,0.626782,0.421226,0.519385,0.479903,0.390333,0.500000,0.250000,0.500000,-0.250000,0.499851,-0.262216,0.476331,-0.402017,0.414519,-0.529596,0.319384,-0.634700,0.198574,-0.708877,0.061801,-0.746166,0.000000,-0.745033,0.000000,-0.750000,-0.550000,-0.750000,-0.550000,0.750000,0.000000,0.750000,0.000000,0.744959,
0.000000,0.744959,$1*%
G04 Aperture macros list end*
%ADD10R,1.700000X1.700000*%
%ADD11O,1.700000X1.700000*%
%ADD12RoundRect,0.250000X-0.725000X0.600000X-0.725000X-0.600000X0.725000X-0.600000X0.725000X0.600000X0*%
%ADD13O,1.950000X1.700000*%
%ADD14C,3.000000*%
%ADD15R,1.980000X3.960000*%
%ADD16O,1.980000X3.960000*%
%ADD17R,3.960000X1.980000*%
%ADD18O,3.960000X1.980000*%
%ADD19RoundRect,0.250000X-0.620000X-0.845000X0.620000X-0.845000X0.620000X0.845000X-0.620000X0.845000X0*%
%ADD20O,1.740000X2.190000*%
%ADD21R,1.500000X2.300000*%
%ADD22O,1.500000X2.300000*%
%ADD23R,1.000000X1.000000*%
%ADD24O,1.000000X1.000000*%
%ADD25RoundRect,0.250000X-0.845000X0.620000X-0.845000X-0.620000X0.845000X-0.620000X0.845000X0.620000X0*%
%ADD26O,2.190000X1.740000*%
%ADD27C,0.800000*%
%ADD28C,6.400000*%
%ADD29C,4.200000*%
%ADD30C,1.500000*%
%ADD31R,1.600000X1.600000*%
%ADD32O,1.600000X1.600000*%
%ADD33C,3.716000*%
%ADD34R,3.716000X3.716000*%
%ADD35O,1.200000X2.400000*%
%ADD36C,1.000000*%
%ADD37R,2.000000X1.905000*%
%ADD38O,2.000000X1.905000*%
%ADD39R,1.500000X1.500000*%
%ADD40R,1.524000X1.524000*%
%ADD41C,1.524000*%
%ADD42FreePoly0,90.000000*%
%ADD43R,1.500000X1.000000*%
%ADD44FreePoly1,90.000000*%
G04 APERTURE END LIST*
D10*
%TO.C,J20*%
X110439200Y-24942800D03*
D11*
X112979200Y-24942800D03*
X115519200Y-24942800D03*
%TD*%
D12*
%TO.C,J19*%
X215392000Y-35690800D03*
D13*
X215392000Y-38190800D03*
X215392000Y-40690800D03*
X215392000Y-43190800D03*
%TD*%
D14*
%TO.C,F2*%
X143510000Y-88138000D03*
X143510000Y-110738000D03*
%TD*%
D15*
%TO.C,J31*%
X152044400Y-116636800D03*
D16*
X157044400Y-116636800D03*
%TD*%
D17*
%TO.C,J17*%
X197805200Y-50178600D03*
D18*
X197805200Y-55178600D03*
X197805200Y-60178600D03*
%TD*%
D10*
%TO.C,J15*%
X101498400Y-33782000D03*
D11*
X101498400Y-31242000D03*
X101498400Y-28702000D03*
%TD*%
D19*
%TO.C,J24*%
X158242000Y-27025600D03*
D20*
X160782000Y-27025600D03*
%TD*%
D21*
%TO.C,U18*%
X190144400Y-67056000D03*
D22*
X187604400Y-67056000D03*
X185064400Y-67056000D03*
%TD*%
D10*
%TO.C,J9*%
X74625200Y-103286400D03*
D11*
X74625200Y-105826400D03*
X74625200Y-108366400D03*
X74625200Y-110906400D03*
%TD*%
D19*
%TO.C,J23*%
X150622000Y-26994800D03*
D20*
X153162000Y-26994800D03*
%TD*%
D10*
%TO.C,J14*%
X89001600Y-43180000D03*
D11*
X89001600Y-40640000D03*
X89001600Y-38100000D03*
X89001600Y-35560000D03*
X89001600Y-33020000D03*
X89001600Y-30480000D03*
X89001600Y-27940000D03*
X89001600Y-25400000D03*
%TD*%
D15*
%TO.C,J30*%
X163830000Y-116636800D03*
D16*
X168830000Y-116636800D03*
%TD*%
D23*
%TO.C,J32*%
X129250600Y-115062000D03*
D24*
X130520600Y-115062000D03*
X131790600Y-115062000D03*
X133060600Y-115062000D03*
X134330600Y-115062000D03*
X135600600Y-115062000D03*
X136870600Y-115062000D03*
X138140600Y-115062000D03*
X139410600Y-115062000D03*
X140680600Y-115062000D03*
%TD*%
D25*
%TO.C,J26*%
X83362800Y-78486000D03*
D26*
X83362800Y-81026000D03*
X83362800Y-83566000D03*
X83362800Y-86106000D03*
X83362800Y-88646000D03*
%TD*%
D10*
%TO.C,J29*%
X84328000Y-73137000D03*
D11*
X84328000Y-70597000D03*
X84328000Y-68057000D03*
%TD*%
D15*
%TO.C,J22*%
X118872000Y-117195600D03*
D16*
X123872000Y-117195600D03*
%TD*%
D27*
%TO.C,H5*%
X131449744Y-105989456D03*
X131449744Y-102595344D03*
X134843856Y-102595344D03*
X133146800Y-106692400D03*
D28*
X133146800Y-104292400D03*
D27*
X130746800Y-104292400D03*
X134843856Y-105989456D03*
X135546800Y-104292400D03*
X133146800Y-101892400D03*
%TD*%
D10*
%TO.C,J21*%
X110540800Y-29057600D03*
D11*
X113080800Y-29057600D03*
X115620800Y-29057600D03*
%TD*%
D29*
%TO.C,A5*%
X157251400Y-90271600D03*
X187782200Y-106019600D03*
D30*
X192506600Y-89204800D03*
X192506600Y-106984800D03*
X152501600Y-89204800D03*
X152501600Y-106984800D03*
%TD*%
D19*
%TO.C,J2*%
X165303200Y-27025600D03*
D20*
X167843200Y-27025600D03*
X170383200Y-27025600D03*
%TD*%
D14*
%TO.C,F1*%
X213715600Y-107696000D03*
X213715600Y-85096000D03*
%TD*%
D10*
%TO.C,J10*%
X85852000Y-92303600D03*
D11*
X85852000Y-94843600D03*
X85852000Y-97383600D03*
X85852000Y-99923600D03*
X85852000Y-102463600D03*
X85852000Y-105003600D03*
X85852000Y-107543600D03*
X85852000Y-110083600D03*
%TD*%
D27*
%TO.C,H1*%
X78963856Y-25430144D03*
X79666800Y-27127200D03*
X78963856Y-28824256D03*
X74866800Y-27127200D03*
X77266800Y-24727200D03*
X77266800Y-29527200D03*
D28*
X77266800Y-27127200D03*
D27*
X75569744Y-25430144D03*
X75569744Y-28824256D03*
%TD*%
D17*
%TO.C,J16*%
X128981200Y-90148200D03*
D18*
X128981200Y-95148200D03*
%TD*%
D17*
%TO.C,J18*%
X214579200Y-60706000D03*
D18*
X214579200Y-55706000D03*
X214579200Y-50706000D03*
%TD*%
D10*
%TO.C,J33*%
X196646800Y-81991200D03*
D11*
X196646800Y-84531200D03*
X196646800Y-87071200D03*
X196646800Y-89611200D03*
X196646800Y-92151200D03*
%TD*%
D27*
%TO.C,H2*%
X79065456Y-115549344D03*
X79768400Y-117246400D03*
X77368400Y-119646400D03*
X77368400Y-114846400D03*
X79065456Y-118943456D03*
X75671344Y-115549344D03*
X74968400Y-117246400D03*
D28*
X77368400Y-117246400D03*
D27*
X75671344Y-118943456D03*
%TD*%
D31*
%TO.C,A2*%
X70231000Y-63432923D03*
D32*
X70231000Y-60892923D03*
X70231000Y-58352923D03*
X70231000Y-55812923D03*
X70231000Y-53272923D03*
X70231000Y-50732923D03*
X70231000Y-48192923D03*
X70231000Y-45652923D03*
X70231000Y-43112923D03*
X70231000Y-40572923D03*
X70231000Y-38032923D03*
X70231000Y-35492923D03*
X70231000Y-32952923D03*
X70231000Y-30412923D03*
X70231000Y-27872923D03*
X54991000Y-27872923D03*
X54991000Y-30412923D03*
X54991000Y-32952923D03*
X54991000Y-35492923D03*
X54991000Y-38032923D03*
X54991000Y-40572923D03*
X54991000Y-43112923D03*
X54991000Y-45652923D03*
X54991000Y-48192923D03*
X54991000Y-50732923D03*
X54991000Y-53272923D03*
X54991000Y-55812923D03*
X54991000Y-58352923D03*
X54991000Y-60892923D03*
X54991000Y-63432923D03*
%TD*%
D10*
%TO.C,J36*%
X69850000Y-70866000D03*
D11*
X67310000Y-70866000D03*
X64770000Y-70866000D03*
X62230000Y-70866000D03*
X59690000Y-70866000D03*
%TD*%
D23*
%TO.C,J28*%
X51714400Y-75590400D03*
%TD*%
D21*
%TO.C,U1*%
X185318400Y-81838800D03*
D22*
X187858400Y-81838800D03*
X190398400Y-81838800D03*
%TD*%
D33*
%TO.C,J3*%
X210820000Y-113080800D03*
D34*
X203620000Y-113080800D03*
D35*
X200470000Y-119080800D03*
X213970000Y-119080800D03*
%TD*%
D25*
%TO.C,J1*%
X81330800Y-48056800D03*
D26*
X81330800Y-50596800D03*
X81330800Y-53136800D03*
X81330800Y-55676800D03*
X81330800Y-58216800D03*
%TD*%
D31*
%TO.C,A1*%
X54856000Y-78868500D03*
D32*
X54856000Y-81408500D03*
X54856000Y-83948500D03*
X54856000Y-86488500D03*
X54856000Y-89028500D03*
X54856000Y-91568500D03*
X54856000Y-94108500D03*
X54856000Y-96648500D03*
X54856000Y-99188500D03*
X54856000Y-101728500D03*
X54856000Y-104268500D03*
X54856000Y-106808500D03*
X54856000Y-109348500D03*
X54856000Y-111888500D03*
X54856000Y-114428500D03*
X70096000Y-114428500D03*
X70096000Y-111888500D03*
X70096000Y-109348500D03*
X70096000Y-106808500D03*
X70096000Y-104268500D03*
X70096000Y-101728500D03*
X70096000Y-99188500D03*
X70096000Y-96648500D03*
X70096000Y-94108500D03*
X70096000Y-91568500D03*
X70096000Y-89028500D03*
X70096000Y-86488500D03*
X70096000Y-83948500D03*
X70096000Y-81408500D03*
X70096000Y-78868500D03*
%TD*%
D36*
%TO.C,J7*%
X64806000Y-117444400D03*
X60406000Y-117444400D03*
%TD*%
D31*
%TO.C,A3*%
X136956800Y-83309520D03*
D32*
X139496800Y-83309520D03*
X142036800Y-83309520D03*
X144576800Y-83309520D03*
X147116800Y-83309520D03*
X149656800Y-83309520D03*
X152196800Y-83309520D03*
X154736800Y-83309520D03*
X159816800Y-83309520D03*
X162356800Y-83309520D03*
X164896800Y-83309520D03*
X167436800Y-83309520D03*
X169976800Y-83309520D03*
X172516800Y-83309520D03*
X172516800Y-35049520D03*
X169976800Y-35049520D03*
X167436800Y-35049520D03*
X164896800Y-35049520D03*
X162356800Y-35049520D03*
X159816800Y-35049520D03*
X157276800Y-35049520D03*
X154736800Y-35049520D03*
X150676800Y-35049520D03*
X148136800Y-35049520D03*
X145596800Y-35049520D03*
X143056800Y-35049520D03*
X140516800Y-35049520D03*
X137976800Y-35049520D03*
X135436800Y-35049520D03*
X132896800Y-35049520D03*
X130356800Y-35049520D03*
X127816800Y-35049520D03*
%TD*%
D37*
%TO.C,Q1*%
X202438000Y-103936800D03*
D38*
X202438000Y-101396800D03*
X202438000Y-98856800D03*
%TD*%
D19*
%TO.C,J25*%
X135788400Y-27025600D03*
D20*
X138328400Y-27025600D03*
X140868400Y-27025600D03*
X143408400Y-27025600D03*
X145948400Y-27025600D03*
%TD*%
D10*
%TO.C,J27*%
X112572800Y-93355400D03*
D11*
X112572800Y-90815400D03*
X112572800Y-88275400D03*
%TD*%
D10*
%TO.C,J11*%
X90779600Y-108610400D03*
D11*
X93319600Y-108610400D03*
X95859600Y-108610400D03*
%TD*%
D10*
%TO.C,J8*%
X81889600Y-110032800D03*
D11*
X81889600Y-107492800D03*
X81889600Y-104952800D03*
X81889600Y-102412800D03*
X81889600Y-99872800D03*
X81889600Y-97332800D03*
X81889600Y-94792800D03*
X81889600Y-92252800D03*
%TD*%
D27*
%TO.C,H6*%
X196362656Y-118638656D03*
X192968544Y-118638656D03*
X196362656Y-115244544D03*
D28*
X194665600Y-116941600D03*
D27*
X194665600Y-114541600D03*
X197065600Y-116941600D03*
X192265600Y-116941600D03*
X192968544Y-115244544D03*
X194665600Y-119341600D03*
%TD*%
%TO.C,H3*%
X215819056Y-28976656D03*
X216522000Y-27279600D03*
D28*
X214122000Y-27279600D03*
D27*
X215819056Y-25582544D03*
X212424944Y-25582544D03*
X214122000Y-29679600D03*
X212424944Y-28976656D03*
X214122000Y-24879600D03*
X211722000Y-27279600D03*
%TD*%
D10*
%TO.C,J34*%
X196646800Y-67061000D03*
D11*
X196646800Y-69601000D03*
X196646800Y-72141000D03*
X196646800Y-74681000D03*
X196646800Y-77221000D03*
%TD*%
D10*
%TO.C,J35*%
X129748200Y-119735600D03*
D11*
X132288200Y-119735600D03*
X134828200Y-119735600D03*
X137368200Y-119735600D03*
X139908200Y-119735600D03*
%TD*%
D25*
%TO.C,J4*%
X214731600Y-78079600D03*
D26*
X214731600Y-80619600D03*
%TD*%
D39*
%TO.C,J5*%
X178584000Y-113643600D03*
D30*
X181084000Y-113643600D03*
X183084000Y-113643600D03*
X185584000Y-113643600D03*
X178584000Y-116263600D03*
X181084000Y-116263600D03*
X183084000Y-116263600D03*
X185584000Y-116263600D03*
D14*
X188654000Y-118973600D03*
X188654000Y-113293600D03*
X175514000Y-118973600D03*
X175514000Y-113293600D03*
%TD*%
D17*
%TO.C,J6*%
X214376000Y-72847200D03*
D18*
X214376000Y-67847200D03*
%TD*%
D27*
%TO.C,H4*%
X99783600Y-44450000D03*
X97383600Y-42050000D03*
X99080656Y-42752944D03*
X97383600Y-46850000D03*
D28*
X97383600Y-44450000D03*
D27*
X99080656Y-46147056D03*
X95686544Y-42752944D03*
X95686544Y-46147056D03*
X94983600Y-44450000D03*
%TD*%
D36*
%TO.C,J13*%
X60365200Y-27132400D03*
X64765200Y-27132400D03*
%TD*%
D10*
%TO.C,J12*%
X85293200Y-25450800D03*
D11*
X85293200Y-27990800D03*
X85293200Y-30530800D03*
X85293200Y-33070800D03*
X85293200Y-35610800D03*
X85293200Y-38150800D03*
X85293200Y-40690800D03*
X85293200Y-43230800D03*
%TD*%
D40*
%TO.C,A4*%
X193802000Y-26568400D03*
D41*
X193802000Y-29108400D03*
X193802000Y-31648400D03*
X193802000Y-34188400D03*
X193802000Y-36728400D03*
X193802000Y-39268400D03*
X193802000Y-41808400D03*
X193802000Y-44348400D03*
X207137000Y-44348400D03*
X207137000Y-41808400D03*
X207137000Y-39268400D03*
X207137000Y-36728400D03*
X207137000Y-34188400D03*
X207137000Y-31648400D03*
X207137000Y-29108400D03*
X207137000Y-26568400D03*
%TD*%
D42*
%TO.C,JP1*%
X81127600Y-71556400D03*
D43*
X81127600Y-70256400D03*
D44*
X81127600Y-68956400D03*
%TD*%
D42*
%TO.C,JP2*%
X112776000Y-98683600D03*
D43*
X112776000Y-97383600D03*
D44*
X112776000Y-96083600D03*
%TD*%
M02*
