M48
; DRILL file {KiCad (6.0.5)} date Thu Jun 30 14:15:07 2022
; FORMAT={-:-/ absolute / metric / decimal}
; #@! TF.CreationDate,2022-06-30T14:15:07+01:00
; #@! TF.GenerationSoftware,Kicad,Pcbnew,(6.0.5)
; #@! TF.FileFunction,Plated,1,2,PTH
FMAT,2
METRIC
; #@! TA.AperFunction,Plated,PTH,ViaDrill
T1C0.700
; #@! TA.AperFunction,Plated,PTH,ComponentDrill
T2C0.800
; #@! TA.AperFunction,Plated,PTH,ComponentDrill
T3C1.000
; #@! TA.AperFunction,Plated,PTH,ComponentDrill
T4C1.190
; #@! TA.AperFunction,Plated,PTH,ComponentDrill
T5C1.300
%
G90
G05
T1
X86.052Y-106.31
X86.75Y-84.26
X88.814Y-83.139
X88.879Y-74.484
X91.18Y-124.045
X91.278Y-73.673
X103.646Y-105.984
X104.344Y-83.934
X106.408Y-82.813
X106.473Y-74.158
X108.774Y-123.719
X108.872Y-73.347
X115.721Y-64.215
X120.58Y-127.886
X120.58Y-130.546
X120.59Y-132.956
X120.954Y-107.73
X121.224Y-88.702
X121.335Y-85.53
X122.834Y-81.517
X124.331Y-109.0
X125.856Y-92.236
X126.542Y-102.904
X127.932Y-84.7
X128.047Y-124.035
X128.066Y-126.526
X128.166Y-89.045
X128.828Y-104.419
X128.849Y-86.588
X128.919Y-113.333
X130.023Y-107.805
X131.825Y-111.007
X133.299Y-125.693
X133.456Y-59.087
X134.035Y-84.606
X134.035Y-86.894
X134.035Y-90.048
X135.585Y-92.176
X136.225Y-100.587
X137.107Y-95.003
X137.134Y-89.696
X137.615Y-122.375
X138.378Y-138.616
X138.529Y-105.952
X138.908Y-125.564
X139.242Y-130.056
X139.922Y-118.886
X140.258Y-89.696
X140.464Y-127.481
X140.512Y-135.365
X141.274Y-96.808
X141.528Y-129.828
X142.042Y-117.859
X143.052Y-81.568
X143.052Y-131.606
X143.443Y-126.182
X144.83Y-106.46
X145.538Y-91.269
X146.043Y-82.038
X146.559Y-111.321
X147.675Y-124.138
X149.402Y-89.95
X150.164Y-81.314
X152.196Y-99.576
X152.472Y-124.142
X152.958Y-110.016
X153.312Y-83.496
X153.665Y-136.675
X155.506Y-59.785
X156.627Y-61.849
X157.276Y-102.878
X158.797Y-98.779
X159.054Y-106.206
X160.319Y-101.603
X161.095Y-103.589
X162.993Y-82.3
X163.118Y-76.234
X163.372Y-117.128
X165.282Y-61.914
X166.093Y-64.313
X166.42Y-116.874
X173.06Y-64.349
X178.836Y-127.435
X178.836Y-130.095
X178.846Y-132.505
X179.21Y-107.279
X179.48Y-88.251
X179.591Y-85.08
X181.09Y-81.067
X182.587Y-108.549
X184.112Y-91.785
X184.798Y-102.453
X186.188Y-84.249
X186.303Y-123.585
X186.322Y-126.075
X186.422Y-88.595
X187.084Y-103.968
X187.105Y-86.138
X187.175Y-112.882
X188.279Y-107.355
X190.081Y-110.556
X190.795Y-59.221
X191.555Y-125.243
X192.291Y-84.156
X192.291Y-86.444
X192.291Y-89.597
X193.841Y-91.726
X194.481Y-100.137
X195.363Y-94.552
X195.39Y-89.245
X195.871Y-121.924
X196.634Y-138.166
X196.785Y-105.501
X197.164Y-125.114
X197.498Y-129.606
X198.178Y-118.435
X198.514Y-89.245
X198.72Y-127.031
X198.768Y-134.915
X199.53Y-96.357
X199.784Y-129.377
X200.298Y-117.408
X201.308Y-81.117
X201.308Y-131.155
X201.699Y-125.731
X203.086Y-106.009
X203.794Y-90.818
X204.299Y-81.587
X204.815Y-110.87
X205.931Y-123.688
X207.658Y-89.499
X208.42Y-80.863
X210.452Y-99.126
X210.728Y-123.691
X211.214Y-109.565
X211.568Y-83.045
X211.921Y-136.225
X212.845Y-59.919
X213.966Y-61.983
X215.532Y-102.428
X217.053Y-98.328
X217.31Y-105.755
X218.575Y-101.153
X219.351Y-103.139
X221.249Y-81.849
X221.374Y-75.783
X221.628Y-116.677
X222.621Y-62.048
X223.432Y-64.447
X224.676Y-116.423
T2
X147.37Y-104.428
X147.37Y-106.428
X147.37Y-108.428
X149.37Y-104.428
X149.37Y-106.428
X149.37Y-108.428
X205.626Y-103.977
X205.626Y-105.977
X205.626Y-107.977
X207.626Y-103.977
X207.626Y-105.977
X207.626Y-107.977
T3
X80.207Y-74.522
X80.207Y-77.062
X80.207Y-79.602
X80.207Y-82.142
X80.207Y-84.682
X80.207Y-87.222
X80.207Y-89.762
X80.207Y-92.302
X80.207Y-94.842
X80.207Y-97.382
X80.207Y-99.922
X80.207Y-102.462
X80.207Y-105.002
X80.207Y-107.542
X80.207Y-110.082
X80.207Y-112.622
X80.207Y-115.162
X80.207Y-117.702
X80.207Y-120.242
X80.207Y-122.782
X82.747Y-74.522
X82.747Y-77.062
X82.747Y-79.602
X82.747Y-82.142
X82.747Y-84.682
X82.747Y-87.222
X82.747Y-89.762
X82.747Y-92.302
X82.747Y-94.842
X82.747Y-97.382
X82.747Y-99.922
X82.747Y-102.462
X82.747Y-105.002
X82.747Y-107.542
X82.747Y-110.082
X82.747Y-112.622
X82.747Y-115.162
X82.747Y-117.702
X82.747Y-120.242
X82.747Y-122.782
X97.801Y-74.196
X97.801Y-76.736
X97.801Y-79.276
X97.801Y-81.816
X97.801Y-84.356
X97.801Y-86.896
X97.801Y-89.436
X97.801Y-91.976
X97.801Y-94.516
X97.801Y-97.056
X97.801Y-99.596
X97.801Y-102.136
X97.801Y-104.676
X97.801Y-107.216
X97.801Y-109.756
X97.801Y-112.296
X97.801Y-114.836
X97.801Y-117.376
X97.801Y-119.916
X97.801Y-122.456
X100.341Y-74.196
X100.341Y-76.736
X100.341Y-79.276
X100.341Y-81.816
X100.341Y-84.356
X100.341Y-86.896
X100.341Y-89.436
X100.341Y-91.976
X100.341Y-94.516
X100.341Y-97.056
X100.341Y-99.596
X100.341Y-102.136
X100.341Y-104.676
X100.341Y-107.216
X100.341Y-109.756
X100.341Y-112.296
X100.341Y-114.836
X100.341Y-117.376
X100.341Y-119.916
X100.341Y-122.456
X116.984Y-53.242
X116.984Y-55.782
X117.36Y-127.936
X117.36Y-130.476
X117.36Y-133.016
X117.36Y-135.556
X117.398Y-76.996
X117.398Y-79.536
X117.398Y-82.076
X117.398Y-84.616
X117.398Y-87.156
X117.398Y-89.696
X117.398Y-92.236
X117.398Y-94.776
X117.398Y-98.836
X117.398Y-101.376
X117.398Y-103.916
X117.398Y-106.456
X117.398Y-108.996
X117.398Y-111.536
X117.398Y-114.076
X117.398Y-116.616
X117.398Y-119.156
X117.398Y-121.696
X119.524Y-53.242
X119.524Y-55.782
X122.064Y-53.242
X122.064Y-55.782
X124.604Y-53.242
X124.604Y-55.782
X127.144Y-53.242
X127.144Y-55.782
X129.684Y-53.242
X129.684Y-55.782
X132.224Y-53.242
X132.224Y-55.782
X134.764Y-53.242
X134.764Y-55.782
X137.304Y-53.242
X137.304Y-55.782
X139.75Y-82.076
X139.75Y-87.156
X139.844Y-53.242
X139.844Y-55.782
X142.384Y-53.242
X142.384Y-55.782
X144.924Y-53.242
X144.924Y-55.782
X147.464Y-53.242
X147.464Y-55.782
X150.004Y-53.242
X150.004Y-55.782
X152.544Y-53.242
X152.544Y-55.782
X155.084Y-53.242
X155.084Y-55.782
X157.624Y-53.242
X157.624Y-55.782
X160.164Y-53.242
X160.164Y-55.782
X162.704Y-53.242
X162.704Y-55.782
X165.244Y-53.242
X165.244Y-55.782
X165.658Y-76.996
X165.658Y-79.536
X165.658Y-82.076
X165.658Y-84.616
X165.658Y-87.156
X165.658Y-89.696
X165.658Y-94.776
X165.658Y-97.316
X165.658Y-99.856
X165.658Y-102.396
X165.658Y-104.936
X165.658Y-107.476
X165.658Y-110.016
X165.658Y-112.556
X174.323Y-53.376
X174.323Y-55.916
X175.616Y-127.485
X175.616Y-130.025
X175.616Y-132.565
X175.616Y-135.105
X175.654Y-76.545
X175.654Y-79.085
X175.654Y-81.625
X175.654Y-84.165
X175.654Y-86.705
X175.654Y-89.245
X175.654Y-91.785
X175.654Y-94.325
X175.654Y-98.385
X175.654Y-100.925
X175.654Y-103.465
X175.654Y-106.005
X175.654Y-108.545
X175.654Y-111.085
X175.654Y-113.625
X175.654Y-116.165
X175.654Y-118.705
X175.654Y-121.245
X176.863Y-53.376
X176.863Y-55.916
X179.403Y-53.376
X179.403Y-55.916
X181.943Y-53.376
X181.943Y-55.916
X184.483Y-53.376
X184.483Y-55.916
X187.023Y-53.376
X187.023Y-55.916
X189.563Y-53.376
X189.563Y-55.916
X192.103Y-53.376
X192.103Y-55.916
X194.643Y-53.376
X194.643Y-55.916
X197.183Y-53.376
X197.183Y-55.916
X198.006Y-81.625
X198.006Y-86.705
X199.723Y-53.376
X199.723Y-55.916
X202.263Y-53.376
X202.263Y-55.916
X204.803Y-53.376
X204.803Y-55.916
X207.343Y-53.376
X207.343Y-55.916
X209.883Y-53.376
X209.883Y-55.916
X212.423Y-53.376
X212.423Y-55.916
X214.963Y-53.376
X214.963Y-55.916
X217.503Y-53.376
X217.503Y-55.916
X220.043Y-53.376
X220.043Y-55.916
X222.583Y-53.376
X222.583Y-55.916
X223.914Y-76.545
X223.914Y-79.085
X223.914Y-81.625
X223.914Y-84.165
X223.914Y-86.705
X223.914Y-89.245
X223.914Y-94.325
X223.914Y-96.865
X223.914Y-99.405
X223.914Y-101.945
X223.914Y-104.485
X223.914Y-107.025
X223.914Y-109.565
X223.914Y-112.105
T4
X88.825Y-110.601
X88.825Y-113.141
X88.825Y-115.681
X88.825Y-118.221
X88.825Y-120.761
X88.991Y-77.155
X88.991Y-79.695
X106.419Y-110.275
X106.419Y-112.815
X106.419Y-115.355
X106.419Y-117.895
X106.419Y-120.435
X106.585Y-76.829
X106.585Y-79.369
X119.005Y-61.86
X121.545Y-61.86
X124.085Y-61.86
X126.625Y-61.86
X129.165Y-61.86
X160.071Y-62.026
X162.611Y-62.026
X176.344Y-61.994
X178.884Y-61.994
X181.424Y-61.994
X183.964Y-61.994
X186.504Y-61.994
X217.41Y-62.16
X219.95Y-62.16
T5
X141.528Y-76.234
X144.068Y-76.234
X148.132Y-74.964
X165.404Y-128.05
X199.784Y-75.783
X202.324Y-75.783
X206.388Y-74.513
X223.66Y-127.599
T0
M30
