%TF.GenerationSoftware,KiCad,Pcbnew,(6.0.5)*%
%TF.CreationDate,2022-06-30T14:15:02+01:00*%
%TF.ProjectId,Intern_PCB_FAB,496e7465-726e-45f5-9043-425f4641422e,rev?*%
%TF.SameCoordinates,Original*%
%TF.FileFunction,Profile,NP*%
%FSLAX46Y46*%
G04 Gerber Fmt 4.6, Leading zero omitted, Abs format (unit mm)*
G04 Created by KiCad (PCBNEW (6.0.5)) date 2022-06-30 14:15:02*
%MOMM*%
%LPD*%
G01*
G04 APERTURE LIST*
%TA.AperFunction,Profile*%
%ADD10C,0.100000*%
%TD*%
G04 APERTURE END LIST*
D10*
X113670136Y-63268558D02*
G75*
G03*
X116670111Y-65808560I2769964J229958D01*
G01*
X90227000Y-126097000D02*
X80760051Y-126078949D01*
X172782000Y-140383439D02*
X226772000Y-140383439D01*
X223159000Y-65943000D02*
X174009000Y-65943000D01*
X90234001Y-126096017D02*
G75*
G03*
X92774000Y-123096000I-229901J2769917D01*
G01*
X221412000Y-71133439D02*
X188572000Y-71133439D01*
X168516000Y-140834000D02*
X168536000Y-140834000D01*
X226792000Y-140383439D02*
X226782000Y-73683439D01*
X130316000Y-71584000D02*
X127776000Y-74124000D01*
X80554000Y-71185000D02*
X90248000Y-71186000D01*
X165820111Y-65808560D02*
X116670111Y-65808560D01*
X127776000Y-74124000D02*
X116346000Y-74104000D01*
X75314111Y-49451560D02*
X235314111Y-49451560D01*
X235314111Y-49451560D02*
X235314111Y-149451560D01*
X235314111Y-149451560D02*
X75314111Y-149451560D01*
X75314111Y-149451560D02*
X75314111Y-49451560D01*
X98148040Y-70858940D02*
G75*
G03*
X95608040Y-73398960I60J-2540060D01*
G01*
X114516000Y-75944000D02*
X114526000Y-140834000D01*
X163156000Y-71584000D02*
X130316000Y-71584000D01*
X77110000Y-127220000D02*
X110170000Y-127220000D01*
X110170000Y-127220000D02*
X110170000Y-140440000D01*
X110170000Y-140440000D02*
X77110000Y-140440000D01*
X77110000Y-140440000D02*
X77110000Y-127220000D01*
X171009000Y-63403000D02*
G75*
G03*
X174009000Y-65943000I2770000J230000D01*
G01*
X186032000Y-73673439D02*
X174602000Y-73653439D01*
X225920000Y-53723000D02*
X225919000Y-63417000D01*
X78010051Y-123418949D02*
X78014000Y-73725000D01*
X95603993Y-123092911D02*
G75*
G03*
X98354091Y-125752909I2705107J45111D01*
G01*
X110368035Y-73619960D02*
G75*
G03*
X107828040Y-70869960I-2644935J105060D01*
G01*
X226772000Y-140383439D02*
X226792000Y-140383439D01*
X171008000Y-63396000D02*
X171026051Y-53929051D01*
X116347163Y-51044664D02*
G75*
G03*
X113687162Y-53794611I45037J-2705036D01*
G01*
X116347162Y-51044611D02*
X166041111Y-51048560D01*
X114526000Y-140834000D02*
X168516000Y-140834000D01*
X226782000Y-73663439D02*
X223962000Y-73663439D01*
X110368040Y-73619960D02*
X110368040Y-122769960D01*
X95604091Y-123092909D02*
X95608040Y-73398960D01*
X173686051Y-51179051D02*
X223380000Y-51183000D01*
X168581140Y-53588560D02*
G75*
G03*
X166041111Y-51048560I-2540040J-40D01*
G01*
X168581111Y-53588560D02*
X168580111Y-63282560D01*
X223159000Y-65943008D02*
G75*
G03*
X225909000Y-63403000I104900J2645108D01*
G01*
X107821040Y-125770960D02*
X98354091Y-125752909D01*
X188572000Y-71133439D02*
X186032000Y-73673439D01*
X165820109Y-65808610D02*
G75*
G03*
X168570111Y-63268560I104991J2645010D01*
G01*
X173686051Y-51179046D02*
G75*
G03*
X171026051Y-53929051I44849J-2704854D01*
G01*
X226782000Y-73683439D02*
X226782000Y-73663439D01*
X80554000Y-71185000D02*
G75*
G03*
X78014000Y-73725000I100J-2540100D01*
G01*
X172772000Y-75493439D02*
X172782000Y-140383439D01*
X174602000Y-73653439D02*
X172792000Y-75473439D01*
X92774000Y-73946000D02*
X92774000Y-123096000D01*
X116346000Y-74104000D02*
X114536000Y-75924000D01*
X172792000Y-75473439D02*
X172772000Y-75493439D01*
X223962000Y-73663439D02*
X221412000Y-71133439D01*
X78010053Y-123418949D02*
G75*
G03*
X80760051Y-126078949I2705047J45049D01*
G01*
X92774000Y-73946000D02*
G75*
G03*
X90234000Y-71196000I-2645000J105000D01*
G01*
X168536000Y-140834000D02*
X168526000Y-74134000D01*
X165706000Y-74114000D02*
X163156000Y-71584000D01*
X114536000Y-75924000D02*
X114516000Y-75944000D01*
X168526000Y-74114000D02*
X165706000Y-74114000D01*
X225920000Y-53723000D02*
G75*
G03*
X223380000Y-51183000I-2539900J100D01*
G01*
X168526000Y-74134000D02*
X168526000Y-74114000D01*
X107828039Y-125769949D02*
G75*
G03*
X110368040Y-122769960I-229939J2769949D01*
G01*
X113669111Y-63261560D02*
X113687162Y-53794611D01*
X98148040Y-70858960D02*
X107842040Y-70859960D01*
M02*
