M48
; DRILL file {KiCad (6.0.5)} date Thu Jun 30 10:23:47 2022
; FORMAT={-:-/ absolute / metric / decimal}
; #@! TF.CreationDate,2022-06-30T10:23:47+01:00
; #@! TF.GenerationSoftware,Kicad,Pcbnew,(6.0.5)
; #@! TF.FileFunction,Plated,1,2,PTH
FMAT,2
METRIC
; #@! TA.AperFunction,Plated,PTH,ComponentDrill
T1C0.650
; #@! TA.AperFunction,Plated,PTH,ViaDrill
T2C0.700
; #@! TA.AperFunction,Plated,PTH,ComponentDrill
T3C0.800
; #@! TA.AperFunction,Plated,PTH,ComponentDrill
T4C1.000
; #@! TA.AperFunction,Plated,PTH,ComponentDrill
T5C1.190
; #@! TA.AperFunction,Plated,PTH,ComponentDrill
T6C1.300
%
G90
G05
T1
X120.716Y-131.44
X120.716Y-132.71
X120.716Y-133.98
X120.716Y-135.25
X180.172Y-129.388
X180.172Y-130.658
X180.172Y-131.928
X180.172Y-133.198
T2
X86.735Y-96.436
X87.433Y-74.386
X89.497Y-73.265
X89.562Y-64.61
X91.863Y-114.171
X91.961Y-63.799
X103.819Y-97.22
X104.517Y-75.17
X106.581Y-74.049
X106.646Y-65.394
X108.947Y-114.955
X109.045Y-64.583
X115.721Y-64.215
X123.853Y-130.427
X124.018Y-132.52
X124.018Y-134.62
X124.78Y-108.458
X125.05Y-89.43
X125.161Y-86.258
X126.66Y-82.245
X128.157Y-109.728
X129.682Y-92.964
X130.368Y-103.632
X131.758Y-85.427
X131.873Y-124.763
X131.892Y-127.254
X131.993Y-89.773
X132.654Y-105.147
X132.675Y-87.316
X132.745Y-114.06
X133.456Y-59.087
X133.849Y-108.533
X135.651Y-111.734
X137.126Y-126.421
X137.861Y-85.334
X137.861Y-87.622
X137.861Y-90.776
X139.411Y-92.904
X140.051Y-101.315
X140.933Y-95.731
X140.96Y-90.424
X141.441Y-123.102
X142.205Y-139.344
X142.355Y-106.68
X142.734Y-126.292
X143.068Y-130.784
X143.748Y-119.614
X144.084Y-90.424
X144.291Y-128.209
X144.338Y-136.093
X145.1Y-97.536
X145.354Y-130.556
X145.868Y-118.586
X146.878Y-82.296
X146.878Y-132.334
X147.269Y-126.909
X148.656Y-107.188
X149.364Y-91.997
X149.869Y-82.766
X150.385Y-112.048
X151.501Y-124.866
X153.228Y-90.678
X153.99Y-82.042
X155.506Y-59.785
X156.022Y-100.304
X156.298Y-124.87
X156.627Y-61.849
X156.784Y-110.744
X157.138Y-84.223
X157.491Y-137.403
X161.102Y-103.606
X162.623Y-99.506
X162.88Y-106.934
X164.145Y-102.331
X164.921Y-104.317
X165.282Y-61.914
X166.093Y-64.313
X166.819Y-83.027
X166.944Y-76.962
X167.198Y-117.856
X170.246Y-117.602
X171.761Y-64.524
X183.309Y-128.375
X183.474Y-130.468
X183.474Y-132.568
X184.236Y-106.406
X184.506Y-87.378
X184.617Y-84.206
X186.116Y-80.193
X187.613Y-107.676
X189.138Y-90.912
X189.496Y-59.396
X189.824Y-101.58
X191.214Y-83.375
X191.329Y-122.711
X191.348Y-125.202
X191.449Y-87.721
X192.11Y-103.095
X192.131Y-85.264
X192.201Y-112.008
X193.305Y-106.481
X195.107Y-109.682
X196.582Y-124.369
X197.317Y-83.282
X197.317Y-85.57
X197.317Y-88.724
X198.867Y-90.852
X199.507Y-99.263
X200.389Y-93.678
X200.416Y-88.372
X200.897Y-121.05
X201.661Y-137.292
X201.811Y-104.628
X202.19Y-124.24
X202.524Y-128.732
X203.204Y-117.562
X203.54Y-88.372
X203.747Y-126.157
X203.794Y-134.041
X204.556Y-95.484
X204.81Y-128.504
X205.324Y-116.534
X206.334Y-80.244
X206.334Y-130.282
X206.725Y-124.857
X208.112Y-105.136
X208.82Y-89.945
X209.325Y-80.714
X209.841Y-109.996
X210.957Y-122.814
X211.546Y-60.094
X212.667Y-62.158
X212.684Y-88.626
X213.446Y-79.99
X215.478Y-98.252
X215.754Y-122.817
X216.24Y-108.692
X216.594Y-82.171
X216.947Y-135.351
X220.558Y-101.554
X221.322Y-62.223
X222.079Y-97.454
X222.133Y-64.622
X222.336Y-104.882
X223.601Y-100.279
X224.377Y-102.265
X226.275Y-80.975
X226.4Y-74.91
X226.654Y-115.804
X229.702Y-115.55
T3
X151.196Y-105.156
X151.196Y-107.156
X151.196Y-109.156
X153.196Y-105.156
X153.196Y-107.156
X153.196Y-109.156
X210.652Y-103.104
X210.652Y-105.104
X210.652Y-107.104
X212.652Y-103.104
X212.652Y-105.104
X212.652Y-107.104
T4
X80.89Y-64.648
X80.89Y-67.188
X80.89Y-69.728
X80.89Y-72.268
X80.89Y-74.808
X80.89Y-77.348
X80.89Y-79.888
X80.89Y-82.428
X80.89Y-84.968
X80.89Y-87.508
X80.89Y-90.048
X80.89Y-92.588
X80.89Y-95.128
X80.89Y-97.668
X80.89Y-100.208
X80.89Y-102.748
X80.89Y-105.288
X80.89Y-107.828
X80.89Y-110.368
X80.89Y-112.908
X83.43Y-64.648
X83.43Y-67.188
X83.43Y-69.728
X83.43Y-72.268
X83.43Y-74.808
X83.43Y-77.348
X83.43Y-79.888
X83.43Y-82.428
X83.43Y-84.968
X83.43Y-87.508
X83.43Y-90.048
X83.43Y-92.588
X83.43Y-95.128
X83.43Y-97.668
X83.43Y-100.208
X83.43Y-102.748
X83.43Y-105.288
X83.43Y-107.828
X83.43Y-110.368
X83.43Y-112.908
X97.974Y-65.432
X97.974Y-67.972
X97.974Y-70.512
X97.974Y-73.052
X97.974Y-75.592
X97.974Y-78.132
X97.974Y-80.672
X97.974Y-83.212
X97.974Y-85.752
X97.974Y-88.292
X97.974Y-90.832
X97.974Y-93.372
X97.974Y-95.912
X97.974Y-98.452
X97.974Y-100.992
X97.974Y-103.532
X97.974Y-106.072
X97.974Y-108.612
X97.974Y-111.152
X97.974Y-113.692
X100.514Y-65.432
X100.514Y-67.972
X100.514Y-70.512
X100.514Y-73.052
X100.514Y-75.592
X100.514Y-78.132
X100.514Y-80.672
X100.514Y-83.212
X100.514Y-85.752
X100.514Y-88.292
X100.514Y-90.832
X100.514Y-93.372
X100.514Y-95.912
X100.514Y-98.452
X100.514Y-100.992
X100.514Y-103.532
X100.514Y-106.072
X100.514Y-108.612
X100.514Y-111.152
X100.514Y-113.692
X116.984Y-53.242
X116.984Y-55.782
X119.524Y-53.242
X119.524Y-55.782
X121.224Y-77.724
X121.224Y-80.264
X121.224Y-82.804
X121.224Y-85.344
X121.224Y-87.884
X121.224Y-90.424
X121.224Y-92.964
X121.224Y-95.504
X121.224Y-99.564
X121.224Y-102.104
X121.224Y-104.644
X121.224Y-107.184
X121.224Y-109.724
X121.224Y-112.264
X121.224Y-114.804
X121.224Y-117.344
X121.224Y-119.884
X121.224Y-122.424
X122.064Y-53.242
X122.064Y-55.782
X124.604Y-53.242
X124.604Y-55.782
X127.144Y-53.242
X127.144Y-55.782
X129.684Y-53.242
X129.684Y-55.782
X132.224Y-53.242
X132.224Y-55.782
X134.764Y-53.242
X134.764Y-55.782
X137.304Y-53.242
X137.304Y-55.782
X139.844Y-53.242
X139.844Y-55.782
X142.384Y-53.242
X142.384Y-55.782
X143.576Y-82.804
X143.576Y-87.884
X144.924Y-53.242
X144.924Y-55.782
X147.464Y-53.242
X147.464Y-55.782
X150.004Y-53.242
X150.004Y-55.782
X152.544Y-53.242
X152.544Y-55.782
X155.084Y-53.242
X155.084Y-55.782
X157.624Y-53.242
X157.624Y-55.782
X160.164Y-53.242
X160.164Y-55.782
X162.704Y-53.242
X162.704Y-55.782
X165.244Y-53.242
X165.244Y-55.782
X169.484Y-77.724
X169.484Y-80.264
X169.484Y-82.804
X169.484Y-85.344
X169.484Y-87.884
X169.484Y-90.424
X169.484Y-95.504
X169.484Y-98.044
X169.484Y-100.584
X169.484Y-103.124
X169.484Y-105.664
X169.484Y-108.204
X169.484Y-110.744
X169.484Y-113.284
X173.024Y-53.551
X173.024Y-56.091
X175.564Y-53.551
X175.564Y-56.091
X178.104Y-53.551
X178.104Y-56.091
X180.644Y-53.551
X180.644Y-56.091
X180.68Y-75.672
X180.68Y-78.212
X180.68Y-80.752
X180.68Y-83.292
X180.68Y-85.832
X180.68Y-88.372
X180.68Y-90.912
X180.68Y-93.452
X180.68Y-97.512
X180.68Y-100.052
X180.68Y-102.592
X180.68Y-105.132
X180.68Y-107.672
X180.68Y-110.212
X180.68Y-112.752
X180.68Y-115.292
X180.68Y-117.832
X180.68Y-120.372
X183.184Y-53.551
X183.184Y-56.091
X185.724Y-53.551
X185.724Y-56.091
X188.264Y-53.551
X188.264Y-56.091
X190.804Y-53.551
X190.804Y-56.091
X193.344Y-53.551
X193.344Y-56.091
X195.884Y-53.551
X195.884Y-56.091
X198.424Y-53.551
X198.424Y-56.091
X200.964Y-53.551
X200.964Y-56.091
X203.032Y-80.752
X203.032Y-85.832
X203.504Y-53.551
X203.504Y-56.091
X206.044Y-53.551
X206.044Y-56.091
X208.584Y-53.551
X208.584Y-56.091
X211.124Y-53.551
X211.124Y-56.091
X213.664Y-53.551
X213.664Y-56.091
X216.204Y-53.551
X216.204Y-56.091
X218.744Y-53.551
X218.744Y-56.091
X221.284Y-53.551
X221.284Y-56.091
X228.94Y-75.672
X228.94Y-78.212
X228.94Y-80.752
X228.94Y-83.292
X228.94Y-85.832
X228.94Y-88.372
X228.94Y-93.452
X228.94Y-95.992
X228.94Y-98.532
X228.94Y-101.072
X228.94Y-103.612
X228.94Y-106.152
X228.94Y-108.692
X228.94Y-111.232
T5
X89.508Y-100.727
X89.508Y-103.267
X89.508Y-105.807
X89.508Y-108.347
X89.508Y-110.887
X89.674Y-67.281
X89.674Y-69.821
X106.592Y-101.511
X106.592Y-104.051
X106.592Y-106.591
X106.592Y-109.131
X106.592Y-111.671
X106.758Y-68.065
X106.758Y-70.605
X119.005Y-61.86
X121.545Y-61.86
X124.085Y-61.86
X126.625Y-61.86
X129.165Y-61.86
X160.071Y-62.026
X162.611Y-62.026
X175.045Y-62.169
X177.585Y-62.169
X180.125Y-62.169
X182.665Y-62.169
X185.205Y-62.169
X216.111Y-62.335
X218.651Y-62.335
T6
X145.354Y-76.962
X147.894Y-76.962
X151.958Y-75.692
X169.23Y-128.778
X204.81Y-74.91
X207.35Y-74.91
X211.414Y-73.64
X228.686Y-126.726
T0
M30
