%TF.GenerationSoftware,KiCad,Pcbnew,(6.0.5)*%
%TF.CreationDate,2022-06-30T10:20:44+01:00*%
%TF.ProjectId,Intern_PCB_FAB,496e7465-726e-45f5-9043-425f4641422e,rev?*%
%TF.SameCoordinates,Original*%
%TF.FileFunction,Copper,L2,Bot*%
%TF.FilePolarity,Positive*%
%FSLAX46Y46*%
G04 Gerber Fmt 4.6, Leading zero omitted, Abs format (unit mm)*
G04 Created by KiCad (PCBNEW (6.0.5)) date 2022-06-30 10:20:44*
%MOMM*%
%LPD*%
G01*
G04 APERTURE LIST*
G04 Aperture macros list*
%AMRoundRect*
0 Rectangle with rounded corners*
0 $1 Rounding radius*
0 $2 $3 $4 $5 $6 $7 $8 $9 X,Y pos of 4 corners*
0 Add a 4 corners polygon primitive as box body*
4,1,4,$2,$3,$4,$5,$6,$7,$8,$9,$2,$3,0*
0 Add four circle primitives for the rounded corners*
1,1,$1+$1,$2,$3*
1,1,$1+$1,$4,$5*
1,1,$1+$1,$6,$7*
1,1,$1+$1,$8,$9*
0 Add four rect primitives between the rounded corners*
20,1,$1+$1,$2,$3,$4,$5,0*
20,1,$1+$1,$4,$5,$6,$7,0*
20,1,$1+$1,$6,$7,$8,$9,0*
20,1,$1+$1,$8,$9,$2,$3,0*%
G04 Aperture macros list end*
%TA.AperFunction,ComponentPad*%
%ADD10C,2.600000*%
%TD*%
%TA.AperFunction,ComponentPad*%
%ADD11RoundRect,0.287356X0.962644X-0.712644X0.962644X0.712644X-0.962644X0.712644X-0.962644X-0.712644X0*%
%TD*%
%TA.AperFunction,ComponentPad*%
%ADD12O,2.500000X2.000000*%
%TD*%
%TA.AperFunction,ComponentPad*%
%ADD13RoundRect,0.287356X-0.712644X-0.962644X0.712644X-0.962644X0.712644X0.962644X-0.712644X0.962644X0*%
%TD*%
%TA.AperFunction,ComponentPad*%
%ADD14O,2.000000X2.500000*%
%TD*%
%TA.AperFunction,ComponentPad*%
%ADD15R,2.000000X2.000000*%
%TD*%
%TA.AperFunction,ComponentPad*%
%ADD16O,2.000000X2.000000*%
%TD*%
%TA.AperFunction,ComponentPad*%
%ADD17RoundRect,0.287356X-0.962644X0.712644X-0.962644X-0.712644X0.962644X-0.712644X0.962644X0.712644X0*%
%TD*%
%TA.AperFunction,ComponentPad*%
%ADD18RoundRect,0.287356X0.712644X0.962644X-0.712644X0.962644X-0.712644X-0.962644X0.712644X-0.962644X0*%
%TD*%
%TA.AperFunction,ComponentPad*%
%ADD19R,2.100000X2.100000*%
%TD*%
%TA.AperFunction,ComponentPad*%
%ADD20C,1.950000*%
%TD*%
%TA.AperFunction,WasherPad*%
%ADD21C,3.200000*%
%TD*%
%TA.AperFunction,ComponentPad*%
%ADD22R,1.350000X1.350000*%
%TD*%
%TA.AperFunction,ComponentPad*%
%ADD23O,1.350000X1.350000*%
%TD*%
%TA.AperFunction,ComponentPad*%
%ADD24R,1.000000X1.000000*%
%TD*%
%TA.AperFunction,ComponentPad*%
%ADD25O,1.000000X1.000000*%
%TD*%
%TA.AperFunction,ViaPad*%
%ADD26C,1.600000*%
%TD*%
%TA.AperFunction,ViaPad*%
%ADD27C,1.500000*%
%TD*%
%TA.AperFunction,Conductor*%
%ADD28C,1.000000*%
%TD*%
%TA.AperFunction,Conductor*%
%ADD29C,0.500000*%
%TD*%
%TA.AperFunction,Conductor*%
%ADD30C,1.100000*%
%TD*%
%TA.AperFunction,Conductor*%
%ADD31C,0.350000*%
%TD*%
%TA.AperFunction,Conductor*%
%ADD32C,1.300000*%
%TD*%
%TA.AperFunction,Conductor*%
%ADD33C,0.650000*%
%TD*%
G04 APERTURE END LIST*
D10*
%TO.P,J5,1,Pin_1*%
%TO.N,N/C*%
X228686111Y-126725560D03*
%TD*%
%TO.P,J7,1,Pin_1*%
%TO.N,N/C*%
X211414111Y-73639560D03*
%TD*%
D11*
%TO.P,J1,1,Pin_1*%
%TO.N,N/C*%
X106758111Y-70604560D03*
D12*
%TO.P,J1,2,Pin_2*%
X106758111Y-68064560D03*
%TD*%
D13*
%TO.P,J1,1,Pin_1*%
%TO.N,N/C*%
X216110965Y-62334540D03*
D14*
%TO.P,J1,2,Pin_2*%
X218650965Y-62334540D03*
%TD*%
D15*
%TO.P,D4,1,A*%
%TO.N,N/C*%
X203032111Y-80751560D03*
D16*
%TO.P,D4,2,K*%
X203032111Y-85831560D03*
%TD*%
D17*
%TO.P,J2,1,Pin_1*%
%TO.N,N/C*%
X106592111Y-101510560D03*
D12*
%TO.P,J2,2,Pin_2*%
X106592111Y-104050560D03*
%TO.P,J2,3,Pin_3*%
X106592111Y-106590560D03*
%TO.P,J2,4,Pin_4*%
X106592111Y-109130560D03*
%TO.P,J2,5,Pin_5*%
X106592111Y-111670560D03*
%TD*%
D18*
%TO.P,J2,1,Pin_1*%
%TO.N,N/C*%
X129165111Y-61859560D03*
D14*
%TO.P,J2,2,Pin_2*%
X126625111Y-61859560D03*
%TO.P,J2,3,Pin_3*%
X124085111Y-61859560D03*
%TO.P,J2,4,Pin_4*%
X121545111Y-61859560D03*
%TO.P,J2,5,Pin_5*%
X119005111Y-61859560D03*
%TD*%
D19*
%TO.P,J3,1,3V3*%
%TO.N,N/C*%
X80890455Y-64647735D03*
D16*
%TO.P,J3,2,5V*%
X83430455Y-64647735D03*
%TO.P,J3,3,SDA/GPIO2*%
X80890455Y-67187735D03*
%TO.P,J3,4,5V*%
X83430455Y-67187735D03*
%TO.P,J3,5,SCL/GPIO3*%
X80890455Y-69727735D03*
%TO.P,J3,6,GND*%
X83430455Y-69727735D03*
%TO.P,J3,7,GCLK0/GPIO4*%
X80890455Y-72267735D03*
%TO.P,J3,8,GPIO14/TXD*%
X83430455Y-72267735D03*
%TO.P,J3,9,GND*%
X80890455Y-74807735D03*
%TO.P,J3,10,GPIO15/RXD*%
X83430455Y-74807735D03*
%TO.P,J3,11,GPIO17*%
X80890455Y-77347735D03*
%TO.P,J3,12,GPIO18/PWM0*%
X83430455Y-77347735D03*
%TO.P,J3,13,GPIO27*%
X80890455Y-79887735D03*
%TO.P,J3,14,GND*%
X83430455Y-79887735D03*
%TO.P,J3,15,GPIO22*%
X80890455Y-82427735D03*
%TO.P,J3,16,GPIO23*%
X83430455Y-82427735D03*
%TO.P,J3,17,3V3*%
X80890455Y-84967735D03*
%TO.P,J3,18,GPIO24*%
X83430455Y-84967735D03*
%TO.P,J3,19,MOSI0/GPIO10*%
X80890455Y-87507735D03*
%TO.P,J3,20,GND*%
X83430455Y-87507735D03*
%TO.P,J3,21,MISO0/GPIO9*%
X80890455Y-90047735D03*
%TO.P,J3,22,GPIO25*%
X83430455Y-90047735D03*
%TO.P,J3,23,SCLK0/GPIO11*%
X80890455Y-92587735D03*
%TO.P,J3,24,~{CE0}/GPIO8*%
X83430455Y-92587735D03*
%TO.P,J3,25,GND*%
X80890455Y-95127735D03*
%TO.P,J3,26,~{CE1}/GPIO7*%
X83430455Y-95127735D03*
%TO.P,J3,27,ID_SD/GPIO0*%
X80890455Y-97667735D03*
%TO.P,J3,28,ID_SC/GPIO1*%
X83430455Y-97667735D03*
%TO.P,J3,29,GCLK1/GPIO5*%
X80890455Y-100207735D03*
%TO.P,J3,30,GND*%
X83430455Y-100207735D03*
%TO.P,J3,31,GCLK2/GPIO6*%
X80890455Y-102747735D03*
%TO.P,J3,32,PWM0/GPIO12*%
X83430455Y-102747735D03*
%TO.P,J3,33,PWM1/GPIO13*%
X80890455Y-105287735D03*
%TO.P,J3,34,GND*%
X83430455Y-105287735D03*
%TO.P,J3,35,GPIO19/MISO1*%
X80890455Y-107827735D03*
%TO.P,J3,36,GPIO16*%
X83430455Y-107827735D03*
%TO.P,J3,37,GPIO26*%
X80890455Y-110367735D03*
%TO.P,J3,38,GPIO20/MOSI1*%
X83430455Y-110367735D03*
%TO.P,J3,39,GND*%
X80890455Y-112907735D03*
%TO.P,J3,40,GPIO21/SCLK1*%
X83430455Y-112907735D03*
%TD*%
D20*
%TO.P,J2,1,Pin_1*%
%TO.N,N/C*%
X147894111Y-76961600D03*
%TO.P,J2,2,Pin_2*%
X145354111Y-76961600D03*
%TD*%
D15*
%TO.P,A1,1,NC*%
%TO.N,N/C*%
X228940111Y-111231560D03*
D16*
%TO.P,A1,2,IOREF*%
X228940111Y-108691560D03*
%TO.P,A1,3,~{RESET}*%
X228940111Y-106151560D03*
%TO.P,A1,4,3V3*%
X228940111Y-103611560D03*
%TO.P,A1,5,5V*%
X228940111Y-101071560D03*
%TO.P,A1,6,GND*%
X228940111Y-98531560D03*
%TO.P,A1,7,GND*%
X228940111Y-95991560D03*
%TO.P,A1,8,Vin*%
X228940111Y-93451560D03*
%TO.P,A1,9,IS_1*%
X228940111Y-88371560D03*
%TO.P,A1,10,IS_2*%
X228940111Y-85831560D03*
%TO.P,A1,11,A2*%
X228940111Y-83291560D03*
%TO.P,A1,12,A3*%
X228940111Y-80751560D03*
%TO.P,A1,13,A4*%
X228940111Y-78211560D03*
%TO.P,A1,14,A5*%
X228940111Y-75671560D03*
%TO.P,A1,15,D0/RX*%
X180680111Y-75671560D03*
%TO.P,A1,16,D1/TX*%
X180680111Y-78211560D03*
%TO.P,A1,17,D2*%
X180680111Y-80751560D03*
%TO.P,A1,18,IN_1*%
X180680111Y-83291560D03*
%TO.P,A1,19,D4*%
X180680111Y-85831560D03*
%TO.P,A1,20,D5*%
X180680111Y-88371560D03*
%TO.P,A1,21,D6*%
X180680111Y-90911560D03*
%TO.P,A1,22,D7*%
X180680111Y-93451560D03*
%TO.P,A1,23,D8*%
X180680111Y-97511560D03*
%TO.P,A1,24,D9*%
X180680111Y-100051560D03*
%TO.P,A1,25,D10*%
X180680111Y-102591560D03*
%TO.P,A1,26,IN_2*%
X180680111Y-105131560D03*
%TO.P,A1,27,INH_1*%
X180680111Y-107671560D03*
%TO.P,A1,28,INH_2*%
X180680111Y-110211560D03*
%TO.P,A1,29,GND*%
X180680111Y-112751560D03*
%TO.P,A1,30,AREF*%
X180680111Y-115291560D03*
%TO.P,A1,31,SDA/A4*%
X180680111Y-117831560D03*
%TO.P,A1,32,SCL/A5*%
X180680111Y-120371560D03*
%TD*%
D19*
%TO.P,J3,1,3V3*%
%TO.N,N/C*%
X165244111Y-53241560D03*
D16*
%TO.P,J3,2,5V*%
X165244111Y-55781560D03*
%TO.P,J3,3,SDA/GPIO2*%
X162704111Y-53241560D03*
%TO.P,J3,4,5V*%
X162704111Y-55781560D03*
%TO.P,J3,5,SCL/GPIO3*%
X160164111Y-53241560D03*
%TO.P,J3,6,GND*%
X160164111Y-55781560D03*
%TO.P,J3,7,GCLK0/GPIO4*%
X157624111Y-53241560D03*
%TO.P,J3,8,GPIO14/TXD*%
X157624111Y-55781560D03*
%TO.P,J3,9,GND*%
X155084111Y-53241560D03*
%TO.P,J3,10,GPIO15/RXD*%
X155084111Y-55781560D03*
%TO.P,J3,11,GPIO17*%
X152544111Y-53241560D03*
%TO.P,J3,12,GPIO18/PWM0*%
X152544111Y-55781560D03*
%TO.P,J3,13,GPIO27*%
X150004111Y-53241560D03*
%TO.P,J3,14,GND*%
X150004111Y-55781560D03*
%TO.P,J3,15,GPIO22*%
X147464111Y-53241560D03*
%TO.P,J3,16,GPIO23*%
X147464111Y-55781560D03*
%TO.P,J3,17,3V3*%
X144924111Y-53241560D03*
%TO.P,J3,18,GPIO24*%
X144924111Y-55781560D03*
%TO.P,J3,19,MOSI0/GPIO10*%
X142384111Y-53241560D03*
%TO.P,J3,20,GND*%
X142384111Y-55781560D03*
%TO.P,J3,21,MISO0/GPIO9*%
X139844111Y-53241560D03*
%TO.P,J3,22,GPIO25*%
X139844111Y-55781560D03*
%TO.P,J3,23,SCLK0/GPIO11*%
X137304111Y-53241560D03*
%TO.P,J3,24,~{CE0}/GPIO8*%
X137304111Y-55781560D03*
%TO.P,J3,25,GND*%
X134764111Y-53241560D03*
%TO.P,J3,26,~{CE1}/GPIO7*%
X134764111Y-55781560D03*
%TO.P,J3,27,ID_SD/GPIO0*%
X132224111Y-53241560D03*
%TO.P,J3,28,ID_SC/GPIO1*%
X132224111Y-55781560D03*
%TO.P,J3,29,GCLK1/GPIO5*%
X129684111Y-53241560D03*
%TO.P,J3,30,GND*%
X129684111Y-55781560D03*
%TO.P,J3,31,GCLK2/GPIO6*%
X127144111Y-53241560D03*
%TO.P,J3,32,PWM0/GPIO12*%
X127144111Y-55781560D03*
%TO.P,J3,33,PWM1/GPIO13*%
X124604111Y-53241560D03*
%TO.P,J3,34,GND*%
X124604111Y-55781560D03*
%TO.P,J3,35,GPIO19/MISO1*%
X122064111Y-53241560D03*
%TO.P,J3,36,GPIO16*%
X122064111Y-55781560D03*
%TO.P,J3,37,GPIO26*%
X119524111Y-53241560D03*
%TO.P,J3,38,GPIO20/MOSI1*%
X119524111Y-55781560D03*
%TO.P,J3,39,GND*%
X116984111Y-53241560D03*
%TO.P,J3,40,GPIO21/SCLK1*%
X116984111Y-55781560D03*
%TD*%
D20*
%TO.P,J2,1,Pin_1*%
%TO.N,N/C*%
X207350111Y-74909560D03*
%TO.P,J2,2,Pin_2*%
X204810111Y-74909560D03*
%TD*%
D17*
%TO.P,J2,1,Pin_1*%
%TO.N,N/C*%
X89508455Y-100726735D03*
D12*
%TO.P,J2,2,Pin_2*%
X89508455Y-103266735D03*
%TO.P,J2,3,Pin_3*%
X89508455Y-105806735D03*
%TO.P,J2,4,Pin_4*%
X89508455Y-108346735D03*
%TO.P,J2,5,Pin_5*%
X89508455Y-110886735D03*
%TD*%
D13*
%TO.P,J1,1,Pin_1*%
%TO.N,N/C*%
X160071111Y-62025560D03*
D14*
%TO.P,J1,2,Pin_2*%
X162611111Y-62025560D03*
%TD*%
D11*
%TO.P,J1,1,Pin_1*%
%TO.N,N/C*%
X89674455Y-69820735D03*
D12*
%TO.P,J1,2,Pin_2*%
X89674455Y-67280735D03*
%TD*%
D15*
%TO.P,D4,1,A*%
%TO.N,N/C*%
X143576111Y-82803600D03*
D16*
%TO.P,D4,2,K*%
X143576111Y-87883600D03*
%TD*%
D21*
%TO.P,REF\u002A\u002A,*%
%TO.N,*%
X80314111Y-144451560D03*
%TD*%
%TO.P,REF\u002A\u002A,*%
%TO.N,*%
X230314111Y-54451560D03*
%TD*%
D10*
%TO.P,J5,1,Pin_1*%
%TO.N,N/C*%
X169230111Y-128777600D03*
%TD*%
D22*
%TO.P,J1,1,MISO*%
%TO.N,N/C*%
X151196111Y-105155600D03*
D23*
%TO.P,J1,2,VCC*%
X153196111Y-105155600D03*
%TO.P,J1,3,SCK*%
X151196111Y-107155600D03*
%TO.P,J1,4,MOSI*%
X153196111Y-107155600D03*
%TO.P,J1,5,~{RST}*%
X151196111Y-109155600D03*
%TO.P,J1,6,GND*%
X153196111Y-109155600D03*
%TD*%
D22*
%TO.P,J1,1,MISO*%
%TO.N,N/C*%
X210652111Y-103103560D03*
D23*
%TO.P,J1,2,VCC*%
X212652111Y-103103560D03*
%TO.P,J1,3,SCK*%
X210652111Y-105103560D03*
%TO.P,J1,4,MOSI*%
X212652111Y-105103560D03*
%TO.P,J1,5,~{RST}*%
X210652111Y-107103560D03*
%TO.P,J1,6,GND*%
X212652111Y-107103560D03*
%TD*%
D24*
%TO.P,J4,1,Pin_1*%
%TO.N,N/C*%
X120716111Y-135249600D03*
D25*
%TO.P,J4,2,Pin_2*%
X120716111Y-133979600D03*
%TO.P,J4,3,Pin_3*%
X120716111Y-132709600D03*
%TO.P,J4,4,Pin_4*%
X120716111Y-131439600D03*
%TD*%
D19*
%TO.P,J3,1,3V3*%
%TO.N,N/C*%
X221283965Y-53550540D03*
D16*
%TO.P,J3,2,5V*%
X221283965Y-56090540D03*
%TO.P,J3,3,SDA/GPIO2*%
X218743965Y-53550540D03*
%TO.P,J3,4,5V*%
X218743965Y-56090540D03*
%TO.P,J3,5,SCL/GPIO3*%
X216203965Y-53550540D03*
%TO.P,J3,6,GND*%
X216203965Y-56090540D03*
%TO.P,J3,7,GCLK0/GPIO4*%
X213663965Y-53550540D03*
%TO.P,J3,8,GPIO14/TXD*%
X213663965Y-56090540D03*
%TO.P,J3,9,GND*%
X211123965Y-53550540D03*
%TO.P,J3,10,GPIO15/RXD*%
X211123965Y-56090540D03*
%TO.P,J3,11,GPIO17*%
X208583965Y-53550540D03*
%TO.P,J3,12,GPIO18/PWM0*%
X208583965Y-56090540D03*
%TO.P,J3,13,GPIO27*%
X206043965Y-53550540D03*
%TO.P,J3,14,GND*%
X206043965Y-56090540D03*
%TO.P,J3,15,GPIO22*%
X203503965Y-53550540D03*
%TO.P,J3,16,GPIO23*%
X203503965Y-56090540D03*
%TO.P,J3,17,3V3*%
X200963965Y-53550540D03*
%TO.P,J3,18,GPIO24*%
X200963965Y-56090540D03*
%TO.P,J3,19,MOSI0/GPIO10*%
X198423965Y-53550540D03*
%TO.P,J3,20,GND*%
X198423965Y-56090540D03*
%TO.P,J3,21,MISO0/GPIO9*%
X195883965Y-53550540D03*
%TO.P,J3,22,GPIO25*%
X195883965Y-56090540D03*
%TO.P,J3,23,SCLK0/GPIO11*%
X193343965Y-53550540D03*
%TO.P,J3,24,~{CE0}/GPIO8*%
X193343965Y-56090540D03*
%TO.P,J3,25,GND*%
X190803965Y-53550540D03*
%TO.P,J3,26,~{CE1}/GPIO7*%
X190803965Y-56090540D03*
%TO.P,J3,27,ID_SD/GPIO0*%
X188263965Y-53550540D03*
%TO.P,J3,28,ID_SC/GPIO1*%
X188263965Y-56090540D03*
%TO.P,J3,29,GCLK1/GPIO5*%
X185723965Y-53550540D03*
%TO.P,J3,30,GND*%
X185723965Y-56090540D03*
%TO.P,J3,31,GCLK2/GPIO6*%
X183183965Y-53550540D03*
%TO.P,J3,32,PWM0/GPIO12*%
X183183965Y-56090540D03*
%TO.P,J3,33,PWM1/GPIO13*%
X180643965Y-53550540D03*
%TO.P,J3,34,GND*%
X180643965Y-56090540D03*
%TO.P,J3,35,GPIO19/MISO1*%
X178103965Y-53550540D03*
%TO.P,J3,36,GPIO16*%
X178103965Y-56090540D03*
%TO.P,J3,37,GPIO26*%
X175563965Y-53550540D03*
%TO.P,J3,38,GPIO20/MOSI1*%
X175563965Y-56090540D03*
%TO.P,J3,39,GND*%
X173023965Y-53550540D03*
%TO.P,J3,40,GPIO21/SCLK1*%
X173023965Y-56090540D03*
%TD*%
D24*
%TO.P,J4,1,Pin_1*%
%TO.N,N/C*%
X180172111Y-133197560D03*
D25*
%TO.P,J4,2,Pin_2*%
X180172111Y-131927560D03*
%TO.P,J4,3,Pin_3*%
X180172111Y-130657560D03*
%TO.P,J4,4,Pin_4*%
X180172111Y-129387560D03*
%TD*%
D21*
%TO.P,REF\u002A\u002A,*%
%TO.N,*%
X80314111Y-54451560D03*
%TD*%
%TO.P,REF\u002A\u002A,*%
%TO.N,*%
X230314111Y-144451560D03*
%TD*%
D18*
%TO.P,J2,1,Pin_1*%
%TO.N,N/C*%
X185204965Y-62168540D03*
D14*
%TO.P,J2,2,Pin_2*%
X182664965Y-62168540D03*
%TO.P,J2,3,Pin_3*%
X180124965Y-62168540D03*
%TO.P,J2,4,Pin_4*%
X177584965Y-62168540D03*
%TO.P,J2,5,Pin_5*%
X175044965Y-62168540D03*
%TD*%
D15*
%TO.P,A1,1,NC*%
%TO.N,N/C*%
X169484111Y-113283600D03*
D16*
%TO.P,A1,2,IOREF*%
X169484111Y-110743600D03*
%TO.P,A1,3,~{RESET}*%
X169484111Y-108203600D03*
%TO.P,A1,4,3V3*%
X169484111Y-105663600D03*
%TO.P,A1,5,5V*%
X169484111Y-103123600D03*
%TO.P,A1,6,GND*%
X169484111Y-100583600D03*
%TO.P,A1,7,GND*%
X169484111Y-98043600D03*
%TO.P,A1,8,Vin*%
X169484111Y-95503600D03*
%TO.P,A1,9,IS_1*%
X169484111Y-90423600D03*
%TO.P,A1,10,IS_2*%
X169484111Y-87883600D03*
%TO.P,A1,11,A2*%
X169484111Y-85343600D03*
%TO.P,A1,12,A3*%
X169484111Y-82803600D03*
%TO.P,A1,13,A4*%
X169484111Y-80263600D03*
%TO.P,A1,14,A5*%
X169484111Y-77723600D03*
%TO.P,A1,15,D0/RX*%
X121224111Y-77723600D03*
%TO.P,A1,16,D1/TX*%
X121224111Y-80263600D03*
%TO.P,A1,17,D2*%
X121224111Y-82803600D03*
%TO.P,A1,18,IN_1*%
X121224111Y-85343600D03*
%TO.P,A1,19,D4*%
X121224111Y-87883600D03*
%TO.P,A1,20,D5*%
X121224111Y-90423600D03*
%TO.P,A1,21,D6*%
X121224111Y-92963600D03*
%TO.P,A1,22,D7*%
X121224111Y-95503600D03*
%TO.P,A1,23,D8*%
X121224111Y-99563600D03*
%TO.P,A1,24,D9*%
X121224111Y-102103600D03*
%TO.P,A1,25,D10*%
X121224111Y-104643600D03*
%TO.P,A1,26,IN_2*%
X121224111Y-107183600D03*
%TO.P,A1,27,INH_1*%
X121224111Y-109723600D03*
%TO.P,A1,28,INH_2*%
X121224111Y-112263600D03*
%TO.P,A1,29,GND*%
X121224111Y-114803600D03*
%TO.P,A1,30,AREF*%
X121224111Y-117343600D03*
%TO.P,A1,31,SDA/A4*%
X121224111Y-119883600D03*
%TO.P,A1,32,SCL/A5*%
X121224111Y-122423600D03*
%TD*%
D19*
%TO.P,J3,1,3V3*%
%TO.N,N/C*%
X97974111Y-65431560D03*
D16*
%TO.P,J3,2,5V*%
X100514111Y-65431560D03*
%TO.P,J3,3,SDA/GPIO2*%
X97974111Y-67971560D03*
%TO.P,J3,4,5V*%
X100514111Y-67971560D03*
%TO.P,J3,5,SCL/GPIO3*%
X97974111Y-70511560D03*
%TO.P,J3,6,GND*%
X100514111Y-70511560D03*
%TO.P,J3,7,GCLK0/GPIO4*%
X97974111Y-73051560D03*
%TO.P,J3,8,GPIO14/TXD*%
X100514111Y-73051560D03*
%TO.P,J3,9,GND*%
X97974111Y-75591560D03*
%TO.P,J3,10,GPIO15/RXD*%
X100514111Y-75591560D03*
%TO.P,J3,11,GPIO17*%
X97974111Y-78131560D03*
%TO.P,J3,12,GPIO18/PWM0*%
X100514111Y-78131560D03*
%TO.P,J3,13,GPIO27*%
X97974111Y-80671560D03*
%TO.P,J3,14,GND*%
X100514111Y-80671560D03*
%TO.P,J3,15,GPIO22*%
X97974111Y-83211560D03*
%TO.P,J3,16,GPIO23*%
X100514111Y-83211560D03*
%TO.P,J3,17,3V3*%
X97974111Y-85751560D03*
%TO.P,J3,18,GPIO24*%
X100514111Y-85751560D03*
%TO.P,J3,19,MOSI0/GPIO10*%
X97974111Y-88291560D03*
%TO.P,J3,20,GND*%
X100514111Y-88291560D03*
%TO.P,J3,21,MISO0/GPIO9*%
X97974111Y-90831560D03*
%TO.P,J3,22,GPIO25*%
X100514111Y-90831560D03*
%TO.P,J3,23,SCLK0/GPIO11*%
X97974111Y-93371560D03*
%TO.P,J3,24,~{CE0}/GPIO8*%
X100514111Y-93371560D03*
%TO.P,J3,25,GND*%
X97974111Y-95911560D03*
%TO.P,J3,26,~{CE1}/GPIO7*%
X100514111Y-95911560D03*
%TO.P,J3,27,ID_SD/GPIO0*%
X97974111Y-98451560D03*
%TO.P,J3,28,ID_SC/GPIO1*%
X100514111Y-98451560D03*
%TO.P,J3,29,GCLK1/GPIO5*%
X97974111Y-100991560D03*
%TO.P,J3,30,GND*%
X100514111Y-100991560D03*
%TO.P,J3,31,GCLK2/GPIO6*%
X97974111Y-103531560D03*
%TO.P,J3,32,PWM0/GPIO12*%
X100514111Y-103531560D03*
%TO.P,J3,33,PWM1/GPIO13*%
X97974111Y-106071560D03*
%TO.P,J3,34,GND*%
X100514111Y-106071560D03*
%TO.P,J3,35,GPIO19/MISO1*%
X97974111Y-108611560D03*
%TO.P,J3,36,GPIO16*%
X100514111Y-108611560D03*
%TO.P,J3,37,GPIO26*%
X97974111Y-111151560D03*
%TO.P,J3,38,GPIO20/MOSI1*%
X100514111Y-111151560D03*
%TO.P,J3,39,GND*%
X97974111Y-113691560D03*
%TO.P,J3,40,GPIO21/SCLK1*%
X100514111Y-113691560D03*
%TD*%
D10*
%TO.P,J7,1,Pin_1*%
%TO.N,N/C*%
X151958111Y-75691600D03*
%TD*%
D26*
%TO.N,*%
X153228111Y-90677600D03*
D27*
X89497455Y-73264735D03*
D26*
X186115711Y-80192760D03*
X125161111Y-86258000D03*
X149869450Y-82765587D03*
X132654111Y-105146580D03*
D27*
X211545965Y-60093540D03*
D26*
X203204457Y-117561614D03*
X206334111Y-80243560D03*
X206725341Y-124857215D03*
X222078822Y-97454183D03*
X166944111Y-76961600D03*
X131757831Y-85427153D03*
X226654111Y-115803560D03*
X141441011Y-123102381D03*
X139410711Y-92903867D03*
X140050927Y-101314784D03*
X192130747Y-85263809D03*
X145354111Y-130555600D03*
X196581611Y-124368850D03*
X156022111Y-100304100D03*
D27*
X171760965Y-64523540D03*
D26*
X204556111Y-95483560D03*
X144084111Y-90423600D03*
X197317211Y-85569975D03*
X170246111Y-117601600D03*
D27*
X155506111Y-59784560D03*
D26*
X123852567Y-130427132D03*
X147269341Y-126909255D03*
X229702111Y-115549560D03*
X140960211Y-90423600D03*
X206334111Y-130281560D03*
D27*
X222132965Y-64621540D03*
D26*
X209841011Y-109996154D03*
X125050100Y-89429567D03*
X216593677Y-82171116D03*
X189138311Y-90911560D03*
D27*
X104517111Y-75169560D03*
D26*
X191329292Y-122710643D03*
X226275105Y-80975230D03*
X143748457Y-119613654D03*
X130368111Y-103631600D03*
X192201494Y-112008352D03*
X195107311Y-109682160D03*
X140932910Y-95730526D03*
X199506927Y-99262744D03*
D27*
X86735455Y-96435735D03*
D26*
X148656111Y-107187600D03*
X137861211Y-85333719D03*
X146878111Y-132333600D03*
D27*
X89562455Y-64609735D03*
D26*
X143068111Y-130784100D03*
D27*
X189495965Y-59395540D03*
X221321965Y-62222540D03*
D26*
X215478111Y-98252060D03*
X131892111Y-127253600D03*
D27*
X156627111Y-61848560D03*
D26*
X135651311Y-111734200D03*
X150385011Y-112048194D03*
X202189973Y-124239918D03*
X151500911Y-124866100D03*
X142733973Y-126291958D03*
X142355211Y-106679600D03*
X224377235Y-102264982D03*
X167198111Y-117855600D03*
X184236111Y-106405560D03*
X126659711Y-82244800D03*
X201660511Y-137291960D03*
D27*
X103819111Y-97219560D03*
X212666965Y-62157540D03*
D26*
X132674747Y-87315849D03*
D27*
X91961455Y-63798735D03*
X166093111Y-64312560D03*
D26*
X145868103Y-118586208D03*
X137861211Y-87622015D03*
X189824111Y-101579560D03*
X213446111Y-79989560D03*
X204810111Y-128503560D03*
X124780111Y-108457600D03*
X216947401Y-135350747D03*
X197317211Y-83281679D03*
X220558111Y-101554060D03*
X203794111Y-134040660D03*
X191213831Y-83375113D03*
D27*
X106581111Y-74048560D03*
D26*
X166819105Y-83027270D03*
X142204511Y-139344000D03*
D27*
X133456111Y-59086560D03*
D26*
X198866711Y-90851827D03*
X203746553Y-126156955D03*
X164145100Y-102330788D03*
X183474111Y-132567560D03*
D27*
X91863455Y-114170735D03*
D26*
X124018111Y-132520097D03*
X157137677Y-84223156D03*
X205324103Y-116534168D03*
X203540111Y-88371560D03*
X145100111Y-97535600D03*
X137125611Y-126420890D03*
X192110111Y-103094540D03*
X128157091Y-109727600D03*
X222336111Y-104881560D03*
X131992611Y-89772982D03*
X161102111Y-103606100D03*
X200416211Y-88371560D03*
D27*
X115721111Y-64214560D03*
D26*
X202524111Y-128732060D03*
X215754099Y-122817472D03*
X226400111Y-74909560D03*
X208820198Y-89944595D03*
X131873292Y-124762683D03*
X124018111Y-134619600D03*
D27*
X165282111Y-61913560D03*
D26*
X137861211Y-90775579D03*
X156784111Y-110743600D03*
X210956911Y-122814060D03*
X216240111Y-108691560D03*
X209325450Y-80713547D03*
X200897011Y-121050341D03*
X129682311Y-92963600D03*
X212684111Y-88625560D03*
D27*
X108947111Y-114954560D03*
D26*
X187613091Y-107675560D03*
X149364198Y-91996635D03*
D27*
X109045111Y-64582560D03*
D26*
X162880111Y-106933600D03*
X132745494Y-114060392D03*
X208112111Y-105135560D03*
X153990111Y-82041600D03*
D27*
X87433455Y-74385735D03*
D26*
X164921235Y-104317022D03*
X133848959Y-108532752D03*
X146878111Y-82295600D03*
X200388910Y-93678486D03*
X183308567Y-128375092D03*
D27*
X106646111Y-65393560D03*
D26*
X191448611Y-87720942D03*
X184506100Y-87377527D03*
X201811211Y-104627560D03*
X197317211Y-88723539D03*
X144290553Y-128208995D03*
X144338111Y-136092700D03*
X157491401Y-137402787D03*
X191348111Y-125201560D03*
X184617111Y-84205960D03*
X193304959Y-106480712D03*
X156298099Y-124869512D03*
X223601100Y-100278748D03*
X162622822Y-99506223D03*
X183474111Y-130468057D03*
%TD*%
D28*
%TO.N,*%
X102643071Y-98395600D02*
X102643071Y-109971520D01*
D29*
X191348111Y-125201560D02*
X194878611Y-128732060D01*
X165440600Y-115727011D02*
X165440600Y-104836387D01*
X136184711Y-111200800D02*
X135651311Y-111734200D01*
X199910556Y-88371560D02*
X198713035Y-87174039D01*
X163870901Y-102056589D02*
X164145100Y-102330788D01*
D30*
X222020445Y-64734060D02*
X184045485Y-64734060D01*
D28*
X167198111Y-117855600D02*
X167198111Y-83406276D01*
D29*
X148656111Y-107187600D02*
X148376711Y-106908200D01*
D30*
X109157631Y-102670040D02*
X107777111Y-104050560D01*
X90693455Y-103266735D02*
X89508455Y-103266735D01*
D29*
X165807941Y-99796089D02*
X165948600Y-99936748D01*
X193304959Y-106480712D02*
X195640711Y-108816464D01*
D31*
X89430327Y-105806735D02*
X89508455Y-105806735D01*
D28*
X102643071Y-109971520D02*
X104342111Y-111670560D01*
D29*
X151181547Y-107155600D02*
X151196111Y-107155600D01*
X189824111Y-101579560D02*
X189824111Y-107339965D01*
D31*
X89258455Y-110886735D02*
X89508455Y-110886735D01*
D29*
X201538836Y-119500840D02*
X203746553Y-121708557D01*
X151196111Y-109155600D02*
X150385011Y-109966700D01*
X159865408Y-99506223D02*
X152065821Y-91706636D01*
X195640711Y-109148760D02*
X195107311Y-109682160D01*
X122840099Y-131439600D02*
X123852567Y-130427132D01*
D28*
X176744005Y-58219500D02*
X175044965Y-59918540D01*
D29*
X208112111Y-105135560D02*
X210605547Y-105135560D01*
D28*
X181795316Y-59819020D02*
X180124965Y-61489371D01*
D29*
X191995514Y-87174039D02*
X191448611Y-87720942D01*
X146878111Y-132333600D02*
X131384111Y-132333600D01*
X198713035Y-87174039D02*
X191995514Y-87174039D01*
D30*
X107458111Y-100644560D02*
X106592111Y-101510560D01*
D28*
X115721111Y-64214560D02*
X121440111Y-64214560D01*
X148473813Y-73022079D02*
X144774409Y-73022079D01*
X85559415Y-109187695D02*
X87258455Y-110886735D01*
D30*
X92073975Y-63911255D02*
X92073975Y-101886215D01*
D29*
X186242711Y-135590160D02*
X183474111Y-132821560D01*
X191964552Y-134040660D02*
X188391949Y-130468057D01*
D28*
X120704151Y-57910520D02*
X119005111Y-59609560D01*
D29*
X200126509Y-93940887D02*
X200126509Y-98643162D01*
X148656111Y-107187600D02*
X151149547Y-107187600D01*
X89696455Y-69842735D02*
X89674455Y-69820735D01*
D28*
X188319925Y-58219500D02*
X176744005Y-58219500D01*
D30*
X89562455Y-64609735D02*
X89562455Y-67168735D01*
D29*
X138287321Y-126420890D02*
X137125611Y-126420890D01*
D28*
X88829286Y-105806735D02*
X89508455Y-105806735D01*
D29*
X191329292Y-122710643D02*
X189619194Y-122710643D01*
X145354111Y-130555600D02*
X145508790Y-130400921D01*
X138792433Y-84073600D02*
X138503041Y-83784208D01*
D30*
X185215965Y-62157540D02*
X185204965Y-62168540D01*
D29*
X138503041Y-83784208D02*
X127634903Y-83784208D01*
D28*
X88724935Y-97873629D02*
X87158935Y-99439629D01*
D29*
X188391949Y-130468057D02*
X183474111Y-130468057D01*
D28*
X125755462Y-59510040D02*
X124085111Y-61180391D01*
D29*
X153990111Y-82041600D02*
X150593437Y-82041600D01*
D28*
X132280071Y-57910520D02*
X120704151Y-57910520D01*
D29*
X208820198Y-89944595D02*
X204556111Y-94208682D01*
D28*
X227637622Y-73672049D02*
X224935612Y-70970039D01*
D29*
X165948600Y-99936748D02*
X165948600Y-103289657D01*
D28*
X147894111Y-76961600D02*
X149293632Y-75562079D01*
X175044965Y-59918540D02*
X175044965Y-62168540D01*
D30*
X89497455Y-69997735D02*
X89674455Y-69820735D01*
D28*
X207929813Y-70970039D02*
X204230409Y-70970039D01*
D29*
X140670509Y-95992927D02*
X140670509Y-100695202D01*
D28*
X86735455Y-96435735D02*
X85559415Y-97611775D01*
D30*
X89497455Y-100715735D02*
X89508455Y-100726735D01*
D28*
X227637622Y-73672049D02*
X226400111Y-74909560D01*
D32*
X218729965Y-62255540D02*
X218650965Y-62334540D01*
D29*
X131757831Y-85427153D02*
X131757831Y-85444985D01*
D28*
X133456111Y-59086560D02*
X132280071Y-57910520D01*
D29*
X130368111Y-103631600D02*
X130368111Y-109392005D01*
X141347089Y-84073600D02*
X138792433Y-84073600D01*
D28*
X230939622Y-114312049D02*
X230939622Y-74843334D01*
D29*
X200126509Y-98643162D02*
X199506927Y-99262744D01*
D28*
X204230409Y-70970039D02*
X202835600Y-72364848D01*
X189495965Y-59395540D02*
X188319925Y-58219500D01*
D29*
X180172111Y-131927560D02*
X182834111Y-131927560D01*
X220355111Y-101351060D02*
X211229611Y-101351060D01*
D30*
X106646111Y-67952560D02*
X106758111Y-68064560D01*
D28*
X212684111Y-88625560D02*
X226400111Y-74909560D01*
D29*
X150385011Y-109966700D02*
X150385011Y-112048194D01*
D31*
X119005111Y-61609560D02*
X119005111Y-61859560D01*
D29*
X189619194Y-122710643D02*
X186014111Y-119105560D01*
X195822132Y-88723539D02*
X197317211Y-88723539D01*
X140454556Y-90423600D02*
X139257035Y-89226079D01*
D28*
X210254485Y-61385020D02*
X188058071Y-61385020D01*
D32*
X106679111Y-67985560D02*
X106758111Y-68064560D01*
D29*
X127634903Y-83784208D02*
X125161111Y-86258000D01*
X223538657Y-103103560D02*
X224377235Y-102264982D01*
X210721523Y-89654596D02*
X203567998Y-82501071D01*
X225263941Y-97744049D02*
X225404600Y-97884708D01*
D28*
X168181622Y-75724089D02*
X165479612Y-73022079D01*
D29*
X132508552Y-136092700D02*
X128935949Y-132520097D01*
X149364198Y-91996635D02*
X145100111Y-96260722D01*
X215931244Y-82833549D02*
X216593677Y-82171116D01*
X141576865Y-121552880D02*
X142082836Y-121552880D01*
D31*
X180124965Y-62090412D02*
X180124965Y-62168540D01*
D28*
X224935612Y-70970039D02*
X210728855Y-70970039D01*
D29*
X193938810Y-111454664D02*
X193938810Y-112406785D01*
X134482810Y-114458825D02*
X141576865Y-121552880D01*
X128935949Y-132520097D02*
X124018111Y-132520097D01*
X210652111Y-101928560D02*
X210652111Y-103103560D01*
X209325450Y-79424899D02*
X209325450Y-80713547D01*
X197743321Y-124368850D02*
X196581611Y-124368850D01*
D28*
X104242591Y-100223454D02*
X104242591Y-104920209D01*
D29*
X202189973Y-124239918D02*
X200511540Y-125918351D01*
X204964790Y-128348881D02*
X204964790Y-127161923D01*
X216707988Y-135590160D02*
X186242711Y-135590160D01*
D31*
X106342111Y-111670560D02*
X106592111Y-111670560D01*
D29*
X206725341Y-124857215D02*
X206725341Y-120126731D01*
D28*
X229702111Y-115549560D02*
X230939622Y-114312049D01*
D29*
X137289360Y-88193866D02*
X137861211Y-87622015D01*
X132539514Y-89226079D02*
X131992611Y-89772982D01*
X150593437Y-82041600D02*
X149869450Y-82765587D01*
X136184711Y-110868504D02*
X136184711Y-111200800D01*
X160049111Y-62047560D02*
X160071111Y-62025560D01*
X153196111Y-106965600D02*
X153228111Y-106933600D01*
D30*
X212666965Y-62322540D02*
X211954965Y-63034540D01*
D28*
X154214631Y-61076040D02*
X155506111Y-59784560D01*
D29*
X141055540Y-127970391D02*
X136483786Y-127970391D01*
D30*
X222132965Y-64621540D02*
X222020445Y-64734060D01*
X156627111Y-61848560D02*
X156627111Y-62013560D01*
D29*
X132674747Y-87315849D02*
X133552764Y-88193866D01*
X208112111Y-105135560D02*
X207832711Y-104856160D01*
X144704224Y-119613654D02*
X143748457Y-119613654D01*
D30*
X89662455Y-73264735D02*
X90374455Y-73976735D01*
D31*
X124085111Y-61781432D02*
X124085111Y-61859560D01*
D29*
X134482810Y-113506704D02*
X134482810Y-114458825D01*
X205324103Y-116675588D02*
X210956911Y-122308396D01*
D30*
X129176111Y-61848560D02*
X129165111Y-61859560D01*
D28*
X105912942Y-106590560D02*
X106592111Y-106590560D01*
X170312337Y-75724089D02*
X168181622Y-75724089D01*
D29*
X131873292Y-124762683D02*
X130163194Y-124762683D01*
D28*
X167198111Y-83406276D02*
X166819105Y-83027270D01*
X143379600Y-82607089D02*
X143576111Y-82803600D01*
D29*
X145445713Y-127176252D02*
X145445713Y-123502235D01*
D28*
X177584965Y-64418540D02*
X177584965Y-62168540D01*
D29*
X196745360Y-86141826D02*
X197317211Y-85569975D01*
X194878611Y-128732060D02*
X202524111Y-128732060D01*
D30*
X106646111Y-65393560D02*
X106646111Y-67952560D01*
D29*
X151500911Y-124360436D02*
X151500911Y-124866100D01*
D30*
X92073975Y-101886215D02*
X90693455Y-103266735D01*
D29*
X198887345Y-98643162D02*
X199506927Y-99262744D01*
X200897011Y-121215160D02*
X197743321Y-124368850D01*
D32*
X89595455Y-67201735D02*
X89674455Y-67280735D01*
D28*
X105808591Y-98657454D02*
X104242591Y-100223454D01*
D29*
X184236111Y-100309560D02*
X195822132Y-88723539D01*
D28*
X202835600Y-72364848D02*
X202835600Y-80555049D01*
X151272855Y-73022079D02*
X147894111Y-76400823D01*
X170246111Y-117601600D02*
X171483622Y-116364089D01*
D29*
X209841011Y-107914660D02*
X209841011Y-109996154D01*
D30*
X109045111Y-64582560D02*
X109157631Y-64695080D01*
D29*
X128157091Y-103651279D02*
X131113168Y-100695202D01*
X136366132Y-90775579D02*
X137861211Y-90775579D01*
D30*
X130031111Y-62725560D02*
X129165111Y-61859560D01*
D29*
X142126610Y-114619079D02*
X132654111Y-105146580D01*
D28*
X226654111Y-115803560D02*
X226654111Y-81354236D01*
D29*
X136777844Y-92903867D02*
X139410711Y-92903867D01*
X165440600Y-104836387D02*
X164921235Y-104317022D01*
X200897011Y-121050341D02*
X200897011Y-121215160D01*
X190840111Y-130281560D02*
X188933643Y-128375092D01*
X124018111Y-134873600D02*
X124018111Y-134619600D01*
D31*
X106513983Y-106590560D02*
X106592111Y-106590560D01*
D28*
X168181622Y-75724089D02*
X166944111Y-76961600D01*
X208749632Y-73510039D02*
X208749632Y-71789858D01*
X229768337Y-73672049D02*
X227637622Y-73672049D01*
D29*
X210637547Y-105103560D02*
X210652111Y-105103560D01*
X180172111Y-130657560D02*
X183284608Y-130657560D01*
D30*
X215933965Y-62157540D02*
X216110965Y-62334540D01*
D29*
X205351703Y-125574202D02*
X204901713Y-125124212D01*
X149468100Y-84885589D02*
X156475244Y-84885589D01*
X203794111Y-134040660D02*
X191964552Y-134040660D01*
X131113168Y-100695202D02*
X139431345Y-100695202D01*
D30*
X107458111Y-74760560D02*
X107458111Y-100644560D01*
D29*
X204810111Y-128503560D02*
X204964790Y-128348881D01*
X148376711Y-106908200D02*
X148376711Y-105386466D01*
D28*
X87258455Y-110886735D02*
X89508455Y-110886735D01*
D29*
X143576111Y-87883600D02*
X143576111Y-89915600D01*
X225404600Y-97884708D02*
X225404600Y-101237617D01*
D28*
X108947111Y-114954560D02*
X108947111Y-109235560D01*
D29*
X135422611Y-130784100D02*
X143068111Y-130784100D01*
D28*
X105808591Y-76461040D02*
X105808591Y-98657454D01*
D29*
X144111998Y-84553111D02*
X141826600Y-84553111D01*
X145895703Y-127626242D02*
X145445713Y-127176252D01*
D30*
X106581111Y-74048560D02*
X106746111Y-74048560D01*
D31*
X106165111Y-109130560D02*
X106592111Y-109130560D01*
D29*
X195640711Y-108816464D02*
X195640711Y-109148760D01*
D28*
X132018217Y-61076040D02*
X130452217Y-59510040D01*
D29*
X207832711Y-104856160D02*
X207832711Y-103334426D01*
X203567998Y-82501071D02*
X201282600Y-82501071D01*
D30*
X91961455Y-63798735D02*
X92073975Y-63911255D01*
D28*
X153228111Y-90677600D02*
X166944111Y-76961600D01*
D29*
X188933643Y-128375092D02*
X183308567Y-128375092D01*
D28*
X171483622Y-76895374D02*
X170312337Y-75724089D01*
D29*
X222720652Y-99003694D02*
X223980297Y-97744049D01*
D28*
X230939622Y-74843334D02*
X229768337Y-73672049D01*
X202835600Y-80555049D02*
X203032111Y-80751560D01*
D29*
X163264652Y-101055734D02*
X164524297Y-99796089D01*
X128157091Y-109727600D02*
X128157091Y-103651279D01*
X215478111Y-98252060D02*
X216229745Y-99003694D01*
X151706588Y-102056589D02*
X163870901Y-102056589D01*
X141441011Y-123267200D02*
X138287321Y-126420890D01*
D28*
X144774409Y-73022079D02*
X143379600Y-74416888D01*
D29*
X204901713Y-125124212D02*
X204901713Y-121450195D01*
D30*
X212666965Y-62157540D02*
X212666965Y-62322540D01*
X166093111Y-64312560D02*
X165980591Y-64425080D01*
X106581111Y-101499560D02*
X106592111Y-101510560D01*
D29*
X182834111Y-131927560D02*
X183474111Y-132567560D01*
X142126610Y-120183132D02*
X142126610Y-114619079D01*
D30*
X106581111Y-70781560D02*
X106758111Y-70604560D01*
D29*
X120716111Y-132709600D02*
X123828608Y-132709600D01*
X146878111Y-82295600D02*
X149468100Y-84885589D01*
X149869450Y-81476939D02*
X149869450Y-82765587D01*
D28*
X180124965Y-61489371D02*
X180124965Y-62168540D01*
D31*
X121545111Y-61432560D02*
X121545111Y-61859560D01*
D29*
X152065821Y-91706636D02*
X151265523Y-91706636D01*
X197959041Y-81732168D02*
X187090903Y-81732168D01*
X145100111Y-96260722D02*
X145100111Y-97535600D01*
X106433111Y-70929560D02*
X106758111Y-70604560D01*
X141441011Y-123102381D02*
X141441011Y-123267200D01*
X140670509Y-100695202D02*
X140050927Y-101314784D01*
X164082657Y-105155600D02*
X164921235Y-104317022D01*
X160899111Y-103403100D02*
X151773611Y-103403100D01*
X206725341Y-120126731D02*
X204160224Y-117561614D01*
D28*
X88724935Y-75677215D02*
X88724935Y-97873629D01*
X207350111Y-74909560D02*
X208749632Y-73510039D01*
D30*
X128005631Y-64425080D02*
X126625111Y-63044560D01*
D32*
X106657111Y-70705560D02*
X106758111Y-70604560D01*
D29*
X142733973Y-126291958D02*
X141055540Y-127970391D01*
X186014111Y-101071560D02*
X196233844Y-90851827D01*
X89349455Y-70145735D02*
X89674455Y-69820735D01*
D28*
X154214631Y-61076040D02*
X132018217Y-61076040D01*
D29*
X156022111Y-100304100D02*
X156773745Y-101055734D01*
X145868103Y-118586208D02*
X145868103Y-118727628D01*
D30*
X155915111Y-62725560D02*
X130031111Y-62725560D01*
D29*
X213446111Y-79989560D02*
X210049437Y-79989560D01*
D30*
X184045485Y-64734060D02*
X182664965Y-63353540D01*
D28*
X87158935Y-99439629D02*
X87158935Y-104136384D01*
X143379600Y-74416888D02*
X143379600Y-82607089D01*
D30*
X126625111Y-63044560D02*
X126625111Y-61859560D01*
D33*
X212652111Y-107103560D02*
X214652111Y-107103560D01*
D29*
X133848959Y-108532752D02*
X136184711Y-110868504D01*
X215785965Y-62009540D02*
X216110965Y-62334540D01*
X216229745Y-99003694D02*
X222720652Y-99003694D01*
X212652111Y-105103560D02*
X212652111Y-104913560D01*
X200803089Y-82021560D02*
X198248433Y-82021560D01*
D33*
X214652111Y-107103560D02*
X216240111Y-108691560D01*
D28*
X186492071Y-59819020D02*
X181795316Y-59819020D01*
D29*
X216947401Y-135350747D02*
X216707988Y-135590160D01*
D28*
X87158935Y-104136384D02*
X88829286Y-105806735D01*
D29*
X223326901Y-100004549D02*
X223601100Y-100278748D01*
X151265523Y-91706636D02*
X144111998Y-84553111D01*
X126786711Y-137642200D02*
X124018111Y-134873600D01*
X145868103Y-118727628D02*
X151500911Y-124360436D01*
X200388910Y-93678486D02*
X200126509Y-93940887D01*
D30*
X106746111Y-74048560D02*
X107458111Y-74760560D01*
D28*
X121440111Y-64214560D02*
X121545111Y-64109560D01*
D30*
X159894111Y-61848560D02*
X160071111Y-62025560D01*
X186070965Y-63034540D02*
X185204965Y-62168540D01*
D29*
X133584899Y-114899797D02*
X132745494Y-114060392D01*
X191213831Y-83392945D02*
X187229249Y-87377527D01*
D28*
X91863455Y-114170735D02*
X91863455Y-108451735D01*
D29*
X219321408Y-97454183D02*
X211521821Y-89654596D01*
D28*
X91863455Y-108451735D02*
X91758455Y-108346735D01*
X104342111Y-111670560D02*
X106592111Y-111670560D01*
D29*
X124780111Y-102361600D02*
X136366132Y-90775579D01*
X106780111Y-70626560D02*
X106758111Y-70604560D01*
X156773745Y-101055734D02*
X163264652Y-101055734D01*
X211521821Y-89654596D02*
X210721523Y-89654596D01*
X201582610Y-112567039D02*
X192110111Y-103094540D01*
D28*
X130452217Y-59510040D02*
X125755462Y-59510040D01*
D29*
X126558111Y-103123600D02*
X136777844Y-92903867D01*
X211229611Y-101351060D02*
X210652111Y-101928560D01*
X187229249Y-87377527D02*
X184506100Y-87377527D01*
X156475244Y-84885589D02*
X157137677Y-84223156D01*
X130368111Y-109392005D02*
X134482810Y-113506704D01*
D28*
X210728855Y-70970039D02*
X207350111Y-74348783D01*
D31*
X89081455Y-108346735D02*
X89508455Y-108346735D01*
D28*
X105808591Y-76461040D02*
X104517111Y-75169560D01*
D29*
X208924100Y-82833549D02*
X215931244Y-82833549D01*
X220558111Y-101554060D02*
X220355111Y-101351060D01*
D30*
X106581111Y-74048560D02*
X106581111Y-70781560D01*
D29*
X120716111Y-133979600D02*
X123378111Y-133979600D01*
X187613091Y-107675560D02*
X187613091Y-101599239D01*
X139431345Y-100695202D02*
X140050927Y-101314784D01*
D30*
X90374455Y-99860735D02*
X89508455Y-100726735D01*
X109157631Y-64695080D02*
X109157631Y-102670040D01*
D29*
X206334111Y-80243560D02*
X208924100Y-82833549D01*
X145508790Y-129213963D02*
X145895703Y-128827050D01*
X144338111Y-136092700D02*
X132508552Y-136092700D01*
X180172111Y-129387560D02*
X182296099Y-129387560D01*
X224896600Y-113674971D02*
X224896600Y-102784347D01*
D28*
X165479612Y-73022079D02*
X151272855Y-73022079D01*
D29*
X157491401Y-137402787D02*
X157251988Y-137642200D01*
D33*
X155196111Y-109155600D02*
X156784111Y-110743600D01*
D30*
X221321965Y-62222540D02*
X218762965Y-62222540D01*
D29*
X203032111Y-87863560D02*
X203540111Y-88371560D01*
D28*
X171760965Y-64523540D02*
X177479965Y-64523540D01*
D29*
X215754099Y-122817472D02*
X224896600Y-113674971D01*
X187090903Y-81732168D02*
X184617111Y-84205960D01*
X159746111Y-61700560D02*
X160071111Y-62025560D01*
X148376711Y-105386466D02*
X151706588Y-102056589D01*
X200511540Y-125918351D02*
X195939786Y-125918351D01*
X182296099Y-129387560D02*
X183308567Y-128375092D01*
X156298099Y-124869512D02*
X165440600Y-115727011D01*
X204901713Y-121450195D02*
X201582610Y-118131092D01*
X193040899Y-123019464D02*
X193040899Y-112847757D01*
X225404600Y-101237617D02*
X224377235Y-102264982D01*
X190569168Y-98643162D02*
X198887345Y-98643162D01*
X195939786Y-125918351D02*
X193040899Y-123019464D01*
X212652111Y-104913560D02*
X212684111Y-104881560D01*
D30*
X182664965Y-63353540D02*
X182664965Y-62168540D01*
D28*
X210254485Y-61385020D02*
X211545965Y-60093540D01*
D29*
X187613091Y-101599239D02*
X190569168Y-98643162D01*
X211162588Y-100004549D02*
X223326901Y-100004549D01*
X212652111Y-103103560D02*
X223538657Y-103103560D01*
X131384111Y-132333600D02*
X129477643Y-130427132D01*
D28*
X147894111Y-76400823D02*
X147894111Y-76961600D01*
D29*
X139257035Y-89226079D02*
X132539514Y-89226079D01*
X126558111Y-121157600D02*
X126558111Y-103123600D01*
X210605547Y-105135560D02*
X210637547Y-105103560D01*
X210652111Y-107103560D02*
X209841011Y-107914660D01*
X147269341Y-122178771D02*
X144704224Y-119613654D01*
D30*
X156627111Y-61848560D02*
X159894111Y-61848560D01*
D29*
X218656965Y-62328540D02*
X218650965Y-62334540D01*
X153196111Y-105155600D02*
X164082657Y-105155600D01*
D28*
X226654111Y-81354236D02*
X226275105Y-80975230D01*
D29*
X193938810Y-112406785D02*
X201032865Y-119500840D01*
X133584899Y-125071504D02*
X133584899Y-114899797D01*
X201282600Y-82501071D02*
X200803089Y-82021560D01*
X204160224Y-117561614D02*
X203204457Y-117561614D01*
X145895703Y-128827050D02*
X145895703Y-127626242D01*
D32*
X162690111Y-61946560D02*
X162611111Y-62025560D01*
D29*
X143576111Y-89915600D02*
X144084111Y-90423600D01*
X89668455Y-67274735D02*
X89674455Y-67280735D01*
D30*
X89497455Y-73264735D02*
X89662455Y-73264735D01*
D28*
X91758455Y-108346735D02*
X89508455Y-108346735D01*
D30*
X89562455Y-67168735D02*
X89674455Y-67280735D01*
X162723111Y-61913560D02*
X162611111Y-62025560D01*
D29*
X189824111Y-107339965D02*
X193938810Y-111454664D01*
X140960211Y-90423600D02*
X140454556Y-90423600D01*
X201582610Y-118131092D02*
X201582610Y-112567039D01*
X193008764Y-86141826D02*
X196745360Y-86141826D01*
X161102111Y-103606100D02*
X160899111Y-103403100D01*
D28*
X124085111Y-61180391D02*
X124085111Y-61859560D01*
D31*
X177584965Y-61741540D02*
X177584965Y-62168540D01*
D30*
X107777111Y-104050560D02*
X106592111Y-104050560D01*
D29*
X164524297Y-99796089D02*
X165807941Y-99796089D01*
X145445713Y-123502235D02*
X142126610Y-120183132D01*
D28*
X103819111Y-97219560D02*
X102643071Y-98395600D01*
D30*
X90374455Y-73976735D02*
X90374455Y-99860735D01*
D29*
X123378111Y-133979600D02*
X124018111Y-134619600D01*
D32*
X216009965Y-62233540D02*
X216110965Y-62334540D01*
D29*
X183474111Y-132821560D02*
X183474111Y-132567560D01*
X192130747Y-85263809D02*
X193008764Y-86141826D01*
X191213831Y-83375113D02*
X191213831Y-83392945D01*
D30*
X212666965Y-62157540D02*
X215933965Y-62157540D01*
D29*
X204556111Y-94208682D02*
X204556111Y-95483560D01*
D30*
X165282111Y-61913560D02*
X162723111Y-61913560D01*
D29*
X203746553Y-121708557D02*
X203746553Y-126156955D01*
X144290553Y-123760597D02*
X144290553Y-128208995D01*
X216088965Y-62356540D02*
X216110965Y-62334540D01*
D28*
X171483622Y-116364089D02*
X171483622Y-76895374D01*
D29*
X141826600Y-84553111D02*
X141347089Y-84073600D01*
D33*
X153196111Y-109155600D02*
X155196111Y-109155600D01*
D29*
X153228111Y-106933600D02*
X162880111Y-106933600D01*
X186014111Y-119105560D02*
X186014111Y-101071560D01*
X147269341Y-126909255D02*
X147269341Y-122178771D01*
X157251988Y-137642200D02*
X126786711Y-137642200D01*
X201032865Y-119500840D02*
X201538836Y-119500840D01*
X200416211Y-88371560D02*
X199910556Y-88371560D01*
X212684111Y-104881560D02*
X222336111Y-104881560D01*
D30*
X211954965Y-63034540D02*
X186070965Y-63034540D01*
D29*
X205324103Y-116534168D02*
X205324103Y-116675588D01*
X210956911Y-122308396D02*
X210956911Y-122814060D01*
D28*
X88724935Y-75677215D02*
X87433455Y-74385735D01*
X207350111Y-74348783D02*
X207350111Y-74909560D01*
X104242591Y-104920209D02*
X105912942Y-106590560D01*
D29*
X124780111Y-108457600D02*
X124780111Y-102361600D01*
X151149547Y-107187600D02*
X151181547Y-107155600D01*
X206334111Y-130281560D02*
X190840111Y-130281560D01*
D28*
X149293632Y-73841898D02*
X148473813Y-73022079D01*
X208749632Y-71789858D02*
X207929813Y-70970039D01*
D32*
X89573455Y-69921735D02*
X89674455Y-69820735D01*
D30*
X165980591Y-64425080D02*
X128005631Y-64425080D01*
D29*
X196233844Y-90851827D02*
X198866711Y-90851827D01*
X106752111Y-68058560D02*
X106758111Y-68064560D01*
X120716111Y-131439600D02*
X122840099Y-131439600D01*
X223980297Y-97744049D02*
X225263941Y-97744049D01*
X204964790Y-127161923D02*
X205351703Y-126775010D01*
X207832711Y-103334426D02*
X211162588Y-100004549D01*
D28*
X85559415Y-97611775D02*
X85559415Y-109187695D01*
D29*
X127773249Y-89429567D02*
X125050100Y-89429567D01*
X129477643Y-130427132D02*
X123852567Y-130427132D01*
X210049437Y-79989560D02*
X209325450Y-80713547D01*
X184236111Y-106405560D02*
X184236111Y-100309560D01*
X140932910Y-95730526D02*
X140670509Y-95992927D01*
X133552764Y-88193866D02*
X137289360Y-88193866D01*
D28*
X108947111Y-109235560D02*
X108842111Y-109130560D01*
D32*
X159970111Y-61924560D02*
X160071111Y-62025560D01*
D28*
X188058071Y-61385020D02*
X186492071Y-59819020D01*
D29*
X136483786Y-127970391D02*
X133584899Y-125071504D01*
D28*
X119005111Y-59609560D02*
X119005111Y-61859560D01*
X177479965Y-64523540D02*
X177584965Y-64418540D01*
D30*
X218762965Y-62222540D02*
X218650965Y-62334540D01*
D29*
X151773611Y-103403100D02*
X151196111Y-103980600D01*
D30*
X89497455Y-73264735D02*
X89497455Y-69997735D01*
D29*
X151196111Y-103980600D02*
X151196111Y-105155600D01*
X145354111Y-76961600D02*
X149869450Y-81476939D01*
X203032111Y-85831560D02*
X203032111Y-87863560D01*
X162617111Y-62019560D02*
X162611111Y-62025560D01*
D31*
X175044965Y-61918540D02*
X175044965Y-62168540D01*
D29*
X145508790Y-130400921D02*
X145508790Y-129213963D01*
X224896600Y-102784347D02*
X224377235Y-102264982D01*
X222078822Y-97454183D02*
X219321408Y-97454183D01*
X131757831Y-85444985D02*
X127773249Y-89429567D01*
D28*
X149293632Y-75562079D02*
X149293632Y-73841898D01*
X108842111Y-109130560D02*
X106592111Y-109130560D01*
D29*
X142082836Y-121552880D02*
X144290553Y-123760597D01*
X204810111Y-74909560D02*
X209325450Y-79424899D01*
X162622822Y-99506223D02*
X159865408Y-99506223D01*
D28*
X121545111Y-64109560D02*
X121545111Y-61859560D01*
D29*
X198248433Y-82021560D02*
X197959041Y-81732168D01*
X130163194Y-124762683D02*
X126558111Y-121157600D01*
X205351703Y-126775010D02*
X205351703Y-125574202D01*
D30*
X156627111Y-62013560D02*
X155915111Y-62725560D01*
D29*
X165948600Y-103289657D02*
X164921235Y-104317022D01*
X193040899Y-112847757D02*
X192201494Y-112008352D01*
X131892111Y-127253600D02*
X135422611Y-130784100D01*
X153196111Y-107155600D02*
X153196111Y-106965600D01*
%TD*%
%TA.AperFunction,NonConductor*%
G36*
X231834274Y-68738598D02*
G01*
X231915084Y-68792530D01*
X231969105Y-68873282D01*
X231988111Y-68968696D01*
X231988111Y-72031699D01*
X231969157Y-72126987D01*
X231915181Y-72207769D01*
X231834399Y-72261745D01*
X231772871Y-72278400D01*
X231770233Y-72278761D01*
X231743045Y-72280612D01*
X231738390Y-72280584D01*
X231736804Y-72281037D01*
X231736473Y-72281060D01*
X229300132Y-72281060D01*
X229204844Y-72262106D01*
X229124757Y-72208821D01*
X226841826Y-69943797D01*
X226836678Y-69938241D01*
X226829335Y-69926602D01*
X226790688Y-69892470D01*
X226780144Y-69882598D01*
X226776627Y-69879108D01*
X226776621Y-69879103D01*
X226770336Y-69872867D01*
X226763227Y-69867583D01*
X226757905Y-69863005D01*
X226750821Y-69857261D01*
X226733459Y-69841927D01*
X226733458Y-69841926D01*
X226720160Y-69830182D01*
X226704099Y-69822641D01*
X226700759Y-69820447D01*
X226697277Y-69818558D01*
X226683040Y-69807976D01*
X226666408Y-69801815D01*
X226666403Y-69801813D01*
X226644671Y-69793764D01*
X226625332Y-69785660D01*
X226604370Y-69775818D01*
X226604366Y-69775817D01*
X226588311Y-69768279D01*
X226570778Y-69765549D01*
X226566964Y-69764383D01*
X226563085Y-69763546D01*
X226546451Y-69757385D01*
X226525806Y-69755932D01*
X226505640Y-69754513D01*
X226490141Y-69752764D01*
X226487219Y-69752538D01*
X226477725Y-69751060D01*
X226465303Y-69751060D01*
X226447827Y-69750446D01*
X226447387Y-69750415D01*
X226444329Y-69750200D01*
X226418849Y-69748407D01*
X226418848Y-69748407D01*
X226401152Y-69747162D01*
X226385248Y-69750623D01*
X226373098Y-69751060D01*
X193662374Y-69751060D01*
X193653536Y-69750705D01*
X193639311Y-69747486D01*
X193621608Y-69748584D01*
X193621604Y-69748584D01*
X193589406Y-69750582D01*
X193573988Y-69751060D01*
X193561598Y-69751060D01*
X193552830Y-69752315D01*
X193548525Y-69752622D01*
X193536256Y-69753879D01*
X193511642Y-69755406D01*
X193511640Y-69755406D01*
X193493933Y-69756505D01*
X193477245Y-69762530D01*
X193475256Y-69762942D01*
X193474334Y-69763103D01*
X193473471Y-69763385D01*
X193471487Y-69763965D01*
X193453924Y-69766480D01*
X193415313Y-69784035D01*
X193396812Y-69791566D01*
X193373619Y-69799939D01*
X193373613Y-69799942D01*
X193356930Y-69805965D01*
X193342605Y-69816430D01*
X193340786Y-69817397D01*
X193339967Y-69817800D01*
X193339222Y-69818310D01*
X193337478Y-69819425D01*
X193321329Y-69826768D01*
X193289203Y-69854449D01*
X193275095Y-69865651D01*
X193274321Y-69866314D01*
X193266558Y-69871985D01*
X193258800Y-69879743D01*
X193245267Y-69892307D01*
X193210984Y-69921847D01*
X193201709Y-69936156D01*
X193192103Y-69946440D01*
X190920964Y-72217580D01*
X190840182Y-72271556D01*
X190744458Y-72290510D01*
X179693557Y-72271174D01*
X179683036Y-72270757D01*
X179667900Y-72267375D01*
X179619743Y-72270495D01*
X179603224Y-72271016D01*
X179592488Y-72270997D01*
X179583708Y-72272239D01*
X179581851Y-72272368D01*
X179566558Y-72273942D01*
X179522548Y-72276794D01*
X179506340Y-72282696D01*
X179504063Y-72283095D01*
X179501872Y-72283811D01*
X179484787Y-72286228D01*
X179468628Y-72293541D01*
X179468621Y-72293543D01*
X179444583Y-72304422D01*
X179427120Y-72311541D01*
X179402354Y-72320559D01*
X179402350Y-72320561D01*
X179385681Y-72326631D01*
X179371783Y-72336844D01*
X179369705Y-72337868D01*
X179367799Y-72339174D01*
X179352087Y-72346284D01*
X179338629Y-72357839D01*
X179338626Y-72357841D01*
X179318608Y-72375028D01*
X179303853Y-72386756D01*
X179295492Y-72392900D01*
X179288711Y-72399718D01*
X179288457Y-72399937D01*
X179274600Y-72412815D01*
X179241576Y-72441170D01*
X179231901Y-72456040D01*
X179231245Y-72456789D01*
X179220447Y-72468360D01*
X177565181Y-74132771D01*
X177484549Y-74186970D01*
X177389313Y-74206186D01*
X177293973Y-74187495D01*
X177213043Y-74133741D01*
X177158844Y-74053109D01*
X177139637Y-73959420D01*
X177129145Y-72789560D01*
X177098111Y-69329560D01*
X177061745Y-69028242D01*
X177069145Y-68931369D01*
X177113053Y-68844703D01*
X177186785Y-68781436D01*
X177279116Y-68751201D01*
X177308815Y-68749407D01*
X231738975Y-68719696D01*
X231834274Y-68738598D01*
G37*
%TD.AperFunction*%
%TA.AperFunction,NonConductor*%
G36*
X172378274Y-70790638D02*
G01*
X172459084Y-70844570D01*
X172513105Y-70925322D01*
X172532111Y-71020736D01*
X172532111Y-74083739D01*
X172513157Y-74179027D01*
X172459181Y-74259809D01*
X172378399Y-74313785D01*
X172316871Y-74330440D01*
X172314233Y-74330801D01*
X172287045Y-74332652D01*
X172282390Y-74332624D01*
X172280804Y-74333077D01*
X172280473Y-74333100D01*
X169844132Y-74333100D01*
X169748844Y-74314146D01*
X169668757Y-74260861D01*
X167385826Y-71995837D01*
X167380678Y-71990281D01*
X167373335Y-71978642D01*
X167334688Y-71944510D01*
X167324144Y-71934638D01*
X167320627Y-71931148D01*
X167320621Y-71931143D01*
X167314336Y-71924907D01*
X167307227Y-71919623D01*
X167301905Y-71915045D01*
X167294821Y-71909301D01*
X167277459Y-71893967D01*
X167277458Y-71893966D01*
X167264160Y-71882222D01*
X167248099Y-71874681D01*
X167244759Y-71872487D01*
X167241277Y-71870598D01*
X167227040Y-71860016D01*
X167210408Y-71853855D01*
X167210403Y-71853853D01*
X167188671Y-71845804D01*
X167169332Y-71837700D01*
X167148370Y-71827858D01*
X167148366Y-71827857D01*
X167132311Y-71820319D01*
X167114778Y-71817589D01*
X167110964Y-71816423D01*
X167107085Y-71815586D01*
X167090451Y-71809425D01*
X167069806Y-71807972D01*
X167049640Y-71806553D01*
X167034141Y-71804804D01*
X167031219Y-71804578D01*
X167021725Y-71803100D01*
X167009303Y-71803100D01*
X166991827Y-71802486D01*
X166991387Y-71802455D01*
X166988329Y-71802240D01*
X166962849Y-71800447D01*
X166962848Y-71800447D01*
X166945152Y-71799202D01*
X166929248Y-71802663D01*
X166917098Y-71803100D01*
X134206374Y-71803100D01*
X134197536Y-71802745D01*
X134183311Y-71799526D01*
X134165608Y-71800624D01*
X134165604Y-71800624D01*
X134133406Y-71802622D01*
X134117988Y-71803100D01*
X134105598Y-71803100D01*
X134096830Y-71804355D01*
X134092525Y-71804662D01*
X134080256Y-71805919D01*
X134055642Y-71807446D01*
X134055640Y-71807446D01*
X134037933Y-71808545D01*
X134021245Y-71814570D01*
X134019256Y-71814982D01*
X134018334Y-71815143D01*
X134017471Y-71815425D01*
X134015487Y-71816005D01*
X133997924Y-71818520D01*
X133959313Y-71836075D01*
X133940812Y-71843606D01*
X133917619Y-71851979D01*
X133917613Y-71851982D01*
X133900930Y-71858005D01*
X133886605Y-71868470D01*
X133884786Y-71869437D01*
X133883967Y-71869840D01*
X133883222Y-71870350D01*
X133881478Y-71871465D01*
X133865329Y-71878808D01*
X133833203Y-71906489D01*
X133819095Y-71917691D01*
X133818321Y-71918354D01*
X133810558Y-71924025D01*
X133802800Y-71931783D01*
X133789267Y-71944347D01*
X133754984Y-71973887D01*
X133745709Y-71988196D01*
X133736103Y-71998480D01*
X131464964Y-74269620D01*
X131384182Y-74323596D01*
X131288458Y-74342550D01*
X120237557Y-74323214D01*
X120227036Y-74322797D01*
X120211900Y-74319415D01*
X120163743Y-74322535D01*
X120147224Y-74323056D01*
X120136488Y-74323037D01*
X120127708Y-74324279D01*
X120125851Y-74324408D01*
X120110558Y-74325982D01*
X120066548Y-74328834D01*
X120050340Y-74334736D01*
X120048063Y-74335135D01*
X120045872Y-74335851D01*
X120028787Y-74338268D01*
X120012628Y-74345581D01*
X120012621Y-74345583D01*
X119988583Y-74356462D01*
X119971120Y-74363581D01*
X119946354Y-74372599D01*
X119946350Y-74372601D01*
X119929681Y-74378671D01*
X119915783Y-74388884D01*
X119913705Y-74389908D01*
X119911799Y-74391214D01*
X119896087Y-74398324D01*
X119882629Y-74409879D01*
X119882626Y-74409881D01*
X119862608Y-74427068D01*
X119847853Y-74438796D01*
X119839492Y-74444940D01*
X119832711Y-74451758D01*
X119832457Y-74451977D01*
X119818600Y-74464855D01*
X119785576Y-74493210D01*
X119775901Y-74508080D01*
X119775245Y-74508829D01*
X119764447Y-74520400D01*
X118109181Y-76184811D01*
X118028549Y-76239010D01*
X117933313Y-76258226D01*
X117837973Y-76239535D01*
X117757043Y-76185781D01*
X117702844Y-76105149D01*
X117683637Y-76011460D01*
X117673145Y-74841600D01*
X117642111Y-71381600D01*
X117605745Y-71080282D01*
X117613145Y-70983409D01*
X117657053Y-70896743D01*
X117730785Y-70833476D01*
X117823116Y-70803241D01*
X117852815Y-70801447D01*
X172282975Y-70771736D01*
X172378274Y-70790638D01*
G37*
%TD.AperFunction*%
M02*
