%TF.GenerationSoftware,KiCad,Pcbnew,(6.0.5)*%
%TF.CreationDate,2022-06-30T10:20:44+01:00*%
%TF.ProjectId,Intern_PCB_FAB,496e7465-726e-45f5-9043-425f4641422e,rev?*%
%TF.SameCoordinates,Original*%
%TF.FileFunction,Legend,Top*%
%TF.FilePolarity,Positive*%
%FSLAX46Y46*%
G04 Gerber Fmt 4.6, Leading zero omitted, Abs format (unit mm)*
G04 Created by KiCad (PCBNEW (6.0.5)) date 2022-06-30 10:20:44*
%MOMM*%
%LPD*%
G01*
G04 APERTURE LIST*
%ADD10C,0.150000*%
%ADD11C,0.100000*%
%ADD12C,0.254000*%
%ADD13C,0.120000*%
%ADD14C,0.200000*%
G04 APERTURE END LIST*
D10*
X223160777Y-138582878D02*
X222460777Y-138495378D01*
X222460777Y-138190616D01*
X222494111Y-138118592D01*
X222527444Y-138084664D01*
X222594111Y-138054902D01*
X222694111Y-138067402D01*
X222760777Y-138113830D01*
X222794111Y-138156092D01*
X222827444Y-138236449D01*
X222827444Y-138541211D01*
X223127444Y-137473949D02*
X223160777Y-137554307D01*
X223160777Y-137706687D01*
X223127444Y-137778711D01*
X223060777Y-137808473D01*
X222794111Y-137775140D01*
X222727444Y-137728711D01*
X222694111Y-137648354D01*
X222694111Y-137495973D01*
X222727444Y-137423949D01*
X222794111Y-137394187D01*
X222860777Y-137402521D01*
X222927444Y-137791807D01*
X222694111Y-137038830D02*
X223160777Y-137097164D01*
X222760777Y-137047164D02*
X222727444Y-137004902D01*
X222694111Y-136924545D01*
X222694111Y-136810259D01*
X222727444Y-136738235D01*
X222794111Y-136708473D01*
X223160777Y-136754307D01*
X223160777Y-136030497D02*
X222460777Y-135942997D01*
X223127444Y-136026330D02*
X223160777Y-136106687D01*
X223160777Y-136259068D01*
X223127444Y-136331092D01*
X223094111Y-136365021D01*
X223027444Y-136394783D01*
X222827444Y-136369783D01*
X222760777Y-136323354D01*
X222727444Y-136281092D01*
X222694111Y-136200735D01*
X222694111Y-136048354D01*
X222727444Y-135976330D01*
X222694111Y-135248354D02*
X223160777Y-135306687D01*
X222694111Y-135591211D02*
X223060777Y-135637045D01*
X223127444Y-135607283D01*
X223160777Y-135535259D01*
X223160777Y-135420973D01*
X223127444Y-135340616D01*
X223094111Y-135298354D01*
X223160777Y-134925735D02*
X222694111Y-134867402D01*
X222460777Y-134838235D02*
X222494111Y-134880497D01*
X222527444Y-134846568D01*
X222494111Y-134804307D01*
X222460777Y-134838235D01*
X222527444Y-134846568D01*
X222694111Y-134486449D02*
X223160777Y-134544783D01*
X222760777Y-134494783D02*
X222727444Y-134452521D01*
X222694111Y-134372164D01*
X222694111Y-134257878D01*
X222727444Y-134185854D01*
X222794111Y-134156092D01*
X223160777Y-134201926D01*
X223160777Y-133706687D02*
X223127444Y-133778711D01*
X223094111Y-133812640D01*
X223027444Y-133842402D01*
X222827444Y-133817402D01*
X222760777Y-133770973D01*
X222727444Y-133728711D01*
X222694111Y-133648354D01*
X222694111Y-133534068D01*
X222727444Y-133462045D01*
X222760777Y-133428116D01*
X222827444Y-133398354D01*
X223027444Y-133423354D01*
X223094111Y-133469783D01*
X223127444Y-133512045D01*
X223160777Y-133592402D01*
X223160777Y-133706687D01*
X223160777Y-132487640D02*
X222460777Y-132400140D01*
X222460777Y-132209664D01*
X222494111Y-132099545D01*
X222560777Y-132031687D01*
X222627444Y-132001926D01*
X222760777Y-131980497D01*
X222860777Y-131992997D01*
X222994111Y-132047759D01*
X223060777Y-132094187D01*
X223127444Y-132178711D01*
X223160777Y-132297164D01*
X223160777Y-132487640D01*
X223160777Y-131344783D02*
X222794111Y-131298949D01*
X222727444Y-131328711D01*
X222694111Y-131400735D01*
X222694111Y-131553116D01*
X222727444Y-131633473D01*
X223127444Y-131340616D02*
X223160777Y-131420973D01*
X223160777Y-131611449D01*
X223127444Y-131683473D01*
X223060777Y-131713235D01*
X222994111Y-131704902D01*
X222927444Y-131658473D01*
X222894111Y-131578116D01*
X222894111Y-131387640D01*
X222860777Y-131307283D01*
X222694111Y-130562640D02*
X223160777Y-130620973D01*
X222694111Y-130905497D02*
X223060777Y-130951330D01*
X223127444Y-130921568D01*
X223160777Y-130849545D01*
X223160777Y-130735259D01*
X223127444Y-130654902D01*
X223094111Y-130612640D01*
X222694111Y-129838830D02*
X223260777Y-129909664D01*
X223327444Y-129956092D01*
X223360777Y-129998354D01*
X223394111Y-130078711D01*
X223394111Y-130192997D01*
X223360777Y-130265021D01*
X223127444Y-129892997D02*
X223160777Y-129973354D01*
X223160777Y-130125735D01*
X223127444Y-130197759D01*
X223094111Y-130231687D01*
X223027444Y-130261449D01*
X222827444Y-130236449D01*
X222760777Y-130190021D01*
X222727444Y-130147759D01*
X222694111Y-130067402D01*
X222694111Y-129915021D01*
X222727444Y-129842997D01*
X223160777Y-129516211D02*
X222460777Y-129428711D01*
X223160777Y-129173354D02*
X222794111Y-129127521D01*
X222727444Y-129157283D01*
X222694111Y-129229307D01*
X222694111Y-129343592D01*
X222727444Y-129423949D01*
X222760777Y-129466211D01*
X222694111Y-128848354D02*
X222694111Y-128543592D01*
X222460777Y-128704902D02*
X223060777Y-128779902D01*
X223127444Y-128750140D01*
X223160777Y-128678116D01*
X223160777Y-128601926D01*
X223127444Y-128026330D02*
X223160777Y-128106687D01*
X223160777Y-128259068D01*
X223127444Y-128331092D01*
X223060777Y-128360854D01*
X222794111Y-128327521D01*
X222727444Y-128281092D01*
X222694111Y-128200735D01*
X222694111Y-128048354D01*
X222727444Y-127976330D01*
X222794111Y-127946568D01*
X222860777Y-127954902D01*
X222927444Y-128344187D01*
X223160777Y-127649545D02*
X222694111Y-127591211D01*
X222827444Y-127607878D02*
X222760777Y-127561449D01*
X222727444Y-127519187D01*
X222694111Y-127438830D01*
X222694111Y-127362640D01*
X223160777Y-127154307D02*
X222460777Y-127066807D01*
X222727444Y-127100140D02*
X222694111Y-127019783D01*
X222694111Y-126867402D01*
X222727444Y-126795378D01*
X222760777Y-126761449D01*
X222827444Y-126731687D01*
X223027444Y-126756687D01*
X223094111Y-126803116D01*
X223127444Y-126845378D01*
X223160777Y-126925735D01*
X223160777Y-127078116D01*
X223127444Y-127150140D01*
X223160777Y-126316211D02*
X223127444Y-126388235D01*
X223094111Y-126422164D01*
X223027444Y-126451926D01*
X222827444Y-126426926D01*
X222760777Y-126380497D01*
X222727444Y-126338235D01*
X222694111Y-126257878D01*
X222694111Y-126143592D01*
X222727444Y-126071568D01*
X222760777Y-126037640D01*
X222827444Y-126007878D01*
X223027444Y-126032878D01*
X223094111Y-126079307D01*
X223127444Y-126121568D01*
X223160777Y-126201926D01*
X223160777Y-126316211D01*
X223160777Y-125363830D02*
X222794111Y-125317997D01*
X222727444Y-125347759D01*
X222694111Y-125419783D01*
X222694111Y-125572164D01*
X222727444Y-125652521D01*
X223127444Y-125359664D02*
X223160777Y-125440021D01*
X223160777Y-125630497D01*
X223127444Y-125702521D01*
X223060777Y-125732283D01*
X222994111Y-125723949D01*
X222927444Y-125677521D01*
X222894111Y-125597164D01*
X222894111Y-125406687D01*
X222860777Y-125326330D01*
X223160777Y-124982878D02*
X222694111Y-124924545D01*
X222827444Y-124941211D02*
X222760777Y-124894783D01*
X222727444Y-124852521D01*
X222694111Y-124772164D01*
X222694111Y-124695973D01*
X223160777Y-124144783D02*
X222460777Y-124057283D01*
X223127444Y-124140616D02*
X223160777Y-124220973D01*
X223160777Y-124373354D01*
X223127444Y-124445378D01*
X223094111Y-124479307D01*
X223027444Y-124509068D01*
X222827444Y-124484068D01*
X222760777Y-124437640D01*
X222727444Y-124395378D01*
X222694111Y-124315021D01*
X222694111Y-124162640D01*
X222727444Y-124090616D01*
D11*
X209309063Y-74398226D02*
X208909063Y-74398226D01*
X208909063Y-74302988D01*
X208928111Y-74245845D01*
X208966206Y-74207750D01*
X209004301Y-74188702D01*
X209080491Y-74169655D01*
X209137634Y-74169655D01*
X209213825Y-74188702D01*
X209251920Y-74207750D01*
X209290015Y-74245845D01*
X209309063Y-74302988D01*
X209309063Y-74398226D01*
X209309063Y-73769655D02*
X209118587Y-73902988D01*
X209309063Y-73998226D02*
X208909063Y-73998226D01*
X208909063Y-73845845D01*
X208928111Y-73807750D01*
X208947158Y-73788702D01*
X208985253Y-73769655D01*
X209042396Y-73769655D01*
X209080491Y-73788702D01*
X209099539Y-73807750D01*
X209118587Y-73845845D01*
X209118587Y-73998226D01*
X209309063Y-73598226D02*
X208909063Y-73598226D01*
X208909063Y-73464893D02*
X209309063Y-73331560D01*
X208909063Y-73198226D01*
X209099539Y-73064893D02*
X209099539Y-72931560D01*
X209309063Y-72874417D02*
X209309063Y-73064893D01*
X208909063Y-73064893D01*
X208909063Y-72874417D01*
X209347158Y-72798226D02*
X209347158Y-72493464D01*
X208909063Y-72207750D02*
X208909063Y-72398226D01*
X209099539Y-72417274D01*
X209080491Y-72398226D01*
X209061444Y-72360131D01*
X209061444Y-72264893D01*
X209080491Y-72226798D01*
X209099539Y-72207750D01*
X209137634Y-72188702D01*
X209232872Y-72188702D01*
X209270968Y-72207750D01*
X209290015Y-72226798D01*
X209309063Y-72264893D01*
X209309063Y-72360131D01*
X209290015Y-72398226D01*
X209270968Y-72417274D01*
X208909063Y-72074417D02*
X209309063Y-71941083D01*
X208909063Y-71807750D01*
D10*
X224516611Y-134547560D02*
X224516611Y-134314226D01*
X224883277Y-134214226D02*
X224883277Y-134547560D01*
X224183277Y-134547560D01*
X224183277Y-134214226D01*
X224883277Y-133914226D02*
X224416611Y-133914226D01*
X224549944Y-133914226D02*
X224483277Y-133880893D01*
X224449944Y-133847560D01*
X224416611Y-133780893D01*
X224416611Y-133714226D01*
X224883277Y-133180893D02*
X224516611Y-133180893D01*
X224449944Y-133214226D01*
X224416611Y-133280893D01*
X224416611Y-133414226D01*
X224449944Y-133480893D01*
X224849944Y-133180893D02*
X224883277Y-133247560D01*
X224883277Y-133414226D01*
X224849944Y-133480893D01*
X224783277Y-133514226D01*
X224716611Y-133514226D01*
X224649944Y-133480893D01*
X224616611Y-133414226D01*
X224616611Y-133247560D01*
X224583277Y-133180893D01*
X224883277Y-132747560D02*
X224849944Y-132814226D01*
X224783277Y-132847560D01*
X224183277Y-132847560D01*
X224416611Y-132480893D02*
X225116611Y-132480893D01*
X224449944Y-132480893D02*
X224416611Y-132414226D01*
X224416611Y-132280893D01*
X224449944Y-132214226D01*
X224483277Y-132180893D01*
X224549944Y-132147560D01*
X224749944Y-132147560D01*
X224816611Y-132180893D01*
X224849944Y-132214226D01*
X224883277Y-132280893D01*
X224883277Y-132414226D01*
X224849944Y-132480893D01*
X224816611Y-130914226D02*
X224849944Y-130947560D01*
X224883277Y-131047560D01*
X224883277Y-131114226D01*
X224849944Y-131214226D01*
X224783277Y-131280893D01*
X224716611Y-131314226D01*
X224583277Y-131347560D01*
X224483277Y-131347560D01*
X224349944Y-131314226D01*
X224283277Y-131280893D01*
X224216611Y-131214226D01*
X224183277Y-131114226D01*
X224183277Y-131047560D01*
X224216611Y-130947560D01*
X224249944Y-130914226D01*
X224883277Y-130314226D02*
X224516611Y-130314226D01*
X224449944Y-130347560D01*
X224416611Y-130414226D01*
X224416611Y-130547560D01*
X224449944Y-130614226D01*
X224849944Y-130314226D02*
X224883277Y-130380893D01*
X224883277Y-130547560D01*
X224849944Y-130614226D01*
X224783277Y-130647560D01*
X224716611Y-130647560D01*
X224649944Y-130614226D01*
X224616611Y-130547560D01*
X224616611Y-130380893D01*
X224583277Y-130314226D01*
X224883277Y-129880893D02*
X224849944Y-129947560D01*
X224783277Y-129980893D01*
X224183277Y-129980893D01*
X224883277Y-129614226D02*
X224183277Y-129614226D01*
X224883277Y-129314226D02*
X224516611Y-129314226D01*
X224449944Y-129347560D01*
X224416611Y-129414226D01*
X224416611Y-129514226D01*
X224449944Y-129580893D01*
X224483277Y-129614226D01*
X224883277Y-128680893D02*
X224516611Y-128680893D01*
X224449944Y-128714226D01*
X224416611Y-128780893D01*
X224416611Y-128914226D01*
X224449944Y-128980893D01*
X224849944Y-128680893D02*
X224883277Y-128747560D01*
X224883277Y-128914226D01*
X224849944Y-128980893D01*
X224783277Y-129014226D01*
X224716611Y-129014226D01*
X224649944Y-128980893D01*
X224616611Y-128914226D01*
X224616611Y-128747560D01*
X224583277Y-128680893D01*
X224416611Y-128347560D02*
X224883277Y-128347560D01*
X224483277Y-128347560D02*
X224449944Y-128314226D01*
X224416611Y-128247560D01*
X224416611Y-128147560D01*
X224449944Y-128080893D01*
X224516611Y-128047560D01*
X224883277Y-128047560D01*
X225543611Y-137164226D02*
X226110277Y-137164226D01*
X226176944Y-137197560D01*
X226210277Y-137230893D01*
X226243611Y-137297560D01*
X226243611Y-137397560D01*
X226210277Y-137464226D01*
X225976944Y-137164226D02*
X226010277Y-137230893D01*
X226010277Y-137364226D01*
X225976944Y-137430893D01*
X225943611Y-137464226D01*
X225876944Y-137497560D01*
X225676944Y-137497560D01*
X225610277Y-137464226D01*
X225576944Y-137430893D01*
X225543611Y-137364226D01*
X225543611Y-137230893D01*
X225576944Y-137164226D01*
X226010277Y-136830893D02*
X225543611Y-136830893D01*
X225310277Y-136830893D02*
X225343611Y-136864226D01*
X225376944Y-136830893D01*
X225343611Y-136797560D01*
X225310277Y-136830893D01*
X225376944Y-136830893D01*
X225543611Y-136597560D02*
X225543611Y-136330893D01*
X225310277Y-136497560D02*
X225910277Y-136497560D01*
X225976944Y-136464226D01*
X226010277Y-136397560D01*
X226010277Y-136330893D01*
X226010277Y-136097560D02*
X225310277Y-136097560D01*
X226010277Y-135797560D02*
X225643611Y-135797560D01*
X225576944Y-135830893D01*
X225543611Y-135897560D01*
X225543611Y-135997560D01*
X225576944Y-136064226D01*
X225610277Y-136097560D01*
X225543611Y-135164226D02*
X226010277Y-135164226D01*
X225543611Y-135464226D02*
X225910277Y-135464226D01*
X225976944Y-135430893D01*
X226010277Y-135364226D01*
X226010277Y-135264226D01*
X225976944Y-135197560D01*
X225943611Y-135164226D01*
X226010277Y-134830893D02*
X225310277Y-134830893D01*
X225576944Y-134830893D02*
X225543611Y-134764226D01*
X225543611Y-134630893D01*
X225576944Y-134564226D01*
X225610277Y-134530893D01*
X225676944Y-134497560D01*
X225876944Y-134497560D01*
X225943611Y-134530893D01*
X225976944Y-134564226D01*
X226010277Y-134630893D01*
X226010277Y-134764226D01*
X225976944Y-134830893D01*
X225943611Y-134197560D02*
X225976944Y-134164226D01*
X226010277Y-134197560D01*
X225976944Y-134230893D01*
X225943611Y-134197560D01*
X226010277Y-134197560D01*
X225976944Y-133564226D02*
X226010277Y-133630893D01*
X226010277Y-133764226D01*
X225976944Y-133830893D01*
X225943611Y-133864226D01*
X225876944Y-133897560D01*
X225676944Y-133897560D01*
X225610277Y-133864226D01*
X225576944Y-133830893D01*
X225543611Y-133764226D01*
X225543611Y-133630893D01*
X225576944Y-133564226D01*
X226010277Y-133164226D02*
X225976944Y-133230893D01*
X225943611Y-133264226D01*
X225876944Y-133297560D01*
X225676944Y-133297560D01*
X225610277Y-133264226D01*
X225576944Y-133230893D01*
X225543611Y-133164226D01*
X225543611Y-133064226D01*
X225576944Y-132997560D01*
X225610277Y-132964226D01*
X225676944Y-132930893D01*
X225876944Y-132930893D01*
X225943611Y-132964226D01*
X225976944Y-132997560D01*
X226010277Y-133064226D01*
X226010277Y-133164226D01*
X226010277Y-132630893D02*
X225543611Y-132630893D01*
X225610277Y-132630893D02*
X225576944Y-132597560D01*
X225543611Y-132530893D01*
X225543611Y-132430893D01*
X225576944Y-132364226D01*
X225643611Y-132330893D01*
X226010277Y-132330893D01*
X225643611Y-132330893D02*
X225576944Y-132297560D01*
X225543611Y-132230893D01*
X225543611Y-132130893D01*
X225576944Y-132064226D01*
X225643611Y-132030893D01*
X226010277Y-132030893D01*
X225276944Y-131197560D02*
X226176944Y-131797560D01*
X225976944Y-130697560D02*
X226010277Y-130764226D01*
X226010277Y-130897560D01*
X225976944Y-130964226D01*
X225910277Y-130997560D01*
X225643611Y-130997560D01*
X225576944Y-130964226D01*
X225543611Y-130897560D01*
X225543611Y-130764226D01*
X225576944Y-130697560D01*
X225643611Y-130664226D01*
X225710277Y-130664226D01*
X225776944Y-130997560D01*
X226010277Y-130364226D02*
X225543611Y-130364226D01*
X225676944Y-130364226D02*
X225610277Y-130330893D01*
X225576944Y-130297560D01*
X225543611Y-130230893D01*
X225543611Y-130164226D01*
X226010277Y-129630893D02*
X225643611Y-129630893D01*
X225576944Y-129664226D01*
X225543611Y-129730893D01*
X225543611Y-129864226D01*
X225576944Y-129930893D01*
X225976944Y-129630893D02*
X226010277Y-129697560D01*
X226010277Y-129864226D01*
X225976944Y-129930893D01*
X225910277Y-129964226D01*
X225843611Y-129964226D01*
X225776944Y-129930893D01*
X225743611Y-129864226D01*
X225743611Y-129697560D01*
X225710277Y-129630893D01*
X226010277Y-129197560D02*
X225976944Y-129264226D01*
X225910277Y-129297560D01*
X225310277Y-129297560D01*
X225543611Y-128930893D02*
X226243611Y-128930893D01*
X225576944Y-128930893D02*
X225543611Y-128864226D01*
X225543611Y-128730893D01*
X225576944Y-128664226D01*
X225610277Y-128630893D01*
X225676944Y-128597560D01*
X225876944Y-128597560D01*
X225943611Y-128630893D01*
X225976944Y-128664226D01*
X226010277Y-128730893D01*
X226010277Y-128864226D01*
X225976944Y-128930893D01*
X225976944Y-127997560D02*
X226010277Y-128064226D01*
X226010277Y-128197560D01*
X225976944Y-128264226D01*
X225943611Y-128297560D01*
X225876944Y-128330893D01*
X225676944Y-128330893D01*
X225610277Y-128297560D01*
X225576944Y-128264226D01*
X225543611Y-128197560D01*
X225543611Y-128064226D01*
X225576944Y-127997560D01*
X226010277Y-127397560D02*
X225643611Y-127397560D01*
X225576944Y-127430893D01*
X225543611Y-127497560D01*
X225543611Y-127630893D01*
X225576944Y-127697560D01*
X225976944Y-127397560D02*
X226010277Y-127464226D01*
X226010277Y-127630893D01*
X225976944Y-127697560D01*
X225910277Y-127730893D01*
X225843611Y-127730893D01*
X225776944Y-127697560D01*
X225743611Y-127630893D01*
X225743611Y-127464226D01*
X225710277Y-127397560D01*
X226010277Y-126964226D02*
X225976944Y-127030893D01*
X225910277Y-127064226D01*
X225310277Y-127064226D01*
X226010277Y-126697560D02*
X225310277Y-126697560D01*
X226010277Y-126397560D02*
X225643611Y-126397560D01*
X225576944Y-126430893D01*
X225543611Y-126497560D01*
X225543611Y-126597560D01*
X225576944Y-126664226D01*
X225610277Y-126697560D01*
X226010277Y-125764226D02*
X225643611Y-125764226D01*
X225576944Y-125797560D01*
X225543611Y-125864226D01*
X225543611Y-125997560D01*
X225576944Y-126064226D01*
X225976944Y-125764226D02*
X226010277Y-125830893D01*
X226010277Y-125997560D01*
X225976944Y-126064226D01*
X225910277Y-126097560D01*
X225843611Y-126097560D01*
X225776944Y-126064226D01*
X225743611Y-125997560D01*
X225743611Y-125830893D01*
X225710277Y-125764226D01*
X225543611Y-125430893D02*
X226010277Y-125430893D01*
X225610277Y-125430893D02*
X225576944Y-125397560D01*
X225543611Y-125330893D01*
X225543611Y-125230893D01*
X225576944Y-125164226D01*
X225643611Y-125130893D01*
X226010277Y-125130893D01*
X165060611Y-136599600D02*
X165060611Y-136366266D01*
X165427277Y-136266266D02*
X165427277Y-136599600D01*
X164727277Y-136599600D01*
X164727277Y-136266266D01*
X165427277Y-135966266D02*
X164960611Y-135966266D01*
X165093944Y-135966266D02*
X165027277Y-135932933D01*
X164993944Y-135899600D01*
X164960611Y-135832933D01*
X164960611Y-135766266D01*
X165427277Y-135232933D02*
X165060611Y-135232933D01*
X164993944Y-135266266D01*
X164960611Y-135332933D01*
X164960611Y-135466266D01*
X164993944Y-135532933D01*
X165393944Y-135232933D02*
X165427277Y-135299600D01*
X165427277Y-135466266D01*
X165393944Y-135532933D01*
X165327277Y-135566266D01*
X165260611Y-135566266D01*
X165193944Y-135532933D01*
X165160611Y-135466266D01*
X165160611Y-135299600D01*
X165127277Y-135232933D01*
X165427277Y-134799600D02*
X165393944Y-134866266D01*
X165327277Y-134899600D01*
X164727277Y-134899600D01*
X164960611Y-134532933D02*
X165660611Y-134532933D01*
X164993944Y-134532933D02*
X164960611Y-134466266D01*
X164960611Y-134332933D01*
X164993944Y-134266266D01*
X165027277Y-134232933D01*
X165093944Y-134199600D01*
X165293944Y-134199600D01*
X165360611Y-134232933D01*
X165393944Y-134266266D01*
X165427277Y-134332933D01*
X165427277Y-134466266D01*
X165393944Y-134532933D01*
X165360611Y-132966266D02*
X165393944Y-132999600D01*
X165427277Y-133099600D01*
X165427277Y-133166266D01*
X165393944Y-133266266D01*
X165327277Y-133332933D01*
X165260611Y-133366266D01*
X165127277Y-133399600D01*
X165027277Y-133399600D01*
X164893944Y-133366266D01*
X164827277Y-133332933D01*
X164760611Y-133266266D01*
X164727277Y-133166266D01*
X164727277Y-133099600D01*
X164760611Y-132999600D01*
X164793944Y-132966266D01*
X165427277Y-132366266D02*
X165060611Y-132366266D01*
X164993944Y-132399600D01*
X164960611Y-132466266D01*
X164960611Y-132599600D01*
X164993944Y-132666266D01*
X165393944Y-132366266D02*
X165427277Y-132432933D01*
X165427277Y-132599600D01*
X165393944Y-132666266D01*
X165327277Y-132699600D01*
X165260611Y-132699600D01*
X165193944Y-132666266D01*
X165160611Y-132599600D01*
X165160611Y-132432933D01*
X165127277Y-132366266D01*
X165427277Y-131932933D02*
X165393944Y-131999600D01*
X165327277Y-132032933D01*
X164727277Y-132032933D01*
X165427277Y-131666266D02*
X164727277Y-131666266D01*
X165427277Y-131366266D02*
X165060611Y-131366266D01*
X164993944Y-131399600D01*
X164960611Y-131466266D01*
X164960611Y-131566266D01*
X164993944Y-131632933D01*
X165027277Y-131666266D01*
X165427277Y-130732933D02*
X165060611Y-130732933D01*
X164993944Y-130766266D01*
X164960611Y-130832933D01*
X164960611Y-130966266D01*
X164993944Y-131032933D01*
X165393944Y-130732933D02*
X165427277Y-130799600D01*
X165427277Y-130966266D01*
X165393944Y-131032933D01*
X165327277Y-131066266D01*
X165260611Y-131066266D01*
X165193944Y-131032933D01*
X165160611Y-130966266D01*
X165160611Y-130799600D01*
X165127277Y-130732933D01*
X164960611Y-130399600D02*
X165427277Y-130399600D01*
X165027277Y-130399600D02*
X164993944Y-130366266D01*
X164960611Y-130299600D01*
X164960611Y-130199600D01*
X164993944Y-130132933D01*
X165060611Y-130099600D01*
X165427277Y-130099600D01*
X166087611Y-139216266D02*
X166654277Y-139216266D01*
X166720944Y-139249600D01*
X166754277Y-139282933D01*
X166787611Y-139349600D01*
X166787611Y-139449600D01*
X166754277Y-139516266D01*
X166520944Y-139216266D02*
X166554277Y-139282933D01*
X166554277Y-139416266D01*
X166520944Y-139482933D01*
X166487611Y-139516266D01*
X166420944Y-139549600D01*
X166220944Y-139549600D01*
X166154277Y-139516266D01*
X166120944Y-139482933D01*
X166087611Y-139416266D01*
X166087611Y-139282933D01*
X166120944Y-139216266D01*
X166554277Y-138882933D02*
X166087611Y-138882933D01*
X165854277Y-138882933D02*
X165887611Y-138916266D01*
X165920944Y-138882933D01*
X165887611Y-138849600D01*
X165854277Y-138882933D01*
X165920944Y-138882933D01*
X166087611Y-138649600D02*
X166087611Y-138382933D01*
X165854277Y-138549600D02*
X166454277Y-138549600D01*
X166520944Y-138516266D01*
X166554277Y-138449600D01*
X166554277Y-138382933D01*
X166554277Y-138149600D02*
X165854277Y-138149600D01*
X166554277Y-137849600D02*
X166187611Y-137849600D01*
X166120944Y-137882933D01*
X166087611Y-137949600D01*
X166087611Y-138049600D01*
X166120944Y-138116266D01*
X166154277Y-138149600D01*
X166087611Y-137216266D02*
X166554277Y-137216266D01*
X166087611Y-137516266D02*
X166454277Y-137516266D01*
X166520944Y-137482933D01*
X166554277Y-137416266D01*
X166554277Y-137316266D01*
X166520944Y-137249600D01*
X166487611Y-137216266D01*
X166554277Y-136882933D02*
X165854277Y-136882933D01*
X166120944Y-136882933D02*
X166087611Y-136816266D01*
X166087611Y-136682933D01*
X166120944Y-136616266D01*
X166154277Y-136582933D01*
X166220944Y-136549600D01*
X166420944Y-136549600D01*
X166487611Y-136582933D01*
X166520944Y-136616266D01*
X166554277Y-136682933D01*
X166554277Y-136816266D01*
X166520944Y-136882933D01*
X166487611Y-136249600D02*
X166520944Y-136216266D01*
X166554277Y-136249600D01*
X166520944Y-136282933D01*
X166487611Y-136249600D01*
X166554277Y-136249600D01*
X166520944Y-135616266D02*
X166554277Y-135682933D01*
X166554277Y-135816266D01*
X166520944Y-135882933D01*
X166487611Y-135916266D01*
X166420944Y-135949600D01*
X166220944Y-135949600D01*
X166154277Y-135916266D01*
X166120944Y-135882933D01*
X166087611Y-135816266D01*
X166087611Y-135682933D01*
X166120944Y-135616266D01*
X166554277Y-135216266D02*
X166520944Y-135282933D01*
X166487611Y-135316266D01*
X166420944Y-135349600D01*
X166220944Y-135349600D01*
X166154277Y-135316266D01*
X166120944Y-135282933D01*
X166087611Y-135216266D01*
X166087611Y-135116266D01*
X166120944Y-135049600D01*
X166154277Y-135016266D01*
X166220944Y-134982933D01*
X166420944Y-134982933D01*
X166487611Y-135016266D01*
X166520944Y-135049600D01*
X166554277Y-135116266D01*
X166554277Y-135216266D01*
X166554277Y-134682933D02*
X166087611Y-134682933D01*
X166154277Y-134682933D02*
X166120944Y-134649600D01*
X166087611Y-134582933D01*
X166087611Y-134482933D01*
X166120944Y-134416266D01*
X166187611Y-134382933D01*
X166554277Y-134382933D01*
X166187611Y-134382933D02*
X166120944Y-134349600D01*
X166087611Y-134282933D01*
X166087611Y-134182933D01*
X166120944Y-134116266D01*
X166187611Y-134082933D01*
X166554277Y-134082933D01*
X165820944Y-133249600D02*
X166720944Y-133849600D01*
X166520944Y-132749600D02*
X166554277Y-132816266D01*
X166554277Y-132949600D01*
X166520944Y-133016266D01*
X166454277Y-133049600D01*
X166187611Y-133049600D01*
X166120944Y-133016266D01*
X166087611Y-132949600D01*
X166087611Y-132816266D01*
X166120944Y-132749600D01*
X166187611Y-132716266D01*
X166254277Y-132716266D01*
X166320944Y-133049600D01*
X166554277Y-132416266D02*
X166087611Y-132416266D01*
X166220944Y-132416266D02*
X166154277Y-132382933D01*
X166120944Y-132349600D01*
X166087611Y-132282933D01*
X166087611Y-132216266D01*
X166554277Y-131682933D02*
X166187611Y-131682933D01*
X166120944Y-131716266D01*
X166087611Y-131782933D01*
X166087611Y-131916266D01*
X166120944Y-131982933D01*
X166520944Y-131682933D02*
X166554277Y-131749600D01*
X166554277Y-131916266D01*
X166520944Y-131982933D01*
X166454277Y-132016266D01*
X166387611Y-132016266D01*
X166320944Y-131982933D01*
X166287611Y-131916266D01*
X166287611Y-131749600D01*
X166254277Y-131682933D01*
X166554277Y-131249600D02*
X166520944Y-131316266D01*
X166454277Y-131349600D01*
X165854277Y-131349600D01*
X166087611Y-130982933D02*
X166787611Y-130982933D01*
X166120944Y-130982933D02*
X166087611Y-130916266D01*
X166087611Y-130782933D01*
X166120944Y-130716266D01*
X166154277Y-130682933D01*
X166220944Y-130649600D01*
X166420944Y-130649600D01*
X166487611Y-130682933D01*
X166520944Y-130716266D01*
X166554277Y-130782933D01*
X166554277Y-130916266D01*
X166520944Y-130982933D01*
X166520944Y-130049600D02*
X166554277Y-130116266D01*
X166554277Y-130249600D01*
X166520944Y-130316266D01*
X166487611Y-130349600D01*
X166420944Y-130382933D01*
X166220944Y-130382933D01*
X166154277Y-130349600D01*
X166120944Y-130316266D01*
X166087611Y-130249600D01*
X166087611Y-130116266D01*
X166120944Y-130049600D01*
X166554277Y-129449600D02*
X166187611Y-129449600D01*
X166120944Y-129482933D01*
X166087611Y-129549600D01*
X166087611Y-129682933D01*
X166120944Y-129749600D01*
X166520944Y-129449600D02*
X166554277Y-129516266D01*
X166554277Y-129682933D01*
X166520944Y-129749600D01*
X166454277Y-129782933D01*
X166387611Y-129782933D01*
X166320944Y-129749600D01*
X166287611Y-129682933D01*
X166287611Y-129516266D01*
X166254277Y-129449600D01*
X166554277Y-129016266D02*
X166520944Y-129082933D01*
X166454277Y-129116266D01*
X165854277Y-129116266D01*
X166554277Y-128749600D02*
X165854277Y-128749600D01*
X166554277Y-128449600D02*
X166187611Y-128449600D01*
X166120944Y-128482933D01*
X166087611Y-128549600D01*
X166087611Y-128649600D01*
X166120944Y-128716266D01*
X166154277Y-128749600D01*
X166554277Y-127816266D02*
X166187611Y-127816266D01*
X166120944Y-127849600D01*
X166087611Y-127916266D01*
X166087611Y-128049600D01*
X166120944Y-128116266D01*
X166520944Y-127816266D02*
X166554277Y-127882933D01*
X166554277Y-128049600D01*
X166520944Y-128116266D01*
X166454277Y-128149600D01*
X166387611Y-128149600D01*
X166320944Y-128116266D01*
X166287611Y-128049600D01*
X166287611Y-127882933D01*
X166254277Y-127816266D01*
X166087611Y-127482933D02*
X166554277Y-127482933D01*
X166154277Y-127482933D02*
X166120944Y-127449600D01*
X166087611Y-127382933D01*
X166087611Y-127282933D01*
X166120944Y-127216266D01*
X166187611Y-127182933D01*
X166554277Y-127182933D01*
X163704777Y-140634918D02*
X163004777Y-140547418D01*
X163004777Y-140242656D01*
X163038111Y-140170632D01*
X163071444Y-140136704D01*
X163138111Y-140106942D01*
X163238111Y-140119442D01*
X163304777Y-140165870D01*
X163338111Y-140208132D01*
X163371444Y-140288489D01*
X163371444Y-140593251D01*
X163671444Y-139525989D02*
X163704777Y-139606347D01*
X163704777Y-139758727D01*
X163671444Y-139830751D01*
X163604777Y-139860513D01*
X163338111Y-139827180D01*
X163271444Y-139780751D01*
X163238111Y-139700394D01*
X163238111Y-139548013D01*
X163271444Y-139475989D01*
X163338111Y-139446227D01*
X163404777Y-139454561D01*
X163471444Y-139843847D01*
X163238111Y-139090870D02*
X163704777Y-139149204D01*
X163304777Y-139099204D02*
X163271444Y-139056942D01*
X163238111Y-138976585D01*
X163238111Y-138862299D01*
X163271444Y-138790275D01*
X163338111Y-138760513D01*
X163704777Y-138806347D01*
X163704777Y-138082537D02*
X163004777Y-137995037D01*
X163671444Y-138078370D02*
X163704777Y-138158727D01*
X163704777Y-138311108D01*
X163671444Y-138383132D01*
X163638111Y-138417061D01*
X163571444Y-138446823D01*
X163371444Y-138421823D01*
X163304777Y-138375394D01*
X163271444Y-138333132D01*
X163238111Y-138252775D01*
X163238111Y-138100394D01*
X163271444Y-138028370D01*
X163238111Y-137300394D02*
X163704777Y-137358727D01*
X163238111Y-137643251D02*
X163604777Y-137689085D01*
X163671444Y-137659323D01*
X163704777Y-137587299D01*
X163704777Y-137473013D01*
X163671444Y-137392656D01*
X163638111Y-137350394D01*
X163704777Y-136977775D02*
X163238111Y-136919442D01*
X163004777Y-136890275D02*
X163038111Y-136932537D01*
X163071444Y-136898608D01*
X163038111Y-136856347D01*
X163004777Y-136890275D01*
X163071444Y-136898608D01*
X163238111Y-136538489D02*
X163704777Y-136596823D01*
X163304777Y-136546823D02*
X163271444Y-136504561D01*
X163238111Y-136424204D01*
X163238111Y-136309918D01*
X163271444Y-136237894D01*
X163338111Y-136208132D01*
X163704777Y-136253966D01*
X163704777Y-135758727D02*
X163671444Y-135830751D01*
X163638111Y-135864680D01*
X163571444Y-135894442D01*
X163371444Y-135869442D01*
X163304777Y-135823013D01*
X163271444Y-135780751D01*
X163238111Y-135700394D01*
X163238111Y-135586108D01*
X163271444Y-135514085D01*
X163304777Y-135480156D01*
X163371444Y-135450394D01*
X163571444Y-135475394D01*
X163638111Y-135521823D01*
X163671444Y-135564085D01*
X163704777Y-135644442D01*
X163704777Y-135758727D01*
X163704777Y-134539680D02*
X163004777Y-134452180D01*
X163004777Y-134261704D01*
X163038111Y-134151585D01*
X163104777Y-134083727D01*
X163171444Y-134053966D01*
X163304777Y-134032537D01*
X163404777Y-134045037D01*
X163538111Y-134099799D01*
X163604777Y-134146227D01*
X163671444Y-134230751D01*
X163704777Y-134349204D01*
X163704777Y-134539680D01*
X163704777Y-133396823D02*
X163338111Y-133350989D01*
X163271444Y-133380751D01*
X163238111Y-133452775D01*
X163238111Y-133605156D01*
X163271444Y-133685513D01*
X163671444Y-133392656D02*
X163704777Y-133473013D01*
X163704777Y-133663489D01*
X163671444Y-133735513D01*
X163604777Y-133765275D01*
X163538111Y-133756942D01*
X163471444Y-133710513D01*
X163438111Y-133630156D01*
X163438111Y-133439680D01*
X163404777Y-133359323D01*
X163238111Y-132614680D02*
X163704777Y-132673013D01*
X163238111Y-132957537D02*
X163604777Y-133003370D01*
X163671444Y-132973608D01*
X163704777Y-132901585D01*
X163704777Y-132787299D01*
X163671444Y-132706942D01*
X163638111Y-132664680D01*
X163238111Y-131890870D02*
X163804777Y-131961704D01*
X163871444Y-132008132D01*
X163904777Y-132050394D01*
X163938111Y-132130751D01*
X163938111Y-132245037D01*
X163904777Y-132317061D01*
X163671444Y-131945037D02*
X163704777Y-132025394D01*
X163704777Y-132177775D01*
X163671444Y-132249799D01*
X163638111Y-132283727D01*
X163571444Y-132313489D01*
X163371444Y-132288489D01*
X163304777Y-132242061D01*
X163271444Y-132199799D01*
X163238111Y-132119442D01*
X163238111Y-131967061D01*
X163271444Y-131895037D01*
X163704777Y-131568251D02*
X163004777Y-131480751D01*
X163704777Y-131225394D02*
X163338111Y-131179561D01*
X163271444Y-131209323D01*
X163238111Y-131281347D01*
X163238111Y-131395632D01*
X163271444Y-131475989D01*
X163304777Y-131518251D01*
X163238111Y-130900394D02*
X163238111Y-130595632D01*
X163004777Y-130756942D02*
X163604777Y-130831942D01*
X163671444Y-130802180D01*
X163704777Y-130730156D01*
X163704777Y-130653966D01*
X163671444Y-130078370D02*
X163704777Y-130158727D01*
X163704777Y-130311108D01*
X163671444Y-130383132D01*
X163604777Y-130412894D01*
X163338111Y-130379561D01*
X163271444Y-130333132D01*
X163238111Y-130252775D01*
X163238111Y-130100394D01*
X163271444Y-130028370D01*
X163338111Y-129998608D01*
X163404777Y-130006942D01*
X163471444Y-130396227D01*
X163704777Y-129701585D02*
X163238111Y-129643251D01*
X163371444Y-129659918D02*
X163304777Y-129613489D01*
X163271444Y-129571227D01*
X163238111Y-129490870D01*
X163238111Y-129414680D01*
X163704777Y-129206347D02*
X163004777Y-129118847D01*
X163271444Y-129152180D02*
X163238111Y-129071823D01*
X163238111Y-128919442D01*
X163271444Y-128847418D01*
X163304777Y-128813489D01*
X163371444Y-128783727D01*
X163571444Y-128808727D01*
X163638111Y-128855156D01*
X163671444Y-128897418D01*
X163704777Y-128977775D01*
X163704777Y-129130156D01*
X163671444Y-129202180D01*
X163704777Y-128368251D02*
X163671444Y-128440275D01*
X163638111Y-128474204D01*
X163571444Y-128503966D01*
X163371444Y-128478966D01*
X163304777Y-128432537D01*
X163271444Y-128390275D01*
X163238111Y-128309918D01*
X163238111Y-128195632D01*
X163271444Y-128123608D01*
X163304777Y-128089680D01*
X163371444Y-128059918D01*
X163571444Y-128084918D01*
X163638111Y-128131347D01*
X163671444Y-128173608D01*
X163704777Y-128253966D01*
X163704777Y-128368251D01*
X163704777Y-127415870D02*
X163338111Y-127370037D01*
X163271444Y-127399799D01*
X163238111Y-127471823D01*
X163238111Y-127624204D01*
X163271444Y-127704561D01*
X163671444Y-127411704D02*
X163704777Y-127492061D01*
X163704777Y-127682537D01*
X163671444Y-127754561D01*
X163604777Y-127784323D01*
X163538111Y-127775989D01*
X163471444Y-127729561D01*
X163438111Y-127649204D01*
X163438111Y-127458727D01*
X163404777Y-127378370D01*
X163704777Y-127034918D02*
X163238111Y-126976585D01*
X163371444Y-126993251D02*
X163304777Y-126946823D01*
X163271444Y-126904561D01*
X163238111Y-126824204D01*
X163238111Y-126748013D01*
X163704777Y-126196823D02*
X163004777Y-126109323D01*
X163671444Y-126192656D02*
X163704777Y-126273013D01*
X163704777Y-126425394D01*
X163671444Y-126497418D01*
X163638111Y-126531347D01*
X163571444Y-126561108D01*
X163371444Y-126536108D01*
X163304777Y-126489680D01*
X163271444Y-126447418D01*
X163238111Y-126367061D01*
X163238111Y-126214680D01*
X163271444Y-126142656D01*
D11*
X225920663Y-73756845D02*
X225520663Y-73756845D01*
X225520663Y-73661607D01*
X225539711Y-73604464D01*
X225577806Y-73566369D01*
X225615901Y-73547321D01*
X225692091Y-73528274D01*
X225749234Y-73528274D01*
X225825425Y-73547321D01*
X225863520Y-73566369D01*
X225901615Y-73604464D01*
X225920663Y-73661607D01*
X225920663Y-73756845D01*
X225920663Y-73128274D02*
X225730187Y-73261607D01*
X225920663Y-73356845D02*
X225520663Y-73356845D01*
X225520663Y-73204464D01*
X225539711Y-73166369D01*
X225558758Y-73147321D01*
X225596853Y-73128274D01*
X225653996Y-73128274D01*
X225692091Y-73147321D01*
X225711139Y-73166369D01*
X225730187Y-73204464D01*
X225730187Y-73356845D01*
X225920663Y-72956845D02*
X225520663Y-72956845D01*
X225520663Y-72823512D02*
X225920663Y-72690179D01*
X225520663Y-72556845D01*
X225711139Y-72423512D02*
X225711139Y-72290179D01*
X225920663Y-72233036D02*
X225920663Y-72423512D01*
X225520663Y-72423512D01*
X225520663Y-72233036D01*
X225958758Y-72156845D02*
X225958758Y-71852083D01*
X225539711Y-71547321D02*
X225520663Y-71585417D01*
X225520663Y-71642560D01*
X225539711Y-71699702D01*
X225577806Y-71737798D01*
X225615901Y-71756845D01*
X225692091Y-71775893D01*
X225749234Y-71775893D01*
X225825425Y-71756845D01*
X225863520Y-71737798D01*
X225901615Y-71699702D01*
X225920663Y-71642560D01*
X225920663Y-71604464D01*
X225901615Y-71547321D01*
X225882568Y-71528274D01*
X225749234Y-71528274D01*
X225749234Y-71604464D01*
X225920663Y-71356845D02*
X225520663Y-71356845D01*
X225920663Y-71128274D01*
X225520663Y-71128274D01*
X225920663Y-70937798D02*
X225520663Y-70937798D01*
X225520663Y-70842560D01*
X225539711Y-70785417D01*
X225577806Y-70747321D01*
X225615901Y-70728274D01*
X225692091Y-70709226D01*
X225749234Y-70709226D01*
X225825425Y-70728274D01*
X225863520Y-70747321D01*
X225901615Y-70785417D01*
X225920663Y-70842560D01*
X225920663Y-70937798D01*
X166464663Y-75808885D02*
X166064663Y-75808885D01*
X166064663Y-75713647D01*
X166083711Y-75656504D01*
X166121806Y-75618409D01*
X166159901Y-75599361D01*
X166236091Y-75580314D01*
X166293234Y-75580314D01*
X166369425Y-75599361D01*
X166407520Y-75618409D01*
X166445615Y-75656504D01*
X166464663Y-75713647D01*
X166464663Y-75808885D01*
X166464663Y-75180314D02*
X166274187Y-75313647D01*
X166464663Y-75408885D02*
X166064663Y-75408885D01*
X166064663Y-75256504D01*
X166083711Y-75218409D01*
X166102758Y-75199361D01*
X166140853Y-75180314D01*
X166197996Y-75180314D01*
X166236091Y-75199361D01*
X166255139Y-75218409D01*
X166274187Y-75256504D01*
X166274187Y-75408885D01*
X166464663Y-75008885D02*
X166064663Y-75008885D01*
X166064663Y-74875552D02*
X166464663Y-74742219D01*
X166064663Y-74608885D01*
X166255139Y-74475552D02*
X166255139Y-74342219D01*
X166464663Y-74285076D02*
X166464663Y-74475552D01*
X166064663Y-74475552D01*
X166064663Y-74285076D01*
X166502758Y-74208885D02*
X166502758Y-73904123D01*
X166083711Y-73599361D02*
X166064663Y-73637457D01*
X166064663Y-73694600D01*
X166083711Y-73751742D01*
X166121806Y-73789838D01*
X166159901Y-73808885D01*
X166236091Y-73827933D01*
X166293234Y-73827933D01*
X166369425Y-73808885D01*
X166407520Y-73789838D01*
X166445615Y-73751742D01*
X166464663Y-73694600D01*
X166464663Y-73656504D01*
X166445615Y-73599361D01*
X166426568Y-73580314D01*
X166293234Y-73580314D01*
X166293234Y-73656504D01*
X166464663Y-73408885D02*
X166064663Y-73408885D01*
X166464663Y-73180314D01*
X166064663Y-73180314D01*
X166464663Y-72989838D02*
X166064663Y-72989838D01*
X166064663Y-72894600D01*
X166083711Y-72837457D01*
X166121806Y-72799361D01*
X166159901Y-72780314D01*
X166236091Y-72761266D01*
X166293234Y-72761266D01*
X166369425Y-72780314D01*
X166407520Y-72799361D01*
X166445615Y-72837457D01*
X166464663Y-72894600D01*
X166464663Y-72989838D01*
X149853063Y-76450266D02*
X149453063Y-76450266D01*
X149453063Y-76355028D01*
X149472111Y-76297885D01*
X149510206Y-76259790D01*
X149548301Y-76240742D01*
X149624491Y-76221695D01*
X149681634Y-76221695D01*
X149757825Y-76240742D01*
X149795920Y-76259790D01*
X149834015Y-76297885D01*
X149853063Y-76355028D01*
X149853063Y-76450266D01*
X149853063Y-75821695D02*
X149662587Y-75955028D01*
X149853063Y-76050266D02*
X149453063Y-76050266D01*
X149453063Y-75897885D01*
X149472111Y-75859790D01*
X149491158Y-75840742D01*
X149529253Y-75821695D01*
X149586396Y-75821695D01*
X149624491Y-75840742D01*
X149643539Y-75859790D01*
X149662587Y-75897885D01*
X149662587Y-76050266D01*
X149853063Y-75650266D02*
X149453063Y-75650266D01*
X149453063Y-75516933D02*
X149853063Y-75383600D01*
X149453063Y-75250266D01*
X149643539Y-75116933D02*
X149643539Y-74983600D01*
X149853063Y-74926457D02*
X149853063Y-75116933D01*
X149453063Y-75116933D01*
X149453063Y-74926457D01*
X149891158Y-74850266D02*
X149891158Y-74545504D01*
X149453063Y-74259790D02*
X149453063Y-74450266D01*
X149643539Y-74469314D01*
X149624491Y-74450266D01*
X149605444Y-74412171D01*
X149605444Y-74316933D01*
X149624491Y-74278838D01*
X149643539Y-74259790D01*
X149681634Y-74240742D01*
X149776872Y-74240742D01*
X149814968Y-74259790D01*
X149834015Y-74278838D01*
X149853063Y-74316933D01*
X149853063Y-74412171D01*
X149834015Y-74450266D01*
X149814968Y-74469314D01*
X149453063Y-74126457D02*
X149853063Y-73993123D01*
X149453063Y-73859790D01*
D10*
%TO.C,R1*%
X138830444Y-132149980D02*
X138497111Y-131673790D01*
X138259015Y-132149980D02*
X138259015Y-131149980D01*
X138639968Y-131149980D01*
X138735206Y-131197600D01*
X138782825Y-131245219D01*
X138830444Y-131340457D01*
X138830444Y-131483314D01*
X138782825Y-131578552D01*
X138735206Y-131626171D01*
X138639968Y-131673790D01*
X138259015Y-131673790D01*
X139782825Y-132149980D02*
X139211396Y-132149980D01*
X139497111Y-132149980D02*
X139497111Y-131149980D01*
X139401872Y-131292838D01*
X139306634Y-131388076D01*
X139211396Y-131435695D01*
%TO.C,J5*%
X228240091Y-130310093D02*
X228954377Y-130310093D01*
X229097234Y-130357712D01*
X229192472Y-130452950D01*
X229240091Y-130595807D01*
X229240091Y-130691045D01*
X228240091Y-129357712D02*
X228240091Y-129833902D01*
X228716282Y-129881521D01*
X228668663Y-129833902D01*
X228621044Y-129738664D01*
X228621044Y-129500569D01*
X228668663Y-129405331D01*
X228716282Y-129357712D01*
X228811520Y-129310093D01*
X229049615Y-129310093D01*
X229144853Y-129357712D01*
X229192472Y-129405331D01*
X229240091Y-129500569D01*
X229240091Y-129738664D01*
X229192472Y-129833902D01*
X229144853Y-129881521D01*
%TO.C,R1*%
X198286444Y-130097940D02*
X197953111Y-129621750D01*
X197715015Y-130097940D02*
X197715015Y-129097940D01*
X198095968Y-129097940D01*
X198191206Y-129145560D01*
X198238825Y-129193179D01*
X198286444Y-129288417D01*
X198286444Y-129431274D01*
X198238825Y-129526512D01*
X198191206Y-129574131D01*
X198095968Y-129621750D01*
X197715015Y-129621750D01*
X199238825Y-130097940D02*
X198667396Y-130097940D01*
X198953111Y-130097940D02*
X198953111Y-129097940D01*
X198857872Y-129240798D01*
X198762634Y-129336036D01*
X198667396Y-129383655D01*
D12*
%TO.C,IC4*%
X151226349Y-140274123D02*
X151226349Y-139004123D01*
X152556825Y-140153171D02*
X152496349Y-140213647D01*
X152314920Y-140274123D01*
X152193968Y-140274123D01*
X152012539Y-140213647D01*
X151891587Y-140092695D01*
X151831111Y-139971742D01*
X151770634Y-139729838D01*
X151770634Y-139548409D01*
X151831111Y-139306504D01*
X151891587Y-139185552D01*
X152012539Y-139064600D01*
X152193968Y-139004123D01*
X152314920Y-139004123D01*
X152496349Y-139064600D01*
X152556825Y-139125076D01*
X153645396Y-139427457D02*
X153645396Y-140274123D01*
X153343015Y-138943647D02*
X153040634Y-139850790D01*
X153826825Y-139850790D01*
D10*
%TO.C,J7*%
X210790291Y-71280493D02*
X211504577Y-71280493D01*
X211647434Y-71328112D01*
X211742672Y-71423350D01*
X211790291Y-71566207D01*
X211790291Y-71661445D01*
X210790291Y-70899540D02*
X210790291Y-70232874D01*
X211790291Y-70661445D01*
%TO.C,Q2*%
X207986930Y-93191198D02*
X207939311Y-93286436D01*
X207844072Y-93381674D01*
X207701215Y-93524531D01*
X207653596Y-93619769D01*
X207653596Y-93715007D01*
X207891691Y-93667388D02*
X207844072Y-93762626D01*
X207748834Y-93857864D01*
X207558358Y-93905483D01*
X207225025Y-93905483D01*
X207034549Y-93857864D01*
X206939311Y-93762626D01*
X206891691Y-93667388D01*
X206891691Y-93476912D01*
X206939311Y-93381674D01*
X207034549Y-93286436D01*
X207225025Y-93238817D01*
X207558358Y-93238817D01*
X207748834Y-93286436D01*
X207844072Y-93381674D01*
X207891691Y-93476912D01*
X207891691Y-93667388D01*
X206986930Y-92857864D02*
X206939311Y-92810245D01*
X206891691Y-92715007D01*
X206891691Y-92476912D01*
X206939311Y-92381674D01*
X206986930Y-92334055D01*
X207082168Y-92286436D01*
X207177406Y-92286436D01*
X207320263Y-92334055D01*
X207891691Y-92905483D01*
X207891691Y-92286436D01*
%TO.C,J1*%
X102090491Y-69667893D02*
X102804777Y-69667893D01*
X102947634Y-69715512D01*
X103042872Y-69810750D01*
X103090491Y-69953607D01*
X103090491Y-70048845D01*
X103090491Y-68667893D02*
X103090491Y-69239321D01*
X103090491Y-68953607D02*
X102090491Y-68953607D01*
X102233349Y-69048845D01*
X102328587Y-69144083D01*
X102376206Y-69239321D01*
X217047631Y-57666920D02*
X217047631Y-58381206D01*
X217000012Y-58524063D01*
X216904774Y-58619301D01*
X216761917Y-58666920D01*
X216666679Y-58666920D01*
X218047631Y-58666920D02*
X217476203Y-58666920D01*
X217761917Y-58666920D02*
X217761917Y-57666920D01*
X217666679Y-57809778D01*
X217571441Y-57905016D01*
X217476203Y-57952635D01*
%TO.C,D4*%
X205904491Y-84029655D02*
X204904491Y-84029655D01*
X204904491Y-83791560D01*
X204952111Y-83648702D01*
X205047349Y-83553464D01*
X205142587Y-83505845D01*
X205333063Y-83458226D01*
X205475920Y-83458226D01*
X205666396Y-83505845D01*
X205761634Y-83553464D01*
X205856872Y-83648702D01*
X205904491Y-83791560D01*
X205904491Y-84029655D01*
X205237825Y-82601083D02*
X205904491Y-82601083D01*
X204856872Y-82839179D02*
X205571158Y-83077274D01*
X205571158Y-82458226D01*
X205484491Y-81013464D02*
X204484491Y-81013464D01*
X205484491Y-80442036D02*
X204913063Y-80870607D01*
X204484491Y-80442036D02*
X205055920Y-81013464D01*
%TO.C,J2*%
X107934491Y-106944893D02*
X108648777Y-106944893D01*
X108791634Y-106992512D01*
X108886872Y-107087750D01*
X108934491Y-107230607D01*
X108934491Y-107325845D01*
X108029730Y-106516321D02*
X107982111Y-106468702D01*
X107934491Y-106373464D01*
X107934491Y-106135369D01*
X107982111Y-106040131D01*
X108029730Y-105992512D01*
X108124968Y-105944893D01*
X108220206Y-105944893D01*
X108363063Y-105992512D01*
X108934491Y-106563940D01*
X108934491Y-105944893D01*
X123730777Y-63201940D02*
X123730777Y-63916226D01*
X123683158Y-64059083D01*
X123587920Y-64154321D01*
X123445063Y-64201940D01*
X123349825Y-64201940D01*
X124159349Y-63297179D02*
X124206968Y-63249560D01*
X124302206Y-63201940D01*
X124540301Y-63201940D01*
X124635539Y-63249560D01*
X124683158Y-63297179D01*
X124730777Y-63392417D01*
X124730777Y-63487655D01*
X124683158Y-63630512D01*
X124111730Y-64201940D01*
X124730777Y-64201940D01*
%TO.C,C1*%
X159621444Y-73896742D02*
X159573825Y-73944361D01*
X159430968Y-73991980D01*
X159335730Y-73991980D01*
X159192872Y-73944361D01*
X159097634Y-73849123D01*
X159050015Y-73753885D01*
X159002396Y-73563409D01*
X159002396Y-73420552D01*
X159050015Y-73230076D01*
X159097634Y-73134838D01*
X159192872Y-73039600D01*
X159335730Y-72991980D01*
X159430968Y-72991980D01*
X159573825Y-73039600D01*
X159621444Y-73087219D01*
X160573825Y-73991980D02*
X160002396Y-73991980D01*
X160288111Y-73991980D02*
X160288111Y-72991980D01*
X160192872Y-73134838D01*
X160097634Y-73230076D01*
X160002396Y-73277695D01*
%TO.C,R3*%
X138830444Y-139769980D02*
X138497111Y-139293790D01*
X138259015Y-139769980D02*
X138259015Y-138769980D01*
X138639968Y-138769980D01*
X138735206Y-138817600D01*
X138782825Y-138865219D01*
X138830444Y-138960457D01*
X138830444Y-139103314D01*
X138782825Y-139198552D01*
X138735206Y-139246171D01*
X138639968Y-139293790D01*
X138259015Y-139293790D01*
X139163777Y-138769980D02*
X139782825Y-138769980D01*
X139449491Y-139150933D01*
X139592349Y-139150933D01*
X139687587Y-139198552D01*
X139735206Y-139246171D01*
X139782825Y-139341409D01*
X139782825Y-139579504D01*
X139735206Y-139674742D01*
X139687587Y-139722361D01*
X139592349Y-139769980D01*
X139306634Y-139769980D01*
X139211396Y-139722361D01*
X139163777Y-139674742D01*
%TO.C,C8*%
X223714944Y-88064702D02*
X223667325Y-88112321D01*
X223524468Y-88159940D01*
X223429230Y-88159940D01*
X223286372Y-88112321D01*
X223191134Y-88017083D01*
X223143515Y-87921845D01*
X223095896Y-87731369D01*
X223095896Y-87588512D01*
X223143515Y-87398036D01*
X223191134Y-87302798D01*
X223286372Y-87207560D01*
X223429230Y-87159940D01*
X223524468Y-87159940D01*
X223667325Y-87207560D01*
X223714944Y-87255179D01*
X224286372Y-87588512D02*
X224191134Y-87540893D01*
X224143515Y-87493274D01*
X224095896Y-87398036D01*
X224095896Y-87350417D01*
X224143515Y-87255179D01*
X224191134Y-87207560D01*
X224286372Y-87159940D01*
X224476849Y-87159940D01*
X224572087Y-87207560D01*
X224619706Y-87255179D01*
X224667325Y-87350417D01*
X224667325Y-87398036D01*
X224619706Y-87493274D01*
X224572087Y-87540893D01*
X224476849Y-87588512D01*
X224286372Y-87588512D01*
X224191134Y-87636131D01*
X224143515Y-87683750D01*
X224095896Y-87778988D01*
X224095896Y-87969464D01*
X224143515Y-88064702D01*
X224191134Y-88112321D01*
X224286372Y-88159940D01*
X224476849Y-88159940D01*
X224572087Y-88112321D01*
X224619706Y-88064702D01*
X224667325Y-87969464D01*
X224667325Y-87778988D01*
X224619706Y-87683750D01*
X224572087Y-87636131D01*
X224476849Y-87588512D01*
D12*
%TO.C,IC1*%
X188354734Y-97252821D02*
X187084734Y-97252821D01*
X188233782Y-95922345D02*
X188294258Y-95982821D01*
X188354734Y-96164250D01*
X188354734Y-96285202D01*
X188294258Y-96466631D01*
X188173306Y-96587583D01*
X188052353Y-96648060D01*
X187810449Y-96708536D01*
X187629020Y-96708536D01*
X187387115Y-96648060D01*
X187266163Y-96587583D01*
X187145211Y-96466631D01*
X187084734Y-96285202D01*
X187084734Y-96164250D01*
X187145211Y-95982821D01*
X187205687Y-95922345D01*
X188354734Y-94712821D02*
X188354734Y-95438536D01*
X188354734Y-95075679D02*
X187084734Y-95075679D01*
X187266163Y-95196631D01*
X187387115Y-95317583D01*
X187447591Y-95438536D01*
D10*
%TO.C,D1*%
X133449015Y-132149980D02*
X133449015Y-131149980D01*
X133687111Y-131149980D01*
X133829968Y-131197600D01*
X133925206Y-131292838D01*
X133972825Y-131388076D01*
X134020444Y-131578552D01*
X134020444Y-131721409D01*
X133972825Y-131911885D01*
X133925206Y-132007123D01*
X133829968Y-132102361D01*
X133687111Y-132149980D01*
X133449015Y-132149980D01*
X134972825Y-132149980D02*
X134401396Y-132149980D01*
X134687111Y-132149980D02*
X134687111Y-131149980D01*
X134591872Y-131292838D01*
X134496634Y-131388076D01*
X134401396Y-131435695D01*
%TO.C,R5*%
X149845091Y-99503205D02*
X149368901Y-99836539D01*
X149845091Y-100074634D02*
X148845091Y-100074634D01*
X148845091Y-99693681D01*
X148892711Y-99598443D01*
X148940330Y-99550824D01*
X149035568Y-99503205D01*
X149178425Y-99503205D01*
X149273663Y-99550824D01*
X149321282Y-99598443D01*
X149368901Y-99693681D01*
X149368901Y-100074634D01*
X148845091Y-98598443D02*
X148845091Y-99074634D01*
X149321282Y-99122253D01*
X149273663Y-99074634D01*
X149226044Y-98979396D01*
X149226044Y-98741300D01*
X149273663Y-98646062D01*
X149321282Y-98598443D01*
X149416520Y-98550824D01*
X149654615Y-98550824D01*
X149749853Y-98598443D01*
X149797472Y-98646062D01*
X149845091Y-98741300D01*
X149845091Y-98979396D01*
X149797472Y-99074634D01*
X149749853Y-99122253D01*
%TO.C,C7*%
X213602744Y-123867602D02*
X213555125Y-123915221D01*
X213412268Y-123962840D01*
X213317030Y-123962840D01*
X213174172Y-123915221D01*
X213078934Y-123819983D01*
X213031315Y-123724745D01*
X212983696Y-123534269D01*
X212983696Y-123391412D01*
X213031315Y-123200936D01*
X213078934Y-123105698D01*
X213174172Y-123010460D01*
X213317030Y-122962840D01*
X213412268Y-122962840D01*
X213555125Y-123010460D01*
X213602744Y-123058079D01*
X213936077Y-122962840D02*
X214602744Y-122962840D01*
X214174172Y-123962840D01*
D12*
%TO.C,IC5*%
X156229610Y-87871184D02*
X156229610Y-86601184D01*
X157560086Y-87750232D02*
X157499610Y-87810708D01*
X157318181Y-87871184D01*
X157197229Y-87871184D01*
X157015800Y-87810708D01*
X156894848Y-87689756D01*
X156834372Y-87568803D01*
X156773895Y-87326899D01*
X156773895Y-87145470D01*
X156834372Y-86903565D01*
X156894848Y-86782613D01*
X157015800Y-86661661D01*
X157197229Y-86601184D01*
X157318181Y-86601184D01*
X157499610Y-86661661D01*
X157560086Y-86722137D01*
X158709133Y-86601184D02*
X158104372Y-86601184D01*
X158043895Y-87205946D01*
X158104372Y-87145470D01*
X158225324Y-87084994D01*
X158527705Y-87084994D01*
X158648657Y-87145470D01*
X158709133Y-87205946D01*
X158769610Y-87326899D01*
X158769610Y-87629280D01*
X158709133Y-87750232D01*
X158648657Y-87810708D01*
X158527705Y-87871184D01*
X158225324Y-87871184D01*
X158104372Y-87810708D01*
X158043895Y-87750232D01*
D10*
%TO.C,R6*%
X154789805Y-92808841D02*
X154456472Y-92332651D01*
X154218376Y-92808841D02*
X154218376Y-91808841D01*
X154599329Y-91808841D01*
X154694567Y-91856461D01*
X154742186Y-91904080D01*
X154789805Y-91999318D01*
X154789805Y-92142175D01*
X154742186Y-92237413D01*
X154694567Y-92285032D01*
X154599329Y-92332651D01*
X154218376Y-92332651D01*
X155646948Y-91808841D02*
X155456472Y-91808841D01*
X155361233Y-91856461D01*
X155313614Y-91904080D01*
X155218376Y-92046937D01*
X155170757Y-92237413D01*
X155170757Y-92618365D01*
X155218376Y-92713603D01*
X155265995Y-92761222D01*
X155361233Y-92808841D01*
X155551710Y-92808841D01*
X155646948Y-92761222D01*
X155694567Y-92713603D01*
X155742186Y-92618365D01*
X155742186Y-92380270D01*
X155694567Y-92285032D01*
X155646948Y-92237413D01*
X155551710Y-92189794D01*
X155361233Y-92189794D01*
X155265995Y-92237413D01*
X155218376Y-92285032D01*
X155170757Y-92380270D01*
D12*
%TO.C,IC4*%
X210682349Y-138222083D02*
X210682349Y-136952083D01*
X212012825Y-138101131D02*
X211952349Y-138161607D01*
X211770920Y-138222083D01*
X211649968Y-138222083D01*
X211468539Y-138161607D01*
X211347587Y-138040655D01*
X211287111Y-137919702D01*
X211226634Y-137677798D01*
X211226634Y-137496369D01*
X211287111Y-137254464D01*
X211347587Y-137133512D01*
X211468539Y-137012560D01*
X211649968Y-136952083D01*
X211770920Y-136952083D01*
X211952349Y-137012560D01*
X212012825Y-137073036D01*
X213101396Y-137375417D02*
X213101396Y-138222083D01*
X212799015Y-136891607D02*
X212496634Y-137798750D01*
X213282825Y-137798750D01*
D10*
%TO.C,C4*%
X142938753Y-104052266D02*
X142986372Y-104099885D01*
X143033991Y-104242742D01*
X143033991Y-104337980D01*
X142986372Y-104480838D01*
X142891134Y-104576076D01*
X142795896Y-104623695D01*
X142605420Y-104671314D01*
X142462563Y-104671314D01*
X142272087Y-104623695D01*
X142176849Y-104576076D01*
X142081611Y-104480838D01*
X142033991Y-104337980D01*
X142033991Y-104242742D01*
X142081611Y-104099885D01*
X142129230Y-104052266D01*
X142367325Y-103195123D02*
X143033991Y-103195123D01*
X141986372Y-103433219D02*
X142700658Y-103671314D01*
X142700658Y-103052266D01*
%TO.C,D2*%
X133449015Y-135959980D02*
X133449015Y-134959980D01*
X133687111Y-134959980D01*
X133829968Y-135007600D01*
X133925206Y-135102838D01*
X133972825Y-135198076D01*
X134020444Y-135388552D01*
X134020444Y-135531409D01*
X133972825Y-135721885D01*
X133925206Y-135817123D01*
X133829968Y-135912361D01*
X133687111Y-135959980D01*
X133449015Y-135959980D01*
X134401396Y-135055219D02*
X134449015Y-135007600D01*
X134544253Y-134959980D01*
X134782349Y-134959980D01*
X134877587Y-135007600D01*
X134925206Y-135055219D01*
X134972825Y-135150457D01*
X134972825Y-135245695D01*
X134925206Y-135388552D01*
X134353777Y-135959980D01*
X134972825Y-135959980D01*
D12*
%TO.C,IC2*%
X141534434Y-120873361D02*
X140264434Y-120873361D01*
X141413482Y-119542885D02*
X141473958Y-119603361D01*
X141534434Y-119784790D01*
X141534434Y-119905742D01*
X141473958Y-120087171D01*
X141353006Y-120208123D01*
X141232053Y-120268600D01*
X140990149Y-120329076D01*
X140808720Y-120329076D01*
X140566815Y-120268600D01*
X140445863Y-120208123D01*
X140324911Y-120087171D01*
X140264434Y-119905742D01*
X140264434Y-119784790D01*
X140324911Y-119603361D01*
X140385387Y-119542885D01*
X140385387Y-119059076D02*
X140324911Y-118998600D01*
X140264434Y-118877647D01*
X140264434Y-118575266D01*
X140324911Y-118454314D01*
X140385387Y-118393838D01*
X140506339Y-118333361D01*
X140627291Y-118333361D01*
X140808720Y-118393838D01*
X141534434Y-119119552D01*
X141534434Y-118333361D01*
D10*
%TO.C,Q1*%
X204227730Y-91006798D02*
X204180111Y-91102036D01*
X204084872Y-91197274D01*
X203942015Y-91340131D01*
X203894396Y-91435369D01*
X203894396Y-91530607D01*
X204132491Y-91482988D02*
X204084872Y-91578226D01*
X203989634Y-91673464D01*
X203799158Y-91721083D01*
X203465825Y-91721083D01*
X203275349Y-91673464D01*
X203180111Y-91578226D01*
X203132491Y-91482988D01*
X203132491Y-91292512D01*
X203180111Y-91197274D01*
X203275349Y-91102036D01*
X203465825Y-91054417D01*
X203799158Y-91054417D01*
X203989634Y-91102036D01*
X204084872Y-91197274D01*
X204132491Y-91292512D01*
X204132491Y-91482988D01*
X204132491Y-90102036D02*
X204132491Y-90673464D01*
X204132491Y-90387750D02*
X203132491Y-90387750D01*
X203275349Y-90482988D01*
X203370587Y-90578226D01*
X203418206Y-90673464D01*
%TO.C,J3*%
X81827121Y-61770115D02*
X81827121Y-62484401D01*
X81779502Y-62627258D01*
X81684264Y-62722496D01*
X81541407Y-62770115D01*
X81446169Y-62770115D01*
X82208074Y-61770115D02*
X82827121Y-61770115D01*
X82493788Y-62151068D01*
X82636645Y-62151068D01*
X82731883Y-62198687D01*
X82779502Y-62246306D01*
X82827121Y-62341544D01*
X82827121Y-62579639D01*
X82779502Y-62674877D01*
X82731883Y-62722496D01*
X82636645Y-62770115D01*
X82350931Y-62770115D01*
X82255693Y-62722496D01*
X82208074Y-62674877D01*
D12*
%TO.C,IC2*%
X200990434Y-118821321D02*
X199720434Y-118821321D01*
X200869482Y-117490845D02*
X200929958Y-117551321D01*
X200990434Y-117732750D01*
X200990434Y-117853702D01*
X200929958Y-118035131D01*
X200809006Y-118156083D01*
X200688053Y-118216560D01*
X200446149Y-118277036D01*
X200264720Y-118277036D01*
X200022815Y-118216560D01*
X199901863Y-118156083D01*
X199780911Y-118035131D01*
X199720434Y-117853702D01*
X199720434Y-117732750D01*
X199780911Y-117551321D01*
X199841387Y-117490845D01*
X199841387Y-117007036D02*
X199780911Y-116946560D01*
X199720434Y-116825607D01*
X199720434Y-116523226D01*
X199780911Y-116402274D01*
X199841387Y-116341798D01*
X199962339Y-116281321D01*
X200083291Y-116281321D01*
X200264720Y-116341798D01*
X200990434Y-117067512D01*
X200990434Y-116281321D01*
D10*
%TO.C,C2*%
X223439444Y-119970702D02*
X223391825Y-120018321D01*
X223248968Y-120065940D01*
X223153730Y-120065940D01*
X223010872Y-120018321D01*
X222915634Y-119923083D01*
X222868015Y-119827845D01*
X222820396Y-119637369D01*
X222820396Y-119494512D01*
X222868015Y-119304036D01*
X222915634Y-119208798D01*
X223010872Y-119113560D01*
X223153730Y-119065940D01*
X223248968Y-119065940D01*
X223391825Y-119113560D01*
X223439444Y-119161179D01*
X223820396Y-119161179D02*
X223868015Y-119113560D01*
X223963253Y-119065940D01*
X224201349Y-119065940D01*
X224296587Y-119113560D01*
X224344206Y-119161179D01*
X224391825Y-119256417D01*
X224391825Y-119351655D01*
X224344206Y-119494512D01*
X223772777Y-120065940D01*
X224391825Y-120065940D01*
D12*
%TO.C,J2*%
X146200777Y-76116123D02*
X146200777Y-77023266D01*
X146140301Y-77204695D01*
X146019349Y-77325647D01*
X145837920Y-77386123D01*
X145716968Y-77386123D01*
X146745063Y-76237076D02*
X146805539Y-76176600D01*
X146926491Y-76116123D01*
X147228872Y-76116123D01*
X147349825Y-76176600D01*
X147410301Y-76237076D01*
X147470777Y-76358028D01*
X147470777Y-76478980D01*
X147410301Y-76660409D01*
X146684587Y-77386123D01*
X147470777Y-77386123D01*
D10*
%TO.C,A1*%
X181241777Y-90530845D02*
X181241777Y-90054655D01*
X181527491Y-90626083D02*
X180527491Y-90292750D01*
X181527491Y-89959417D01*
X181527491Y-89102274D02*
X181527491Y-89673702D01*
X181527491Y-89387988D02*
X180527491Y-89387988D01*
X180670349Y-89483226D01*
X180765587Y-89578464D01*
X180813206Y-89673702D01*
D12*
%TO.C,SW1*%
X154836777Y-122001847D02*
X155018206Y-122062323D01*
X155320587Y-122062323D01*
X155441539Y-122001847D01*
X155502015Y-121941371D01*
X155562491Y-121820419D01*
X155562491Y-121699466D01*
X155502015Y-121578514D01*
X155441539Y-121518038D01*
X155320587Y-121457561D01*
X155078682Y-121397085D01*
X154957730Y-121336609D01*
X154897253Y-121276133D01*
X154836777Y-121155180D01*
X154836777Y-121034228D01*
X154897253Y-120913276D01*
X154957730Y-120852800D01*
X155078682Y-120792323D01*
X155381063Y-120792323D01*
X155562491Y-120852800D01*
X155985825Y-120792323D02*
X156288206Y-122062323D01*
X156530111Y-121155180D01*
X156772015Y-122062323D01*
X157074396Y-120792323D01*
X158223444Y-122062323D02*
X157497730Y-122062323D01*
X157860587Y-122062323D02*
X157860587Y-120792323D01*
X157739634Y-120973752D01*
X157618682Y-121094704D01*
X157497730Y-121155180D01*
D10*
%TO.C,Q1*%
X144771730Y-93058838D02*
X144724111Y-93154076D01*
X144628872Y-93249314D01*
X144486015Y-93392171D01*
X144438396Y-93487409D01*
X144438396Y-93582647D01*
X144676491Y-93535028D02*
X144628872Y-93630266D01*
X144533634Y-93725504D01*
X144343158Y-93773123D01*
X144009825Y-93773123D01*
X143819349Y-93725504D01*
X143724111Y-93630266D01*
X143676491Y-93535028D01*
X143676491Y-93344552D01*
X143724111Y-93249314D01*
X143819349Y-93154076D01*
X144009825Y-93106457D01*
X144343158Y-93106457D01*
X144533634Y-93154076D01*
X144628872Y-93249314D01*
X144676491Y-93344552D01*
X144676491Y-93535028D01*
X144676491Y-92154076D02*
X144676491Y-92725504D01*
X144676491Y-92439790D02*
X143676491Y-92439790D01*
X143819349Y-92535028D01*
X143914587Y-92630266D01*
X143962206Y-92725504D01*
%TO.C,U10*%
X158216915Y-98816780D02*
X158216915Y-99626304D01*
X158264534Y-99721542D01*
X158312153Y-99769161D01*
X158407391Y-99816780D01*
X158597868Y-99816780D01*
X158693106Y-99769161D01*
X158740725Y-99721542D01*
X158788344Y-99626304D01*
X158788344Y-98816780D01*
X159788344Y-99816780D02*
X159216915Y-99816780D01*
X159502630Y-99816780D02*
X159502630Y-98816780D01*
X159407391Y-98959638D01*
X159312153Y-99054876D01*
X159216915Y-99102495D01*
X160407391Y-98816780D02*
X160502630Y-98816780D01*
X160597868Y-98864400D01*
X160645487Y-98912019D01*
X160693106Y-99007257D01*
X160740725Y-99197733D01*
X160740725Y-99435828D01*
X160693106Y-99626304D01*
X160645487Y-99721542D01*
X160597868Y-99769161D01*
X160502630Y-99816780D01*
X160407391Y-99816780D01*
X160312153Y-99769161D01*
X160264534Y-99721542D01*
X160216915Y-99626304D01*
X160169296Y-99435828D01*
X160169296Y-99197733D01*
X160216915Y-99007257D01*
X160264534Y-98912019D01*
X160312153Y-98864400D01*
X160407391Y-98816780D01*
%TO.C,J3*%
X167026491Y-54844893D02*
X167740777Y-54844893D01*
X167883634Y-54892512D01*
X167978872Y-54987750D01*
X168026491Y-55130607D01*
X168026491Y-55225845D01*
X167026491Y-54463940D02*
X167026491Y-53844893D01*
X167407444Y-54178226D01*
X167407444Y-54035369D01*
X167455063Y-53940131D01*
X167502682Y-53892512D01*
X167597920Y-53844893D01*
X167836015Y-53844893D01*
X167931253Y-53892512D01*
X167978872Y-53940131D01*
X168026491Y-54035369D01*
X168026491Y-54321083D01*
X167978872Y-54416321D01*
X167931253Y-54463940D01*
D12*
%TO.C,J2*%
X205656777Y-74064083D02*
X205656777Y-74971226D01*
X205596301Y-75152655D01*
X205475349Y-75273607D01*
X205293920Y-75334083D01*
X205172968Y-75334083D01*
X206201063Y-74185036D02*
X206261539Y-74124560D01*
X206382491Y-74064083D01*
X206684872Y-74064083D01*
X206805825Y-74124560D01*
X206866301Y-74185036D01*
X206926777Y-74305988D01*
X206926777Y-74426940D01*
X206866301Y-74608369D01*
X206140587Y-75334083D01*
X206926777Y-75334083D01*
D10*
%TO.C,R4*%
X205642330Y-97705165D02*
X205166140Y-98038499D01*
X205642330Y-98276594D02*
X204642330Y-98276594D01*
X204642330Y-97895641D01*
X204689950Y-97800403D01*
X204737569Y-97752784D01*
X204832807Y-97705165D01*
X204975664Y-97705165D01*
X205070902Y-97752784D01*
X205118521Y-97800403D01*
X205166140Y-97895641D01*
X205166140Y-98276594D01*
X204975664Y-96848022D02*
X205642330Y-96848022D01*
X204594711Y-97086118D02*
X205308997Y-97324213D01*
X205308997Y-96705165D01*
%TO.C,J2*%
X90850835Y-106161068D02*
X91565121Y-106161068D01*
X91707978Y-106208687D01*
X91803216Y-106303925D01*
X91850835Y-106446782D01*
X91850835Y-106542020D01*
X90946074Y-105732496D02*
X90898455Y-105684877D01*
X90850835Y-105589639D01*
X90850835Y-105351544D01*
X90898455Y-105256306D01*
X90946074Y-105208687D01*
X91041312Y-105161068D01*
X91136550Y-105161068D01*
X91279407Y-105208687D01*
X91850835Y-105780115D01*
X91850835Y-105161068D01*
%TO.C,R3*%
X198286444Y-137717940D02*
X197953111Y-137241750D01*
X197715015Y-137717940D02*
X197715015Y-136717940D01*
X198095968Y-136717940D01*
X198191206Y-136765560D01*
X198238825Y-136813179D01*
X198286444Y-136908417D01*
X198286444Y-137051274D01*
X198238825Y-137146512D01*
X198191206Y-137194131D01*
X198095968Y-137241750D01*
X197715015Y-137241750D01*
X198619777Y-136717940D02*
X199238825Y-136717940D01*
X198905491Y-137098893D01*
X199048349Y-137098893D01*
X199143587Y-137146512D01*
X199191206Y-137194131D01*
X199238825Y-137289369D01*
X199238825Y-137527464D01*
X199191206Y-137622702D01*
X199143587Y-137670321D01*
X199048349Y-137717940D01*
X198762634Y-137717940D01*
X198667396Y-137670321D01*
X198619777Y-137622702D01*
%TO.C,J1*%
X161007777Y-57357940D02*
X161007777Y-58072226D01*
X160960158Y-58215083D01*
X160864920Y-58310321D01*
X160722063Y-58357940D01*
X160626825Y-58357940D01*
X162007777Y-58357940D02*
X161436349Y-58357940D01*
X161722063Y-58357940D02*
X161722063Y-57357940D01*
X161626825Y-57500798D01*
X161531587Y-57596036D01*
X161436349Y-57643655D01*
%TO.C,R4*%
X146186330Y-99757205D02*
X145710140Y-100090539D01*
X146186330Y-100328634D02*
X145186330Y-100328634D01*
X145186330Y-99947681D01*
X145233950Y-99852443D01*
X145281569Y-99804824D01*
X145376807Y-99757205D01*
X145519664Y-99757205D01*
X145614902Y-99804824D01*
X145662521Y-99852443D01*
X145710140Y-99947681D01*
X145710140Y-100328634D01*
X145519664Y-98900062D02*
X146186330Y-98900062D01*
X145138711Y-99138158D02*
X145852997Y-99376253D01*
X145852997Y-98757205D01*
%TO.C,J1*%
X85006835Y-68884068D02*
X85721121Y-68884068D01*
X85863978Y-68931687D01*
X85959216Y-69026925D01*
X86006835Y-69169782D01*
X86006835Y-69265020D01*
X86006835Y-67884068D02*
X86006835Y-68455496D01*
X86006835Y-68169782D02*
X85006835Y-68169782D01*
X85149693Y-68265020D01*
X85244931Y-68360258D01*
X85292550Y-68455496D01*
%TO.C,C2*%
X163983444Y-122022742D02*
X163935825Y-122070361D01*
X163792968Y-122117980D01*
X163697730Y-122117980D01*
X163554872Y-122070361D01*
X163459634Y-121975123D01*
X163412015Y-121879885D01*
X163364396Y-121689409D01*
X163364396Y-121546552D01*
X163412015Y-121356076D01*
X163459634Y-121260838D01*
X163554872Y-121165600D01*
X163697730Y-121117980D01*
X163792968Y-121117980D01*
X163935825Y-121165600D01*
X163983444Y-121213219D01*
X164364396Y-121213219D02*
X164412015Y-121165600D01*
X164507253Y-121117980D01*
X164745349Y-121117980D01*
X164840587Y-121165600D01*
X164888206Y-121213219D01*
X164935825Y-121308457D01*
X164935825Y-121403695D01*
X164888206Y-121546552D01*
X164316777Y-122117980D01*
X164935825Y-122117980D01*
%TO.C,C5*%
X128490053Y-115177466D02*
X128537672Y-115225085D01*
X128585291Y-115367942D01*
X128585291Y-115463180D01*
X128537672Y-115606038D01*
X128442434Y-115701276D01*
X128347196Y-115748895D01*
X128156720Y-115796514D01*
X128013863Y-115796514D01*
X127823387Y-115748895D01*
X127728149Y-115701276D01*
X127632911Y-115606038D01*
X127585291Y-115463180D01*
X127585291Y-115367942D01*
X127632911Y-115225085D01*
X127680530Y-115177466D01*
X127585291Y-114272704D02*
X127585291Y-114748895D01*
X128061482Y-114796514D01*
X128013863Y-114748895D01*
X127966244Y-114653657D01*
X127966244Y-114415561D01*
X128013863Y-114320323D01*
X128061482Y-114272704D01*
X128156720Y-114225085D01*
X128394815Y-114225085D01*
X128490053Y-114272704D01*
X128537672Y-114320323D01*
X128585291Y-114415561D01*
X128585291Y-114653657D01*
X128537672Y-114748895D01*
X128490053Y-114796514D01*
D12*
%TO.C,IC3*%
X140620034Y-81935161D02*
X139350034Y-81935161D01*
X140499082Y-80604685D02*
X140559558Y-80665161D01*
X140620034Y-80846590D01*
X140620034Y-80967542D01*
X140559558Y-81148971D01*
X140438606Y-81269923D01*
X140317653Y-81330400D01*
X140075749Y-81390876D01*
X139894320Y-81390876D01*
X139652415Y-81330400D01*
X139531463Y-81269923D01*
X139410511Y-81148971D01*
X139350034Y-80967542D01*
X139350034Y-80846590D01*
X139410511Y-80665161D01*
X139470987Y-80604685D01*
X139350034Y-80181352D02*
X139350034Y-79395161D01*
X139833844Y-79818495D01*
X139833844Y-79637066D01*
X139894320Y-79516114D01*
X139954796Y-79455638D01*
X140075749Y-79395161D01*
X140378130Y-79395161D01*
X140499082Y-79455638D01*
X140559558Y-79516114D01*
X140620034Y-79637066D01*
X140620034Y-79999923D01*
X140559558Y-80120876D01*
X140499082Y-80181352D01*
D10*
%TO.C,D4*%
X146448491Y-86081695D02*
X145448491Y-86081695D01*
X145448491Y-85843600D01*
X145496111Y-85700742D01*
X145591349Y-85605504D01*
X145686587Y-85557885D01*
X145877063Y-85510266D01*
X146019920Y-85510266D01*
X146210396Y-85557885D01*
X146305634Y-85605504D01*
X146400872Y-85700742D01*
X146448491Y-85843600D01*
X146448491Y-86081695D01*
X145781825Y-84653123D02*
X146448491Y-84653123D01*
X145400872Y-84891219D02*
X146115158Y-85129314D01*
X146115158Y-84510266D01*
X146028491Y-83065504D02*
X145028491Y-83065504D01*
X146028491Y-82494076D02*
X145457063Y-82922647D01*
X145028491Y-82494076D02*
X145599920Y-83065504D01*
%TO.C,C4*%
X202394753Y-102000226D02*
X202442372Y-102047845D01*
X202489991Y-102190702D01*
X202489991Y-102285940D01*
X202442372Y-102428798D01*
X202347134Y-102524036D01*
X202251896Y-102571655D01*
X202061420Y-102619274D01*
X201918563Y-102619274D01*
X201728087Y-102571655D01*
X201632849Y-102524036D01*
X201537611Y-102428798D01*
X201489991Y-102285940D01*
X201489991Y-102190702D01*
X201537611Y-102047845D01*
X201585230Y-102000226D01*
X201823325Y-101143083D02*
X202489991Y-101143083D01*
X201442372Y-101381179D02*
X202156658Y-101619274D01*
X202156658Y-101000226D01*
%TO.C,J5*%
X168784091Y-132362133D02*
X169498377Y-132362133D01*
X169641234Y-132409752D01*
X169736472Y-132504990D01*
X169784091Y-132647847D01*
X169784091Y-132743085D01*
X168784091Y-131409752D02*
X168784091Y-131885942D01*
X169260282Y-131933561D01*
X169212663Y-131885942D01*
X169165044Y-131790704D01*
X169165044Y-131552609D01*
X169212663Y-131457371D01*
X169260282Y-131409752D01*
X169355520Y-131362133D01*
X169593615Y-131362133D01*
X169688853Y-131409752D01*
X169736472Y-131457371D01*
X169784091Y-131552609D01*
X169784091Y-131790704D01*
X169736472Y-131885942D01*
X169688853Y-131933561D01*
%TO.C,J1*%
X151862777Y-102547980D02*
X151862777Y-103262266D01*
X151815158Y-103405123D01*
X151719920Y-103500361D01*
X151577063Y-103547980D01*
X151481825Y-103547980D01*
X152862777Y-103547980D02*
X152291349Y-103547980D01*
X152577063Y-103547980D02*
X152577063Y-102547980D01*
X152481825Y-102690838D01*
X152386587Y-102786076D01*
X152291349Y-102833695D01*
X211318777Y-100495940D02*
X211318777Y-101210226D01*
X211271158Y-101353083D01*
X211175920Y-101448321D01*
X211033063Y-101495940D01*
X210937825Y-101495940D01*
X212318777Y-101495940D02*
X211747349Y-101495940D01*
X212033063Y-101495940D02*
X212033063Y-100495940D01*
X211937825Y-100638798D01*
X211842587Y-100734036D01*
X211747349Y-100781655D01*
%TO.C,Q2*%
X148530930Y-95243238D02*
X148483311Y-95338476D01*
X148388072Y-95433714D01*
X148245215Y-95576571D01*
X148197596Y-95671809D01*
X148197596Y-95767047D01*
X148435691Y-95719428D02*
X148388072Y-95814666D01*
X148292834Y-95909904D01*
X148102358Y-95957523D01*
X147769025Y-95957523D01*
X147578549Y-95909904D01*
X147483311Y-95814666D01*
X147435691Y-95719428D01*
X147435691Y-95528952D01*
X147483311Y-95433714D01*
X147578549Y-95338476D01*
X147769025Y-95290857D01*
X148102358Y-95290857D01*
X148292834Y-95338476D01*
X148388072Y-95433714D01*
X148435691Y-95528952D01*
X148435691Y-95719428D01*
X147530930Y-94909904D02*
X147483311Y-94862285D01*
X147435691Y-94767047D01*
X147435691Y-94528952D01*
X147483311Y-94433714D01*
X147530930Y-94386095D01*
X147626168Y-94338476D01*
X147721406Y-94338476D01*
X147864263Y-94386095D01*
X148435691Y-94957523D01*
X148435691Y-94338476D01*
%TO.C,C6*%
X185355253Y-76092226D02*
X185402872Y-76139845D01*
X185450491Y-76282702D01*
X185450491Y-76377940D01*
X185402872Y-76520798D01*
X185307634Y-76616036D01*
X185212396Y-76663655D01*
X185021920Y-76711274D01*
X184879063Y-76711274D01*
X184688587Y-76663655D01*
X184593349Y-76616036D01*
X184498111Y-76520798D01*
X184450491Y-76377940D01*
X184450491Y-76282702D01*
X184498111Y-76139845D01*
X184545730Y-76092226D01*
X184450491Y-75235083D02*
X184450491Y-75425560D01*
X184498111Y-75520798D01*
X184545730Y-75568417D01*
X184688587Y-75663655D01*
X184879063Y-75711274D01*
X185260015Y-75711274D01*
X185355253Y-75663655D01*
X185402872Y-75616036D01*
X185450491Y-75520798D01*
X185450491Y-75330321D01*
X185402872Y-75235083D01*
X185355253Y-75187464D01*
X185260015Y-75139845D01*
X185021920Y-75139845D01*
X184926682Y-75187464D01*
X184879063Y-75235083D01*
X184831444Y-75330321D01*
X184831444Y-75520798D01*
X184879063Y-75616036D01*
X184926682Y-75663655D01*
X185021920Y-75711274D01*
%TO.C,R7*%
X207524205Y-81893201D02*
X207190872Y-81417011D01*
X206952776Y-81893201D02*
X206952776Y-80893201D01*
X207333729Y-80893201D01*
X207428967Y-80940821D01*
X207476586Y-80988440D01*
X207524205Y-81083678D01*
X207524205Y-81226535D01*
X207476586Y-81321773D01*
X207428967Y-81369392D01*
X207333729Y-81417011D01*
X206952776Y-81417011D01*
X207857538Y-80893201D02*
X208524205Y-80893201D01*
X208095633Y-81893201D01*
%TO.C,J4*%
X120382777Y-136396980D02*
X120382777Y-137111266D01*
X120335158Y-137254123D01*
X120239920Y-137349361D01*
X120097063Y-137396980D01*
X120001825Y-137396980D01*
X121287539Y-136730314D02*
X121287539Y-137396980D01*
X121049444Y-136349361D02*
X120811349Y-137063647D01*
X121430396Y-137063647D01*
%TO.C,D3*%
X192905015Y-137717940D02*
X192905015Y-136717940D01*
X193143111Y-136717940D01*
X193285968Y-136765560D01*
X193381206Y-136860798D01*
X193428825Y-136956036D01*
X193476444Y-137146512D01*
X193476444Y-137289369D01*
X193428825Y-137479845D01*
X193381206Y-137575083D01*
X193285968Y-137670321D01*
X193143111Y-137717940D01*
X192905015Y-137717940D01*
X193809777Y-136717940D02*
X194428825Y-136717940D01*
X194095491Y-137098893D01*
X194238349Y-137098893D01*
X194333587Y-137146512D01*
X194381206Y-137194131D01*
X194428825Y-137289369D01*
X194428825Y-137527464D01*
X194381206Y-137622702D01*
X194333587Y-137670321D01*
X194238349Y-137717940D01*
X193952634Y-137717940D01*
X193857396Y-137670321D01*
X193809777Y-137622702D01*
%TO.C,R2*%
X138830444Y-135959980D02*
X138497111Y-135483790D01*
X138259015Y-135959980D02*
X138259015Y-134959980D01*
X138639968Y-134959980D01*
X138735206Y-135007600D01*
X138782825Y-135055219D01*
X138830444Y-135150457D01*
X138830444Y-135293314D01*
X138782825Y-135388552D01*
X138735206Y-135436171D01*
X138639968Y-135483790D01*
X138259015Y-135483790D01*
X139211396Y-135055219D02*
X139259015Y-135007600D01*
X139354253Y-134959980D01*
X139592349Y-134959980D01*
X139687587Y-135007600D01*
X139735206Y-135055219D01*
X139782825Y-135150457D01*
X139782825Y-135245695D01*
X139735206Y-135388552D01*
X139163777Y-135959980D01*
X139782825Y-135959980D01*
%TO.C,C3*%
X225217444Y-123780702D02*
X225169825Y-123828321D01*
X225026968Y-123875940D01*
X224931730Y-123875940D01*
X224788872Y-123828321D01*
X224693634Y-123733083D01*
X224646015Y-123637845D01*
X224598396Y-123447369D01*
X224598396Y-123304512D01*
X224646015Y-123114036D01*
X224693634Y-123018798D01*
X224788872Y-122923560D01*
X224931730Y-122875940D01*
X225026968Y-122875940D01*
X225169825Y-122923560D01*
X225217444Y-122971179D01*
X225550777Y-122875940D02*
X226169825Y-122875940D01*
X225836491Y-123256893D01*
X225979349Y-123256893D01*
X226074587Y-123304512D01*
X226122206Y-123352131D01*
X226169825Y-123447369D01*
X226169825Y-123685464D01*
X226122206Y-123780702D01*
X226074587Y-123828321D01*
X225979349Y-123875940D01*
X225693634Y-123875940D01*
X225598396Y-123828321D01*
X225550777Y-123780702D01*
%TO.C,R7*%
X148068205Y-83945241D02*
X147734872Y-83469051D01*
X147496776Y-83945241D02*
X147496776Y-82945241D01*
X147877729Y-82945241D01*
X147972967Y-82992861D01*
X148020586Y-83040480D01*
X148068205Y-83135718D01*
X148068205Y-83278575D01*
X148020586Y-83373813D01*
X147972967Y-83421432D01*
X147877729Y-83469051D01*
X147496776Y-83469051D01*
X148401538Y-82945241D02*
X149068205Y-82945241D01*
X148639633Y-83945241D01*
D12*
%TO.C,IC3*%
X200076034Y-79883121D02*
X198806034Y-79883121D01*
X199955082Y-78552645D02*
X200015558Y-78613121D01*
X200076034Y-78794550D01*
X200076034Y-78915502D01*
X200015558Y-79096931D01*
X199894606Y-79217883D01*
X199773653Y-79278360D01*
X199531749Y-79338836D01*
X199350320Y-79338836D01*
X199108415Y-79278360D01*
X198987463Y-79217883D01*
X198866511Y-79096931D01*
X198806034Y-78915502D01*
X198806034Y-78794550D01*
X198866511Y-78613121D01*
X198926987Y-78552645D01*
X198806034Y-78129312D02*
X198806034Y-77343121D01*
X199289844Y-77766455D01*
X199289844Y-77585026D01*
X199350320Y-77464074D01*
X199410796Y-77403598D01*
X199531749Y-77343121D01*
X199834130Y-77343121D01*
X199955082Y-77403598D01*
X200015558Y-77464074D01*
X200076034Y-77585026D01*
X200076034Y-77947883D01*
X200015558Y-78068836D01*
X199955082Y-78129312D01*
D10*
%TO.C,D2*%
X192905015Y-133907940D02*
X192905015Y-132907940D01*
X193143111Y-132907940D01*
X193285968Y-132955560D01*
X193381206Y-133050798D01*
X193428825Y-133146036D01*
X193476444Y-133336512D01*
X193476444Y-133479369D01*
X193428825Y-133669845D01*
X193381206Y-133765083D01*
X193285968Y-133860321D01*
X193143111Y-133907940D01*
X192905015Y-133907940D01*
X193857396Y-133003179D02*
X193905015Y-132955560D01*
X194000253Y-132907940D01*
X194238349Y-132907940D01*
X194333587Y-132955560D01*
X194381206Y-133003179D01*
X194428825Y-133098417D01*
X194428825Y-133193655D01*
X194381206Y-133336512D01*
X193809777Y-133907940D01*
X194428825Y-133907940D01*
%TO.C,J3*%
X223066345Y-55153873D02*
X223780631Y-55153873D01*
X223923488Y-55201492D01*
X224018726Y-55296730D01*
X224066345Y-55439587D01*
X224066345Y-55534825D01*
X223066345Y-54772920D02*
X223066345Y-54153873D01*
X223447298Y-54487206D01*
X223447298Y-54344349D01*
X223494917Y-54249111D01*
X223542536Y-54201492D01*
X223637774Y-54153873D01*
X223875869Y-54153873D01*
X223971107Y-54201492D01*
X224018726Y-54249111D01*
X224066345Y-54344349D01*
X224066345Y-54630063D01*
X224018726Y-54725301D01*
X223971107Y-54772920D01*
%TO.C,JP1*%
X209342491Y-86918893D02*
X210056777Y-86918893D01*
X210199634Y-86966512D01*
X210294872Y-87061750D01*
X210342491Y-87204607D01*
X210342491Y-87299845D01*
X210342491Y-86442702D02*
X209342491Y-86442702D01*
X209342491Y-86061750D01*
X209390111Y-85966512D01*
X209437730Y-85918893D01*
X209532968Y-85871274D01*
X209675825Y-85871274D01*
X209771063Y-85918893D01*
X209818682Y-85966512D01*
X209866301Y-86061750D01*
X209866301Y-86442702D01*
X210342491Y-84918893D02*
X210342491Y-85490321D01*
X210342491Y-85204607D02*
X209342491Y-85204607D01*
X209485349Y-85299845D01*
X209580587Y-85395083D01*
X209628206Y-85490321D01*
%TO.C,R2*%
X198286444Y-133907940D02*
X197953111Y-133431750D01*
X197715015Y-133907940D02*
X197715015Y-132907940D01*
X198095968Y-132907940D01*
X198191206Y-132955560D01*
X198238825Y-133003179D01*
X198286444Y-133098417D01*
X198286444Y-133241274D01*
X198238825Y-133336512D01*
X198191206Y-133384131D01*
X198095968Y-133431750D01*
X197715015Y-133431750D01*
X198667396Y-133003179D02*
X198715015Y-132955560D01*
X198810253Y-132907940D01*
X199048349Y-132907940D01*
X199143587Y-132955560D01*
X199191206Y-133003179D01*
X199238825Y-133098417D01*
X199238825Y-133193655D01*
X199191206Y-133336512D01*
X198619777Y-133907940D01*
X199238825Y-133907940D01*
%TO.C,C5*%
X187946053Y-113125426D02*
X187993672Y-113173045D01*
X188041291Y-113315902D01*
X188041291Y-113411140D01*
X187993672Y-113553998D01*
X187898434Y-113649236D01*
X187803196Y-113696855D01*
X187612720Y-113744474D01*
X187469863Y-113744474D01*
X187279387Y-113696855D01*
X187184149Y-113649236D01*
X187088911Y-113553998D01*
X187041291Y-113411140D01*
X187041291Y-113315902D01*
X187088911Y-113173045D01*
X187136530Y-113125426D01*
X187041291Y-112220664D02*
X187041291Y-112696855D01*
X187517482Y-112744474D01*
X187469863Y-112696855D01*
X187422244Y-112601617D01*
X187422244Y-112363521D01*
X187469863Y-112268283D01*
X187517482Y-112220664D01*
X187612720Y-112173045D01*
X187850815Y-112173045D01*
X187946053Y-112220664D01*
X187993672Y-112268283D01*
X188041291Y-112363521D01*
X188041291Y-112601617D01*
X187993672Y-112696855D01*
X187946053Y-112744474D01*
%TO.C,D3*%
X133449015Y-139769980D02*
X133449015Y-138769980D01*
X133687111Y-138769980D01*
X133829968Y-138817600D01*
X133925206Y-138912838D01*
X133972825Y-139008076D01*
X134020444Y-139198552D01*
X134020444Y-139341409D01*
X133972825Y-139531885D01*
X133925206Y-139627123D01*
X133829968Y-139722361D01*
X133687111Y-139769980D01*
X133449015Y-139769980D01*
X134353777Y-138769980D02*
X134972825Y-138769980D01*
X134639491Y-139150933D01*
X134782349Y-139150933D01*
X134877587Y-139198552D01*
X134925206Y-139246171D01*
X134972825Y-139341409D01*
X134972825Y-139579504D01*
X134925206Y-139674742D01*
X134877587Y-139722361D01*
X134782349Y-139769980D01*
X134496634Y-139769980D01*
X134401396Y-139722361D01*
X134353777Y-139674742D01*
D12*
%TO.C,SW1*%
X214292777Y-119949807D02*
X214474206Y-120010283D01*
X214776587Y-120010283D01*
X214897539Y-119949807D01*
X214958015Y-119889331D01*
X215018491Y-119768379D01*
X215018491Y-119647426D01*
X214958015Y-119526474D01*
X214897539Y-119465998D01*
X214776587Y-119405521D01*
X214534682Y-119345045D01*
X214413730Y-119284569D01*
X214353253Y-119224093D01*
X214292777Y-119103140D01*
X214292777Y-118982188D01*
X214353253Y-118861236D01*
X214413730Y-118800760D01*
X214534682Y-118740283D01*
X214837063Y-118740283D01*
X215018491Y-118800760D01*
X215441825Y-118740283D02*
X215744206Y-120010283D01*
X215986111Y-119103140D01*
X216228015Y-120010283D01*
X216530396Y-118740283D01*
X217679444Y-120010283D02*
X216953730Y-120010283D01*
X217316587Y-120010283D02*
X217316587Y-118740283D01*
X217195634Y-118921712D01*
X217074682Y-119042664D01*
X216953730Y-119103140D01*
D10*
%TO.C,C9*%
X226731853Y-86256126D02*
X226779472Y-86303745D01*
X226827091Y-86446602D01*
X226827091Y-86541840D01*
X226779472Y-86684698D01*
X226684234Y-86779936D01*
X226588996Y-86827555D01*
X226398520Y-86875174D01*
X226255663Y-86875174D01*
X226065187Y-86827555D01*
X225969949Y-86779936D01*
X225874711Y-86684698D01*
X225827091Y-86541840D01*
X225827091Y-86446602D01*
X225874711Y-86303745D01*
X225922330Y-86256126D01*
X226827091Y-85779936D02*
X226827091Y-85589460D01*
X226779472Y-85494221D01*
X226731853Y-85446602D01*
X226588996Y-85351364D01*
X226398520Y-85303745D01*
X226017568Y-85303745D01*
X225922330Y-85351364D01*
X225874711Y-85398983D01*
X225827091Y-85494221D01*
X225827091Y-85684698D01*
X225874711Y-85779936D01*
X225922330Y-85827555D01*
X226017568Y-85875174D01*
X226255663Y-85875174D01*
X226350901Y-85827555D01*
X226398520Y-85779936D01*
X226446139Y-85684698D01*
X226446139Y-85494221D01*
X226398520Y-85398983D01*
X226350901Y-85351364D01*
X226255663Y-85303745D01*
%TO.C,U10*%
X217672915Y-96764740D02*
X217672915Y-97574264D01*
X217720534Y-97669502D01*
X217768153Y-97717121D01*
X217863391Y-97764740D01*
X218053868Y-97764740D01*
X218149106Y-97717121D01*
X218196725Y-97669502D01*
X218244344Y-97574264D01*
X218244344Y-96764740D01*
X219244344Y-97764740D02*
X218672915Y-97764740D01*
X218958630Y-97764740D02*
X218958630Y-96764740D01*
X218863391Y-96907598D01*
X218768153Y-97002836D01*
X218672915Y-97050455D01*
X219863391Y-96764740D02*
X219958630Y-96764740D01*
X220053868Y-96812360D01*
X220101487Y-96859979D01*
X220149106Y-96955217D01*
X220196725Y-97145693D01*
X220196725Y-97383788D01*
X220149106Y-97574264D01*
X220101487Y-97669502D01*
X220053868Y-97717121D01*
X219958630Y-97764740D01*
X219863391Y-97764740D01*
X219768153Y-97717121D01*
X219720534Y-97669502D01*
X219672915Y-97574264D01*
X219625296Y-97383788D01*
X219625296Y-97145693D01*
X219672915Y-96955217D01*
X219720534Y-96859979D01*
X219768153Y-96812360D01*
X219863391Y-96764740D01*
%TO.C,C6*%
X125899253Y-78144266D02*
X125946872Y-78191885D01*
X125994491Y-78334742D01*
X125994491Y-78429980D01*
X125946872Y-78572838D01*
X125851634Y-78668076D01*
X125756396Y-78715695D01*
X125565920Y-78763314D01*
X125423063Y-78763314D01*
X125232587Y-78715695D01*
X125137349Y-78668076D01*
X125042111Y-78572838D01*
X124994491Y-78429980D01*
X124994491Y-78334742D01*
X125042111Y-78191885D01*
X125089730Y-78144266D01*
X124994491Y-77287123D02*
X124994491Y-77477600D01*
X125042111Y-77572838D01*
X125089730Y-77620457D01*
X125232587Y-77715695D01*
X125423063Y-77763314D01*
X125804015Y-77763314D01*
X125899253Y-77715695D01*
X125946872Y-77668076D01*
X125994491Y-77572838D01*
X125994491Y-77382361D01*
X125946872Y-77287123D01*
X125899253Y-77239504D01*
X125804015Y-77191885D01*
X125565920Y-77191885D01*
X125470682Y-77239504D01*
X125423063Y-77287123D01*
X125375444Y-77382361D01*
X125375444Y-77572838D01*
X125423063Y-77668076D01*
X125470682Y-77715695D01*
X125565920Y-77763314D01*
%TO.C,J4*%
X179838777Y-134344940D02*
X179838777Y-135059226D01*
X179791158Y-135202083D01*
X179695920Y-135297321D01*
X179553063Y-135344940D01*
X179457825Y-135344940D01*
X180743539Y-134678274D02*
X180743539Y-135344940D01*
X180505444Y-134297321D02*
X180267349Y-135011607D01*
X180886396Y-135011607D01*
%TO.C,C3*%
X165761444Y-125832742D02*
X165713825Y-125880361D01*
X165570968Y-125927980D01*
X165475730Y-125927980D01*
X165332872Y-125880361D01*
X165237634Y-125785123D01*
X165190015Y-125689885D01*
X165142396Y-125499409D01*
X165142396Y-125356552D01*
X165190015Y-125166076D01*
X165237634Y-125070838D01*
X165332872Y-124975600D01*
X165475730Y-124927980D01*
X165570968Y-124927980D01*
X165713825Y-124975600D01*
X165761444Y-125023219D01*
X166094777Y-124927980D02*
X166713825Y-124927980D01*
X166380491Y-125308933D01*
X166523349Y-125308933D01*
X166618587Y-125356552D01*
X166666206Y-125404171D01*
X166713825Y-125499409D01*
X166713825Y-125737504D01*
X166666206Y-125832742D01*
X166618587Y-125880361D01*
X166523349Y-125927980D01*
X166237634Y-125927980D01*
X166142396Y-125880361D01*
X166094777Y-125832742D01*
%TO.C,JP1*%
X149886491Y-88970933D02*
X150600777Y-88970933D01*
X150743634Y-89018552D01*
X150838872Y-89113790D01*
X150886491Y-89256647D01*
X150886491Y-89351885D01*
X150886491Y-88494742D02*
X149886491Y-88494742D01*
X149886491Y-88113790D01*
X149934111Y-88018552D01*
X149981730Y-87970933D01*
X150076968Y-87923314D01*
X150219825Y-87923314D01*
X150315063Y-87970933D01*
X150362682Y-88018552D01*
X150410301Y-88113790D01*
X150410301Y-88494742D01*
X150886491Y-86970933D02*
X150886491Y-87542361D01*
X150886491Y-87256647D02*
X149886491Y-87256647D01*
X150029349Y-87351885D01*
X150124587Y-87447123D01*
X150172206Y-87542361D01*
%TO.C,J2*%
X179770631Y-63510920D02*
X179770631Y-64225206D01*
X179723012Y-64368063D01*
X179627774Y-64463301D01*
X179484917Y-64510920D01*
X179389679Y-64510920D01*
X180199203Y-63606159D02*
X180246822Y-63558540D01*
X180342060Y-63510920D01*
X180580155Y-63510920D01*
X180675393Y-63558540D01*
X180723012Y-63606159D01*
X180770631Y-63701397D01*
X180770631Y-63796635D01*
X180723012Y-63939492D01*
X180151584Y-64510920D01*
X180770631Y-64510920D01*
%TO.C,C7*%
X154146744Y-125919642D02*
X154099125Y-125967261D01*
X153956268Y-126014880D01*
X153861030Y-126014880D01*
X153718172Y-125967261D01*
X153622934Y-125872023D01*
X153575315Y-125776785D01*
X153527696Y-125586309D01*
X153527696Y-125443452D01*
X153575315Y-125252976D01*
X153622934Y-125157738D01*
X153718172Y-125062500D01*
X153861030Y-125014880D01*
X153956268Y-125014880D01*
X154099125Y-125062500D01*
X154146744Y-125110119D01*
X154480077Y-125014880D02*
X155146744Y-125014880D01*
X154718172Y-126014880D01*
D12*
%TO.C,IC1*%
X128898734Y-99304861D02*
X127628734Y-99304861D01*
X128777782Y-97974385D02*
X128838258Y-98034861D01*
X128898734Y-98216290D01*
X128898734Y-98337242D01*
X128838258Y-98518671D01*
X128717306Y-98639623D01*
X128596353Y-98700100D01*
X128354449Y-98760576D01*
X128173020Y-98760576D01*
X127931115Y-98700100D01*
X127810163Y-98639623D01*
X127689211Y-98518671D01*
X127628734Y-98337242D01*
X127628734Y-98216290D01*
X127689211Y-98034861D01*
X127749687Y-97974385D01*
X128898734Y-96764861D02*
X128898734Y-97490576D01*
X128898734Y-97127719D02*
X127628734Y-97127719D01*
X127810163Y-97248671D01*
X127931115Y-97369623D01*
X127991591Y-97490576D01*
%TO.C,IC5*%
X215685610Y-85819144D02*
X215685610Y-84549144D01*
X217016086Y-85698192D02*
X216955610Y-85758668D01*
X216774181Y-85819144D01*
X216653229Y-85819144D01*
X216471800Y-85758668D01*
X216350848Y-85637716D01*
X216290372Y-85516763D01*
X216229895Y-85274859D01*
X216229895Y-85093430D01*
X216290372Y-84851525D01*
X216350848Y-84730573D01*
X216471800Y-84609621D01*
X216653229Y-84549144D01*
X216774181Y-84549144D01*
X216955610Y-84609621D01*
X217016086Y-84670097D01*
X218165133Y-84549144D02*
X217560372Y-84549144D01*
X217499895Y-85153906D01*
X217560372Y-85093430D01*
X217681324Y-85032954D01*
X217983705Y-85032954D01*
X218104657Y-85093430D01*
X218165133Y-85153906D01*
X218225610Y-85274859D01*
X218225610Y-85577240D01*
X218165133Y-85698192D01*
X218104657Y-85758668D01*
X217983705Y-85819144D01*
X217681324Y-85819144D01*
X217560372Y-85758668D01*
X217499895Y-85698192D01*
D10*
%TO.C,A1*%
X121785777Y-92582885D02*
X121785777Y-92106695D01*
X122071491Y-92678123D02*
X121071491Y-92344790D01*
X122071491Y-92011457D01*
X122071491Y-91154314D02*
X122071491Y-91725742D01*
X122071491Y-91440028D02*
X121071491Y-91440028D01*
X121214349Y-91535266D01*
X121309587Y-91630504D01*
X121357206Y-91725742D01*
%TO.C,C9*%
X167275853Y-88308166D02*
X167323472Y-88355785D01*
X167371091Y-88498642D01*
X167371091Y-88593880D01*
X167323472Y-88736738D01*
X167228234Y-88831976D01*
X167132996Y-88879595D01*
X166942520Y-88927214D01*
X166799663Y-88927214D01*
X166609187Y-88879595D01*
X166513949Y-88831976D01*
X166418711Y-88736738D01*
X166371091Y-88593880D01*
X166371091Y-88498642D01*
X166418711Y-88355785D01*
X166466330Y-88308166D01*
X167371091Y-87831976D02*
X167371091Y-87641500D01*
X167323472Y-87546261D01*
X167275853Y-87498642D01*
X167132996Y-87403404D01*
X166942520Y-87355785D01*
X166561568Y-87355785D01*
X166466330Y-87403404D01*
X166418711Y-87451023D01*
X166371091Y-87546261D01*
X166371091Y-87736738D01*
X166418711Y-87831976D01*
X166466330Y-87879595D01*
X166561568Y-87927214D01*
X166799663Y-87927214D01*
X166894901Y-87879595D01*
X166942520Y-87831976D01*
X166990139Y-87736738D01*
X166990139Y-87546261D01*
X166942520Y-87451023D01*
X166894901Y-87403404D01*
X166799663Y-87355785D01*
%TO.C,C8*%
X164258944Y-90116742D02*
X164211325Y-90164361D01*
X164068468Y-90211980D01*
X163973230Y-90211980D01*
X163830372Y-90164361D01*
X163735134Y-90069123D01*
X163687515Y-89973885D01*
X163639896Y-89783409D01*
X163639896Y-89640552D01*
X163687515Y-89450076D01*
X163735134Y-89354838D01*
X163830372Y-89259600D01*
X163973230Y-89211980D01*
X164068468Y-89211980D01*
X164211325Y-89259600D01*
X164258944Y-89307219D01*
X164830372Y-89640552D02*
X164735134Y-89592933D01*
X164687515Y-89545314D01*
X164639896Y-89450076D01*
X164639896Y-89402457D01*
X164687515Y-89307219D01*
X164735134Y-89259600D01*
X164830372Y-89211980D01*
X165020849Y-89211980D01*
X165116087Y-89259600D01*
X165163706Y-89307219D01*
X165211325Y-89402457D01*
X165211325Y-89450076D01*
X165163706Y-89545314D01*
X165116087Y-89592933D01*
X165020849Y-89640552D01*
X164830372Y-89640552D01*
X164735134Y-89688171D01*
X164687515Y-89735790D01*
X164639896Y-89831028D01*
X164639896Y-90021504D01*
X164687515Y-90116742D01*
X164735134Y-90164361D01*
X164830372Y-90211980D01*
X165020849Y-90211980D01*
X165116087Y-90164361D01*
X165163706Y-90116742D01*
X165211325Y-90021504D01*
X165211325Y-89831028D01*
X165163706Y-89735790D01*
X165116087Y-89688171D01*
X165020849Y-89640552D01*
%TO.C,C1*%
X219077444Y-71844702D02*
X219029825Y-71892321D01*
X218886968Y-71939940D01*
X218791730Y-71939940D01*
X218648872Y-71892321D01*
X218553634Y-71797083D01*
X218506015Y-71701845D01*
X218458396Y-71511369D01*
X218458396Y-71368512D01*
X218506015Y-71178036D01*
X218553634Y-71082798D01*
X218648872Y-70987560D01*
X218791730Y-70939940D01*
X218886968Y-70939940D01*
X219029825Y-70987560D01*
X219077444Y-71035179D01*
X220029825Y-71939940D02*
X219458396Y-71939940D01*
X219744111Y-71939940D02*
X219744111Y-70939940D01*
X219648872Y-71082798D01*
X219553634Y-71178036D01*
X219458396Y-71225655D01*
%TO.C,R5*%
X209301091Y-97451165D02*
X208824901Y-97784499D01*
X209301091Y-98022594D02*
X208301091Y-98022594D01*
X208301091Y-97641641D01*
X208348711Y-97546403D01*
X208396330Y-97498784D01*
X208491568Y-97451165D01*
X208634425Y-97451165D01*
X208729663Y-97498784D01*
X208777282Y-97546403D01*
X208824901Y-97641641D01*
X208824901Y-98022594D01*
X208301091Y-96546403D02*
X208301091Y-97022594D01*
X208777282Y-97070213D01*
X208729663Y-97022594D01*
X208682044Y-96927356D01*
X208682044Y-96689260D01*
X208729663Y-96594022D01*
X208777282Y-96546403D01*
X208872520Y-96498784D01*
X209110615Y-96498784D01*
X209205853Y-96546403D01*
X209253472Y-96594022D01*
X209301091Y-96689260D01*
X209301091Y-96927356D01*
X209253472Y-97022594D01*
X209205853Y-97070213D01*
%TO.C,R6*%
X214245805Y-90756801D02*
X213912472Y-90280611D01*
X213674376Y-90756801D02*
X213674376Y-89756801D01*
X214055329Y-89756801D01*
X214150567Y-89804421D01*
X214198186Y-89852040D01*
X214245805Y-89947278D01*
X214245805Y-90090135D01*
X214198186Y-90185373D01*
X214150567Y-90232992D01*
X214055329Y-90280611D01*
X213674376Y-90280611D01*
X215102948Y-89756801D02*
X214912472Y-89756801D01*
X214817233Y-89804421D01*
X214769614Y-89852040D01*
X214674376Y-89994897D01*
X214626757Y-90185373D01*
X214626757Y-90566325D01*
X214674376Y-90661563D01*
X214721995Y-90709182D01*
X214817233Y-90756801D01*
X215007710Y-90756801D01*
X215102948Y-90709182D01*
X215150567Y-90661563D01*
X215198186Y-90566325D01*
X215198186Y-90328230D01*
X215150567Y-90232992D01*
X215102948Y-90185373D01*
X215007710Y-90137754D01*
X214817233Y-90137754D01*
X214721995Y-90185373D01*
X214674376Y-90232992D01*
X214626757Y-90328230D01*
%TO.C,J3*%
X98910777Y-62553940D02*
X98910777Y-63268226D01*
X98863158Y-63411083D01*
X98767920Y-63506321D01*
X98625063Y-63553940D01*
X98529825Y-63553940D01*
X99291730Y-62553940D02*
X99910777Y-62553940D01*
X99577444Y-62934893D01*
X99720301Y-62934893D01*
X99815539Y-62982512D01*
X99863158Y-63030131D01*
X99910777Y-63125369D01*
X99910777Y-63363464D01*
X99863158Y-63458702D01*
X99815539Y-63506321D01*
X99720301Y-63553940D01*
X99434587Y-63553940D01*
X99339349Y-63506321D01*
X99291730Y-63458702D01*
%TO.C,D1*%
X192905015Y-130097940D02*
X192905015Y-129097940D01*
X193143111Y-129097940D01*
X193285968Y-129145560D01*
X193381206Y-129240798D01*
X193428825Y-129336036D01*
X193476444Y-129526512D01*
X193476444Y-129669369D01*
X193428825Y-129859845D01*
X193381206Y-129955083D01*
X193285968Y-130050321D01*
X193143111Y-130097940D01*
X192905015Y-130097940D01*
X194428825Y-130097940D02*
X193857396Y-130097940D01*
X194143111Y-130097940D02*
X194143111Y-129097940D01*
X194047872Y-129240798D01*
X193952634Y-129336036D01*
X193857396Y-129383655D01*
%TO.C,J7*%
X151334291Y-73332533D02*
X152048577Y-73332533D01*
X152191434Y-73380152D01*
X152286672Y-73475390D01*
X152334291Y-73618247D01*
X152334291Y-73713485D01*
X151334291Y-72951580D02*
X151334291Y-72284914D01*
X152334291Y-72713485D01*
D13*
%TO.C,R1*%
X139224175Y-130782600D02*
X138770047Y-130782600D01*
X139224175Y-129312600D02*
X138770047Y-129312600D01*
%TO.C,J5*%
X230286892Y-126725560D02*
G75*
G03*
X230286892Y-126725560I-1600781J0D01*
G01*
%TO.C,R1*%
X198680175Y-128730560D02*
X198226047Y-128730560D01*
X198680175Y-127260560D02*
X198226047Y-127260560D01*
D14*
%TO.C,IC4*%
X153812111Y-129278600D02*
X153812111Y-137928600D01*
X150612111Y-129278600D02*
X153812111Y-129278600D01*
X148712111Y-129118600D02*
X150262111Y-129118600D01*
X150612111Y-137928600D02*
X150612111Y-129278600D01*
X153812111Y-137928600D02*
X150612111Y-137928600D01*
D13*
%TO.C,J7*%
X213014892Y-73639560D02*
G75*
G03*
X213014892Y-73639560I-1600781J0D01*
G01*
%TO.C,Q2*%
X211399311Y-93095960D02*
X211399311Y-93745960D01*
X208279311Y-93095960D02*
X208279311Y-94770960D01*
X208279311Y-93095960D02*
X208279311Y-92445960D01*
X211399311Y-93095960D02*
X211399311Y-92445960D01*
%TO.C,J1*%
X109748111Y-71984560D02*
X109748111Y-66684560D01*
X104758111Y-72274560D02*
X108758111Y-72274560D01*
X109748111Y-70604560D02*
X108748111Y-70604560D01*
X109748111Y-70354560D02*
X108748111Y-70354560D01*
X104328111Y-67264560D02*
X103728111Y-67264560D01*
X104328111Y-71404560D02*
X104328111Y-69804560D01*
X103728111Y-71404560D02*
X104328111Y-71404560D01*
X108218111Y-70354560D02*
X108218111Y-68314560D01*
X108218111Y-68314560D02*
X108748111Y-68064560D01*
X104328111Y-68864560D02*
X104328111Y-67264560D01*
X103728111Y-68864560D02*
X104328111Y-68864560D01*
X103728111Y-66684560D02*
X103728111Y-71984560D01*
X108748111Y-70604560D02*
X108218111Y-70354560D01*
X109748111Y-66684560D02*
X103728111Y-66684560D01*
X109748111Y-68314560D02*
X108748111Y-68314560D01*
X108748111Y-68064560D02*
X109748111Y-68064560D01*
X103728111Y-71984560D02*
X109748111Y-71984560D01*
X104328111Y-69804560D02*
X103728111Y-69804560D01*
X108748111Y-70604560D02*
X108748111Y-68064560D01*
X218650965Y-64324540D02*
X218650965Y-65324540D01*
X219450965Y-59904540D02*
X219450965Y-59304540D01*
X214440965Y-60334540D02*
X214440965Y-64334540D01*
X218400965Y-65324540D02*
X218400965Y-64324540D01*
X214730965Y-59304540D02*
X214730965Y-65324540D01*
X216110965Y-64324540D02*
X218650965Y-64324540D01*
X216110965Y-65324540D02*
X216110965Y-64324540D01*
X216110965Y-64324540D02*
X216360965Y-63794540D01*
X217850965Y-59904540D02*
X219450965Y-59904540D01*
X218400965Y-63794540D02*
X218650965Y-64324540D01*
X220030965Y-59304540D02*
X214730965Y-59304540D01*
X216910965Y-59904540D02*
X216910965Y-59304540D01*
X216360965Y-63794540D02*
X218400965Y-63794540D01*
X215310965Y-59304540D02*
X215310965Y-59904540D01*
X214730965Y-65324540D02*
X220030965Y-65324540D01*
X216360965Y-65324540D02*
X216360965Y-64324540D01*
X215310965Y-59904540D02*
X216910965Y-59904540D01*
X217850965Y-59304540D02*
X217850965Y-59904540D01*
X220030965Y-65324540D02*
X220030965Y-59304540D01*
%TO.C,D4*%
X204452111Y-82291560D02*
X201612111Y-82291560D01*
X204272111Y-81571560D02*
X204452111Y-81571560D01*
X204452111Y-85011560D02*
X204272111Y-85011560D01*
X204452111Y-81571560D02*
X204452111Y-85011560D01*
X201792111Y-81571560D02*
X201612111Y-81571560D01*
X201612111Y-81571560D02*
X201612111Y-85011560D01*
X204452111Y-82171560D02*
X201612111Y-82171560D01*
X201612111Y-85011560D02*
X201792111Y-85011560D01*
X204452111Y-82051560D02*
X201612111Y-82051560D01*
%TO.C,J2*%
X109022111Y-102310560D02*
X109622111Y-102310560D01*
X109622111Y-105790560D02*
X109022111Y-105790560D01*
X109022111Y-105790560D02*
X109022111Y-107390560D01*
X103602111Y-111420560D02*
X104602111Y-111420560D01*
X104602111Y-101510560D02*
X104602111Y-111670560D01*
X109022111Y-100710560D02*
X109022111Y-102310560D01*
X108592111Y-99840560D02*
X104592111Y-99840560D01*
X109022111Y-110870560D02*
X109022111Y-112470560D01*
X103602111Y-100130560D02*
X103602111Y-113050560D01*
X109022111Y-104850560D02*
X109622111Y-104850560D01*
X109022111Y-103250560D02*
X109022111Y-104850560D01*
X109622111Y-110870560D02*
X109022111Y-110870560D01*
X103602111Y-101510560D02*
X104602111Y-101510560D01*
X105132111Y-111420560D02*
X104602111Y-111670560D01*
X109022111Y-112470560D02*
X109622111Y-112470560D01*
X105132111Y-101760560D02*
X105132111Y-111420560D01*
X103602111Y-101760560D02*
X104602111Y-101760560D01*
X109022111Y-108330560D02*
X109022111Y-109930560D01*
X109622111Y-100130560D02*
X103602111Y-100130560D01*
X109622111Y-108330560D02*
X109022111Y-108330560D01*
X103602111Y-113050560D02*
X109622111Y-113050560D01*
X109022111Y-107390560D02*
X109622111Y-107390560D01*
X104602111Y-101510560D02*
X105132111Y-101760560D01*
X109622111Y-103250560D02*
X109022111Y-103250560D01*
X109622111Y-100710560D02*
X109022111Y-100710560D01*
X104602111Y-111670560D02*
X103602111Y-111670560D01*
X109022111Y-109930560D02*
X109622111Y-109930560D01*
X109622111Y-113050560D02*
X109622111Y-100130560D01*
X129165111Y-59869560D02*
X128915111Y-60399560D01*
X119805111Y-64889560D02*
X119805111Y-64289560D01*
X128915111Y-60399560D02*
X119255111Y-60399560D01*
X130545111Y-64889560D02*
X130545111Y-58869560D01*
X129165111Y-59869560D02*
X119005111Y-59869560D01*
X130545111Y-58869560D02*
X117625111Y-58869560D01*
X127425111Y-64289560D02*
X125825111Y-64289560D01*
X122345111Y-64289560D02*
X120745111Y-64289560D01*
X119005111Y-59869560D02*
X119005111Y-58869560D01*
X128915111Y-58869560D02*
X128915111Y-59869560D01*
X129965111Y-64289560D02*
X128365111Y-64289560D01*
X117625111Y-58869560D02*
X117625111Y-64889560D01*
X119805111Y-64289560D02*
X118205111Y-64289560D01*
X119255111Y-60399560D02*
X119005111Y-59869560D01*
X117625111Y-64889560D02*
X130545111Y-64889560D01*
X125825111Y-64289560D02*
X125825111Y-64889560D01*
X130835111Y-63859560D02*
X130835111Y-59859560D01*
X124885111Y-64889560D02*
X124885111Y-64289560D01*
X124885111Y-64289560D02*
X123285111Y-64289560D01*
X123285111Y-64289560D02*
X123285111Y-64889560D01*
X127425111Y-64889560D02*
X127425111Y-64289560D01*
X129165111Y-58869560D02*
X129165111Y-59869560D01*
X128365111Y-64289560D02*
X128365111Y-64889560D01*
X122345111Y-64889560D02*
X122345111Y-64289560D01*
X119255111Y-58869560D02*
X119255111Y-59869560D01*
X120745111Y-64289560D02*
X120745111Y-64889560D01*
X129965111Y-64889560D02*
X129965111Y-64289560D01*
X118205111Y-64289560D02*
X118205111Y-64889560D01*
%TO.C,C1*%
X164048111Y-74479600D02*
X164048111Y-77429600D01*
X156592548Y-74479600D02*
X164048111Y-74479600D01*
X155528111Y-75544037D02*
X156592548Y-74479600D01*
X164048111Y-82999600D02*
X164048111Y-80049600D01*
X155528111Y-81935163D02*
X155528111Y-80049600D01*
X155528111Y-81935163D02*
X156592548Y-82999600D01*
X156592548Y-82999600D02*
X164048111Y-82999600D01*
X155528111Y-75544037D02*
X155528111Y-77429600D01*
%TO.C,R3*%
X139224175Y-138402600D02*
X138770047Y-138402600D01*
X139224175Y-136932600D02*
X138770047Y-136932600D01*
%TO.C,C8*%
X223620359Y-90122560D02*
X224142863Y-90122560D01*
X223620359Y-88652560D02*
X224142863Y-88652560D01*
D14*
%TO.C,IC1*%
X197959111Y-94413060D02*
X197959111Y-97613060D01*
X197959111Y-97613060D02*
X189309111Y-97613060D01*
X189309111Y-94413060D02*
X197959111Y-94413060D01*
X189309111Y-97613060D02*
X189309111Y-94413060D01*
X198119111Y-92513060D02*
X198119111Y-94063060D01*
D13*
%TO.C,D1*%
X136047111Y-129087600D02*
X133187111Y-129087600D01*
X133187111Y-131007600D02*
X136047111Y-131007600D01*
X136047111Y-131007600D02*
X136047111Y-129087600D01*
%TO.C,R5*%
X151779872Y-99086536D02*
X151779872Y-99540664D01*
X150309872Y-99086536D02*
X150309872Y-99540664D01*
%TO.C,G\u002A\u002A\u002A*%
G36*
X220236463Y-129787327D02*
G01*
X220246624Y-129798711D01*
X220263354Y-129835038D01*
X220261459Y-129878846D01*
X220251558Y-129907704D01*
X220230084Y-129944046D01*
X220200455Y-129970880D01*
X220159969Y-129989273D01*
X220105928Y-130000291D01*
X220035629Y-130005000D01*
X220004184Y-130005357D01*
X219885643Y-130005357D01*
X219885643Y-130030321D01*
X219878895Y-130057730D01*
X219862200Y-130076554D01*
X219840883Y-130081388D01*
X219836519Y-130080195D01*
X219812758Y-130063728D01*
X219803807Y-130035217D01*
X219803566Y-130028485D01*
X219801798Y-130015688D01*
X219793529Y-130008746D01*
X219773981Y-130005892D01*
X219741058Y-130005357D01*
X219690795Y-130002438D01*
X219658407Y-129993123D01*
X219641977Y-129976576D01*
X219638941Y-129960795D01*
X219643096Y-129937495D01*
X219657704Y-129922823D01*
X219685975Y-129915150D01*
X219731123Y-129912847D01*
X219733510Y-129912844D01*
X219803409Y-129912844D01*
X219803409Y-129876191D01*
X219808442Y-129835629D01*
X219822572Y-129809256D01*
X219844347Y-129799773D01*
X219844526Y-129799772D01*
X219866350Y-129809126D01*
X219880540Y-129835387D01*
X219885643Y-129875858D01*
X219885643Y-129912844D01*
X220008994Y-129912844D01*
X220071228Y-129911706D01*
X220115791Y-129907412D01*
X220145489Y-129898643D01*
X220163127Y-129884081D01*
X220171510Y-129862407D01*
X220173462Y-129835529D01*
X220176921Y-129808180D01*
X220190368Y-129792380D01*
X220200367Y-129787073D01*
X220221434Y-129780423D01*
X220236463Y-129787327D01*
G37*
G36*
X219911037Y-130159293D02*
G01*
X219924415Y-130177047D01*
X219923078Y-130198779D01*
X219906420Y-130228326D01*
X219898492Y-130239095D01*
X219876947Y-130281599D01*
X219868932Y-130330295D01*
X219874739Y-130377927D01*
X219891513Y-130413203D01*
X219930122Y-130449964D01*
X219977544Y-130471290D01*
X220029129Y-130477283D01*
X220080228Y-130468044D01*
X220126192Y-130443676D01*
X220160408Y-130407297D01*
X220180010Y-130360397D01*
X220182639Y-130307582D01*
X220168275Y-130254564D01*
X220160995Y-130240086D01*
X220147131Y-130210833D01*
X220145307Y-130191278D01*
X220149196Y-130182151D01*
X220169007Y-130163060D01*
X220191033Y-130161805D01*
X220213258Y-130176100D01*
X220233663Y-130203662D01*
X220250230Y-130242209D01*
X220260943Y-130289456D01*
X220263199Y-130311176D01*
X220264781Y-130351867D01*
X220261511Y-130381732D01*
X220251501Y-130410286D01*
X220238252Y-130436910D01*
X220203826Y-130487629D01*
X220164430Y-130524283D01*
X220139249Y-130540322D01*
X220115388Y-130550084D01*
X220085885Y-130555433D01*
X220043779Y-130558230D01*
X220036385Y-130558528D01*
X219993524Y-130559598D01*
X219963890Y-130557743D01*
X219940194Y-130551355D01*
X219915147Y-130538829D01*
X219896424Y-130527690D01*
X219843540Y-130485346D01*
X219808430Y-130433041D01*
X219790621Y-130369907D01*
X219788027Y-130329428D01*
X219790753Y-130285196D01*
X219800876Y-130249506D01*
X219817062Y-130218081D01*
X219845062Y-130179043D01*
X219872566Y-130156830D01*
X219897717Y-130152603D01*
X219911037Y-130159293D01*
G37*
G36*
X219723361Y-126504543D02*
G01*
X219729433Y-126528094D01*
X219729507Y-126528805D01*
X219732698Y-126561030D01*
X219821190Y-126563991D01*
X219872145Y-126567173D01*
X219903006Y-126572669D01*
X219913938Y-126579801D01*
X219910634Y-126586214D01*
X219893885Y-126590239D01*
X219861113Y-126592245D01*
X219824824Y-126592650D01*
X219731454Y-126592650D01*
X219731454Y-126628627D01*
X219728111Y-126655236D01*
X219717440Y-126664539D01*
X219716035Y-126664604D01*
X219708359Y-126660896D01*
X219703646Y-126647391D01*
X219701273Y-126620519D01*
X219700617Y-126576710D01*
X219700617Y-126576374D01*
X219701424Y-126531522D01*
X219704110Y-126504589D01*
X219709071Y-126492988D01*
X219713466Y-126492362D01*
X219723361Y-126504543D01*
G37*
G36*
X220098135Y-127415207D02*
G01*
X220152700Y-127415993D01*
X220192150Y-127417543D01*
X220219205Y-127420052D01*
X220236585Y-127423717D01*
X220247010Y-127428733D01*
X220249822Y-127431142D01*
X220262928Y-127450069D01*
X220265975Y-127461245D01*
X220259235Y-127479305D01*
X220249822Y-127491349D01*
X220241403Y-127496956D01*
X220227108Y-127501134D01*
X220204218Y-127504078D01*
X220170012Y-127505985D01*
X220121770Y-127507051D01*
X220056773Y-127507471D01*
X220025734Y-127507502D01*
X219950726Y-127507276D01*
X219893797Y-127506269D01*
X219852471Y-127503989D01*
X219824270Y-127499942D01*
X219806717Y-127493638D01*
X219797336Y-127484582D01*
X219793649Y-127472282D01*
X219793130Y-127461245D01*
X219794267Y-127446329D01*
X219799330Y-127435008D01*
X219810797Y-127426790D01*
X219831144Y-127421182D01*
X219862847Y-127417691D01*
X219908385Y-127415825D01*
X219970234Y-127415092D01*
X220025734Y-127414989D01*
X220098135Y-127415207D01*
G37*
G36*
X219674360Y-127408547D02*
G01*
X219697946Y-127424498D01*
X219710259Y-127452225D01*
X219710896Y-127461245D01*
X219704209Y-127487534D01*
X219694743Y-127501628D01*
X219667496Y-127516026D01*
X219636995Y-127513746D01*
X219614836Y-127498983D01*
X219599490Y-127469596D01*
X219603067Y-127439839D01*
X219616622Y-127421722D01*
X219645314Y-127406809D01*
X219674360Y-127408547D01*
G37*
G36*
X220885960Y-135832855D02*
G01*
X220852171Y-135816019D01*
X220807184Y-135792090D01*
X220749660Y-135760358D01*
X220678258Y-135720111D01*
X220591636Y-135670641D01*
X220507992Y-135622511D01*
X220101507Y-135388043D01*
X220101507Y-134574479D01*
X220338044Y-134574479D01*
X220338363Y-134913694D01*
X220338681Y-135252909D01*
X220626427Y-135417377D01*
X220696411Y-135457195D01*
X220760713Y-135493431D01*
X220817161Y-135524887D01*
X220863584Y-135550368D01*
X220897809Y-135568677D01*
X220917665Y-135578617D01*
X220921751Y-135580074D01*
X220931920Y-135574777D01*
X220957232Y-135560700D01*
X220995037Y-135539363D01*
X221042686Y-135512288D01*
X221097529Y-135480994D01*
X221156916Y-135447001D01*
X221218199Y-135411831D01*
X221278727Y-135377004D01*
X221335851Y-135344039D01*
X221386921Y-135314457D01*
X221429289Y-135289779D01*
X221460304Y-135271525D01*
X221476355Y-135261824D01*
X221499483Y-135247295D01*
X221498723Y-134574479D01*
X221211225Y-134410011D01*
X221141037Y-134370177D01*
X221076260Y-134334021D01*
X221019114Y-134302735D01*
X220971816Y-134277510D01*
X220936587Y-134259538D01*
X220915645Y-134250008D01*
X220910937Y-134248815D01*
X220899163Y-134254586D01*
X220871850Y-134269391D01*
X220831253Y-134291963D01*
X220779626Y-134321038D01*
X220719221Y-134355348D01*
X220652294Y-134393629D01*
X220618096Y-134413283D01*
X220338044Y-134574479D01*
X220101507Y-134574479D01*
X220101507Y-134437808D01*
X220503524Y-134205476D01*
X220586609Y-134157594D01*
X220664370Y-134113041D01*
X220734975Y-134072847D01*
X220796590Y-134038044D01*
X220847383Y-134009663D01*
X220885519Y-133988736D01*
X220909167Y-133976294D01*
X220916402Y-133973143D01*
X220927286Y-133978125D01*
X220954128Y-133992387D01*
X220995099Y-134014902D01*
X221048369Y-134044645D01*
X221112108Y-134080588D01*
X221184486Y-134121706D01*
X221263673Y-134166972D01*
X221331584Y-134205993D01*
X221735906Y-134438843D01*
X221735857Y-134912691D01*
X221735807Y-135386539D01*
X221344224Y-135612682D01*
X221261824Y-135660225D01*
X221184460Y-135704781D01*
X221114044Y-135745252D01*
X221052492Y-135780543D01*
X221001716Y-135809557D01*
X220963631Y-135831197D01*
X220940152Y-135844369D01*
X220933559Y-135847902D01*
X220925314Y-135848086D01*
X220921751Y-135846982D01*
X220909894Y-135843307D01*
X220885960Y-135832855D01*
G37*
G36*
X219883047Y-128232670D02*
G01*
X219853611Y-128206925D01*
X219813642Y-128153214D01*
X219791063Y-128095060D01*
X219785140Y-128035697D01*
X219786924Y-128025465D01*
X219867134Y-128025465D01*
X219867496Y-128075818D01*
X219881369Y-128121730D01*
X219885805Y-128129658D01*
X219905870Y-128152746D01*
X219934109Y-128174974D01*
X219962973Y-128191134D01*
X219982279Y-128196211D01*
X219984494Y-128186546D01*
X219986354Y-128160004D01*
X219987704Y-128120267D01*
X219988384Y-128071015D01*
X219988435Y-128052556D01*
X219988435Y-127908901D01*
X219962045Y-127918935D01*
X219923731Y-127935758D01*
X219899332Y-127953352D01*
X219882586Y-127976426D01*
X219880610Y-127980141D01*
X219867134Y-128025465D01*
X219786924Y-128025465D01*
X219795137Y-127978360D01*
X219820321Y-127926282D01*
X219859957Y-127882700D01*
X219913309Y-127850846D01*
X219936335Y-127842693D01*
X219977038Y-127831391D01*
X220007704Y-127826254D01*
X220029752Y-127829395D01*
X220044600Y-127842926D01*
X220053668Y-127868959D01*
X220058375Y-127909608D01*
X220060141Y-127966984D01*
X220060390Y-128027338D01*
X220060894Y-128083653D01*
X220062288Y-128132004D01*
X220064396Y-128168998D01*
X220067042Y-128191238D01*
X220069149Y-128196211D01*
X220088513Y-128189052D01*
X220114621Y-128170955D01*
X220141318Y-128146991D01*
X220162449Y-128122231D01*
X220166382Y-128116101D01*
X220182583Y-128070316D01*
X220185091Y-128017367D01*
X220173968Y-127965369D01*
X220165097Y-127945487D01*
X220151035Y-127910927D01*
X220152816Y-127886500D01*
X220170837Y-127868769D01*
X220174179Y-127866891D01*
X220192208Y-127863289D01*
X220210582Y-127875726D01*
X220213604Y-127878877D01*
X220240286Y-127920606D01*
X220257360Y-127974630D01*
X220263918Y-128034619D01*
X220259051Y-128094239D01*
X220249548Y-128129199D01*
X220218785Y-128186011D01*
X220174967Y-128229963D01*
X220121608Y-128260365D01*
X220062223Y-128276526D01*
X220000325Y-128277757D01*
X219982279Y-128273493D01*
X219939428Y-128263368D01*
X219883047Y-128232670D01*
G37*
G36*
X219920100Y-131121101D02*
G01*
X219867453Y-131086676D01*
X219827551Y-131041346D01*
X219796918Y-130978715D01*
X219785627Y-130913976D01*
X219787355Y-130899171D01*
X219866683Y-130899171D01*
X219873296Y-130947541D01*
X219896983Y-130994124D01*
X219937865Y-131035440D01*
X219939124Y-131036387D01*
X219971683Y-131050639D01*
X220015220Y-131056726D01*
X220061685Y-131054272D01*
X220100503Y-131043976D01*
X220138943Y-131017718D01*
X220166545Y-130978350D01*
X220181546Y-130931207D01*
X220182183Y-130881626D01*
X220168477Y-130838275D01*
X220137071Y-130798393D01*
X220093633Y-130771684D01*
X220042906Y-130759444D01*
X219989638Y-130762966D01*
X219948079Y-130778162D01*
X219904195Y-130811000D01*
X219877023Y-130852497D01*
X219866683Y-130899171D01*
X219787355Y-130899171D01*
X219793088Y-130850057D01*
X219818712Y-130789884D01*
X219861908Y-130736386D01*
X219894355Y-130709867D01*
X219938740Y-130678647D01*
X220093492Y-130678647D01*
X220153886Y-130678896D01*
X220196953Y-130679876D01*
X220225920Y-130681936D01*
X220244016Y-130685426D01*
X220254467Y-130690695D01*
X220259627Y-130696636D01*
X220264694Y-130720135D01*
X220252810Y-130740644D01*
X220227454Y-130752892D01*
X220221900Y-130753792D01*
X220195318Y-130756982D01*
X220227600Y-130802780D01*
X220254700Y-130857744D01*
X220265525Y-130918970D01*
X220259591Y-130980249D01*
X220244671Y-131020908D01*
X220207558Y-131073241D01*
X220158848Y-131111555D01*
X220102144Y-131135675D01*
X220041050Y-131145424D01*
X220015220Y-131143421D01*
X219979167Y-131140625D01*
X219920100Y-131121101D01*
G37*
G36*
X219977794Y-126680724D02*
G01*
X219978156Y-126689941D01*
X219969966Y-126705948D01*
X219955791Y-126716968D01*
X219925358Y-126727072D01*
X219884182Y-126732643D01*
X219837594Y-126733950D01*
X219790922Y-126731260D01*
X219749498Y-126724844D01*
X219718652Y-126714970D01*
X219704885Y-126704311D01*
X219702043Y-126689436D01*
X219714547Y-126683566D01*
X219738731Y-126687871D01*
X219746767Y-126690921D01*
X219790225Y-126701898D01*
X219842990Y-126705132D01*
X219895338Y-126700656D01*
X219933485Y-126690302D01*
X219960511Y-126679312D01*
X219973595Y-126676133D01*
X219977794Y-126680724D01*
G37*
G36*
X219895297Y-129663082D02*
G01*
X219845703Y-129620813D01*
X219812555Y-129571092D01*
X219790300Y-129507316D01*
X219787050Y-129451181D01*
X219866580Y-129451181D01*
X219870297Y-129494053D01*
X219886293Y-129533787D01*
X219916618Y-129572175D01*
X219959219Y-129598400D01*
X220009001Y-129611291D01*
X220060868Y-129609678D01*
X220109724Y-129592390D01*
X220118450Y-129587104D01*
X220154319Y-129552152D01*
X220176580Y-129506474D01*
X220183977Y-129455778D01*
X220175254Y-129405773D01*
X220163694Y-129381549D01*
X220129841Y-129343776D01*
X220086364Y-129320712D01*
X220037603Y-129311978D01*
X219987901Y-129317197D01*
X219941600Y-129335993D01*
X219903042Y-129367989D01*
X219879178Y-129406261D01*
X219866580Y-129451181D01*
X219787050Y-129451181D01*
X219786543Y-129442431D01*
X219800089Y-129380028D01*
X219829742Y-129323698D01*
X219874308Y-129277031D01*
X219919663Y-129249177D01*
X219943858Y-129238825D01*
X219967133Y-129231797D01*
X219994289Y-129227460D01*
X220030125Y-129225180D01*
X220079443Y-129224325D01*
X220108855Y-129224235D01*
X220164296Y-129224410D01*
X220202717Y-129225365D01*
X220227653Y-129227601D01*
X220242639Y-129231620D01*
X220251213Y-129237923D01*
X220255903Y-129245082D01*
X220262754Y-129275088D01*
X220251306Y-129299386D01*
X220223798Y-129313262D01*
X220223539Y-129313314D01*
X220193036Y-129319415D01*
X220213596Y-129341300D01*
X220244981Y-129388821D01*
X220261866Y-129445784D01*
X220263390Y-129506246D01*
X220248688Y-129564265D01*
X220246653Y-129568915D01*
X220211357Y-129623019D01*
X220161977Y-129663249D01*
X220100676Y-129688327D01*
X220029616Y-129696980D01*
X220029552Y-129696980D01*
X220009001Y-129694589D01*
X219956620Y-129688494D01*
X219895297Y-129663082D01*
G37*
G36*
X219873719Y-126153445D02*
G01*
X219916598Y-126160019D01*
X219951019Y-126171219D01*
X219972222Y-126186474D01*
X219976340Y-126195239D01*
X219977574Y-126209785D01*
X219976340Y-126212163D01*
X219965538Y-126208913D01*
X219942385Y-126200939D01*
X219931899Y-126197195D01*
X219870151Y-126183931D01*
X219804383Y-126184740D01*
X219754234Y-126196115D01*
X219722139Y-126204934D01*
X219705095Y-126202709D01*
X219700617Y-126191162D01*
X219709244Y-126183168D01*
X219730950Y-126171844D01*
X219741942Y-126167177D01*
X219781631Y-126156455D01*
X219827143Y-126152067D01*
X219873719Y-126153445D01*
G37*
G36*
X220004965Y-129088550D02*
G01*
X219949724Y-129089036D01*
X219878006Y-129088648D01*
X219840499Y-129088235D01*
X219764328Y-129087173D01*
X219706152Y-129085942D01*
X219663408Y-129084323D01*
X219633531Y-129082101D01*
X219613959Y-129079059D01*
X219602127Y-129074980D01*
X219595473Y-129069647D01*
X219593850Y-129067377D01*
X219588009Y-129045246D01*
X219593836Y-129031399D01*
X219601575Y-129023583D01*
X219615618Y-129018134D01*
X219639547Y-129014501D01*
X219676946Y-129012137D01*
X219729984Y-129010524D01*
X219777907Y-129008961D01*
X219817314Y-129006808D01*
X219844254Y-129004344D01*
X219854781Y-129001847D01*
X219854805Y-129001729D01*
X219848800Y-128990781D01*
X219833923Y-128971094D01*
X219829502Y-128965749D01*
X219797478Y-128913083D01*
X219784216Y-128855842D01*
X219786051Y-128835256D01*
X219867703Y-128835256D01*
X219868429Y-128880991D01*
X219885567Y-128928327D01*
X219917456Y-128965901D01*
X219959959Y-128992076D01*
X220008942Y-129005217D01*
X220060271Y-129003686D01*
X220109810Y-128985846D01*
X220119096Y-128980206D01*
X220153483Y-128946676D01*
X220175607Y-128902576D01*
X220184117Y-128853872D01*
X220177665Y-128806532D01*
X220164594Y-128778992D01*
X220128623Y-128739691D01*
X220085565Y-128715957D01*
X220038800Y-128706626D01*
X219991710Y-128710532D01*
X219947675Y-128726513D01*
X219910075Y-128753404D01*
X219882291Y-128790039D01*
X219867703Y-128835256D01*
X219786051Y-128835256D01*
X219789442Y-128797211D01*
X219812880Y-128740378D01*
X219853333Y-128689420D01*
X219910826Y-128646479D01*
X219973467Y-128622314D01*
X220038294Y-128616915D01*
X220102343Y-128630273D01*
X220162654Y-128662377D01*
X220195736Y-128690556D01*
X220237136Y-128745026D01*
X220261025Y-128806539D01*
X220266670Y-128871343D01*
X220253339Y-128935691D01*
X220246743Y-128951735D01*
X220213527Y-129003799D01*
X220167768Y-129047219D01*
X220117720Y-129075214D01*
X220100109Y-129080522D01*
X220077331Y-129084426D01*
X220046559Y-129087058D01*
X220008942Y-129088407D01*
X220004965Y-129088550D01*
G37*
G36*
X220228920Y-128315893D02*
G01*
X220245416Y-128329841D01*
X220262918Y-128360932D01*
X220262037Y-128399477D01*
X220256168Y-128417215D01*
X220235459Y-128447700D01*
X220202833Y-128476014D01*
X220170223Y-128493624D01*
X220150172Y-128497166D01*
X220111447Y-128500099D01*
X220055925Y-128502354D01*
X219985483Y-128503862D01*
X219902000Y-128504551D01*
X219875953Y-128504588D01*
X219793116Y-128504423D01*
X219728534Y-128503844D01*
X219679904Y-128502724D01*
X219644923Y-128500936D01*
X219621290Y-128498354D01*
X219606703Y-128494852D01*
X219598858Y-128490302D01*
X219597935Y-128489303D01*
X219589696Y-128465517D01*
X219595953Y-128439856D01*
X219613778Y-128421357D01*
X219620840Y-128418583D01*
X219637328Y-128416844D01*
X219671245Y-128415280D01*
X219719463Y-128413964D01*
X219778853Y-128412968D01*
X219846286Y-128412365D01*
X219896436Y-128412215D01*
X219979039Y-128412030D01*
X220043364Y-128411315D01*
X220091692Y-128409677D01*
X220126303Y-128406724D01*
X220149478Y-128402062D01*
X220163497Y-128395300D01*
X220170641Y-128386044D01*
X220173189Y-128373901D01*
X220173462Y-128364497D01*
X220180036Y-128340616D01*
X220195561Y-128319469D01*
X220213734Y-128309366D01*
X220215313Y-128309283D01*
X220228920Y-128315893D01*
G37*
G36*
X219856932Y-131183999D02*
G01*
X219860965Y-131189121D01*
X219864652Y-131205370D01*
X219866425Y-131234770D01*
X219866205Y-131260192D01*
X219869236Y-131313908D01*
X219881378Y-131359214D01*
X219901097Y-131391627D01*
X219914935Y-131402506D01*
X219933313Y-131406887D01*
X219968099Y-131410421D01*
X220015149Y-131412810D01*
X220070318Y-131413761D01*
X220072563Y-131413764D01*
X220141245Y-131414878D01*
X220191938Y-131418453D01*
X220227130Y-131425105D01*
X220249307Y-131435447D01*
X220260956Y-131450094D01*
X220263901Y-131461026D01*
X220259983Y-131483935D01*
X220252318Y-131494385D01*
X220239700Y-131498776D01*
X220213013Y-131501866D01*
X220170707Y-131503716D01*
X220111231Y-131504388D01*
X220033034Y-131503944D01*
X220017969Y-131503764D01*
X219798269Y-131500986D01*
X219794990Y-131466802D01*
X219795361Y-131441883D01*
X219804922Y-131429946D01*
X219812979Y-131427056D01*
X219829905Y-131422081D01*
X219834204Y-131420123D01*
X219829952Y-131411037D01*
X219819031Y-131389045D01*
X219808506Y-131368184D01*
X219787705Y-131310170D01*
X219784549Y-131254976D01*
X219798533Y-131207518D01*
X219816760Y-131185496D01*
X219838233Y-131177065D01*
X219856932Y-131183999D01*
G37*
G36*
X219857836Y-126243628D02*
G01*
X219889899Y-126245362D01*
X219908056Y-126248832D01*
X219915626Y-126254512D01*
X219916481Y-126258574D01*
X219912023Y-126267143D01*
X219896138Y-126272094D01*
X219865060Y-126274299D01*
X219847096Y-126274610D01*
X219777711Y-126275227D01*
X219841956Y-126307643D01*
X219873879Y-126325525D01*
X219896877Y-126341792D01*
X219906181Y-126353049D01*
X219906201Y-126353395D01*
X219897631Y-126364551D01*
X219875317Y-126380269D01*
X219848521Y-126394886D01*
X219790840Y-126423042D01*
X219850290Y-126428182D01*
X219884939Y-126433222D01*
X219907841Y-126440646D01*
X219913967Y-126446171D01*
X219910771Y-126452181D01*
X219894802Y-126456120D01*
X219863547Y-126458295D01*
X219814492Y-126459015D01*
X219809405Y-126459020D01*
X219760487Y-126458107D01*
X219724352Y-126455556D01*
X219704003Y-126451647D01*
X219700617Y-126448855D01*
X219709212Y-126440086D01*
X219732258Y-126425040D01*
X219765642Y-126406276D01*
X219785375Y-126396075D01*
X219870133Y-126353459D01*
X219785375Y-126311442D01*
X219748197Y-126291672D01*
X219719315Y-126273765D01*
X219702875Y-126260418D01*
X219700617Y-126256290D01*
X219706251Y-126250038D01*
X219724855Y-126245972D01*
X219758981Y-126243782D01*
X219808549Y-126243156D01*
X219857836Y-126243628D01*
G37*
G36*
X220028886Y-134303059D02*
G01*
X219620619Y-134067197D01*
X219212353Y-133831336D01*
X219212353Y-133691340D01*
X219443636Y-133691340D01*
X219728206Y-133855370D01*
X219798181Y-133895419D01*
X219862931Y-133931931D01*
X219920192Y-133963673D01*
X219967701Y-133989410D01*
X220003196Y-134007911D01*
X220024414Y-134017940D01*
X220029124Y-134019400D01*
X220041747Y-134014421D01*
X220069861Y-134000306D01*
X220111207Y-133978288D01*
X220163523Y-133949600D01*
X220224549Y-133915474D01*
X220292025Y-133877143D01*
X220330470Y-133855059D01*
X220615469Y-133690717D01*
X220615318Y-133356516D01*
X220615167Y-133022314D01*
X220330742Y-132858458D01*
X220260785Y-132818420D01*
X220196070Y-132781883D01*
X220138859Y-132750086D01*
X220091414Y-132724268D01*
X220055997Y-132705666D01*
X220034871Y-132695518D01*
X220030225Y-132693991D01*
X220017670Y-132698818D01*
X219989622Y-132712793D01*
X219948337Y-132734687D01*
X219896072Y-132763273D01*
X219835084Y-132797324D01*
X219767628Y-132835614D01*
X219728916Y-132857846D01*
X219443699Y-133022314D01*
X219443667Y-133356827D01*
X219443636Y-133691340D01*
X219212353Y-133691340D01*
X219212353Y-132882411D01*
X219620622Y-132646609D01*
X220028892Y-132410806D01*
X220440392Y-132648335D01*
X220851891Y-132885864D01*
X220851891Y-133356943D01*
X220851728Y-133453336D01*
X220851261Y-133543291D01*
X220850524Y-133624748D01*
X220849550Y-133695649D01*
X220848372Y-133753934D01*
X220847024Y-133797545D01*
X220845539Y-133824421D01*
X220844182Y-133832578D01*
X220833951Y-133838503D01*
X220807728Y-133853653D01*
X220767329Y-133876979D01*
X220714568Y-133907435D01*
X220651261Y-133943973D01*
X220579223Y-133985543D01*
X220500271Y-134031100D01*
X220432679Y-134070097D01*
X220029124Y-134302922D01*
X220028886Y-134303059D01*
G37*
G36*
X219972077Y-132105683D02*
G01*
X219952998Y-132101095D01*
X219935820Y-132094798D01*
X219919663Y-132087559D01*
X219865368Y-132051704D01*
X219823226Y-132002470D01*
X219795611Y-131944134D01*
X219784893Y-131880972D01*
X219786309Y-131855646D01*
X219868452Y-131855646D01*
X219870464Y-131905830D01*
X219891763Y-131953613D01*
X219931755Y-131996828D01*
X219940506Y-132003667D01*
X219974678Y-132018668D01*
X220019269Y-132024300D01*
X220066338Y-132020446D01*
X220107946Y-132006994D01*
X220109671Y-132006104D01*
X220147913Y-131975163D01*
X220173066Y-131932563D01*
X220183814Y-131883498D01*
X220178840Y-131833162D01*
X220162932Y-131795917D01*
X220134944Y-131765729D01*
X220094604Y-131740678D01*
X220050106Y-131725144D01*
X220025088Y-131722216D01*
X219978093Y-131731019D01*
X219932660Y-131755193D01*
X219896094Y-131790370D01*
X219886316Y-131805224D01*
X219868452Y-131855646D01*
X219786309Y-131855646D01*
X219786738Y-131847984D01*
X219805351Y-131780587D01*
X219839791Y-131723853D01*
X219887565Y-131680005D01*
X219946180Y-131651265D01*
X220013141Y-131639858D01*
X220020320Y-131639756D01*
X220092775Y-131647969D01*
X220154555Y-131671088D01*
X220204138Y-131706833D01*
X220240004Y-131752924D01*
X220260630Y-131807080D01*
X220264495Y-131867021D01*
X220250077Y-131930467D01*
X220235686Y-131962508D01*
X220205397Y-132020088D01*
X220313456Y-132020088D01*
X220360476Y-132021069D01*
X220401329Y-132023715D01*
X220430666Y-132027582D01*
X220441398Y-132030729D01*
X220457197Y-132049268D01*
X220460496Y-132075213D01*
X220450244Y-132098896D01*
X220448945Y-132100266D01*
X220437475Y-132104681D01*
X220412004Y-132108033D01*
X220371030Y-132110398D01*
X220313049Y-132111852D01*
X220236557Y-132112469D01*
X220204813Y-132112501D01*
X220129588Y-132112380D01*
X220071811Y-132111910D01*
X220028374Y-132110818D01*
X220019269Y-132110257D01*
X219996165Y-132108833D01*
X219972077Y-132105683D01*
G37*
G36*
X219077533Y-135833189D02*
G01*
X219044176Y-135816605D01*
X218999734Y-135792986D01*
X218942855Y-135761618D01*
X218872185Y-135721783D01*
X218786373Y-135672766D01*
X218698852Y-135622385D01*
X218292361Y-135387795D01*
X218292361Y-134574479D01*
X218528898Y-134574479D01*
X218529217Y-134913694D01*
X218529535Y-135252909D01*
X218817281Y-135417377D01*
X218887265Y-135457195D01*
X218951567Y-135493431D01*
X219008015Y-135524887D01*
X219054438Y-135550368D01*
X219088663Y-135568677D01*
X219108519Y-135578617D01*
X219112605Y-135580074D01*
X219122774Y-135574777D01*
X219148086Y-135560700D01*
X219185891Y-135539363D01*
X219233540Y-135512288D01*
X219288383Y-135480994D01*
X219347770Y-135447001D01*
X219409053Y-135411831D01*
X219469581Y-135377004D01*
X219526705Y-135344039D01*
X219577775Y-135314457D01*
X219620143Y-135289779D01*
X219651158Y-135271525D01*
X219667209Y-135261824D01*
X219690337Y-135247295D01*
X219690043Y-134910887D01*
X219689748Y-134574479D01*
X219402086Y-134410011D01*
X219331877Y-134370186D01*
X219267084Y-134334037D01*
X219209925Y-134302755D01*
X219162617Y-134277531D01*
X219127380Y-134259554D01*
X219106431Y-134250015D01*
X219101713Y-134248815D01*
X219089959Y-134254586D01*
X219062665Y-134269390D01*
X219022084Y-134291962D01*
X218970471Y-134321035D01*
X218910078Y-134355344D01*
X218843158Y-134393623D01*
X218808950Y-134413283D01*
X218528898Y-134574479D01*
X218292361Y-134574479D01*
X218292361Y-134437543D01*
X218690681Y-134207913D01*
X218773773Y-134160276D01*
X218851902Y-134115994D01*
X218923168Y-134076107D01*
X218985672Y-134041654D01*
X219037515Y-134013675D01*
X219076799Y-133993210D01*
X219101625Y-133981298D01*
X219109560Y-133978600D01*
X219122503Y-133983678D01*
X219151300Y-133998082D01*
X219194052Y-134020768D01*
X219248862Y-134050692D01*
X219313832Y-134086810D01*
X219387063Y-134128077D01*
X219466659Y-134173451D01*
X219528439Y-134208998D01*
X219926760Y-134439080D01*
X219926741Y-134912809D01*
X219926722Y-135386539D01*
X219535298Y-135612682D01*
X219452912Y-135660234D01*
X219375554Y-135704797D01*
X219305138Y-135745274D01*
X219243580Y-135780567D01*
X219192795Y-135809580D01*
X219154698Y-135831216D01*
X219131204Y-135844378D01*
X219124608Y-135847900D01*
X219116397Y-135848120D01*
X219112605Y-135846959D01*
X219101156Y-135843455D01*
X219077533Y-135833189D01*
G37*
G36*
X220013508Y-127278278D02*
G01*
X219951944Y-127266797D01*
X219896328Y-127240618D01*
X219849292Y-127201567D01*
X219813468Y-127151469D01*
X219791487Y-127092151D01*
X219787461Y-127043378D01*
X219867199Y-127043378D01*
X219876095Y-127090736D01*
X219900577Y-127133241D01*
X219940447Y-127166704D01*
X219948049Y-127170841D01*
X219991565Y-127184771D01*
X220040471Y-127188006D01*
X220085288Y-127180322D01*
X220099448Y-127174403D01*
X220130397Y-127152987D01*
X220158369Y-127124956D01*
X220175875Y-127097901D01*
X220176481Y-127096332D01*
X220182602Y-127060067D01*
X220180402Y-127016138D01*
X220170676Y-126975311D01*
X220166907Y-126966313D01*
X220139651Y-126931155D01*
X220099287Y-126906144D01*
X220051227Y-126892505D01*
X220000884Y-126891462D01*
X219953672Y-126904239D01*
X219935989Y-126914081D01*
X219896949Y-126950862D01*
X219874084Y-126995357D01*
X219867199Y-127043378D01*
X219787461Y-127043378D01*
X219785980Y-127025438D01*
X219788115Y-127002914D01*
X219805957Y-126940187D01*
X219838741Y-126888078D01*
X219883302Y-126847469D01*
X219936475Y-126819243D01*
X219995094Y-126804279D01*
X220055996Y-126803461D01*
X220116014Y-126817669D01*
X220171984Y-126847786D01*
X220212421Y-126884721D01*
X220243818Y-126934977D01*
X220261819Y-126995937D01*
X220265396Y-127061884D01*
X220255069Y-127122031D01*
X220236234Y-127160872D01*
X220204959Y-127200922D01*
X220167545Y-127234931D01*
X220143958Y-127249840D01*
X220078390Y-127273234D01*
X220040471Y-127276182D01*
X220013508Y-127278278D01*
G37*
G36*
X220240841Y-127639774D02*
G01*
X220263514Y-127661653D01*
X220275670Y-127689163D01*
X220276254Y-127696075D01*
X220268847Y-127721921D01*
X220257456Y-127737192D01*
X220233620Y-127750742D01*
X220216339Y-127754204D01*
X220189645Y-127745630D01*
X220166202Y-127724772D01*
X220153515Y-127698925D01*
X220152903Y-127692528D01*
X220161605Y-127666918D01*
X220182607Y-127644014D01*
X220208256Y-127631472D01*
X220214578Y-127630853D01*
X220240841Y-127639774D01*
G37*
%TO.C,C7*%
X213939863Y-125936560D02*
X213417359Y-125936560D01*
X213939863Y-124466560D02*
X213417359Y-124466560D01*
D14*
%TO.C,IC5*%
X155309111Y-85896600D02*
X156734111Y-85896600D01*
X157084111Y-85946600D02*
X159384111Y-85946600D01*
X159384111Y-88946600D02*
X157084111Y-88946600D01*
X159384111Y-85946600D02*
X159384111Y-88946600D01*
X157084111Y-88946600D02*
X157084111Y-85946600D01*
D13*
%TO.C,R6*%
X156519547Y-90450600D02*
X156973675Y-90450600D01*
X156519547Y-91920600D02*
X156973675Y-91920600D01*
D14*
%TO.C,IC4*%
X213268111Y-127226560D02*
X213268111Y-135876560D01*
X210068111Y-127226560D02*
X213268111Y-127226560D01*
X208168111Y-127066560D02*
X209718111Y-127066560D01*
X210068111Y-135876560D02*
X210068111Y-127226560D01*
X213268111Y-135876560D02*
X210068111Y-135876560D01*
D13*
%TO.C,C4*%
X139018359Y-103150600D02*
X139540863Y-103150600D01*
X139018359Y-104620600D02*
X139540863Y-104620600D01*
%TO.C,D2*%
X136047111Y-132897600D02*
X133187111Y-132897600D01*
X136047111Y-134817600D02*
X136047111Y-132897600D01*
X133187111Y-134817600D02*
X136047111Y-134817600D01*
D14*
%TO.C,IC2*%
X130615111Y-118033600D02*
X139265111Y-118033600D01*
X130455111Y-123133600D02*
X130455111Y-121583600D01*
X139265111Y-118033600D02*
X139265111Y-121233600D01*
X130615111Y-121233600D02*
X130615111Y-118033600D01*
X139265111Y-121233600D02*
X130615111Y-121233600D01*
D13*
%TO.C,Q1*%
X204520111Y-90911560D02*
X204520111Y-90261560D01*
X207640111Y-90911560D02*
X207640111Y-90261560D01*
X204520111Y-90911560D02*
X204520111Y-92586560D01*
X207640111Y-90911560D02*
X207640111Y-91561560D01*
%TO.C,J3*%
X82160455Y-65917735D02*
X82160455Y-63317735D01*
X84760455Y-63317735D02*
X84760455Y-114237735D01*
X79560455Y-65917735D02*
X79560455Y-114237735D01*
X79560455Y-114237735D02*
X84760455Y-114237735D01*
X79560455Y-64647735D02*
X79560455Y-63317735D01*
X79560455Y-63317735D02*
X80890455Y-63317735D01*
X82160455Y-63317735D02*
X84760455Y-63317735D01*
X79560455Y-65917735D02*
X82160455Y-65917735D01*
D14*
%TO.C,IC2*%
X190071111Y-115981560D02*
X198721111Y-115981560D01*
X189911111Y-121081560D02*
X189911111Y-119531560D01*
X198721111Y-115981560D02*
X198721111Y-119181560D01*
X190071111Y-119181560D02*
X190071111Y-115981560D01*
X198721111Y-119181560D02*
X190071111Y-119181560D01*
D13*
%TO.C,C2*%
X226823548Y-121373560D02*
X229454111Y-121373560D01*
X229454111Y-117853560D02*
X229454111Y-118553560D01*
X226123548Y-120673560D02*
X226823548Y-121373560D01*
X226823548Y-117853560D02*
X229454111Y-117853560D01*
X225319111Y-118178560D02*
X225694111Y-118178560D01*
X226123548Y-118553560D02*
X226823548Y-117853560D01*
X225506611Y-117991060D02*
X225506611Y-118366060D01*
X229454111Y-121373560D02*
X229454111Y-120673560D01*
D11*
%TO.C,J2*%
X149164111Y-80061600D02*
X144084111Y-80061600D01*
X144084111Y-73561600D02*
X149164111Y-73561600D01*
X144084111Y-80061600D02*
X144084111Y-73561600D01*
X149164111Y-73561600D02*
X149164111Y-80061600D01*
D13*
%TO.C,A1*%
X231610111Y-73001560D02*
X231610111Y-139301560D01*
X231610111Y-139301560D02*
X228430111Y-139301560D01*
X179660111Y-73001560D02*
X191090111Y-73001560D01*
X228430111Y-139301560D02*
X219290111Y-139301560D01*
X228940111Y-73001560D02*
X231610111Y-73001560D01*
X178010111Y-139301560D02*
X178010111Y-74651560D01*
X178010111Y-74651560D02*
X179660111Y-73001560D01*
X226400111Y-70461560D02*
X228940111Y-73001560D01*
X191090111Y-73001560D02*
X193630111Y-70461560D01*
X193630111Y-70461560D02*
X226400111Y-70461560D01*
X187540111Y-139301560D02*
X178010111Y-139301560D01*
X219290111Y-139301560D02*
X187540111Y-139301560D01*
D11*
%TO.C,SW1*%
X159442111Y-113077600D02*
X159442111Y-119077600D01*
D14*
X163042111Y-118477600D02*
X163042111Y-118477600D01*
D11*
X153442111Y-119077600D02*
X153442111Y-113077600D01*
D14*
X163042111Y-118277600D02*
X163042111Y-118277600D01*
D11*
X159442111Y-119077600D02*
X153442111Y-119077600D01*
X153442111Y-113077600D02*
X159442111Y-113077600D01*
D14*
X163042111Y-118477600D02*
G75*
G03*
X163042111Y-118277600I0J100000D01*
G01*
X163042111Y-118277600D02*
G75*
G03*
X163042111Y-118477600I0J-100000D01*
G01*
D13*
%TO.C,Q1*%
X145064111Y-92963600D02*
X145064111Y-92313600D01*
X148184111Y-92963600D02*
X148184111Y-92313600D01*
X145064111Y-92963600D02*
X145064111Y-94638600D01*
X148184111Y-92963600D02*
X148184111Y-93613600D01*
D10*
%TO.C,U10*%
X156806611Y-92875600D02*
X162306611Y-92875600D01*
X156806611Y-98385600D02*
X156806611Y-98085600D01*
X162306611Y-98385600D02*
X162306611Y-98085600D01*
X156806611Y-98385600D02*
X162306611Y-98385600D01*
X162306611Y-92875600D02*
X162306611Y-93175600D01*
X156806611Y-92875600D02*
X156806611Y-93080600D01*
X156806611Y-93080600D02*
X155056611Y-93080600D01*
D13*
%TO.C,J3*%
X163974111Y-54511560D02*
X166574111Y-54511560D01*
X166574111Y-51911560D02*
X166574111Y-53241560D01*
X163974111Y-51911560D02*
X115654111Y-51911560D01*
X166574111Y-57111560D02*
X115654111Y-57111560D01*
X163974111Y-51911560D02*
X163974111Y-54511560D01*
X166574111Y-54511560D02*
X166574111Y-57111560D01*
X115654111Y-51911560D02*
X115654111Y-57111560D01*
X165244111Y-51911560D02*
X166574111Y-51911560D01*
D11*
%TO.C,J2*%
X208620111Y-78009560D02*
X203540111Y-78009560D01*
X203540111Y-71509560D02*
X208620111Y-71509560D01*
X203540111Y-78009560D02*
X203540111Y-71509560D01*
X208620111Y-71509560D02*
X208620111Y-78009560D01*
D13*
%TO.C,R4*%
X207577111Y-97288496D02*
X207577111Y-97742624D01*
X206107111Y-97288496D02*
X206107111Y-97742624D01*
%TO.C,J2*%
X91938455Y-101526735D02*
X92538455Y-101526735D01*
X92538455Y-105006735D02*
X91938455Y-105006735D01*
X91938455Y-105006735D02*
X91938455Y-106606735D01*
X86518455Y-110636735D02*
X87518455Y-110636735D01*
X87518455Y-100726735D02*
X87518455Y-110886735D01*
X91938455Y-99926735D02*
X91938455Y-101526735D01*
X91508455Y-99056735D02*
X87508455Y-99056735D01*
X91938455Y-110086735D02*
X91938455Y-111686735D01*
X86518455Y-99346735D02*
X86518455Y-112266735D01*
X91938455Y-104066735D02*
X92538455Y-104066735D01*
X91938455Y-102466735D02*
X91938455Y-104066735D01*
X92538455Y-110086735D02*
X91938455Y-110086735D01*
X86518455Y-100726735D02*
X87518455Y-100726735D01*
X88048455Y-110636735D02*
X87518455Y-110886735D01*
X91938455Y-111686735D02*
X92538455Y-111686735D01*
X88048455Y-100976735D02*
X88048455Y-110636735D01*
X86518455Y-100976735D02*
X87518455Y-100976735D01*
X91938455Y-107546735D02*
X91938455Y-109146735D01*
X92538455Y-99346735D02*
X86518455Y-99346735D01*
X92538455Y-107546735D02*
X91938455Y-107546735D01*
X86518455Y-112266735D02*
X92538455Y-112266735D01*
X91938455Y-106606735D02*
X92538455Y-106606735D01*
X87518455Y-100726735D02*
X88048455Y-100976735D01*
X92538455Y-102466735D02*
X91938455Y-102466735D01*
X92538455Y-99926735D02*
X91938455Y-99926735D01*
X87518455Y-110886735D02*
X86518455Y-110886735D01*
X91938455Y-109146735D02*
X92538455Y-109146735D01*
X92538455Y-112266735D02*
X92538455Y-99346735D01*
%TO.C,R3*%
X198680175Y-136350560D02*
X198226047Y-136350560D01*
X198680175Y-134880560D02*
X198226047Y-134880560D01*
%TO.C,J1*%
X161811111Y-59595560D02*
X163411111Y-59595560D01*
X158691111Y-58995560D02*
X158691111Y-65015560D01*
X160071111Y-64015560D02*
X162611111Y-64015560D01*
X160871111Y-59595560D02*
X160871111Y-58995560D01*
X162361111Y-65015560D02*
X162361111Y-64015560D01*
X160071111Y-64015560D02*
X160321111Y-63485560D01*
X162611111Y-64015560D02*
X162611111Y-65015560D01*
X160321111Y-63485560D02*
X162361111Y-63485560D01*
X162361111Y-63485560D02*
X162611111Y-64015560D01*
X159271111Y-59595560D02*
X160871111Y-59595560D01*
X158691111Y-65015560D02*
X163991111Y-65015560D01*
X163411111Y-59595560D02*
X163411111Y-58995560D01*
X163991111Y-65015560D02*
X163991111Y-58995560D01*
X158401111Y-60025560D02*
X158401111Y-64025560D01*
X160071111Y-65015560D02*
X160071111Y-64015560D01*
X163991111Y-58995560D02*
X158691111Y-58995560D01*
X159271111Y-58995560D02*
X159271111Y-59595560D01*
X160321111Y-65015560D02*
X160321111Y-64015560D01*
X161811111Y-58995560D02*
X161811111Y-59595560D01*
%TO.C,R4*%
X148121111Y-99340536D02*
X148121111Y-99794664D01*
X146651111Y-99340536D02*
X146651111Y-99794664D01*
%TO.C,J1*%
X92664455Y-71200735D02*
X92664455Y-65900735D01*
X87674455Y-71490735D02*
X91674455Y-71490735D01*
X92664455Y-69820735D02*
X91664455Y-69820735D01*
X92664455Y-69570735D02*
X91664455Y-69570735D01*
X87244455Y-66480735D02*
X86644455Y-66480735D01*
X87244455Y-70620735D02*
X87244455Y-69020735D01*
X86644455Y-70620735D02*
X87244455Y-70620735D01*
X91134455Y-69570735D02*
X91134455Y-67530735D01*
X91134455Y-67530735D02*
X91664455Y-67280735D01*
X87244455Y-68080735D02*
X87244455Y-66480735D01*
X86644455Y-68080735D02*
X87244455Y-68080735D01*
X86644455Y-65900735D02*
X86644455Y-71200735D01*
X91664455Y-69820735D02*
X91134455Y-69570735D01*
X92664455Y-65900735D02*
X86644455Y-65900735D01*
X92664455Y-67530735D02*
X91664455Y-67530735D01*
X91664455Y-67280735D02*
X92664455Y-67280735D01*
X86644455Y-71200735D02*
X92664455Y-71200735D01*
X87244455Y-69020735D02*
X86644455Y-69020735D01*
X91664455Y-69820735D02*
X91664455Y-67280735D01*
%TO.C,C2*%
X167367548Y-123425600D02*
X169998111Y-123425600D01*
X169998111Y-119905600D02*
X169998111Y-120605600D01*
X166667548Y-122725600D02*
X167367548Y-123425600D01*
X167367548Y-119905600D02*
X169998111Y-119905600D01*
X165863111Y-120230600D02*
X166238111Y-120230600D01*
X166667548Y-120605600D02*
X167367548Y-119905600D01*
X166050611Y-120043100D02*
X166050611Y-120418100D01*
X169998111Y-123425600D02*
X169998111Y-122725600D01*
%TO.C,C5*%
X127347111Y-117615848D02*
X127347111Y-118138352D01*
X128817111Y-117615848D02*
X128817111Y-118138352D01*
D14*
%TO.C,IC3*%
X138503111Y-78917600D02*
X138503111Y-82117600D01*
X129693111Y-84017600D02*
X129693111Y-82467600D01*
X129853111Y-82117600D02*
X129853111Y-78917600D01*
X129853111Y-78917600D02*
X138503111Y-78917600D01*
X138503111Y-82117600D02*
X129853111Y-82117600D01*
D13*
%TO.C,D4*%
X144996111Y-84343600D02*
X142156111Y-84343600D01*
X144816111Y-83623600D02*
X144996111Y-83623600D01*
X144996111Y-87063600D02*
X144816111Y-87063600D01*
X144996111Y-83623600D02*
X144996111Y-87063600D01*
X142336111Y-83623600D02*
X142156111Y-83623600D01*
X142156111Y-83623600D02*
X142156111Y-87063600D01*
X144996111Y-84223600D02*
X142156111Y-84223600D01*
X142156111Y-87063600D02*
X142336111Y-87063600D01*
X144996111Y-84103600D02*
X142156111Y-84103600D01*
%TO.C,C4*%
X198474359Y-101098560D02*
X198996863Y-101098560D01*
X198474359Y-102568560D02*
X198996863Y-102568560D01*
%TO.C,J5*%
X170830892Y-128777600D02*
G75*
G03*
X170830892Y-128777600I-1600781J0D01*
G01*
%TO.C,J1*%
X150136111Y-104095600D02*
X151196111Y-104095600D01*
X154256111Y-104095600D02*
X154256111Y-110215600D01*
X150136111Y-106155600D02*
X152196111Y-106155600D01*
X150136111Y-110215600D02*
X154256111Y-110215600D01*
X152196111Y-104095600D02*
X154256111Y-104095600D01*
X150136111Y-105155600D02*
X150136111Y-104095600D01*
X150136111Y-106155600D02*
X150136111Y-110215600D01*
X152196111Y-106155600D02*
X152196111Y-104095600D01*
X209592111Y-102043560D02*
X210652111Y-102043560D01*
X213712111Y-102043560D02*
X213712111Y-108163560D01*
X209592111Y-104103560D02*
X211652111Y-104103560D01*
X209592111Y-108163560D02*
X213712111Y-108163560D01*
X211652111Y-102043560D02*
X213712111Y-102043560D01*
X209592111Y-103103560D02*
X209592111Y-102043560D01*
X209592111Y-104103560D02*
X209592111Y-108163560D01*
X211652111Y-104103560D02*
X211652111Y-102043560D01*
%TO.C,Q2*%
X151943311Y-95148000D02*
X151943311Y-95798000D01*
X148823311Y-95148000D02*
X148823311Y-96823000D01*
X148823311Y-95148000D02*
X148823311Y-94498000D01*
X151943311Y-95148000D02*
X151943311Y-94498000D01*
%TO.C,C6*%
X187765111Y-76447808D02*
X187765111Y-76970312D01*
X186295111Y-76447808D02*
X186295111Y-76970312D01*
%TO.C,R7*%
X207463808Y-82355821D02*
X207917936Y-82355821D01*
X207463808Y-83825821D02*
X207917936Y-83825821D01*
%TO.C,J4*%
X120152640Y-134489600D02*
X119606111Y-134489600D01*
X119606111Y-134489600D02*
X119606111Y-130744600D01*
X121826111Y-130744600D02*
X121023641Y-130744600D01*
X121826111Y-136009600D02*
X120716111Y-136009600D01*
X120408581Y-130744600D02*
X119606111Y-130744600D01*
X121826111Y-134489600D02*
X121826111Y-130744600D01*
X121826111Y-135249600D02*
X121826111Y-136009600D01*
X121826111Y-134489600D02*
X121279582Y-134489600D01*
%TO.C,D3*%
X195503111Y-134655560D02*
X192643111Y-134655560D01*
X195503111Y-136575560D02*
X195503111Y-134655560D01*
X192643111Y-136575560D02*
X195503111Y-136575560D01*
%TO.C,R2*%
X139224175Y-134592600D02*
X138770047Y-134592600D01*
X139224175Y-133122600D02*
X138770047Y-133122600D01*
%TO.C,C3*%
X228170859Y-122434560D02*
X228693363Y-122434560D01*
X228170859Y-123904560D02*
X228693363Y-123904560D01*
%TO.C,R7*%
X148007808Y-84407861D02*
X148461936Y-84407861D01*
X148007808Y-85877861D02*
X148461936Y-85877861D01*
D14*
%TO.C,IC3*%
X197959111Y-76865560D02*
X197959111Y-80065560D01*
X189149111Y-81965560D02*
X189149111Y-80415560D01*
X189309111Y-80065560D02*
X189309111Y-76865560D01*
X189309111Y-76865560D02*
X197959111Y-76865560D01*
X197959111Y-80065560D02*
X189309111Y-80065560D01*
D13*
%TO.C,D2*%
X195503111Y-130845560D02*
X192643111Y-130845560D01*
X195503111Y-132765560D02*
X195503111Y-130845560D01*
X192643111Y-132765560D02*
X195503111Y-132765560D01*
%TO.C,G\u002A\u002A\u002A*%
G36*
X160780463Y-131839367D02*
G01*
X160790624Y-131850751D01*
X160807354Y-131887078D01*
X160805459Y-131930886D01*
X160795558Y-131959744D01*
X160774084Y-131996086D01*
X160744455Y-132022920D01*
X160703969Y-132041313D01*
X160649928Y-132052331D01*
X160579629Y-132057040D01*
X160548184Y-132057397D01*
X160429643Y-132057397D01*
X160429643Y-132082361D01*
X160422895Y-132109770D01*
X160406200Y-132128594D01*
X160384883Y-132133428D01*
X160380519Y-132132235D01*
X160356758Y-132115768D01*
X160347807Y-132087257D01*
X160347566Y-132080525D01*
X160345798Y-132067728D01*
X160337529Y-132060786D01*
X160317981Y-132057932D01*
X160285058Y-132057397D01*
X160234795Y-132054478D01*
X160202407Y-132045163D01*
X160185977Y-132028616D01*
X160182941Y-132012835D01*
X160187096Y-131989535D01*
X160201704Y-131974863D01*
X160229975Y-131967190D01*
X160275123Y-131964887D01*
X160277510Y-131964884D01*
X160347409Y-131964884D01*
X160347409Y-131928231D01*
X160352442Y-131887669D01*
X160366572Y-131861296D01*
X160388347Y-131851813D01*
X160388526Y-131851812D01*
X160410350Y-131861166D01*
X160424540Y-131887427D01*
X160429643Y-131927898D01*
X160429643Y-131964884D01*
X160552994Y-131964884D01*
X160615228Y-131963746D01*
X160659791Y-131959452D01*
X160689489Y-131950683D01*
X160707127Y-131936121D01*
X160715510Y-131914447D01*
X160717462Y-131887569D01*
X160720921Y-131860220D01*
X160734368Y-131844420D01*
X160744367Y-131839113D01*
X160765434Y-131832463D01*
X160780463Y-131839367D01*
G37*
G36*
X160455037Y-132211333D02*
G01*
X160468415Y-132229087D01*
X160467078Y-132250819D01*
X160450420Y-132280366D01*
X160442492Y-132291135D01*
X160420947Y-132333639D01*
X160412932Y-132382335D01*
X160418739Y-132429967D01*
X160435513Y-132465243D01*
X160474122Y-132502004D01*
X160521544Y-132523330D01*
X160573129Y-132529323D01*
X160624228Y-132520084D01*
X160670192Y-132495716D01*
X160704408Y-132459337D01*
X160724010Y-132412437D01*
X160726639Y-132359622D01*
X160712275Y-132306604D01*
X160704995Y-132292126D01*
X160691131Y-132262873D01*
X160689307Y-132243318D01*
X160693196Y-132234191D01*
X160713007Y-132215100D01*
X160735033Y-132213845D01*
X160757258Y-132228140D01*
X160777663Y-132255702D01*
X160794230Y-132294249D01*
X160804943Y-132341496D01*
X160807199Y-132363216D01*
X160808781Y-132403907D01*
X160805511Y-132433772D01*
X160795501Y-132462326D01*
X160782252Y-132488950D01*
X160747826Y-132539669D01*
X160708430Y-132576323D01*
X160683249Y-132592362D01*
X160659388Y-132602124D01*
X160629885Y-132607473D01*
X160587779Y-132610270D01*
X160580385Y-132610568D01*
X160537524Y-132611638D01*
X160507890Y-132609783D01*
X160484194Y-132603395D01*
X160459147Y-132590869D01*
X160440424Y-132579730D01*
X160387540Y-132537386D01*
X160352430Y-132485081D01*
X160334621Y-132421947D01*
X160332027Y-132381468D01*
X160334753Y-132337236D01*
X160344876Y-132301546D01*
X160361062Y-132270121D01*
X160389062Y-132231083D01*
X160416566Y-132208870D01*
X160441717Y-132204643D01*
X160455037Y-132211333D01*
G37*
G36*
X160267361Y-128556583D02*
G01*
X160273433Y-128580134D01*
X160273507Y-128580845D01*
X160276698Y-128613070D01*
X160365190Y-128616031D01*
X160416145Y-128619213D01*
X160447006Y-128624709D01*
X160457938Y-128631841D01*
X160454634Y-128638254D01*
X160437885Y-128642279D01*
X160405113Y-128644285D01*
X160368824Y-128644690D01*
X160275454Y-128644690D01*
X160275454Y-128680667D01*
X160272111Y-128707276D01*
X160261440Y-128716579D01*
X160260035Y-128716644D01*
X160252359Y-128712936D01*
X160247646Y-128699431D01*
X160245273Y-128672559D01*
X160244617Y-128628750D01*
X160244617Y-128628414D01*
X160245424Y-128583562D01*
X160248110Y-128556629D01*
X160253071Y-128545028D01*
X160257466Y-128544402D01*
X160267361Y-128556583D01*
G37*
G36*
X160642135Y-129467247D02*
G01*
X160696700Y-129468033D01*
X160736150Y-129469583D01*
X160763205Y-129472092D01*
X160780585Y-129475757D01*
X160791010Y-129480773D01*
X160793822Y-129483182D01*
X160806928Y-129502109D01*
X160809975Y-129513285D01*
X160803235Y-129531345D01*
X160793822Y-129543389D01*
X160785403Y-129548996D01*
X160771108Y-129553174D01*
X160748218Y-129556118D01*
X160714012Y-129558025D01*
X160665770Y-129559091D01*
X160600773Y-129559511D01*
X160569734Y-129559542D01*
X160494726Y-129559316D01*
X160437797Y-129558309D01*
X160396471Y-129556029D01*
X160368270Y-129551982D01*
X160350717Y-129545678D01*
X160341336Y-129536622D01*
X160337649Y-129524322D01*
X160337130Y-129513285D01*
X160338267Y-129498369D01*
X160343330Y-129487048D01*
X160354797Y-129478830D01*
X160375144Y-129473222D01*
X160406847Y-129469731D01*
X160452385Y-129467865D01*
X160514234Y-129467132D01*
X160569734Y-129467029D01*
X160642135Y-129467247D01*
G37*
G36*
X160218360Y-129460587D02*
G01*
X160241946Y-129476538D01*
X160254259Y-129504265D01*
X160254896Y-129513285D01*
X160248209Y-129539574D01*
X160238743Y-129553668D01*
X160211496Y-129568066D01*
X160180995Y-129565786D01*
X160158836Y-129551023D01*
X160143490Y-129521636D01*
X160147067Y-129491879D01*
X160160622Y-129473762D01*
X160189314Y-129458849D01*
X160218360Y-129460587D01*
G37*
G36*
X161429960Y-137884895D02*
G01*
X161396171Y-137868059D01*
X161351184Y-137844130D01*
X161293660Y-137812398D01*
X161222258Y-137772151D01*
X161135636Y-137722681D01*
X161051992Y-137674551D01*
X160645507Y-137440083D01*
X160645507Y-136626519D01*
X160882044Y-136626519D01*
X160882363Y-136965734D01*
X160882681Y-137304949D01*
X161170427Y-137469417D01*
X161240411Y-137509235D01*
X161304713Y-137545471D01*
X161361161Y-137576927D01*
X161407584Y-137602408D01*
X161441809Y-137620717D01*
X161461665Y-137630657D01*
X161465751Y-137632114D01*
X161475920Y-137626817D01*
X161501232Y-137612740D01*
X161539037Y-137591403D01*
X161586686Y-137564328D01*
X161641529Y-137533034D01*
X161700916Y-137499041D01*
X161762199Y-137463871D01*
X161822727Y-137429044D01*
X161879851Y-137396079D01*
X161930921Y-137366497D01*
X161973289Y-137341819D01*
X162004304Y-137323565D01*
X162020355Y-137313864D01*
X162043483Y-137299335D01*
X162042723Y-136626519D01*
X161755225Y-136462051D01*
X161685037Y-136422217D01*
X161620260Y-136386061D01*
X161563114Y-136354775D01*
X161515816Y-136329550D01*
X161480587Y-136311578D01*
X161459645Y-136302048D01*
X161454937Y-136300855D01*
X161443163Y-136306626D01*
X161415850Y-136321431D01*
X161375253Y-136344003D01*
X161323626Y-136373078D01*
X161263221Y-136407388D01*
X161196294Y-136445669D01*
X161162096Y-136465323D01*
X160882044Y-136626519D01*
X160645507Y-136626519D01*
X160645507Y-136489848D01*
X161047524Y-136257516D01*
X161130609Y-136209634D01*
X161208370Y-136165081D01*
X161278975Y-136124887D01*
X161340590Y-136090084D01*
X161391383Y-136061703D01*
X161429519Y-136040776D01*
X161453167Y-136028334D01*
X161460402Y-136025183D01*
X161471286Y-136030165D01*
X161498128Y-136044427D01*
X161539099Y-136066942D01*
X161592369Y-136096685D01*
X161656108Y-136132628D01*
X161728486Y-136173746D01*
X161807673Y-136219012D01*
X161875584Y-136258033D01*
X162279906Y-136490883D01*
X162279857Y-136964731D01*
X162279807Y-137438579D01*
X161888224Y-137664722D01*
X161805824Y-137712265D01*
X161728460Y-137756821D01*
X161658044Y-137797292D01*
X161596492Y-137832583D01*
X161545716Y-137861597D01*
X161507631Y-137883237D01*
X161484152Y-137896409D01*
X161477559Y-137899942D01*
X161469314Y-137900126D01*
X161465751Y-137899022D01*
X161453894Y-137895347D01*
X161429960Y-137884895D01*
G37*
G36*
X160427047Y-130284710D02*
G01*
X160397611Y-130258965D01*
X160357642Y-130205254D01*
X160335063Y-130147100D01*
X160329140Y-130087737D01*
X160330924Y-130077505D01*
X160411134Y-130077505D01*
X160411496Y-130127858D01*
X160425369Y-130173770D01*
X160429805Y-130181698D01*
X160449870Y-130204786D01*
X160478109Y-130227014D01*
X160506973Y-130243174D01*
X160526279Y-130248251D01*
X160528494Y-130238586D01*
X160530354Y-130212044D01*
X160531704Y-130172307D01*
X160532384Y-130123055D01*
X160532435Y-130104596D01*
X160532435Y-129960941D01*
X160506045Y-129970975D01*
X160467731Y-129987798D01*
X160443332Y-130005392D01*
X160426586Y-130028466D01*
X160424610Y-130032181D01*
X160411134Y-130077505D01*
X160330924Y-130077505D01*
X160339137Y-130030400D01*
X160364321Y-129978322D01*
X160403957Y-129934740D01*
X160457309Y-129902886D01*
X160480335Y-129894733D01*
X160521038Y-129883431D01*
X160551704Y-129878294D01*
X160573752Y-129881435D01*
X160588600Y-129894966D01*
X160597668Y-129920999D01*
X160602375Y-129961648D01*
X160604141Y-130019024D01*
X160604390Y-130079378D01*
X160604894Y-130135693D01*
X160606288Y-130184044D01*
X160608396Y-130221038D01*
X160611042Y-130243278D01*
X160613149Y-130248251D01*
X160632513Y-130241092D01*
X160658621Y-130222995D01*
X160685318Y-130199031D01*
X160706449Y-130174271D01*
X160710382Y-130168141D01*
X160726583Y-130122356D01*
X160729091Y-130069407D01*
X160717968Y-130017409D01*
X160709097Y-129997527D01*
X160695035Y-129962967D01*
X160696816Y-129938540D01*
X160714837Y-129920809D01*
X160718179Y-129918931D01*
X160736208Y-129915329D01*
X160754582Y-129927766D01*
X160757604Y-129930917D01*
X160784286Y-129972646D01*
X160801360Y-130026670D01*
X160807918Y-130086659D01*
X160803051Y-130146279D01*
X160793548Y-130181239D01*
X160762785Y-130238051D01*
X160718967Y-130282003D01*
X160665608Y-130312405D01*
X160606223Y-130328566D01*
X160544325Y-130329797D01*
X160526279Y-130325533D01*
X160483428Y-130315408D01*
X160427047Y-130284710D01*
G37*
G36*
X160464100Y-133173141D02*
G01*
X160411453Y-133138716D01*
X160371551Y-133093386D01*
X160340918Y-133030755D01*
X160329627Y-132966016D01*
X160331355Y-132951211D01*
X160410683Y-132951211D01*
X160417296Y-132999581D01*
X160440983Y-133046164D01*
X160481865Y-133087480D01*
X160483124Y-133088427D01*
X160515683Y-133102679D01*
X160559220Y-133108766D01*
X160605685Y-133106312D01*
X160644503Y-133096016D01*
X160682943Y-133069758D01*
X160710545Y-133030390D01*
X160725546Y-132983247D01*
X160726183Y-132933666D01*
X160712477Y-132890315D01*
X160681071Y-132850433D01*
X160637633Y-132823724D01*
X160586906Y-132811484D01*
X160533638Y-132815006D01*
X160492079Y-132830202D01*
X160448195Y-132863040D01*
X160421023Y-132904537D01*
X160410683Y-132951211D01*
X160331355Y-132951211D01*
X160337088Y-132902097D01*
X160362712Y-132841924D01*
X160405908Y-132788426D01*
X160438355Y-132761907D01*
X160482740Y-132730687D01*
X160637492Y-132730687D01*
X160697886Y-132730936D01*
X160740953Y-132731916D01*
X160769920Y-132733976D01*
X160788016Y-132737466D01*
X160798467Y-132742735D01*
X160803627Y-132748676D01*
X160808694Y-132772175D01*
X160796810Y-132792684D01*
X160771454Y-132804932D01*
X160765900Y-132805832D01*
X160739318Y-132809022D01*
X160771600Y-132854820D01*
X160798700Y-132909784D01*
X160809525Y-132971010D01*
X160803591Y-133032289D01*
X160788671Y-133072948D01*
X160751558Y-133125281D01*
X160702848Y-133163595D01*
X160646144Y-133187715D01*
X160585050Y-133197464D01*
X160559220Y-133195461D01*
X160523167Y-133192665D01*
X160464100Y-133173141D01*
G37*
G36*
X160521794Y-128732764D02*
G01*
X160522156Y-128741981D01*
X160513966Y-128757988D01*
X160499791Y-128769008D01*
X160469358Y-128779112D01*
X160428182Y-128784683D01*
X160381594Y-128785990D01*
X160334922Y-128783300D01*
X160293498Y-128776884D01*
X160262652Y-128767010D01*
X160248885Y-128756351D01*
X160246043Y-128741476D01*
X160258547Y-128735606D01*
X160282731Y-128739911D01*
X160290767Y-128742961D01*
X160334225Y-128753938D01*
X160386990Y-128757172D01*
X160439338Y-128752696D01*
X160477485Y-128742342D01*
X160504511Y-128731352D01*
X160517595Y-128728173D01*
X160521794Y-128732764D01*
G37*
G36*
X160439297Y-131715122D02*
G01*
X160389703Y-131672853D01*
X160356555Y-131623132D01*
X160334300Y-131559356D01*
X160331050Y-131503221D01*
X160410580Y-131503221D01*
X160414297Y-131546093D01*
X160430293Y-131585827D01*
X160460618Y-131624215D01*
X160503219Y-131650440D01*
X160553001Y-131663331D01*
X160604868Y-131661718D01*
X160653724Y-131644430D01*
X160662450Y-131639144D01*
X160698319Y-131604192D01*
X160720580Y-131558514D01*
X160727977Y-131507818D01*
X160719254Y-131457813D01*
X160707694Y-131433589D01*
X160673841Y-131395816D01*
X160630364Y-131372752D01*
X160581603Y-131364018D01*
X160531901Y-131369237D01*
X160485600Y-131388033D01*
X160447042Y-131420029D01*
X160423178Y-131458301D01*
X160410580Y-131503221D01*
X160331050Y-131503221D01*
X160330543Y-131494471D01*
X160344089Y-131432068D01*
X160373742Y-131375738D01*
X160418308Y-131329071D01*
X160463663Y-131301217D01*
X160487858Y-131290865D01*
X160511133Y-131283837D01*
X160538289Y-131279500D01*
X160574125Y-131277220D01*
X160623443Y-131276365D01*
X160652855Y-131276275D01*
X160708296Y-131276450D01*
X160746717Y-131277405D01*
X160771653Y-131279641D01*
X160786639Y-131283660D01*
X160795213Y-131289963D01*
X160799903Y-131297122D01*
X160806754Y-131327128D01*
X160795306Y-131351426D01*
X160767798Y-131365302D01*
X160767539Y-131365354D01*
X160737036Y-131371455D01*
X160757596Y-131393340D01*
X160788981Y-131440861D01*
X160805866Y-131497824D01*
X160807390Y-131558286D01*
X160792688Y-131616305D01*
X160790653Y-131620955D01*
X160755357Y-131675059D01*
X160705977Y-131715289D01*
X160644676Y-131740367D01*
X160573616Y-131749020D01*
X160573552Y-131749020D01*
X160553001Y-131746629D01*
X160500620Y-131740534D01*
X160439297Y-131715122D01*
G37*
G36*
X160417719Y-128205485D02*
G01*
X160460598Y-128212059D01*
X160495019Y-128223259D01*
X160516222Y-128238514D01*
X160520340Y-128247279D01*
X160521574Y-128261825D01*
X160520340Y-128264203D01*
X160509538Y-128260953D01*
X160486385Y-128252979D01*
X160475899Y-128249235D01*
X160414151Y-128235971D01*
X160348383Y-128236780D01*
X160298234Y-128248155D01*
X160266139Y-128256974D01*
X160249095Y-128254749D01*
X160244617Y-128243202D01*
X160253244Y-128235208D01*
X160274950Y-128223884D01*
X160285942Y-128219217D01*
X160325631Y-128208495D01*
X160371143Y-128204107D01*
X160417719Y-128205485D01*
G37*
G36*
X160548965Y-131140590D02*
G01*
X160493724Y-131141076D01*
X160422006Y-131140688D01*
X160384499Y-131140275D01*
X160308328Y-131139213D01*
X160250152Y-131137982D01*
X160207408Y-131136363D01*
X160177531Y-131134141D01*
X160157959Y-131131099D01*
X160146127Y-131127020D01*
X160139473Y-131121687D01*
X160137850Y-131119417D01*
X160132009Y-131097286D01*
X160137836Y-131083439D01*
X160145575Y-131075623D01*
X160159618Y-131070174D01*
X160183547Y-131066541D01*
X160220946Y-131064177D01*
X160273984Y-131062564D01*
X160321907Y-131061001D01*
X160361314Y-131058848D01*
X160388254Y-131056384D01*
X160398781Y-131053887D01*
X160398805Y-131053769D01*
X160392800Y-131042821D01*
X160377923Y-131023134D01*
X160373502Y-131017789D01*
X160341478Y-130965123D01*
X160328216Y-130907882D01*
X160330051Y-130887296D01*
X160411703Y-130887296D01*
X160412429Y-130933031D01*
X160429567Y-130980367D01*
X160461456Y-131017941D01*
X160503959Y-131044116D01*
X160552942Y-131057257D01*
X160604271Y-131055726D01*
X160653810Y-131037886D01*
X160663096Y-131032246D01*
X160697483Y-130998716D01*
X160719607Y-130954616D01*
X160728117Y-130905912D01*
X160721665Y-130858572D01*
X160708594Y-130831032D01*
X160672623Y-130791731D01*
X160629565Y-130767997D01*
X160582800Y-130758666D01*
X160535710Y-130762572D01*
X160491675Y-130778553D01*
X160454075Y-130805444D01*
X160426291Y-130842079D01*
X160411703Y-130887296D01*
X160330051Y-130887296D01*
X160333442Y-130849251D01*
X160356880Y-130792418D01*
X160397333Y-130741460D01*
X160454826Y-130698519D01*
X160517467Y-130674354D01*
X160582294Y-130668955D01*
X160646343Y-130682313D01*
X160706654Y-130714417D01*
X160739736Y-130742596D01*
X160781136Y-130797066D01*
X160805025Y-130858579D01*
X160810670Y-130923383D01*
X160797339Y-130987731D01*
X160790743Y-131003775D01*
X160757527Y-131055839D01*
X160711768Y-131099259D01*
X160661720Y-131127254D01*
X160644109Y-131132562D01*
X160621331Y-131136466D01*
X160590559Y-131139098D01*
X160552942Y-131140447D01*
X160548965Y-131140590D01*
G37*
G36*
X160772920Y-130367933D02*
G01*
X160789416Y-130381881D01*
X160806918Y-130412972D01*
X160806037Y-130451517D01*
X160800168Y-130469255D01*
X160779459Y-130499740D01*
X160746833Y-130528054D01*
X160714223Y-130545664D01*
X160694172Y-130549206D01*
X160655447Y-130552139D01*
X160599925Y-130554394D01*
X160529483Y-130555902D01*
X160446000Y-130556591D01*
X160419953Y-130556628D01*
X160337116Y-130556463D01*
X160272534Y-130555884D01*
X160223904Y-130554764D01*
X160188923Y-130552976D01*
X160165290Y-130550394D01*
X160150703Y-130546892D01*
X160142858Y-130542342D01*
X160141935Y-130541343D01*
X160133696Y-130517557D01*
X160139953Y-130491896D01*
X160157778Y-130473397D01*
X160164840Y-130470623D01*
X160181328Y-130468884D01*
X160215245Y-130467320D01*
X160263463Y-130466004D01*
X160322853Y-130465008D01*
X160390286Y-130464405D01*
X160440436Y-130464255D01*
X160523039Y-130464070D01*
X160587364Y-130463355D01*
X160635692Y-130461717D01*
X160670303Y-130458764D01*
X160693478Y-130454102D01*
X160707497Y-130447340D01*
X160714641Y-130438084D01*
X160717189Y-130425941D01*
X160717462Y-130416537D01*
X160724036Y-130392656D01*
X160739561Y-130371509D01*
X160757734Y-130361406D01*
X160759313Y-130361323D01*
X160772920Y-130367933D01*
G37*
G36*
X160400932Y-133236039D02*
G01*
X160404965Y-133241161D01*
X160408652Y-133257410D01*
X160410425Y-133286810D01*
X160410205Y-133312232D01*
X160413236Y-133365948D01*
X160425378Y-133411254D01*
X160445097Y-133443667D01*
X160458935Y-133454546D01*
X160477313Y-133458927D01*
X160512099Y-133462461D01*
X160559149Y-133464850D01*
X160614318Y-133465801D01*
X160616563Y-133465804D01*
X160685245Y-133466918D01*
X160735938Y-133470493D01*
X160771130Y-133477145D01*
X160793307Y-133487487D01*
X160804956Y-133502134D01*
X160807901Y-133513066D01*
X160803983Y-133535975D01*
X160796318Y-133546425D01*
X160783700Y-133550816D01*
X160757013Y-133553906D01*
X160714707Y-133555756D01*
X160655231Y-133556428D01*
X160577034Y-133555984D01*
X160561969Y-133555804D01*
X160342269Y-133553026D01*
X160338990Y-133518842D01*
X160339361Y-133493923D01*
X160348922Y-133481986D01*
X160356979Y-133479096D01*
X160373905Y-133474121D01*
X160378204Y-133472163D01*
X160373952Y-133463077D01*
X160363031Y-133441085D01*
X160352506Y-133420224D01*
X160331705Y-133362210D01*
X160328549Y-133307016D01*
X160342533Y-133259558D01*
X160360760Y-133237536D01*
X160382233Y-133229105D01*
X160400932Y-133236039D01*
G37*
G36*
X160401836Y-128295668D02*
G01*
X160433899Y-128297402D01*
X160452056Y-128300872D01*
X160459626Y-128306552D01*
X160460481Y-128310614D01*
X160456023Y-128319183D01*
X160440138Y-128324134D01*
X160409060Y-128326339D01*
X160391096Y-128326650D01*
X160321711Y-128327267D01*
X160385956Y-128359683D01*
X160417879Y-128377565D01*
X160440877Y-128393832D01*
X160450181Y-128405089D01*
X160450201Y-128405435D01*
X160441631Y-128416591D01*
X160419317Y-128432309D01*
X160392521Y-128446926D01*
X160334840Y-128475082D01*
X160394290Y-128480222D01*
X160428939Y-128485262D01*
X160451841Y-128492686D01*
X160457967Y-128498211D01*
X160454771Y-128504221D01*
X160438802Y-128508160D01*
X160407547Y-128510335D01*
X160358492Y-128511055D01*
X160353405Y-128511060D01*
X160304487Y-128510147D01*
X160268352Y-128507596D01*
X160248003Y-128503687D01*
X160244617Y-128500895D01*
X160253212Y-128492126D01*
X160276258Y-128477080D01*
X160309642Y-128458316D01*
X160329375Y-128448115D01*
X160414133Y-128405499D01*
X160329375Y-128363482D01*
X160292197Y-128343712D01*
X160263315Y-128325805D01*
X160246875Y-128312458D01*
X160244617Y-128308330D01*
X160250251Y-128302078D01*
X160268855Y-128298012D01*
X160302981Y-128295822D01*
X160352549Y-128295196D01*
X160401836Y-128295668D01*
G37*
G36*
X160572886Y-136355099D02*
G01*
X160164619Y-136119237D01*
X159756353Y-135883376D01*
X159756353Y-135743380D01*
X159987636Y-135743380D01*
X160272206Y-135907410D01*
X160342181Y-135947459D01*
X160406931Y-135983971D01*
X160464192Y-136015713D01*
X160511701Y-136041450D01*
X160547196Y-136059951D01*
X160568414Y-136069980D01*
X160573124Y-136071440D01*
X160585747Y-136066461D01*
X160613861Y-136052346D01*
X160655207Y-136030328D01*
X160707523Y-136001640D01*
X160768549Y-135967514D01*
X160836025Y-135929183D01*
X160874470Y-135907099D01*
X161159469Y-135742757D01*
X161159318Y-135408556D01*
X161159167Y-135074354D01*
X160874742Y-134910498D01*
X160804785Y-134870460D01*
X160740070Y-134833923D01*
X160682859Y-134802126D01*
X160635414Y-134776308D01*
X160599997Y-134757706D01*
X160578871Y-134747558D01*
X160574225Y-134746031D01*
X160561670Y-134750858D01*
X160533622Y-134764833D01*
X160492337Y-134786727D01*
X160440072Y-134815313D01*
X160379084Y-134849364D01*
X160311628Y-134887654D01*
X160272916Y-134909886D01*
X159987699Y-135074354D01*
X159987667Y-135408867D01*
X159987636Y-135743380D01*
X159756353Y-135743380D01*
X159756353Y-134934451D01*
X160164622Y-134698649D01*
X160572892Y-134462846D01*
X160984392Y-134700375D01*
X161395891Y-134937904D01*
X161395891Y-135408983D01*
X161395728Y-135505376D01*
X161395261Y-135595331D01*
X161394524Y-135676788D01*
X161393550Y-135747689D01*
X161392372Y-135805974D01*
X161391024Y-135849585D01*
X161389539Y-135876461D01*
X161388182Y-135884618D01*
X161377951Y-135890543D01*
X161351728Y-135905693D01*
X161311329Y-135929019D01*
X161258568Y-135959475D01*
X161195261Y-135996013D01*
X161123223Y-136037583D01*
X161044271Y-136083140D01*
X160976679Y-136122137D01*
X160573124Y-136354962D01*
X160572886Y-136355099D01*
G37*
G36*
X160516077Y-134157723D02*
G01*
X160496998Y-134153135D01*
X160479820Y-134146838D01*
X160463663Y-134139599D01*
X160409368Y-134103744D01*
X160367226Y-134054510D01*
X160339611Y-133996174D01*
X160328893Y-133933012D01*
X160330309Y-133907686D01*
X160412452Y-133907686D01*
X160414464Y-133957870D01*
X160435763Y-134005653D01*
X160475755Y-134048868D01*
X160484506Y-134055707D01*
X160518678Y-134070708D01*
X160563269Y-134076340D01*
X160610338Y-134072486D01*
X160651946Y-134059034D01*
X160653671Y-134058144D01*
X160691913Y-134027203D01*
X160717066Y-133984603D01*
X160727814Y-133935538D01*
X160722840Y-133885202D01*
X160706932Y-133847957D01*
X160678944Y-133817769D01*
X160638604Y-133792718D01*
X160594106Y-133777184D01*
X160569088Y-133774256D01*
X160522093Y-133783059D01*
X160476660Y-133807233D01*
X160440094Y-133842410D01*
X160430316Y-133857264D01*
X160412452Y-133907686D01*
X160330309Y-133907686D01*
X160330738Y-133900024D01*
X160349351Y-133832627D01*
X160383791Y-133775893D01*
X160431565Y-133732045D01*
X160490180Y-133703305D01*
X160557141Y-133691898D01*
X160564320Y-133691796D01*
X160636775Y-133700009D01*
X160698555Y-133723128D01*
X160748138Y-133758873D01*
X160784004Y-133804964D01*
X160804630Y-133859120D01*
X160808495Y-133919061D01*
X160794077Y-133982507D01*
X160779686Y-134014548D01*
X160749397Y-134072128D01*
X160857456Y-134072128D01*
X160904476Y-134073109D01*
X160945329Y-134075755D01*
X160974666Y-134079622D01*
X160985398Y-134082769D01*
X161001197Y-134101308D01*
X161004496Y-134127253D01*
X160994244Y-134150936D01*
X160992945Y-134152306D01*
X160981475Y-134156721D01*
X160956004Y-134160073D01*
X160915030Y-134162438D01*
X160857049Y-134163892D01*
X160780557Y-134164509D01*
X160748813Y-134164541D01*
X160673588Y-134164420D01*
X160615811Y-134163950D01*
X160572374Y-134162858D01*
X160563269Y-134162297D01*
X160540165Y-134160873D01*
X160516077Y-134157723D01*
G37*
G36*
X159621533Y-137885229D02*
G01*
X159588176Y-137868645D01*
X159543734Y-137845026D01*
X159486855Y-137813658D01*
X159416185Y-137773823D01*
X159330373Y-137724806D01*
X159242852Y-137674425D01*
X158836361Y-137439835D01*
X158836361Y-136626519D01*
X159072898Y-136626519D01*
X159073217Y-136965734D01*
X159073535Y-137304949D01*
X159361281Y-137469417D01*
X159431265Y-137509235D01*
X159495567Y-137545471D01*
X159552015Y-137576927D01*
X159598438Y-137602408D01*
X159632663Y-137620717D01*
X159652519Y-137630657D01*
X159656605Y-137632114D01*
X159666774Y-137626817D01*
X159692086Y-137612740D01*
X159729891Y-137591403D01*
X159777540Y-137564328D01*
X159832383Y-137533034D01*
X159891770Y-137499041D01*
X159953053Y-137463871D01*
X160013581Y-137429044D01*
X160070705Y-137396079D01*
X160121775Y-137366497D01*
X160164143Y-137341819D01*
X160195158Y-137323565D01*
X160211209Y-137313864D01*
X160234337Y-137299335D01*
X160234043Y-136962927D01*
X160233748Y-136626519D01*
X159946086Y-136462051D01*
X159875877Y-136422226D01*
X159811084Y-136386077D01*
X159753925Y-136354795D01*
X159706617Y-136329571D01*
X159671380Y-136311594D01*
X159650431Y-136302055D01*
X159645713Y-136300855D01*
X159633959Y-136306626D01*
X159606665Y-136321430D01*
X159566084Y-136344002D01*
X159514471Y-136373075D01*
X159454078Y-136407384D01*
X159387158Y-136445663D01*
X159352950Y-136465323D01*
X159072898Y-136626519D01*
X158836361Y-136626519D01*
X158836361Y-136489583D01*
X159234681Y-136259953D01*
X159317773Y-136212316D01*
X159395902Y-136168034D01*
X159467168Y-136128147D01*
X159529672Y-136093694D01*
X159581515Y-136065715D01*
X159620799Y-136045250D01*
X159645625Y-136033338D01*
X159653560Y-136030640D01*
X159666503Y-136035718D01*
X159695300Y-136050122D01*
X159738052Y-136072808D01*
X159792862Y-136102732D01*
X159857832Y-136138850D01*
X159931063Y-136180117D01*
X160010659Y-136225491D01*
X160072439Y-136261038D01*
X160470760Y-136491120D01*
X160470741Y-136964849D01*
X160470722Y-137438579D01*
X160079298Y-137664722D01*
X159996912Y-137712274D01*
X159919554Y-137756837D01*
X159849138Y-137797314D01*
X159787580Y-137832607D01*
X159736795Y-137861620D01*
X159698698Y-137883256D01*
X159675204Y-137896418D01*
X159668608Y-137899940D01*
X159660397Y-137900160D01*
X159656605Y-137898999D01*
X159645156Y-137895495D01*
X159621533Y-137885229D01*
G37*
G36*
X160557508Y-129330318D02*
G01*
X160495944Y-129318837D01*
X160440328Y-129292658D01*
X160393292Y-129253607D01*
X160357468Y-129203509D01*
X160335487Y-129144191D01*
X160331461Y-129095418D01*
X160411199Y-129095418D01*
X160420095Y-129142776D01*
X160444577Y-129185281D01*
X160484447Y-129218744D01*
X160492049Y-129222881D01*
X160535565Y-129236811D01*
X160584471Y-129240046D01*
X160629288Y-129232362D01*
X160643448Y-129226443D01*
X160674397Y-129205027D01*
X160702369Y-129176996D01*
X160719875Y-129149941D01*
X160720481Y-129148372D01*
X160726602Y-129112107D01*
X160724402Y-129068178D01*
X160714676Y-129027351D01*
X160710907Y-129018353D01*
X160683651Y-128983195D01*
X160643287Y-128958184D01*
X160595227Y-128944545D01*
X160544884Y-128943502D01*
X160497672Y-128956279D01*
X160479989Y-128966121D01*
X160440949Y-129002902D01*
X160418084Y-129047397D01*
X160411199Y-129095418D01*
X160331461Y-129095418D01*
X160329980Y-129077478D01*
X160332115Y-129054954D01*
X160349957Y-128992227D01*
X160382741Y-128940118D01*
X160427302Y-128899509D01*
X160480475Y-128871283D01*
X160539094Y-128856319D01*
X160599996Y-128855501D01*
X160660014Y-128869709D01*
X160715984Y-128899826D01*
X160756421Y-128936761D01*
X160787818Y-128987017D01*
X160805819Y-129047977D01*
X160809396Y-129113924D01*
X160799069Y-129174071D01*
X160780234Y-129212912D01*
X160748959Y-129252962D01*
X160711545Y-129286971D01*
X160687958Y-129301880D01*
X160622390Y-129325274D01*
X160584471Y-129328222D01*
X160557508Y-129330318D01*
G37*
G36*
X160784841Y-129691814D02*
G01*
X160807514Y-129713693D01*
X160819670Y-129741203D01*
X160820254Y-129748115D01*
X160812847Y-129773961D01*
X160801456Y-129789232D01*
X160777620Y-129802782D01*
X160760339Y-129806244D01*
X160733645Y-129797670D01*
X160710202Y-129776812D01*
X160697515Y-129750965D01*
X160696903Y-129744568D01*
X160705605Y-129718958D01*
X160726607Y-129696054D01*
X160752256Y-129683512D01*
X160758578Y-129682893D01*
X160784841Y-129691814D01*
G37*
%TO.C,J3*%
X220013965Y-52220540D02*
X171693965Y-52220540D01*
X221283965Y-52220540D02*
X222613965Y-52220540D01*
X171693965Y-52220540D02*
X171693965Y-57420540D01*
X220013965Y-54820540D02*
X222613965Y-54820540D01*
X222613965Y-57420540D02*
X171693965Y-57420540D01*
X222613965Y-52220540D02*
X222613965Y-53550540D01*
X220013965Y-52220540D02*
X220013965Y-54820540D01*
X222613965Y-54820540D02*
X222613965Y-57420540D01*
%TO.C,JP1*%
X208740872Y-85265821D02*
X208740872Y-87265821D01*
X208740872Y-87265821D02*
X205940872Y-87265821D01*
X205940872Y-85265821D02*
X208740872Y-85265821D01*
X205940872Y-87265821D02*
X205940872Y-85265821D01*
%TO.C,R2*%
X198680175Y-132540560D02*
X198226047Y-132540560D01*
X198680175Y-131070560D02*
X198226047Y-131070560D01*
%TO.C,C5*%
X186803111Y-115563808D02*
X186803111Y-116086312D01*
X188273111Y-115563808D02*
X188273111Y-116086312D01*
%TO.C,D3*%
X136047111Y-136707600D02*
X133187111Y-136707600D01*
X136047111Y-138627600D02*
X136047111Y-136707600D01*
X133187111Y-138627600D02*
X136047111Y-138627600D01*
D11*
%TO.C,SW1*%
X218898111Y-111025560D02*
X218898111Y-117025560D01*
D14*
X222498111Y-116425560D02*
X222498111Y-116425560D01*
D11*
X212898111Y-117025560D02*
X212898111Y-111025560D01*
D14*
X222498111Y-116225560D02*
X222498111Y-116225560D01*
D11*
X218898111Y-117025560D02*
X212898111Y-117025560D01*
X212898111Y-111025560D02*
X218898111Y-111025560D01*
D14*
X222498111Y-116425560D02*
G75*
G03*
X222498111Y-116225560I0J100000D01*
G01*
X222498111Y-116225560D02*
G75*
G03*
X222498111Y-116425560I0J-100000D01*
G01*
D13*
%TO.C,C9*%
X223633111Y-86346812D02*
X223633111Y-85824308D01*
X225103111Y-86346812D02*
X225103111Y-85824308D01*
D10*
%TO.C,U10*%
X216262611Y-90823560D02*
X221762611Y-90823560D01*
X216262611Y-96333560D02*
X216262611Y-96033560D01*
X221762611Y-96333560D02*
X221762611Y-96033560D01*
X216262611Y-96333560D02*
X221762611Y-96333560D01*
X221762611Y-90823560D02*
X221762611Y-91123560D01*
X216262611Y-90823560D02*
X216262611Y-91028560D01*
X216262611Y-91028560D02*
X214512611Y-91028560D01*
D13*
%TO.C,C6*%
X128309111Y-78499848D02*
X128309111Y-79022352D01*
X126839111Y-78499848D02*
X126839111Y-79022352D01*
%TO.C,J4*%
X179608640Y-132437560D02*
X179062111Y-132437560D01*
X179062111Y-132437560D02*
X179062111Y-128692560D01*
X181282111Y-128692560D02*
X180479641Y-128692560D01*
X181282111Y-133957560D02*
X180172111Y-133957560D01*
X179864581Y-128692560D02*
X179062111Y-128692560D01*
X181282111Y-132437560D02*
X181282111Y-128692560D01*
X181282111Y-133197560D02*
X181282111Y-133957560D01*
X181282111Y-132437560D02*
X180735582Y-132437560D01*
%TO.C,C3*%
X168714859Y-124486600D02*
X169237363Y-124486600D01*
X168714859Y-125956600D02*
X169237363Y-125956600D01*
%TO.C,JP1*%
X149284872Y-87317861D02*
X149284872Y-89317861D01*
X149284872Y-89317861D02*
X146484872Y-89317861D01*
X146484872Y-87317861D02*
X149284872Y-87317861D01*
X146484872Y-89317861D02*
X146484872Y-87317861D01*
%TO.C,J2*%
X183464965Y-65198540D02*
X183464965Y-64598540D01*
X181864965Y-64598540D02*
X181864965Y-65198540D01*
X175294965Y-60708540D02*
X175044965Y-60178540D01*
X186584965Y-65198540D02*
X186584965Y-59178540D01*
X183464965Y-64598540D02*
X181864965Y-64598540D01*
X186584965Y-59178540D02*
X173664965Y-59178540D01*
X180924965Y-64598540D02*
X179324965Y-64598540D01*
X185204965Y-60178540D02*
X184954965Y-60708540D01*
X184954965Y-59178540D02*
X184954965Y-60178540D01*
X175844965Y-65198540D02*
X175844965Y-64598540D01*
X175844965Y-64598540D02*
X174244965Y-64598540D01*
X180924965Y-65198540D02*
X180924965Y-64598540D01*
X186874965Y-64168540D02*
X186874965Y-60168540D01*
X184954965Y-60708540D02*
X175294965Y-60708540D01*
X186004965Y-65198540D02*
X186004965Y-64598540D01*
X176784965Y-64598540D02*
X176784965Y-65198540D01*
X186004965Y-64598540D02*
X184404965Y-64598540D01*
X173664965Y-65198540D02*
X186584965Y-65198540D01*
X184404965Y-64598540D02*
X184404965Y-65198540D01*
X178384965Y-64598540D02*
X176784965Y-64598540D01*
X173664965Y-59178540D02*
X173664965Y-65198540D01*
X185204965Y-59178540D02*
X185204965Y-60178540D01*
X179324965Y-64598540D02*
X179324965Y-65198540D01*
X175294965Y-59178540D02*
X175294965Y-60178540D01*
X175044965Y-60178540D02*
X175044965Y-59178540D01*
X185204965Y-60178540D02*
X175044965Y-60178540D01*
X178384965Y-65198540D02*
X178384965Y-64598540D01*
X174244965Y-64598540D02*
X174244965Y-65198540D01*
%TO.C,C7*%
X154483863Y-127988600D02*
X153961359Y-127988600D01*
X154483863Y-126518600D02*
X153961359Y-126518600D01*
D14*
%TO.C,IC1*%
X138503111Y-96465100D02*
X138503111Y-99665100D01*
X138503111Y-99665100D02*
X129853111Y-99665100D01*
X129853111Y-96465100D02*
X138503111Y-96465100D01*
X129853111Y-99665100D02*
X129853111Y-96465100D01*
X138663111Y-94565100D02*
X138663111Y-96115100D01*
%TO.C,IC5*%
X214765111Y-83844560D02*
X216190111Y-83844560D01*
X216540111Y-83894560D02*
X218840111Y-83894560D01*
X218840111Y-86894560D02*
X216540111Y-86894560D01*
X218840111Y-83894560D02*
X218840111Y-86894560D01*
X216540111Y-86894560D02*
X216540111Y-83894560D01*
D13*
%TO.C,A1*%
X172154111Y-75053600D02*
X172154111Y-141353600D01*
X172154111Y-141353600D02*
X168974111Y-141353600D01*
X120204111Y-75053600D02*
X131634111Y-75053600D01*
X168974111Y-141353600D02*
X159834111Y-141353600D01*
X169484111Y-75053600D02*
X172154111Y-75053600D01*
X118554111Y-141353600D02*
X118554111Y-76703600D01*
X118554111Y-76703600D02*
X120204111Y-75053600D01*
X166944111Y-72513600D02*
X169484111Y-75053600D01*
X131634111Y-75053600D02*
X134174111Y-72513600D01*
X134174111Y-72513600D02*
X166944111Y-72513600D01*
X128084111Y-141353600D02*
X118554111Y-141353600D01*
X159834111Y-141353600D02*
X128084111Y-141353600D01*
%TO.C,C9*%
X164177111Y-88398852D02*
X164177111Y-87876348D01*
X165647111Y-88398852D02*
X165647111Y-87876348D01*
%TO.C,C8*%
X164164359Y-92174600D02*
X164686863Y-92174600D01*
X164164359Y-90704600D02*
X164686863Y-90704600D01*
%TO.C,C1*%
X223504111Y-72427560D02*
X223504111Y-75377560D01*
X216048548Y-72427560D02*
X223504111Y-72427560D01*
X214984111Y-73491997D02*
X216048548Y-72427560D01*
X223504111Y-80947560D02*
X223504111Y-77997560D01*
X214984111Y-79883123D02*
X214984111Y-77997560D01*
X214984111Y-79883123D02*
X216048548Y-80947560D01*
X216048548Y-80947560D02*
X223504111Y-80947560D01*
X214984111Y-73491997D02*
X214984111Y-75377560D01*
%TO.C,R5*%
X211235872Y-97034496D02*
X211235872Y-97488624D01*
X209765872Y-97034496D02*
X209765872Y-97488624D01*
%TO.C,R6*%
X215975547Y-88398560D02*
X216429675Y-88398560D01*
X215975547Y-89868560D02*
X216429675Y-89868560D01*
%TO.C,J3*%
X99244111Y-66701560D02*
X99244111Y-64101560D01*
X101844111Y-64101560D02*
X101844111Y-115021560D01*
X96644111Y-66701560D02*
X96644111Y-115021560D01*
X96644111Y-115021560D02*
X101844111Y-115021560D01*
X96644111Y-65431560D02*
X96644111Y-64101560D01*
X96644111Y-64101560D02*
X97974111Y-64101560D01*
X99244111Y-64101560D02*
X101844111Y-64101560D01*
X96644111Y-66701560D02*
X99244111Y-66701560D01*
%TO.C,D1*%
X195503111Y-127035560D02*
X192643111Y-127035560D01*
X192643111Y-128955560D02*
X195503111Y-128955560D01*
X195503111Y-128955560D02*
X195503111Y-127035560D01*
%TO.C,J7*%
X153558892Y-75691600D02*
G75*
G03*
X153558892Y-75691600I-1600781J0D01*
G01*
%TD*%
M02*
