  0
SECTION
  2
HEADER
  9
$ANGBASE
  50
0.0
  9
$ANGDIR
  70
1
  9
$MEASUREMENT
  70
1
  0
ENDSEC
  0
SECTION
  2
TABLES
  0
TABLE
  2
LTYPE
  70
4
  0
LTYPE
  5
40F
  2
CONTINUOUS
  70
0
  3
Solid line
  72
65
  73
0
  40
0.0
  0
LTYPE
  5
410
  2
DASHDOT
 70
0
  3
Dash Dot ____ _ ____ _
 72
65
 73
4
 40
2.0
 49
1.25
 49
-0.25
 49
0.25
 49
-0.25
  0
LTYPE
  5
411
  2
DASHED
 70
0
  3
Dashed __ __ __ __ __
 72
65
 73
2
 40
0.75
 49
0.5
 49
-0.25
  0
LTYPE
  5
43B
  2
DOTTED
 70
0
  3
Dotted .  .  .  .
 72
65
 73
2
 40
0.2
 49
0.0
 49
-0.2
  0
ENDTAB
  0
TABLE
  2
STYLE
  70
4
  0
STYLE
  2
KICAD
  70
0
  40
0
  41
1
  42
1
  50
0
  71
0
  3
isocp.shx
  0
STYLE
  2
KICADB
  70
0
  40
0
  41
1
  42
1
  50
0
  71
0
  3
isocp.shx
  0
STYLE
  2
KICADI
  70
0
  40
0
  41
1
  42
1
  50
15
  71
0
  3
isocp.shx
  0
STYLE
  2
KICADBI
  70
0
  40
0
  41
1
  42
1
  50
15
  71
0
  3
isocp.shx
  0
ENDTAB
  0
TABLE
  2
LAYER
  70
1
  0
LAYER
  2
BLACK
  70
0
  62
7
  6
CONTINUOUS
  0
ENDTAB
  0
ENDSEC
  0
SECTION
  2
ENTITIES
0
LINE
8
BLACK
6
CONTINUOUS
10
155.992
20
-54.776
11
91.102
21
-54.786
0
LINE
8
BLACK
6
CONTINUOUS
10
156.012
20
-54.796
11
155.992
21
-54.776
0
LINE
8
BLACK
6
CONTINUOUS
10
157.832
20
-56.606
11
156.012
21
-54.796
0
LINE
8
BLACK
6
CONTINUOUS
10
157.812
20
-68.036
11
157.832
21
-56.606
0
LINE
8
BLACK
6
CONTINUOUS
10
160.352
20
-70.576
11
157.812
21
-68.036
0
LINE
8
BLACK
6
CONTINUOUS
10
160.352
20
-103.416
11
160.352
21
-70.576
0
LINE
8
BLACK
6
CONTINUOUS
10
157.822
20
-105.966
11
160.352
21
-103.416
0
LINE
8
BLACK
6
CONTINUOUS
10
157.822
20
-108.786
11
157.822
21
-105.966
0
LINE
8
BLACK
6
CONTINUOUS
10
157.802
20
-108.786
11
157.822
21
-108.786
0
LINE
8
BLACK
6
CONTINUOUS
10
91.102
20
-108.796
11
157.802
21
-108.786
0
LINE
8
BLACK
6
CONTINUOUS
10
91.102
20
-108.776
11
91.102
21
-108.796
0
LINE
8
BLACK
6
CONTINUOUS
10
91.102
20
-54.786
11
91.102
21
-108.776
0
LINE
8
BLACK
6
CONTINUOUS
10
93.6282
20
-111.951
11
93.6282
21
-109.951
0
LINE
8
BLACK
6
CONTINUOUS
10
93.6282
20
-109.951
11
94.1044
21
-109.951
0
LINE
8
BLACK
6
CONTINUOUS
10
94.1044
20
-109.951
11
94.3901
21
-110.046
0
LINE
8
BLACK
6
CONTINUOUS
10
94.3901
20
-110.046
11
94.5806
21
-110.236
0
LINE
8
BLACK
6
CONTINUOUS
10
94.5806
20
-110.236
11
94.6758
21
-110.427
0
LINE
8
BLACK
6
CONTINUOUS
10
94.6758
20
-110.427
11
94.771
21
-110.808
0
LINE
8
BLACK
6
CONTINUOUS
10
94.771
20
-110.808
11
94.771
21
-111.094
0
LINE
8
BLACK
6
CONTINUOUS
10
94.771
20
-111.094
11
94.6758
21
-111.475
0
LINE
8
BLACK
6
CONTINUOUS
10
94.6758
20
-111.475
11
94.5806
21
-111.665
0
LINE
8
BLACK
6
CONTINUOUS
10
94.5806
20
-111.665
11
94.3901
21
-111.856
0
LINE
8
BLACK
6
CONTINUOUS
10
94.3901
20
-111.856
11
94.1044
21
-111.951
0
LINE
8
BLACK
6
CONTINUOUS
10
94.1044
20
-111.951
11
93.6282
21
-111.951
0
LINE
8
BLACK
6
CONTINUOUS
10
95.6282
20
-111.951
11
95.6282
21
-110.617
0
LINE
8
BLACK
6
CONTINUOUS
10
95.6282
20
-110.998
11
95.7234
21
-110.808
0
LINE
8
BLACK
6
CONTINUOUS
10
95.7234
20
-110.808
11
95.8187
21
-110.713
0
LINE
8
BLACK
6
CONTINUOUS
10
95.8187
20
-110.713
11
96.0091
21
-110.617
0
LINE
8
BLACK
6
CONTINUOUS
10
96.0091
20
-110.617
11
96.1996
21
-110.617
0
LINE
8
BLACK
6
CONTINUOUS
10
96.8663
20
-111.951
11
96.8663
21
-110.617
0
LINE
8
BLACK
6
CONTINUOUS
10
96.8663
20
-109.951
11
96.771
21
-110.046
0
LINE
8
BLACK
6
CONTINUOUS
10
96.771
20
-110.046
11
96.8663
21
-110.141
0
LINE
8
BLACK
6
CONTINUOUS
10
96.8663
20
-110.141
11
96.9615
21
-110.046
0
LINE
8
BLACK
6
CONTINUOUS
10
96.9615
20
-110.046
11
96.8663
21
-109.951
0
LINE
8
BLACK
6
CONTINUOUS
10
96.8663
20
-109.951
11
96.8663
21
-110.141
0
LINE
8
BLACK
6
CONTINUOUS
10
98.1044
20
-111.951
11
97.9139
21
-111.856
0
LINE
8
BLACK
6
CONTINUOUS
10
97.9139
20
-111.856
11
97.8187
21
-111.665
0
LINE
8
BLACK
6
CONTINUOUS
10
97.8187
20
-111.665
11
97.8187
21
-109.951
0
LINE
8
BLACK
6
CONTINUOUS
10
99.152
20
-111.951
11
98.9615
21
-111.856
0
LINE
8
BLACK
6
CONTINUOUS
10
98.9615
20
-111.856
11
98.8663
21
-111.665
0
LINE
8
BLACK
6
CONTINUOUS
10
98.8663
20
-111.665
11
98.8663
21
-109.951
0
LINE
8
BLACK
6
CONTINUOUS
10
101.438
20
-111.951
11
101.438
21
-109.951
0
LINE
8
BLACK
6
CONTINUOUS
10
101.438
20
-109.951
11
102.104
21
-111.379
0
LINE
8
BLACK
6
CONTINUOUS
10
102.104
20
-111.379
11
102.771
21
-109.951
0
LINE
8
BLACK
6
CONTINUOUS
10
102.771
20
-109.951
11
102.771
21
-111.951
0
LINE
8
BLACK
6
CONTINUOUS
10
104.581
20
-111.951
11
104.581
21
-110.903
0
LINE
8
BLACK
6
CONTINUOUS
10
104.581
20
-110.903
11
104.485
21
-110.713
0
LINE
8
BLACK
6
CONTINUOUS
10
104.485
20
-110.713
11
104.295
21
-110.617
0
LINE
8
BLACK
6
CONTINUOUS
10
104.295
20
-110.617
11
103.914
21
-110.617
0
LINE
8
BLACK
6
CONTINUOUS
10
103.914
20
-110.617
11
103.723
21
-110.713
0
LINE
8
BLACK
6
CONTINUOUS
10
104.581
20
-111.856
11
104.39
21
-111.951
0
LINE
8
BLACK
6
CONTINUOUS
10
104.39
20
-111.951
11
103.914
21
-111.951
0
LINE
8
BLACK
6
CONTINUOUS
10
103.914
20
-111.951
11
103.723
21
-111.856
0
LINE
8
BLACK
6
CONTINUOUS
10
103.723
20
-111.856
11
103.628
21
-111.665
0
LINE
8
BLACK
6
CONTINUOUS
10
103.628
20
-111.665
11
103.628
21
-111.475
0
LINE
8
BLACK
6
CONTINUOUS
10
103.628
20
-111.475
11
103.723
21
-111.284
0
LINE
8
BLACK
6
CONTINUOUS
10
103.723
20
-111.284
11
103.914
21
-111.189
0
LINE
8
BLACK
6
CONTINUOUS
10
103.914
20
-111.189
11
104.39
21
-111.189
0
LINE
8
BLACK
6
CONTINUOUS
10
104.39
20
-111.189
11
104.581
21
-111.094
0
LINE
8
BLACK
6
CONTINUOUS
10
105.533
20
-110.617
11
105.533
21
-112.617
0
LINE
8
BLACK
6
CONTINUOUS
10
105.533
20
-110.713
11
105.723
21
-110.617
0
LINE
8
BLACK
6
CONTINUOUS
10
105.723
20
-110.617
11
106.104
21
-110.617
0
LINE
8
BLACK
6
CONTINUOUS
10
106.104
20
-110.617
11
106.295
21
-110.713
0
LINE
8
BLACK
6
CONTINUOUS
10
106.295
20
-110.713
11
106.39
21
-110.808
0
LINE
8
BLACK
6
CONTINUOUS
10
106.39
20
-110.808
11
106.485
21
-110.998
0
LINE
8
BLACK
6
CONTINUOUS
10
106.485
20
-110.998
11
106.485
21
-111.57
0
LINE
8
BLACK
6
CONTINUOUS
10
106.485
20
-111.57
11
106.39
21
-111.76
0
LINE
8
BLACK
6
CONTINUOUS
10
106.39
20
-111.76
11
106.295
21
-111.856
0
LINE
8
BLACK
6
CONTINUOUS
10
106.295
20
-111.856
11
106.104
21
-111.951
0
LINE
8
BLACK
6
CONTINUOUS
10
106.104
20
-111.951
11
105.723
21
-111.951
0
LINE
8
BLACK
6
CONTINUOUS
10
105.723
20
-111.951
11
105.533
21
-111.856
0
LINE
8
BLACK
6
CONTINUOUS
10
107.342
20
-111.76
11
107.438
21
-111.856
0
LINE
8
BLACK
6
CONTINUOUS
10
107.438
20
-111.856
11
107.342
21
-111.951
0
LINE
8
BLACK
6
CONTINUOUS
10
107.342
20
-111.951
11
107.247
21
-111.856
0
LINE
8
BLACK
6
CONTINUOUS
10
107.247
20
-111.856
11
107.342
21
-111.76
0
LINE
8
BLACK
6
CONTINUOUS
10
107.342
20
-111.76
11
107.342
21
-111.951
0
LINE
8
BLACK
6
CONTINUOUS
10
107.342
20
-110.713
11
107.438
21
-110.808
0
LINE
8
BLACK
6
CONTINUOUS
10
107.438
20
-110.808
11
107.342
21
-110.903
0
LINE
8
BLACK
6
CONTINUOUS
10
107.342
20
-110.903
11
107.247
21
-110.808
0
LINE
8
BLACK
6
CONTINUOUS
10
107.247
20
-110.808
11
107.342
21
-110.713
0
LINE
8
BLACK
6
CONTINUOUS
10
107.342
20
-110.713
11
107.342
21
-110.903
  0
ENDSEC
  0
EOF
