  0
SECTION
  2
HEADER
  9
$ANGBASE
  50
0.0
  9
$ANGDIR
  70
1
  9
$MEASUREMENT
  70
1
  0
ENDSEC
  0
SECTION
  2
TABLES
  0
TABLE
  2
LTYPE
  70
4
  0
LTYPE
  5
40F
  2
CONTINUOUS
  70
0
  3
Solid line
  72
65
  73
0
  40
0.0
  0
LTYPE
  5
410
  2
DASHDOT
 70
0
  3
Dash Dot ____ _ ____ _
 72
65
 73
4
 40
2.0
 49
1.25
 49
-0.25
 49
0.25
 49
-0.25
  0
LTYPE
  5
411
  2
DASHED
 70
0
  3
Dashed __ __ __ __ __
 72
65
 73
2
 40
0.75
 49
0.5
 49
-0.25
  0
LTYPE
  5
43B
  2
DOTTED
 70
0
  3
Dotted .  .  .  .
 72
65
 73
2
 40
0.2
 49
0.0
 49
-0.2
  0
ENDTAB
  0
TABLE
  2
STYLE
  70
4
  0
STYLE
  2
KICAD
  70
0
  40
0
  41
1
  42
1
  50
0
  71
0
  3
isocp.shx
  0
STYLE
  2
KICADB
  70
0
  40
0
  41
1
  42
1
  50
0
  71
0
  3
isocp.shx
  0
STYLE
  2
KICADI
  70
0
  40
0
  41
1
  42
1
  50
15
  71
0
  3
isocp.shx
  0
STYLE
  2
KICADBI
  70
0
  40
0
  41
1
  42
1
  50
15
  71
0
  3
isocp.shx
  0
ENDTAB
  0
TABLE
  2
LAYER
  70
1
  0
LAYER
  2
BLACK
  70
0
  62
7
  6
CONTINUOUS
  0
ENDTAB
  0
ENDSEC
  0
SECTION
  2
ENTITIES
0
LINE
8
BLACK
6
CONTINUOUS
10
155.992
20
-54.776
11
91.102
21
-54.786
0
LINE
8
BLACK
6
CONTINUOUS
10
156.012
20
-54.796
11
155.992
21
-54.776
0
LINE
8
BLACK
6
CONTINUOUS
10
157.832
20
-56.606
11
156.012
21
-54.796
0
LINE
8
BLACK
6
CONTINUOUS
10
157.812
20
-68.036
11
157.832
21
-56.606
0
LINE
8
BLACK
6
CONTINUOUS
10
160.352
20
-70.576
11
157.812
21
-68.036
0
LINE
8
BLACK
6
CONTINUOUS
10
160.352
20
-103.416
11
160.352
21
-70.576
0
LINE
8
BLACK
6
CONTINUOUS
10
157.822
20
-105.966
11
160.352
21
-103.416
0
LINE
8
BLACK
6
CONTINUOUS
10
157.822
20
-108.786
11
157.822
21
-105.966
0
LINE
8
BLACK
6
CONTINUOUS
10
157.802
20
-108.786
11
157.822
21
-108.786
0
LINE
8
BLACK
6
CONTINUOUS
10
91.102
20
-108.796
11
157.802
21
-108.786
0
LINE
8
BLACK
6
CONTINUOUS
10
91.102
20
-108.776
11
91.102
21
-108.796
0
LINE
8
BLACK
6
CONTINUOUS
10
91.102
20
-54.786
11
91.102
21
-108.776
0
LINE
8
BLACK
6
CONTINUOUS
10
92.9696
20
-78.2884
11
93.6696
21
-78.9884
0
LINE
8
BLACK
6
CONTINUOUS
10
93.6696
20
-78.2884
11
92.9696
21
-78.9884
0
LINE
8
BLACK
6
CONTINUOUS
10
94.9108
20
-93.5753
11
95.6108
21
-94.2753
0
LINE
8
BLACK
6
CONTINUOUS
10
95.6108
20
-93.5753
11
94.9108
21
-94.2753
0
LINE
8
BLACK
6
CONTINUOUS
10
96.2209
20
-80.422
11
96.9209
21
-81.122
0
LINE
8
BLACK
6
CONTINUOUS
10
96.9209
20
-80.422
11
96.2209
21
-81.122
0
LINE
8
BLACK
6
CONTINUOUS
10
97.44
20
-65.182
11
98.14
21
-65.882
0
LINE
8
BLACK
6
CONTINUOUS
10
98.14
20
-65.182
11
97.44
21
-65.882
0
LINE
8
BLACK
6
CONTINUOUS
10
99.98
20
-64.928
11
100.68
21
-65.628
0
LINE
8
BLACK
6
CONTINUOUS
10
100.68
20
-64.928
11
99.98
21
-65.628
0
LINE
8
BLACK
6
CONTINUOUS
10
99.98
20
-82.962
11
100.68
21
-83.662
0
LINE
8
BLACK
6
CONTINUOUS
10
100.68
20
-82.962
11
99.98
21
-83.662
0
LINE
8
BLACK
6
CONTINUOUS
10
101.529
20
-79.152
11
102.23
21
-79.852
0
LINE
8
BLACK
6
CONTINUOUS
10
102.23
20
-79.152
11
101.529
21
-79.852
0
LINE
8
BLACK
6
CONTINUOUS
10
101.758
20
-81.438
11
102.458
21
-82.138
0
LINE
8
BLACK
6
CONTINUOUS
10
102.458
20
-81.438
11
101.758
21
-82.138
0
LINE
8
BLACK
6
CONTINUOUS
10
102.774
20
-64.674
11
103.474
21
-65.374
0
LINE
8
BLACK
6
CONTINUOUS
10
103.474
20
-64.674
11
102.774
21
-65.374
0
LINE
8
BLACK
6
CONTINUOUS
10
104.105
20
-80.3744
11
104.805
21
-81.0744
0
LINE
8
BLACK
6
CONTINUOUS
10
104.805
20
-80.3744
11
104.105
21
-81.0744
0
LINE
8
BLACK
6
CONTINUOUS
10
105.06
20
-67.976
11
105.76
21
-68.676
0
LINE
8
BLACK
6
CONTINUOUS
10
105.76
20
-67.976
11
105.06
21
-68.676
0
LINE
8
BLACK
6
CONTINUOUS
10
105.404
20
-83.3532
11
106.104
21
-84.0532
0
LINE
8
BLACK
6
CONTINUOUS
10
106.104
20
-83.3532
11
105.404
21
-84.0532
0
LINE
8
BLACK
6
CONTINUOUS
10
105.893
20
-73.2095
11
106.593
21
-73.9095
0
LINE
8
BLACK
6
CONTINUOUS
10
106.593
20
-73.2095
11
105.893
21
-73.9095
0
LINE
8
BLACK
6
CONTINUOUS
10
106.022
20
-78.8179
11
106.722
21
-79.5179
0
LINE
8
BLACK
6
CONTINUOUS
10
106.722
20
-78.8179
11
106.022
21
-79.5179
0
LINE
8
BLACK
6
CONTINUOUS
10
107.444
20
-92.382
11
108.144
21
-93.082
0
LINE
8
BLACK
6
CONTINUOUS
10
108.144
20
-92.382
11
107.444
21
-93.082
0
LINE
8
BLACK
6
CONTINUOUS
10
107.447
20
-87.5848
11
108.147
21
-88.2848
0
LINE
8
BLACK
6
CONTINUOUS
10
108.147
20
-87.5848
11
107.447
21
-88.2848
0
LINE
8
BLACK
6
CONTINUOUS
10
107.551
20
-67.9572
11
108.251
21
-68.6572
0
LINE
8
BLACK
6
CONTINUOUS
10
108.251
20
-67.9572
11
107.551
21
-68.6572
0
LINE
8
BLACK
6
CONTINUOUS
10
109.211
20
-77.5249
11
109.911
21
-78.2249
0
LINE
8
BLACK
6
CONTINUOUS
10
109.911
20
-77.5249
11
109.211
21
-78.2249
0
LINE
8
BLACK
6
CONTINUOUS
10
112.7
20
-79.8323
11
113.4
21
-80.5323
0
LINE
8
BLACK
6
CONTINUOUS
10
113.4
20
-79.8323
11
112.7
21
-80.5323
0
LINE
8
BLACK
6
CONTINUOUS
10
113.727
20
-81.952
11
114.427
21
-82.652
0
LINE
8
BLACK
6
CONTINUOUS
10
114.427
20
-81.952
11
113.727
21
-82.652
0
LINE
8
BLACK
6
CONTINUOUS
10
118.253
20
-68.8294
11
118.953
21
-69.5294
0
LINE
8
BLACK
6
CONTINUOUS
10
118.953
20
-68.8294
11
118.253
21
-69.5294
0
LINE
8
BLACK
6
CONTINUOUS
10
120.265
20
-86.4689
11
120.965
21
-87.1689
0
LINE
8
BLACK
6
CONTINUOUS
10
120.965
20
-86.4689
11
120.265
21
-87.1689
0
LINE
8
BLACK
6
CONTINUOUS
10
120.579
20
-71.7352
11
121.279
21
-72.4352
0
LINE
8
BLACK
6
CONTINUOUS
10
121.279
20
-71.7352
11
120.579
21
-72.4352
0
LINE
8
BLACK
6
CONTINUOUS
10
121.57
20
-92.868
11
122.27
21
-93.568
0
LINE
8
BLACK
6
CONTINUOUS
10
122.27
20
-92.868
11
121.57
21
-93.568
0
LINE
8
BLACK
6
CONTINUOUS
10
122.586
20
-64.241
11
123.286
21
-64.941
0
LINE
8
BLACK
6
CONTINUOUS
10
123.286
20
-64.241
11
122.586
21
-64.941
0
LINE
8
BLACK
6
CONTINUOUS
10
123.781
20
-69.9328
11
124.481
21
-70.6328
0
LINE
8
BLACK
6
CONTINUOUS
10
124.481
20
-69.9328
11
123.781
21
-70.6328
0
LINE
8
BLACK
6
CONTINUOUS
10
123.856
20
-60.864
11
124.556
21
-61.564
0
LINE
8
BLACK
6
CONTINUOUS
10
124.556
20
-60.864
11
123.856
21
-61.564
0
LINE
8
BLACK
6
CONTINUOUS
10
125.126
20
-84.74
11
125.826
21
-85.44
0
LINE
8
BLACK
6
CONTINUOUS
10
125.826
20
-84.74
11
125.126
21
-85.44
0
LINE
8
BLACK
6
CONTINUOUS
10
125.38
20
-98.964
11
126.08
21
-99.664
0
LINE
8
BLACK
6
CONTINUOUS
10
126.08
20
-98.964
11
125.38
21
-99.664
0
LINE
8
BLACK
6
CONTINUOUS
10
125.634
20
-78.4391
11
126.334
21
-79.1391
0
LINE
8
BLACK
6
CONTINUOUS
10
126.334
20
-78.4391
11
125.634
21
-79.1391
0
LINE
8
BLACK
6
CONTINUOUS
10
127.158
20
-102.012
11
127.858
21
-102.712
0
LINE
8
BLACK
6
CONTINUOUS
10
127.858
20
-102.012
11
127.158
21
-102.712
0
LINE
8
BLACK
6
CONTINUOUS
10
127.167
20
-68.738
11
127.867
21
-69.438
0
LINE
8
BLACK
6
CONTINUOUS
10
127.867
20
-68.738
11
127.167
21
-69.438
0
LINE
8
BLACK
6
CONTINUOUS
10
128.682
20
-66.452
11
129.382
21
-67.152
0
LINE
8
BLACK
6
CONTINUOUS
10
129.382
20
-66.452
11
128.682
21
-67.152
0
LINE
8
BLACK
6
CONTINUOUS
10
128.707
20
-97.186
11
129.407
21
-97.886
0
LINE
8
BLACK
6
CONTINUOUS
10
129.407
20
-97.186
11
128.707
21
-97.886
0
LINE
8
BLACK
6
CONTINUOUS
10
130.968
20
-101.25
11
131.668
21
-101.95
0
LINE
8
BLACK
6
CONTINUOUS
10
131.668
20
-101.25
11
130.968
21
-101.95
0
LINE
8
BLACK
6
CONTINUOUS
10
131.303
20
-76.4389
11
132.003
21
-77.1389
0
LINE
8
BLACK
6
CONTINUOUS
10
132.003
20
-76.4389
11
131.303
21
-77.1389
0
LINE
8
BLACK
6
CONTINUOUS
10
132.01
20
-92.106
11
132.709
21
-92.806
0
LINE
8
BLACK
6
CONTINUOUS
10
132.709
20
-92.106
11
132.01
21
-92.806
0
LINE
8
BLACK
6
CONTINUOUS
10
132.807
20
-98.7067
11
133.507
21
-99.4067
0
LINE
8
BLACK
6
CONTINUOUS
10
133.507
20
-98.7067
11
132.807
21
-99.4067
0
LINE
8
BLACK
6
CONTINUOUS
10
136.583
20
-77.0168
11
137.283
21
-77.7168
0
LINE
8
BLACK
6
CONTINUOUS
10
137.283
20
-77.0168
11
136.583
21
-77.7168
0
LINE
8
BLACK
6
CONTINUOUS
10
136.632
20
-81.9968
11
137.332
21
-82.6968
0
LINE
8
BLACK
6
CONTINUOUS
10
137.332
20
-81.9968
11
136.632
21
-82.6968
0
LINE
8
BLACK
6
CONTINUOUS
10
139.35
20
-65.7662
11
140.05
21
-66.4662
0
LINE
8
BLACK
6
CONTINUOUS
10
140.05
20
-65.7662
11
139.35
21
-66.4662
0
LINE
8
BLACK
6
CONTINUOUS
10
139.41
20
-75.4946
11
140.11
21
-76.1946
0
LINE
8
BLACK
6
CONTINUOUS
10
140.11
20
-75.4946
11
139.41
21
-76.1946
0
LINE
8
BLACK
6
CONTINUOUS
10
139.934
20
-85.7814
11
140.634
21
-86.4814
0
LINE
8
BLACK
6
CONTINUOUS
10
140.634
20
-85.7814
11
139.934
21
-86.4814
0
LINE
8
BLACK
6
CONTINUOUS
10
140.82
20
-77.3231
11
141.52
21
-78.0231
0
LINE
8
BLACK
6
CONTINUOUS
10
141.52
20
-77.3231
11
140.82
21
-78.0231
0
LINE
8
BLACK
6
CONTINUOUS
10
141.538
20
-73.9451
11
142.238
21
-74.6451
0
LINE
8
BLACK
6
CONTINUOUS
10
142.238
20
-73.9451
11
141.538
21
-74.6451
0
LINE
8
BLACK
6
CONTINUOUS
10
142.541
20
-68.0765
11
143.241
21
-68.7765
0
LINE
8
BLACK
6
CONTINUOUS
10
143.241
20
-68.0765
11
142.541
21
-68.7765
0
LINE
8
BLACK
6
CONTINUOUS
10
142.884
20
-61.134
11
143.584
21
-61.834
0
LINE
8
BLACK
6
CONTINUOUS
10
143.584
20
-61.134
11
142.884
21
-61.834
0
LINE
8
BLACK
6
CONTINUOUS
10
143.236
20
-87.8642
11
143.936
21
-88.5642
0
LINE
8
BLACK
6
CONTINUOUS
10
143.936
20
-87.8642
11
143.236
21
-88.5642
0
LINE
8
BLACK
6
CONTINUOUS
10
144.692
20
-73.9451
11
145.392
21
-74.6451
0
LINE
8
BLACK
6
CONTINUOUS
10
145.392
20
-73.9451
11
144.692
21
-74.6451
0
LINE
8
BLACK
6
CONTINUOUS
10
144.998
20
-68.7586
11
145.698
21
-69.4586
0
LINE
8
BLACK
6
CONTINUOUS
10
145.698
20
-68.7586
11
144.998
21
-69.4586
0
LINE
8
BLACK
6
CONTINUOUS
10
146.056
20
-61.245
11
146.756
21
-61.945
0
LINE
8
BLACK
6
CONTINUOUS
10
146.756
20
-61.245
11
146.056
21
-61.945
0
LINE
8
BLACK
6
CONTINUOUS
10
146.886
20
-67.8417
11
147.586
21
-68.5417
0
LINE
8
BLACK
6
CONTINUOUS
10
147.586
20
-67.8417
11
146.886
21
-68.5417
0
LINE
8
BLACK
6
CONTINUOUS
10
146.98
20
-73.9451
11
147.68
21
-74.6451
0
LINE
8
BLACK
6
CONTINUOUS
10
147.68
20
-73.9451
11
146.98
21
-74.6451
0
LINE
8
BLACK
6
CONTINUOUS
10
150.069
20
-62.7436
11
150.769
21
-63.4436
0
LINE
8
BLACK
6
CONTINUOUS
10
150.769
20
-62.7436
11
150.069
21
-63.4436
0
LINE
8
BLACK
6
CONTINUOUS
10
150.072
20
-83.1535
11
150.772
21
-83.8535
0
LINE
8
BLACK
6
CONTINUOUS
10
150.772
20
-83.1535
11
150.072
21
-83.8535
0
LINE
8
BLACK
6
CONTINUOUS
10
150.528
20
-80.7074
11
151.228
21
-81.4074
0
LINE
8
BLACK
6
CONTINUOUS
10
151.228
20
-80.7074
11
150.528
21
-81.4074
0
LINE
8
BLACK
6
CONTINUOUS
10
150.993
20
-85.1303
11
151.693
21
-85.8303
0
LINE
8
BLACK
6
CONTINUOUS
10
151.693
20
-85.1303
11
150.993
21
-85.8303
0
LINE
8
BLACK
6
CONTINUOUS
10
151.53
20
-91.2722
11
152.23
21
-91.9722
0
LINE
8
BLACK
6
CONTINUOUS
10
152.23
20
-91.2722
11
151.53
21
-91.9722
0
LINE
8
BLACK
6
CONTINUOUS
10
153.701
20
-88.3468
11
154.401
21
-89.0468
0
LINE
8
BLACK
6
CONTINUOUS
10
154.401
20
-88.3468
11
153.701
21
-89.0468
0
LINE
8
BLACK
6
CONTINUOUS
10
157.208
20
-101.25
11
157.909
21
-101.95
0
LINE
8
BLACK
6
CONTINUOUS
10
157.909
20
-101.25
11
157.208
21
-101.95
0
CIRCLE
8
BLACK
10
123.508
20
-87.63
40
0.4
0
CIRCLE
8
BLACK
10
123.508
20
-89.63
40
0.4
0
CIRCLE
8
BLACK
10
125.508
20
-87.63
40
0.4
0
CIRCLE
8
BLACK
10
125.508
20
-89.63
40
0.4
0
CIRCLE
8
BLACK
10
127.508
20
-87.63
40
0.4
0
CIRCLE
8
BLACK
10
127.508
20
-89.63
40
0.4
0
LINE
8
BLACK
6
CONTINUOUS
10
110.24
20
-57.158
11
110.24
21
-58.158
0
LINE
8
BLACK
6
CONTINUOUS
10
109.74
20
-57.658
11
110.74
21
-57.658
0
LINE
8
BLACK
6
CONTINUOUS
10
112.78
20
-57.158
11
112.78
21
-58.158
0
LINE
8
BLACK
6
CONTINUOUS
10
112.28
20
-57.658
11
113.28
21
-57.658
0
LINE
8
BLACK
6
CONTINUOUS
10
115.32
20
-57.158
11
115.32
21
-58.158
0
LINE
8
BLACK
6
CONTINUOUS
10
114.82
20
-57.658
11
115.82
21
-57.658
0
LINE
8
BLACK
6
CONTINUOUS
10
117.86
20
-57.158
11
117.86
21
-58.158
0
LINE
8
BLACK
6
CONTINUOUS
10
117.36
20
-57.658
11
118.36
21
-57.658
0
LINE
8
BLACK
6
CONTINUOUS
10
119.38
20
-105.418
11
119.38
21
-106.418
0
LINE
8
BLACK
6
CONTINUOUS
10
118.88
20
-105.918
11
119.88
21
-105.918
0
LINE
8
BLACK
6
CONTINUOUS
10
120.4
20
-57.158
11
120.4
21
-58.158
0
LINE
8
BLACK
6
CONTINUOUS
10
119.9
20
-57.658
11
120.9
21
-57.658
0
LINE
8
BLACK
6
CONTINUOUS
10
121.92
20
-105.418
11
121.92
21
-106.418
0
LINE
8
BLACK
6
CONTINUOUS
10
121.42
20
-105.918
11
122.42
21
-105.918
0
LINE
8
BLACK
6
CONTINUOUS
10
122.94
20
-57.158
11
122.94
21
-58.158
0
LINE
8
BLACK
6
CONTINUOUS
10
122.44
20
-57.658
11
123.44
21
-57.658
0
LINE
8
BLACK
6
CONTINUOUS
10
124.46
20
-105.418
11
124.46
21
-106.418
0
LINE
8
BLACK
6
CONTINUOUS
10
123.96
20
-105.918
11
124.96
21
-105.918
0
LINE
8
BLACK
6
CONTINUOUS
10
125.48
20
-57.158
11
125.48
21
-58.158
0
LINE
8
BLACK
6
CONTINUOUS
10
124.98
20
-57.658
11
125.98
21
-57.658
0
LINE
8
BLACK
6
CONTINUOUS
10
127
20
-105.418
11
127
21
-106.418
0
LINE
8
BLACK
6
CONTINUOUS
10
126.5
20
-105.918
11
127.5
21
-105.918
0
LINE
8
BLACK
6
CONTINUOUS
10
128.02
20
-57.158
11
128.02
21
-58.158
0
LINE
8
BLACK
6
CONTINUOUS
10
127.52
20
-57.658
11
128.52
21
-57.658
0
LINE
8
BLACK
6
CONTINUOUS
10
129.54
20
-105.418
11
129.54
21
-106.418
0
LINE
8
BLACK
6
CONTINUOUS
10
129.04
20
-105.918
11
130.04
21
-105.918
0
LINE
8
BLACK
6
CONTINUOUS
10
130.56
20
-57.158
11
130.56
21
-58.158
0
LINE
8
BLACK
6
CONTINUOUS
10
130.06
20
-57.658
11
131.06
21
-57.658
0
LINE
8
BLACK
6
CONTINUOUS
10
132.08
20
-105.418
11
132.08
21
-106.418
0
LINE
8
BLACK
6
CONTINUOUS
10
131.58
20
-105.918
11
132.58
21
-105.918
0
LINE
8
BLACK
6
CONTINUOUS
10
133.1
20
-57.158
11
133.1
21
-58.158
0
LINE
8
BLACK
6
CONTINUOUS
10
132.6
20
-57.658
11
133.6
21
-57.658
0
LINE
8
BLACK
6
CONTINUOUS
10
134.62
20
-105.418
11
134.62
21
-106.418
0
LINE
8
BLACK
6
CONTINUOUS
10
134.12
20
-105.918
11
135.12
21
-105.918
0
LINE
8
BLACK
6
CONTINUOUS
10
137.16
20
-57.158
11
137.16
21
-58.158
0
LINE
8
BLACK
6
CONTINUOUS
10
136.66
20
-57.658
11
137.66
21
-57.658
0
LINE
8
BLACK
6
CONTINUOUS
10
137.16
20
-105.418
11
137.16
21
-106.418
0
LINE
8
BLACK
6
CONTINUOUS
10
136.66
20
-105.918
11
137.66
21
-105.918
0
LINE
8
BLACK
6
CONTINUOUS
10
139.7
20
-57.158
11
139.7
21
-58.158
0
LINE
8
BLACK
6
CONTINUOUS
10
139.2
20
-57.658
11
140.2
21
-57.658
0
LINE
8
BLACK
6
CONTINUOUS
10
142.24
20
-57.158
11
142.24
21
-58.158
0
LINE
8
BLACK
6
CONTINUOUS
10
141.74
20
-57.658
11
142.74
21
-57.658
0
LINE
8
BLACK
6
CONTINUOUS
10
142.24
20
-105.418
11
142.24
21
-106.418
0
LINE
8
BLACK
6
CONTINUOUS
10
141.74
20
-105.918
11
142.74
21
-105.918
0
LINE
8
BLACK
6
CONTINUOUS
10
144.78
20
-57.158
11
144.78
21
-58.158
0
LINE
8
BLACK
6
CONTINUOUS
10
144.28
20
-57.658
11
145.28
21
-57.658
0
LINE
8
BLACK
6
CONTINUOUS
10
144.78
20
-105.418
11
144.78
21
-106.418
0
LINE
8
BLACK
6
CONTINUOUS
10
144.28
20
-105.918
11
145.28
21
-105.918
0
LINE
8
BLACK
6
CONTINUOUS
10
147.32
20
-57.158
11
147.32
21
-58.158
0
LINE
8
BLACK
6
CONTINUOUS
10
146.82
20
-57.658
11
147.82
21
-57.658
0
LINE
8
BLACK
6
CONTINUOUS
10
147.32
20
-105.418
11
147.32
21
-106.418
0
LINE
8
BLACK
6
CONTINUOUS
10
146.82
20
-105.918
11
147.82
21
-105.918
0
LINE
8
BLACK
6
CONTINUOUS
10
149.86
20
-57.158
11
149.86
21
-58.158
0
LINE
8
BLACK
6
CONTINUOUS
10
149.36
20
-57.658
11
150.36
21
-57.658
0
LINE
8
BLACK
6
CONTINUOUS
10
149.86
20
-105.418
11
149.86
21
-106.418
0
LINE
8
BLACK
6
CONTINUOUS
10
149.36
20
-105.918
11
150.36
21
-105.918
0
LINE
8
BLACK
6
CONTINUOUS
10
152.4
20
-57.158
11
152.4
21
-58.158
0
LINE
8
BLACK
6
CONTINUOUS
10
151.9
20
-57.658
11
152.9
21
-57.658
0
LINE
8
BLACK
6
CONTINUOUS
10
152.4
20
-105.418
11
152.4
21
-106.418
0
LINE
8
BLACK
6
CONTINUOUS
10
151.9
20
-105.918
11
152.9
21
-105.918
0
LINE
8
BLACK
6
CONTINUOUS
10
154.94
20
-57.158
11
154.94
21
-58.158
0
LINE
8
BLACK
6
CONTINUOUS
10
154.44
20
-57.658
11
155.44
21
-57.658
0
LINE
8
BLACK
6
CONTINUOUS
10
154.94
20
-105.418
11
154.94
21
-106.418
0
LINE
8
BLACK
6
CONTINUOUS
10
154.44
20
-105.918
11
155.44
21
-105.918
0
LINE
8
BLACK
6
CONTINUOUS
10
95.6339
20
-60.0789
11
95.6339
21
-59.3011
0
LINE
8
BLACK
6
CONTINUOUS
10
95.6339
20
-59.3011
11
94.8561
21
-59.3011
0
LINE
8
BLACK
6
CONTINUOUS
10
94.8561
20
-59.3011
11
94.8561
21
-60.0789
0
LINE
8
BLACK
6
CONTINUOUS
10
94.8561
20
-60.0789
11
95.6339
21
-60.0789
0
LINE
8
BLACK
6
CONTINUOUS
10
98.1739
20
-60.0789
11
98.1739
21
-59.3011
0
LINE
8
BLACK
6
CONTINUOUS
10
98.1739
20
-59.3011
11
97.3961
21
-59.3011
0
LINE
8
BLACK
6
CONTINUOUS
10
97.3961
20
-59.3011
11
97.3961
21
-60.0789
0
LINE
8
BLACK
6
CONTINUOUS
10
97.3961
20
-60.0789
11
98.1739
21
-60.0789
0
LINE
8
BLACK
6
CONTINUOUS
10
100.714
20
-60.0789
11
100.714
21
-59.3011
0
LINE
8
BLACK
6
CONTINUOUS
10
100.714
20
-59.3011
11
99.9361
21
-59.3011
0
LINE
8
BLACK
6
CONTINUOUS
10
99.9361
20
-59.3011
11
99.9361
21
-60.0789
0
LINE
8
BLACK
6
CONTINUOUS
10
99.9361
20
-60.0789
11
100.714
21
-60.0789
0
LINE
8
BLACK
6
CONTINUOUS
10
103.254
20
-60.0789
11
103.254
21
-59.3011
0
LINE
8
BLACK
6
CONTINUOUS
10
103.254
20
-59.3011
11
102.476
21
-59.3011
0
LINE
8
BLACK
6
CONTINUOUS
10
102.476
20
-59.3011
11
102.476
21
-60.0789
0
LINE
8
BLACK
6
CONTINUOUS
10
102.476
20
-60.0789
11
103.254
21
-60.0789
0
LINE
8
BLACK
6
CONTINUOUS
10
156.599
20
-81.6689
11
156.599
21
-80.8911
0
LINE
8
BLACK
6
CONTINUOUS
10
156.599
20
-80.8911
11
155.821
21
-80.8911
0
LINE
8
BLACK
6
CONTINUOUS
10
155.821
20
-80.8911
11
155.821
21
-81.6689
0
LINE
8
BLACK
6
CONTINUOUS
10
155.821
20
-81.6689
11
156.599
21
-81.6689
0
LINE
8
BLACK
6
CONTINUOUS
10
156.599
20
-84.2089
11
156.599
21
-83.4311
0
LINE
8
BLACK
6
CONTINUOUS
10
156.599
20
-83.4311
11
155.821
21
-83.4311
0
LINE
8
BLACK
6
CONTINUOUS
10
155.821
20
-83.4311
11
155.821
21
-84.2089
0
LINE
8
BLACK
6
CONTINUOUS
10
155.821
20
-84.2089
11
156.599
21
-84.2089
0
LINE
8
BLACK
6
CONTINUOUS
10
154.686
20
-103.012
11
155.336
21
-102.362
0
LINE
8
BLACK
6
CONTINUOUS
10
155.336
20
-102.362
11
154.686
21
-101.712
0
LINE
8
BLACK
6
CONTINUOUS
10
154.686
20
-101.712
11
154.036
21
-102.362
0
LINE
8
BLACK
6
CONTINUOUS
10
154.036
20
-102.362
11
154.686
21
-103.012
0
LINE
8
BLACK
6
CONTINUOUS
10
156.464
20
-91.328
11
157.114
21
-90.678
0
LINE
8
BLACK
6
CONTINUOUS
10
157.114
20
-90.678
11
156.464
21
-90.028
0
LINE
8
BLACK
6
CONTINUOUS
10
156.464
20
-90.028
11
155.814
21
-90.678
0
LINE
8
BLACK
6
CONTINUOUS
10
155.814
20
-90.678
11
156.464
21
-91.328
0
LINE
8
BLACK
6
CONTINUOUS
10
93.6282
20
-111.951
11
93.6282
21
-109.951
0
LINE
8
BLACK
6
CONTINUOUS
10
93.6282
20
-109.951
11
94.1044
21
-109.951
0
LINE
8
BLACK
6
CONTINUOUS
10
94.1044
20
-109.951
11
94.3901
21
-110.046
0
LINE
8
BLACK
6
CONTINUOUS
10
94.3901
20
-110.046
11
94.5806
21
-110.236
0
LINE
8
BLACK
6
CONTINUOUS
10
94.5806
20
-110.236
11
94.6758
21
-110.427
0
LINE
8
BLACK
6
CONTINUOUS
10
94.6758
20
-110.427
11
94.771
21
-110.808
0
LINE
8
BLACK
6
CONTINUOUS
10
94.771
20
-110.808
11
94.771
21
-111.094
0
LINE
8
BLACK
6
CONTINUOUS
10
94.771
20
-111.094
11
94.6758
21
-111.475
0
LINE
8
BLACK
6
CONTINUOUS
10
94.6758
20
-111.475
11
94.5806
21
-111.665
0
LINE
8
BLACK
6
CONTINUOUS
10
94.5806
20
-111.665
11
94.3901
21
-111.856
0
LINE
8
BLACK
6
CONTINUOUS
10
94.3901
20
-111.856
11
94.1044
21
-111.951
0
LINE
8
BLACK
6
CONTINUOUS
10
94.1044
20
-111.951
11
93.6282
21
-111.951
0
LINE
8
BLACK
6
CONTINUOUS
10
95.6282
20
-111.951
11
95.6282
21
-110.617
0
LINE
8
BLACK
6
CONTINUOUS
10
95.6282
20
-110.998
11
95.7234
21
-110.808
0
LINE
8
BLACK
6
CONTINUOUS
10
95.7234
20
-110.808
11
95.8187
21
-110.713
0
LINE
8
BLACK
6
CONTINUOUS
10
95.8187
20
-110.713
11
96.0091
21
-110.617
0
LINE
8
BLACK
6
CONTINUOUS
10
96.0091
20
-110.617
11
96.1996
21
-110.617
0
LINE
8
BLACK
6
CONTINUOUS
10
96.8663
20
-111.951
11
96.8663
21
-110.617
0
LINE
8
BLACK
6
CONTINUOUS
10
96.8663
20
-109.951
11
96.771
21
-110.046
0
LINE
8
BLACK
6
CONTINUOUS
10
96.771
20
-110.046
11
96.8663
21
-110.141
0
LINE
8
BLACK
6
CONTINUOUS
10
96.8663
20
-110.141
11
96.9615
21
-110.046
0
LINE
8
BLACK
6
CONTINUOUS
10
96.9615
20
-110.046
11
96.8663
21
-109.951
0
LINE
8
BLACK
6
CONTINUOUS
10
96.8663
20
-109.951
11
96.8663
21
-110.141
0
LINE
8
BLACK
6
CONTINUOUS
10
98.1044
20
-111.951
11
97.9139
21
-111.856
0
LINE
8
BLACK
6
CONTINUOUS
10
97.9139
20
-111.856
11
97.8187
21
-111.665
0
LINE
8
BLACK
6
CONTINUOUS
10
97.8187
20
-111.665
11
97.8187
21
-109.951
0
LINE
8
BLACK
6
CONTINUOUS
10
99.152
20
-111.951
11
98.9615
21
-111.856
0
LINE
8
BLACK
6
CONTINUOUS
10
98.9615
20
-111.856
11
98.8663
21
-111.665
0
LINE
8
BLACK
6
CONTINUOUS
10
98.8663
20
-111.665
11
98.8663
21
-109.951
0
LINE
8
BLACK
6
CONTINUOUS
10
101.438
20
-111.951
11
101.438
21
-109.951
0
LINE
8
BLACK
6
CONTINUOUS
10
101.438
20
-109.951
11
102.104
21
-111.379
0
LINE
8
BLACK
6
CONTINUOUS
10
102.104
20
-111.379
11
102.771
21
-109.951
0
LINE
8
BLACK
6
CONTINUOUS
10
102.771
20
-109.951
11
102.771
21
-111.951
0
LINE
8
BLACK
6
CONTINUOUS
10
104.581
20
-111.951
11
104.581
21
-110.903
0
LINE
8
BLACK
6
CONTINUOUS
10
104.581
20
-110.903
11
104.485
21
-110.713
0
LINE
8
BLACK
6
CONTINUOUS
10
104.485
20
-110.713
11
104.295
21
-110.617
0
LINE
8
BLACK
6
CONTINUOUS
10
104.295
20
-110.617
11
103.914
21
-110.617
0
LINE
8
BLACK
6
CONTINUOUS
10
103.914
20
-110.617
11
103.723
21
-110.713
0
LINE
8
BLACK
6
CONTINUOUS
10
104.581
20
-111.856
11
104.39
21
-111.951
0
LINE
8
BLACK
6
CONTINUOUS
10
104.39
20
-111.951
11
103.914
21
-111.951
0
LINE
8
BLACK
6
CONTINUOUS
10
103.914
20
-111.951
11
103.723
21
-111.856
0
LINE
8
BLACK
6
CONTINUOUS
10
103.723
20
-111.856
11
103.628
21
-111.665
0
LINE
8
BLACK
6
CONTINUOUS
10
103.628
20
-111.665
11
103.628
21
-111.475
0
LINE
8
BLACK
6
CONTINUOUS
10
103.628
20
-111.475
11
103.723
21
-111.284
0
LINE
8
BLACK
6
CONTINUOUS
10
103.723
20
-111.284
11
103.914
21
-111.189
0
LINE
8
BLACK
6
CONTINUOUS
10
103.914
20
-111.189
11
104.39
21
-111.189
0
LINE
8
BLACK
6
CONTINUOUS
10
104.39
20
-111.189
11
104.581
21
-111.094
0
LINE
8
BLACK
6
CONTINUOUS
10
105.533
20
-110.617
11
105.533
21
-112.617
0
LINE
8
BLACK
6
CONTINUOUS
10
105.533
20
-110.713
11
105.723
21
-110.617
0
LINE
8
BLACK
6
CONTINUOUS
10
105.723
20
-110.617
11
106.104
21
-110.617
0
LINE
8
BLACK
6
CONTINUOUS
10
106.104
20
-110.617
11
106.295
21
-110.713
0
LINE
8
BLACK
6
CONTINUOUS
10
106.295
20
-110.713
11
106.39
21
-110.808
0
LINE
8
BLACK
6
CONTINUOUS
10
106.39
20
-110.808
11
106.485
21
-110.998
0
LINE
8
BLACK
6
CONTINUOUS
10
106.485
20
-110.998
11
106.485
21
-111.57
0
LINE
8
BLACK
6
CONTINUOUS
10
106.485
20
-111.57
11
106.39
21
-111.76
0
LINE
8
BLACK
6
CONTINUOUS
10
106.39
20
-111.76
11
106.295
21
-111.856
0
LINE
8
BLACK
6
CONTINUOUS
10
106.295
20
-111.856
11
106.104
21
-111.951
0
LINE
8
BLACK
6
CONTINUOUS
10
106.104
20
-111.951
11
105.723
21
-111.951
0
LINE
8
BLACK
6
CONTINUOUS
10
105.723
20
-111.951
11
105.533
21
-111.856
0
LINE
8
BLACK
6
CONTINUOUS
10
107.342
20
-111.76
11
107.438
21
-111.856
0
LINE
8
BLACK
6
CONTINUOUS
10
107.438
20
-111.856
11
107.342
21
-111.951
0
LINE
8
BLACK
6
CONTINUOUS
10
107.342
20
-111.951
11
107.247
21
-111.856
0
LINE
8
BLACK
6
CONTINUOUS
10
107.247
20
-111.856
11
107.342
21
-111.76
0
LINE
8
BLACK
6
CONTINUOUS
10
107.342
20
-111.76
11
107.342
21
-111.951
0
LINE
8
BLACK
6
CONTINUOUS
10
107.342
20
-110.713
11
107.438
21
-110.808
0
LINE
8
BLACK
6
CONTINUOUS
10
107.438
20
-110.808
11
107.342
21
-110.903
0
LINE
8
BLACK
6
CONTINUOUS
10
107.342
20
-110.903
11
107.247
21
-110.808
0
LINE
8
BLACK
6
CONTINUOUS
10
107.247
20
-110.808
11
107.342
21
-110.713
0
LINE
8
BLACK
6
CONTINUOUS
10
107.342
20
-110.713
11
107.342
21
-110.903
0
LINE
8
BLACK
6
CONTINUOUS
10
90.352
20
-114.896
11
91.052
21
-115.596
0
LINE
8
BLACK
6
CONTINUOUS
10
91.052
20
-114.896
11
90.352
21
-115.596
0
LINE
8
BLACK
6
CONTINUOUS
10
94.0091
20
-114.151
11
94.1996
21
-114.151
0
LINE
8
BLACK
6
CONTINUOUS
10
94.1996
20
-114.151
11
94.3901
21
-114.246
0
LINE
8
BLACK
6
CONTINUOUS
10
94.3901
20
-114.246
11
94.4853
21
-114.341
0
LINE
8
BLACK
6
CONTINUOUS
10
94.4853
20
-114.341
11
94.5806
21
-114.532
0
LINE
8
BLACK
6
CONTINUOUS
10
94.5806
20
-114.532
11
94.6758
21
-114.913
0
LINE
8
BLACK
6
CONTINUOUS
10
94.6758
20
-114.913
11
94.6758
21
-115.389
0
LINE
8
BLACK
6
CONTINUOUS
10
94.6758
20
-115.389
11
94.5806
21
-115.77
0
LINE
8
BLACK
6
CONTINUOUS
10
94.5806
20
-115.77
11
94.4853
21
-115.96
0
LINE
8
BLACK
6
CONTINUOUS
10
94.4853
20
-115.96
11
94.3901
21
-116.056
0
LINE
8
BLACK
6
CONTINUOUS
10
94.3901
20
-116.056
11
94.1996
21
-116.151
0
LINE
8
BLACK
6
CONTINUOUS
10
94.1996
20
-116.151
11
94.0091
21
-116.151
0
LINE
8
BLACK
6
CONTINUOUS
10
94.0091
20
-116.151
11
93.8187
21
-116.056
0
LINE
8
BLACK
6
CONTINUOUS
10
93.8187
20
-116.056
11
93.7234
21
-115.96
0
LINE
8
BLACK
6
CONTINUOUS
10
93.7234
20
-115.96
11
93.6282
21
-115.77
0
LINE
8
BLACK
6
CONTINUOUS
10
93.6282
20
-115.77
11
93.533
21
-115.389
0
LINE
8
BLACK
6
CONTINUOUS
10
93.533
20
-115.389
11
93.533
21
-114.913
0
LINE
8
BLACK
6
CONTINUOUS
10
93.533
20
-114.913
11
93.6282
21
-114.532
0
LINE
8
BLACK
6
CONTINUOUS
10
93.6282
20
-114.532
11
93.7234
21
-114.341
0
LINE
8
BLACK
6
CONTINUOUS
10
93.7234
20
-114.341
11
93.8187
21
-114.246
0
LINE
8
BLACK
6
CONTINUOUS
10
93.8187
20
-114.246
11
94.0091
21
-114.151
0
LINE
8
BLACK
6
CONTINUOUS
10
95.533
20
-115.96
11
95.6282
21
-116.056
0
LINE
8
BLACK
6
CONTINUOUS
10
95.6282
20
-116.056
11
95.533
21
-116.151
0
LINE
8
BLACK
6
CONTINUOUS
10
95.533
20
-116.151
11
95.4377
21
-116.056
0
LINE
8
BLACK
6
CONTINUOUS
10
95.4377
20
-116.056
11
95.533
21
-115.96
0
LINE
8
BLACK
6
CONTINUOUS
10
95.533
20
-115.96
11
95.533
21
-116.151
0
LINE
8
BLACK
6
CONTINUOUS
10
96.2949
20
-114.151
11
97.6282
21
-114.151
0
LINE
8
BLACK
6
CONTINUOUS
10
97.6282
20
-114.151
11
96.771
21
-116.151
0
LINE
8
BLACK
6
CONTINUOUS
10
98.771
20
-114.151
11
98.9615
21
-114.151
0
LINE
8
BLACK
6
CONTINUOUS
10
98.9615
20
-114.151
11
99.152
21
-114.246
0
LINE
8
BLACK
6
CONTINUOUS
10
99.152
20
-114.246
11
99.2472
21
-114.341
0
LINE
8
BLACK
6
CONTINUOUS
10
99.2472
20
-114.341
11
99.3425
21
-114.532
0
LINE
8
BLACK
6
CONTINUOUS
10
99.3425
20
-114.532
11
99.4377
21
-114.913
0
LINE
8
BLACK
6
CONTINUOUS
10
99.4377
20
-114.913
11
99.4377
21
-115.389
0
LINE
8
BLACK
6
CONTINUOUS
10
99.4377
20
-115.389
11
99.3425
21
-115.77
0
LINE
8
BLACK
6
CONTINUOUS
10
99.3425
20
-115.77
11
99.2472
21
-115.96
0
LINE
8
BLACK
6
CONTINUOUS
10
99.2472
20
-115.96
11
99.152
21
-116.056
0
LINE
8
BLACK
6
CONTINUOUS
10
99.152
20
-116.056
11
98.9615
21
-116.151
0
LINE
8
BLACK
6
CONTINUOUS
10
98.9615
20
-116.151
11
98.771
21
-116.151
0
LINE
8
BLACK
6
CONTINUOUS
10
98.771
20
-116.151
11
98.5806
21
-116.056
0
LINE
8
BLACK
6
CONTINUOUS
10
98.5806
20
-116.056
11
98.4853
21
-115.96
0
LINE
8
BLACK
6
CONTINUOUS
10
98.4853
20
-115.96
11
98.3901
21
-115.77
0
LINE
8
BLACK
6
CONTINUOUS
10
98.3901
20
-115.77
11
98.2949
21
-115.389
0
LINE
8
BLACK
6
CONTINUOUS
10
98.2949
20
-115.389
11
98.2949
21
-114.913
0
LINE
8
BLACK
6
CONTINUOUS
10
98.2949
20
-114.913
11
98.3901
21
-114.532
0
LINE
8
BLACK
6
CONTINUOUS
10
98.3901
20
-114.532
11
98.4853
21
-114.341
0
LINE
8
BLACK
6
CONTINUOUS
10
98.4853
20
-114.341
11
98.5806
21
-114.246
0
LINE
8
BLACK
6
CONTINUOUS
10
98.5806
20
-114.246
11
98.771
21
-114.151
0
LINE
8
BLACK
6
CONTINUOUS
10
100.676
20
-114.151
11
100.866
21
-114.151
0
LINE
8
BLACK
6
CONTINUOUS
10
100.866
20
-114.151
11
101.057
21
-114.246
0
LINE
8
BLACK
6
CONTINUOUS
10
101.057
20
-114.246
11
101.152
21
-114.341
0
LINE
8
BLACK
6
CONTINUOUS
10
101.152
20
-114.341
11
101.247
21
-114.532
0
LINE
8
BLACK
6
CONTINUOUS
10
101.247
20
-114.532
11
101.342
21
-114.913
0
LINE
8
BLACK
6
CONTINUOUS
10
101.342
20
-114.913
11
101.342
21
-115.389
0
LINE
8
BLACK
6
CONTINUOUS
10
101.342
20
-115.389
11
101.247
21
-115.77
0
LINE
8
BLACK
6
CONTINUOUS
10
101.247
20
-115.77
11
101.152
21
-115.96
0
LINE
8
BLACK
6
CONTINUOUS
10
101.152
20
-115.96
11
101.057
21
-116.056
0
LINE
8
BLACK
6
CONTINUOUS
10
101.057
20
-116.056
11
100.866
21
-116.151
0
LINE
8
BLACK
6
CONTINUOUS
10
100.866
20
-116.151
11
100.676
21
-116.151
0
LINE
8
BLACK
6
CONTINUOUS
10
100.676
20
-116.151
11
100.485
21
-116.056
0
LINE
8
BLACK
6
CONTINUOUS
10
100.485
20
-116.056
11
100.39
21
-115.96
0
LINE
8
BLACK
6
CONTINUOUS
10
100.39
20
-115.96
11
100.295
21
-115.77
0
LINE
8
BLACK
6
CONTINUOUS
10
100.295
20
-115.77
11
100.2
21
-115.389
0
LINE
8
BLACK
6
CONTINUOUS
10
100.2
20
-115.389
11
100.2
21
-114.913
0
LINE
8
BLACK
6
CONTINUOUS
10
100.2
20
-114.913
11
100.295
21
-114.532
0
LINE
8
BLACK
6
CONTINUOUS
10
100.295
20
-114.532
11
100.39
21
-114.341
0
LINE
8
BLACK
6
CONTINUOUS
10
100.39
20
-114.341
11
100.485
21
-114.246
0
LINE
8
BLACK
6
CONTINUOUS
10
100.485
20
-114.246
11
100.676
21
-114.151
0
LINE
8
BLACK
6
CONTINUOUS
10
102.2
20
-116.151
11
102.2
21
-114.817
0
LINE
8
BLACK
6
CONTINUOUS
10
102.2
20
-115.008
11
102.295
21
-114.913
0
LINE
8
BLACK
6
CONTINUOUS
10
102.295
20
-114.913
11
102.485
21
-114.817
0
LINE
8
BLACK
6
CONTINUOUS
10
102.485
20
-114.817
11
102.771
21
-114.817
0
LINE
8
BLACK
6
CONTINUOUS
10
102.771
20
-114.817
11
102.962
21
-114.913
0
LINE
8
BLACK
6
CONTINUOUS
10
102.962
20
-114.913
11
103.057
21
-115.103
0
LINE
8
BLACK
6
CONTINUOUS
10
103.057
20
-115.103
11
103.057
21
-116.151
0
LINE
8
BLACK
6
CONTINUOUS
10
103.057
20
-115.103
11
103.152
21
-114.913
0
LINE
8
BLACK
6
CONTINUOUS
10
103.152
20
-114.913
11
103.342
21
-114.817
0
LINE
8
BLACK
6
CONTINUOUS
10
103.342
20
-114.817
11
103.628
21
-114.817
0
LINE
8
BLACK
6
CONTINUOUS
10
103.628
20
-114.817
11
103.819
21
-114.913
0
LINE
8
BLACK
6
CONTINUOUS
10
103.819
20
-114.913
11
103.914
21
-115.103
0
LINE
8
BLACK
6
CONTINUOUS
10
103.914
20
-115.103
11
103.914
21
-116.151
0
LINE
8
BLACK
6
CONTINUOUS
10
104.866
20
-116.151
11
104.866
21
-114.817
0
LINE
8
BLACK
6
CONTINUOUS
10
104.866
20
-115.008
11
104.962
21
-114.913
0
LINE
8
BLACK
6
CONTINUOUS
10
104.962
20
-114.913
11
105.152
21
-114.817
0
LINE
8
BLACK
6
CONTINUOUS
10
105.152
20
-114.817
11
105.438
21
-114.817
0
LINE
8
BLACK
6
CONTINUOUS
10
105.438
20
-114.817
11
105.628
21
-114.913
0
LINE
8
BLACK
6
CONTINUOUS
10
105.628
20
-114.913
11
105.723
21
-115.103
0
LINE
8
BLACK
6
CONTINUOUS
10
105.723
20
-115.103
11
105.723
21
-116.151
0
LINE
8
BLACK
6
CONTINUOUS
10
105.723
20
-115.103
11
105.819
21
-114.913
0
LINE
8
BLACK
6
CONTINUOUS
10
105.819
20
-114.913
11
106.009
21
-114.817
0
LINE
8
BLACK
6
CONTINUOUS
10
106.009
20
-114.817
11
106.295
21
-114.817
0
LINE
8
BLACK
6
CONTINUOUS
10
106.295
20
-114.817
11
106.485
21
-114.913
0
LINE
8
BLACK
6
CONTINUOUS
10
106.485
20
-114.913
11
106.581
21
-115.103
0
LINE
8
BLACK
6
CONTINUOUS
10
106.581
20
-115.103
11
106.581
21
-116.151
0
LINE
8
BLACK
6
CONTINUOUS
10
110.485
20
-114.056
11
108.771
21
-116.627
0
LINE
8
BLACK
6
CONTINUOUS
10
113.057
20
-114.151
11
113.247
21
-114.151
0
LINE
8
BLACK
6
CONTINUOUS
10
113.247
20
-114.151
11
113.438
21
-114.246
0
LINE
8
BLACK
6
CONTINUOUS
10
113.438
20
-114.246
11
113.533
21
-114.341
0
LINE
8
BLACK
6
CONTINUOUS
10
113.533
20
-114.341
11
113.628
21
-114.532
0
LINE
8
BLACK
6
CONTINUOUS
10
113.628
20
-114.532
11
113.723
21
-114.913
0
LINE
8
BLACK
6
CONTINUOUS
10
113.723
20
-114.913
11
113.723
21
-115.389
0
LINE
8
BLACK
6
CONTINUOUS
10
113.723
20
-115.389
11
113.628
21
-115.77
0
LINE
8
BLACK
6
CONTINUOUS
10
113.628
20
-115.77
11
113.533
21
-115.96
0
LINE
8
BLACK
6
CONTINUOUS
10
113.533
20
-115.96
11
113.438
21
-116.056
0
LINE
8
BLACK
6
CONTINUOUS
10
113.438
20
-116.056
11
113.247
21
-116.151
0
LINE
8
BLACK
6
CONTINUOUS
10
113.247
20
-116.151
11
113.057
21
-116.151
0
LINE
8
BLACK
6
CONTINUOUS
10
113.057
20
-116.151
11
112.866
21
-116.056
0
LINE
8
BLACK
6
CONTINUOUS
10
112.866
20
-116.056
11
112.771
21
-115.96
0
LINE
8
BLACK
6
CONTINUOUS
10
112.771
20
-115.96
11
112.676
21
-115.77
0
LINE
8
BLACK
6
CONTINUOUS
10
112.676
20
-115.77
11
112.581
21
-115.389
0
LINE
8
BLACK
6
CONTINUOUS
10
112.581
20
-115.389
11
112.581
21
-114.913
0
LINE
8
BLACK
6
CONTINUOUS
10
112.581
20
-114.913
11
112.676
21
-114.532
0
LINE
8
BLACK
6
CONTINUOUS
10
112.676
20
-114.532
11
112.771
21
-114.341
0
LINE
8
BLACK
6
CONTINUOUS
10
112.771
20
-114.341
11
112.866
21
-114.246
0
LINE
8
BLACK
6
CONTINUOUS
10
112.866
20
-114.246
11
113.057
21
-114.151
0
LINE
8
BLACK
6
CONTINUOUS
10
114.581
20
-115.96
11
114.676
21
-116.056
0
LINE
8
BLACK
6
CONTINUOUS
10
114.676
20
-116.056
11
114.581
21
-116.151
0
LINE
8
BLACK
6
CONTINUOUS
10
114.581
20
-116.151
11
114.485
21
-116.056
0
LINE
8
BLACK
6
CONTINUOUS
10
114.485
20
-116.056
11
114.581
21
-115.96
0
LINE
8
BLACK
6
CONTINUOUS
10
114.581
20
-115.96
11
114.581
21
-116.151
0
LINE
8
BLACK
6
CONTINUOUS
10
115.914
20
-114.151
11
116.104
21
-114.151
0
LINE
8
BLACK
6
CONTINUOUS
10
116.104
20
-114.151
11
116.295
21
-114.246
0
LINE
8
BLACK
6
CONTINUOUS
10
116.295
20
-114.246
11
116.39
21
-114.341
0
LINE
8
BLACK
6
CONTINUOUS
10
116.39
20
-114.341
11
116.485
21
-114.532
0
LINE
8
BLACK
6
CONTINUOUS
10
116.485
20
-114.532
11
116.581
21
-114.913
0
LINE
8
BLACK
6
CONTINUOUS
10
116.581
20
-114.913
11
116.581
21
-115.389
0
LINE
8
BLACK
6
CONTINUOUS
10
116.581
20
-115.389
11
116.485
21
-115.77
0
LINE
8
BLACK
6
CONTINUOUS
10
116.485
20
-115.77
11
116.39
21
-115.96
0
LINE
8
BLACK
6
CONTINUOUS
10
116.39
20
-115.96
11
116.295
21
-116.056
0
LINE
8
BLACK
6
CONTINUOUS
10
116.295
20
-116.056
11
116.104
21
-116.151
0
LINE
8
BLACK
6
CONTINUOUS
10
116.104
20
-116.151
11
115.914
21
-116.151
0
LINE
8
BLACK
6
CONTINUOUS
10
115.914
20
-116.151
11
115.723
21
-116.056
0
LINE
8
BLACK
6
CONTINUOUS
10
115.723
20
-116.056
11
115.628
21
-115.96
0
LINE
8
BLACK
6
CONTINUOUS
10
115.628
20
-115.96
11
115.533
21
-115.77
0
LINE
8
BLACK
6
CONTINUOUS
10
115.533
20
-115.77
11
115.438
21
-115.389
0
LINE
8
BLACK
6
CONTINUOUS
10
115.438
20
-115.389
11
115.438
21
-114.913
0
LINE
8
BLACK
6
CONTINUOUS
10
115.438
20
-114.913
11
115.533
21
-114.532
0
LINE
8
BLACK
6
CONTINUOUS
10
115.533
20
-114.532
11
115.628
21
-114.341
0
LINE
8
BLACK
6
CONTINUOUS
10
115.628
20
-114.341
11
115.723
21
-114.246
0
LINE
8
BLACK
6
CONTINUOUS
10
115.723
20
-114.246
11
115.914
21
-114.151
0
LINE
8
BLACK
6
CONTINUOUS
10
117.342
20
-114.341
11
117.438
21
-114.246
0
LINE
8
BLACK
6
CONTINUOUS
10
117.438
20
-114.246
11
117.628
21
-114.151
0
LINE
8
BLACK
6
CONTINUOUS
10
117.628
20
-114.151
11
118.104
21
-114.151
0
LINE
8
BLACK
6
CONTINUOUS
10
118.104
20
-114.151
11
118.295
21
-114.246
0
LINE
8
BLACK
6
CONTINUOUS
10
118.295
20
-114.246
11
118.39
21
-114.341
0
LINE
8
BLACK
6
CONTINUOUS
10
118.39
20
-114.341
11
118.485
21
-114.532
0
LINE
8
BLACK
6
CONTINUOUS
10
118.485
20
-114.532
11
118.485
21
-114.722
0
LINE
8
BLACK
6
CONTINUOUS
10
118.485
20
-114.722
11
118.39
21
-115.008
0
LINE
8
BLACK
6
CONTINUOUS
10
118.39
20
-115.008
11
117.247
21
-116.151
0
LINE
8
BLACK
6
CONTINUOUS
10
117.247
20
-116.151
11
118.485
21
-116.151
0
LINE
8
BLACK
6
CONTINUOUS
10
119.152
20
-114.151
11
120.485
21
-114.151
0
LINE
8
BLACK
6
CONTINUOUS
10
120.485
20
-114.151
11
119.628
21
-116.151
0
LINE
8
BLACK
6
CONTINUOUS
10
122.104
20
-114.151
11
121.723
21
-114.151
0
LINE
8
BLACK
6
CONTINUOUS
10
121.723
20
-114.151
11
121.533
21
-114.246
0
LINE
8
BLACK
6
CONTINUOUS
10
121.533
20
-114.246
11
121.438
21
-114.341
0
LINE
8
BLACK
6
CONTINUOUS
10
121.438
20
-114.341
11
121.247
21
-114.627
0
LINE
8
BLACK
6
CONTINUOUS
10
121.247
20
-114.627
11
121.152
21
-115.008
0
LINE
8
BLACK
6
CONTINUOUS
10
121.152
20
-115.008
11
121.152
21
-115.77
0
LINE
8
BLACK
6
CONTINUOUS
10
121.152
20
-115.77
11
121.247
21
-115.96
0
LINE
8
BLACK
6
CONTINUOUS
10
121.247
20
-115.96
11
121.342
21
-116.056
0
LINE
8
BLACK
6
CONTINUOUS
10
121.342
20
-116.056
11
121.533
21
-116.151
0
LINE
8
BLACK
6
CONTINUOUS
10
121.533
20
-116.151
11
121.914
21
-116.151
0
LINE
8
BLACK
6
CONTINUOUS
10
121.914
20
-116.151
11
122.104
21
-116.056
0
LINE
8
BLACK
6
CONTINUOUS
10
122.104
20
-116.056
11
122.2
21
-115.96
0
LINE
8
BLACK
6
CONTINUOUS
10
122.2
20
-115.96
11
122.295
21
-115.77
0
LINE
8
BLACK
6
CONTINUOUS
10
122.295
20
-115.77
11
122.295
21
-115.294
0
LINE
8
BLACK
6
CONTINUOUS
10
122.295
20
-115.294
11
122.2
21
-115.103
0
LINE
8
BLACK
6
CONTINUOUS
10
122.2
20
-115.103
11
122.104
21
-115.008
0
LINE
8
BLACK
6
CONTINUOUS
10
122.104
20
-115.008
11
121.914
21
-114.913
0
LINE
8
BLACK
6
CONTINUOUS
10
121.914
20
-114.913
11
121.533
21
-114.913
0
LINE
8
BLACK
6
CONTINUOUS
10
121.533
20
-114.913
11
121.342
21
-115.008
0
LINE
8
BLACK
6
CONTINUOUS
10
121.342
20
-115.008
11
121.247
21
-115.103
0
LINE
8
BLACK
6
CONTINUOUS
10
121.247
20
-115.103
11
121.152
21
-115.294
0
LINE
8
BLACK
6
CONTINUOUS
10
123.057
20
-114.151
11
123.057
21
-114.532
0
LINE
8
BLACK
6
CONTINUOUS
10
123.819
20
-114.151
11
123.819
21
-114.532
0
LINE
8
BLACK
6
CONTINUOUS
10
126.771
20
-116.913
11
126.676
21
-116.817
0
LINE
8
BLACK
6
CONTINUOUS
10
126.676
20
-116.817
11
126.485
21
-116.532
0
LINE
8
BLACK
6
CONTINUOUS
10
126.485
20
-116.532
11
126.39
21
-116.341
0
LINE
8
BLACK
6
CONTINUOUS
10
126.39
20
-116.341
11
126.295
21
-116.056
0
LINE
8
BLACK
6
CONTINUOUS
10
126.295
20
-116.056
11
126.2
21
-115.579
0
LINE
8
BLACK
6
CONTINUOUS
10
126.2
20
-115.579
11
126.2
21
-115.198
0
LINE
8
BLACK
6
CONTINUOUS
10
126.2
20
-115.198
11
126.295
21
-114.722
0
LINE
8
BLACK
6
CONTINUOUS
10
126.295
20
-114.722
11
126.39
21
-114.436
0
LINE
8
BLACK
6
CONTINUOUS
10
126.39
20
-114.436
11
126.485
21
-114.246
0
LINE
8
BLACK
6
CONTINUOUS
10
126.485
20
-114.246
11
126.676
21
-113.96
0
LINE
8
BLACK
6
CONTINUOUS
10
126.676
20
-113.96
11
126.771
21
-113.865
0
LINE
8
BLACK
6
CONTINUOUS
10
128.39
20
-114.151
11
128.009
21
-114.151
0
LINE
8
BLACK
6
CONTINUOUS
10
128.009
20
-114.151
11
127.819
21
-114.246
0
LINE
8
BLACK
6
CONTINUOUS
10
127.819
20
-114.246
11
127.723
21
-114.341
0
LINE
8
BLACK
6
CONTINUOUS
10
127.723
20
-114.341
11
127.533
21
-114.627
0
LINE
8
BLACK
6
CONTINUOUS
10
127.533
20
-114.627
11
127.438
21
-115.008
0
LINE
8
BLACK
6
CONTINUOUS
10
127.438
20
-115.008
11
127.438
21
-115.77
0
LINE
8
BLACK
6
CONTINUOUS
10
127.438
20
-115.77
11
127.533
21
-115.96
0
LINE
8
BLACK
6
CONTINUOUS
10
127.533
20
-115.96
11
127.628
21
-116.056
0
LINE
8
BLACK
6
CONTINUOUS
10
127.628
20
-116.056
11
127.819
21
-116.151
0
LINE
8
BLACK
6
CONTINUOUS
10
127.819
20
-116.151
11
128.2
21
-116.151
0
LINE
8
BLACK
6
CONTINUOUS
10
128.2
20
-116.151
11
128.39
21
-116.056
0
LINE
8
BLACK
6
CONTINUOUS
10
128.39
20
-116.056
11
128.485
21
-115.96
0
LINE
8
BLACK
6
CONTINUOUS
10
128.485
20
-115.96
11
128.581
21
-115.77
0
LINE
8
BLACK
6
CONTINUOUS
10
128.581
20
-115.77
11
128.581
21
-115.294
0
LINE
8
BLACK
6
CONTINUOUS
10
128.581
20
-115.294
11
128.485
21
-115.103
0
LINE
8
BLACK
6
CONTINUOUS
10
128.485
20
-115.103
11
128.39
21
-115.008
0
LINE
8
BLACK
6
CONTINUOUS
10
128.39
20
-115.008
11
128.2
21
-114.913
0
LINE
8
BLACK
6
CONTINUOUS
10
128.2
20
-114.913
11
127.819
21
-114.913
0
LINE
8
BLACK
6
CONTINUOUS
10
127.819
20
-114.913
11
127.628
21
-115.008
0
LINE
8
BLACK
6
CONTINUOUS
10
127.628
20
-115.008
11
127.533
21
-115.103
0
LINE
8
BLACK
6
CONTINUOUS
10
127.533
20
-115.103
11
127.438
21
-115.294
0
LINE
8
BLACK
6
CONTINUOUS
10
129.819
20
-114.151
11
130.009
21
-114.151
0
LINE
8
BLACK
6
CONTINUOUS
10
130.009
20
-114.151
11
130.2
21
-114.246
0
LINE
8
BLACK
6
CONTINUOUS
10
130.2
20
-114.246
11
130.295
21
-114.341
0
LINE
8
BLACK
6
CONTINUOUS
10
130.295
20
-114.341
11
130.39
21
-114.532
0
LINE
8
BLACK
6
CONTINUOUS
10
130.39
20
-114.532
11
130.485
21
-114.913
0
LINE
8
BLACK
6
CONTINUOUS
10
130.485
20
-114.913
11
130.485
21
-115.389
0
LINE
8
BLACK
6
CONTINUOUS
10
130.485
20
-115.389
11
130.39
21
-115.77
0
LINE
8
BLACK
6
CONTINUOUS
10
130.39
20
-115.77
11
130.295
21
-115.96
0
LINE
8
BLACK
6
CONTINUOUS
10
130.295
20
-115.96
11
130.2
21
-116.056
0
LINE
8
BLACK
6
CONTINUOUS
10
130.2
20
-116.056
11
130.009
21
-116.151
0
LINE
8
BLACK
6
CONTINUOUS
10
130.009
20
-116.151
11
129.819
21
-116.151
0
LINE
8
BLACK
6
CONTINUOUS
10
129.819
20
-116.151
11
129.628
21
-116.056
0
LINE
8
BLACK
6
CONTINUOUS
10
129.628
20
-116.056
11
129.533
21
-115.96
0
LINE
8
BLACK
6
CONTINUOUS
10
129.533
20
-115.96
11
129.438
21
-115.77
0
LINE
8
BLACK
6
CONTINUOUS
10
129.438
20
-115.77
11
129.342
21
-115.389
0
LINE
8
BLACK
6
CONTINUOUS
10
129.342
20
-115.389
11
129.342
21
-114.913
0
LINE
8
BLACK
6
CONTINUOUS
10
129.342
20
-114.913
11
129.438
21
-114.532
0
LINE
8
BLACK
6
CONTINUOUS
10
129.438
20
-114.532
11
129.533
21
-114.341
0
LINE
8
BLACK
6
CONTINUOUS
10
129.533
20
-114.341
11
129.628
21
-114.246
0
LINE
8
BLACK
6
CONTINUOUS
10
129.628
20
-114.246
11
129.819
21
-114.151
0
LINE
8
BLACK
6
CONTINUOUS
10
132.866
20
-116.151
11
132.866
21
-114.151
0
LINE
8
BLACK
6
CONTINUOUS
10
133.723
20
-116.151
11
133.723
21
-115.103
0
LINE
8
BLACK
6
CONTINUOUS
10
133.723
20
-115.103
11
133.628
21
-114.913
0
LINE
8
BLACK
6
CONTINUOUS
10
133.628
20
-114.913
11
133.438
21
-114.817
0
LINE
8
BLACK
6
CONTINUOUS
10
133.438
20
-114.817
11
133.152
21
-114.817
0
LINE
8
BLACK
6
CONTINUOUS
10
133.152
20
-114.817
11
132.962
21
-114.913
0
LINE
8
BLACK
6
CONTINUOUS
10
132.962
20
-114.913
11
132.866
21
-115.008
0
LINE
8
BLACK
6
CONTINUOUS
10
134.962
20
-116.151
11
134.771
21
-116.056
0
LINE
8
BLACK
6
CONTINUOUS
10
134.771
20
-116.056
11
134.676
21
-115.96
0
LINE
8
BLACK
6
CONTINUOUS
10
134.676
20
-115.96
11
134.581
21
-115.77
0
LINE
8
BLACK
6
CONTINUOUS
10
134.581
20
-115.77
11
134.581
21
-115.198
0
LINE
8
BLACK
6
CONTINUOUS
10
134.581
20
-115.198
11
134.676
21
-115.008
0
LINE
8
BLACK
6
CONTINUOUS
10
134.676
20
-115.008
11
134.771
21
-114.913
0
LINE
8
BLACK
6
CONTINUOUS
10
134.771
20
-114.913
11
134.962
21
-114.817
0
LINE
8
BLACK
6
CONTINUOUS
10
134.962
20
-114.817
11
135.247
21
-114.817
0
LINE
8
BLACK
6
CONTINUOUS
10
135.247
20
-114.817
11
135.438
21
-114.913
0
LINE
8
BLACK
6
CONTINUOUS
10
135.438
20
-114.913
11
135.533
21
-115.008
0
LINE
8
BLACK
6
CONTINUOUS
10
135.533
20
-115.008
11
135.628
21
-115.198
0
LINE
8
BLACK
6
CONTINUOUS
10
135.628
20
-115.198
11
135.628
21
-115.77
0
LINE
8
BLACK
6
CONTINUOUS
10
135.628
20
-115.77
11
135.533
21
-115.96
0
LINE
8
BLACK
6
CONTINUOUS
10
135.533
20
-115.96
11
135.438
21
-116.056
0
LINE
8
BLACK
6
CONTINUOUS
10
135.438
20
-116.056
11
135.247
21
-116.151
0
LINE
8
BLACK
6
CONTINUOUS
10
135.247
20
-116.151
11
134.962
21
-116.151
0
LINE
8
BLACK
6
CONTINUOUS
10
136.771
20
-116.151
11
136.581
21
-116.056
0
LINE
8
BLACK
6
CONTINUOUS
10
136.581
20
-116.056
11
136.485
21
-115.865
0
LINE
8
BLACK
6
CONTINUOUS
10
136.485
20
-115.865
11
136.485
21
-114.151
0
LINE
8
BLACK
6
CONTINUOUS
10
138.295
20
-116.056
11
138.104
21
-116.151
0
LINE
8
BLACK
6
CONTINUOUS
10
138.104
20
-116.151
11
137.723
21
-116.151
0
LINE
8
BLACK
6
CONTINUOUS
10
137.723
20
-116.151
11
137.533
21
-116.056
0
LINE
8
BLACK
6
CONTINUOUS
10
137.533
20
-116.056
11
137.438
21
-115.865
0
LINE
8
BLACK
6
CONTINUOUS
10
137.438
20
-115.865
11
137.438
21
-115.103
0
LINE
8
BLACK
6
CONTINUOUS
10
137.438
20
-115.103
11
137.533
21
-114.913
0
LINE
8
BLACK
6
CONTINUOUS
10
137.533
20
-114.913
11
137.723
21
-114.817
0
LINE
8
BLACK
6
CONTINUOUS
10
137.723
20
-114.817
11
138.104
21
-114.817
0
LINE
8
BLACK
6
CONTINUOUS
10
138.104
20
-114.817
11
138.295
21
-114.913
0
LINE
8
BLACK
6
CONTINUOUS
10
138.295
20
-114.913
11
138.39
21
-115.103
0
LINE
8
BLACK
6
CONTINUOUS
10
138.39
20
-115.103
11
138.39
21
-115.294
0
LINE
8
BLACK
6
CONTINUOUS
10
138.39
20
-115.294
11
137.438
21
-115.484
0
LINE
8
BLACK
6
CONTINUOUS
10
139.152
20
-116.056
11
139.342
21
-116.151
0
LINE
8
BLACK
6
CONTINUOUS
10
139.342
20
-116.151
11
139.723
21
-116.151
0
LINE
8
BLACK
6
CONTINUOUS
10
139.723
20
-116.151
11
139.914
21
-116.056
0
LINE
8
BLACK
6
CONTINUOUS
10
139.914
20
-116.056
11
140.009
21
-115.865
0
LINE
8
BLACK
6
CONTINUOUS
10
140.009
20
-115.865
11
140.009
21
-115.77
0
LINE
8
BLACK
6
CONTINUOUS
10
140.009
20
-115.77
11
139.914
21
-115.579
0
LINE
8
BLACK
6
CONTINUOUS
10
139.914
20
-115.579
11
139.723
21
-115.484
0
LINE
8
BLACK
6
CONTINUOUS
10
139.723
20
-115.484
11
139.438
21
-115.484
0
LINE
8
BLACK
6
CONTINUOUS
10
139.438
20
-115.484
11
139.247
21
-115.389
0
LINE
8
BLACK
6
CONTINUOUS
10
139.247
20
-115.389
11
139.152
21
-115.198
0
LINE
8
BLACK
6
CONTINUOUS
10
139.152
20
-115.198
11
139.152
21
-115.103
0
LINE
8
BLACK
6
CONTINUOUS
10
139.152
20
-115.103
11
139.247
21
-114.913
0
LINE
8
BLACK
6
CONTINUOUS
10
139.247
20
-114.913
11
139.438
21
-114.817
0
LINE
8
BLACK
6
CONTINUOUS
10
139.438
20
-114.817
11
139.723
21
-114.817
0
LINE
8
BLACK
6
CONTINUOUS
10
139.723
20
-114.817
11
139.914
21
-114.913
0
LINE
8
BLACK
6
CONTINUOUS
10
140.676
20
-116.913
11
140.771
21
-116.817
0
LINE
8
BLACK
6
CONTINUOUS
10
140.771
20
-116.817
11
140.962
21
-116.532
0
LINE
8
BLACK
6
CONTINUOUS
10
140.962
20
-116.532
11
141.057
21
-116.341
0
LINE
8
BLACK
6
CONTINUOUS
10
141.057
20
-116.341
11
141.152
21
-116.056
0
LINE
8
BLACK
6
CONTINUOUS
10
141.152
20
-116.056
11
141.247
21
-115.579
0
LINE
8
BLACK
6
CONTINUOUS
10
141.247
20
-115.579
11
141.247
21
-115.198
0
LINE
8
BLACK
6
CONTINUOUS
10
141.247
20
-115.198
11
141.152
21
-114.722
0
LINE
8
BLACK
6
CONTINUOUS
10
141.152
20
-114.722
11
141.057
21
-114.436
0
LINE
8
BLACK
6
CONTINUOUS
10
141.057
20
-114.436
11
140.962
21
-114.246
0
LINE
8
BLACK
6
CONTINUOUS
10
140.962
20
-114.246
11
140.771
21
-113.96
0
LINE
8
BLACK
6
CONTINUOUS
10
140.771
20
-113.96
11
140.676
21
-113.865
0
CIRCLE
8
BLACK
10
90.652
20
-117.886
40
0.4
0
LINE
8
BLACK
6
CONTINUOUS
10
94.0091
20
-116.791
11
94.1996
21
-116.791
0
LINE
8
BLACK
6
CONTINUOUS
10
94.1996
20
-116.791
11
94.3901
21
-116.886
0
LINE
8
BLACK
6
CONTINUOUS
10
94.3901
20
-116.886
11
94.4853
21
-116.981
0
LINE
8
BLACK
6
CONTINUOUS
10
94.4853
20
-116.981
11
94.5806
21
-117.172
0
LINE
8
BLACK
6
CONTINUOUS
10
94.5806
20
-117.172
11
94.6758
21
-117.553
0
LINE
8
BLACK
6
CONTINUOUS
10
94.6758
20
-117.553
11
94.6758
21
-118.029
0
LINE
8
BLACK
6
CONTINUOUS
10
94.6758
20
-118.029
11
94.5806
21
-118.41
0
LINE
8
BLACK
6
CONTINUOUS
10
94.5806
20
-118.41
11
94.4853
21
-118.6
0
LINE
8
BLACK
6
CONTINUOUS
10
94.4853
20
-118.6
11
94.3901
21
-118.696
0
LINE
8
BLACK
6
CONTINUOUS
10
94.3901
20
-118.696
11
94.1996
21
-118.791
0
LINE
8
BLACK
6
CONTINUOUS
10
94.1996
20
-118.791
11
94.0091
21
-118.791
0
LINE
8
BLACK
6
CONTINUOUS
10
94.0091
20
-118.791
11
93.8187
21
-118.696
0
LINE
8
BLACK
6
CONTINUOUS
10
93.8187
20
-118.696
11
93.7234
21
-118.6
0
LINE
8
BLACK
6
CONTINUOUS
10
93.7234
20
-118.6
11
93.6282
21
-118.41
0
LINE
8
BLACK
6
CONTINUOUS
10
93.6282
20
-118.41
11
93.533
21
-118.029
0
LINE
8
BLACK
6
CONTINUOUS
10
93.533
20
-118.029
11
93.533
21
-117.553
0
LINE
8
BLACK
6
CONTINUOUS
10
93.533
20
-117.553
11
93.6282
21
-117.172
0
LINE
8
BLACK
6
CONTINUOUS
10
93.6282
20
-117.172
11
93.7234
21
-116.981
0
LINE
8
BLACK
6
CONTINUOUS
10
93.7234
20
-116.981
11
93.8187
21
-116.886
0
LINE
8
BLACK
6
CONTINUOUS
10
93.8187
20
-116.886
11
94.0091
21
-116.791
0
LINE
8
BLACK
6
CONTINUOUS
10
95.533
20
-118.6
11
95.6282
21
-118.696
0
LINE
8
BLACK
6
CONTINUOUS
10
95.6282
20
-118.696
11
95.533
21
-118.791
0
LINE
8
BLACK
6
CONTINUOUS
10
95.533
20
-118.791
11
95.4377
21
-118.696
0
LINE
8
BLACK
6
CONTINUOUS
10
95.4377
20
-118.696
11
95.533
21
-118.6
0
LINE
8
BLACK
6
CONTINUOUS
10
95.533
20
-118.6
11
95.533
21
-118.791
0
LINE
8
BLACK
6
CONTINUOUS
10
96.771
20
-117.648
11
96.5806
21
-117.553
0
LINE
8
BLACK
6
CONTINUOUS
10
96.5806
20
-117.553
11
96.4853
21
-117.457
0
LINE
8
BLACK
6
CONTINUOUS
10
96.4853
20
-117.457
11
96.3901
21
-117.267
0
LINE
8
BLACK
6
CONTINUOUS
10
96.3901
20
-117.267
11
96.3901
21
-117.172
0
LINE
8
BLACK
6
CONTINUOUS
10
96.3901
20
-117.172
11
96.4853
21
-116.981
0
LINE
8
BLACK
6
CONTINUOUS
10
96.4853
20
-116.981
11
96.5806
21
-116.886
0
LINE
8
BLACK
6
CONTINUOUS
10
96.5806
20
-116.886
11
96.771
21
-116.791
0
LINE
8
BLACK
6
CONTINUOUS
10
96.771
20
-116.791
11
97.152
21
-116.791
0
LINE
8
BLACK
6
CONTINUOUS
10
97.152
20
-116.791
11
97.3425
21
-116.886
0
LINE
8
BLACK
6
CONTINUOUS
10
97.3425
20
-116.886
11
97.4377
21
-116.981
0
LINE
8
BLACK
6
CONTINUOUS
10
97.4377
20
-116.981
11
97.533
21
-117.172
0
LINE
8
BLACK
6
CONTINUOUS
10
97.533
20
-117.172
11
97.533
21
-117.267
0
LINE
8
BLACK
6
CONTINUOUS
10
97.533
20
-117.267
11
97.4377
21
-117.457
0
LINE
8
BLACK
6
CONTINUOUS
10
97.4377
20
-117.457
11
97.3425
21
-117.553
0
LINE
8
BLACK
6
CONTINUOUS
10
97.3425
20
-117.553
11
97.152
21
-117.648
0
LINE
8
BLACK
6
CONTINUOUS
10
97.152
20
-117.648
11
96.771
21
-117.648
0
LINE
8
BLACK
6
CONTINUOUS
10
96.771
20
-117.648
11
96.5806
21
-117.743
0
LINE
8
BLACK
6
CONTINUOUS
10
96.5806
20
-117.743
11
96.4853
21
-117.838
0
LINE
8
BLACK
6
CONTINUOUS
10
96.4853
20
-117.838
11
96.3901
21
-118.029
0
LINE
8
BLACK
6
CONTINUOUS
10
96.3901
20
-118.029
11
96.3901
21
-118.41
0
LINE
8
BLACK
6
CONTINUOUS
10
96.3901
20
-118.41
11
96.4853
21
-118.6
0
LINE
8
BLACK
6
CONTINUOUS
10
96.4853
20
-118.6
11
96.5806
21
-118.696
0
LINE
8
BLACK
6
CONTINUOUS
10
96.5806
20
-118.696
11
96.771
21
-118.791
0
LINE
8
BLACK
6
CONTINUOUS
10
96.771
20
-118.791
11
97.152
21
-118.791
0
LINE
8
BLACK
6
CONTINUOUS
10
97.152
20
-118.791
11
97.3425
21
-118.696
0
LINE
8
BLACK
6
CONTINUOUS
10
97.3425
20
-118.696
11
97.4377
21
-118.6
0
LINE
8
BLACK
6
CONTINUOUS
10
97.4377
20
-118.6
11
97.533
21
-118.41
0
LINE
8
BLACK
6
CONTINUOUS
10
97.533
20
-118.41
11
97.533
21
-118.029
0
LINE
8
BLACK
6
CONTINUOUS
10
97.533
20
-118.029
11
97.4377
21
-117.838
0
LINE
8
BLACK
6
CONTINUOUS
10
97.4377
20
-117.838
11
97.3425
21
-117.743
0
LINE
8
BLACK
6
CONTINUOUS
10
97.3425
20
-117.743
11
97.152
21
-117.648
0
LINE
8
BLACK
6
CONTINUOUS
10
98.771
20
-116.791
11
98.9615
21
-116.791
0
LINE
8
BLACK
6
CONTINUOUS
10
98.9615
20
-116.791
11
99.152
21
-116.886
0
LINE
8
BLACK
6
CONTINUOUS
10
99.152
20
-116.886
11
99.2472
21
-116.981
0
LINE
8
BLACK
6
CONTINUOUS
10
99.2472
20
-116.981
11
99.3425
21
-117.172
0
LINE
8
BLACK
6
CONTINUOUS
10
99.3425
20
-117.172
11
99.4377
21
-117.553
0
LINE
8
BLACK
6
CONTINUOUS
10
99.4377
20
-117.553
11
99.4377
21
-118.029
0
LINE
8
BLACK
6
CONTINUOUS
10
99.4377
20
-118.029
11
99.3425
21
-118.41
0
LINE
8
BLACK
6
CONTINUOUS
10
99.3425
20
-118.41
11
99.2472
21
-118.6
0
LINE
8
BLACK
6
CONTINUOUS
10
99.2472
20
-118.6
11
99.152
21
-118.696
0
LINE
8
BLACK
6
CONTINUOUS
10
99.152
20
-118.696
11
98.9615
21
-118.791
0
LINE
8
BLACK
6
CONTINUOUS
10
98.9615
20
-118.791
11
98.771
21
-118.791
0
LINE
8
BLACK
6
CONTINUOUS
10
98.771
20
-118.791
11
98.5806
21
-118.696
0
LINE
8
BLACK
6
CONTINUOUS
10
98.5806
20
-118.696
11
98.4853
21
-118.6
0
LINE
8
BLACK
6
CONTINUOUS
10
98.4853
20
-118.6
11
98.3901
21
-118.41
0
LINE
8
BLACK
6
CONTINUOUS
10
98.3901
20
-118.41
11
98.2949
21
-118.029
0
LINE
8
BLACK
6
CONTINUOUS
10
98.2949
20
-118.029
11
98.2949
21
-117.553
0
LINE
8
BLACK
6
CONTINUOUS
10
98.2949
20
-117.553
11
98.3901
21
-117.172
0
LINE
8
BLACK
6
CONTINUOUS
10
98.3901
20
-117.172
11
98.4853
21
-116.981
0
LINE
8
BLACK
6
CONTINUOUS
10
98.4853
20
-116.981
11
98.5806
21
-116.886
0
LINE
8
BLACK
6
CONTINUOUS
10
98.5806
20
-116.886
11
98.771
21
-116.791
0
LINE
8
BLACK
6
CONTINUOUS
10
100.676
20
-116.791
11
100.866
21
-116.791
0
LINE
8
BLACK
6
CONTINUOUS
10
100.866
20
-116.791
11
101.057
21
-116.886
0
LINE
8
BLACK
6
CONTINUOUS
10
101.057
20
-116.886
11
101.152
21
-116.981
0
LINE
8
BLACK
6
CONTINUOUS
10
101.152
20
-116.981
11
101.247
21
-117.172
0
LINE
8
BLACK
6
CONTINUOUS
10
101.247
20
-117.172
11
101.342
21
-117.553
0
LINE
8
BLACK
6
CONTINUOUS
10
101.342
20
-117.553
11
101.342
21
-118.029
0
LINE
8
BLACK
6
CONTINUOUS
10
101.342
20
-118.029
11
101.247
21
-118.41
0
LINE
8
BLACK
6
CONTINUOUS
10
101.247
20
-118.41
11
101.152
21
-118.6
0
LINE
8
BLACK
6
CONTINUOUS
10
101.152
20
-118.6
11
101.057
21
-118.696
0
LINE
8
BLACK
6
CONTINUOUS
10
101.057
20
-118.696
11
100.866
21
-118.791
0
LINE
8
BLACK
6
CONTINUOUS
10
100.866
20
-118.791
11
100.676
21
-118.791
0
LINE
8
BLACK
6
CONTINUOUS
10
100.676
20
-118.791
11
100.485
21
-118.696
0
LINE
8
BLACK
6
CONTINUOUS
10
100.485
20
-118.696
11
100.39
21
-118.6
0
LINE
8
BLACK
6
CONTINUOUS
10
100.39
20
-118.6
11
100.295
21
-118.41
0
LINE
8
BLACK
6
CONTINUOUS
10
100.295
20
-118.41
11
100.2
21
-118.029
0
LINE
8
BLACK
6
CONTINUOUS
10
100.2
20
-118.029
11
100.2
21
-117.553
0
LINE
8
BLACK
6
CONTINUOUS
10
100.2
20
-117.553
11
100.295
21
-117.172
0
LINE
8
BLACK
6
CONTINUOUS
10
100.295
20
-117.172
11
100.39
21
-116.981
0
LINE
8
BLACK
6
CONTINUOUS
10
100.39
20
-116.981
11
100.485
21
-116.886
0
LINE
8
BLACK
6
CONTINUOUS
10
100.485
20
-116.886
11
100.676
21
-116.791
0
LINE
8
BLACK
6
CONTINUOUS
10
102.2
20
-118.791
11
102.2
21
-117.457
0
LINE
8
BLACK
6
CONTINUOUS
10
102.2
20
-117.648
11
102.295
21
-117.553
0
LINE
8
BLACK
6
CONTINUOUS
10
102.295
20
-117.553
11
102.485
21
-117.457
0
LINE
8
BLACK
6
CONTINUOUS
10
102.485
20
-117.457
11
102.771
21
-117.457
0
LINE
8
BLACK
6
CONTINUOUS
10
102.771
20
-117.457
11
102.962
21
-117.553
0
LINE
8
BLACK
6
CONTINUOUS
10
102.962
20
-117.553
11
103.057
21
-117.743
0
LINE
8
BLACK
6
CONTINUOUS
10
103.057
20
-117.743
11
103.057
21
-118.791
0
LINE
8
BLACK
6
CONTINUOUS
10
103.057
20
-117.743
11
103.152
21
-117.553
0
LINE
8
BLACK
6
CONTINUOUS
10
103.152
20
-117.553
11
103.342
21
-117.457
0
LINE
8
BLACK
6
CONTINUOUS
10
103.342
20
-117.457
11
103.628
21
-117.457
0
LINE
8
BLACK
6
CONTINUOUS
10
103.628
20
-117.457
11
103.819
21
-117.553
0
LINE
8
BLACK
6
CONTINUOUS
10
103.819
20
-117.553
11
103.914
21
-117.743
0
LINE
8
BLACK
6
CONTINUOUS
10
103.914
20
-117.743
11
103.914
21
-118.791
0
LINE
8
BLACK
6
CONTINUOUS
10
104.866
20
-118.791
11
104.866
21
-117.457
0
LINE
8
BLACK
6
CONTINUOUS
10
104.866
20
-117.648
11
104.962
21
-117.553
0
LINE
8
BLACK
6
CONTINUOUS
10
104.962
20
-117.553
11
105.152
21
-117.457
0
LINE
8
BLACK
6
CONTINUOUS
10
105.152
20
-117.457
11
105.438
21
-117.457
0
LINE
8
BLACK
6
CONTINUOUS
10
105.438
20
-117.457
11
105.628
21
-117.553
0
LINE
8
BLACK
6
CONTINUOUS
10
105.628
20
-117.553
11
105.723
21
-117.743
0
LINE
8
BLACK
6
CONTINUOUS
10
105.723
20
-117.743
11
105.723
21
-118.791
0
LINE
8
BLACK
6
CONTINUOUS
10
105.723
20
-117.743
11
105.819
21
-117.553
0
LINE
8
BLACK
6
CONTINUOUS
10
105.819
20
-117.553
11
106.009
21
-117.457
0
LINE
8
BLACK
6
CONTINUOUS
10
106.009
20
-117.457
11
106.295
21
-117.457
0
LINE
8
BLACK
6
CONTINUOUS
10
106.295
20
-117.457
11
106.485
21
-117.553
0
LINE
8
BLACK
6
CONTINUOUS
10
106.485
20
-117.553
11
106.581
21
-117.743
0
LINE
8
BLACK
6
CONTINUOUS
10
106.581
20
-117.743
11
106.581
21
-118.791
0
LINE
8
BLACK
6
CONTINUOUS
10
110.485
20
-116.696
11
108.771
21
-119.267
0
LINE
8
BLACK
6
CONTINUOUS
10
113.057
20
-116.791
11
113.247
21
-116.791
0
LINE
8
BLACK
6
CONTINUOUS
10
113.247
20
-116.791
11
113.438
21
-116.886
0
LINE
8
BLACK
6
CONTINUOUS
10
113.438
20
-116.886
11
113.533
21
-116.981
0
LINE
8
BLACK
6
CONTINUOUS
10
113.533
20
-116.981
11
113.628
21
-117.172
0
LINE
8
BLACK
6
CONTINUOUS
10
113.628
20
-117.172
11
113.723
21
-117.553
0
LINE
8
BLACK
6
CONTINUOUS
10
113.723
20
-117.553
11
113.723
21
-118.029
0
LINE
8
BLACK
6
CONTINUOUS
10
113.723
20
-118.029
11
113.628
21
-118.41
0
LINE
8
BLACK
6
CONTINUOUS
10
113.628
20
-118.41
11
113.533
21
-118.6
0
LINE
8
BLACK
6
CONTINUOUS
10
113.533
20
-118.6
11
113.438
21
-118.696
0
LINE
8
BLACK
6
CONTINUOUS
10
113.438
20
-118.696
11
113.247
21
-118.791
0
LINE
8
BLACK
6
CONTINUOUS
10
113.247
20
-118.791
11
113.057
21
-118.791
0
LINE
8
BLACK
6
CONTINUOUS
10
113.057
20
-118.791
11
112.866
21
-118.696
0
LINE
8
BLACK
6
CONTINUOUS
10
112.866
20
-118.696
11
112.771
21
-118.6
0
LINE
8
BLACK
6
CONTINUOUS
10
112.771
20
-118.6
11
112.676
21
-118.41
0
LINE
8
BLACK
6
CONTINUOUS
10
112.676
20
-118.41
11
112.581
21
-118.029
0
LINE
8
BLACK
6
CONTINUOUS
10
112.581
20
-118.029
11
112.581
21
-117.553
0
LINE
8
BLACK
6
CONTINUOUS
10
112.581
20
-117.553
11
112.676
21
-117.172
0
LINE
8
BLACK
6
CONTINUOUS
10
112.676
20
-117.172
11
112.771
21
-116.981
0
LINE
8
BLACK
6
CONTINUOUS
10
112.771
20
-116.981
11
112.866
21
-116.886
0
LINE
8
BLACK
6
CONTINUOUS
10
112.866
20
-116.886
11
113.057
21
-116.791
0
LINE
8
BLACK
6
CONTINUOUS
10
114.581
20
-118.6
11
114.676
21
-118.696
0
LINE
8
BLACK
6
CONTINUOUS
10
114.676
20
-118.696
11
114.581
21
-118.791
0
LINE
8
BLACK
6
CONTINUOUS
10
114.581
20
-118.791
11
114.485
21
-118.696
0
LINE
8
BLACK
6
CONTINUOUS
10
114.485
20
-118.696
11
114.581
21
-118.6
0
LINE
8
BLACK
6
CONTINUOUS
10
114.581
20
-118.6
11
114.581
21
-118.791
0
LINE
8
BLACK
6
CONTINUOUS
10
115.914
20
-116.791
11
116.104
21
-116.791
0
LINE
8
BLACK
6
CONTINUOUS
10
116.104
20
-116.791
11
116.295
21
-116.886
0
LINE
8
BLACK
6
CONTINUOUS
10
116.295
20
-116.886
11
116.39
21
-116.981
0
LINE
8
BLACK
6
CONTINUOUS
10
116.39
20
-116.981
11
116.485
21
-117.172
0
LINE
8
BLACK
6
CONTINUOUS
10
116.485
20
-117.172
11
116.581
21
-117.553
0
LINE
8
BLACK
6
CONTINUOUS
10
116.581
20
-117.553
11
116.581
21
-118.029
0
LINE
8
BLACK
6
CONTINUOUS
10
116.581
20
-118.029
11
116.485
21
-118.41
0
LINE
8
BLACK
6
CONTINUOUS
10
116.485
20
-118.41
11
116.39
21
-118.6
0
LINE
8
BLACK
6
CONTINUOUS
10
116.39
20
-118.6
11
116.295
21
-118.696
0
LINE
8
BLACK
6
CONTINUOUS
10
116.295
20
-118.696
11
116.104
21
-118.791
0
LINE
8
BLACK
6
CONTINUOUS
10
116.104
20
-118.791
11
115.914
21
-118.791
0
LINE
8
BLACK
6
CONTINUOUS
10
115.914
20
-118.791
11
115.723
21
-118.696
0
LINE
8
BLACK
6
CONTINUOUS
10
115.723
20
-118.696
11
115.628
21
-118.6
0
LINE
8
BLACK
6
CONTINUOUS
10
115.628
20
-118.6
11
115.533
21
-118.41
0
LINE
8
BLACK
6
CONTINUOUS
10
115.533
20
-118.41
11
115.438
21
-118.029
0
LINE
8
BLACK
6
CONTINUOUS
10
115.438
20
-118.029
11
115.438
21
-117.553
0
LINE
8
BLACK
6
CONTINUOUS
10
115.438
20
-117.553
11
115.533
21
-117.172
0
LINE
8
BLACK
6
CONTINUOUS
10
115.533
20
-117.172
11
115.628
21
-116.981
0
LINE
8
BLACK
6
CONTINUOUS
10
115.628
20
-116.981
11
115.723
21
-116.886
0
LINE
8
BLACK
6
CONTINUOUS
10
115.723
20
-116.886
11
115.914
21
-116.791
0
LINE
8
BLACK
6
CONTINUOUS
10
117.247
20
-116.791
11
118.485
21
-116.791
0
LINE
8
BLACK
6
CONTINUOUS
10
118.485
20
-116.791
11
117.819
21
-117.553
0
LINE
8
BLACK
6
CONTINUOUS
10
117.819
20
-117.553
11
118.104
21
-117.553
0
LINE
8
BLACK
6
CONTINUOUS
10
118.104
20
-117.553
11
118.295
21
-117.648
0
LINE
8
BLACK
6
CONTINUOUS
10
118.295
20
-117.648
11
118.39
21
-117.743
0
LINE
8
BLACK
6
CONTINUOUS
10
118.39
20
-117.743
11
118.485
21
-117.934
0
LINE
8
BLACK
6
CONTINUOUS
10
118.485
20
-117.934
11
118.485
21
-118.41
0
LINE
8
BLACK
6
CONTINUOUS
10
118.485
20
-118.41
11
118.39
21
-118.6
0
LINE
8
BLACK
6
CONTINUOUS
10
118.39
20
-118.6
11
118.295
21
-118.696
0
LINE
8
BLACK
6
CONTINUOUS
10
118.295
20
-118.696
11
118.104
21
-118.791
0
LINE
8
BLACK
6
CONTINUOUS
10
118.104
20
-118.791
11
117.533
21
-118.791
0
LINE
8
BLACK
6
CONTINUOUS
10
117.533
20
-118.791
11
117.342
21
-118.696
0
LINE
8
BLACK
6
CONTINUOUS
10
117.342
20
-118.696
11
117.247
21
-118.6
0
LINE
8
BLACK
6
CONTINUOUS
10
120.39
20
-118.791
11
119.247
21
-118.791
0
LINE
8
BLACK
6
CONTINUOUS
10
119.819
20
-118.791
11
119.819
21
-116.791
0
LINE
8
BLACK
6
CONTINUOUS
10
119.819
20
-116.791
11
119.628
21
-117.076
0
LINE
8
BLACK
6
CONTINUOUS
10
119.628
20
-117.076
11
119.438
21
-117.267
0
LINE
8
BLACK
6
CONTINUOUS
10
119.438
20
-117.267
11
119.247
21
-117.362
0
LINE
8
BLACK
6
CONTINUOUS
10
122.2
20
-116.791
11
121.247
21
-116.791
0
LINE
8
BLACK
6
CONTINUOUS
10
121.247
20
-116.791
11
121.152
21
-117.743
0
LINE
8
BLACK
6
CONTINUOUS
10
121.152
20
-117.743
11
121.247
21
-117.648
0
LINE
8
BLACK
6
CONTINUOUS
10
121.247
20
-117.648
11
121.438
21
-117.553
0
LINE
8
BLACK
6
CONTINUOUS
10
121.438
20
-117.553
11
121.914
21
-117.553
0
LINE
8
BLACK
6
CONTINUOUS
10
121.914
20
-117.553
11
122.104
21
-117.648
0
LINE
8
BLACK
6
CONTINUOUS
10
122.104
20
-117.648
11
122.2
21
-117.743
0
LINE
8
BLACK
6
CONTINUOUS
10
122.2
20
-117.743
11
122.295
21
-117.934
0
LINE
8
BLACK
6
CONTINUOUS
10
122.295
20
-117.934
11
122.295
21
-118.41
0
LINE
8
BLACK
6
CONTINUOUS
10
122.295
20
-118.41
11
122.2
21
-118.6
0
LINE
8
BLACK
6
CONTINUOUS
10
122.2
20
-118.6
11
122.104
21
-118.696
0
LINE
8
BLACK
6
CONTINUOUS
10
122.104
20
-118.696
11
121.914
21
-118.791
0
LINE
8
BLACK
6
CONTINUOUS
10
121.914
20
-118.791
11
121.438
21
-118.791
0
LINE
8
BLACK
6
CONTINUOUS
10
121.438
20
-118.791
11
121.247
21
-118.696
0
LINE
8
BLACK
6
CONTINUOUS
10
121.247
20
-118.696
11
121.152
21
-118.6
0
LINE
8
BLACK
6
CONTINUOUS
10
123.057
20
-116.791
11
123.057
21
-117.172
0
LINE
8
BLACK
6
CONTINUOUS
10
123.819
20
-116.791
11
123.819
21
-117.172
0
LINE
8
BLACK
6
CONTINUOUS
10
126.771
20
-119.553
11
126.676
21
-119.457
0
LINE
8
BLACK
6
CONTINUOUS
10
126.676
20
-119.457
11
126.485
21
-119.172
0
LINE
8
BLACK
6
CONTINUOUS
10
126.485
20
-119.172
11
126.39
21
-118.981
0
LINE
8
BLACK
6
CONTINUOUS
10
126.39
20
-118.981
11
126.295
21
-118.696
0
LINE
8
BLACK
6
CONTINUOUS
10
126.295
20
-118.696
11
126.2
21
-118.219
0
LINE
8
BLACK
6
CONTINUOUS
10
126.2
20
-118.219
11
126.2
21
-117.838
0
LINE
8
BLACK
6
CONTINUOUS
10
126.2
20
-117.838
11
126.295
21
-117.362
0
LINE
8
BLACK
6
CONTINUOUS
10
126.295
20
-117.362
11
126.39
21
-117.076
0
LINE
8
BLACK
6
CONTINUOUS
10
126.39
20
-117.076
11
126.485
21
-116.886
0
LINE
8
BLACK
6
CONTINUOUS
10
126.485
20
-116.886
11
126.676
21
-116.6
0
LINE
8
BLACK
6
CONTINUOUS
10
126.676
20
-116.6
11
126.771
21
-116.505
0
LINE
8
BLACK
6
CONTINUOUS
10
128.39
20
-116.791
11
128.009
21
-116.791
0
LINE
8
BLACK
6
CONTINUOUS
10
128.009
20
-116.791
11
127.819
21
-116.886
0
LINE
8
BLACK
6
CONTINUOUS
10
127.819
20
-116.886
11
127.723
21
-116.981
0
LINE
8
BLACK
6
CONTINUOUS
10
127.723
20
-116.981
11
127.533
21
-117.267
0
LINE
8
BLACK
6
CONTINUOUS
10
127.533
20
-117.267
11
127.438
21
-117.648
0
LINE
8
BLACK
6
CONTINUOUS
10
127.438
20
-117.648
11
127.438
21
-118.41
0
LINE
8
BLACK
6
CONTINUOUS
10
127.438
20
-118.41
11
127.533
21
-118.6
0
LINE
8
BLACK
6
CONTINUOUS
10
127.533
20
-118.6
11
127.628
21
-118.696
0
LINE
8
BLACK
6
CONTINUOUS
10
127.628
20
-118.696
11
127.819
21
-118.791
0
LINE
8
BLACK
6
CONTINUOUS
10
127.819
20
-118.791
11
128.2
21
-118.791
0
LINE
8
BLACK
6
CONTINUOUS
10
128.2
20
-118.791
11
128.39
21
-118.696
0
LINE
8
BLACK
6
CONTINUOUS
10
128.39
20
-118.696
11
128.485
21
-118.6
0
LINE
8
BLACK
6
CONTINUOUS
10
128.485
20
-118.6
11
128.581
21
-118.41
0
LINE
8
BLACK
6
CONTINUOUS
10
128.581
20
-118.41
11
128.581
21
-117.934
0
LINE
8
BLACK
6
CONTINUOUS
10
128.581
20
-117.934
11
128.485
21
-117.743
0
LINE
8
BLACK
6
CONTINUOUS
10
128.485
20
-117.743
11
128.39
21
-117.648
0
LINE
8
BLACK
6
CONTINUOUS
10
128.39
20
-117.648
11
128.2
21
-117.553
0
LINE
8
BLACK
6
CONTINUOUS
10
128.2
20
-117.553
11
127.819
21
-117.553
0
LINE
8
BLACK
6
CONTINUOUS
10
127.819
20
-117.553
11
127.628
21
-117.648
0
LINE
8
BLACK
6
CONTINUOUS
10
127.628
20
-117.648
11
127.533
21
-117.743
0
LINE
8
BLACK
6
CONTINUOUS
10
127.533
20
-117.743
11
127.438
21
-117.934
0
LINE
8
BLACK
6
CONTINUOUS
10
130.962
20
-118.791
11
130.962
21
-116.791
0
LINE
8
BLACK
6
CONTINUOUS
10
131.819
20
-118.791
11
131.819
21
-117.743
0
LINE
8
BLACK
6
CONTINUOUS
10
131.819
20
-117.743
11
131.723
21
-117.553
0
LINE
8
BLACK
6
CONTINUOUS
10
131.723
20
-117.553
11
131.533
21
-117.457
0
LINE
8
BLACK
6
CONTINUOUS
10
131.533
20
-117.457
11
131.247
21
-117.457
0
LINE
8
BLACK
6
CONTINUOUS
10
131.247
20
-117.457
11
131.057
21
-117.553
0
LINE
8
BLACK
6
CONTINUOUS
10
131.057
20
-117.553
11
130.962
21
-117.648
0
LINE
8
BLACK
6
CONTINUOUS
10
133.057
20
-118.791
11
132.866
21
-118.696
0
LINE
8
BLACK
6
CONTINUOUS
10
132.866
20
-118.696
11
132.771
21
-118.6
0
LINE
8
BLACK
6
CONTINUOUS
10
132.771
20
-118.6
11
132.676
21
-118.41
0
LINE
8
BLACK
6
CONTINUOUS
10
132.676
20
-118.41
11
132.676
21
-117.838
0
LINE
8
BLACK
6
CONTINUOUS
10
132.676
20
-117.838
11
132.771
21
-117.648
0
LINE
8
BLACK
6
CONTINUOUS
10
132.771
20
-117.648
11
132.866
21
-117.553
0
LINE
8
BLACK
6
CONTINUOUS
10
132.866
20
-117.553
11
133.057
21
-117.457
0
LINE
8
BLACK
6
CONTINUOUS
10
133.057
20
-117.457
11
133.342
21
-117.457
0
LINE
8
BLACK
6
CONTINUOUS
10
133.342
20
-117.457
11
133.533
21
-117.553
0
LINE
8
BLACK
6
CONTINUOUS
10
133.533
20
-117.553
11
133.628
21
-117.648
0
LINE
8
BLACK
6
CONTINUOUS
10
133.628
20
-117.648
11
133.723
21
-117.838
0
LINE
8
BLACK
6
CONTINUOUS
10
133.723
20
-117.838
11
133.723
21
-118.41
0
LINE
8
BLACK
6
CONTINUOUS
10
133.723
20
-118.41
11
133.628
21
-118.6
0
LINE
8
BLACK
6
CONTINUOUS
10
133.628
20
-118.6
11
133.533
21
-118.696
0
LINE
8
BLACK
6
CONTINUOUS
10
133.533
20
-118.696
11
133.342
21
-118.791
0
LINE
8
BLACK
6
CONTINUOUS
10
133.342
20
-118.791
11
133.057
21
-118.791
0
LINE
8
BLACK
6
CONTINUOUS
10
134.866
20
-118.791
11
134.676
21
-118.696
0
LINE
8
BLACK
6
CONTINUOUS
10
134.676
20
-118.696
11
134.581
21
-118.505
0
LINE
8
BLACK
6
CONTINUOUS
10
134.581
20
-118.505
11
134.581
21
-116.791
0
LINE
8
BLACK
6
CONTINUOUS
10
136.39
20
-118.696
11
136.2
21
-118.791
0
LINE
8
BLACK
6
CONTINUOUS
10
136.2
20
-118.791
11
135.819
21
-118.791
0
LINE
8
BLACK
6
CONTINUOUS
10
135.819
20
-118.791
11
135.628
21
-118.696
0
LINE
8
BLACK
6
CONTINUOUS
10
135.628
20
-118.696
11
135.533
21
-118.505
0
LINE
8
BLACK
6
CONTINUOUS
10
135.533
20
-118.505
11
135.533
21
-117.743
0
LINE
8
BLACK
6
CONTINUOUS
10
135.533
20
-117.743
11
135.628
21
-117.553
0
LINE
8
BLACK
6
CONTINUOUS
10
135.628
20
-117.553
11
135.819
21
-117.457
0
LINE
8
BLACK
6
CONTINUOUS
10
135.819
20
-117.457
11
136.2
21
-117.457
0
LINE
8
BLACK
6
CONTINUOUS
10
136.2
20
-117.457
11
136.39
21
-117.553
0
LINE
8
BLACK
6
CONTINUOUS
10
136.39
20
-117.553
11
136.485
21
-117.743
0
LINE
8
BLACK
6
CONTINUOUS
10
136.485
20
-117.743
11
136.485
21
-117.934
0
LINE
8
BLACK
6
CONTINUOUS
10
136.485
20
-117.934
11
135.533
21
-118.124
0
LINE
8
BLACK
6
CONTINUOUS
10
137.247
20
-118.696
11
137.438
21
-118.791
0
LINE
8
BLACK
6
CONTINUOUS
10
137.438
20
-118.791
11
137.819
21
-118.791
0
LINE
8
BLACK
6
CONTINUOUS
10
137.819
20
-118.791
11
138.009
21
-118.696
0
LINE
8
BLACK
6
CONTINUOUS
10
138.009
20
-118.696
11
138.104
21
-118.505
0
LINE
8
BLACK
6
CONTINUOUS
10
138.104
20
-118.505
11
138.104
21
-118.41
0
LINE
8
BLACK
6
CONTINUOUS
10
138.104
20
-118.41
11
138.009
21
-118.219
0
LINE
8
BLACK
6
CONTINUOUS
10
138.009
20
-118.219
11
137.819
21
-118.124
0
LINE
8
BLACK
6
CONTINUOUS
10
137.819
20
-118.124
11
137.533
21
-118.124
0
LINE
8
BLACK
6
CONTINUOUS
10
137.533
20
-118.124
11
137.342
21
-118.029
0
LINE
8
BLACK
6
CONTINUOUS
10
137.342
20
-118.029
11
137.247
21
-117.838
0
LINE
8
BLACK
6
CONTINUOUS
10
137.247
20
-117.838
11
137.247
21
-117.743
0
LINE
8
BLACK
6
CONTINUOUS
10
137.247
20
-117.743
11
137.342
21
-117.553
0
LINE
8
BLACK
6
CONTINUOUS
10
137.342
20
-117.553
11
137.533
21
-117.457
0
LINE
8
BLACK
6
CONTINUOUS
10
137.533
20
-117.457
11
137.819
21
-117.457
0
LINE
8
BLACK
6
CONTINUOUS
10
137.819
20
-117.457
11
138.009
21
-117.553
0
LINE
8
BLACK
6
CONTINUOUS
10
138.771
20
-119.553
11
138.866
21
-119.457
0
LINE
8
BLACK
6
CONTINUOUS
10
138.866
20
-119.457
11
139.057
21
-119.172
0
LINE
8
BLACK
6
CONTINUOUS
10
139.057
20
-119.172
11
139.152
21
-118.981
0
LINE
8
BLACK
6
CONTINUOUS
10
139.152
20
-118.981
11
139.247
21
-118.696
0
LINE
8
BLACK
6
CONTINUOUS
10
139.247
20
-118.696
11
139.342
21
-118.219
0
LINE
8
BLACK
6
CONTINUOUS
10
139.342
20
-118.219
11
139.342
21
-117.838
0
LINE
8
BLACK
6
CONTINUOUS
10
139.342
20
-117.838
11
139.247
21
-117.362
0
LINE
8
BLACK
6
CONTINUOUS
10
139.247
20
-117.362
11
139.152
21
-117.076
0
LINE
8
BLACK
6
CONTINUOUS
10
139.152
20
-117.076
11
139.057
21
-116.886
0
LINE
8
BLACK
6
CONTINUOUS
10
139.057
20
-116.886
11
138.866
21
-116.6
0
LINE
8
BLACK
6
CONTINUOUS
10
138.866
20
-116.6
11
138.771
21
-116.505
0
LINE
8
BLACK
6
CONTINUOUS
10
90.552
20
-120.026
11
90.552
21
-121.026
0
LINE
8
BLACK
6
CONTINUOUS
10
90.052
20
-120.526
11
91.052
21
-120.526
0
LINE
8
BLACK
6
CONTINUOUS
10
94.6758
20
-121.431
11
93.533
21
-121.431
0
LINE
8
BLACK
6
CONTINUOUS
10
94.1044
20
-121.431
11
94.1044
21
-119.431
0
LINE
8
BLACK
6
CONTINUOUS
10
94.1044
20
-119.431
11
93.9139
21
-119.716
0
LINE
8
BLACK
6
CONTINUOUS
10
93.9139
20
-119.716
11
93.7234
21
-119.907
0
LINE
8
BLACK
6
CONTINUOUS
10
93.7234
20
-119.907
11
93.533
21
-120.002
0
LINE
8
BLACK
6
CONTINUOUS
10
95.533
20
-121.24
11
95.6282
21
-121.336
0
LINE
8
BLACK
6
CONTINUOUS
10
95.6282
20
-121.336
11
95.533
21
-121.431
0
LINE
8
BLACK
6
CONTINUOUS
10
95.533
20
-121.431
11
95.4377
21
-121.336
0
LINE
8
BLACK
6
CONTINUOUS
10
95.4377
20
-121.336
11
95.533
21
-121.24
0
LINE
8
BLACK
6
CONTINUOUS
10
95.533
20
-121.24
11
95.533
21
-121.431
0
LINE
8
BLACK
6
CONTINUOUS
10
96.8663
20
-119.431
11
97.0568
21
-119.431
0
LINE
8
BLACK
6
CONTINUOUS
10
97.0568
20
-119.431
11
97.2472
21
-119.526
0
LINE
8
BLACK
6
CONTINUOUS
10
97.2472
20
-119.526
11
97.3425
21
-119.621
0
LINE
8
BLACK
6
CONTINUOUS
10
97.3425
20
-119.621
11
97.4377
21
-119.812
0
LINE
8
BLACK
6
CONTINUOUS
10
97.4377
20
-119.812
11
97.533
21
-120.193
0
LINE
8
BLACK
6
CONTINUOUS
10
97.533
20
-120.193
11
97.533
21
-120.669
0
LINE
8
BLACK
6
CONTINUOUS
10
97.533
20
-120.669
11
97.4377
21
-121.05
0
LINE
8
BLACK
6
CONTINUOUS
10
97.4377
20
-121.05
11
97.3425
21
-121.24
0
LINE
8
BLACK
6
CONTINUOUS
10
97.3425
20
-121.24
11
97.2472
21
-121.336
0
LINE
8
BLACK
6
CONTINUOUS
10
97.2472
20
-121.336
11
97.0568
21
-121.431
0
LINE
8
BLACK
6
CONTINUOUS
10
97.0568
20
-121.431
11
96.8663
21
-121.431
0
LINE
8
BLACK
6
CONTINUOUS
10
96.8663
20
-121.431
11
96.6758
21
-121.336
0
LINE
8
BLACK
6
CONTINUOUS
10
96.6758
20
-121.336
11
96.5806
21
-121.24
0
LINE
8
BLACK
6
CONTINUOUS
10
96.5806
20
-121.24
11
96.4853
21
-121.05
0
LINE
8
BLACK
6
CONTINUOUS
10
96.4853
20
-121.05
11
96.3901
21
-120.669
0
LINE
8
BLACK
6
CONTINUOUS
10
96.3901
20
-120.669
11
96.3901
21
-120.193
0
LINE
8
BLACK
6
CONTINUOUS
10
96.3901
20
-120.193
11
96.4853
21
-119.812
0
LINE
8
BLACK
6
CONTINUOUS
10
96.4853
20
-119.812
11
96.5806
21
-119.621
0
LINE
8
BLACK
6
CONTINUOUS
10
96.5806
20
-119.621
11
96.6758
21
-119.526
0
LINE
8
BLACK
6
CONTINUOUS
10
96.6758
20
-119.526
11
96.8663
21
-119.431
0
LINE
8
BLACK
6
CONTINUOUS
10
98.771
20
-119.431
11
98.9615
21
-119.431
0
LINE
8
BLACK
6
CONTINUOUS
10
98.9615
20
-119.431
11
99.152
21
-119.526
0
LINE
8
BLACK
6
CONTINUOUS
10
99.152
20
-119.526
11
99.2472
21
-119.621
0
LINE
8
BLACK
6
CONTINUOUS
10
99.2472
20
-119.621
11
99.3425
21
-119.812
0
LINE
8
BLACK
6
CONTINUOUS
10
99.3425
20
-119.812
11
99.4377
21
-120.193
0
LINE
8
BLACK
6
CONTINUOUS
10
99.4377
20
-120.193
11
99.4377
21
-120.669
0
LINE
8
BLACK
6
CONTINUOUS
10
99.4377
20
-120.669
11
99.3425
21
-121.05
0
LINE
8
BLACK
6
CONTINUOUS
10
99.3425
20
-121.05
11
99.2472
21
-121.24
0
LINE
8
BLACK
6
CONTINUOUS
10
99.2472
20
-121.24
11
99.152
21
-121.336
0
LINE
8
BLACK
6
CONTINUOUS
10
99.152
20
-121.336
11
98.9615
21
-121.431
0
LINE
8
BLACK
6
CONTINUOUS
10
98.9615
20
-121.431
11
98.771
21
-121.431
0
LINE
8
BLACK
6
CONTINUOUS
10
98.771
20
-121.431
11
98.5806
21
-121.336
0
LINE
8
BLACK
6
CONTINUOUS
10
98.5806
20
-121.336
11
98.4853
21
-121.24
0
LINE
8
BLACK
6
CONTINUOUS
10
98.4853
20
-121.24
11
98.3901
21
-121.05
0
LINE
8
BLACK
6
CONTINUOUS
10
98.3901
20
-121.05
11
98.2949
21
-120.669
0
LINE
8
BLACK
6
CONTINUOUS
10
98.2949
20
-120.669
11
98.2949
21
-120.193
0
LINE
8
BLACK
6
CONTINUOUS
10
98.2949
20
-120.193
11
98.3901
21
-119.812
0
LINE
8
BLACK
6
CONTINUOUS
10
98.3901
20
-119.812
11
98.4853
21
-119.621
0
LINE
8
BLACK
6
CONTINUOUS
10
98.4853
20
-119.621
11
98.5806
21
-119.526
0
LINE
8
BLACK
6
CONTINUOUS
10
98.5806
20
-119.526
11
98.771
21
-119.431
0
LINE
8
BLACK
6
CONTINUOUS
10
100.676
20
-119.431
11
100.866
21
-119.431
0
LINE
8
BLACK
6
CONTINUOUS
10
100.866
20
-119.431
11
101.057
21
-119.526
0
LINE
8
BLACK
6
CONTINUOUS
10
101.057
20
-119.526
11
101.152
21
-119.621
0
LINE
8
BLACK
6
CONTINUOUS
10
101.152
20
-119.621
11
101.247
21
-119.812
0
LINE
8
BLACK
6
CONTINUOUS
10
101.247
20
-119.812
11
101.342
21
-120.193
0
LINE
8
BLACK
6
CONTINUOUS
10
101.342
20
-120.193
11
101.342
21
-120.669
0
LINE
8
BLACK
6
CONTINUOUS
10
101.342
20
-120.669
11
101.247
21
-121.05
0
LINE
8
BLACK
6
CONTINUOUS
10
101.247
20
-121.05
11
101.152
21
-121.24
0
LINE
8
BLACK
6
CONTINUOUS
10
101.152
20
-121.24
11
101.057
21
-121.336
0
LINE
8
BLACK
6
CONTINUOUS
10
101.057
20
-121.336
11
100.866
21
-121.431
0
LINE
8
BLACK
6
CONTINUOUS
10
100.866
20
-121.431
11
100.676
21
-121.431
0
LINE
8
BLACK
6
CONTINUOUS
10
100.676
20
-121.431
11
100.485
21
-121.336
0
LINE
8
BLACK
6
CONTINUOUS
10
100.485
20
-121.336
11
100.39
21
-121.24
0
LINE
8
BLACK
6
CONTINUOUS
10
100.39
20
-121.24
11
100.295
21
-121.05
0
LINE
8
BLACK
6
CONTINUOUS
10
100.295
20
-121.05
11
100.2
21
-120.669
0
LINE
8
BLACK
6
CONTINUOUS
10
100.2
20
-120.669
11
100.2
21
-120.193
0
LINE
8
BLACK
6
CONTINUOUS
10
100.2
20
-120.193
11
100.295
21
-119.812
0
LINE
8
BLACK
6
CONTINUOUS
10
100.295
20
-119.812
11
100.39
21
-119.621
0
LINE
8
BLACK
6
CONTINUOUS
10
100.39
20
-119.621
11
100.485
21
-119.526
0
LINE
8
BLACK
6
CONTINUOUS
10
100.485
20
-119.526
11
100.676
21
-119.431
0
LINE
8
BLACK
6
CONTINUOUS
10
102.2
20
-121.431
11
102.2
21
-120.097
0
LINE
8
BLACK
6
CONTINUOUS
10
102.2
20
-120.288
11
102.295
21
-120.193
0
LINE
8
BLACK
6
CONTINUOUS
10
102.295
20
-120.193
11
102.485
21
-120.097
0
LINE
8
BLACK
6
CONTINUOUS
10
102.485
20
-120.097
11
102.771
21
-120.097
0
LINE
8
BLACK
6
CONTINUOUS
10
102.771
20
-120.097
11
102.962
21
-120.193
0
LINE
8
BLACK
6
CONTINUOUS
10
102.962
20
-120.193
11
103.057
21
-120.383
0
LINE
8
BLACK
6
CONTINUOUS
10
103.057
20
-120.383
11
103.057
21
-121.431
0
LINE
8
BLACK
6
CONTINUOUS
10
103.057
20
-120.383
11
103.152
21
-120.193
0
LINE
8
BLACK
6
CONTINUOUS
10
103.152
20
-120.193
11
103.342
21
-120.097
0
LINE
8
BLACK
6
CONTINUOUS
10
103.342
20
-120.097
11
103.628
21
-120.097
0
LINE
8
BLACK
6
CONTINUOUS
10
103.628
20
-120.097
11
103.819
21
-120.193
0
LINE
8
BLACK
6
CONTINUOUS
10
103.819
20
-120.193
11
103.914
21
-120.383
0
LINE
8
BLACK
6
CONTINUOUS
10
103.914
20
-120.383
11
103.914
21
-121.431
0
LINE
8
BLACK
6
CONTINUOUS
10
104.866
20
-121.431
11
104.866
21
-120.097
0
LINE
8
BLACK
6
CONTINUOUS
10
104.866
20
-120.288
11
104.962
21
-120.193
0
LINE
8
BLACK
6
CONTINUOUS
10
104.962
20
-120.193
11
105.152
21
-120.097
0
LINE
8
BLACK
6
CONTINUOUS
10
105.152
20
-120.097
11
105.438
21
-120.097
0
LINE
8
BLACK
6
CONTINUOUS
10
105.438
20
-120.097
11
105.628
21
-120.193
0
LINE
8
BLACK
6
CONTINUOUS
10
105.628
20
-120.193
11
105.723
21
-120.383
0
LINE
8
BLACK
6
CONTINUOUS
10
105.723
20
-120.383
11
105.723
21
-121.431
0
LINE
8
BLACK
6
CONTINUOUS
10
105.723
20
-120.383
11
105.819
21
-120.193
0
LINE
8
BLACK
6
CONTINUOUS
10
105.819
20
-120.193
11
106.009
21
-120.097
0
LINE
8
BLACK
6
CONTINUOUS
10
106.009
20
-120.097
11
106.295
21
-120.097
0
LINE
8
BLACK
6
CONTINUOUS
10
106.295
20
-120.097
11
106.485
21
-120.193
0
LINE
8
BLACK
6
CONTINUOUS
10
106.485
20
-120.193
11
106.581
21
-120.383
0
LINE
8
BLACK
6
CONTINUOUS
10
106.581
20
-120.383
11
106.581
21
-121.431
0
LINE
8
BLACK
6
CONTINUOUS
10
110.485
20
-119.336
11
108.771
21
-121.907
0
LINE
8
BLACK
6
CONTINUOUS
10
113.057
20
-119.431
11
113.247
21
-119.431
0
LINE
8
BLACK
6
CONTINUOUS
10
113.247
20
-119.431
11
113.438
21
-119.526
0
LINE
8
BLACK
6
CONTINUOUS
10
113.438
20
-119.526
11
113.533
21
-119.621
0
LINE
8
BLACK
6
CONTINUOUS
10
113.533
20
-119.621
11
113.628
21
-119.812
0
LINE
8
BLACK
6
CONTINUOUS
10
113.628
20
-119.812
11
113.723
21
-120.193
0
LINE
8
BLACK
6
CONTINUOUS
10
113.723
20
-120.193
11
113.723
21
-120.669
0
LINE
8
BLACK
6
CONTINUOUS
10
113.723
20
-120.669
11
113.628
21
-121.05
0
LINE
8
BLACK
6
CONTINUOUS
10
113.628
20
-121.05
11
113.533
21
-121.24
0
LINE
8
BLACK
6
CONTINUOUS
10
113.533
20
-121.24
11
113.438
21
-121.336
0
LINE
8
BLACK
6
CONTINUOUS
10
113.438
20
-121.336
11
113.247
21
-121.431
0
LINE
8
BLACK
6
CONTINUOUS
10
113.247
20
-121.431
11
113.057
21
-121.431
0
LINE
8
BLACK
6
CONTINUOUS
10
113.057
20
-121.431
11
112.866
21
-121.336
0
LINE
8
BLACK
6
CONTINUOUS
10
112.866
20
-121.336
11
112.771
21
-121.24
0
LINE
8
BLACK
6
CONTINUOUS
10
112.771
20
-121.24
11
112.676
21
-121.05
0
LINE
8
BLACK
6
CONTINUOUS
10
112.676
20
-121.05
11
112.581
21
-120.669
0
LINE
8
BLACK
6
CONTINUOUS
10
112.581
20
-120.669
11
112.581
21
-120.193
0
LINE
8
BLACK
6
CONTINUOUS
10
112.581
20
-120.193
11
112.676
21
-119.812
0
LINE
8
BLACK
6
CONTINUOUS
10
112.676
20
-119.812
11
112.771
21
-119.621
0
LINE
8
BLACK
6
CONTINUOUS
10
112.771
20
-119.621
11
112.866
21
-119.526
0
LINE
8
BLACK
6
CONTINUOUS
10
112.866
20
-119.526
11
113.057
21
-119.431
0
LINE
8
BLACK
6
CONTINUOUS
10
114.581
20
-121.24
11
114.676
21
-121.336
0
LINE
8
BLACK
6
CONTINUOUS
10
114.676
20
-121.336
11
114.581
21
-121.431
0
LINE
8
BLACK
6
CONTINUOUS
10
114.581
20
-121.431
11
114.485
21
-121.336
0
LINE
8
BLACK
6
CONTINUOUS
10
114.485
20
-121.336
11
114.581
21
-121.24
0
LINE
8
BLACK
6
CONTINUOUS
10
114.581
20
-121.24
11
114.581
21
-121.431
0
LINE
8
BLACK
6
CONTINUOUS
10
115.914
20
-119.431
11
116.104
21
-119.431
0
LINE
8
BLACK
6
CONTINUOUS
10
116.104
20
-119.431
11
116.295
21
-119.526
0
LINE
8
BLACK
6
CONTINUOUS
10
116.295
20
-119.526
11
116.39
21
-119.621
0
LINE
8
BLACK
6
CONTINUOUS
10
116.39
20
-119.621
11
116.485
21
-119.812
0
LINE
8
BLACK
6
CONTINUOUS
10
116.485
20
-119.812
11
116.581
21
-120.193
0
LINE
8
BLACK
6
CONTINUOUS
10
116.581
20
-120.193
11
116.581
21
-120.669
0
LINE
8
BLACK
6
CONTINUOUS
10
116.581
20
-120.669
11
116.485
21
-121.05
0
LINE
8
BLACK
6
CONTINUOUS
10
116.485
20
-121.05
11
116.39
21
-121.24
0
LINE
8
BLACK
6
CONTINUOUS
10
116.39
20
-121.24
11
116.295
21
-121.336
0
LINE
8
BLACK
6
CONTINUOUS
10
116.295
20
-121.336
11
116.104
21
-121.431
0
LINE
8
BLACK
6
CONTINUOUS
10
116.104
20
-121.431
11
115.914
21
-121.431
0
LINE
8
BLACK
6
CONTINUOUS
10
115.914
20
-121.431
11
115.723
21
-121.336
0
LINE
8
BLACK
6
CONTINUOUS
10
115.723
20
-121.336
11
115.628
21
-121.24
0
LINE
8
BLACK
6
CONTINUOUS
10
115.628
20
-121.24
11
115.533
21
-121.05
0
LINE
8
BLACK
6
CONTINUOUS
10
115.533
20
-121.05
11
115.438
21
-120.669
0
LINE
8
BLACK
6
CONTINUOUS
10
115.438
20
-120.669
11
115.438
21
-120.193
0
LINE
8
BLACK
6
CONTINUOUS
10
115.438
20
-120.193
11
115.533
21
-119.812
0
LINE
8
BLACK
6
CONTINUOUS
10
115.533
20
-119.812
11
115.628
21
-119.621
0
LINE
8
BLACK
6
CONTINUOUS
10
115.628
20
-119.621
11
115.723
21
-119.526
0
LINE
8
BLACK
6
CONTINUOUS
10
115.723
20
-119.526
11
115.914
21
-119.431
0
LINE
8
BLACK
6
CONTINUOUS
10
117.247
20
-119.431
11
118.485
21
-119.431
0
LINE
8
BLACK
6
CONTINUOUS
10
118.485
20
-119.431
11
117.819
21
-120.193
0
LINE
8
BLACK
6
CONTINUOUS
10
117.819
20
-120.193
11
118.104
21
-120.193
0
LINE
8
BLACK
6
CONTINUOUS
10
118.104
20
-120.193
11
118.295
21
-120.288
0
LINE
8
BLACK
6
CONTINUOUS
10
118.295
20
-120.288
11
118.39
21
-120.383
0
LINE
8
BLACK
6
CONTINUOUS
10
118.39
20
-120.383
11
118.485
21
-120.574
0
LINE
8
BLACK
6
CONTINUOUS
10
118.485
20
-120.574
11
118.485
21
-121.05
0
LINE
8
BLACK
6
CONTINUOUS
10
118.485
20
-121.05
11
118.39
21
-121.24
0
LINE
8
BLACK
6
CONTINUOUS
10
118.39
20
-121.24
11
118.295
21
-121.336
0
LINE
8
BLACK
6
CONTINUOUS
10
118.295
20
-121.336
11
118.104
21
-121.431
0
LINE
8
BLACK
6
CONTINUOUS
10
118.104
20
-121.431
11
117.533
21
-121.431
0
LINE
8
BLACK
6
CONTINUOUS
10
117.533
20
-121.431
11
117.342
21
-121.336
0
LINE
8
BLACK
6
CONTINUOUS
10
117.342
20
-121.336
11
117.247
21
-121.24
0
LINE
8
BLACK
6
CONTINUOUS
10
119.438
20
-121.431
11
119.819
21
-121.431
0
LINE
8
BLACK
6
CONTINUOUS
10
119.819
20
-121.431
11
120.009
21
-121.336
0
LINE
8
BLACK
6
CONTINUOUS
10
120.009
20
-121.336
11
120.104
21
-121.24
0
LINE
8
BLACK
6
CONTINUOUS
10
120.104
20
-121.24
11
120.295
21
-120.955
0
LINE
8
BLACK
6
CONTINUOUS
10
120.295
20
-120.955
11
120.39
21
-120.574
0
LINE
8
BLACK
6
CONTINUOUS
10
120.39
20
-120.574
11
120.39
21
-119.812
0
LINE
8
BLACK
6
CONTINUOUS
10
120.39
20
-119.812
11
120.295
21
-119.621
0
LINE
8
BLACK
6
CONTINUOUS
10
120.295
20
-119.621
11
120.2
21
-119.526
0
LINE
8
BLACK
6
CONTINUOUS
10
120.2
20
-119.526
11
120.009
21
-119.431
0
LINE
8
BLACK
6
CONTINUOUS
10
120.009
20
-119.431
11
119.628
21
-119.431
0
LINE
8
BLACK
6
CONTINUOUS
10
119.628
20
-119.431
11
119.438
21
-119.526
0
LINE
8
BLACK
6
CONTINUOUS
10
119.438
20
-119.526
11
119.342
21
-119.621
0
LINE
8
BLACK
6
CONTINUOUS
10
119.342
20
-119.621
11
119.247
21
-119.812
0
LINE
8
BLACK
6
CONTINUOUS
10
119.247
20
-119.812
11
119.247
21
-120.288
0
LINE
8
BLACK
6
CONTINUOUS
10
119.247
20
-120.288
11
119.342
21
-120.478
0
LINE
8
BLACK
6
CONTINUOUS
10
119.342
20
-120.478
11
119.438
21
-120.574
0
LINE
8
BLACK
6
CONTINUOUS
10
119.438
20
-120.574
11
119.628
21
-120.669
0
LINE
8
BLACK
6
CONTINUOUS
10
119.628
20
-120.669
11
120.009
21
-120.669
0
LINE
8
BLACK
6
CONTINUOUS
10
120.009
20
-120.669
11
120.2
21
-120.574
0
LINE
8
BLACK
6
CONTINUOUS
10
120.2
20
-120.574
11
120.295
21
-120.478
0
LINE
8
BLACK
6
CONTINUOUS
10
120.295
20
-120.478
11
120.39
21
-120.288
0
LINE
8
BLACK
6
CONTINUOUS
10
122.104
20
-120.097
11
122.104
21
-121.431
0
LINE
8
BLACK
6
CONTINUOUS
10
121.628
20
-119.336
11
121.152
21
-120.764
0
LINE
8
BLACK
6
CONTINUOUS
10
121.152
20
-120.764
11
122.39
21
-120.764
0
LINE
8
BLACK
6
CONTINUOUS
10
123.057
20
-119.431
11
123.057
21
-119.812
0
LINE
8
BLACK
6
CONTINUOUS
10
123.819
20
-119.431
11
123.819
21
-119.812
0
LINE
8
BLACK
6
CONTINUOUS
10
126.771
20
-122.193
11
126.676
21
-122.097
0
LINE
8
BLACK
6
CONTINUOUS
10
126.676
20
-122.097
11
126.485
21
-121.812
0
LINE
8
BLACK
6
CONTINUOUS
10
126.485
20
-121.812
11
126.39
21
-121.621
0
LINE
8
BLACK
6
CONTINUOUS
10
126.39
20
-121.621
11
126.295
21
-121.336
0
LINE
8
BLACK
6
CONTINUOUS
10
126.295
20
-121.336
11
126.2
21
-120.859
0
LINE
8
BLACK
6
CONTINUOUS
10
126.2
20
-120.859
11
126.2
21
-120.478
0
LINE
8
BLACK
6
CONTINUOUS
10
126.2
20
-120.478
11
126.295
21
-120.002
0
LINE
8
BLACK
6
CONTINUOUS
10
126.295
20
-120.002
11
126.39
21
-119.716
0
LINE
8
BLACK
6
CONTINUOUS
10
126.39
20
-119.716
11
126.485
21
-119.526
0
LINE
8
BLACK
6
CONTINUOUS
10
126.485
20
-119.526
11
126.676
21
-119.24
0
LINE
8
BLACK
6
CONTINUOUS
10
126.676
20
-119.24
11
126.771
21
-119.145
0
LINE
8
BLACK
6
CONTINUOUS
10
127.342
20
-119.431
11
128.581
21
-119.431
0
LINE
8
BLACK
6
CONTINUOUS
10
128.581
20
-119.431
11
127.914
21
-120.193
0
LINE
8
BLACK
6
CONTINUOUS
10
127.914
20
-120.193
11
128.2
21
-120.193
0
LINE
8
BLACK
6
CONTINUOUS
10
128.2
20
-120.193
11
128.39
21
-120.288
0
LINE
8
BLACK
6
CONTINUOUS
10
128.39
20
-120.288
11
128.485
21
-120.383
0
LINE
8
BLACK
6
CONTINUOUS
10
128.485
20
-120.383
11
128.581
21
-120.574
0
LINE
8
BLACK
6
CONTINUOUS
10
128.581
20
-120.574
11
128.581
21
-121.05
0
LINE
8
BLACK
6
CONTINUOUS
10
128.581
20
-121.05
11
128.485
21
-121.24
0
LINE
8
BLACK
6
CONTINUOUS
10
128.485
20
-121.24
11
128.39
21
-121.336
0
LINE
8
BLACK
6
CONTINUOUS
10
128.39
20
-121.336
11
128.2
21
-121.431
0
LINE
8
BLACK
6
CONTINUOUS
10
128.2
20
-121.431
11
127.628
21
-121.431
0
LINE
8
BLACK
6
CONTINUOUS
10
127.628
20
-121.431
11
127.438
21
-121.336
0
LINE
8
BLACK
6
CONTINUOUS
10
127.438
20
-121.336
11
127.342
21
-121.24
0
LINE
8
BLACK
6
CONTINUOUS
10
129.342
20
-119.621
11
129.438
21
-119.526
0
LINE
8
BLACK
6
CONTINUOUS
10
129.438
20
-119.526
11
129.628
21
-119.431
0
LINE
8
BLACK
6
CONTINUOUS
10
129.628
20
-119.431
11
130.104
21
-119.431
0
LINE
8
BLACK
6
CONTINUOUS
10
130.104
20
-119.431
11
130.295
21
-119.526
0
LINE
8
BLACK
6
CONTINUOUS
10
130.295
20
-119.526
11
130.39
21
-119.621
0
LINE
8
BLACK
6
CONTINUOUS
10
130.39
20
-119.621
11
130.485
21
-119.812
0
LINE
8
BLACK
6
CONTINUOUS
10
130.485
20
-119.812
11
130.485
21
-120.002
0
LINE
8
BLACK
6
CONTINUOUS
10
130.485
20
-120.002
11
130.39
21
-120.288
0
LINE
8
BLACK
6
CONTINUOUS
10
130.39
20
-120.288
11
129.247
21
-121.431
0
LINE
8
BLACK
6
CONTINUOUS
10
129.247
20
-121.431
11
130.485
21
-121.431
0
LINE
8
BLACK
6
CONTINUOUS
10
132.866
20
-121.431
11
132.866
21
-119.431
0
LINE
8
BLACK
6
CONTINUOUS
10
133.723
20
-121.431
11
133.723
21
-120.383
0
LINE
8
BLACK
6
CONTINUOUS
10
133.723
20
-120.383
11
133.628
21
-120.193
0
LINE
8
BLACK
6
CONTINUOUS
10
133.628
20
-120.193
11
133.438
21
-120.097
0
LINE
8
BLACK
6
CONTINUOUS
10
133.438
20
-120.097
11
133.152
21
-120.097
0
LINE
8
BLACK
6
CONTINUOUS
10
133.152
20
-120.097
11
132.962
21
-120.193
0
LINE
8
BLACK
6
CONTINUOUS
10
132.962
20
-120.193
11
132.866
21
-120.288
0
LINE
8
BLACK
6
CONTINUOUS
10
134.962
20
-121.431
11
134.771
21
-121.336
0
LINE
8
BLACK
6
CONTINUOUS
10
134.771
20
-121.336
11
134.676
21
-121.24
0
LINE
8
BLACK
6
CONTINUOUS
10
134.676
20
-121.24
11
134.581
21
-121.05
0
LINE
8
BLACK
6
CONTINUOUS
10
134.581
20
-121.05
11
134.581
21
-120.478
0
LINE
8
BLACK
6
CONTINUOUS
10
134.581
20
-120.478
11
134.676
21
-120.288
0
LINE
8
BLACK
6
CONTINUOUS
10
134.676
20
-120.288
11
134.771
21
-120.193
0
LINE
8
BLACK
6
CONTINUOUS
10
134.771
20
-120.193
11
134.962
21
-120.097
0
LINE
8
BLACK
6
CONTINUOUS
10
134.962
20
-120.097
11
135.247
21
-120.097
0
LINE
8
BLACK
6
CONTINUOUS
10
135.247
20
-120.097
11
135.438
21
-120.193
0
LINE
8
BLACK
6
CONTINUOUS
10
135.438
20
-120.193
11
135.533
21
-120.288
0
LINE
8
BLACK
6
CONTINUOUS
10
135.533
20
-120.288
11
135.628
21
-120.478
0
LINE
8
BLACK
6
CONTINUOUS
10
135.628
20
-120.478
11
135.628
21
-121.05
0
LINE
8
BLACK
6
CONTINUOUS
10
135.628
20
-121.05
11
135.533
21
-121.24
0
LINE
8
BLACK
6
CONTINUOUS
10
135.533
20
-121.24
11
135.438
21
-121.336
0
LINE
8
BLACK
6
CONTINUOUS
10
135.438
20
-121.336
11
135.247
21
-121.431
0
LINE
8
BLACK
6
CONTINUOUS
10
135.247
20
-121.431
11
134.962
21
-121.431
0
LINE
8
BLACK
6
CONTINUOUS
10
136.771
20
-121.431
11
136.581
21
-121.336
0
LINE
8
BLACK
6
CONTINUOUS
10
136.581
20
-121.336
11
136.485
21
-121.145
0
LINE
8
BLACK
6
CONTINUOUS
10
136.485
20
-121.145
11
136.485
21
-119.431
0
LINE
8
BLACK
6
CONTINUOUS
10
138.295
20
-121.336
11
138.104
21
-121.431
0
LINE
8
BLACK
6
CONTINUOUS
10
138.104
20
-121.431
11
137.723
21
-121.431
0
LINE
8
BLACK
6
CONTINUOUS
10
137.723
20
-121.431
11
137.533
21
-121.336
0
LINE
8
BLACK
6
CONTINUOUS
10
137.533
20
-121.336
11
137.438
21
-121.145
0
LINE
8
BLACK
6
CONTINUOUS
10
137.438
20
-121.145
11
137.438
21
-120.383
0
LINE
8
BLACK
6
CONTINUOUS
10
137.438
20
-120.383
11
137.533
21
-120.193
0
LINE
8
BLACK
6
CONTINUOUS
10
137.533
20
-120.193
11
137.723
21
-120.097
0
LINE
8
BLACK
6
CONTINUOUS
10
137.723
20
-120.097
11
138.104
21
-120.097
0
LINE
8
BLACK
6
CONTINUOUS
10
138.104
20
-120.097
11
138.295
21
-120.193
0
LINE
8
BLACK
6
CONTINUOUS
10
138.295
20
-120.193
11
138.39
21
-120.383
0
LINE
8
BLACK
6
CONTINUOUS
10
138.39
20
-120.383
11
138.39
21
-120.574
0
LINE
8
BLACK
6
CONTINUOUS
10
138.39
20
-120.574
11
137.438
21
-120.764
0
LINE
8
BLACK
6
CONTINUOUS
10
139.152
20
-121.336
11
139.342
21
-121.431
0
LINE
8
BLACK
6
CONTINUOUS
10
139.342
20
-121.431
11
139.723
21
-121.431
0
LINE
8
BLACK
6
CONTINUOUS
10
139.723
20
-121.431
11
139.914
21
-121.336
0
LINE
8
BLACK
6
CONTINUOUS
10
139.914
20
-121.336
11
140.009
21
-121.145
0
LINE
8
BLACK
6
CONTINUOUS
10
140.009
20
-121.145
11
140.009
21
-121.05
0
LINE
8
BLACK
6
CONTINUOUS
10
140.009
20
-121.05
11
139.914
21
-120.859
0
LINE
8
BLACK
6
CONTINUOUS
10
139.914
20
-120.859
11
139.723
21
-120.764
0
LINE
8
BLACK
6
CONTINUOUS
10
139.723
20
-120.764
11
139.438
21
-120.764
0
LINE
8
BLACK
6
CONTINUOUS
10
139.438
20
-120.764
11
139.247
21
-120.669
0
LINE
8
BLACK
6
CONTINUOUS
10
139.247
20
-120.669
11
139.152
21
-120.478
0
LINE
8
BLACK
6
CONTINUOUS
10
139.152
20
-120.478
11
139.152
21
-120.383
0
LINE
8
BLACK
6
CONTINUOUS
10
139.152
20
-120.383
11
139.247
21
-120.193
0
LINE
8
BLACK
6
CONTINUOUS
10
139.247
20
-120.193
11
139.438
21
-120.097
0
LINE
8
BLACK
6
CONTINUOUS
10
139.438
20
-120.097
11
139.723
21
-120.097
0
LINE
8
BLACK
6
CONTINUOUS
10
139.723
20
-120.097
11
139.914
21
-120.193
0
LINE
8
BLACK
6
CONTINUOUS
10
140.676
20
-122.193
11
140.771
21
-122.097
0
LINE
8
BLACK
6
CONTINUOUS
10
140.771
20
-122.097
11
140.962
21
-121.812
0
LINE
8
BLACK
6
CONTINUOUS
10
140.962
20
-121.812
11
141.057
21
-121.621
0
LINE
8
BLACK
6
CONTINUOUS
10
141.057
20
-121.621
11
141.152
21
-121.336
0
LINE
8
BLACK
6
CONTINUOUS
10
141.152
20
-121.336
11
141.247
21
-120.859
0
LINE
8
BLACK
6
CONTINUOUS
10
141.247
20
-120.859
11
141.247
21
-120.478
0
LINE
8
BLACK
6
CONTINUOUS
10
141.247
20
-120.478
11
141.152
21
-120.002
0
LINE
8
BLACK
6
CONTINUOUS
10
141.152
20
-120.002
11
141.057
21
-119.716
0
LINE
8
BLACK
6
CONTINUOUS
10
141.057
20
-119.716
11
140.962
21
-119.526
0
LINE
8
BLACK
6
CONTINUOUS
10
140.962
20
-119.526
11
140.771
21
-119.24
0
LINE
8
BLACK
6
CONTINUOUS
10
140.771
20
-119.24
11
140.676
21
-119.145
0
LINE
8
BLACK
6
CONTINUOUS
10
90.8909
20
-123.555
11
90.8909
21
-122.777
0
LINE
8
BLACK
6
CONTINUOUS
10
90.8909
20
-122.777
11
90.1131
21
-122.777
0
LINE
8
BLACK
6
CONTINUOUS
10
90.1131
20
-122.777
11
90.1131
21
-123.555
0
LINE
8
BLACK
6
CONTINUOUS
10
90.1131
20
-123.555
11
90.8909
21
-123.555
0
LINE
8
BLACK
6
CONTINUOUS
10
94.6758
20
-124.071
11
93.533
21
-124.071
0
LINE
8
BLACK
6
CONTINUOUS
10
94.1044
20
-124.071
11
94.1044
21
-122.071
0
LINE
8
BLACK
6
CONTINUOUS
10
94.1044
20
-122.071
11
93.9139
21
-122.356
0
LINE
8
BLACK
6
CONTINUOUS
10
93.9139
20
-122.356
11
93.7234
21
-122.547
0
LINE
8
BLACK
6
CONTINUOUS
10
93.7234
20
-122.547
11
93.533
21
-122.642
0
LINE
8
BLACK
6
CONTINUOUS
10
95.533
20
-123.88
11
95.6282
21
-123.976
0
LINE
8
BLACK
6
CONTINUOUS
10
95.6282
20
-123.976
11
95.533
21
-124.071
0
LINE
8
BLACK
6
CONTINUOUS
10
95.533
20
-124.071
11
95.4377
21
-123.976
0
LINE
8
BLACK
6
CONTINUOUS
10
95.4377
20
-123.976
11
95.533
21
-123.88
0
LINE
8
BLACK
6
CONTINUOUS
10
95.533
20
-123.88
11
95.533
21
-124.071
0
LINE
8
BLACK
6
CONTINUOUS
10
97.533
20
-124.071
11
96.3901
21
-124.071
0
LINE
8
BLACK
6
CONTINUOUS
10
96.9615
20
-124.071
11
96.9615
21
-122.071
0
LINE
8
BLACK
6
CONTINUOUS
10
96.9615
20
-122.071
11
96.771
21
-122.356
0
LINE
8
BLACK
6
CONTINUOUS
10
96.771
20
-122.356
11
96.5806
21
-122.547
0
LINE
8
BLACK
6
CONTINUOUS
10
96.5806
20
-122.547
11
96.3901
21
-122.642
0
LINE
8
BLACK
6
CONTINUOUS
10
98.771
20
-122.071
11
98.9615
21
-122.071
0
LINE
8
BLACK
6
CONTINUOUS
10
98.9615
20
-122.071
11
99.152
21
-122.166
0
LINE
8
BLACK
6
CONTINUOUS
10
99.152
20
-122.166
11
99.2472
21
-122.261
0
LINE
8
BLACK
6
CONTINUOUS
10
99.2472
20
-122.261
11
99.3425
21
-122.452
0
LINE
8
BLACK
6
CONTINUOUS
10
99.3425
20
-122.452
11
99.4377
21
-122.833
0
LINE
8
BLACK
6
CONTINUOUS
10
99.4377
20
-122.833
11
99.4377
21
-123.309
0
LINE
8
BLACK
6
CONTINUOUS
10
99.4377
20
-123.309
11
99.3425
21
-123.69
0
LINE
8
BLACK
6
CONTINUOUS
10
99.3425
20
-123.69
11
99.2472
21
-123.88
0
LINE
8
BLACK
6
CONTINUOUS
10
99.2472
20
-123.88
11
99.152
21
-123.976
0
LINE
8
BLACK
6
CONTINUOUS
10
99.152
20
-123.976
11
98.9615
21
-124.071
0
LINE
8
BLACK
6
CONTINUOUS
10
98.9615
20
-124.071
11
98.771
21
-124.071
0
LINE
8
BLACK
6
CONTINUOUS
10
98.771
20
-124.071
11
98.5806
21
-123.976
0
LINE
8
BLACK
6
CONTINUOUS
10
98.5806
20
-123.976
11
98.4853
21
-123.88
0
LINE
8
BLACK
6
CONTINUOUS
10
98.4853
20
-123.88
11
98.3901
21
-123.69
0
LINE
8
BLACK
6
CONTINUOUS
10
98.3901
20
-123.69
11
98.2949
21
-123.309
0
LINE
8
BLACK
6
CONTINUOUS
10
98.2949
20
-123.309
11
98.2949
21
-122.833
0
LINE
8
BLACK
6
CONTINUOUS
10
98.2949
20
-122.833
11
98.3901
21
-122.452
0
LINE
8
BLACK
6
CONTINUOUS
10
98.3901
20
-122.452
11
98.4853
21
-122.261
0
LINE
8
BLACK
6
CONTINUOUS
10
98.4853
20
-122.261
11
98.5806
21
-122.166
0
LINE
8
BLACK
6
CONTINUOUS
10
98.5806
20
-122.166
11
98.771
21
-122.071
0
LINE
8
BLACK
6
CONTINUOUS
10
100.676
20
-122.071
11
100.866
21
-122.071
0
LINE
8
BLACK
6
CONTINUOUS
10
100.866
20
-122.071
11
101.057
21
-122.166
0
LINE
8
BLACK
6
CONTINUOUS
10
101.057
20
-122.166
11
101.152
21
-122.261
0
LINE
8
BLACK
6
CONTINUOUS
10
101.152
20
-122.261
11
101.247
21
-122.452
0
LINE
8
BLACK
6
CONTINUOUS
10
101.247
20
-122.452
11
101.342
21
-122.833
0
LINE
8
BLACK
6
CONTINUOUS
10
101.342
20
-122.833
11
101.342
21
-123.309
0
LINE
8
BLACK
6
CONTINUOUS
10
101.342
20
-123.309
11
101.247
21
-123.69
0
LINE
8
BLACK
6
CONTINUOUS
10
101.247
20
-123.69
11
101.152
21
-123.88
0
LINE
8
BLACK
6
CONTINUOUS
10
101.152
20
-123.88
11
101.057
21
-123.976
0
LINE
8
BLACK
6
CONTINUOUS
10
101.057
20
-123.976
11
100.866
21
-124.071
0
LINE
8
BLACK
6
CONTINUOUS
10
100.866
20
-124.071
11
100.676
21
-124.071
0
LINE
8
BLACK
6
CONTINUOUS
10
100.676
20
-124.071
11
100.485
21
-123.976
0
LINE
8
BLACK
6
CONTINUOUS
10
100.485
20
-123.976
11
100.39
21
-123.88
0
LINE
8
BLACK
6
CONTINUOUS
10
100.39
20
-123.88
11
100.295
21
-123.69
0
LINE
8
BLACK
6
CONTINUOUS
10
100.295
20
-123.69
11
100.2
21
-123.309
0
LINE
8
BLACK
6
CONTINUOUS
10
100.2
20
-123.309
11
100.2
21
-122.833
0
LINE
8
BLACK
6
CONTINUOUS
10
100.2
20
-122.833
11
100.295
21
-122.452
0
LINE
8
BLACK
6
CONTINUOUS
10
100.295
20
-122.452
11
100.39
21
-122.261
0
LINE
8
BLACK
6
CONTINUOUS
10
100.39
20
-122.261
11
100.485
21
-122.166
0
LINE
8
BLACK
6
CONTINUOUS
10
100.485
20
-122.166
11
100.676
21
-122.071
0
LINE
8
BLACK
6
CONTINUOUS
10
102.2
20
-124.071
11
102.2
21
-122.737
0
LINE
8
BLACK
6
CONTINUOUS
10
102.2
20
-122.928
11
102.295
21
-122.833
0
LINE
8
BLACK
6
CONTINUOUS
10
102.295
20
-122.833
11
102.485
21
-122.737
0
LINE
8
BLACK
6
CONTINUOUS
10
102.485
20
-122.737
11
102.771
21
-122.737
0
LINE
8
BLACK
6
CONTINUOUS
10
102.771
20
-122.737
11
102.962
21
-122.833
0
LINE
8
BLACK
6
CONTINUOUS
10
102.962
20
-122.833
11
103.057
21
-123.023
0
LINE
8
BLACK
6
CONTINUOUS
10
103.057
20
-123.023
11
103.057
21
-124.071
0
LINE
8
BLACK
6
CONTINUOUS
10
103.057
20
-123.023
11
103.152
21
-122.833
0
LINE
8
BLACK
6
CONTINUOUS
10
103.152
20
-122.833
11
103.342
21
-122.737
0
LINE
8
BLACK
6
CONTINUOUS
10
103.342
20
-122.737
11
103.628
21
-122.737
0
LINE
8
BLACK
6
CONTINUOUS
10
103.628
20
-122.737
11
103.819
21
-122.833
0
LINE
8
BLACK
6
CONTINUOUS
10
103.819
20
-122.833
11
103.914
21
-123.023
0
LINE
8
BLACK
6
CONTINUOUS
10
103.914
20
-123.023
11
103.914
21
-124.071
0
LINE
8
BLACK
6
CONTINUOUS
10
104.866
20
-124.071
11
104.866
21
-122.737
0
LINE
8
BLACK
6
CONTINUOUS
10
104.866
20
-122.928
11
104.962
21
-122.833
0
LINE
8
BLACK
6
CONTINUOUS
10
104.962
20
-122.833
11
105.152
21
-122.737
0
LINE
8
BLACK
6
CONTINUOUS
10
105.152
20
-122.737
11
105.438
21
-122.737
0
LINE
8
BLACK
6
CONTINUOUS
10
105.438
20
-122.737
11
105.628
21
-122.833
0
LINE
8
BLACK
6
CONTINUOUS
10
105.628
20
-122.833
11
105.723
21
-123.023
0
LINE
8
BLACK
6
CONTINUOUS
10
105.723
20
-123.023
11
105.723
21
-124.071
0
LINE
8
BLACK
6
CONTINUOUS
10
105.723
20
-123.023
11
105.819
21
-122.833
0
LINE
8
BLACK
6
CONTINUOUS
10
105.819
20
-122.833
11
106.009
21
-122.737
0
LINE
8
BLACK
6
CONTINUOUS
10
106.009
20
-122.737
11
106.295
21
-122.737
0
LINE
8
BLACK
6
CONTINUOUS
10
106.295
20
-122.737
11
106.485
21
-122.833
0
LINE
8
BLACK
6
CONTINUOUS
10
106.485
20
-122.833
11
106.581
21
-123.023
0
LINE
8
BLACK
6
CONTINUOUS
10
106.581
20
-123.023
11
106.581
21
-124.071
0
LINE
8
BLACK
6
CONTINUOUS
10
110.485
20
-121.976
11
108.771
21
-124.547
0
LINE
8
BLACK
6
CONTINUOUS
10
113.057
20
-122.071
11
113.247
21
-122.071
0
LINE
8
BLACK
6
CONTINUOUS
10
113.247
20
-122.071
11
113.438
21
-122.166
0
LINE
8
BLACK
6
CONTINUOUS
10
113.438
20
-122.166
11
113.533
21
-122.261
0
LINE
8
BLACK
6
CONTINUOUS
10
113.533
20
-122.261
11
113.628
21
-122.452
0
LINE
8
BLACK
6
CONTINUOUS
10
113.628
20
-122.452
11
113.723
21
-122.833
0
LINE
8
BLACK
6
CONTINUOUS
10
113.723
20
-122.833
11
113.723
21
-123.309
0
LINE
8
BLACK
6
CONTINUOUS
10
113.723
20
-123.309
11
113.628
21
-123.69
0
LINE
8
BLACK
6
CONTINUOUS
10
113.628
20
-123.69
11
113.533
21
-123.88
0
LINE
8
BLACK
6
CONTINUOUS
10
113.533
20
-123.88
11
113.438
21
-123.976
0
LINE
8
BLACK
6
CONTINUOUS
10
113.438
20
-123.976
11
113.247
21
-124.071
0
LINE
8
BLACK
6
CONTINUOUS
10
113.247
20
-124.071
11
113.057
21
-124.071
0
LINE
8
BLACK
6
CONTINUOUS
10
113.057
20
-124.071
11
112.866
21
-123.976
0
LINE
8
BLACK
6
CONTINUOUS
10
112.866
20
-123.976
11
112.771
21
-123.88
0
LINE
8
BLACK
6
CONTINUOUS
10
112.771
20
-123.88
11
112.676
21
-123.69
0
LINE
8
BLACK
6
CONTINUOUS
10
112.676
20
-123.69
11
112.581
21
-123.309
0
LINE
8
BLACK
6
CONTINUOUS
10
112.581
20
-123.309
11
112.581
21
-122.833
0
LINE
8
BLACK
6
CONTINUOUS
10
112.581
20
-122.833
11
112.676
21
-122.452
0
LINE
8
BLACK
6
CONTINUOUS
10
112.676
20
-122.452
11
112.771
21
-122.261
0
LINE
8
BLACK
6
CONTINUOUS
10
112.771
20
-122.261
11
112.866
21
-122.166
0
LINE
8
BLACK
6
CONTINUOUS
10
112.866
20
-122.166
11
113.057
21
-122.071
0
LINE
8
BLACK
6
CONTINUOUS
10
114.581
20
-123.88
11
114.676
21
-123.976
0
LINE
8
BLACK
6
CONTINUOUS
10
114.676
20
-123.976
11
114.581
21
-124.071
0
LINE
8
BLACK
6
CONTINUOUS
10
114.581
20
-124.071
11
114.485
21
-123.976
0
LINE
8
BLACK
6
CONTINUOUS
10
114.485
20
-123.976
11
114.581
21
-123.88
0
LINE
8
BLACK
6
CONTINUOUS
10
114.581
20
-123.88
11
114.581
21
-124.071
0
LINE
8
BLACK
6
CONTINUOUS
10
115.914
20
-122.071
11
116.104
21
-122.071
0
LINE
8
BLACK
6
CONTINUOUS
10
116.104
20
-122.071
11
116.295
21
-122.166
0
LINE
8
BLACK
6
CONTINUOUS
10
116.295
20
-122.166
11
116.39
21
-122.261
0
LINE
8
BLACK
6
CONTINUOUS
10
116.39
20
-122.261
11
116.485
21
-122.452
0
LINE
8
BLACK
6
CONTINUOUS
10
116.485
20
-122.452
11
116.581
21
-122.833
0
LINE
8
BLACK
6
CONTINUOUS
10
116.581
20
-122.833
11
116.581
21
-123.309
0
LINE
8
BLACK
6
CONTINUOUS
10
116.581
20
-123.309
11
116.485
21
-123.69
0
LINE
8
BLACK
6
CONTINUOUS
10
116.485
20
-123.69
11
116.39
21
-123.88
0
LINE
8
BLACK
6
CONTINUOUS
10
116.39
20
-123.88
11
116.295
21
-123.976
0
LINE
8
BLACK
6
CONTINUOUS
10
116.295
20
-123.976
11
116.104
21
-124.071
0
LINE
8
BLACK
6
CONTINUOUS
10
116.104
20
-124.071
11
115.914
21
-124.071
0
LINE
8
BLACK
6
CONTINUOUS
10
115.914
20
-124.071
11
115.723
21
-123.976
0
LINE
8
BLACK
6
CONTINUOUS
10
115.723
20
-123.976
11
115.628
21
-123.88
0
LINE
8
BLACK
6
CONTINUOUS
10
115.628
20
-123.88
11
115.533
21
-123.69
0
LINE
8
BLACK
6
CONTINUOUS
10
115.533
20
-123.69
11
115.438
21
-123.309
0
LINE
8
BLACK
6
CONTINUOUS
10
115.438
20
-123.309
11
115.438
21
-122.833
0
LINE
8
BLACK
6
CONTINUOUS
10
115.438
20
-122.833
11
115.533
21
-122.452
0
LINE
8
BLACK
6
CONTINUOUS
10
115.533
20
-122.452
11
115.628
21
-122.261
0
LINE
8
BLACK
6
CONTINUOUS
10
115.628
20
-122.261
11
115.723
21
-122.166
0
LINE
8
BLACK
6
CONTINUOUS
10
115.723
20
-122.166
11
115.914
21
-122.071
0
LINE
8
BLACK
6
CONTINUOUS
10
118.295
20
-122.737
11
118.295
21
-124.071
0
LINE
8
BLACK
6
CONTINUOUS
10
117.819
20
-121.976
11
117.342
21
-123.404
0
LINE
8
BLACK
6
CONTINUOUS
10
117.342
20
-123.404
11
118.581
21
-123.404
0
LINE
8
BLACK
6
CONTINUOUS
10
119.152
20
-122.071
11
120.39
21
-122.071
0
LINE
8
BLACK
6
CONTINUOUS
10
120.39
20
-122.071
11
119.723
21
-122.833
0
LINE
8
BLACK
6
CONTINUOUS
10
119.723
20
-122.833
11
120.009
21
-122.833
0
LINE
8
BLACK
6
CONTINUOUS
10
120.009
20
-122.833
11
120.2
21
-122.928
0
LINE
8
BLACK
6
CONTINUOUS
10
120.2
20
-122.928
11
120.295
21
-123.023
0
LINE
8
BLACK
6
CONTINUOUS
10
120.295
20
-123.023
11
120.39
21
-123.214
0
LINE
8
BLACK
6
CONTINUOUS
10
120.39
20
-123.214
11
120.39
21
-123.69
0
LINE
8
BLACK
6
CONTINUOUS
10
120.39
20
-123.69
11
120.295
21
-123.88
0
LINE
8
BLACK
6
CONTINUOUS
10
120.295
20
-123.88
11
120.2
21
-123.976
0
LINE
8
BLACK
6
CONTINUOUS
10
120.2
20
-123.976
11
120.009
21
-124.071
0
LINE
8
BLACK
6
CONTINUOUS
10
120.009
20
-124.071
11
119.438
21
-124.071
0
LINE
8
BLACK
6
CONTINUOUS
10
119.438
20
-124.071
11
119.247
21
-123.976
0
LINE
8
BLACK
6
CONTINUOUS
10
119.247
20
-123.976
11
119.152
21
-123.88
0
LINE
8
BLACK
6
CONTINUOUS
10
121.057
20
-122.071
11
122.295
21
-122.071
0
LINE
8
BLACK
6
CONTINUOUS
10
122.295
20
-122.071
11
121.628
21
-122.833
0
LINE
8
BLACK
6
CONTINUOUS
10
121.628
20
-122.833
11
121.914
21
-122.833
0
LINE
8
BLACK
6
CONTINUOUS
10
121.914
20
-122.833
11
122.104
21
-122.928
0
LINE
8
BLACK
6
CONTINUOUS
10
122.104
20
-122.928
11
122.2
21
-123.023
0
LINE
8
BLACK
6
CONTINUOUS
10
122.2
20
-123.023
11
122.295
21
-123.214
0
LINE
8
BLACK
6
CONTINUOUS
10
122.295
20
-123.214
11
122.295
21
-123.69
0
LINE
8
BLACK
6
CONTINUOUS
10
122.295
20
-123.69
11
122.2
21
-123.88
0
LINE
8
BLACK
6
CONTINUOUS
10
122.2
20
-123.88
11
122.104
21
-123.976
0
LINE
8
BLACK
6
CONTINUOUS
10
122.104
20
-123.976
11
121.914
21
-124.071
0
LINE
8
BLACK
6
CONTINUOUS
10
121.914
20
-124.071
11
121.342
21
-124.071
0
LINE
8
BLACK
6
CONTINUOUS
10
121.342
20
-124.071
11
121.152
21
-123.976
0
LINE
8
BLACK
6
CONTINUOUS
10
121.152
20
-123.976
11
121.057
21
-123.88
0
LINE
8
BLACK
6
CONTINUOUS
10
123.057
20
-122.071
11
123.057
21
-122.452
0
LINE
8
BLACK
6
CONTINUOUS
10
123.819
20
-122.071
11
123.819
21
-122.452
0
LINE
8
BLACK
6
CONTINUOUS
10
126.771
20
-124.833
11
126.676
21
-124.737
0
LINE
8
BLACK
6
CONTINUOUS
10
126.676
20
-124.737
11
126.485
21
-124.452
0
LINE
8
BLACK
6
CONTINUOUS
10
126.485
20
-124.452
11
126.39
21
-124.261
0
LINE
8
BLACK
6
CONTINUOUS
10
126.39
20
-124.261
11
126.295
21
-123.976
0
LINE
8
BLACK
6
CONTINUOUS
10
126.295
20
-123.976
11
126.2
21
-123.499
0
LINE
8
BLACK
6
CONTINUOUS
10
126.2
20
-123.499
11
126.2
21
-123.118
0
LINE
8
BLACK
6
CONTINUOUS
10
126.2
20
-123.118
11
126.295
21
-122.642
0
LINE
8
BLACK
6
CONTINUOUS
10
126.295
20
-122.642
11
126.39
21
-122.356
0
LINE
8
BLACK
6
CONTINUOUS
10
126.39
20
-122.356
11
126.485
21
-122.166
0
LINE
8
BLACK
6
CONTINUOUS
10
126.485
20
-122.166
11
126.676
21
-121.88
0
LINE
8
BLACK
6
CONTINUOUS
10
126.676
20
-121.88
11
126.771
21
-121.785
0
LINE
8
BLACK
6
CONTINUOUS
10
128.39
20
-122.071
11
128.009
21
-122.071
0
LINE
8
BLACK
6
CONTINUOUS
10
128.009
20
-122.071
11
127.819
21
-122.166
0
LINE
8
BLACK
6
CONTINUOUS
10
127.819
20
-122.166
11
127.723
21
-122.261
0
LINE
8
BLACK
6
CONTINUOUS
10
127.723
20
-122.261
11
127.533
21
-122.547
0
LINE
8
BLACK
6
CONTINUOUS
10
127.533
20
-122.547
11
127.438
21
-122.928
0
LINE
8
BLACK
6
CONTINUOUS
10
127.438
20
-122.928
11
127.438
21
-123.69
0
LINE
8
BLACK
6
CONTINUOUS
10
127.438
20
-123.69
11
127.533
21
-123.88
0
LINE
8
BLACK
6
CONTINUOUS
10
127.533
20
-123.88
11
127.628
21
-123.976
0
LINE
8
BLACK
6
CONTINUOUS
10
127.628
20
-123.976
11
127.819
21
-124.071
0
LINE
8
BLACK
6
CONTINUOUS
10
127.819
20
-124.071
11
128.2
21
-124.071
0
LINE
8
BLACK
6
CONTINUOUS
10
128.2
20
-124.071
11
128.39
21
-123.976
0
LINE
8
BLACK
6
CONTINUOUS
10
128.39
20
-123.976
11
128.485
21
-123.88
0
LINE
8
BLACK
6
CONTINUOUS
10
128.485
20
-123.88
11
128.581
21
-123.69
0
LINE
8
BLACK
6
CONTINUOUS
10
128.581
20
-123.69
11
128.581
21
-123.214
0
LINE
8
BLACK
6
CONTINUOUS
10
128.581
20
-123.214
11
128.485
21
-123.023
0
LINE
8
BLACK
6
CONTINUOUS
10
128.485
20
-123.023
11
128.39
21
-122.928
0
LINE
8
BLACK
6
CONTINUOUS
10
128.39
20
-122.928
11
128.2
21
-122.833
0
LINE
8
BLACK
6
CONTINUOUS
10
128.2
20
-122.833
11
127.819
21
-122.833
0
LINE
8
BLACK
6
CONTINUOUS
10
127.819
20
-122.833
11
127.628
21
-122.928
0
LINE
8
BLACK
6
CONTINUOUS
10
127.628
20
-122.928
11
127.533
21
-123.023
0
LINE
8
BLACK
6
CONTINUOUS
10
127.533
20
-123.023
11
127.438
21
-123.214
0
LINE
8
BLACK
6
CONTINUOUS
10
130.962
20
-124.071
11
130.962
21
-122.071
0
LINE
8
BLACK
6
CONTINUOUS
10
131.819
20
-124.071
11
131.819
21
-123.023
0
LINE
8
BLACK
6
CONTINUOUS
10
131.819
20
-123.023
11
131.723
21
-122.833
0
LINE
8
BLACK
6
CONTINUOUS
10
131.723
20
-122.833
11
131.533
21
-122.737
0
LINE
8
BLACK
6
CONTINUOUS
10
131.533
20
-122.737
11
131.247
21
-122.737
0
LINE
8
BLACK
6
CONTINUOUS
10
131.247
20
-122.737
11
131.057
21
-122.833
0
LINE
8
BLACK
6
CONTINUOUS
10
131.057
20
-122.833
11
130.962
21
-122.928
0
LINE
8
BLACK
6
CONTINUOUS
10
133.057
20
-124.071
11
132.866
21
-123.976
0
LINE
8
BLACK
6
CONTINUOUS
10
132.866
20
-123.976
11
132.771
21
-123.88
0
LINE
8
BLACK
6
CONTINUOUS
10
132.771
20
-123.88
11
132.676
21
-123.69
0
LINE
8
BLACK
6
CONTINUOUS
10
132.676
20
-123.69
11
132.676
21
-123.118
0
LINE
8
BLACK
6
CONTINUOUS
10
132.676
20
-123.118
11
132.771
21
-122.928
0
LINE
8
BLACK
6
CONTINUOUS
10
132.771
20
-122.928
11
132.866
21
-122.833
0
LINE
8
BLACK
6
CONTINUOUS
10
132.866
20
-122.833
11
133.057
21
-122.737
0
LINE
8
BLACK
6
CONTINUOUS
10
133.057
20
-122.737
11
133.342
21
-122.737
0
LINE
8
BLACK
6
CONTINUOUS
10
133.342
20
-122.737
11
133.533
21
-122.833
0
LINE
8
BLACK
6
CONTINUOUS
10
133.533
20
-122.833
11
133.628
21
-122.928
0
LINE
8
BLACK
6
CONTINUOUS
10
133.628
20
-122.928
11
133.723
21
-123.118
0
LINE
8
BLACK
6
CONTINUOUS
10
133.723
20
-123.118
11
133.723
21
-123.69
0
LINE
8
BLACK
6
CONTINUOUS
10
133.723
20
-123.69
11
133.628
21
-123.88
0
LINE
8
BLACK
6
CONTINUOUS
10
133.628
20
-123.88
11
133.533
21
-123.976
0
LINE
8
BLACK
6
CONTINUOUS
10
133.533
20
-123.976
11
133.342
21
-124.071
0
LINE
8
BLACK
6
CONTINUOUS
10
133.342
20
-124.071
11
133.057
21
-124.071
0
LINE
8
BLACK
6
CONTINUOUS
10
134.866
20
-124.071
11
134.676
21
-123.976
0
LINE
8
BLACK
6
CONTINUOUS
10
134.676
20
-123.976
11
134.581
21
-123.785
0
LINE
8
BLACK
6
CONTINUOUS
10
134.581
20
-123.785
11
134.581
21
-122.071
0
LINE
8
BLACK
6
CONTINUOUS
10
136.39
20
-123.976
11
136.2
21
-124.071
0
LINE
8
BLACK
6
CONTINUOUS
10
136.2
20
-124.071
11
135.819
21
-124.071
0
LINE
8
BLACK
6
CONTINUOUS
10
135.819
20
-124.071
11
135.628
21
-123.976
0
LINE
8
BLACK
6
CONTINUOUS
10
135.628
20
-123.976
11
135.533
21
-123.785
0
LINE
8
BLACK
6
CONTINUOUS
10
135.533
20
-123.785
11
135.533
21
-123.023
0
LINE
8
BLACK
6
CONTINUOUS
10
135.533
20
-123.023
11
135.628
21
-122.833
0
LINE
8
BLACK
6
CONTINUOUS
10
135.628
20
-122.833
11
135.819
21
-122.737
0
LINE
8
BLACK
6
CONTINUOUS
10
135.819
20
-122.737
11
136.2
21
-122.737
0
LINE
8
BLACK
6
CONTINUOUS
10
136.2
20
-122.737
11
136.39
21
-122.833
0
LINE
8
BLACK
6
CONTINUOUS
10
136.39
20
-122.833
11
136.485
21
-123.023
0
LINE
8
BLACK
6
CONTINUOUS
10
136.485
20
-123.023
11
136.485
21
-123.214
0
LINE
8
BLACK
6
CONTINUOUS
10
136.485
20
-123.214
11
135.533
21
-123.404
0
LINE
8
BLACK
6
CONTINUOUS
10
137.247
20
-123.976
11
137.438
21
-124.071
0
LINE
8
BLACK
6
CONTINUOUS
10
137.438
20
-124.071
11
137.819
21
-124.071
0
LINE
8
BLACK
6
CONTINUOUS
10
137.819
20
-124.071
11
138.009
21
-123.976
0
LINE
8
BLACK
6
CONTINUOUS
10
138.009
20
-123.976
11
138.104
21
-123.785
0
LINE
8
BLACK
6
CONTINUOUS
10
138.104
20
-123.785
11
138.104
21
-123.69
0
LINE
8
BLACK
6
CONTINUOUS
10
138.104
20
-123.69
11
138.009
21
-123.499
0
LINE
8
BLACK
6
CONTINUOUS
10
138.009
20
-123.499
11
137.819
21
-123.404
0
LINE
8
BLACK
6
CONTINUOUS
10
137.819
20
-123.404
11
137.533
21
-123.404
0
LINE
8
BLACK
6
CONTINUOUS
10
137.533
20
-123.404
11
137.342
21
-123.309
0
LINE
8
BLACK
6
CONTINUOUS
10
137.342
20
-123.309
11
137.247
21
-123.118
0
LINE
8
BLACK
6
CONTINUOUS
10
137.247
20
-123.118
11
137.247
21
-123.023
0
LINE
8
BLACK
6
CONTINUOUS
10
137.247
20
-123.023
11
137.342
21
-122.833
0
LINE
8
BLACK
6
CONTINUOUS
10
137.342
20
-122.833
11
137.533
21
-122.737
0
LINE
8
BLACK
6
CONTINUOUS
10
137.533
20
-122.737
11
137.819
21
-122.737
0
LINE
8
BLACK
6
CONTINUOUS
10
137.819
20
-122.737
11
138.009
21
-122.833
0
LINE
8
BLACK
6
CONTINUOUS
10
138.771
20
-124.833
11
138.866
21
-124.737
0
LINE
8
BLACK
6
CONTINUOUS
10
138.866
20
-124.737
11
139.057
21
-124.452
0
LINE
8
BLACK
6
CONTINUOUS
10
139.057
20
-124.452
11
139.152
21
-124.261
0
LINE
8
BLACK
6
CONTINUOUS
10
139.152
20
-124.261
11
139.247
21
-123.976
0
LINE
8
BLACK
6
CONTINUOUS
10
139.247
20
-123.976
11
139.342
21
-123.499
0
LINE
8
BLACK
6
CONTINUOUS
10
139.342
20
-123.499
11
139.342
21
-123.118
0
LINE
8
BLACK
6
CONTINUOUS
10
139.342
20
-123.118
11
139.247
21
-122.642
0
LINE
8
BLACK
6
CONTINUOUS
10
139.247
20
-122.642
11
139.152
21
-122.356
0
LINE
8
BLACK
6
CONTINUOUS
10
139.152
20
-122.356
11
139.057
21
-122.166
0
LINE
8
BLACK
6
CONTINUOUS
10
139.057
20
-122.166
11
138.866
21
-121.88
0
LINE
8
BLACK
6
CONTINUOUS
10
138.866
20
-121.88
11
138.771
21
-121.785
0
LINE
8
BLACK
6
CONTINUOUS
10
90.402
20
-126.456
11
91.052
21
-125.806
0
LINE
8
BLACK
6
CONTINUOUS
10
91.052
20
-125.806
11
90.402
21
-125.156
0
LINE
8
BLACK
6
CONTINUOUS
10
90.402
20
-125.156
11
89.752
21
-125.806
0
LINE
8
BLACK
6
CONTINUOUS
10
89.752
20
-125.806
11
90.402
21
-126.456
0
LINE
8
BLACK
6
CONTINUOUS
10
94.6758
20
-126.711
11
93.533
21
-126.711
0
LINE
8
BLACK
6
CONTINUOUS
10
94.1044
20
-126.711
11
94.1044
21
-124.711
0
LINE
8
BLACK
6
CONTINUOUS
10
94.1044
20
-124.711
11
93.9139
21
-124.996
0
LINE
8
BLACK
6
CONTINUOUS
10
93.9139
20
-124.996
11
93.7234
21
-125.187
0
LINE
8
BLACK
6
CONTINUOUS
10
93.7234
20
-125.187
11
93.533
21
-125.282
0
LINE
8
BLACK
6
CONTINUOUS
10
95.533
20
-126.52
11
95.6282
21
-126.616
0
LINE
8
BLACK
6
CONTINUOUS
10
95.6282
20
-126.616
11
95.533
21
-126.711
0
LINE
8
BLACK
6
CONTINUOUS
10
95.533
20
-126.711
11
95.4377
21
-126.616
0
LINE
8
BLACK
6
CONTINUOUS
10
95.4377
20
-126.616
11
95.533
21
-126.52
0
LINE
8
BLACK
6
CONTINUOUS
10
95.533
20
-126.52
11
95.533
21
-126.711
0
LINE
8
BLACK
6
CONTINUOUS
10
96.2949
20
-124.711
11
97.533
21
-124.711
0
LINE
8
BLACK
6
CONTINUOUS
10
97.533
20
-124.711
11
96.8663
21
-125.473
0
LINE
8
BLACK
6
CONTINUOUS
10
96.8663
20
-125.473
11
97.152
21
-125.473
0
LINE
8
BLACK
6
CONTINUOUS
10
97.152
20
-125.473
11
97.3425
21
-125.568
0
LINE
8
BLACK
6
CONTINUOUS
10
97.3425
20
-125.568
11
97.4377
21
-125.663
0
LINE
8
BLACK
6
CONTINUOUS
10
97.4377
20
-125.663
11
97.533
21
-125.854
0
LINE
8
BLACK
6
CONTINUOUS
10
97.533
20
-125.854
11
97.533
21
-126.33
0
LINE
8
BLACK
6
CONTINUOUS
10
97.533
20
-126.33
11
97.4377
21
-126.52
0
LINE
8
BLACK
6
CONTINUOUS
10
97.4377
20
-126.52
11
97.3425
21
-126.616
0
LINE
8
BLACK
6
CONTINUOUS
10
97.3425
20
-126.616
11
97.152
21
-126.711
0
LINE
8
BLACK
6
CONTINUOUS
10
97.152
20
-126.711
11
96.5806
21
-126.711
0
LINE
8
BLACK
6
CONTINUOUS
10
96.5806
20
-126.711
11
96.3901
21
-126.616
0
LINE
8
BLACK
6
CONTINUOUS
10
96.3901
20
-126.616
11
96.2949
21
-126.52
0
LINE
8
BLACK
6
CONTINUOUS
10
98.771
20
-124.711
11
98.9615
21
-124.711
0
LINE
8
BLACK
6
CONTINUOUS
10
98.9615
20
-124.711
11
99.152
21
-124.806
0
LINE
8
BLACK
6
CONTINUOUS
10
99.152
20
-124.806
11
99.2472
21
-124.901
0
LINE
8
BLACK
6
CONTINUOUS
10
99.2472
20
-124.901
11
99.3425
21
-125.092
0
LINE
8
BLACK
6
CONTINUOUS
10
99.3425
20
-125.092
11
99.4377
21
-125.473
0
LINE
8
BLACK
6
CONTINUOUS
10
99.4377
20
-125.473
11
99.4377
21
-125.949
0
LINE
8
BLACK
6
CONTINUOUS
10
99.4377
20
-125.949
11
99.3425
21
-126.33
0
LINE
8
BLACK
6
CONTINUOUS
10
99.3425
20
-126.33
11
99.2472
21
-126.52
0
LINE
8
BLACK
6
CONTINUOUS
10
99.2472
20
-126.52
11
99.152
21
-126.616
0
LINE
8
BLACK
6
CONTINUOUS
10
99.152
20
-126.616
11
98.9615
21
-126.711
0
LINE
8
BLACK
6
CONTINUOUS
10
98.9615
20
-126.711
11
98.771
21
-126.711
0
LINE
8
BLACK
6
CONTINUOUS
10
98.771
20
-126.711
11
98.5806
21
-126.616
0
LINE
8
BLACK
6
CONTINUOUS
10
98.5806
20
-126.616
11
98.4853
21
-126.52
0
LINE
8
BLACK
6
CONTINUOUS
10
98.4853
20
-126.52
11
98.3901
21
-126.33
0
LINE
8
BLACK
6
CONTINUOUS
10
98.3901
20
-126.33
11
98.2949
21
-125.949
0
LINE
8
BLACK
6
CONTINUOUS
10
98.2949
20
-125.949
11
98.2949
21
-125.473
0
LINE
8
BLACK
6
CONTINUOUS
10
98.2949
20
-125.473
11
98.3901
21
-125.092
0
LINE
8
BLACK
6
CONTINUOUS
10
98.3901
20
-125.092
11
98.4853
21
-124.901
0
LINE
8
BLACK
6
CONTINUOUS
10
98.4853
20
-124.901
11
98.5806
21
-124.806
0
LINE
8
BLACK
6
CONTINUOUS
10
98.5806
20
-124.806
11
98.771
21
-124.711
0
LINE
8
BLACK
6
CONTINUOUS
10
100.676
20
-124.711
11
100.866
21
-124.711
0
LINE
8
BLACK
6
CONTINUOUS
10
100.866
20
-124.711
11
101.057
21
-124.806
0
LINE
8
BLACK
6
CONTINUOUS
10
101.057
20
-124.806
11
101.152
21
-124.901
0
LINE
8
BLACK
6
CONTINUOUS
10
101.152
20
-124.901
11
101.247
21
-125.092
0
LINE
8
BLACK
6
CONTINUOUS
10
101.247
20
-125.092
11
101.342
21
-125.473
0
LINE
8
BLACK
6
CONTINUOUS
10
101.342
20
-125.473
11
101.342
21
-125.949
0
LINE
8
BLACK
6
CONTINUOUS
10
101.342
20
-125.949
11
101.247
21
-126.33
0
LINE
8
BLACK
6
CONTINUOUS
10
101.247
20
-126.33
11
101.152
21
-126.52
0
LINE
8
BLACK
6
CONTINUOUS
10
101.152
20
-126.52
11
101.057
21
-126.616
0
LINE
8
BLACK
6
CONTINUOUS
10
101.057
20
-126.616
11
100.866
21
-126.711
0
LINE
8
BLACK
6
CONTINUOUS
10
100.866
20
-126.711
11
100.676
21
-126.711
0
LINE
8
BLACK
6
CONTINUOUS
10
100.676
20
-126.711
11
100.485
21
-126.616
0
LINE
8
BLACK
6
CONTINUOUS
10
100.485
20
-126.616
11
100.39
21
-126.52
0
LINE
8
BLACK
6
CONTINUOUS
10
100.39
20
-126.52
11
100.295
21
-126.33
0
LINE
8
BLACK
6
CONTINUOUS
10
100.295
20
-126.33
11
100.2
21
-125.949
0
LINE
8
BLACK
6
CONTINUOUS
10
100.2
20
-125.949
11
100.2
21
-125.473
0
LINE
8
BLACK
6
CONTINUOUS
10
100.2
20
-125.473
11
100.295
21
-125.092
0
LINE
8
BLACK
6
CONTINUOUS
10
100.295
20
-125.092
11
100.39
21
-124.901
0
LINE
8
BLACK
6
CONTINUOUS
10
100.39
20
-124.901
11
100.485
21
-124.806
0
LINE
8
BLACK
6
CONTINUOUS
10
100.485
20
-124.806
11
100.676
21
-124.711
0
LINE
8
BLACK
6
CONTINUOUS
10
102.2
20
-126.711
11
102.2
21
-125.377
0
LINE
8
BLACK
6
CONTINUOUS
10
102.2
20
-125.568
11
102.295
21
-125.473
0
LINE
8
BLACK
6
CONTINUOUS
10
102.295
20
-125.473
11
102.485
21
-125.377
0
LINE
8
BLACK
6
CONTINUOUS
10
102.485
20
-125.377
11
102.771
21
-125.377
0
LINE
8
BLACK
6
CONTINUOUS
10
102.771
20
-125.377
11
102.962
21
-125.473
0
LINE
8
BLACK
6
CONTINUOUS
10
102.962
20
-125.473
11
103.057
21
-125.663
0
LINE
8
BLACK
6
CONTINUOUS
10
103.057
20
-125.663
11
103.057
21
-126.711
0
LINE
8
BLACK
6
CONTINUOUS
10
103.057
20
-125.663
11
103.152
21
-125.473
0
LINE
8
BLACK
6
CONTINUOUS
10
103.152
20
-125.473
11
103.342
21
-125.377
0
LINE
8
BLACK
6
CONTINUOUS
10
103.342
20
-125.377
11
103.628
21
-125.377
0
LINE
8
BLACK
6
CONTINUOUS
10
103.628
20
-125.377
11
103.819
21
-125.473
0
LINE
8
BLACK
6
CONTINUOUS
10
103.819
20
-125.473
11
103.914
21
-125.663
0
LINE
8
BLACK
6
CONTINUOUS
10
103.914
20
-125.663
11
103.914
21
-126.711
0
LINE
8
BLACK
6
CONTINUOUS
10
104.866
20
-126.711
11
104.866
21
-125.377
0
LINE
8
BLACK
6
CONTINUOUS
10
104.866
20
-125.568
11
104.962
21
-125.473
0
LINE
8
BLACK
6
CONTINUOUS
10
104.962
20
-125.473
11
105.152
21
-125.377
0
LINE
8
BLACK
6
CONTINUOUS
10
105.152
20
-125.377
11
105.438
21
-125.377
0
LINE
8
BLACK
6
CONTINUOUS
10
105.438
20
-125.377
11
105.628
21
-125.473
0
LINE
8
BLACK
6
CONTINUOUS
10
105.628
20
-125.473
11
105.723
21
-125.663
0
LINE
8
BLACK
6
CONTINUOUS
10
105.723
20
-125.663
11
105.723
21
-126.711
0
LINE
8
BLACK
6
CONTINUOUS
10
105.723
20
-125.663
11
105.819
21
-125.473
0
LINE
8
BLACK
6
CONTINUOUS
10
105.819
20
-125.473
11
106.009
21
-125.377
0
LINE
8
BLACK
6
CONTINUOUS
10
106.009
20
-125.377
11
106.295
21
-125.377
0
LINE
8
BLACK
6
CONTINUOUS
10
106.295
20
-125.377
11
106.485
21
-125.473
0
LINE
8
BLACK
6
CONTINUOUS
10
106.485
20
-125.473
11
106.581
21
-125.663
0
LINE
8
BLACK
6
CONTINUOUS
10
106.581
20
-125.663
11
106.581
21
-126.711
0
LINE
8
BLACK
6
CONTINUOUS
10
110.485
20
-124.616
11
108.771
21
-127.187
0
LINE
8
BLACK
6
CONTINUOUS
10
113.057
20
-124.711
11
113.247
21
-124.711
0
LINE
8
BLACK
6
CONTINUOUS
10
113.247
20
-124.711
11
113.438
21
-124.806
0
LINE
8
BLACK
6
CONTINUOUS
10
113.438
20
-124.806
11
113.533
21
-124.901
0
LINE
8
BLACK
6
CONTINUOUS
10
113.533
20
-124.901
11
113.628
21
-125.092
0
LINE
8
BLACK
6
CONTINUOUS
10
113.628
20
-125.092
11
113.723
21
-125.473
0
LINE
8
BLACK
6
CONTINUOUS
10
113.723
20
-125.473
11
113.723
21
-125.949
0
LINE
8
BLACK
6
CONTINUOUS
10
113.723
20
-125.949
11
113.628
21
-126.33
0
LINE
8
BLACK
6
CONTINUOUS
10
113.628
20
-126.33
11
113.533
21
-126.52
0
LINE
8
BLACK
6
CONTINUOUS
10
113.533
20
-126.52
11
113.438
21
-126.616
0
LINE
8
BLACK
6
CONTINUOUS
10
113.438
20
-126.616
11
113.247
21
-126.711
0
LINE
8
BLACK
6
CONTINUOUS
10
113.247
20
-126.711
11
113.057
21
-126.711
0
LINE
8
BLACK
6
CONTINUOUS
10
113.057
20
-126.711
11
112.866
21
-126.616
0
LINE
8
BLACK
6
CONTINUOUS
10
112.866
20
-126.616
11
112.771
21
-126.52
0
LINE
8
BLACK
6
CONTINUOUS
10
112.771
20
-126.52
11
112.676
21
-126.33
0
LINE
8
BLACK
6
CONTINUOUS
10
112.676
20
-126.33
11
112.581
21
-125.949
0
LINE
8
BLACK
6
CONTINUOUS
10
112.581
20
-125.949
11
112.581
21
-125.473
0
LINE
8
BLACK
6
CONTINUOUS
10
112.581
20
-125.473
11
112.676
21
-125.092
0
LINE
8
BLACK
6
CONTINUOUS
10
112.676
20
-125.092
11
112.771
21
-124.901
0
LINE
8
BLACK
6
CONTINUOUS
10
112.771
20
-124.901
11
112.866
21
-124.806
0
LINE
8
BLACK
6
CONTINUOUS
10
112.866
20
-124.806
11
113.057
21
-124.711
0
LINE
8
BLACK
6
CONTINUOUS
10
114.581
20
-126.52
11
114.676
21
-126.616
0
LINE
8
BLACK
6
CONTINUOUS
10
114.676
20
-126.616
11
114.581
21
-126.711
0
LINE
8
BLACK
6
CONTINUOUS
10
114.581
20
-126.711
11
114.485
21
-126.616
0
LINE
8
BLACK
6
CONTINUOUS
10
114.485
20
-126.616
11
114.581
21
-126.52
0
LINE
8
BLACK
6
CONTINUOUS
10
114.581
20
-126.52
11
114.581
21
-126.711
0
LINE
8
BLACK
6
CONTINUOUS
10
115.914
20
-124.711
11
116.104
21
-124.711
0
LINE
8
BLACK
6
CONTINUOUS
10
116.104
20
-124.711
11
116.295
21
-124.806
0
LINE
8
BLACK
6
CONTINUOUS
10
116.295
20
-124.806
11
116.39
21
-124.901
0
LINE
8
BLACK
6
CONTINUOUS
10
116.39
20
-124.901
11
116.485
21
-125.092
0
LINE
8
BLACK
6
CONTINUOUS
10
116.485
20
-125.092
11
116.581
21
-125.473
0
LINE
8
BLACK
6
CONTINUOUS
10
116.581
20
-125.473
11
116.581
21
-125.949
0
LINE
8
BLACK
6
CONTINUOUS
10
116.581
20
-125.949
11
116.485
21
-126.33
0
LINE
8
BLACK
6
CONTINUOUS
10
116.485
20
-126.33
11
116.39
21
-126.52
0
LINE
8
BLACK
6
CONTINUOUS
10
116.39
20
-126.52
11
116.295
21
-126.616
0
LINE
8
BLACK
6
CONTINUOUS
10
116.295
20
-126.616
11
116.104
21
-126.711
0
LINE
8
BLACK
6
CONTINUOUS
10
116.104
20
-126.711
11
115.914
21
-126.711
0
LINE
8
BLACK
6
CONTINUOUS
10
115.914
20
-126.711
11
115.723
21
-126.616
0
LINE
8
BLACK
6
CONTINUOUS
10
115.723
20
-126.616
11
115.628
21
-126.52
0
LINE
8
BLACK
6
CONTINUOUS
10
115.628
20
-126.52
11
115.533
21
-126.33
0
LINE
8
BLACK
6
CONTINUOUS
10
115.533
20
-126.33
11
115.438
21
-125.949
0
LINE
8
BLACK
6
CONTINUOUS
10
115.438
20
-125.949
11
115.438
21
-125.473
0
LINE
8
BLACK
6
CONTINUOUS
10
115.438
20
-125.473
11
115.533
21
-125.092
0
LINE
8
BLACK
6
CONTINUOUS
10
115.533
20
-125.092
11
115.628
21
-124.901
0
LINE
8
BLACK
6
CONTINUOUS
10
115.628
20
-124.901
11
115.723
21
-124.806
0
LINE
8
BLACK
6
CONTINUOUS
10
115.723
20
-124.806
11
115.914
21
-124.711
0
LINE
8
BLACK
6
CONTINUOUS
10
118.39
20
-124.711
11
117.438
21
-124.711
0
LINE
8
BLACK
6
CONTINUOUS
10
117.438
20
-124.711
11
117.342
21
-125.663
0
LINE
8
BLACK
6
CONTINUOUS
10
117.342
20
-125.663
11
117.438
21
-125.568
0
LINE
8
BLACK
6
CONTINUOUS
10
117.438
20
-125.568
11
117.628
21
-125.473
0
LINE
8
BLACK
6
CONTINUOUS
10
117.628
20
-125.473
11
118.104
21
-125.473
0
LINE
8
BLACK
6
CONTINUOUS
10
118.104
20
-125.473
11
118.295
21
-125.568
0
LINE
8
BLACK
6
CONTINUOUS
10
118.295
20
-125.568
11
118.39
21
-125.663
0
LINE
8
BLACK
6
CONTINUOUS
10
118.39
20
-125.663
11
118.485
21
-125.854
0
LINE
8
BLACK
6
CONTINUOUS
10
118.485
20
-125.854
11
118.485
21
-126.33
0
LINE
8
BLACK
6
CONTINUOUS
10
118.485
20
-126.33
11
118.39
21
-126.52
0
LINE
8
BLACK
6
CONTINUOUS
10
118.39
20
-126.52
11
118.295
21
-126.616
0
LINE
8
BLACK
6
CONTINUOUS
10
118.295
20
-126.616
11
118.104
21
-126.711
0
LINE
8
BLACK
6
CONTINUOUS
10
118.104
20
-126.711
11
117.628
21
-126.711
0
LINE
8
BLACK
6
CONTINUOUS
10
117.628
20
-126.711
11
117.438
21
-126.616
0
LINE
8
BLACK
6
CONTINUOUS
10
117.438
20
-126.616
11
117.342
21
-126.52
0
LINE
8
BLACK
6
CONTINUOUS
10
120.39
20
-126.711
11
119.247
21
-126.711
0
LINE
8
BLACK
6
CONTINUOUS
10
119.819
20
-126.711
11
119.819
21
-124.711
0
LINE
8
BLACK
6
CONTINUOUS
10
119.819
20
-124.711
11
119.628
21
-124.996
0
LINE
8
BLACK
6
CONTINUOUS
10
119.628
20
-124.996
11
119.438
21
-125.187
0
LINE
8
BLACK
6
CONTINUOUS
10
119.438
20
-125.187
11
119.247
21
-125.282
0
LINE
8
BLACK
6
CONTINUOUS
10
121.152
20
-124.901
11
121.247
21
-124.806
0
LINE
8
BLACK
6
CONTINUOUS
10
121.247
20
-124.806
11
121.438
21
-124.711
0
LINE
8
BLACK
6
CONTINUOUS
10
121.438
20
-124.711
11
121.914
21
-124.711
0
LINE
8
BLACK
6
CONTINUOUS
10
121.914
20
-124.711
11
122.104
21
-124.806
0
LINE
8
BLACK
6
CONTINUOUS
10
122.104
20
-124.806
11
122.2
21
-124.901
0
LINE
8
BLACK
6
CONTINUOUS
10
122.2
20
-124.901
11
122.295
21
-125.092
0
LINE
8
BLACK
6
CONTINUOUS
10
122.295
20
-125.092
11
122.295
21
-125.282
0
LINE
8
BLACK
6
CONTINUOUS
10
122.295
20
-125.282
11
122.2
21
-125.568
0
LINE
8
BLACK
6
CONTINUOUS
10
122.2
20
-125.568
11
121.057
21
-126.711
0
LINE
8
BLACK
6
CONTINUOUS
10
121.057
20
-126.711
11
122.295
21
-126.711
0
LINE
8
BLACK
6
CONTINUOUS
10
123.057
20
-124.711
11
123.057
21
-125.092
0
LINE
8
BLACK
6
CONTINUOUS
10
123.819
20
-124.711
11
123.819
21
-125.092
0
LINE
8
BLACK
6
CONTINUOUS
10
126.771
20
-127.473
11
126.676
21
-127.377
0
LINE
8
BLACK
6
CONTINUOUS
10
126.676
20
-127.377
11
126.485
21
-127.092
0
LINE
8
BLACK
6
CONTINUOUS
10
126.485
20
-127.092
11
126.39
21
-126.901
0
LINE
8
BLACK
6
CONTINUOUS
10
126.39
20
-126.901
11
126.295
21
-126.616
0
LINE
8
BLACK
6
CONTINUOUS
10
126.295
20
-126.616
11
126.2
21
-126.139
0
LINE
8
BLACK
6
CONTINUOUS
10
126.2
20
-126.139
11
126.2
21
-125.758
0
LINE
8
BLACK
6
CONTINUOUS
10
126.2
20
-125.758
11
126.295
21
-125.282
0
LINE
8
BLACK
6
CONTINUOUS
10
126.295
20
-125.282
11
126.39
21
-124.996
0
LINE
8
BLACK
6
CONTINUOUS
10
126.39
20
-124.996
11
126.485
21
-124.806
0
LINE
8
BLACK
6
CONTINUOUS
10
126.485
20
-124.806
11
126.676
21
-124.52
0
LINE
8
BLACK
6
CONTINUOUS
10
126.676
20
-124.52
11
126.771
21
-124.425
0
LINE
8
BLACK
6
CONTINUOUS
10
127.438
20
-124.901
11
127.533
21
-124.806
0
LINE
8
BLACK
6
CONTINUOUS
10
127.533
20
-124.806
11
127.723
21
-124.711
0
LINE
8
BLACK
6
CONTINUOUS
10
127.723
20
-124.711
11
128.2
21
-124.711
0
LINE
8
BLACK
6
CONTINUOUS
10
128.2
20
-124.711
11
128.39
21
-124.806
0
LINE
8
BLACK
6
CONTINUOUS
10
128.39
20
-124.806
11
128.485
21
-124.901
0
LINE
8
BLACK
6
CONTINUOUS
10
128.485
20
-124.901
11
128.581
21
-125.092
0
LINE
8
BLACK
6
CONTINUOUS
10
128.581
20
-125.092
11
128.581
21
-125.282
0
LINE
8
BLACK
6
CONTINUOUS
10
128.581
20
-125.282
11
128.485
21
-125.568
0
LINE
8
BLACK
6
CONTINUOUS
10
128.485
20
-125.568
11
127.342
21
-126.711
0
LINE
8
BLACK
6
CONTINUOUS
10
127.342
20
-126.711
11
128.581
21
-126.711
0
LINE
8
BLACK
6
CONTINUOUS
10
130.962
20
-126.711
11
130.962
21
-124.711
0
LINE
8
BLACK
6
CONTINUOUS
10
131.819
20
-126.711
11
131.819
21
-125.663
0
LINE
8
BLACK
6
CONTINUOUS
10
131.819
20
-125.663
11
131.723
21
-125.473
0
LINE
8
BLACK
6
CONTINUOUS
10
131.723
20
-125.473
11
131.533
21
-125.377
0
LINE
8
BLACK
6
CONTINUOUS
10
131.533
20
-125.377
11
131.247
21
-125.377
0
LINE
8
BLACK
6
CONTINUOUS
10
131.247
20
-125.377
11
131.057
21
-125.473
0
LINE
8
BLACK
6
CONTINUOUS
10
131.057
20
-125.473
11
130.962
21
-125.568
0
LINE
8
BLACK
6
CONTINUOUS
10
133.057
20
-126.711
11
132.866
21
-126.616
0
LINE
8
BLACK
6
CONTINUOUS
10
132.866
20
-126.616
11
132.771
21
-126.52
0
LINE
8
BLACK
6
CONTINUOUS
10
132.771
20
-126.52
11
132.676
21
-126.33
0
LINE
8
BLACK
6
CONTINUOUS
10
132.676
20
-126.33
11
132.676
21
-125.758
0
LINE
8
BLACK
6
CONTINUOUS
10
132.676
20
-125.758
11
132.771
21
-125.568
0
LINE
8
BLACK
6
CONTINUOUS
10
132.771
20
-125.568
11
132.866
21
-125.473
0
LINE
8
BLACK
6
CONTINUOUS
10
132.866
20
-125.473
11
133.057
21
-125.377
0
LINE
8
BLACK
6
CONTINUOUS
10
133.057
20
-125.377
11
133.342
21
-125.377
0
LINE
8
BLACK
6
CONTINUOUS
10
133.342
20
-125.377
11
133.533
21
-125.473
0
LINE
8
BLACK
6
CONTINUOUS
10
133.533
20
-125.473
11
133.628
21
-125.568
0
LINE
8
BLACK
6
CONTINUOUS
10
133.628
20
-125.568
11
133.723
21
-125.758
0
LINE
8
BLACK
6
CONTINUOUS
10
133.723
20
-125.758
11
133.723
21
-126.33
0
LINE
8
BLACK
6
CONTINUOUS
10
133.723
20
-126.33
11
133.628
21
-126.52
0
LINE
8
BLACK
6
CONTINUOUS
10
133.628
20
-126.52
11
133.533
21
-126.616
0
LINE
8
BLACK
6
CONTINUOUS
10
133.533
20
-126.616
11
133.342
21
-126.711
0
LINE
8
BLACK
6
CONTINUOUS
10
133.342
20
-126.711
11
133.057
21
-126.711
0
LINE
8
BLACK
6
CONTINUOUS
10
134.866
20
-126.711
11
134.676
21
-126.616
0
LINE
8
BLACK
6
CONTINUOUS
10
134.676
20
-126.616
11
134.581
21
-126.425
0
LINE
8
BLACK
6
CONTINUOUS
10
134.581
20
-126.425
11
134.581
21
-124.711
0
LINE
8
BLACK
6
CONTINUOUS
10
136.39
20
-126.616
11
136.2
21
-126.711
0
LINE
8
BLACK
6
CONTINUOUS
10
136.2
20
-126.711
11
135.819
21
-126.711
0
LINE
8
BLACK
6
CONTINUOUS
10
135.819
20
-126.711
11
135.628
21
-126.616
0
LINE
8
BLACK
6
CONTINUOUS
10
135.628
20
-126.616
11
135.533
21
-126.425
0
LINE
8
BLACK
6
CONTINUOUS
10
135.533
20
-126.425
11
135.533
21
-125.663
0
LINE
8
BLACK
6
CONTINUOUS
10
135.533
20
-125.663
11
135.628
21
-125.473
0
LINE
8
BLACK
6
CONTINUOUS
10
135.628
20
-125.473
11
135.819
21
-125.377
0
LINE
8
BLACK
6
CONTINUOUS
10
135.819
20
-125.377
11
136.2
21
-125.377
0
LINE
8
BLACK
6
CONTINUOUS
10
136.2
20
-125.377
11
136.39
21
-125.473
0
LINE
8
BLACK
6
CONTINUOUS
10
136.39
20
-125.473
11
136.485
21
-125.663
0
LINE
8
BLACK
6
CONTINUOUS
10
136.485
20
-125.663
11
136.485
21
-125.854
0
LINE
8
BLACK
6
CONTINUOUS
10
136.485
20
-125.854
11
135.533
21
-126.044
0
LINE
8
BLACK
6
CONTINUOUS
10
137.247
20
-126.616
11
137.438
21
-126.711
0
LINE
8
BLACK
6
CONTINUOUS
10
137.438
20
-126.711
11
137.819
21
-126.711
0
LINE
8
BLACK
6
CONTINUOUS
10
137.819
20
-126.711
11
138.009
21
-126.616
0
LINE
8
BLACK
6
CONTINUOUS
10
138.009
20
-126.616
11
138.104
21
-126.425
0
LINE
8
BLACK
6
CONTINUOUS
10
138.104
20
-126.425
11
138.104
21
-126.33
0
LINE
8
BLACK
6
CONTINUOUS
10
138.104
20
-126.33
11
138.009
21
-126.139
0
LINE
8
BLACK
6
CONTINUOUS
10
138.009
20
-126.139
11
137.819
21
-126.044
0
LINE
8
BLACK
6
CONTINUOUS
10
137.819
20
-126.044
11
137.533
21
-126.044
0
LINE
8
BLACK
6
CONTINUOUS
10
137.533
20
-126.044
11
137.342
21
-125.949
0
LINE
8
BLACK
6
CONTINUOUS
10
137.342
20
-125.949
11
137.247
21
-125.758
0
LINE
8
BLACK
6
CONTINUOUS
10
137.247
20
-125.758
11
137.247
21
-125.663
0
LINE
8
BLACK
6
CONTINUOUS
10
137.247
20
-125.663
11
137.342
21
-125.473
0
LINE
8
BLACK
6
CONTINUOUS
10
137.342
20
-125.473
11
137.533
21
-125.377
0
LINE
8
BLACK
6
CONTINUOUS
10
137.533
20
-125.377
11
137.819
21
-125.377
0
LINE
8
BLACK
6
CONTINUOUS
10
137.819
20
-125.377
11
138.009
21
-125.473
0
LINE
8
BLACK
6
CONTINUOUS
10
138.771
20
-127.473
11
138.866
21
-127.377
0
LINE
8
BLACK
6
CONTINUOUS
10
138.866
20
-127.377
11
139.057
21
-127.092
0
LINE
8
BLACK
6
CONTINUOUS
10
139.057
20
-127.092
11
139.152
21
-126.901
0
LINE
8
BLACK
6
CONTINUOUS
10
139.152
20
-126.901
11
139.247
21
-126.616
0
LINE
8
BLACK
6
CONTINUOUS
10
139.247
20
-126.616
11
139.342
21
-126.139
0
LINE
8
BLACK
6
CONTINUOUS
10
139.342
20
-126.139
11
139.342
21
-125.758
0
LINE
8
BLACK
6
CONTINUOUS
10
139.342
20
-125.758
11
139.247
21
-125.282
0
LINE
8
BLACK
6
CONTINUOUS
10
139.247
20
-125.282
11
139.152
21
-124.996
0
LINE
8
BLACK
6
CONTINUOUS
10
139.152
20
-124.996
11
139.057
21
-124.806
0
LINE
8
BLACK
6
CONTINUOUS
10
139.057
20
-124.806
11
138.866
21
-124.52
0
LINE
8
BLACK
6
CONTINUOUS
10
138.866
20
-124.52
11
138.771
21
-124.425
  0
ENDSEC
  0
EOF
