%TF.GenerationSoftware,KiCad,Pcbnew,(6.0.0)*%
%TF.CreationDate,2022-06-20T16:18:32+01:00*%
%TF.ProjectId,RemoteLabs_supervisor_PCB,52656d6f-7465-44c6-9162-735f73757065,rev?*%
%TF.SameCoordinates,Original*%
%TF.FileFunction,Copper,L2,Inr*%
%TF.FilePolarity,Positive*%
%FSLAX46Y46*%
G04 Gerber Fmt 4.6, Leading zero omitted, Abs format (unit mm)*
G04 Created by KiCad (PCBNEW (6.0.0)) date 2022-06-20 16:18:32*
%MOMM*%
%LPD*%
G01*
G04 APERTURE LIST*
G04 Aperture macros list*
%AMRoundRect*
0 Rectangle with rounded corners*
0 $1 Rounding radius*
0 $2 $3 $4 $5 $6 $7 $8 $9 X,Y pos of 4 corners*
0 Add a 4 corners polygon primitive as box body*
4,1,4,$2,$3,$4,$5,$6,$7,$8,$9,$2,$3,0*
0 Add four circle primitives for the rounded corners*
1,1,$1+$1,$2,$3*
1,1,$1+$1,$4,$5*
1,1,$1+$1,$6,$7*
1,1,$1+$1,$8,$9*
0 Add four rect primitives between the rounded corners*
20,1,$1+$1,$2,$3,$4,$5,0*
20,1,$1+$1,$4,$5,$6,$7,0*
20,1,$1+$1,$6,$7,$8,$9,0*
20,1,$1+$1,$8,$9,$2,$3,0*%
G04 Aperture macros list end*
%TA.AperFunction,ComponentPad*%
%ADD10R,1.700000X1.700000*%
%TD*%
%TA.AperFunction,ComponentPad*%
%ADD11O,1.700000X1.700000*%
%TD*%
%TA.AperFunction,ComponentPad*%
%ADD12RoundRect,0.250000X-0.725000X0.600000X-0.725000X-0.600000X0.725000X-0.600000X0.725000X0.600000X0*%
%TD*%
%TA.AperFunction,ComponentPad*%
%ADD13O,1.950000X1.700000*%
%TD*%
%TA.AperFunction,ComponentPad*%
%ADD14C,3.000000*%
%TD*%
%TA.AperFunction,ComponentPad*%
%ADD15R,1.980000X3.960000*%
%TD*%
%TA.AperFunction,ComponentPad*%
%ADD16O,1.980000X3.960000*%
%TD*%
%TA.AperFunction,ComponentPad*%
%ADD17R,3.960000X1.980000*%
%TD*%
%TA.AperFunction,ComponentPad*%
%ADD18O,3.960000X1.980000*%
%TD*%
%TA.AperFunction,ComponentPad*%
%ADD19RoundRect,0.250000X-0.620000X-0.845000X0.620000X-0.845000X0.620000X0.845000X-0.620000X0.845000X0*%
%TD*%
%TA.AperFunction,ComponentPad*%
%ADD20O,1.740000X2.190000*%
%TD*%
%TA.AperFunction,ComponentPad*%
%ADD21R,1.500000X2.300000*%
%TD*%
%TA.AperFunction,ComponentPad*%
%ADD22O,1.500000X2.300000*%
%TD*%
%TA.AperFunction,ComponentPad*%
%ADD23R,1.000000X1.000000*%
%TD*%
%TA.AperFunction,ComponentPad*%
%ADD24O,1.000000X1.000000*%
%TD*%
%TA.AperFunction,ComponentPad*%
%ADD25RoundRect,0.250000X-0.845000X0.620000X-0.845000X-0.620000X0.845000X-0.620000X0.845000X0.620000X0*%
%TD*%
%TA.AperFunction,ComponentPad*%
%ADD26O,2.190000X1.740000*%
%TD*%
%TA.AperFunction,ComponentPad*%
%ADD27C,0.800000*%
%TD*%
%TA.AperFunction,ComponentPad*%
%ADD28C,6.400000*%
%TD*%
%TA.AperFunction,ComponentPad*%
%ADD29C,2.000000*%
%TD*%
%TA.AperFunction,ComponentPad*%
%ADD30R,1.600000X1.600000*%
%TD*%
%TA.AperFunction,ComponentPad*%
%ADD31O,1.600000X1.600000*%
%TD*%
%TA.AperFunction,ComponentPad*%
%ADD32C,3.716000*%
%TD*%
%TA.AperFunction,ComponentPad*%
%ADD33R,3.716000X3.716000*%
%TD*%
%TA.AperFunction,ComponentPad*%
%ADD34O,1.200000X2.400000*%
%TD*%
%TA.AperFunction,ComponentPad*%
%ADD35R,2.000000X1.905000*%
%TD*%
%TA.AperFunction,ComponentPad*%
%ADD36O,2.000000X1.905000*%
%TD*%
%TA.AperFunction,ComponentPad*%
%ADD37R,1.500000X1.500000*%
%TD*%
%TA.AperFunction,ComponentPad*%
%ADD38C,1.500000*%
%TD*%
%TA.AperFunction,ComponentPad*%
%ADD39R,1.800000X1.524000*%
%TD*%
%TA.AperFunction,ComponentPad*%
%ADD40C,1.800000*%
%TD*%
%TA.AperFunction,ViaPad*%
%ADD41C,0.600000*%
%TD*%
%TA.AperFunction,ViaPad*%
%ADD42C,0.700000*%
%TD*%
%TA.AperFunction,ViaPad*%
%ADD43C,0.800000*%
%TD*%
%TA.AperFunction,Conductor*%
%ADD44C,0.250000*%
%TD*%
%TA.AperFunction,Conductor*%
%ADD45C,0.500000*%
%TD*%
%TA.AperFunction,Conductor*%
%ADD46C,0.300000*%
%TD*%
%TA.AperFunction,Conductor*%
%ADD47C,0.400000*%
%TD*%
%TA.AperFunction,Conductor*%
%ADD48C,0.200000*%
%TD*%
G04 APERTURE END LIST*
D10*
%TO.N,SERVO_1*%
%TO.C,J20*%
X110439200Y-24942800D03*
D11*
%TO.N,5V_DC_SERVO*%
X112979200Y-24942800D03*
%TO.N,GNDD*%
X115519200Y-24942800D03*
%TD*%
D12*
%TO.N,Net-(A4-Pad14)*%
%TO.C,J19*%
X215392000Y-35690800D03*
D13*
%TO.N,Net-(A4-Pad13)*%
X215392000Y-38190800D03*
%TO.N,Net-(J19-Pad3)*%
X215392000Y-40690800D03*
%TO.N,Net-(J19-Pad4)*%
X215392000Y-43190800D03*
%TD*%
D14*
%TO.N,12V_DC_BUS*%
%TO.C,F2*%
X143510000Y-88138000D03*
%TO.N,/DC Motor Controller/HC*%
X143510000Y-110738000D03*
%TD*%
D15*
%TO.N,GNDPWR*%
%TO.C,J31*%
X152044400Y-116636800D03*
D16*
%TO.N,5V_DC_RPI*%
X157044400Y-116636800D03*
%TD*%
D17*
%TO.N,/DC Motor Controller/HC3*%
%TO.C,J17*%
X197805200Y-50178600D03*
D18*
%TO.N,/DC Motor Controller/HC2*%
X197805200Y-55178600D03*
%TO.N,/DC Motor Controller/HC1*%
X197805200Y-60178600D03*
%TD*%
D10*
%TO.N,/Supervisor MCU/MOSI*%
%TO.C,J15*%
X101498400Y-33782000D03*
D11*
%TO.N,/Supervisor MCU/SCK*%
X101498400Y-31242000D03*
%TO.N,/Supervisor MCU/LATCH*%
X101498400Y-28702000D03*
%TD*%
D19*
%TO.N,/Digital Sensor Buffers/D_IN_B*%
%TO.C,J24*%
X158242000Y-27025600D03*
D20*
%TO.N,GNDD*%
X160782000Y-27025600D03*
%TD*%
D21*
%TO.N,12V_DC_BUS*%
%TO.C,U18*%
X190144400Y-67056000D03*
D22*
%TO.N,GND_PB*%
X187604400Y-67056000D03*
%TO.N,5V_DC_SERVO*%
X185064400Y-67056000D03*
%TD*%
D10*
%TO.N,STUDNT_LED3*%
%TO.C,J9*%
X74625200Y-103286400D03*
D11*
%TO.N,STUDNT_LED2*%
X74625200Y-105826400D03*
%TO.N,STUDNT_LED1*%
X74625200Y-108366400D03*
%TO.N,/Student MCU/SPARE_3*%
X74625200Y-110906400D03*
%TD*%
D19*
%TO.N,/Digital Sensor Buffers/D_IN_A*%
%TO.C,J23*%
X150622000Y-26994800D03*
D20*
%TO.N,GNDD*%
X153162000Y-26994800D03*
%TD*%
D10*
%TO.N,/Output Logic/SUPERVISOR_MOTOR_EN*%
%TO.C,J14*%
X89001600Y-43180000D03*
D11*
%TO.N,PEND_ENABLE*%
X89001600Y-40640000D03*
%TO.N,/Output Logic/MCU_STEP_SELECT*%
X89001600Y-38100000D03*
%TO.N,/Output Logic/MCU_PIXEL_SELECT*%
X89001600Y-35560000D03*
%TO.N,/Output Logic/SUPERVISOR_DIRECTION*%
X89001600Y-33020000D03*
%TO.N,/Output Logic/SUPERVISOR_STEP_SLP*%
X89001600Y-30480000D03*
%TO.N,/Output Logic/SUPERVISOR_STEP_RST*%
X89001600Y-27940000D03*
%TO.N,STEPP_EN*%
X89001600Y-25400000D03*
%TD*%
D15*
%TO.N,GNDPWR*%
%TO.C,J30*%
X163830000Y-116636800D03*
D16*
%TO.N,12V_DC_BUS*%
X168830000Y-116636800D03*
%TD*%
D23*
%TO.N,GNDPWR*%
%TO.C,J32*%
X129250600Y-115062000D03*
D24*
X130520600Y-115062000D03*
X131790600Y-115062000D03*
X133060600Y-115062000D03*
X134330600Y-115062000D03*
X135600600Y-115062000D03*
X136870600Y-115062000D03*
X138140600Y-115062000D03*
X139410600Y-115062000D03*
X140680600Y-115062000D03*
%TD*%
D25*
%TO.N,GNDD*%
%TO.C,J26*%
X83362800Y-78486000D03*
D26*
%TO.N,3V3_DC_MCU*%
X83362800Y-81026000D03*
%TO.N,/Student MCU/PROG_TX*%
X83362800Y-83566000D03*
%TO.N,/Student MCU/PROG_RX*%
X83362800Y-86106000D03*
%TO.N,/Student MCU/MCU_RESET*%
X83362800Y-88646000D03*
%TD*%
D10*
%TO.N,5V_DC_RPI*%
%TO.C,J29*%
X84328000Y-73137000D03*
D11*
%TO.N,/Power Input & Distribution/5_to_3v3_reg*%
X84328000Y-70597000D03*
%TO.N,USB_BUS*%
X84328000Y-68057000D03*
%TD*%
D15*
%TO.N,Net-(J22-Pad1)*%
%TO.C,J22*%
X118872000Y-117195600D03*
D16*
%TO.N,Net-(J22-Pad2)*%
X123872000Y-117195600D03*
%TD*%
D27*
%TO.N,N/C*%
%TO.C,H5*%
X131449744Y-105989456D03*
X131449744Y-102595344D03*
X134843856Y-102595344D03*
X133146800Y-106692400D03*
D28*
X133146800Y-104292400D03*
D27*
X130746800Y-104292400D03*
X134843856Y-105989456D03*
X135546800Y-104292400D03*
X133146800Y-101892400D03*
%TD*%
D10*
%TO.N,SERVO_2*%
%TO.C,J21*%
X110540800Y-29057600D03*
D11*
%TO.N,5V_DC_SERVO*%
X113080800Y-29057600D03*
%TO.N,GNDD*%
X115620800Y-29057600D03*
%TD*%
D29*
%TO.N,GNDPWR*%
%TO.C,A5*%
X192506600Y-89204800D03*
%TO.N,12V_DC_BUS*%
X192506600Y-106984800D03*
%TO.N,GNDPWR*%
X152501600Y-89204800D03*
%TO.N,5V_DC_RPI*%
X152501600Y-106984800D03*
%TD*%
D19*
%TO.N,5V_DC_LED*%
%TO.C,J2*%
X165303200Y-27025600D03*
D20*
%TO.N,Net-(J2-Pad2)*%
X167843200Y-27025600D03*
%TO.N,GNDD*%
X170383200Y-27025600D03*
%TD*%
D14*
%TO.N,/Power Input & Distribution/12V_DC*%
%TO.C,F1*%
X213715600Y-107696000D03*
%TO.N,/Power Input & Distribution/12V*%
X213715600Y-85096000D03*
%TD*%
D10*
%TO.N,/Output Logic/STUDENT_MOTOR_EN*%
%TO.C,J10*%
X85852000Y-92303600D03*
D11*
%TO.N,/Student MCU/SHIFT_1*%
X85852000Y-94843600D03*
%TO.N,/Student MCU/SHIFT_2*%
X85852000Y-97383600D03*
%TO.N,/Student MCU/SHIFT_3*%
X85852000Y-99923600D03*
%TO.N,/Output Logic/STUDENT_DIRECTION*%
X85852000Y-102463600D03*
%TO.N,/Output Logic/STUDENT_STEP_SLP*%
X85852000Y-105003600D03*
%TO.N,/Output Logic/STUDENT_STEP_RST*%
X85852000Y-107543600D03*
%TO.N,/Student MCU/SHIFT_7*%
X85852000Y-110083600D03*
%TD*%
D27*
%TO.N,N/C*%
%TO.C,H1*%
X78963856Y-25430144D03*
X79666800Y-27127200D03*
X78963856Y-28824256D03*
X74866800Y-27127200D03*
X77266800Y-24727200D03*
X77266800Y-29527200D03*
D28*
X77266800Y-27127200D03*
D27*
X75569744Y-25430144D03*
X75569744Y-28824256D03*
%TD*%
D17*
%TO.N,/DC Motor Controller/HC*%
%TO.C,J16*%
X128981200Y-90148200D03*
D18*
%TO.N,GNDPWR*%
X128981200Y-95148200D03*
%TD*%
D17*
%TO.N,/DC Motor Controller/HC1*%
%TO.C,J18*%
X214579200Y-60706000D03*
D18*
%TO.N,/DC Motor Controller/HC2*%
X214579200Y-55706000D03*
%TO.N,/DC Motor Controller/HC3*%
X214579200Y-50706000D03*
%TD*%
D10*
%TO.N,12V_DC_BUS*%
%TO.C,J33*%
X196646800Y-81991200D03*
D11*
X196646800Y-84531200D03*
X196646800Y-87071200D03*
X196646800Y-89611200D03*
X196646800Y-92151200D03*
%TD*%
D27*
%TO.N,N/C*%
%TO.C,H2*%
X79065456Y-115549344D03*
X79768400Y-117246400D03*
X77368400Y-119646400D03*
X77368400Y-114846400D03*
X79065456Y-118943456D03*
X75671344Y-115549344D03*
X74968400Y-117246400D03*
D28*
X77368400Y-117246400D03*
D27*
X75671344Y-118943456D03*
%TD*%
D30*
%TO.N,/Supervisor MCU/PROG_TX*%
%TO.C,A2*%
X70231000Y-63432923D03*
D31*
%TO.N,/Supervisor MCU/PROG_RX*%
X70231000Y-60892923D03*
%TO.N,/Supervisor MCU/MCU_RESET*%
X70231000Y-58352923D03*
%TO.N,GNDD*%
X70231000Y-55812923D03*
%TO.N,/Digital Sensor Buffers/D_OUT_E1*%
X70231000Y-53272923D03*
%TO.N,/Digital Sensor Buffers/D_OUT_C1*%
X70231000Y-50732923D03*
%TO.N,/Digital Sensor Buffers/D_OUT_D1*%
X70231000Y-48192923D03*
%TO.N,/Output Logic/SUPERVISOR_PIXEL_DATA*%
X70231000Y-45652923D03*
%TO.N,/Output Logic/SUPERVISOR_STEP*%
X70231000Y-43112923D03*
%TO.N,SUP_LED2*%
X70231000Y-40572923D03*
%TO.N,/Supervisor MCU/LATCH*%
X70231000Y-38032923D03*
%TO.N,SERVO_1*%
X70231000Y-35492923D03*
%TO.N,/Output Logic/SUPERVISOR_MOTOR_PWM*%
X70231000Y-32952923D03*
%TO.N,/Supervisor MCU/MOSI*%
X70231000Y-30412923D03*
%TO.N,SUP_LED1*%
X70231000Y-27872923D03*
%TO.N,/Supervisor MCU/SCK*%
X54991000Y-27872923D03*
%TO.N,3V3_DC_MCU*%
X54991000Y-30412923D03*
%TO.N,unconnected-(A2-Pad18)*%
X54991000Y-32952923D03*
%TO.N,/Supervisor MCU/STDNT_DC_M_DIR_2*%
X54991000Y-35492923D03*
%TO.N,/Supervisor MCU/STDNT_DC_M_DIR_1*%
X54991000Y-38032923D03*
%TO.N,/Supervisor MCU/STDNT_SRVO_RX_1*%
X54991000Y-40572923D03*
%TO.N,/Analog Sensor Buffers/A_OUT_C1*%
X54991000Y-43112923D03*
%TO.N,/Digital Sensor Buffers/D_OUT_A1*%
X54991000Y-45652923D03*
%TO.N,/Digital Sensor Buffers/D_OUT_F1*%
X54991000Y-48192923D03*
%TO.N,/Analog Sensor Buffers/A_OUT_B1*%
X54991000Y-50732923D03*
%TO.N,/Analog Sensor Buffers/A_OUT_A1*%
X54991000Y-53272923D03*
%TO.N,unconnected-(A2-Pad27)*%
X54991000Y-55812923D03*
%TO.N,/Supervisor MCU/MCU_RESET*%
X54991000Y-58352923D03*
%TO.N,GNDD*%
X54991000Y-60892923D03*
%TO.N,unconnected-(A2-Pad30)*%
X54991000Y-63432923D03*
%TD*%
D10*
%TO.N,3V3_DC_MCU*%
%TO.C,J36*%
X69850000Y-70866000D03*
D11*
X67310000Y-70866000D03*
X64770000Y-70866000D03*
X62230000Y-70866000D03*
X59690000Y-70866000D03*
%TD*%
D23*
%TO.N,Net-(J28-Pad1)*%
%TO.C,J28*%
X51714400Y-75590400D03*
%TD*%
D21*
%TO.N,12V_DC_BUS*%
%TO.C,U1*%
X185318400Y-81838800D03*
D22*
%TO.N,GND_PB*%
X187858400Y-81838800D03*
%TO.N,5V_DC_LED*%
X190398400Y-81838800D03*
%TD*%
D32*
%TO.N,GNDPWR*%
%TO.C,J3*%
X210820000Y-113080800D03*
D33*
%TO.N,/Power Input & Distribution/12V_DC*%
X203620000Y-113080800D03*
D34*
%TO.N,unconnected-(J3-PadS1)*%
X200470000Y-119080800D03*
%TO.N,unconnected-(J3-PadS2)*%
X213970000Y-119080800D03*
%TD*%
D25*
%TO.N,GNDD*%
%TO.C,J1*%
X81330800Y-48056800D03*
D26*
%TO.N,3V3_DC_MCU*%
X81330800Y-50596800D03*
%TO.N,/Supervisor MCU/PROG_TX*%
X81330800Y-53136800D03*
%TO.N,/Supervisor MCU/PROG_RX*%
X81330800Y-55676800D03*
%TO.N,/Supervisor MCU/MCU_RESET*%
X81330800Y-58216800D03*
%TD*%
D30*
%TO.N,/Student MCU/PROG_TX*%
%TO.C,A1*%
X54856000Y-78868500D03*
D31*
%TO.N,/Student MCU/PROG_RX*%
X54856000Y-81408500D03*
%TO.N,/Student MCU/MCU_RESET*%
X54856000Y-83948500D03*
%TO.N,GNDD*%
X54856000Y-86488500D03*
%TO.N,OE_B*%
X54856000Y-89028500D03*
%TO.N,OE_A*%
X54856000Y-91568500D03*
%TO.N,OE_IDX*%
X54856000Y-94108500D03*
%TO.N,/Output Logic/STUDENT_PIXEL_DATA*%
X54856000Y-96648500D03*
%TO.N,/Output Logic/STUDENT_STEP*%
X54856000Y-99188500D03*
%TO.N,/Student MCU/DC_MOTOR_DIR2*%
X54856000Y-101728500D03*
%TO.N,/Student MCU/LATCH*%
X54856000Y-104268500D03*
%TO.N,/Student MCU/SERVO_1*%
X54856000Y-106808500D03*
%TO.N,/Output Logic/STUDENT_MOTOR_PWM*%
X54856000Y-109348500D03*
%TO.N,/Student MCU/MOSI*%
X54856000Y-111888500D03*
%TO.N,/Student MCU/DC_MOTOR_DIR1*%
X54856000Y-114428500D03*
%TO.N,/Student MCU/SCK*%
X70096000Y-114428500D03*
%TO.N,3V3_DC_MCU*%
X70096000Y-111888500D03*
%TO.N,unconnected-(A1-Pad18)*%
X70096000Y-109348500D03*
%TO.N,STUDNT_LED3*%
X70096000Y-106808500D03*
%TO.N,STUDNT_LED2*%
X70096000Y-104268500D03*
%TO.N,STUDNT_LED1*%
X70096000Y-101728500D03*
%TO.N,/Analog Sensor Buffers/A_OUT_C2*%
X70096000Y-99188500D03*
%TO.N,LIMIT_1*%
X70096000Y-96648500D03*
%TO.N,STU_STP_FLT*%
X70096000Y-94108500D03*
%TO.N,/Analog Sensor Buffers/A_OUT_B2*%
X70096000Y-91568500D03*
%TO.N,/Analog Sensor Buffers/A_OUT_A2*%
X70096000Y-89028500D03*
%TO.N,unconnected-(A1-Pad27)*%
X70096000Y-86488500D03*
%TO.N,/Student MCU/MCU_RESET*%
X70096000Y-83948500D03*
%TO.N,GNDD*%
X70096000Y-81408500D03*
%TO.N,unconnected-(A1-Pad30)*%
X70096000Y-78868500D03*
%TD*%
D30*
%TO.N,unconnected-(A3-Pad1)*%
%TO.C,A3*%
X136956800Y-83309520D03*
D31*
%TO.N,unconnected-(A3-Pad2)*%
X139496800Y-83309520D03*
%TO.N,unconnected-(A3-Pad3)*%
X142036800Y-83309520D03*
%TO.N,unconnected-(A3-Pad4)*%
X144576800Y-83309520D03*
%TO.N,5V_DC_SERVO*%
X147116800Y-83309520D03*
%TO.N,GNDD*%
X149656800Y-83309520D03*
X152196800Y-83309520D03*
%TO.N,unconnected-(A3-Pad8)*%
X154736800Y-83309520D03*
%TO.N,M_I_SENSE_1*%
X159816800Y-83309520D03*
%TO.N,M_I_SENSE_2*%
X162356800Y-83309520D03*
%TO.N,unconnected-(A3-Pad11)*%
X164896800Y-83309520D03*
%TO.N,unconnected-(A3-Pad12)*%
X167436800Y-83309520D03*
%TO.N,unconnected-(A3-Pad13)*%
X169976800Y-83309520D03*
%TO.N,unconnected-(A3-Pad14)*%
X172516800Y-83309520D03*
%TO.N,unconnected-(A3-Pad15)*%
X172516800Y-35049520D03*
%TO.N,unconnected-(A3-Pad16)*%
X169976800Y-35049520D03*
%TO.N,SUP_LED2*%
X167436800Y-35049520D03*
%TO.N,/DC Motor Controller/IN_1*%
X164896800Y-35049520D03*
%TO.N,/DC Motor Controller/PENDULUM_PIN_1*%
X162356800Y-35049520D03*
%TO.N,PEND_ENABLE*%
X159816800Y-35049520D03*
%TO.N,STUDNT_LED1*%
X157276800Y-35049520D03*
%TO.N,STUDNT_LED2*%
X154736800Y-35049520D03*
%TO.N,STUDNT_LED3*%
X150676800Y-35049520D03*
%TO.N,SERVO_1*%
X148136800Y-35049520D03*
%TO.N,SUP_LED1*%
X145596800Y-35049520D03*
%TO.N,/DC Motor Controller/IN_2*%
X143056800Y-35049520D03*
%TO.N,/DC Motor Controller/ENABLE*%
X140516800Y-35049520D03*
X137976800Y-35049520D03*
%TO.N,GNDD*%
X135436800Y-35049520D03*
%TO.N,unconnected-(A3-Pad30)*%
X132896800Y-35049520D03*
%TO.N,unconnected-(A3-Pad31)*%
X130356800Y-35049520D03*
%TO.N,unconnected-(A3-Pad32)*%
X127816800Y-35049520D03*
%TD*%
D35*
%TO.N,/Power Input & Distribution/01*%
%TO.C,Q1*%
X202438000Y-103936800D03*
D36*
%TO.N,/Power Input & Distribution/12V*%
X202438000Y-101396800D03*
%TO.N,12V_DC_BUS*%
X202438000Y-98856800D03*
%TD*%
D19*
%TO.N,5V_DC_RPI*%
%TO.C,J25*%
X135788400Y-27025600D03*
D20*
%TO.N,/Digital Sensor Buffers/D_IN_C*%
X138328400Y-27025600D03*
%TO.N,/Digital Sensor Buffers/D_IN_D*%
X140868400Y-27025600D03*
%TO.N,/Digital Sensor Buffers/D_IN_E*%
X143408400Y-27025600D03*
%TO.N,GNDD*%
X145948400Y-27025600D03*
%TD*%
D10*
%TO.N,Net-(J27-Pad1)*%
%TO.C,J27*%
X112572800Y-93355400D03*
D11*
%TO.N,A_BUFFER_OUT_A*%
X112572800Y-90815400D03*
%TO.N,A_BUFFER_OUT_B*%
X112572800Y-88275400D03*
%TD*%
D10*
%TO.N,/Student MCU/MOSI*%
%TO.C,J11*%
X90779600Y-108610400D03*
D11*
%TO.N,/Student MCU/SCK*%
X93319600Y-108610400D03*
%TO.N,/Student MCU/LATCH*%
X95859600Y-108610400D03*
%TD*%
D10*
%TO.N,Net-(J8-Pad1)*%
%TO.C,J8*%
X81889600Y-110032800D03*
D11*
%TO.N,Net-(J8-Pad2)*%
X81889600Y-107492800D03*
%TO.N,Net-(J8-Pad3)*%
X81889600Y-104952800D03*
%TO.N,Net-(J8-Pad4)*%
X81889600Y-102412800D03*
%TO.N,Net-(J8-Pad5)*%
X81889600Y-99872800D03*
%TO.N,Net-(J8-Pad6)*%
X81889600Y-97332800D03*
%TO.N,Net-(J8-Pad7)*%
X81889600Y-94792800D03*
%TO.N,/Student MCU/MODE_2*%
X81889600Y-92252800D03*
%TD*%
D27*
%TO.N,N/C*%
%TO.C,H6*%
X196362656Y-118638656D03*
X192968544Y-118638656D03*
X196362656Y-115244544D03*
D28*
X194665600Y-116941600D03*
D27*
X194665600Y-114541600D03*
X197065600Y-116941600D03*
X192265600Y-116941600D03*
X192968544Y-115244544D03*
X194665600Y-119341600D03*
%TD*%
%TO.N,N/C*%
%TO.C,H3*%
X215819056Y-28976656D03*
X216522000Y-27279600D03*
D28*
X214122000Y-27279600D03*
D27*
X215819056Y-25582544D03*
X212424944Y-25582544D03*
X214122000Y-29679600D03*
X212424944Y-28976656D03*
X214122000Y-24879600D03*
X211722000Y-27279600D03*
%TD*%
D10*
%TO.N,5V_DC_LED*%
%TO.C,J34*%
X196646800Y-67061000D03*
D11*
X196646800Y-69601000D03*
X196646800Y-72141000D03*
X196646800Y-74681000D03*
X196646800Y-77221000D03*
%TD*%
D10*
%TO.N,5V_DC_RPI*%
%TO.C,J35*%
X129748200Y-119735600D03*
D11*
X132288200Y-119735600D03*
X134828200Y-119735600D03*
X137368200Y-119735600D03*
X139908200Y-119735600D03*
%TD*%
D25*
%TO.N,GNDPWR*%
%TO.C,J4*%
X214731600Y-78079600D03*
D26*
%TO.N,12V_DC_BUS*%
X214731600Y-80619600D03*
%TD*%
D37*
%TO.N,5V_DC_RPI*%
%TO.C,J5*%
X178584000Y-113643600D03*
D38*
%TO.N,unconnected-(J5-Pad2)*%
X181084000Y-113643600D03*
%TO.N,unconnected-(J5-Pad3)*%
X183084000Y-113643600D03*
%TO.N,GNDPWR*%
X185584000Y-113643600D03*
%TO.N,5V_DC_RPI*%
X178584000Y-116263600D03*
%TO.N,unconnected-(J5-Pad6)*%
X181084000Y-116263600D03*
%TO.N,unconnected-(J5-Pad7)*%
X183084000Y-116263600D03*
%TO.N,GNDPWR*%
X185584000Y-116263600D03*
D14*
X188654000Y-118973600D03*
X188654000Y-113293600D03*
X175514000Y-118973600D03*
X175514000Y-113293600D03*
%TD*%
D17*
%TO.N,GNDPWR*%
%TO.C,J6*%
X214376000Y-72847200D03*
D18*
%TO.N,5V_DC_LED*%
X214376000Y-67847200D03*
%TD*%
D27*
%TO.N,N/C*%
%TO.C,H4*%
X99783600Y-44450000D03*
X97383600Y-42050000D03*
X99080656Y-42752944D03*
X97383600Y-46850000D03*
D28*
X97383600Y-44450000D03*
D27*
X99080656Y-46147056D03*
X95686544Y-42752944D03*
X95686544Y-46147056D03*
X94983600Y-44450000D03*
%TD*%
D10*
%TO.N,Net-(J12-Pad1)*%
%TO.C,J12*%
X85293200Y-25450800D03*
D11*
%TO.N,Net-(J12-Pad2)*%
X85293200Y-27990800D03*
%TO.N,Net-(J12-Pad3)*%
X85293200Y-30530800D03*
%TO.N,Net-(J12-Pad4)*%
X85293200Y-33070800D03*
%TO.N,Net-(J12-Pad5)*%
X85293200Y-35610800D03*
%TO.N,Net-(J12-Pad6)*%
X85293200Y-38150800D03*
%TO.N,SERVO_2*%
X85293200Y-40690800D03*
%TO.N,MODE_2*%
X85293200Y-43230800D03*
%TD*%
D39*
%TO.N,STEPP_EN*%
%TO.C,A4*%
X193446400Y-26416000D03*
D40*
%TO.N,MODE_0*%
X193446400Y-28956000D03*
%TO.N,MODE_1*%
X193446400Y-31496000D03*
%TO.N,MODE_2*%
X193446400Y-34036000D03*
%TO.N,/Output Logic/STEP_RST_OUT*%
X193446400Y-36576000D03*
%TO.N,/Output Logic/STEP_SLP_OUT*%
X193446400Y-39116000D03*
%TO.N,/DC Motor Controller/PENDULUM_PIN_1*%
X193446400Y-41656000D03*
%TO.N,/Output Logic/DIRECTION_OUT*%
X193446400Y-44196000D03*
%TO.N,GNDPWR*%
X206146400Y-44196000D03*
%TO.N,STPPR_FAULT*%
X206146400Y-41656000D03*
%TO.N,Net-(J19-Pad3)*%
X206146400Y-39116000D03*
%TO.N,Net-(J19-Pad4)*%
X206146400Y-36576000D03*
%TO.N,Net-(A4-Pad13)*%
X206146400Y-34036000D03*
%TO.N,Net-(A4-Pad14)*%
X206146400Y-31496000D03*
%TO.N,GNDPWR*%
X206146400Y-28956000D03*
%TO.N,12V_DC_BUS*%
X206146400Y-26416000D03*
%TD*%
D41*
%TO.N,Net-(J19-Pad4)*%
X213004400Y-39878000D03*
%TO.N,PEND_ENABLE*%
X152044400Y-46228000D03*
%TO.N,/Student MCU/PROG_TX*%
X68537670Y-94299700D03*
X78130400Y-92172199D03*
D42*
%TO.N,3V3_DC_MCU*%
X67056000Y-62992000D03*
X56054438Y-97268907D03*
X87884000Y-78943200D03*
X72898000Y-29565600D03*
X67157600Y-60198000D03*
D43*
X67564000Y-40944800D03*
D42*
X63195200Y-106699400D03*
D43*
X102108000Y-114096800D03*
X108407200Y-115316000D03*
D42*
X96824800Y-90220800D03*
X55903333Y-44579067D03*
X75285600Y-41503600D03*
X57099200Y-42367200D03*
D41*
%TO.N,/Student MCU/PROG_RX*%
X72927004Y-90273158D03*
%TO.N,/Student MCU/MCU_RESET*%
X71831200Y-107950000D03*
X86156800Y-115112800D03*
X88290400Y-115163600D03*
X79095600Y-110490000D03*
%TO.N,STUDNT_LED3*%
X132994400Y-51816000D03*
X66676365Y-109139547D03*
X82702400Y-101092000D03*
X121591025Y-59948437D03*
X112166400Y-84582000D03*
X78892400Y-101092000D03*
X92481400Y-96393000D03*
X138328400Y-47498000D03*
X105192993Y-88646651D03*
X60706000Y-89103200D03*
X141884400Y-39243000D03*
%TO.N,STUDNT_LED2*%
X118643400Y-59690000D03*
X136961741Y-38684432D03*
X62653751Y-88572730D03*
X71749846Y-95605600D03*
X120902775Y-41905563D03*
%TO.N,OE_B*%
X79959200Y-74777600D03*
X56184800Y-99618800D03*
X78536800Y-74218800D03*
X86918800Y-73507600D03*
%TO.N,STUDNT_LED1*%
X136550400Y-39370000D03*
X121691400Y-42037000D03*
X56095358Y-96114454D03*
X120802400Y-59817000D03*
%TO.N,OE_A*%
X80363041Y-76304159D03*
X78333600Y-76809600D03*
X57059524Y-100960600D03*
X60870111Y-75477089D03*
X97891600Y-83667600D03*
%TO.N,/Analog Sensor Buffers/A_OUT_C2*%
X76517859Y-98132543D03*
X80811110Y-98406967D03*
X82956400Y-112623600D03*
X110286800Y-107137200D03*
X56575631Y-95475282D03*
%TO.N,OE_IDX*%
X87121841Y-75285759D03*
X73843211Y-82823989D03*
X64373452Y-86380581D03*
X80721200Y-78994000D03*
X83616800Y-75946000D03*
%TO.N,LIMIT_1*%
X85478451Y-82923813D03*
X92608400Y-84023200D03*
X58841300Y-90626409D03*
%TO.N,/Output Logic/STUDENT_PIXEL_DATA*%
X74544814Y-83688814D03*
X72586080Y-83688814D03*
X142046590Y-67726190D03*
X80846134Y-81252534D03*
X146262989Y-63485100D03*
X88555927Y-79638456D03*
X56036644Y-92124221D03*
X84837934Y-80009808D03*
%TO.N,STU_STP_FLT*%
X77216000Y-74523600D03*
X87172800Y-74269600D03*
X80568800Y-75488800D03*
X56157557Y-90897752D03*
%TO.N,/Output Logic/STUDENT_STEP*%
X85381951Y-81878700D03*
X79273400Y-84074000D03*
X80975200Y-83058000D03*
X68884800Y-85953600D03*
X57797258Y-92067762D03*
X89132805Y-80192005D03*
%TO.N,/Analog Sensor Buffers/A_OUT_B2*%
X84988400Y-89916000D03*
X56872629Y-94732991D03*
X97891600Y-104343200D03*
%TO.N,/Student MCU/DC_MOTOR_DIR2*%
X59978800Y-68868800D03*
X58515489Y-73095089D03*
%TO.N,/Analog Sensor Buffers/A_OUT_A2*%
X62484000Y-89509600D03*
X75234800Y-86817200D03*
X98770100Y-95836367D03*
%TO.N,/Student MCU/LATCH*%
X89255600Y-95859600D03*
%TO.N,/Student MCU/SERVO_1*%
X51206400Y-104343200D03*
%TO.N,/Output Logic/STUDENT_MOTOR_PWM*%
X139741905Y-55138980D03*
%TO.N,/Student MCU/MOSI*%
X89204800Y-97129600D03*
%TO.N,/Student MCU/DC_MOTOR_DIR1*%
X61719567Y-68806500D03*
%TO.N,/Student MCU/SCK*%
X62155257Y-106242610D03*
X62164987Y-100625062D03*
X89103200Y-98196400D03*
%TO.N,/Supervisor MCU/PROG_TX*%
X56235600Y-46228000D03*
%TO.N,/Supervisor MCU/PROG_RX*%
X57173083Y-46317479D03*
%TO.N,/Supervisor MCU/MCU_RESET*%
X79705200Y-50393600D03*
X77283077Y-58352923D03*
X76568984Y-37437116D03*
X79197200Y-38455600D03*
%TO.N,/Supervisor MCU/STDNT_DC_M_DIR_2*%
X64359374Y-63176611D03*
X65313900Y-52745300D03*
%TO.N,/Supervisor MCU/STDNT_DC_M_DIR_1*%
X65684400Y-64211200D03*
X60835316Y-50652961D03*
X52984400Y-52273200D03*
X53315086Y-42353953D03*
%TO.N,/Digital Sensor Buffers/D_OUT_E1*%
X88560550Y-56067050D03*
X76123080Y-54331320D03*
X68681600Y-50444400D03*
X66598800Y-40589200D03*
%TO.N,/Supervisor MCU/STDNT_SRVO_RX_1*%
X51511200Y-62280800D03*
X60328267Y-37165730D03*
%TO.N,/Digital Sensor Buffers/D_OUT_C1*%
X66329898Y-39836275D03*
X94132400Y-66954400D03*
%TO.N,/Analog Sensor Buffers/A_OUT_C1*%
X61417200Y-36423600D03*
X71678800Y-42621200D03*
X107101300Y-93229069D03*
%TO.N,/Digital Sensor Buffers/D_OUT_D1*%
X90068400Y-56642000D03*
X68478400Y-45770800D03*
%TO.N,/Digital Sensor Buffers/D_OUT_A1*%
X53866489Y-49257511D03*
X66891040Y-49123821D03*
X68150266Y-58396666D03*
X89763600Y-66852800D03*
X69748400Y-64922400D03*
%TO.N,/Output Logic/SUPERVISOR_PIXEL_DATA*%
X78704101Y-45836501D03*
X141181264Y-52315936D03*
X86867647Y-46174455D03*
X145539385Y-57970011D03*
X137526373Y-48167204D03*
%TO.N,/Digital Sensor Buffers/D_OUT_F1*%
X67305022Y-48439845D03*
X56083200Y-51511200D03*
X90322400Y-58369200D03*
%TO.N,/Output Logic/SUPERVISOR_STEP*%
X127116500Y-46370611D03*
X86980500Y-45382957D03*
X67859011Y-47863389D03*
X79854154Y-44109300D03*
%TO.N,/Analog Sensor Buffers/A_OUT_B1*%
X80728763Y-44100731D03*
X68943255Y-44246830D03*
X105831590Y-93077285D03*
%TO.N,SUP_LED2*%
X69102900Y-46786800D03*
X146507200Y-39928800D03*
%TO.N,/Analog Sensor Buffers/A_OUT_A1*%
X69507370Y-65845638D03*
X101549200Y-87985600D03*
X61628879Y-50750239D03*
%TO.N,/Supervisor MCU/LATCH*%
X97355641Y-35994359D03*
X67716400Y-38557200D03*
X99364800Y-35356800D03*
%TO.N,/Output Logic/SUPERVISOR_MOTOR_PWM*%
X64719200Y-35102800D03*
X56794400Y-35864800D03*
X145455819Y-48397500D03*
X59253429Y-41412023D03*
%TO.N,/Supervisor MCU/MOSI*%
X61925200Y-39674800D03*
X87071200Y-29260800D03*
X65798500Y-31543377D03*
%TO.N,SUP_LED1*%
X142577070Y-48397500D03*
X67665600Y-37693600D03*
X135756014Y-36923910D03*
X71924678Y-32688525D03*
%TO.N,/Supervisor MCU/SCK*%
X61315121Y-38917615D03*
%TO.N,/DC Motor Controller/PENDULUM_PIN_1*%
X157505400Y-47498000D03*
X162661625Y-53690557D03*
X159537400Y-36957000D03*
%TO.N,/DC Motor Controller/IN_1*%
X145186400Y-45593000D03*
%TO.N,/Output Logic/STEP_SLP_OUT*%
X171602400Y-48641000D03*
%TO.N,/Output Logic/STUDENT_STEP_SLP*%
X133908800Y-76301600D03*
X93965489Y-100208514D03*
%TO.N,/Output Logic/SUPERVISOR_STEP_SLP*%
X130944497Y-43451052D03*
%TO.N,STEPP_EN*%
X177698400Y-24511000D03*
%TO.N,M_I_SENSE_1*%
X123088400Y-105257600D03*
%TO.N,M_I_SENSE_2*%
X123190000Y-102768400D03*
%TO.N,MODE_0*%
X81889600Y-39725600D03*
X180136800Y-35255200D03*
X172262800Y-40944800D03*
X74602516Y-39828854D03*
X65521340Y-39494193D03*
%TO.N,MODE_1*%
X179933600Y-37795200D03*
X71831200Y-37947600D03*
X65118288Y-38803719D03*
X172339532Y-42250700D03*
%TO.N,MODE_2*%
X80518000Y-24942800D03*
X83642200Y-28067000D03*
X180340000Y-40335200D03*
X172720000Y-45415200D03*
X183946800Y-39776400D03*
X165445811Y-45253011D03*
X64322048Y-38927700D03*
%TO.N,/Output Logic/STEP_RST_OUT*%
X168473359Y-47961513D03*
%TO.N,/Output Logic/DIRECTION_OUT*%
X158129900Y-42838549D03*
%TO.N,STPPR_FAULT*%
X93472000Y-49631600D03*
X168172628Y-48702300D03*
X164010359Y-47627559D03*
%TO.N,GNDPWR*%
X217169750Y-109473750D03*
X154330400Y-95504000D03*
X148691600Y-116636800D03*
X177665279Y-94521121D03*
X185451689Y-93084711D03*
X172585279Y-94521121D03*
X175125279Y-94521121D03*
X127747289Y-103341911D03*
X191465200Y-111048800D03*
X189064900Y-92646500D03*
X160223200Y-97586800D03*
X183040121Y-94241721D03*
X162788600Y-97155000D03*
X155829000Y-97002600D03*
X157886400Y-97586800D03*
X162712400Y-110337600D03*
X211277200Y-103225600D03*
X217415111Y-105063289D03*
X215823550Y-110819950D03*
X152679400Y-93853000D03*
X184759600Y-110185200D03*
X127747289Y-99735111D03*
X127747289Y-106643911D03*
X217415111Y-107450889D03*
X128473200Y-112776000D03*
X181864000Y-110185200D03*
X209518000Y-103225600D03*
X179476400Y-110185200D03*
X143357600Y-116636800D03*
X186397200Y-111036800D03*
X168013279Y-94521121D03*
X162712400Y-112776000D03*
X190334900Y-91376500D03*
X213563200Y-103225600D03*
X208975200Y-103768400D03*
X166082879Y-94521121D03*
X185953400Y-39243000D03*
X216077800Y-103505000D03*
X176784000Y-110185200D03*
X152501600Y-91490800D03*
D43*
X188569600Y-27381200D03*
D41*
X214197950Y-112445550D03*
D43*
X203758800Y-86410800D03*
D41*
X127747289Y-110149111D03*
X146659600Y-116636800D03*
X164414200Y-95529400D03*
X180205279Y-94521121D03*
X170045279Y-94521121D03*
D43*
%TO.N,5V_DC_RPI*%
X148361400Y-30099000D03*
D41*
%TO.N,Net-(C3-Pad1)*%
X67106800Y-116179600D03*
X67513200Y-118922800D03*
%TO.N,Net-(C11-Pad2)*%
X56312340Y-100676135D03*
X56018629Y-89648751D03*
X72085200Y-101041200D03*
%TO.N,/Supervisor MCU/HSE_IN*%
X65532000Y-54051200D03*
X62890400Y-52222400D03*
D43*
%TO.N,USB_BUS*%
X66090800Y-34899600D03*
X57658000Y-108254800D03*
D41*
%TO.N,/Student MCU/USB_P*%
X67614800Y-96469200D03*
X63855600Y-110236000D03*
X63794692Y-113055281D03*
%TO.N,/Student MCU/USB_N*%
X63246000Y-109372400D03*
X66598800Y-96621600D03*
%TO.N,/Supervisor MCU/USB_P*%
X60581624Y-31376042D03*
X60684119Y-34369719D03*
%TO.N,Net-(J2-Pad2)*%
X133987810Y-33042590D03*
%TO.N,Net-(J8-Pad1)*%
X79298800Y-103682800D03*
X57840739Y-94655743D03*
%TO.N,Net-(J8-Pad2)*%
X61246875Y-99711803D03*
X76023771Y-101004651D03*
X80490506Y-103557894D03*
%TO.N,Net-(J8-Pad3)*%
X67667142Y-103035587D03*
%TO.N,Net-(J8-Pad4)*%
X76200000Y-91490800D03*
%TO.N,Net-(J8-Pad5)*%
X66649600Y-90982800D03*
X72823866Y-94667866D03*
%TO.N,Net-(J8-Pad6)*%
X71983600Y-86258400D03*
X64707085Y-88880893D03*
X66294000Y-88798400D03*
%TO.N,Net-(J8-Pad7)*%
X63485701Y-88510523D03*
X72485777Y-93040200D03*
%TO.N,/Student MCU/MODE_2*%
X60553600Y-100634800D03*
%TO.N,/Student MCU/SPARE_3*%
X59844415Y-101345366D03*
%TO.N,/Output Logic/STUDENT_MOTOR_EN*%
X130098800Y-61772800D03*
X107317271Y-85639195D03*
%TO.N,/Output Logic/STUDENT_DIRECTION*%
X93789148Y-99224748D03*
X130251200Y-66598800D03*
%TO.N,/Output Logic/STUDENT_STEP_RST*%
X94132400Y-100990400D03*
X135193700Y-70104000D03*
%TO.N,Net-(J12-Pad1)*%
X68646231Y-44989111D03*
X78605153Y-44094401D03*
%TO.N,Net-(J12-Pad2)*%
X62890400Y-38963600D03*
%TO.N,Net-(J12-Pad3)*%
X57759600Y-41808400D03*
%TO.N,Net-(J12-Pad4)*%
X68224400Y-42418000D03*
X81838800Y-38912800D03*
X57320862Y-47103205D03*
%TO.N,Net-(J12-Pad5)*%
X58414822Y-48075128D03*
%TO.N,Net-(J12-Pad6)*%
X58928000Y-51003200D03*
%TO.N,SERVO_2*%
X110134400Y-37211000D03*
X60050191Y-50502019D03*
%TO.N,/Output Logic/SUPERVISOR_MOTOR_EN*%
X99669600Y-31089600D03*
X142494000Y-40436800D03*
%TO.N,PEND_ENABLE*%
X140411200Y-61518800D03*
X127489380Y-58467125D03*
X139085980Y-60060500D03*
X140309600Y-57150000D03*
%TO.N,/Output Logic/MCU_STEP_SELECT*%
X134010400Y-67665600D03*
X94076540Y-34866874D03*
X134670800Y-72745600D03*
X131269539Y-56760839D03*
%TO.N,/Output Logic/MCU_PIXEL_SELECT*%
X133248400Y-55880000D03*
X139852400Y-59436000D03*
X145338800Y-61468000D03*
%TO.N,/Output Logic/SUPERVISOR_DIRECTION*%
X126364640Y-43796811D03*
%TO.N,/Output Logic/SUPERVISOR_STEP_RST*%
X132225450Y-42722800D03*
%TO.N,/Digital Sensor Buffers/D_IN_A*%
X142138400Y-29337000D03*
X114655600Y-37548410D03*
X119744280Y-35162280D03*
%TO.N,/Digital Sensor Buffers/D_IN_B*%
X119276117Y-37548410D03*
X134356325Y-32333083D03*
X116738400Y-41656000D03*
%TO.N,/Digital Sensor Buffers/D_IN_E*%
X111455200Y-37548410D03*
X113030000Y-33223200D03*
%TO.N,/Digital Sensor Buffers/D_IN_D*%
X111810800Y-38912800D03*
X115316000Y-33934400D03*
%TO.N,/Digital Sensor Buffers/D_IN_C*%
X119227600Y-42062400D03*
X121005600Y-34239200D03*
%TO.N,Net-(J28-Pad1)*%
X54965600Y-76301600D03*
%TO.N,A_BUFFER_IN*%
X114046000Y-105257600D03*
%TO.N,Net-(C14-Pad1)*%
X60045600Y-83261200D03*
X59740800Y-79959200D03*
%TO.N,/Student MCU/SERVO_2*%
X50966618Y-100347004D03*
X56134000Y-102006400D03*
%TO.N,/Supervisor MCU/STDNT_SRVO_RX_2*%
X57919476Y-63039767D03*
X65938400Y-52120800D03*
%TO.N,LIMIT_2*%
X96520000Y-85852000D03*
X66136607Y-102388229D03*
%TO.N,/Digital Sensor Buffers/D_OUT_B1*%
X58559103Y-41808400D03*
X92760800Y-63449200D03*
%TO.N,Net-(U8-Pad2)*%
X149006900Y-51460400D03*
X130251200Y-56896000D03*
%TO.N,Net-(U12-Pad13)*%
X135585200Y-56896000D03*
X145314712Y-55890500D03*
%TO.N,Net-(U14-Pad3)*%
X147929600Y-43840400D03*
X152760020Y-52034100D03*
X143306800Y-44551600D03*
X151282400Y-56438800D03*
%TO.N,Net-(U11-Pad3)*%
X127304800Y-44043600D03*
X154477084Y-43197147D03*
%TO.N,Net-(U10-Pad3)*%
X154340189Y-51450611D03*
X139141200Y-67106800D03*
%TO.N,Net-(U10-Pad4)*%
X161038385Y-52677215D03*
X138836400Y-68224400D03*
%TO.N,Net-(U10-Pad10)*%
X162617692Y-52591011D03*
X139496800Y-71424800D03*
%TO.N,Net-(U10-Pad11)*%
X138938000Y-69951600D03*
X161834440Y-52751386D03*
%TO.N,Net-(U11-Pad4)*%
X154482800Y-47091600D03*
X127304800Y-45466000D03*
%TO.N,Net-(U11-Pad10)*%
X135839200Y-46685200D03*
X159410400Y-46634400D03*
%TO.N,Net-(U11-Pad11)*%
X158902400Y-43499700D03*
X135991600Y-45161200D03*
%TO.N,Net-(U12-Pad3)*%
X143182401Y-57266500D03*
X150291800Y-56261000D03*
%TO.N,Net-(U12-Pad4)*%
X143713200Y-58724800D03*
X151348120Y-58282520D03*
%TO.N,/Analog Sensor Buffers/DB1*%
X119786400Y-106781600D03*
X105170900Y-90322400D03*
X105170900Y-99314000D03*
%TO.N,/Analog Sensor Buffers/DB2*%
X105170900Y-102362000D03*
X101955600Y-102412800D03*
X102006400Y-92659200D03*
X119583200Y-100888800D03*
%TO.N,/Analog Sensor Buffers/A_IN_C*%
X114858800Y-103174800D03*
X111302800Y-116128800D03*
%TO.N,Net-(U20-Pad2)*%
X91795600Y-80518000D03*
X93451826Y-55056152D03*
X87680800Y-65684400D03*
%TO.N,Net-(U20-Pad4)*%
X90728800Y-66751200D03*
X95453200Y-57912000D03*
X95199200Y-77622400D03*
X92354400Y-62585600D03*
%TO.N,Net-(U20-Pad6)*%
X92151200Y-68427600D03*
X97637600Y-77578811D03*
%TO.N,Net-(U20-Pad8)*%
X98958400Y-72694800D03*
X98602800Y-52933600D03*
X95199200Y-61722000D03*
%TO.N,Net-(U20-Pad10)*%
X93573600Y-62128400D03*
X96215200Y-52832000D03*
X95961200Y-72644000D03*
%TO.N,Net-(U20-Pad12)*%
X89073399Y-58220385D03*
X93776800Y-52832000D03*
X93934484Y-74985179D03*
%TO.N,Net-(C2A1-Pad2)*%
X66690191Y-91893805D03*
X68935600Y-96062800D03*
%TO.N,Net-(C15-Pad1)*%
X60784902Y-86268619D03*
X62484000Y-86120900D03*
%TO.N,GNDD*%
X115366800Y-104394000D03*
X65328800Y-109372400D03*
X56540400Y-31089600D03*
X58944159Y-37433383D03*
X64719200Y-60045600D03*
X121615200Y-109880400D03*
X78384400Y-71983600D03*
X121869200Y-113131600D03*
X139852400Y-43434000D03*
X98145600Y-91744800D03*
X58420000Y-78333600D03*
D43*
X112877600Y-119329200D03*
D41*
X134315200Y-51816000D03*
X67374876Y-95659061D03*
X81889600Y-61671200D03*
X87172800Y-52730400D03*
X110439200Y-101346000D03*
X64973200Y-113538000D03*
X157327600Y-48666400D03*
X125323600Y-54813200D03*
D43*
X101142800Y-116433600D03*
D41*
X121158000Y-112115600D03*
X92913200Y-119227600D03*
X61620400Y-83159600D03*
X98577400Y-24511000D03*
X76047600Y-89458800D03*
X52273200Y-49936400D03*
X57099200Y-44348400D03*
X56642000Y-72339200D03*
X134061200Y-63601600D03*
X149098000Y-47752000D03*
X76203400Y-46129800D03*
X131216400Y-75285600D03*
X73304400Y-99060000D03*
X161290000Y-77012800D03*
X59944000Y-29921200D03*
X143916400Y-53136800D03*
X77742800Y-33306000D03*
X132802549Y-26809078D03*
X52273200Y-46380400D03*
X67868800Y-109423200D03*
X98196400Y-99517200D03*
X65862118Y-49861255D03*
X65227200Y-78790800D03*
X63173000Y-55699000D03*
X92456000Y-103936800D03*
X101498400Y-79349600D03*
X89306400Y-77114400D03*
X120853200Y-110794800D03*
X136855200Y-56591200D03*
X140665200Y-62839600D03*
X107340400Y-90932000D03*
X156413200Y-54152800D03*
X67919600Y-101244400D03*
X66192400Y-83464400D03*
X87274400Y-118872000D03*
D43*
X104140000Y-108508800D03*
X115163600Y-114096800D03*
D41*
X65999543Y-41590724D03*
X97028000Y-65684400D03*
X68072000Y-83769200D03*
X59698564Y-107027036D03*
X99466400Y-26289000D03*
X85140800Y-64668400D03*
X94030800Y-38354000D03*
X122580400Y-109016800D03*
X100330000Y-57099200D03*
X56281761Y-98567908D03*
X155570586Y-60218986D03*
X158129900Y-39290181D03*
X129540000Y-51968400D03*
D43*
%TO.N,GND_PB*%
X183235600Y-62585600D03*
X180238400Y-63601600D03*
D41*
%TO.N,/Output Logic/PIXEL_DATA_OUT*%
X156768800Y-64109600D03*
X124714000Y-59283600D03*
%TD*%
D44*
%TO.N,PEND_ENABLE*%
X139085980Y-58373620D02*
X140309600Y-57150000D01*
X139085980Y-60060500D02*
X139085980Y-58373620D01*
D45*
%TO.N,Net-(J19-Pad4)*%
X213004400Y-40803200D02*
X213004400Y-39878000D01*
X215392000Y-43190800D02*
X213004400Y-40803200D01*
D44*
%TO.N,/Student MCU/PROG_RX*%
X75414020Y-84511622D02*
X74390778Y-84511622D01*
X76997899Y-86095501D02*
X83171097Y-86095501D01*
X76997899Y-86095501D02*
X75414020Y-84511622D01*
X74838899Y-86095501D02*
X76997899Y-86095501D01*
X72703146Y-82823989D02*
X74390778Y-84511622D01*
%TO.N,/Output Logic/STUDENT_STEP*%
X79959200Y-84074000D02*
X79273400Y-84074000D01*
X80975200Y-83058000D02*
X79959200Y-84074000D01*
%TO.N,/Student MCU/PROG_RX*%
X83171097Y-86095501D02*
X83175499Y-86091099D01*
X74625200Y-86309200D02*
X74838899Y-86095501D01*
%TO.N,PEND_ENABLE*%
X159816800Y-35049520D02*
X152044400Y-42821920D01*
X152044400Y-42821920D02*
X152044400Y-46228000D01*
%TO.N,/Output Logic/SUPERVISOR_PIXEL_DATA*%
X141181264Y-56148542D02*
X143002733Y-57970011D01*
X141181264Y-52315936D02*
X141181264Y-56148542D01*
X143002733Y-57970011D02*
X145539385Y-57970011D01*
%TO.N,Net-(U8-Pad2)*%
X148917653Y-51371153D02*
X149006900Y-51460400D01*
X135776047Y-51371153D02*
X148917653Y-51371153D01*
X130251200Y-56896000D02*
X135776047Y-51371153D01*
%TO.N,/DC Motor Controller/IN_1*%
X150392696Y-45593000D02*
X145186400Y-45593000D01*
X151927899Y-47128203D02*
X150392696Y-45593000D01*
X151927899Y-47375678D02*
X151927899Y-47128203D01*
X152293722Y-47741501D02*
X151927899Y-47375678D01*
X153176901Y-47375678D02*
X152811078Y-47741501D01*
X153001911Y-46683332D02*
X153176901Y-46858322D01*
X159327994Y-36174030D02*
X153001911Y-42500113D01*
X163673170Y-36174030D02*
X159327994Y-36174030D01*
X153001911Y-42500113D02*
X153001911Y-46683332D01*
X153176901Y-46858322D02*
X153176901Y-47375678D01*
X164896800Y-34950400D02*
X163673170Y-36174030D01*
X152811078Y-47741501D02*
X152293722Y-47741501D01*
%TO.N,/Output Logic/SUPERVISOR_MOTOR_PWM*%
X140476901Y-43798680D02*
X145075721Y-48397500D01*
X140476901Y-40628093D02*
X140476901Y-43798680D01*
X136148217Y-36299409D02*
X140476901Y-40628093D01*
X111254584Y-36299409D02*
X136148217Y-36299409D01*
X111015962Y-36060787D02*
X111254584Y-36299409D01*
X108927530Y-36060787D02*
X111015962Y-36060787D01*
X108927528Y-36060789D02*
X108927530Y-36060787D01*
X98940952Y-36060787D02*
X108927528Y-36060789D01*
X94725654Y-31845489D02*
X98940952Y-36060787D01*
X84638966Y-32064024D02*
X84857501Y-31845489D01*
X71119899Y-32064024D02*
X84638966Y-32064024D01*
X70231000Y-32952923D02*
X71119899Y-32064024D01*
X145075721Y-48397500D02*
X145455819Y-48397500D01*
X84857501Y-31845489D02*
X94725654Y-31845489D01*
%TO.N,/DC Motor Controller/PENDULUM_PIN_1*%
X159180728Y-36957000D02*
X159537400Y-36957000D01*
X157505400Y-38632328D02*
X159180728Y-36957000D01*
X157505400Y-47498000D02*
X157505400Y-38632328D01*
%TO.N,/Student MCU/PROG_TX*%
X68537670Y-94076530D02*
X69904200Y-92710000D01*
X68537670Y-94299700D02*
X68537670Y-94076530D01*
X77474678Y-73899099D02*
X77891301Y-74315722D01*
X72419801Y-92172199D02*
X78130400Y-92172199D01*
X77891301Y-74315722D02*
X77891301Y-75382522D01*
X81584800Y-81788000D02*
X83362800Y-83566000D01*
X80979878Y-78369499D02*
X81584800Y-78974421D01*
X77891301Y-75382522D02*
X80878278Y-78369499D01*
X81584800Y-78974421D02*
X81584800Y-81788000D01*
X59825401Y-73899099D02*
X77474678Y-73899099D01*
X69904200Y-92710000D02*
X71882000Y-92710000D01*
X71882000Y-92710000D02*
X72419801Y-92172199D01*
X80878278Y-78369499D02*
X80979878Y-78369499D01*
X54856000Y-78868500D02*
X59825401Y-73899099D01*
D46*
%TO.N,3V3_DC_MCU*%
X57912000Y-102870000D02*
X57759600Y-103022400D01*
X72595812Y-29263412D02*
X72898000Y-29565600D01*
X103276400Y-115316000D02*
X102057200Y-114096800D01*
X55903333Y-44579067D02*
X57099200Y-43383200D01*
X57759600Y-103022400D02*
X61671200Y-106934000D01*
X56140511Y-29263412D02*
X72595812Y-29263412D01*
X57912000Y-98145600D02*
X57912000Y-102870000D01*
X61671200Y-106934000D02*
X62382400Y-106934000D01*
X102057200Y-114096800D02*
X102108000Y-114096800D01*
X108407200Y-115316000D02*
X103276400Y-115316000D01*
X56054438Y-97268907D02*
X56169131Y-97383600D01*
X62617000Y-106699400D02*
X63195200Y-106699400D01*
X62382400Y-106934000D02*
X62617000Y-106699400D01*
X54991000Y-30412923D02*
X56140511Y-29263412D01*
X57150000Y-97383600D02*
X57912000Y-98145600D01*
X57099200Y-43383200D02*
X57099200Y-42367200D01*
X56169131Y-97383600D02*
X57150000Y-97383600D01*
D44*
%TO.N,/Student MCU/PROG_RX*%
X64137595Y-82823989D02*
X72703146Y-82823989D01*
X72927004Y-88007396D02*
X72927004Y-90273158D01*
X57341367Y-83893867D02*
X63067717Y-83893867D01*
X74625200Y-86309200D02*
X72927004Y-88007396D01*
X54856000Y-81408500D02*
X57341367Y-83893867D01*
X63067717Y-83893867D02*
X64137595Y-82823989D01*
%TO.N,/Student MCU/MCU_RESET*%
X76860400Y-110490000D02*
X76102289Y-109731889D01*
X71932800Y-107950000D02*
X71831200Y-107950000D01*
X54856000Y-83948500D02*
X55403279Y-84495779D01*
X67813322Y-84393701D02*
X69650799Y-84393701D01*
X55403279Y-84495779D02*
X63101509Y-84495779D01*
X63101509Y-84495779D02*
X63347822Y-84249466D01*
X88290400Y-115163600D02*
X86207600Y-115163600D01*
X67719890Y-84300269D02*
X67813322Y-84393701D01*
X65277781Y-84300269D02*
X67719890Y-84300269D01*
X73714689Y-109731889D02*
X71932800Y-107950000D01*
X63347822Y-84249466D02*
X65226980Y-84249468D01*
X79095600Y-110490000D02*
X76860400Y-110490000D01*
X76102289Y-109731889D02*
X73714689Y-109731889D01*
X86207600Y-115163600D02*
X86156800Y-115112800D01*
X65226980Y-84249468D02*
X65277781Y-84300269D01*
%TO.N,STUDNT_LED3*%
X103276400Y-89408000D02*
X104431644Y-89408000D01*
X128707462Y-52832000D02*
X121591025Y-59948437D01*
X70096000Y-106808500D02*
X69007412Y-106808500D01*
X146483320Y-39243000D02*
X141884400Y-39243000D01*
X150676800Y-35049520D02*
X146483320Y-39243000D01*
X131978400Y-52832000D02*
X128707462Y-52832000D01*
X92481400Y-96393000D02*
X99466400Y-89408000D01*
X78892400Y-101092000D02*
X82702400Y-101092000D01*
X104431644Y-89408000D02*
X105192993Y-88646651D01*
X99466400Y-89408000D02*
X103276400Y-89408000D01*
X69007412Y-106808500D02*
X66676365Y-109139547D01*
X132994400Y-51816000D02*
X131978400Y-52832000D01*
%TO.N,STUDNT_LED2*%
X136911173Y-38735000D02*
X136961741Y-38684432D01*
X120902775Y-41905563D02*
X124073338Y-38735000D01*
X124073338Y-38735000D02*
X136911173Y-38735000D01*
%TO.N,OE_B*%
X53281979Y-76285399D02*
X55847788Y-73719590D01*
X54856000Y-89028500D02*
X53281979Y-87454479D01*
X55847788Y-73719590D02*
X58774167Y-73719590D01*
X79959200Y-74777600D02*
X85648800Y-74777600D01*
X85648800Y-74777600D02*
X86918800Y-73507600D01*
X77716789Y-73398789D02*
X78536800Y-74218800D01*
X59094968Y-73398789D02*
X77716789Y-73398789D01*
X58774167Y-73719590D02*
X59094968Y-73398789D01*
X53281979Y-87454479D02*
X53281979Y-76285399D01*
%TO.N,STUDNT_LED1*%
X121818400Y-42037000D02*
X124612400Y-39243000D01*
X121691400Y-42037000D02*
X121818400Y-42037000D01*
X124612400Y-39243000D02*
X136423400Y-39243000D01*
X136423400Y-39243000D02*
X136550400Y-39370000D01*
%TO.N,OE_A*%
X54856000Y-91568500D02*
X53731489Y-92693011D01*
X80629383Y-76570501D02*
X80363041Y-76304159D01*
X56333827Y-97943408D02*
X56371534Y-97905701D01*
X53731489Y-92693011D02*
X53731489Y-97114289D01*
X90206816Y-79493133D02*
X87284184Y-76570501D01*
X97891600Y-83667600D02*
X95496310Y-81272310D01*
X90206816Y-79812395D02*
X90206816Y-79493133D01*
X63066222Y-77673200D02*
X77470000Y-77673200D01*
X55737342Y-97905701D02*
X55775049Y-97943408D01*
X53731489Y-97114289D02*
X54522901Y-97905701D01*
X87284184Y-76570501D02*
X80629383Y-76570501D01*
X55775049Y-97943408D02*
X56333827Y-97943408D01*
X57059524Y-98105924D02*
X57059524Y-100960600D01*
X95496310Y-81272310D02*
X91666731Y-81272310D01*
X91666731Y-81272310D02*
X90206816Y-79812395D01*
X54522901Y-97905701D02*
X55737342Y-97905701D01*
X60870111Y-75477089D02*
X63066222Y-77673200D01*
X56371534Y-97905701D02*
X56859301Y-97905701D01*
X56859301Y-97905701D02*
X57059524Y-98105924D01*
X77470000Y-77673200D02*
X78333600Y-76809600D01*
%TO.N,/Analog Sensor Buffers/A_OUT_C2*%
X104800400Y-112623600D02*
X82956400Y-112623600D01*
X76517859Y-98132543D02*
X76835716Y-98450400D01*
X80767677Y-98450400D02*
X80811110Y-98406967D01*
X110286800Y-107137200D02*
X104800400Y-112623600D01*
X76835716Y-98450400D02*
X80767677Y-98450400D01*
%TO.N,OE_IDX*%
X61976000Y-88798400D02*
X61976000Y-88367304D01*
X54856000Y-94108500D02*
X56665900Y-94108500D01*
X80721200Y-79044800D02*
X80721200Y-78994000D01*
X76942011Y-82823989D02*
X80721200Y-79044800D01*
X86461600Y-75946000D02*
X87121841Y-75285759D01*
X63962723Y-86380581D02*
X64373452Y-86380581D01*
X83616800Y-75946000D02*
X86461600Y-75946000D01*
X61976000Y-88367304D02*
X63962723Y-86380581D01*
X73843211Y-82823989D02*
X76942011Y-82823989D01*
X56665900Y-94108500D02*
X61976000Y-88798400D01*
%TO.N,LIMIT_1*%
X86577838Y-84023200D02*
X85478451Y-82923813D01*
X92608400Y-84023200D02*
X86577838Y-84023200D01*
%TO.N,/Output Logic/STUDENT_PIXEL_DATA*%
X142046590Y-67726190D02*
X146262989Y-63509791D01*
X63280012Y-84952980D02*
X63483214Y-84749778D01*
X78505534Y-83688814D02*
X80846134Y-81348214D01*
X66995882Y-84749778D02*
X67336104Y-85090000D01*
X57294711Y-87662385D02*
X60004116Y-84952980D01*
X74544814Y-83688814D02*
X78505534Y-83688814D01*
X71184894Y-85090000D02*
X72586080Y-83688814D01*
X63483214Y-84749778D02*
X66995882Y-84749778D01*
X56036644Y-92124221D02*
X57294711Y-90866154D01*
X67336104Y-85090000D02*
X71184894Y-85090000D01*
X146262989Y-63509791D02*
X146262989Y-63485100D01*
X60004116Y-84952980D02*
X63280012Y-84952980D01*
X88133583Y-80060800D02*
X84888926Y-80060800D01*
X57294711Y-90866154D02*
X57294711Y-87662385D01*
X88555927Y-79638456D02*
X88133583Y-80060800D01*
X84888926Y-80060800D02*
X84837934Y-80009808D01*
X80846134Y-81348214D02*
X80846134Y-81252534D01*
%TO.N,STU_STP_FLT*%
X56845200Y-90210109D02*
X56845200Y-86887400D01*
X56157557Y-90897752D02*
X56845200Y-90210109D01*
X54322189Y-79993011D02*
X55980511Y-79993011D01*
X60940421Y-74523600D02*
X77216000Y-74523600D01*
X80830489Y-75227111D02*
X80568800Y-75488800D01*
X87172800Y-74269600D02*
X86215289Y-75227111D01*
X53731489Y-80583711D02*
X54322189Y-79993011D01*
X55030811Y-85073011D02*
X54390211Y-85073011D01*
X56480485Y-79493037D02*
X56480485Y-78983536D01*
X56845200Y-86887400D02*
X55030811Y-85073011D01*
X54390211Y-85073011D02*
X53731489Y-84414289D01*
X53731489Y-84414289D02*
X53731489Y-80583711D01*
X86215289Y-75227111D02*
X80830489Y-75227111D01*
X55980511Y-79993011D02*
X56480485Y-79493037D01*
X56480485Y-78983536D02*
X60940421Y-74523600D01*
%TO.N,/Output Logic/STUDENT_STEP*%
X63372296Y-85496400D02*
X63669407Y-85199289D01*
X57797258Y-92067762D02*
X57797258Y-87795542D01*
X89132805Y-80192005D02*
X87446110Y-81878700D01*
X67087622Y-85953600D02*
X68884800Y-85953600D01*
X63669407Y-85199289D02*
X66333311Y-85199289D01*
X60096400Y-85496400D02*
X63372296Y-85496400D01*
X66333311Y-85199289D02*
X67087622Y-85953600D01*
X87446110Y-81878700D02*
X85381951Y-81878700D01*
X57797258Y-87795542D02*
X60096400Y-85496400D01*
%TO.N,/Analog Sensor Buffers/A_OUT_B2*%
X75941322Y-90866299D02*
X84038101Y-90866299D01*
X84038101Y-90866299D02*
X84988400Y-89916000D01*
X60952310Y-90457794D02*
X60952310Y-90653310D01*
X75239121Y-91568500D02*
X75941322Y-90866299D01*
X70096000Y-91568500D02*
X68697500Y-90170000D01*
X61240104Y-90170000D02*
X60952310Y-90457794D01*
X68697500Y-90170000D02*
X61240104Y-90170000D01*
X70096000Y-91568500D02*
X75239121Y-91568500D01*
X60952310Y-90653310D02*
X56872629Y-94732991D01*
%TO.N,/Student MCU/DC_MOTOR_DIR2*%
X59978800Y-68916190D02*
X59978800Y-68868800D01*
X58515489Y-70379501D02*
X59978800Y-68916190D01*
X58515489Y-73095089D02*
X58515489Y-70379501D01*
%TO.N,/Analog Sensor Buffers/A_OUT_A2*%
X68483530Y-89509600D02*
X68964630Y-89028500D01*
X62484000Y-89509600D02*
X68483530Y-89509600D01*
X68964630Y-89028500D02*
X70096000Y-89028500D01*
%TO.N,/Student MCU/LATCH*%
X89916000Y-103276400D02*
X95250000Y-108610400D01*
X61280521Y-111806942D02*
X67792500Y-118318921D01*
X89255600Y-95859600D02*
X89916000Y-96520000D01*
X71108267Y-118318921D02*
X77819588Y-111607600D01*
X54856000Y-104268500D02*
X61280521Y-110693021D01*
X77819588Y-111607600D02*
X92862400Y-111607600D01*
X61280521Y-110693021D02*
X61280521Y-111806942D01*
X89916000Y-96520000D02*
X89916000Y-103276400D01*
X92862400Y-111607600D02*
X95859600Y-108610400D01*
X67792500Y-118318921D02*
X71108267Y-118318921D01*
%TO.N,/Student MCU/SERVO_1*%
X53671700Y-106808500D02*
X51206400Y-104343200D01*
X54856000Y-106808500D02*
X53671700Y-106808500D01*
%TO.N,/Output Logic/STUDENT_MOTOR_PWM*%
X120411378Y-107824422D02*
X120411378Y-93150414D01*
X114439099Y-113875680D02*
X114439099Y-113796701D01*
X61308039Y-119583200D02*
X61874400Y-119583200D01*
X135818201Y-77743591D02*
X135818201Y-59062684D01*
X54856000Y-109348500D02*
X55980511Y-110473011D01*
X55980511Y-110473011D02*
X55980511Y-114255672D01*
X114439099Y-113796701D02*
X120411378Y-107824422D01*
X63062111Y-120770911D02*
X107543868Y-120770911D01*
X135818201Y-59062684D02*
X139741905Y-55138980D01*
X55980511Y-114255672D02*
X61308039Y-119583200D01*
X120411378Y-93150414D02*
X135818201Y-77743591D01*
X61874400Y-119583200D02*
X63062111Y-120770911D01*
X107543868Y-120770911D02*
X114439099Y-113875680D01*
%TO.N,/Student MCU/MOSI*%
X88478699Y-104531499D02*
X88478699Y-97855701D01*
X88478699Y-97855701D02*
X89204800Y-97129600D01*
X90779600Y-106832400D02*
X88478699Y-104531499D01*
X90779600Y-108610400D02*
X90779600Y-106832400D01*
%TO.N,/Student MCU/DC_MOTOR_DIR1*%
X59826789Y-67833611D02*
X51546389Y-67833611D01*
X50342117Y-69037883D02*
X50342117Y-109914617D01*
X61719567Y-68806500D02*
X60799679Y-68806500D01*
X50342117Y-109914617D02*
X54856000Y-114428500D01*
X60799679Y-68806500D02*
X59826789Y-67833611D01*
X51546389Y-67833611D02*
X50342117Y-69037883D01*
%TO.N,/Student MCU/SCK*%
X62164987Y-106232880D02*
X62155257Y-106242610D01*
X89103200Y-104394000D02*
X89103200Y-98196400D01*
X62164987Y-100625062D02*
X62164987Y-106232880D01*
X93319600Y-108610400D02*
X89103200Y-104394000D01*
%TO.N,/Supervisor MCU/PROG_TX*%
X67944103Y-65719820D02*
X53882012Y-65719820D01*
X50886699Y-50408501D02*
X54226788Y-47068412D01*
X70231000Y-63432923D02*
X67944103Y-65719820D01*
X54226788Y-47068412D02*
X55395188Y-47068412D01*
X53882012Y-65719820D02*
X50886699Y-62724507D01*
X55395188Y-47068412D02*
X56235600Y-46228000D01*
X50886699Y-62724507D02*
X50886699Y-50408501D01*
%TO.N,/Supervisor MCU/PROG_RX*%
X56646678Y-48127545D02*
X56646678Y-46843884D01*
X52382011Y-63584115D02*
X52382011Y-62796011D01*
X65883980Y-65270310D02*
X54068206Y-65270310D01*
X54068206Y-65270310D02*
X52382011Y-63584115D01*
X52382011Y-62796011D02*
X52359899Y-62773899D01*
X55165811Y-49608412D02*
X56646678Y-48127545D01*
X56646678Y-46843884D02*
X57173083Y-46317479D01*
X52359899Y-51773724D02*
X54525211Y-49608412D01*
X52359899Y-62773899D02*
X52359899Y-51773724D01*
X54525211Y-49608412D02*
X55165811Y-49608412D01*
X70231000Y-60923290D02*
X65883980Y-65270310D01*
%TO.N,/Supervisor MCU/MCU_RESET*%
X57797642Y-63801112D02*
X64782811Y-63801112D01*
X57294975Y-60656898D02*
X57294975Y-63298445D01*
X79197200Y-38455600D02*
X78178716Y-37437116D01*
X78178716Y-37437116D02*
X76568984Y-37437116D01*
X57294975Y-63298445D02*
X57797642Y-63801112D01*
X64782811Y-63801112D02*
X70231000Y-58352923D01*
X54991000Y-58352923D02*
X57294975Y-60656898D01*
%TO.N,/Supervisor MCU/STDNT_DC_M_DIR_2*%
X66156501Y-53792522D02*
X66156501Y-61379484D01*
X65313900Y-52745300D02*
X65313900Y-52949921D01*
X65313900Y-52949921D02*
X66156501Y-53792522D01*
X66156501Y-61379484D02*
X64359374Y-63176611D01*
%TO.N,/Supervisor MCU/STDNT_DC_M_DIR_1*%
X56341901Y-52896101D02*
X58447373Y-52896101D01*
X58447373Y-52896101D02*
X60155075Y-51188399D01*
X55561899Y-52116099D02*
X56341901Y-52896101D01*
X54094310Y-64660710D02*
X65234890Y-64660710D01*
X52984400Y-52273200D02*
X53141501Y-52116099D01*
X60299878Y-51188399D02*
X60835316Y-50652961D01*
X53141501Y-52116099D02*
X55561899Y-52116099D01*
X65234890Y-64660710D02*
X65684400Y-64211200D01*
X60155075Y-51188399D02*
X60299878Y-51188399D01*
X52984400Y-52273200D02*
X52984400Y-63550800D01*
X52984400Y-63550800D02*
X54094310Y-64660710D01*
%TO.N,/Digital Sensor Buffers/D_OUT_E1*%
X76123080Y-54331320D02*
X86824820Y-54331320D01*
X86824820Y-54331320D02*
X88560550Y-56067050D01*
X68681600Y-50444400D02*
X68681600Y-51723523D01*
X68681600Y-51723523D02*
X70231000Y-53272923D01*
%TO.N,/Supervisor MCU/STDNT_SRVO_RX_1*%
X54991000Y-40503363D02*
X58685481Y-36808882D01*
X58685481Y-36808882D02*
X59971419Y-36808882D01*
X59971419Y-36808882D02*
X60328267Y-37165730D01*
%TO.N,/Digital Sensor Buffers/D_OUT_C1*%
X70231000Y-50732923D02*
X76483349Y-56985272D01*
X88754851Y-56985272D02*
X89697899Y-57928320D01*
X89697899Y-57928320D02*
X89697899Y-63485099D01*
X93167200Y-66954400D02*
X94132400Y-66954400D01*
X89697899Y-63485099D02*
X93167200Y-66954400D01*
X76483349Y-56985272D02*
X88754851Y-56985272D01*
%TO.N,/Analog Sensor Buffers/A_OUT_C1*%
X85865372Y-48597486D02*
X85865177Y-48597291D01*
X54991000Y-43112923D02*
X53848000Y-41969923D01*
X91280388Y-63030471D02*
X91280388Y-59234895D01*
X107101300Y-93229069D02*
X106692770Y-92820539D01*
X54466966Y-39157434D02*
X55482966Y-39157434D01*
X71856600Y-42621200D02*
X71678800Y-42621200D01*
X85866059Y-48597485D02*
X85865372Y-48597486D01*
X61300699Y-36307099D02*
X61417200Y-36423600D01*
X81326065Y-43814854D02*
X80962155Y-43450944D01*
X80962155Y-43450944D02*
X72686344Y-43450944D01*
X81326065Y-43817504D02*
X81326065Y-43814854D01*
X85074378Y-47807373D02*
X85074378Y-47807181D01*
X106692770Y-77959549D02*
X92806922Y-64073701D01*
X81589383Y-44080827D02*
X81589378Y-44080827D01*
X53848000Y-39776400D02*
X54466966Y-39157434D01*
X91548810Y-54280236D02*
X85866059Y-48597485D01*
X81589378Y-44080827D02*
X81326070Y-43817519D01*
X106692770Y-92820539D02*
X106692770Y-77959549D01*
X85865177Y-48597291D02*
X85863912Y-48597291D01*
X92806922Y-64073701D02*
X92323618Y-64073701D01*
X72686344Y-43450944D02*
X71856600Y-42621200D01*
X85074378Y-47807181D02*
X84445105Y-47177908D01*
X58333301Y-36307099D02*
X61300699Y-36307099D01*
X91280388Y-59234895D02*
X91548810Y-58966473D01*
X91548810Y-58966473D02*
X91548810Y-54280236D01*
X85074652Y-47808031D02*
X85074652Y-47807839D01*
X84445106Y-46936550D02*
X81589383Y-44080827D01*
X53848000Y-41969923D02*
X53848000Y-39776400D01*
X85074515Y-47807510D02*
X85074378Y-47807373D01*
X92323618Y-64073701D02*
X91280388Y-63030471D01*
X81326070Y-43817509D02*
X81326065Y-43817504D01*
X85863912Y-48597291D02*
X85074652Y-47808031D01*
X55482966Y-39157434D02*
X58333301Y-36307099D01*
X85074652Y-47807839D02*
X85074515Y-47807702D01*
X85074515Y-47807702D02*
X85074515Y-47807510D01*
X84445105Y-47177908D02*
X84445106Y-46936550D01*
X81326070Y-43817519D02*
X81326070Y-43817509D01*
%TO.N,/Digital Sensor Buffers/D_OUT_D1*%
X75023456Y-48192923D02*
X76531179Y-46685200D01*
X69071723Y-48192923D02*
X68478400Y-47599600D01*
X70231000Y-48192923D02*
X69071723Y-48192923D01*
X90068400Y-54516907D02*
X90068400Y-56642000D01*
X70231000Y-48192923D02*
X75023456Y-48192923D01*
X68478400Y-47599600D02*
X68478400Y-45770800D01*
X82236693Y-46685200D02*
X90068400Y-54516907D01*
X76531179Y-46685200D02*
X82236693Y-46685200D01*
%TO.N,/Digital Sensor Buffers/D_OUT_A1*%
X66872550Y-49142311D02*
X66891040Y-49123821D01*
X68150266Y-58396666D02*
X66872550Y-57118950D01*
X66872550Y-57118950D02*
X66872550Y-49142311D01*
%TO.N,/Output Logic/SUPERVISOR_PIXEL_DATA*%
X125946266Y-48424022D02*
X126203084Y-48167204D01*
X126203084Y-48167204D02*
X137526373Y-48167204D01*
X86916055Y-46174455D02*
X89165622Y-48424022D01*
X86867647Y-46174455D02*
X86916055Y-46174455D01*
X89165622Y-48424022D02*
X125946266Y-48424022D01*
%TO.N,/Digital Sensor Buffers/D_OUT_F1*%
X56083200Y-51511200D02*
X57536821Y-51511200D01*
X67295042Y-48429865D02*
X67305022Y-48439845D01*
X57536821Y-51511200D02*
X60618156Y-48429865D01*
X90322400Y-58369200D02*
X90322400Y-57779179D01*
X89443899Y-56900678D02*
X89443899Y-56067220D01*
X90322400Y-57779179D02*
X89443899Y-56900678D01*
X60618156Y-48429865D02*
X67295042Y-48429865D01*
X68182611Y-49317434D02*
X67305022Y-48439845D01*
X89443899Y-56067220D02*
X82694113Y-49317434D01*
X82694113Y-49317434D02*
X68182611Y-49317434D01*
%TO.N,/Output Logic/SUPERVISOR_STEP*%
X91186183Y-45343594D02*
X87019863Y-45343594D01*
X125512600Y-47974511D02*
X93817100Y-47974511D01*
X87019863Y-45343594D02*
X86980500Y-45382957D01*
X93817100Y-47974511D02*
X91186183Y-45343594D01*
X127116500Y-46370611D02*
X125512600Y-47974511D01*
%TO.N,/Analog Sensor Buffers/A_OUT_B1*%
X56640206Y-50732923D02*
X63126299Y-44246830D01*
X85362858Y-48734826D02*
X80728763Y-44100731D01*
X90830877Y-63216664D02*
X90830878Y-59048701D01*
X54991000Y-50732923D02*
X56640206Y-50732923D01*
X91099299Y-58780280D02*
X91099299Y-54505731D01*
X93944112Y-66329899D02*
X90830877Y-63216664D01*
X105831590Y-93077285D02*
X105831590Y-77770411D01*
X94391078Y-66329899D02*
X93944112Y-66329899D01*
X63126299Y-44246830D02*
X68943255Y-44246830D01*
X90830878Y-59048701D02*
X91099299Y-58780280D01*
X105831590Y-77770411D02*
X94391078Y-66329899D01*
X85431786Y-48838218D02*
X85362858Y-48734826D01*
X91099299Y-54505731D02*
X85431786Y-48838218D01*
%TO.N,SUP_LED2*%
X146507200Y-39928800D02*
X147387820Y-39928800D01*
X154203400Y-34036000D02*
X154965400Y-33274000D01*
X147387820Y-39928800D02*
X153280620Y-34036000D01*
X165661280Y-33274000D02*
X167436800Y-35049520D01*
X154965400Y-33274000D02*
X165661280Y-33274000D01*
X153280620Y-34036000D02*
X154203400Y-34036000D01*
%TO.N,/Analog Sensor Buffers/A_OUT_A1*%
X71046817Y-65845638D02*
X69507370Y-65845638D01*
X91531337Y-81772620D02*
X89757306Y-79998589D01*
X89757306Y-79862616D02*
X86939860Y-77045170D01*
X79161301Y-75985597D02*
X79161301Y-73960122D01*
X101549200Y-87985600D02*
X99769792Y-87985600D01*
X79161301Y-73960122D02*
X71046817Y-65845638D01*
X58051059Y-54072922D02*
X60801080Y-51322901D01*
X54991000Y-53272923D02*
X55790999Y-54072922D01*
X89757306Y-79998589D02*
X89757306Y-79862616D01*
X93556812Y-81772620D02*
X91531337Y-81772620D01*
X61056217Y-51322901D02*
X61628879Y-50750239D01*
X80220874Y-77045170D02*
X79161301Y-75985597D01*
X99769792Y-87985600D02*
X93556812Y-81772620D01*
X55790999Y-54072922D02*
X58051059Y-54072922D01*
X60801080Y-51322901D02*
X61056217Y-51322901D01*
X86939860Y-77045170D02*
X80220874Y-77045170D01*
%TO.N,/Supervisor MCU/LATCH*%
X71451308Y-36812615D02*
X70231000Y-38032923D01*
X84575889Y-39465489D02*
X81923015Y-36812615D01*
X81923015Y-36812615D02*
X71451308Y-36812615D01*
X68240677Y-38032923D02*
X70231000Y-38032923D01*
X99364800Y-35356800D02*
X102272622Y-35356800D01*
X102672911Y-29876511D02*
X101498400Y-28702000D01*
X102672911Y-34956511D02*
X102672911Y-29876511D01*
X102272622Y-35356800D02*
X102672911Y-34956511D01*
X97355641Y-35994359D02*
X93884511Y-39465489D01*
X93884511Y-39465489D02*
X84575889Y-39465489D01*
X67716400Y-38557200D02*
X68240677Y-38032923D01*
%TO.N,/Output Logic/SUPERVISOR_MOTOR_PWM*%
X64719200Y-35102800D02*
X57556400Y-35102800D01*
X57556400Y-35102800D02*
X56794400Y-35864800D01*
%TO.N,/Supervisor MCU/MOSI*%
X100398400Y-33782000D02*
X101498400Y-33782000D01*
X87071200Y-29260800D02*
X95877200Y-29260800D01*
X95877200Y-29260800D02*
X100398400Y-33782000D01*
%TO.N,SUP_LED1*%
X136892035Y-38059931D02*
X135756014Y-36923910D01*
X70405811Y-36908412D02*
X71924678Y-35389545D01*
X73481464Y-34245311D02*
X71924678Y-32688525D01*
X68450788Y-36908412D02*
X70405811Y-36908412D01*
X93814924Y-34245311D02*
X73481464Y-34245311D01*
X137220419Y-38059931D02*
X136892035Y-38059931D01*
X110895471Y-36576000D02*
X98820461Y-36576000D01*
X94335218Y-34242373D02*
X93817862Y-34242373D01*
X111243381Y-36923910D02*
X110895471Y-36576000D01*
X137586242Y-38425754D02*
X137220419Y-38059931D01*
X142577070Y-47165352D02*
X137586242Y-42174524D01*
X142577070Y-48397500D02*
X142577070Y-47165352D01*
X67665600Y-37693600D02*
X68450788Y-36908412D01*
X94338156Y-34245311D02*
X94335218Y-34242373D01*
X93817862Y-34242373D02*
X93814924Y-34245311D01*
X96489772Y-34245311D02*
X94338156Y-34245311D01*
X137586242Y-42174524D02*
X137586242Y-38425754D01*
X98820461Y-36576000D02*
X96489772Y-34245311D01*
X135756014Y-36923910D02*
X111243381Y-36923910D01*
X71924678Y-35389545D02*
X71924678Y-32688525D01*
%TO.N,/Supervisor MCU/SCK*%
X98341105Y-28084705D02*
X98341105Y-25310284D01*
X59261234Y-23602689D02*
X54991000Y-27872923D01*
X96633510Y-23602689D02*
X59261234Y-23602689D01*
X101498400Y-31242000D02*
X98341105Y-28084705D01*
X98341105Y-25310284D02*
X96633510Y-23602689D01*
%TO.N,/DC Motor Controller/PENDULUM_PIN_1*%
X181919843Y-53690557D02*
X162661625Y-53690557D01*
X193446400Y-42164000D02*
X181919843Y-53690557D01*
X193446400Y-41656000D02*
X193446400Y-42164000D01*
%TO.N,/Output Logic/STEP_SLP_OUT*%
X171602400Y-48641000D02*
X183921400Y-48641000D01*
X183921400Y-48641000D02*
X193446400Y-39116000D01*
%TO.N,/Output Logic/STUDENT_STEP_SLP*%
X118029511Y-92180889D02*
X111398289Y-92180889D01*
X111398289Y-92180889D02*
X109083488Y-94495690D01*
X97340489Y-96833514D02*
X93965489Y-100208514D01*
X97807006Y-94495690D02*
X97340489Y-94962207D01*
X133908800Y-76301600D02*
X118029511Y-92180889D01*
X97340489Y-94962207D02*
X97340489Y-96833514D01*
X109083488Y-94495690D02*
X97807006Y-94495690D01*
%TO.N,STEPP_EN*%
X179603400Y-26416000D02*
X177698400Y-24511000D01*
X193446400Y-26416000D02*
X179603400Y-26416000D01*
%TO.N,M_I_SENSE_1*%
X122565499Y-91631997D02*
X132917496Y-81280000D01*
X157886400Y-81280000D02*
X159816800Y-83210400D01*
X123088400Y-105257600D02*
X122565499Y-104734699D01*
X132917496Y-81280000D02*
X157886400Y-81280000D01*
X122565499Y-104734699D02*
X122565499Y-91631997D01*
%TO.N,M_I_SENSE_2*%
X160703320Y-84963000D02*
X131851400Y-84963000D01*
X130886200Y-84455000D02*
X123190000Y-92151200D01*
X131851400Y-84963000D02*
X131343400Y-84455000D01*
X162356800Y-83309520D02*
X160703320Y-84963000D01*
X131343400Y-84455000D02*
X130886200Y-84455000D01*
X123190000Y-92151200D02*
X123190000Y-102768400D01*
%TO.N,MODE_0*%
X170719907Y-41801189D02*
X170821507Y-41801189D01*
X72733936Y-41697434D02*
X69341234Y-41697434D01*
X82674615Y-43258943D02*
X85793635Y-46377963D01*
X86524412Y-47348726D02*
X86571443Y-47348726D01*
X85793635Y-46377963D02*
X85793636Y-46619327D01*
X148090609Y-50472131D02*
X148192208Y-50370532D01*
X148192208Y-50370532D02*
X162150564Y-50370532D01*
X81889600Y-39725600D02*
X82674615Y-40510615D01*
X86423907Y-47248444D02*
X86423929Y-47248466D01*
X67597101Y-40220299D02*
X66588576Y-39211774D01*
X82674615Y-40510615D02*
X82674615Y-43258943D01*
X162150564Y-50370532D02*
X170719907Y-41801189D01*
X171677896Y-40944800D02*
X172262800Y-40944800D01*
X170821507Y-41801189D02*
X171677896Y-40944800D01*
X85793636Y-46619327D02*
X86422754Y-47248445D01*
X86571443Y-47348726D02*
X89694847Y-50472130D01*
X89694847Y-50472130D02*
X148090609Y-50472131D01*
X86424152Y-47248466D02*
X86524412Y-47348726D01*
X74602516Y-39828854D02*
X72733936Y-41697434D01*
X67864099Y-40220299D02*
X67597101Y-40220299D01*
X179350104Y-35255200D02*
X180136800Y-35255200D01*
X66588576Y-39211774D02*
X65803759Y-39211774D01*
X172262800Y-40944800D02*
X173660504Y-40944800D01*
X173660504Y-40944800D02*
X179350104Y-35255200D01*
X69341234Y-41697434D02*
X67864099Y-40220299D01*
X86422754Y-47248445D02*
X86423907Y-47248444D01*
X65803759Y-39211774D02*
X65521340Y-39494193D01*
X86423929Y-47248466D02*
X86424152Y-47248466D01*
%TO.N,MODE_1*%
X86236774Y-47697977D02*
X86236582Y-47697977D01*
X170906100Y-42250700D02*
X162336757Y-50820043D01*
X86338225Y-47798237D02*
X86338219Y-47798237D01*
X85344125Y-46564161D02*
X82225091Y-43445127D01*
X82225091Y-43394916D02*
X81238863Y-42408688D01*
X85344126Y-46805521D02*
X85344125Y-46564161D01*
X179933600Y-37795200D02*
X177749200Y-37795200D01*
X86338219Y-47798237D02*
X86238094Y-47698112D01*
X76196291Y-37947600D02*
X71831200Y-37947600D01*
X86385254Y-47798241D02*
X86338230Y-47798242D01*
X162336757Y-50820043D02*
X148378401Y-50820043D01*
X80657379Y-42408688D02*
X76196291Y-37947600D01*
X148276802Y-50921642D02*
X89508654Y-50921641D01*
X89508654Y-50921641D02*
X86385254Y-47798241D01*
X172339532Y-42250700D02*
X170906100Y-42250700D01*
X86238094Y-47698112D02*
X86236910Y-47698113D01*
X148378401Y-50820043D02*
X148276802Y-50921642D01*
X173293700Y-42250700D02*
X172339532Y-42250700D01*
X86338230Y-47798242D02*
X86338225Y-47798237D01*
X81238863Y-42408688D02*
X80657379Y-42408688D01*
X82225091Y-43445127D02*
X82225091Y-43394916D01*
X85344126Y-46805521D02*
X86236582Y-47697977D01*
X177749200Y-37795200D02*
X173293700Y-42250700D01*
%TO.N,MODE_2*%
X189534800Y-34188400D02*
X193294000Y-34188400D01*
X85293200Y-43230800D02*
X86243146Y-44180746D01*
X86610346Y-46798956D02*
X86710606Y-46899216D01*
X80518000Y-24942800D02*
X83642200Y-28067000D01*
X86608969Y-46798956D02*
X86610346Y-46798956D01*
X140928995Y-49007099D02*
X141393407Y-49471511D01*
X183946800Y-39776400D02*
X189534800Y-34188400D01*
X177800000Y-40335200D02*
X180340000Y-40335200D01*
X165445811Y-45303811D02*
X165445811Y-45253011D01*
X161278111Y-49471511D02*
X165445811Y-45303811D01*
X86243146Y-44180746D02*
X86243146Y-46433133D01*
X88865520Y-49007099D02*
X140928995Y-49007099D01*
X86757637Y-46899216D02*
X88865520Y-49007099D01*
X141393407Y-49471511D02*
X161278111Y-49471511D01*
X86243146Y-46433133D02*
X86608969Y-46798956D01*
X193294000Y-34188400D02*
X193446400Y-34036000D01*
X172720000Y-45415200D02*
X177800000Y-40335200D01*
X86710606Y-46899216D02*
X86757637Y-46899216D01*
%TO.N,/Output Logic/STEP_RST_OUT*%
X190144400Y-39878000D02*
X190144400Y-40577890D01*
X171806092Y-47961513D02*
X168473359Y-47961513D01*
X182530801Y-48191489D02*
X172036068Y-48191489D01*
X193446400Y-36576000D02*
X190144400Y-39878000D01*
X190144400Y-40577890D02*
X182530801Y-48191489D01*
X172036068Y-48191489D02*
X171806092Y-47961513D01*
%TO.N,STPPR_FAULT*%
X146574788Y-50022620D02*
X93863020Y-50022620D01*
X164010359Y-47673241D02*
X164010359Y-47627559D01*
X183932603Y-49265501D02*
X168735829Y-49265501D01*
X93863020Y-50022620D02*
X93472000Y-49631600D01*
X146676386Y-49921022D02*
X146574788Y-50022620D01*
X206146400Y-41656000D02*
X204845311Y-40354911D01*
X168735829Y-49265501D02*
X168172628Y-48702300D01*
X161762578Y-49921022D02*
X164010359Y-47673241D01*
X204845311Y-40354911D02*
X192843193Y-40354911D01*
X161762578Y-49921022D02*
X146676386Y-49921022D01*
X192843193Y-40354911D02*
X183932603Y-49265501D01*
D45*
%TO.N,5V_DC_RPI*%
X135788400Y-27025600D02*
X139623800Y-30861000D01*
X139623800Y-30861000D02*
X147599400Y-30861000D01*
X147599400Y-30861000D02*
X148361400Y-30099000D01*
D47*
%TO.N,5V_DC_LED*%
X190398400Y-81838800D02*
X195016200Y-77221000D01*
X195016200Y-77221000D02*
X196646800Y-77221000D01*
D44*
%TO.N,Net-(C11-Pad2)*%
X55949216Y-100313011D02*
X56312340Y-100676135D01*
X56018629Y-89648751D02*
X55514369Y-90153011D01*
X55514369Y-90153011D02*
X53610989Y-90153011D01*
X54390211Y-100313011D02*
X55949216Y-100313011D01*
X53187600Y-99110400D02*
X54390211Y-100313011D01*
X53610989Y-90153011D02*
X53187600Y-90576400D01*
X53187600Y-90576400D02*
X53187600Y-99110400D01*
D48*
%TO.N,/Student MCU/USB_P*%
X65318701Y-108772899D02*
X65481200Y-108610400D01*
X65080477Y-108772899D02*
X65318701Y-108772899D01*
X65481200Y-98602800D02*
X67614800Y-96469200D01*
X63855600Y-110236000D02*
X64729299Y-109362301D01*
X64729299Y-109124077D02*
X65080477Y-108772899D01*
X65481200Y-108610400D02*
X65481200Y-98602800D01*
X64729299Y-109362301D02*
X64729299Y-109124077D01*
X63794692Y-110296908D02*
X63855600Y-110236000D01*
X63794692Y-113055281D02*
X63794692Y-110296908D01*
%TO.N,/Student MCU/USB_N*%
X64929289Y-98291111D02*
X66598800Y-96621600D01*
X64929289Y-107689111D02*
X64929289Y-98291111D01*
X63246000Y-109372400D02*
X64929289Y-107689111D01*
%TO.N,/Supervisor MCU/USB_P*%
X60581624Y-31376042D02*
X60581624Y-34267224D01*
X60581624Y-34267224D02*
X60684119Y-34369719D01*
D44*
%TO.N,Net-(J2-Pad2)*%
X134631231Y-33686011D02*
X152994905Y-33686011D01*
X162044310Y-32824490D02*
X167843200Y-27025600D01*
X153856426Y-32824490D02*
X162044310Y-32824490D01*
X133987810Y-33042590D02*
X134631231Y-33686011D01*
X152994905Y-33686011D02*
X153856426Y-32824490D01*
%TO.N,Net-(J8-Pad1)*%
X68246511Y-98929311D02*
X69916101Y-100598901D01*
X57840739Y-94655743D02*
X67374830Y-94655743D01*
X75672421Y-101650800D02*
X77704421Y-103682800D01*
X71826522Y-101665701D02*
X72933899Y-101665701D01*
X69916101Y-100598901D02*
X70759722Y-100598901D01*
X72948800Y-101650800D02*
X75672421Y-101650800D01*
X68246511Y-95527424D02*
X68246511Y-98929311D01*
X77704421Y-103682800D02*
X79298800Y-103682800D01*
X70759722Y-100598901D02*
X71826522Y-101665701D01*
X72933899Y-101665701D02*
X72948800Y-101650800D01*
X67374830Y-94655743D02*
X68246511Y-95527424D01*
%TO.N,Net-(J8-Pad2)*%
X79705200Y-101904800D02*
X80265578Y-102465178D01*
X76023771Y-101004651D02*
X76923920Y-101904800D01*
X80265578Y-102465178D02*
X80265578Y-103332966D01*
X80265578Y-103332966D02*
X80490506Y-103557894D01*
X76923920Y-101904800D02*
X79705200Y-101904800D01*
%TO.N,Net-(J8-Pad3)*%
X72136000Y-103146222D02*
X73536178Y-104546400D01*
X72021213Y-103035587D02*
X72136000Y-102920800D01*
X72136000Y-102920800D02*
X72136000Y-103146222D01*
X73536178Y-104546400D02*
X81599800Y-104546400D01*
X67667142Y-103035587D02*
X72021213Y-103035587D01*
%TO.N,Net-(J8-Pad5)*%
X80885337Y-99100495D02*
X80963032Y-99022800D01*
X72823866Y-95957445D02*
X76361555Y-99495134D01*
X79933130Y-99397290D02*
X80298953Y-99031467D01*
X76361555Y-99495134D02*
X79933130Y-99495134D01*
X81039600Y-99022800D02*
X81889600Y-99872800D01*
X80963032Y-99022800D02*
X81039600Y-99022800D01*
X79933130Y-99495134D02*
X79933130Y-99397290D01*
X80298953Y-99031467D02*
X80816309Y-99031467D01*
X72823866Y-94667866D02*
X72823866Y-95957445D01*
X80816309Y-99031467D02*
X80885337Y-99100495D01*
%TO.N,Net-(J8-Pad6)*%
X66211507Y-88880893D02*
X66294000Y-88798400D01*
X64707085Y-88880893D02*
X66211507Y-88880893D01*
%TO.N,Net-(J8-Pad7)*%
X81889600Y-94792800D02*
X74467697Y-94792800D01*
X73039422Y-93593845D02*
X72485777Y-93040200D01*
X74467697Y-94792800D02*
X73268741Y-93593844D01*
X73268741Y-93593844D02*
X73039422Y-93593845D01*
%TO.N,/Output Logic/STUDENT_MOTOR_EN*%
X107400805Y-85639195D02*
X107317271Y-85639195D01*
X130098800Y-62941200D02*
X107400805Y-85639195D01*
X130098800Y-61772800D02*
X130098800Y-62941200D01*
%TO.N,/Output Logic/STUDENT_DIRECTION*%
X107586711Y-93886089D02*
X112022889Y-89449911D01*
X93789148Y-99224748D02*
X93789148Y-97700748D01*
X112022889Y-89449911D02*
X113059299Y-89449911D01*
X97603807Y-93886090D02*
X107586711Y-93886089D01*
X130251200Y-72258010D02*
X130251200Y-66598800D01*
X113059299Y-89449911D02*
X130251200Y-72258010D01*
X93789148Y-97700748D02*
X97603807Y-93886089D01*
%TO.N,/Output Logic/STUDENT_STEP_RST*%
X94132400Y-100990400D02*
X97790000Y-97332800D01*
X97790000Y-97332800D02*
X115593293Y-97332800D01*
X135295301Y-70205601D02*
X135193700Y-70104000D01*
X135295301Y-77630792D02*
X135295301Y-70205601D01*
X115593293Y-97332800D02*
X135295301Y-77630792D01*
%TO.N,Net-(J12-Pad1)*%
X78462120Y-44237434D02*
X70056189Y-44237434D01*
X69304512Y-44989111D02*
X68646231Y-44989111D01*
X78605153Y-44094401D02*
X78462120Y-44237434D01*
X70056189Y-44237434D02*
X69304512Y-44989111D01*
%TO.N,Net-(J12-Pad3)*%
X84269510Y-31554490D02*
X70039133Y-31554490D01*
X68757800Y-33645324D02*
X64600234Y-37802890D01*
X64600234Y-37802890D02*
X59760852Y-37802890D01*
X70039133Y-31554490D02*
X68757800Y-32835823D01*
X57759600Y-39804142D02*
X57759600Y-41808400D01*
X59760852Y-37802890D02*
X57759600Y-39804142D01*
X85293200Y-30530800D02*
X84269510Y-31554490D01*
X68757800Y-32835823D02*
X68757800Y-33645324D01*
%TO.N,Net-(J12-Pad4)*%
X68224400Y-42418000D02*
X62061435Y-42418000D01*
X57376230Y-47103205D02*
X57320862Y-47103205D01*
X62061435Y-42418000D02*
X57376230Y-47103205D01*
%TO.N,SERVO_2*%
X95034677Y-41814511D02*
X99638188Y-37211000D01*
X85293200Y-40690800D02*
X86416911Y-41814511D01*
X99638188Y-37211000D02*
X110134400Y-37211000D01*
X86416911Y-41814511D02*
X95034677Y-41814511D01*
%TO.N,PEND_ENABLE*%
X140411200Y-61518800D02*
X140411200Y-61385720D01*
X140411200Y-61385720D02*
X139085980Y-60060500D01*
%TO.N,/Output Logic/MCU_STEP_SELECT*%
X134670800Y-72745600D02*
X134569200Y-72644000D01*
X92234726Y-34866874D02*
X94076540Y-34866874D01*
X89001600Y-38100000D02*
X92234726Y-34866874D01*
X134569200Y-68224400D02*
X134010400Y-67665600D01*
X134010400Y-67665600D02*
X135280400Y-66395600D01*
X135280400Y-66395600D02*
X135280400Y-60771700D01*
X134569200Y-72644000D02*
X134569200Y-68224400D01*
X135280400Y-60771700D02*
X131269539Y-56760839D01*
%TO.N,/Digital Sensor Buffers/D_IN_A*%
X150622000Y-26994800D02*
X148242301Y-29374499D01*
X142175899Y-29374499D02*
X142138400Y-29337000D01*
X148242301Y-29374499D02*
X142175899Y-29374499D01*
%TO.N,/Digital Sensor Buffers/D_IN_B*%
X135259743Y-33236501D02*
X134356325Y-32333083D01*
X152640380Y-33236501D02*
X135259743Y-33236501D01*
X158089600Y-27787281D02*
X152640380Y-33236501D01*
X158089600Y-27025600D02*
X158089600Y-27787281D01*
%TO.N,/Digital Sensor Buffers/D_IN_E*%
X116662200Y-33223200D02*
X124866400Y-25019000D01*
X141401800Y-25019000D02*
X143408400Y-27025600D01*
X113030000Y-33223200D02*
X116662200Y-33223200D01*
X124866400Y-25019000D02*
X141401800Y-25019000D01*
%TO.N,Net-(C14-Pad1)*%
X59740800Y-82956400D02*
X60045600Y-83261200D01*
X59740800Y-79959200D02*
X59740800Y-82956400D01*
%TO.N,/Student MCU/SERVO_2*%
X56134000Y-102040800D02*
X55321789Y-102853011D01*
X51884204Y-100347004D02*
X50966618Y-100347004D01*
X55321789Y-102853011D02*
X54390211Y-102853011D01*
X56134000Y-102006400D02*
X56134000Y-102040800D01*
X54390211Y-102853011D02*
X51884204Y-100347004D01*
%TO.N,/Supervisor MCU/STDNT_SRVO_RX_2*%
X64414400Y-52120800D02*
X58267600Y-58267600D01*
X65938400Y-52120800D02*
X64414400Y-52120800D01*
X58267600Y-62691643D02*
X57919476Y-63039767D01*
X58267600Y-58267600D02*
X58267600Y-62691643D01*
%TO.N,LIMIT_2*%
X85257790Y-96062800D02*
X83326901Y-97993689D01*
X83326901Y-97993689D02*
X83326901Y-105307397D01*
X79843927Y-105105200D02*
X77063600Y-105105200D01*
X83326901Y-105307397D02*
X82448587Y-106185711D01*
X69432367Y-105683989D02*
X66136607Y-102388229D01*
X75943305Y-106169305D02*
X75111699Y-107000911D01*
X82448587Y-106185711D02*
X80924438Y-106185711D01*
X72821779Y-105683989D02*
X69432367Y-105683989D01*
X74138701Y-107000911D02*
X72821779Y-105683989D01*
X80924438Y-106185711D02*
X79843927Y-105105200D01*
X75999495Y-106169305D02*
X75943305Y-106169305D01*
X75111699Y-107000911D02*
X74138701Y-107000911D01*
X86309200Y-96062800D02*
X85257790Y-96062800D01*
X96520000Y-85852000D02*
X86309200Y-96062800D01*
X77063600Y-105105200D02*
X75999495Y-106169305D01*
%TO.N,/Digital Sensor Buffers/D_OUT_B1*%
X79562308Y-42858198D02*
X75908463Y-39204353D01*
X85524026Y-47621509D02*
X85524026Y-47621317D01*
X86051097Y-48147781D02*
X86050939Y-48147623D01*
X92760800Y-63449200D02*
X92334821Y-63449200D01*
X91729899Y-59563085D02*
X91998321Y-59294663D01*
X84894616Y-46750356D02*
X81775580Y-43631320D01*
X81775580Y-43631320D02*
X81775581Y-43581110D01*
X86050388Y-48147487D02*
X85805874Y-47902973D01*
X75908463Y-39204353D02*
X67480374Y-39204353D01*
X85524026Y-47621317D02*
X85523889Y-47621180D01*
X91998321Y-59294663D02*
X91998321Y-54094043D01*
X92334821Y-63449200D02*
X91729899Y-62844278D01*
X81775581Y-43581110D02*
X81052670Y-42858199D01*
X91729899Y-62844278D02*
X91729899Y-59563085D01*
X64786428Y-38252400D02*
X59947046Y-38252400D01*
X86050939Y-48147623D02*
X86050716Y-48147623D01*
X85523889Y-47620988D02*
X84894616Y-46991715D01*
X58559103Y-39640343D02*
X58559103Y-41808400D01*
X86050716Y-48147623D02*
X86050581Y-48147488D01*
X66455239Y-38179218D02*
X64859610Y-38179218D01*
X86050581Y-48147488D02*
X86050388Y-48147487D01*
X86052057Y-48147780D02*
X86051097Y-48147781D01*
X91998321Y-54094043D02*
X86052057Y-48147780D01*
X67480374Y-39204353D02*
X66455239Y-38179218D01*
X81052670Y-42858199D02*
X79562308Y-42858198D01*
X85805874Y-47902973D02*
X85805490Y-47902973D01*
X59947046Y-38252400D02*
X58559103Y-39640343D01*
X84894616Y-46991715D02*
X84894616Y-46750356D01*
X85805490Y-47902973D02*
X85524026Y-47621509D01*
X85523889Y-47621180D02*
X85523889Y-47620988D01*
X64859610Y-38179218D02*
X64786428Y-38252400D01*
%TO.N,Net-(U10-Pad3)*%
X150154301Y-55636499D02*
X154340189Y-51450611D01*
X150033122Y-55636499D02*
X150154301Y-55636499D01*
X139141200Y-66528421D02*
X150033122Y-55636499D01*
X139141200Y-67106800D02*
X139141200Y-66528421D01*
%TO.N,Net-(U10-Pad4)*%
X160957771Y-52677215D02*
X161038385Y-52677215D01*
X145054986Y-68580000D02*
X160957771Y-52677215D01*
X138836400Y-68224400D02*
X139192000Y-68580000D01*
X139192000Y-68580000D02*
X145054986Y-68580000D01*
%TO.N,Net-(U10-Pad10)*%
X162458941Y-52852728D02*
X162617692Y-52693977D01*
X139496800Y-71424800D02*
X143886869Y-71424800D01*
X143886869Y-71424800D02*
X154946085Y-60365584D01*
X155311908Y-59594485D02*
X155717184Y-59594485D01*
X162458941Y-53010064D02*
X162458941Y-52852728D01*
X154946085Y-59960308D02*
X155311908Y-59594485D01*
X154946085Y-60365584D02*
X154946085Y-59960308D01*
X162093118Y-53375887D02*
X162458941Y-53010064D01*
X161935782Y-53375887D02*
X162093118Y-53375887D01*
X162617692Y-52693977D02*
X162617692Y-52591011D01*
X155717184Y-59594485D02*
X161935782Y-53375887D01*
%TO.N,Net-(U10-Pad11)*%
X161834440Y-52764339D02*
X161834440Y-52751386D01*
X138938000Y-69951600D02*
X144319089Y-69951600D01*
X155125715Y-59144974D02*
X155453804Y-59144975D01*
X155453804Y-59144975D02*
X161834440Y-52764339D01*
X144319089Y-69951600D02*
X155125715Y-59144974D01*
%TO.N,Net-(U11-Pad4)*%
X141579600Y-49022000D02*
X152552400Y-49022000D01*
X138343301Y-45785701D02*
X141579600Y-49022000D01*
X152552400Y-49022000D02*
X154482800Y-47091600D01*
X127624501Y-45785701D02*
X138343301Y-45785701D01*
X127304800Y-45466000D02*
X127624501Y-45785701D01*
%TO.N,/Analog Sensor Buffers/DB1*%
X115597269Y-102877690D02*
X112033579Y-99314000D01*
X119786400Y-106781600D02*
X115882490Y-102877690D01*
X115882490Y-102877690D02*
X115597269Y-102877690D01*
X112033579Y-99314000D02*
X105170900Y-99314000D01*
%TO.N,/Analog Sensor Buffers/A_IN_C*%
X110947200Y-107086400D02*
X110947200Y-115773200D01*
X110947200Y-115773200D02*
X111302800Y-116128800D01*
X114858800Y-103174800D02*
X110947200Y-107086400D01*
%TO.N,Net-(U20-Pad2)*%
X87680800Y-73894421D02*
X91795600Y-78009221D01*
X91795600Y-78009221D02*
X91795600Y-80518000D01*
X87680800Y-65684400D02*
X87680800Y-73894421D01*
%TO.N,Net-(U20-Pad4)*%
X90728800Y-66751200D02*
X90728800Y-70896316D01*
X92354400Y-61010800D02*
X92354400Y-62585600D01*
X95453200Y-57912000D02*
X92354400Y-61010800D01*
X90728800Y-70896316D02*
X94558985Y-74726501D01*
X94558985Y-74874689D02*
X95199200Y-75514904D01*
X94558985Y-74726501D02*
X94558985Y-74874689D01*
X95199200Y-75514904D02*
X95199200Y-77622400D01*
%TO.N,Net-(U20-Pad6)*%
X95743099Y-72019499D02*
X96219878Y-72019499D01*
X97637600Y-73437221D02*
X97637600Y-77578811D01*
X96219878Y-72019499D02*
X97637600Y-73437221D01*
X92151200Y-68427600D02*
X95743099Y-72019499D01*
%TO.N,Net-(U20-Pad12)*%
X89073399Y-58220385D02*
X89073399Y-71445799D01*
X89073399Y-71445799D02*
X92612779Y-74985179D01*
X92612779Y-74985179D02*
X93934484Y-74985179D01*
%TO.N,Net-(C2A1-Pad2)*%
X66690191Y-93335400D02*
X68935600Y-95580809D01*
X66690191Y-91893805D02*
X66690191Y-93335400D01*
X68935600Y-95580809D02*
X68935600Y-96062800D01*
%TO.N,Net-(C15-Pad1)*%
X62336281Y-86268619D02*
X62484000Y-86120900D01*
X60784902Y-86268619D02*
X62336281Y-86268619D01*
D45*
%TO.N,GND_PB*%
X180238400Y-63601600D02*
X182219600Y-63601600D01*
X182219600Y-63601600D02*
X183235600Y-62585600D01*
%TD*%
M02*
