%TF.GenerationSoftware,KiCad,Pcbnew,(6.0.0)*%
%TF.CreationDate,2022-06-20T16:18:32+01:00*%
%TF.ProjectId,RemoteLabs_supervisor_PCB,52656d6f-7465-44c6-9162-735f73757065,rev?*%
%TF.SameCoordinates,Original*%
%TF.FileFunction,Legend,Bot*%
%TF.FilePolarity,Positive*%
%FSLAX46Y46*%
G04 Gerber Fmt 4.6, Leading zero omitted, Abs format (unit mm)*
G04 Created by KiCad (PCBNEW (6.0.0)) date 2022-06-20 16:18:32*
%MOMM*%
%LPD*%
G01*
G04 APERTURE LIST*
%ADD10C,0.150000*%
%ADD11C,0.120000*%
G04 APERTURE END LIST*
D10*
%TO.C,JP1*%
X75906380Y-69829466D02*
X76620666Y-69829466D01*
X76763523Y-69781847D01*
X76858761Y-69686609D01*
X76906380Y-69543752D01*
X76906380Y-69448514D01*
X76906380Y-70305657D02*
X75906380Y-70305657D01*
X75906380Y-70686609D01*
X75954000Y-70781847D01*
X76001619Y-70829466D01*
X76096857Y-70877085D01*
X76239714Y-70877085D01*
X76334952Y-70829466D01*
X76382571Y-70781847D01*
X76430190Y-70686609D01*
X76430190Y-70305657D01*
X76906380Y-71829466D02*
X76906380Y-71258038D01*
X76906380Y-71543752D02*
X75906380Y-71543752D01*
X76049238Y-71448514D01*
X76144476Y-71353276D01*
X76192095Y-71258038D01*
X77531980Y-65767580D02*
X77531980Y-66386628D01*
X77912933Y-66053295D01*
X77912933Y-66196152D01*
X77960552Y-66291390D01*
X78008171Y-66339009D01*
X78103409Y-66386628D01*
X78341504Y-66386628D01*
X78436742Y-66339009D01*
X78484361Y-66291390D01*
X78531980Y-66196152D01*
X78531980Y-65910438D01*
X78484361Y-65815200D01*
X78436742Y-65767580D01*
X77531980Y-66672342D02*
X78531980Y-67005676D01*
X77531980Y-67339009D01*
X77531980Y-67577104D02*
X77531980Y-68196152D01*
X77912933Y-67862819D01*
X77912933Y-68005676D01*
X77960552Y-68100914D01*
X78008171Y-68148533D01*
X78103409Y-68196152D01*
X78341504Y-68196152D01*
X78436742Y-68148533D01*
X78484361Y-68100914D01*
X78531980Y-68005676D01*
X78531980Y-67719961D01*
X78484361Y-67624723D01*
X78436742Y-67577104D01*
X78531980Y-69386628D02*
X77531980Y-69386628D01*
X77531980Y-69767580D01*
X77579600Y-69862819D01*
X77627219Y-69910438D01*
X77722457Y-69958057D01*
X77865314Y-69958057D01*
X77960552Y-69910438D01*
X78008171Y-69862819D01*
X78055790Y-69767580D01*
X78055790Y-69386628D01*
X77531980Y-70291390D02*
X78531980Y-70529485D01*
X77817695Y-70719961D01*
X78531980Y-70910438D01*
X77531980Y-71148533D01*
X78531980Y-72100914D02*
X78055790Y-71767580D01*
X78531980Y-71529485D02*
X77531980Y-71529485D01*
X77531980Y-71910438D01*
X77579600Y-72005676D01*
X77627219Y-72053295D01*
X77722457Y-72100914D01*
X77865314Y-72100914D01*
X77960552Y-72053295D01*
X78008171Y-72005676D01*
X78055790Y-71910438D01*
X78055790Y-71529485D01*
X78484361Y-73243771D02*
X78531980Y-73386628D01*
X78531980Y-73624723D01*
X78484361Y-73719961D01*
X78436742Y-73767580D01*
X78341504Y-73815200D01*
X78246266Y-73815200D01*
X78151028Y-73767580D01*
X78103409Y-73719961D01*
X78055790Y-73624723D01*
X78008171Y-73434247D01*
X77960552Y-73339009D01*
X77912933Y-73291390D01*
X77817695Y-73243771D01*
X77722457Y-73243771D01*
X77627219Y-73291390D01*
X77579600Y-73339009D01*
X77531980Y-73434247D01*
X77531980Y-73672342D01*
X77579600Y-73815200D01*
X78531980Y-74815200D02*
X78055790Y-74481866D01*
X78531980Y-74243771D02*
X77531980Y-74243771D01*
X77531980Y-74624723D01*
X77579600Y-74719961D01*
X77627219Y-74767580D01*
X77722457Y-74815200D01*
X77865314Y-74815200D01*
X77960552Y-74767580D01*
X78008171Y-74719961D01*
X78055790Y-74624723D01*
X78055790Y-74243771D01*
X78436742Y-75815200D02*
X78484361Y-75767580D01*
X78531980Y-75624723D01*
X78531980Y-75529485D01*
X78484361Y-75386628D01*
X78389123Y-75291390D01*
X78293885Y-75243771D01*
X78103409Y-75196152D01*
X77960552Y-75196152D01*
X77770076Y-75243771D01*
X77674838Y-75291390D01*
X77579600Y-75386628D01*
X77531980Y-75529485D01*
X77531980Y-75624723D01*
X77579600Y-75767580D01*
X77627219Y-75815200D01*
%TO.C,JP2*%
X108824780Y-93654666D02*
X109539066Y-93654666D01*
X109681923Y-93607047D01*
X109777161Y-93511809D01*
X109824780Y-93368952D01*
X109824780Y-93273714D01*
X109824780Y-94130857D02*
X108824780Y-94130857D01*
X108824780Y-94511809D01*
X108872400Y-94607047D01*
X108920019Y-94654666D01*
X109015257Y-94702285D01*
X109158114Y-94702285D01*
X109253352Y-94654666D01*
X109300971Y-94607047D01*
X109348590Y-94511809D01*
X109348590Y-94130857D01*
X108920019Y-95083238D02*
X108872400Y-95130857D01*
X108824780Y-95226095D01*
X108824780Y-95464190D01*
X108872400Y-95559428D01*
X108920019Y-95607047D01*
X109015257Y-95654666D01*
X109110495Y-95654666D01*
X109253352Y-95607047D01*
X109824780Y-95035619D01*
X109824780Y-95654666D01*
X110809066Y-93153409D02*
X110809066Y-93629600D01*
X111094780Y-93058171D02*
X110094780Y-93391504D01*
X111094780Y-93724838D01*
X111190019Y-93820076D02*
X111190019Y-94581980D01*
X110570971Y-95153409D02*
X110618590Y-95296266D01*
X110666209Y-95343885D01*
X110761447Y-95391504D01*
X110904304Y-95391504D01*
X110999542Y-95343885D01*
X111047161Y-95296266D01*
X111094780Y-95201028D01*
X111094780Y-94820076D01*
X110094780Y-94820076D01*
X110094780Y-95153409D01*
X110142400Y-95248647D01*
X110190019Y-95296266D01*
X110285257Y-95343885D01*
X110380495Y-95343885D01*
X110475733Y-95296266D01*
X110523352Y-95248647D01*
X110570971Y-95153409D01*
X110570971Y-94820076D01*
X110094780Y-95820076D02*
X110904304Y-95820076D01*
X110999542Y-95867695D01*
X111047161Y-95915314D01*
X111094780Y-96010552D01*
X111094780Y-96201028D01*
X111047161Y-96296266D01*
X110999542Y-96343885D01*
X110904304Y-96391504D01*
X110094780Y-96391504D01*
X110570971Y-97201028D02*
X110570971Y-96867695D01*
X111094780Y-96867695D02*
X110094780Y-96867695D01*
X110094780Y-97343885D01*
X111190019Y-97486742D02*
X111190019Y-98248647D01*
X110142400Y-99010552D02*
X110094780Y-98915314D01*
X110094780Y-98772457D01*
X110142400Y-98629600D01*
X110237638Y-98534361D01*
X110332876Y-98486742D01*
X110523352Y-98439123D01*
X110666209Y-98439123D01*
X110856685Y-98486742D01*
X110951923Y-98534361D01*
X111047161Y-98629600D01*
X111094780Y-98772457D01*
X111094780Y-98867695D01*
X111047161Y-99010552D01*
X110999542Y-99058171D01*
X110666209Y-99058171D01*
X110666209Y-98867695D01*
X111094780Y-99486742D02*
X110094780Y-99486742D01*
X111094780Y-100058171D01*
X110094780Y-100058171D01*
X111094780Y-100534361D02*
X110094780Y-100534361D01*
X110094780Y-100772457D01*
X110142400Y-100915314D01*
X110237638Y-101010552D01*
X110332876Y-101058171D01*
X110523352Y-101105790D01*
X110666209Y-101105790D01*
X110856685Y-101058171D01*
X110951923Y-101010552D01*
X111047161Y-100915314D01*
X111094780Y-100772457D01*
X111094780Y-100534361D01*
D11*
%TO.C,JP1*%
X79927600Y-71456400D02*
X79627600Y-71756400D01*
X82127600Y-71656400D02*
X82127600Y-68856400D01*
X79627600Y-71756400D02*
X79627600Y-71156400D01*
X80827600Y-72306400D02*
X81427600Y-72306400D01*
X79927600Y-71456400D02*
X79627600Y-71156400D01*
X80127600Y-68856400D02*
X80127600Y-71656400D01*
X81427600Y-68206400D02*
X80827600Y-68206400D01*
X80827600Y-68206400D02*
G75*
G03*
X80127600Y-68906400I-1J-699999D01*
G01*
X80127600Y-71606400D02*
G75*
G03*
X80827600Y-72306400I699999J-1D01*
G01*
X82127600Y-68906400D02*
G75*
G03*
X81427600Y-68206400I-699999J1D01*
G01*
X81427600Y-72306400D02*
G75*
G03*
X82127600Y-71606400I1J699999D01*
G01*
%TO.C,JP2*%
X111576000Y-98583600D02*
X111276000Y-98283600D01*
X111776000Y-95983600D02*
X111776000Y-98783600D01*
X112476000Y-99433600D02*
X113076000Y-99433600D01*
X111576000Y-98583600D02*
X111276000Y-98883600D01*
X113076000Y-95333600D02*
X112476000Y-95333600D01*
X113776000Y-98783600D02*
X113776000Y-95983600D01*
X111276000Y-98883600D02*
X111276000Y-98283600D01*
X113776000Y-96033600D02*
G75*
G03*
X113076000Y-95333600I-699999J1D01*
G01*
X112476000Y-95333600D02*
G75*
G03*
X111776000Y-96033600I-1J-699999D01*
G01*
X111776000Y-98733600D02*
G75*
G03*
X112476000Y-99433600I699999J-1D01*
G01*
X113076000Y-99433600D02*
G75*
G03*
X113776000Y-98733600I1J699999D01*
G01*
%TO.C,G\u002A\u002A\u002A*%
G36*
X155303702Y-78552750D02*
G01*
X155041013Y-78784097D01*
X154864805Y-78859739D01*
X154476721Y-78916594D01*
X154094111Y-78849762D01*
X153763460Y-78671278D01*
X153531252Y-78393179D01*
X153441121Y-78110451D01*
X153429289Y-77771325D01*
X153750910Y-77771325D01*
X153760946Y-77887040D01*
X153842826Y-78157441D01*
X153979090Y-78392450D01*
X154135703Y-78525373D01*
X154375223Y-78583394D01*
X154691604Y-78549997D01*
X154946651Y-78402970D01*
X155119826Y-78173457D01*
X155190593Y-77892604D01*
X155138415Y-77591555D01*
X154942756Y-77301454D01*
X154703350Y-77122727D01*
X154470577Y-77053967D01*
X154240501Y-77120804D01*
X154004047Y-77298009D01*
X153823080Y-77532563D01*
X153750910Y-77771325D01*
X153429289Y-77771325D01*
X153428006Y-77734560D01*
X153506366Y-77372758D01*
X153668960Y-77093408D01*
X153870120Y-76929009D01*
X154234459Y-76787261D01*
X154626517Y-76777287D01*
X155000612Y-76897604D01*
X155311063Y-77146728D01*
X155317627Y-77154630D01*
X155485777Y-77477415D01*
X155534137Y-77850581D01*
X155527030Y-77892604D01*
X155470761Y-78225302D01*
X155303702Y-78552750D01*
G37*
G36*
X115278564Y-76194179D02*
G01*
X115312243Y-76468392D01*
X115322337Y-76655558D01*
X115382446Y-76800826D01*
X115523910Y-76884633D01*
X115666258Y-76950921D01*
X115735577Y-77011633D01*
X115680220Y-77063968D01*
X115523910Y-77138633D01*
X115465932Y-77162542D01*
X115380988Y-77223773D01*
X115334928Y-77333616D01*
X115315947Y-77532300D01*
X115312243Y-77860053D01*
X115312173Y-77911793D01*
X115304165Y-78233195D01*
X115274180Y-78441151D01*
X115209888Y-78585051D01*
X115098958Y-78714283D01*
X114911438Y-78855399D01*
X114655182Y-78900934D01*
X114637250Y-78898469D01*
X114473673Y-78830595D01*
X114390936Y-78722400D01*
X114406540Y-78622113D01*
X114537988Y-78577967D01*
X114722531Y-78542712D01*
X114868400Y-78401821D01*
X114948882Y-78135597D01*
X114973577Y-77725252D01*
X114973577Y-77138633D01*
X114719577Y-77138633D01*
X114561084Y-77114611D01*
X114465896Y-77030824D01*
X114510392Y-76932690D01*
X114698410Y-76869090D01*
X114851540Y-76830249D01*
X114926015Y-76726122D01*
X114958717Y-76504732D01*
X115006488Y-76246249D01*
X115096547Y-76086103D01*
X115196952Y-76067748D01*
X115278564Y-76194179D01*
G37*
G36*
X126646464Y-62207991D02*
G01*
X126723095Y-62457524D01*
X126759851Y-62858546D01*
X126784577Y-63464967D01*
X127080910Y-63507300D01*
X127231780Y-63536948D01*
X127348928Y-63612269D01*
X127377243Y-63761300D01*
X127365910Y-63870683D01*
X127283891Y-63966078D01*
X127080910Y-64015300D01*
X126784577Y-64057633D01*
X126742243Y-65242967D01*
X126735296Y-65426838D01*
X126709335Y-65908199D01*
X126669666Y-66260543D01*
X126606365Y-66514504D01*
X126509504Y-66700716D01*
X126369160Y-66849813D01*
X126175406Y-66992428D01*
X126148066Y-67009950D01*
X125877592Y-67112392D01*
X125514577Y-67128413D01*
X125414642Y-67122212D01*
X125203807Y-67092352D01*
X125101945Y-67029098D01*
X125063577Y-66910473D01*
X125082045Y-66697458D01*
X125229657Y-66530252D01*
X125497110Y-66470633D01*
X125528970Y-66470411D01*
X125733463Y-66449174D01*
X125878853Y-66376660D01*
X125974917Y-66229319D01*
X126031430Y-65983603D01*
X126058170Y-65615961D01*
X126064910Y-65102844D01*
X126064910Y-64015300D01*
X125650635Y-64015300D01*
X125535639Y-64012128D01*
X125275179Y-63958963D01*
X125161824Y-63835201D01*
X125187626Y-63634300D01*
X125210130Y-63597748D01*
X125359061Y-63528925D01*
X125650635Y-63507300D01*
X126064910Y-63507300D01*
X126066066Y-63020467D01*
X126077091Y-62656581D01*
X126119757Y-62365621D01*
X126202109Y-62191257D01*
X126332115Y-62106109D01*
X126339677Y-62103762D01*
X126521483Y-62095040D01*
X126646464Y-62207991D01*
G37*
G36*
X144953163Y-78563905D02*
G01*
X144701612Y-78789372D01*
X144643336Y-78818219D01*
X144297695Y-78905104D01*
X143944680Y-78881007D01*
X143654184Y-78748645D01*
X143635049Y-78733601D01*
X143496493Y-78633716D01*
X143434262Y-78638731D01*
X143396693Y-78748645D01*
X143368098Y-78821761D01*
X143254587Y-78909954D01*
X143124468Y-78865806D01*
X143030976Y-78696858D01*
X143005358Y-78474180D01*
X143014925Y-78140494D01*
X143057817Y-77782509D01*
X143062409Y-77761099D01*
X143413519Y-77761099D01*
X143447002Y-78081784D01*
X143629395Y-78370148D01*
X143777058Y-78488016D01*
X144075659Y-78585206D01*
X144377362Y-78524372D01*
X144650120Y-78307484D01*
X144751432Y-78175483D01*
X144837330Y-77975153D01*
X144829690Y-77741045D01*
X144755102Y-77490222D01*
X144546071Y-77229618D01*
X144219860Y-77090857D01*
X144110573Y-77076366D01*
X143911743Y-77114392D01*
X143690988Y-77265658D01*
X143526514Y-77451726D01*
X143413519Y-77761099D01*
X143062409Y-77761099D01*
X143125989Y-77464687D01*
X143211393Y-77251488D01*
X143438526Y-77003896D01*
X143773945Y-76826337D01*
X144145364Y-76770187D01*
X144512911Y-76834061D01*
X144836715Y-77016572D01*
X145076904Y-77316335D01*
X145143985Y-77485506D01*
X145187537Y-77860212D01*
X145166789Y-77975153D01*
X145119534Y-78236932D01*
X144953163Y-78563905D01*
G37*
G36*
X97589630Y-75874795D02*
G01*
X97635097Y-75909737D01*
X97666237Y-75996899D01*
X97685752Y-76159703D01*
X97696345Y-76421571D01*
X97700719Y-76805925D01*
X97701577Y-77336189D01*
X97699420Y-77733522D01*
X97691495Y-78169229D01*
X97678783Y-78521659D01*
X97662376Y-78762127D01*
X97643368Y-78861953D01*
X97615524Y-78885841D01*
X97504760Y-78890381D01*
X97418080Y-78739801D01*
X97362910Y-78445136D01*
X97327315Y-78219126D01*
X97249644Y-78052875D01*
X97126949Y-78036553D01*
X96948293Y-78170313D01*
X96702741Y-78454305D01*
X96680857Y-78481883D01*
X96442972Y-78747503D01*
X96257090Y-78891030D01*
X96136104Y-78905493D01*
X96092910Y-78783923D01*
X96093305Y-78777458D01*
X96152249Y-78641023D01*
X96291829Y-78424265D01*
X96484060Y-78171035D01*
X96875209Y-77690858D01*
X96484060Y-77346665D01*
X96306486Y-77179850D01*
X96152258Y-77009254D01*
X96092910Y-76906216D01*
X96092971Y-76899135D01*
X96137113Y-76781385D01*
X96267661Y-76788167D01*
X96491126Y-76922003D01*
X96814023Y-77185416D01*
X97362910Y-77667312D01*
X97362910Y-76767973D01*
X97363020Y-76640770D01*
X97366737Y-76283411D01*
X97379913Y-76057289D01*
X97408152Y-75932633D01*
X97457060Y-75879671D01*
X97532243Y-75868633D01*
X97589630Y-75874795D01*
G37*
G36*
X107472243Y-75870074D02*
G01*
X107527077Y-75891196D01*
X107564685Y-75957356D01*
X107588304Y-76093414D01*
X107601168Y-76324226D01*
X107606514Y-76674651D01*
X107607577Y-77169548D01*
X107607542Y-77265237D01*
X107605104Y-77741808D01*
X107596336Y-78083727D01*
X107577760Y-78320662D01*
X107545900Y-78482278D01*
X107497279Y-78598244D01*
X107428420Y-78698224D01*
X107244344Y-78864783D01*
X107026978Y-78900142D01*
X107018368Y-78899048D01*
X106854066Y-78833358D01*
X106772153Y-78724711D01*
X106789020Y-78622962D01*
X106921056Y-78577967D01*
X107036126Y-78556910D01*
X107132607Y-78470898D01*
X107199372Y-78298908D01*
X107241174Y-78020187D01*
X107262769Y-77613980D01*
X107268910Y-77059533D01*
X107268934Y-76962883D01*
X107270801Y-76520351D01*
X107278286Y-76216498D01*
X107295081Y-76025363D01*
X107324878Y-75920982D01*
X107371368Y-75877393D01*
X107438243Y-75868633D01*
X107472243Y-75870074D01*
G37*
G36*
X95477407Y-62654155D02*
G01*
X95477369Y-62796609D01*
X95414295Y-63045517D01*
X95366188Y-63235360D01*
X95323168Y-63639692D01*
X95337891Y-64049753D01*
X95410584Y-64383169D01*
X95471390Y-64575505D01*
X95500243Y-64740478D01*
X95497396Y-64797165D01*
X95457235Y-64874411D01*
X95382560Y-64817934D01*
X95289993Y-64647321D01*
X95196157Y-64382159D01*
X95103147Y-63849836D01*
X95134566Y-63299871D01*
X95297697Y-62813352D01*
X95325464Y-62762459D01*
X95423681Y-62636617D01*
X95477407Y-62654155D01*
G37*
G36*
X98693503Y-62576249D02*
G01*
X99014758Y-62589240D01*
X99231027Y-62618704D01*
X99310243Y-62660633D01*
X99307684Y-62671745D01*
X99209778Y-62724034D01*
X99013910Y-62745300D01*
X98717577Y-62745300D01*
X98717577Y-63549633D01*
X98717365Y-63615269D01*
X98703473Y-64020849D01*
X98673017Y-64262322D01*
X98633232Y-64338871D01*
X98591353Y-64249679D01*
X98554616Y-63993927D01*
X98530254Y-63570800D01*
X98505910Y-62787633D01*
X98230743Y-62761102D01*
X98111989Y-62746517D01*
X97962695Y-62706074D01*
X97957211Y-62660939D01*
X98078465Y-62618971D01*
X98309388Y-62588027D01*
X98632910Y-62575967D01*
X98693503Y-62576249D01*
G37*
G36*
X139416380Y-76805844D02*
G01*
X139467997Y-76843666D01*
X139500424Y-76940986D01*
X139518095Y-77125261D01*
X139525445Y-77423950D01*
X139526910Y-77864508D01*
X139526379Y-78133852D01*
X139521318Y-78491051D01*
X139507778Y-78720074D01*
X139482005Y-78847176D01*
X139440245Y-78898614D01*
X139378743Y-78900644D01*
X139361074Y-78896339D01*
X139303072Y-78855837D01*
X139263143Y-78757416D01*
X139236788Y-78573222D01*
X139219508Y-78275402D01*
X139206804Y-77836102D01*
X139199367Y-77476745D01*
X139197848Y-77158859D01*
X139208668Y-76960080D01*
X139235807Y-76852567D01*
X139283248Y-76808476D01*
X139354971Y-76799967D01*
X139416380Y-76805844D01*
G37*
G36*
X174747104Y-58102833D02*
G01*
X174551108Y-58454413D01*
X174304435Y-58893020D01*
X174017496Y-59400425D01*
X173700698Y-59958400D01*
X173364452Y-60548717D01*
X173019166Y-61153147D01*
X172675249Y-61753461D01*
X172343111Y-62331432D01*
X172033162Y-62868831D01*
X171755809Y-63347428D01*
X171521463Y-63748997D01*
X171340532Y-64055308D01*
X171223425Y-64248133D01*
X171103673Y-64438633D01*
X163360577Y-64433641D01*
X161455577Y-61122907D01*
X161143813Y-60580790D01*
X160770432Y-59930703D01*
X160430073Y-59337199D01*
X160131324Y-58815300D01*
X159882773Y-58380029D01*
X159693006Y-58046407D01*
X159570612Y-57829457D01*
X159524176Y-57744201D01*
X159548073Y-57683632D01*
X161712132Y-57683632D01*
X161726459Y-57718010D01*
X161812462Y-57882220D01*
X161967466Y-58164487D01*
X162181478Y-58546996D01*
X162444501Y-59011929D01*
X162746542Y-59541469D01*
X163077606Y-60117798D01*
X164445635Y-62491300D01*
X170049243Y-62490354D01*
X171403910Y-60146138D01*
X171589822Y-59824284D01*
X171906416Y-59275516D01*
X172189640Y-58783740D01*
X172429205Y-58366871D01*
X172614821Y-58042821D01*
X172736201Y-57829506D01*
X172783056Y-57744839D01*
X172769846Y-57706406D01*
X172685395Y-57537422D01*
X172531740Y-57251072D01*
X172318648Y-56864989D01*
X172055888Y-56396808D01*
X171753226Y-55864165D01*
X171420430Y-55284694D01*
X170033323Y-52881633D01*
X164463121Y-52881633D01*
X163088904Y-55252300D01*
X162887850Y-55599744D01*
X162571123Y-56149692D01*
X162289269Y-56642315D01*
X162052366Y-57059815D01*
X161870491Y-57384399D01*
X161753721Y-57598269D01*
X161712132Y-57683632D01*
X159548073Y-57683632D01*
X159548778Y-57681845D01*
X159649513Y-57485182D01*
X159820042Y-57169513D01*
X160052067Y-56749722D01*
X160337291Y-56240694D01*
X160667416Y-55657314D01*
X161034143Y-55014466D01*
X161429176Y-54327035D01*
X163360577Y-50977842D01*
X167255243Y-50980325D01*
X171149910Y-50982808D01*
X173054910Y-54302887D01*
X173368254Y-54850629D01*
X173739200Y-55503567D01*
X174075772Y-56100981D01*
X174369566Y-56627696D01*
X174612183Y-57068536D01*
X174795219Y-57408325D01*
X174910273Y-57631887D01*
X174948943Y-57724047D01*
X174945430Y-57733668D01*
X174939663Y-57744839D01*
X174882014Y-57856509D01*
X174747104Y-58102833D01*
G37*
G36*
X98729915Y-76744871D02*
G01*
X99012216Y-76847903D01*
X99204406Y-76921935D01*
X99294439Y-76889715D01*
X99337663Y-76840458D01*
X99486632Y-76799967D01*
X99525662Y-76802518D01*
X99582186Y-76832594D01*
X99618215Y-76919425D01*
X99638307Y-77091152D01*
X99647019Y-77375915D01*
X99648910Y-77801855D01*
X99644637Y-78187512D01*
X99632546Y-78521944D01*
X99614525Y-78757992D01*
X99592466Y-78860189D01*
X99567128Y-78879024D01*
X99423132Y-78916633D01*
X99384098Y-78899943D01*
X99340543Y-78792740D01*
X99317187Y-78565223D01*
X99310243Y-78193118D01*
X99309366Y-77999462D01*
X99298383Y-77704538D01*
X99266838Y-77512887D01*
X99204821Y-77380104D01*
X99102425Y-77261785D01*
X99093585Y-77253048D01*
X98859156Y-77098925D01*
X98552092Y-77053967D01*
X98493915Y-77053148D01*
X98278378Y-77020294D01*
X98209577Y-76936025D01*
X98209814Y-76926224D01*
X98287133Y-76788596D01*
X98474360Y-76726623D01*
X98729915Y-76744871D01*
G37*
G36*
X112547316Y-65474084D02*
G01*
X112438580Y-66028669D01*
X112199470Y-66476936D01*
X111826117Y-66824608D01*
X111314653Y-67077404D01*
X110801108Y-67191195D01*
X110221967Y-67159173D01*
X109647007Y-66959829D01*
X109426779Y-66836026D01*
X109294700Y-66706794D01*
X109258577Y-66556459D01*
X109281489Y-66423687D01*
X109400509Y-66326291D01*
X109629912Y-66339860D01*
X109979546Y-66463121D01*
X110126927Y-66520773D01*
X110411417Y-66605573D01*
X110628939Y-66638107D01*
X110777385Y-66624635D01*
X111151729Y-66504917D01*
X111496885Y-66292658D01*
X111743159Y-66026137D01*
X111819174Y-65901880D01*
X111905894Y-65738295D01*
X111928428Y-65620524D01*
X111869255Y-65540469D01*
X111710854Y-65490033D01*
X111435704Y-65461118D01*
X111026286Y-65445628D01*
X110465077Y-65435466D01*
X109004577Y-65412300D01*
X108979474Y-65027337D01*
X108994977Y-64832154D01*
X109554910Y-64832154D01*
X109585758Y-64877615D01*
X109697651Y-64911002D01*
X109912673Y-64932216D01*
X110252858Y-64943384D01*
X110740243Y-64946633D01*
X111125040Y-64945783D01*
X111506540Y-64937367D01*
X111752201Y-64912317D01*
X111881198Y-64861563D01*
X111912708Y-64776038D01*
X111865906Y-64646674D01*
X111759969Y-64464400D01*
X111539694Y-64193357D01*
X111194517Y-63970155D01*
X110807765Y-63881619D01*
X110414342Y-63928349D01*
X110049152Y-64110939D01*
X109747098Y-64429987D01*
X109709510Y-64488467D01*
X109599259Y-64692827D01*
X109554910Y-64832154D01*
X108994977Y-64832154D01*
X109009652Y-64647395D01*
X109173531Y-64199883D01*
X109449821Y-63809736D01*
X109810100Y-63528251D01*
X109959264Y-63453930D01*
X110185095Y-63376844D01*
X110442054Y-63347576D01*
X110798408Y-63354096D01*
X111024185Y-63368393D01*
X111312774Y-63411453D01*
X111539555Y-63495202D01*
X111772074Y-63639435D01*
X111970864Y-63796152D01*
X112300561Y-64189169D01*
X112492429Y-64665362D01*
X112504477Y-64776038D01*
X112555284Y-65242782D01*
X112547316Y-65474084D01*
G37*
G36*
X131890599Y-76740748D02*
G01*
X132129993Y-76815413D01*
X132149438Y-76822317D01*
X132426320Y-76891594D01*
X132573815Y-76861195D01*
X132630209Y-76827368D01*
X132790219Y-76828400D01*
X132820252Y-76845074D01*
X132871417Y-76923923D01*
X132902803Y-77083774D01*
X132918578Y-77354020D01*
X132922910Y-77764051D01*
X132920528Y-78032040D01*
X132909684Y-78381738D01*
X132892078Y-78647592D01*
X132869923Y-78786865D01*
X132822517Y-78854525D01*
X132679423Y-78898769D01*
X132678662Y-78898621D01*
X132609023Y-78852826D01*
X132560589Y-78727842D01*
X132526420Y-78493621D01*
X132499577Y-78120116D01*
X132482924Y-77852995D01*
X132454856Y-77580104D01*
X132411569Y-77407512D01*
X132341174Y-77294357D01*
X132231781Y-77199775D01*
X132044893Y-77100940D01*
X131757307Y-77094691D01*
X131443803Y-77253259D01*
X131439736Y-77256272D01*
X131356013Y-77348561D01*
X131299481Y-77499471D01*
X131261176Y-77745906D01*
X131232137Y-78124770D01*
X131206613Y-78468724D01*
X131172326Y-78712226D01*
X131125621Y-78838327D01*
X131060243Y-78874300D01*
X131001069Y-78847821D01*
X130956295Y-78738298D01*
X130928465Y-78516778D01*
X130911666Y-78154633D01*
X130909375Y-77786405D01*
X130944008Y-77430003D01*
X131034098Y-77178239D01*
X131193707Y-76996151D01*
X131436899Y-76848776D01*
X131520739Y-76808606D01*
X131717353Y-76737043D01*
X131890599Y-76740748D01*
G37*
G36*
X130133409Y-78379245D02*
G01*
X129862762Y-78702196D01*
X129542338Y-78875456D01*
X129162835Y-78908900D01*
X128774245Y-78789634D01*
X128623774Y-78719291D01*
X128521061Y-78714770D01*
X128450264Y-78802714D01*
X128388478Y-78872160D01*
X128234391Y-78890037D01*
X128210170Y-78878349D01*
X128141798Y-78789516D01*
X128106770Y-78604040D01*
X128096910Y-78286004D01*
X128130550Y-77773210D01*
X128131296Y-77770559D01*
X128503023Y-77770559D01*
X128545877Y-78102993D01*
X128695869Y-78372997D01*
X128889900Y-78518158D01*
X129197577Y-78577967D01*
X129428920Y-78541075D01*
X129678379Y-78387349D01*
X129839072Y-78149767D01*
X129904030Y-77867285D01*
X129866285Y-77578855D01*
X129718868Y-77323434D01*
X129454813Y-77139973D01*
X129381641Y-77114921D01*
X129075353Y-77100585D01*
X128791453Y-77207163D01*
X128593208Y-77414499D01*
X128575323Y-77450555D01*
X128503023Y-77770559D01*
X128131296Y-77770559D01*
X128242737Y-77374584D01*
X128444547Y-77083932D01*
X128747027Y-76877315D01*
X128790650Y-76856420D01*
X129033396Y-76759182D01*
X129225285Y-76740033D01*
X129447408Y-76788715D01*
X129480873Y-76799222D01*
X129854272Y-76997525D01*
X130113589Y-77288600D01*
X130251459Y-77638526D01*
X130256989Y-77867285D01*
X130260520Y-78013381D01*
X130133409Y-78379245D01*
G37*
G36*
X107967204Y-66430933D02*
G01*
X108153109Y-66574139D01*
X108257814Y-66761913D01*
X108259448Y-66952014D01*
X108115577Y-67147967D01*
X107967069Y-67263286D01*
X107738781Y-67304505D01*
X107508410Y-67177178D01*
X107476227Y-67143768D01*
X107374022Y-66928042D01*
X107364915Y-66682238D01*
X107455177Y-66487567D01*
X107504419Y-66448039D01*
X107725416Y-66385729D01*
X107967204Y-66430933D01*
G37*
G36*
X113774836Y-75988273D02*
G01*
X113783860Y-75997407D01*
X113856309Y-76119187D01*
X113788756Y-76249015D01*
X113785566Y-76252811D01*
X113621491Y-76354134D01*
X113467212Y-76316508D01*
X113381600Y-76153711D01*
X113379920Y-76089566D01*
X113456170Y-75947440D01*
X113607973Y-75905192D01*
X113774836Y-75988273D01*
G37*
G36*
X104294915Y-65510894D02*
G01*
X104176867Y-66064605D01*
X103923006Y-66518301D01*
X103535571Y-66868796D01*
X103016799Y-67112901D01*
X102686040Y-67188001D01*
X102145204Y-67187249D01*
X101624711Y-67048066D01*
X101162931Y-66782722D01*
X100798231Y-66403484D01*
X100740776Y-66318673D01*
X100614233Y-66080386D01*
X100544716Y-65817827D01*
X100510187Y-65458715D01*
X100507777Y-65378394D01*
X101141447Y-65378394D01*
X101225219Y-65780944D01*
X101419794Y-66132609D01*
X101726239Y-66395748D01*
X102155294Y-66559438D01*
X102579085Y-66579388D01*
X102967983Y-66469177D01*
X103292750Y-66242608D01*
X103524149Y-65913484D01*
X103632942Y-65495608D01*
X103649149Y-65119310D01*
X103611939Y-64824711D01*
X103502683Y-64583879D01*
X103305204Y-64339761D01*
X103228054Y-64258887D01*
X103025519Y-64083872D01*
X102818866Y-63994017D01*
X102529840Y-63949983D01*
X102367597Y-63938665D01*
X102055903Y-63960242D01*
X101792545Y-64059987D01*
X101544260Y-64241849D01*
X101302036Y-64571205D01*
X101167409Y-64962601D01*
X101141447Y-65378394D01*
X100507777Y-65378394D01*
X100503007Y-65219449D01*
X100548164Y-64726011D01*
X100692280Y-64318517D01*
X100948313Y-63952414D01*
X101313688Y-63633459D01*
X101804077Y-63414324D01*
X102382130Y-63339826D01*
X102718366Y-63360406D01*
X103258704Y-63505777D01*
X103698143Y-63781233D01*
X104025947Y-64175935D01*
X104231383Y-64679048D01*
X104284399Y-65119310D01*
X104303717Y-65279735D01*
X104294915Y-65510894D01*
G37*
G36*
X119245063Y-65583274D02*
G01*
X119214121Y-65763958D01*
X119171440Y-65910310D01*
X119115129Y-66047300D01*
X119043230Y-66195082D01*
X118749284Y-66622855D01*
X118363794Y-66933924D01*
X117852792Y-67158186D01*
X117843944Y-67160999D01*
X117513645Y-67203913D01*
X117108460Y-67172460D01*
X116697515Y-67077196D01*
X116349930Y-66928676D01*
X116022696Y-66681170D01*
X115697163Y-66264444D01*
X115495554Y-65770063D01*
X115431795Y-65246193D01*
X116076103Y-65246193D01*
X116127909Y-65535516D01*
X116267727Y-65872754D01*
X116459451Y-66182488D01*
X116666910Y-66394422D01*
X116670908Y-66397155D01*
X117060434Y-66569064D01*
X117471846Y-66591423D01*
X117870933Y-66474212D01*
X118223484Y-66227412D01*
X118495288Y-65861004D01*
X118569519Y-65656142D01*
X118612216Y-65271070D01*
X118569826Y-64873702D01*
X118445368Y-64543693D01*
X118298824Y-64346897D01*
X117968744Y-64086292D01*
X117587064Y-63951670D01*
X117188339Y-63941493D01*
X116807123Y-64054218D01*
X116477971Y-64288307D01*
X116235439Y-64642217D01*
X116203185Y-64718597D01*
X116113175Y-65004144D01*
X116076103Y-65246193D01*
X115431795Y-65246193D01*
X115429850Y-65230216D01*
X115512030Y-64677097D01*
X115581674Y-64469866D01*
X115846464Y-63980549D01*
X116210795Y-63626176D01*
X116669666Y-63410673D01*
X117218075Y-63337967D01*
X117504802Y-63355873D01*
X117997939Y-63497041D01*
X118423743Y-63785962D01*
X118614243Y-63960150D01*
X118614243Y-62890037D01*
X118614904Y-62598010D01*
X118620692Y-62241425D01*
X118636107Y-62006057D01*
X118665495Y-61862109D01*
X118713203Y-61779788D01*
X118783577Y-61729300D01*
X118905737Y-61684993D01*
X119122243Y-61729300D01*
X119170425Y-61760476D01*
X119213371Y-61814938D01*
X119244706Y-61909860D01*
X119266215Y-62066721D01*
X119279685Y-62306997D01*
X119286901Y-62652169D01*
X119289650Y-63123714D01*
X119289717Y-63743112D01*
X119289293Y-64017814D01*
X119286383Y-64585527D01*
X119279302Y-65019028D01*
X119269087Y-65271070D01*
X119266160Y-65343287D01*
X119245063Y-65583274D01*
G37*
G36*
X135433791Y-78553651D02*
G01*
X135116082Y-78814378D01*
X134841715Y-78891835D01*
X134492208Y-78888772D01*
X134152105Y-78809166D01*
X133896271Y-78662346D01*
X133786478Y-78543285D01*
X133594649Y-78184482D01*
X133541185Y-77790493D01*
X133554202Y-77732005D01*
X133915275Y-77732005D01*
X133941494Y-78072065D01*
X134134689Y-78387467D01*
X134270970Y-78496031D01*
X134556028Y-78580560D01*
X134856575Y-78542435D01*
X135109485Y-78382010D01*
X135236875Y-78170397D01*
X135297534Y-77861059D01*
X135261069Y-77551383D01*
X135126397Y-77310120D01*
X135036656Y-77231868D01*
X134740693Y-77094621D01*
X134438329Y-77099281D01*
X134171361Y-77238706D01*
X133981586Y-77505754D01*
X133915275Y-77732005D01*
X133554202Y-77732005D01*
X133627218Y-77403917D01*
X133853880Y-77067355D01*
X133863980Y-77057365D01*
X134209883Y-76825120D01*
X134601475Y-76754281D01*
X135026849Y-76847086D01*
X135079454Y-76869284D01*
X135408015Y-77089945D01*
X135601573Y-77405794D01*
X135668828Y-77830153D01*
X135664784Y-77861059D01*
X135621273Y-78193618D01*
X135433791Y-78553651D01*
G37*
G36*
X113666049Y-76803067D02*
G01*
X113722773Y-76833694D01*
X113758579Y-76920634D01*
X113778243Y-77092139D01*
X113786539Y-77376462D01*
X113788243Y-77801855D01*
X113783970Y-78187512D01*
X113771879Y-78521944D01*
X113753858Y-78757992D01*
X113731799Y-78860189D01*
X113706461Y-78879024D01*
X113562466Y-78916633D01*
X113531786Y-78904530D01*
X113492235Y-78818331D01*
X113466943Y-78630163D01*
X113453520Y-78317621D01*
X113449577Y-77858300D01*
X113450438Y-77499408D01*
X113456356Y-77174255D01*
X113471761Y-76969242D01*
X113501054Y-76856862D01*
X113548637Y-76809606D01*
X113618910Y-76799967D01*
X113666049Y-76803067D01*
G37*
G36*
X137749729Y-63378731D02*
G01*
X138117596Y-63537940D01*
X138499104Y-63761519D01*
X138526174Y-63570909D01*
X138574188Y-63447271D01*
X138748404Y-63352634D01*
X138858449Y-63341611D01*
X138974033Y-63355894D01*
X139058991Y-63421264D01*
X139118005Y-63557425D01*
X139155756Y-63784082D01*
X139176925Y-64120940D01*
X139186194Y-64587703D01*
X139188243Y-65204075D01*
X139188203Y-65269727D01*
X139184997Y-65788010D01*
X139177253Y-66250397D01*
X139165802Y-66628530D01*
X139151475Y-66894051D01*
X139135103Y-67018600D01*
X139040126Y-67114365D01*
X138817603Y-67131358D01*
X138553243Y-67105633D01*
X138468577Y-64424207D01*
X138192074Y-64177420D01*
X138080769Y-64085734D01*
X137905575Y-63985674D01*
X137692189Y-63931770D01*
X137397265Y-63915070D01*
X136977457Y-63926625D01*
X136702520Y-63908137D01*
X136533104Y-63818712D01*
X136510634Y-63669482D01*
X136644578Y-63473336D01*
X136721073Y-63412933D01*
X137003377Y-63314118D01*
X137362292Y-63303420D01*
X137749729Y-63378731D01*
G37*
G36*
X130081041Y-63411593D02*
G01*
X130565080Y-63625488D01*
X130962140Y-63983199D01*
X131073560Y-64133055D01*
X131300541Y-64604099D01*
X131394095Y-65109867D01*
X131362166Y-65620233D01*
X131212702Y-66105076D01*
X130953649Y-66534271D01*
X130592952Y-66877697D01*
X130138560Y-67105230D01*
X129967741Y-67151138D01*
X129476744Y-67200586D01*
X128994305Y-67143533D01*
X128567357Y-66988885D01*
X128242836Y-66745546D01*
X128197402Y-66689190D01*
X128132787Y-66510962D01*
X128194663Y-66379699D01*
X128351070Y-66312441D01*
X128570045Y-66326223D01*
X128819627Y-66438084D01*
X129054887Y-66537632D01*
X129424661Y-66580985D01*
X129811922Y-66534651D01*
X130147597Y-66400581D01*
X130253388Y-66328147D01*
X130533885Y-66018928D01*
X130682757Y-65612805D01*
X130704052Y-65100319D01*
X130689970Y-64938632D01*
X130641632Y-64686100D01*
X130542645Y-64495417D01*
X130362087Y-64293632D01*
X130346721Y-64278346D01*
X130127415Y-64091404D01*
X129908648Y-63995458D01*
X129605800Y-63952319D01*
X129471635Y-63943709D01*
X129224618Y-63954667D01*
X129012077Y-64028123D01*
X128751476Y-64186723D01*
X128676728Y-64235999D01*
X128459656Y-64361493D01*
X128321883Y-64396078D01*
X128222310Y-64352638D01*
X128118040Y-64215399D01*
X128115336Y-64021505D01*
X128237064Y-63822829D01*
X128460353Y-63637345D01*
X128762331Y-63483033D01*
X129120128Y-63377867D01*
X129510872Y-63339826D01*
X130081041Y-63411593D01*
G37*
G36*
X125119428Y-78546821D02*
G01*
X125120021Y-78569506D01*
X125126594Y-78983156D01*
X125124762Y-79339816D01*
X125115183Y-79602080D01*
X125098518Y-79732540D01*
X125050257Y-79795648D01*
X124901000Y-79832159D01*
X124838409Y-79805314D01*
X124781589Y-79710447D01*
X124747801Y-79516241D01*
X124727637Y-79187725D01*
X124702697Y-78571612D01*
X124483385Y-78744123D01*
X124325292Y-78843459D01*
X123981370Y-78925453D01*
X123630851Y-78854423D01*
X123309767Y-78633757D01*
X123079807Y-78350107D01*
X122952591Y-78006784D01*
X122959012Y-77833720D01*
X123308713Y-77833720D01*
X123358375Y-78108148D01*
X123552285Y-78387467D01*
X123689176Y-78496687D01*
X123973588Y-78580674D01*
X124273601Y-78542330D01*
X124526152Y-78382010D01*
X124683048Y-78110478D01*
X124714901Y-77795262D01*
X124630634Y-77488475D01*
X124443483Y-77237679D01*
X124166686Y-77090435D01*
X124047850Y-77076512D01*
X123766676Y-77145961D01*
X123518916Y-77328605D01*
X123360327Y-77589905D01*
X123308713Y-77833720D01*
X122959012Y-77833720D01*
X122967161Y-77614054D01*
X123101814Y-77276363D01*
X123377469Y-76984639D01*
X123760683Y-76795424D01*
X123980565Y-76742790D01*
X124182313Y-76754123D01*
X124421343Y-76852543D01*
X124659651Y-76986362D01*
X124846136Y-77145342D01*
X124972647Y-77350035D01*
X125051895Y-77631283D01*
X125070751Y-77795262D01*
X125096586Y-78019930D01*
X125119428Y-78546821D01*
G37*
G36*
X136611028Y-76803238D02*
G01*
X136667849Y-76834015D01*
X136703594Y-76920981D01*
X136723117Y-77092421D01*
X136731271Y-77376618D01*
X136732910Y-77801855D01*
X136728508Y-78187427D01*
X136716041Y-78522341D01*
X136697455Y-78759033D01*
X136674702Y-78861953D01*
X136674570Y-78862084D01*
X136581924Y-78914022D01*
X136512799Y-78850097D01*
X136463820Y-78657017D01*
X136431613Y-78321488D01*
X136412804Y-77830216D01*
X136405472Y-77479045D01*
X136403811Y-77160123D01*
X136414515Y-76960674D01*
X136441599Y-76852779D01*
X136489079Y-76808516D01*
X136560971Y-76799967D01*
X136611028Y-76803238D01*
G37*
G36*
X112160623Y-76867013D02*
G01*
X112451297Y-77098235D01*
X112644770Y-77435797D01*
X112715362Y-77858666D01*
X112681310Y-78184173D01*
X112529387Y-78503918D01*
X112237673Y-78756544D01*
X112183104Y-78787057D01*
X111886395Y-78876704D01*
X111548715Y-78893579D01*
X111235632Y-78839776D01*
X111012717Y-78717392D01*
X110947915Y-78629984D01*
X110942904Y-78500597D01*
X111050280Y-78439662D01*
X111233588Y-78485456D01*
X111496529Y-78579520D01*
X111821520Y-78568742D01*
X112093214Y-78422983D01*
X112279661Y-78161750D01*
X112348910Y-77804548D01*
X112317442Y-77564492D01*
X112168530Y-77288252D01*
X111926043Y-77125734D01*
X111622016Y-77094801D01*
X111288486Y-77213315D01*
X111096098Y-77316372D01*
X110992130Y-77332368D01*
X110939378Y-77263505D01*
X110937791Y-77259254D01*
X110952467Y-77079665D01*
X111119297Y-76920836D01*
X111421540Y-76798899D01*
X111798428Y-76763167D01*
X112160623Y-76867013D01*
G37*
G36*
X138172636Y-76113460D02*
G01*
X138219358Y-76239536D01*
X138256910Y-76461300D01*
X138295885Y-76695367D01*
X138365388Y-76822150D01*
X138489743Y-76869355D01*
X138524555Y-76875231D01*
X138661749Y-76941387D01*
X138642434Y-77037534D01*
X138468577Y-77138633D01*
X138410598Y-77162542D01*
X138325655Y-77223773D01*
X138279595Y-77333616D01*
X138260614Y-77532300D01*
X138256910Y-77860053D01*
X138256840Y-77911793D01*
X138248831Y-78233195D01*
X138218847Y-78441151D01*
X138154555Y-78585051D01*
X138043624Y-78714283D01*
X137856105Y-78855399D01*
X137599848Y-78900934D01*
X137444163Y-78860321D01*
X137347863Y-78757256D01*
X137399098Y-78635362D01*
X137598053Y-78532732D01*
X137875910Y-78450967D01*
X137925366Y-77138633D01*
X137667805Y-77138633D01*
X137484881Y-77111831D01*
X137410243Y-77011633D01*
X137462591Y-76922497D01*
X137664243Y-76884633D01*
X137760068Y-76882479D01*
X137868367Y-76848880D01*
X137910880Y-76737916D01*
X137918243Y-76503633D01*
X137922128Y-76389771D01*
X137952417Y-76198307D01*
X138002910Y-76122633D01*
X138011240Y-76122538D01*
X138151077Y-76101467D01*
X138172636Y-76113460D01*
G37*
G36*
X102387424Y-78220299D02*
G01*
X102223010Y-78549609D01*
X101955013Y-78784097D01*
X101612096Y-78894858D01*
X101237935Y-78895632D01*
X100881341Y-78798296D01*
X100589299Y-78615713D01*
X100408800Y-78360749D01*
X100393334Y-78313533D01*
X100345508Y-78061543D01*
X100326243Y-77774617D01*
X100326655Y-77766215D01*
X100666007Y-77766215D01*
X100692092Y-78084422D01*
X100872728Y-78370148D01*
X101094836Y-78512352D01*
X101420445Y-78577453D01*
X101746192Y-78521300D01*
X101827450Y-78460624D01*
X101959119Y-78268441D01*
X102062436Y-78019615D01*
X102104243Y-77782559D01*
X102090735Y-77676600D01*
X101960748Y-77419844D01*
X101731665Y-77206018D01*
X101451469Y-77086304D01*
X101283859Y-77070332D01*
X101115518Y-77125976D01*
X100922302Y-77291549D01*
X100792947Y-77448728D01*
X100666007Y-77766215D01*
X100326655Y-77766215D01*
X100331446Y-77668567D01*
X100438057Y-77310337D01*
X100656710Y-77033523D01*
X100953653Y-76847952D01*
X101295135Y-76763452D01*
X101647407Y-76789850D01*
X101976717Y-76936975D01*
X102249315Y-77214654D01*
X102371528Y-77458368D01*
X102429271Y-77782559D01*
X102439761Y-77841455D01*
X102387424Y-78220299D01*
G37*
G36*
X139561328Y-75992906D02*
G01*
X139612530Y-76163018D01*
X139555132Y-76320189D01*
X139520376Y-76347710D01*
X139354398Y-76364545D01*
X139184717Y-76245384D01*
X139181458Y-76241434D01*
X139120946Y-76113772D01*
X139201651Y-75988273D01*
X139297323Y-75926358D01*
X139469545Y-75916914D01*
X139561328Y-75992906D01*
G37*
G36*
X121569429Y-76819445D02*
G01*
X121583174Y-76824796D01*
X121845544Y-76897193D01*
X121987952Y-76863725D01*
X122045454Y-76828724D01*
X122206886Y-76828400D01*
X122236919Y-76845074D01*
X122288084Y-76923923D01*
X122319470Y-77083774D01*
X122335245Y-77354020D01*
X122339577Y-77764051D01*
X122337195Y-78032040D01*
X122326351Y-78381738D01*
X122308745Y-78647592D01*
X122286590Y-78786865D01*
X122239182Y-78854523D01*
X122096090Y-78898751D01*
X122081448Y-78895021D01*
X122018030Y-78839944D01*
X121973626Y-78703934D01*
X121941832Y-78457524D01*
X121916243Y-78071248D01*
X121894505Y-77709917D01*
X121867690Y-77461764D01*
X121826799Y-77312083D01*
X121761695Y-77224640D01*
X121662243Y-77163201D01*
X121648241Y-77156455D01*
X121408360Y-77085218D01*
X121133077Y-77055215D01*
X120983353Y-77045369D01*
X120838454Y-76989562D01*
X120850790Y-76897693D01*
X121026363Y-76784962D01*
X121117085Y-76750948D01*
X121310832Y-76740966D01*
X121569429Y-76819445D01*
G37*
G36*
X124249953Y-65527767D02*
G01*
X124110247Y-66096296D01*
X123842461Y-66562530D01*
X123453988Y-66916523D01*
X122952221Y-67148329D01*
X122761135Y-67195067D01*
X122545444Y-67225356D01*
X122441547Y-67221491D01*
X122150411Y-67165479D01*
X121830544Y-67062865D01*
X121547459Y-66936728D01*
X121366674Y-66810143D01*
X121339890Y-66781123D01*
X121189460Y-66657966D01*
X121100138Y-66687329D01*
X121054034Y-66872800D01*
X120992437Y-67054331D01*
X120832083Y-67133299D01*
X120741158Y-67142073D01*
X120590847Y-67118674D01*
X120490064Y-67019168D01*
X120429544Y-66820363D01*
X120400025Y-66499068D01*
X120392243Y-66032092D01*
X120392288Y-65991208D01*
X120407375Y-65401174D01*
X120428544Y-65197906D01*
X121086692Y-65197906D01*
X121130570Y-65652679D01*
X121326222Y-66059439D01*
X121667475Y-66394147D01*
X121932491Y-66535053D01*
X122324776Y-66606557D01*
X122710427Y-66542702D01*
X123060581Y-66360221D01*
X123346377Y-66075846D01*
X123538952Y-65706307D01*
X123609445Y-65268338D01*
X123574380Y-64940192D01*
X123421265Y-64549785D01*
X123172065Y-64246981D01*
X122854718Y-64038841D01*
X122497160Y-63932426D01*
X122127329Y-63934799D01*
X121773163Y-64053020D01*
X121462597Y-64294153D01*
X121223571Y-64665258D01*
X121200760Y-64719157D01*
X121086692Y-65197906D01*
X120428544Y-65197906D01*
X120455119Y-64942733D01*
X120543672Y-64581922D01*
X120681185Y-64284777D01*
X120875811Y-64017335D01*
X121145565Y-63740222D01*
X121519215Y-63491959D01*
X121947115Y-63368829D01*
X122474678Y-63351934D01*
X122964016Y-63418189D01*
X123409922Y-63597466D01*
X123766523Y-63903870D01*
X124060854Y-64354491D01*
X124155798Y-64548347D01*
X124244004Y-64794723D01*
X124274479Y-65046562D01*
X124267026Y-65268338D01*
X124263112Y-65384798D01*
X124249953Y-65527767D01*
G37*
G36*
X174945076Y-72630776D02*
G01*
X174878571Y-72759028D01*
X174741061Y-73010029D01*
X174542946Y-73365550D01*
X174294626Y-73807363D01*
X174006499Y-74317241D01*
X173688965Y-74876956D01*
X173352423Y-75468280D01*
X173007273Y-76072985D01*
X172663915Y-76672844D01*
X172332746Y-77249628D01*
X172024168Y-77785111D01*
X171748578Y-78261064D01*
X171516377Y-78659259D01*
X171337964Y-78961469D01*
X171223738Y-79149467D01*
X171103673Y-79339967D01*
X167232125Y-79337470D01*
X163360577Y-79334974D01*
X161455577Y-76024241D01*
X161143912Y-75482289D01*
X160770486Y-74832096D01*
X160430068Y-74238439D01*
X160131247Y-73716349D01*
X159882615Y-73280855D01*
X159692760Y-72946987D01*
X159570274Y-72729774D01*
X159523747Y-72644246D01*
X159546985Y-72584965D01*
X161711225Y-72584965D01*
X161725679Y-72619332D01*
X161811885Y-72783532D01*
X161967073Y-73065796D01*
X162181241Y-73448306D01*
X162444387Y-73913244D01*
X162746509Y-74442792D01*
X163077606Y-75019132D01*
X164445635Y-77392633D01*
X170049243Y-77391563D01*
X170182396Y-77159265D01*
X170193386Y-77140110D01*
X170287530Y-76976330D01*
X170451342Y-76691566D01*
X170672889Y-76306553D01*
X170940239Y-75842026D01*
X171241460Y-75318719D01*
X171564620Y-74757367D01*
X172813692Y-72587767D01*
X170032358Y-67782967D01*
X164464327Y-67782967D01*
X163088600Y-70153633D01*
X162887020Y-70501620D01*
X162570079Y-71051440D01*
X162288092Y-71543937D01*
X162051136Y-71961326D01*
X161869289Y-72285818D01*
X161752626Y-72499627D01*
X161711225Y-72584965D01*
X159546985Y-72584965D01*
X159548217Y-72581823D01*
X159648836Y-72385076D01*
X159819300Y-72069345D01*
X160051308Y-71649521D01*
X160336559Y-71140495D01*
X160666749Y-70557159D01*
X161033579Y-69914403D01*
X161428747Y-69227118D01*
X163360577Y-65879250D01*
X167255243Y-65881679D01*
X171149910Y-65884108D01*
X173054910Y-69201845D01*
X173367647Y-69748094D01*
X173738761Y-70400693D01*
X174075521Y-70997737D01*
X174369518Y-71524058D01*
X174612340Y-71964488D01*
X174795577Y-72303861D01*
X174910818Y-72527008D01*
X174936534Y-72587767D01*
X174949653Y-72618762D01*
X174945076Y-72630776D01*
G37*
G36*
X148317325Y-76141581D02*
G01*
X148331243Y-76158654D01*
X148392169Y-76326497D01*
X148416910Y-76562900D01*
X148424885Y-76734351D01*
X148473223Y-76854521D01*
X148586243Y-76884633D01*
X148684991Y-76908205D01*
X148755577Y-77011633D01*
X148728314Y-77082637D01*
X148597122Y-77138633D01*
X148570808Y-77139922D01*
X148499699Y-77173697D01*
X148453597Y-77278060D01*
X148423057Y-77485915D01*
X148398635Y-77830168D01*
X148389177Y-77983271D01*
X148361156Y-78281796D01*
X148316926Y-78474286D01*
X148242436Y-78606404D01*
X148123633Y-78723814D01*
X147926281Y-78851628D01*
X147666677Y-78900113D01*
X147515261Y-78859931D01*
X147422648Y-78756869D01*
X147475592Y-78634928D01*
X147673386Y-78532732D01*
X147951243Y-78450967D01*
X147975972Y-77794800D01*
X148000700Y-77138633D01*
X147743138Y-77138633D01*
X147560215Y-77111831D01*
X147485577Y-77011633D01*
X147537925Y-76922497D01*
X147739577Y-76884633D01*
X147781519Y-76884337D01*
X147924706Y-76862093D01*
X147982703Y-76769158D01*
X147993577Y-76556333D01*
X148006914Y-76382527D01*
X148076194Y-76176731D01*
X148186510Y-76087645D01*
X148317325Y-76141581D01*
G37*
G36*
X114181846Y-61670051D02*
G01*
X114332529Y-61777681D01*
X114345996Y-61792750D01*
X114384727Y-61865667D01*
X114414226Y-61988144D01*
X114435650Y-62180140D01*
X114450155Y-62461616D01*
X114458897Y-62852530D01*
X114463033Y-63372843D01*
X114463717Y-64042514D01*
X114462983Y-64460325D01*
X114459578Y-65039429D01*
X114452173Y-65485656D01*
X114439294Y-65821843D01*
X114419467Y-66070826D01*
X114391216Y-66255441D01*
X114353067Y-66398526D01*
X114303546Y-66522915D01*
X114263552Y-66603604D01*
X114106908Y-66845458D01*
X113947900Y-67009748D01*
X113696996Y-67113255D01*
X113372034Y-67147336D01*
X113075502Y-67096575D01*
X112992233Y-67021059D01*
X112941577Y-66845554D01*
X112989954Y-66680626D01*
X113166143Y-66528678D01*
X113430420Y-66470633D01*
X113443478Y-66470427D01*
X113544061Y-66447729D01*
X113623375Y-66375480D01*
X113683843Y-66236575D01*
X113727885Y-66013910D01*
X113757925Y-65690382D01*
X113776383Y-65248888D01*
X113785682Y-64672323D01*
X113788243Y-63943583D01*
X113788316Y-63762533D01*
X113790772Y-63115092D01*
X113798553Y-62613988D01*
X113814129Y-62240726D01*
X113839973Y-61976807D01*
X113878557Y-61803736D01*
X113932352Y-61703014D01*
X114003830Y-61656146D01*
X114095463Y-61644633D01*
X114181846Y-61670051D01*
G37*
G36*
X97555799Y-62602739D02*
G01*
X97588182Y-62768511D01*
X97609336Y-63064241D01*
X97616910Y-63464967D01*
X97614803Y-63665826D01*
X97597299Y-64021974D01*
X97566810Y-64251921D01*
X97529092Y-64347190D01*
X97489900Y-64299301D01*
X97454991Y-64099775D01*
X97430119Y-63740133D01*
X97405243Y-63126300D01*
X97111905Y-63697800D01*
X97083988Y-63751608D01*
X96938043Y-64014421D01*
X96819318Y-64199382D01*
X96751281Y-64269300D01*
X96745933Y-64267951D01*
X96670967Y-64179929D01*
X96551088Y-63981541D01*
X96409620Y-63710905D01*
X96135243Y-63152510D01*
X96092910Y-63712193D01*
X96060282Y-63992183D01*
X96014535Y-64194240D01*
X95965910Y-64271056D01*
X95950334Y-64260633D01*
X95911555Y-64133762D01*
X95881615Y-63897823D01*
X95861926Y-63597226D01*
X95853900Y-63276379D01*
X95858950Y-62979689D01*
X95878488Y-62751566D01*
X95913926Y-62636418D01*
X95924376Y-62629886D01*
X96012978Y-62687733D01*
X96153933Y-62894677D01*
X96341561Y-63242661D01*
X96421014Y-63398588D01*
X96566112Y-63671606D01*
X96674746Y-63860236D01*
X96727910Y-63930633D01*
X96744724Y-63914584D01*
X96826227Y-63784808D01*
X96954018Y-63553009D01*
X97108910Y-63253300D01*
X97183184Y-63109386D01*
X97336634Y-62835974D01*
X97460485Y-62646701D01*
X97533188Y-62575967D01*
X97555799Y-62602739D01*
G37*
G36*
X106034993Y-63386749D02*
G01*
X106170339Y-63555145D01*
X106195714Y-63679605D01*
X106220337Y-63954109D01*
X106237841Y-64330992D01*
X106248276Y-64776306D01*
X106251693Y-65256104D01*
X106248143Y-65736439D01*
X106237674Y-66183364D01*
X106220338Y-66562930D01*
X106196185Y-66841191D01*
X106165265Y-66984199D01*
X106072078Y-67083404D01*
X105871910Y-67147967D01*
X105730216Y-67116047D01*
X105578556Y-66984199D01*
X105556628Y-66900955D01*
X105529698Y-66654692D01*
X105508959Y-66280190D01*
X105495625Y-65801574D01*
X105490910Y-65242967D01*
X105493259Y-64843911D01*
X105504146Y-64338878D01*
X105522800Y-63930754D01*
X105548008Y-63643665D01*
X105578556Y-63501734D01*
X105656642Y-63405268D01*
X105842454Y-63334867D01*
X106034993Y-63386749D01*
G37*
G36*
X136016222Y-66102198D02*
G01*
X135744097Y-66535926D01*
X135395249Y-66884483D01*
X134997243Y-67106479D01*
X134801520Y-67164139D01*
X134279381Y-67212019D01*
X133789204Y-67105358D01*
X133357817Y-66848379D01*
X133207243Y-66725919D01*
X133082020Y-66656093D01*
X133021916Y-66704276D01*
X132992034Y-66872800D01*
X132962835Y-67009313D01*
X132872095Y-67088221D01*
X132668910Y-67105633D01*
X132372577Y-67105633D01*
X132372577Y-65877967D01*
X132372690Y-65680135D01*
X132375266Y-65312469D01*
X133009763Y-65312469D01*
X133083559Y-65709994D01*
X133277778Y-66079864D01*
X133600243Y-66392842D01*
X133926499Y-66547134D01*
X134339586Y-66593241D01*
X134747905Y-66506209D01*
X135098353Y-66289695D01*
X135301611Y-66056595D01*
X135485314Y-65671649D01*
X135540430Y-65264036D01*
X135477580Y-64863604D01*
X135307386Y-64500200D01*
X135040467Y-64203672D01*
X134687444Y-64003868D01*
X134258937Y-63930633D01*
X134173391Y-63933299D01*
X133762390Y-64030550D01*
X133432704Y-64246329D01*
X133192157Y-64551400D01*
X133048570Y-64916525D01*
X133009763Y-65312469D01*
X132375266Y-65312469D01*
X132375691Y-65251855D01*
X132386604Y-64945418D01*
X132410465Y-64726231D01*
X132452310Y-64559700D01*
X132517173Y-64411233D01*
X132610090Y-64246237D01*
X132809108Y-63956271D01*
X133163467Y-63630431D01*
X133601593Y-63434109D01*
X134150670Y-63351520D01*
X134455394Y-63349033D01*
X134919650Y-63422883D01*
X135318247Y-63614081D01*
X135702368Y-63942107D01*
X135838902Y-64114383D01*
X136033025Y-64479259D01*
X136171858Y-64887882D01*
X136224910Y-65263175D01*
X136224813Y-65264036D01*
X136184057Y-65624689D01*
X136016222Y-66102198D01*
G37*
G36*
X105441716Y-76873532D02*
G01*
X105444113Y-76895216D01*
X105415903Y-77048485D01*
X105345994Y-77314235D01*
X105244711Y-77658216D01*
X105122376Y-78046179D01*
X104989316Y-78443876D01*
X104855853Y-78817057D01*
X104815457Y-78869832D01*
X104673503Y-78901724D01*
X104659937Y-78897686D01*
X104561633Y-78791309D01*
X104450876Y-78539628D01*
X104322543Y-78131393D01*
X104271704Y-77956598D01*
X104182069Y-77672541D01*
X104112699Y-77484084D01*
X104075473Y-77425181D01*
X104065239Y-77444439D01*
X104014167Y-77590896D01*
X103936988Y-77845425D01*
X103846036Y-78168088D01*
X103770340Y-78430230D01*
X103661178Y-78727276D01*
X103557912Y-78874277D01*
X103451448Y-78868316D01*
X103332694Y-78706470D01*
X103192554Y-78385820D01*
X103021936Y-77903445D01*
X103020236Y-77898366D01*
X102894627Y-77517842D01*
X102791827Y-77196513D01*
X102722400Y-76968089D01*
X102696910Y-76866279D01*
X102726234Y-76828575D01*
X102861120Y-76799967D01*
X102867615Y-76800082D01*
X102956550Y-76834805D01*
X103040130Y-76950601D01*
X103133089Y-77175385D01*
X103250161Y-77537073D01*
X103343516Y-77833581D01*
X103432307Y-78061780D01*
X103504712Y-78137074D01*
X103573673Y-78056290D01*
X103652134Y-77816256D01*
X103753035Y-77413800D01*
X103808726Y-77194761D01*
X103887844Y-76955116D01*
X103965881Y-76833675D01*
X104057975Y-76799967D01*
X104136783Y-76826349D01*
X104222620Y-76936951D01*
X104317330Y-77159096D01*
X104434979Y-77519633D01*
X104482383Y-77672994D01*
X104576127Y-77963277D01*
X104646744Y-78164211D01*
X104681722Y-78239300D01*
X104692783Y-78222543D01*
X104746663Y-78084907D01*
X104831088Y-77838472D01*
X104933334Y-77519633D01*
X104942580Y-77490182D01*
X105087140Y-77090944D01*
X105216973Y-76857050D01*
X105334395Y-76785559D01*
X105441716Y-76873532D01*
G37*
G36*
X99607248Y-62625798D02*
G01*
X99695032Y-62800114D01*
X99783861Y-63056452D01*
X99814835Y-63175111D01*
X99881453Y-63690169D01*
X99851737Y-64197254D01*
X99728073Y-64629133D01*
X99632291Y-64793307D01*
X99550653Y-64861967D01*
X99529355Y-64861143D01*
X99491918Y-64839176D01*
X99491147Y-64760591D01*
X99531063Y-64590203D01*
X99615686Y-64292828D01*
X99644103Y-64191669D01*
X99691220Y-63974897D01*
X99704206Y-63766914D01*
X99680036Y-63524795D01*
X99615685Y-63205620D01*
X99508130Y-62766467D01*
X99496902Y-62644427D01*
X99552008Y-62575967D01*
X99607248Y-62625798D01*
G37*
G36*
X150104701Y-77696282D02*
G01*
X150243743Y-77783028D01*
X150226660Y-77917757D01*
X150225209Y-77919707D01*
X150118078Y-77952827D01*
X149891061Y-77976351D01*
X149591039Y-77985300D01*
X149281217Y-77980454D01*
X149104440Y-77959978D01*
X149030298Y-77915121D01*
X149025386Y-77837133D01*
X149037398Y-77798560D01*
X149114743Y-77728212D01*
X149288629Y-77686853D01*
X149595384Y-77663410D01*
X149816618Y-77660372D01*
X150104701Y-77696282D01*
G37*
G36*
X136693688Y-75962458D02*
G01*
X136758997Y-76061931D01*
X136769296Y-76234601D01*
X136752754Y-76268011D01*
X136619030Y-76363238D01*
X136453368Y-76355459D01*
X136337675Y-76243068D01*
X136335487Y-76132135D01*
X136424999Y-75970925D01*
X136476288Y-75922156D01*
X136579279Y-75877664D01*
X136693688Y-75962458D01*
G37*
G36*
X157403749Y-76803994D02*
G01*
X157616407Y-76894931D01*
X157617137Y-76895533D01*
X157735965Y-76965360D01*
X157793401Y-76905800D01*
X157839475Y-76847924D01*
X157991299Y-76799967D01*
X158030329Y-76802518D01*
X158086853Y-76832594D01*
X158122882Y-76919425D01*
X158142973Y-77091152D01*
X158151686Y-77375915D01*
X158153577Y-77801855D01*
X158149304Y-78187512D01*
X158137213Y-78521944D01*
X158119192Y-78757992D01*
X158097132Y-78860189D01*
X158071795Y-78879024D01*
X157927799Y-78916633D01*
X157890824Y-78902077D01*
X157846075Y-78798503D01*
X157822058Y-78574692D01*
X157814910Y-78206346D01*
X157804246Y-77848497D01*
X157749633Y-77491198D01*
X157637875Y-77262328D01*
X157456998Y-77140611D01*
X157195030Y-77104767D01*
X156975329Y-77121421D01*
X156764365Y-77207362D01*
X156632377Y-77387937D01*
X156564260Y-77686918D01*
X156544910Y-78128079D01*
X156540162Y-78456624D01*
X156519910Y-78697224D01*
X156478255Y-78830532D01*
X156409365Y-78889294D01*
X156384833Y-78897600D01*
X156255958Y-78883285D01*
X156175551Y-78742052D01*
X156139676Y-78461101D01*
X156144397Y-78027633D01*
X156146003Y-77994301D01*
X156188071Y-77549977D01*
X156270972Y-77237039D01*
X156408408Y-77021724D01*
X156614079Y-76870271D01*
X156803999Y-76803981D01*
X157107722Y-76773057D01*
X157403749Y-76803994D01*
G37*
G36*
X106067133Y-61805166D02*
G01*
X106239345Y-61957671D01*
X106304501Y-62193458D01*
X106215646Y-62453112D01*
X106197703Y-62478845D01*
X105995753Y-62633163D01*
X105759283Y-62639433D01*
X105536331Y-62494711D01*
X105493832Y-62439844D01*
X105428282Y-62219933D01*
X105484343Y-62005580D01*
X105630510Y-61837715D01*
X105835276Y-61757267D01*
X106067133Y-61805166D01*
G37*
G36*
X110108991Y-78545302D02*
G01*
X109829013Y-78788879D01*
X109595609Y-78867279D01*
X109268473Y-78885795D01*
X108950354Y-78832181D01*
X108715568Y-78711595D01*
X108635520Y-78643204D01*
X108560478Y-78626283D01*
X108515263Y-78743915D01*
X108462767Y-78845443D01*
X108335170Y-78916633D01*
X108327036Y-78916417D01*
X108262661Y-78884531D01*
X108224028Y-78776818D01*
X108205200Y-78562173D01*
X108200243Y-78209487D01*
X108206999Y-77847002D01*
X108224820Y-77679067D01*
X108550170Y-77679067D01*
X108565310Y-77925022D01*
X108643458Y-78211639D01*
X108796956Y-78428935D01*
X108879538Y-78485725D01*
X109184669Y-78577340D01*
X109501701Y-78531870D01*
X109770620Y-78353937D01*
X109861222Y-78238949D01*
X109977772Y-77925766D01*
X109933917Y-77603592D01*
X109730756Y-77301454D01*
X109611696Y-77196264D01*
X109335333Y-77066589D01*
X109059722Y-77105152D01*
X108775798Y-77312053D01*
X108769291Y-77318573D01*
X108608201Y-77505929D01*
X108550170Y-77679067D01*
X108224820Y-77679067D01*
X108234878Y-77584292D01*
X108293842Y-77390549D01*
X108393839Y-77214654D01*
X108475247Y-77108256D01*
X108790718Y-76863962D01*
X109172684Y-76763741D01*
X109589495Y-76818092D01*
X109815166Y-76923337D01*
X110084359Y-77174886D01*
X110252958Y-77500873D01*
X110316343Y-77863282D01*
X110308299Y-77925766D01*
X110269894Y-78224097D01*
X110108991Y-78545302D01*
G37*
G36*
X142292735Y-78494875D02*
G01*
X141999293Y-78770268D01*
X141957589Y-78794136D01*
X141616841Y-78896773D01*
X141231192Y-78895211D01*
X140878805Y-78788200D01*
X140696701Y-78671948D01*
X140560024Y-78517727D01*
X140467005Y-78301779D01*
X140410012Y-77997332D01*
X140394265Y-77766215D01*
X140713340Y-77766215D01*
X140739425Y-78084422D01*
X140920062Y-78370148D01*
X141142170Y-78512352D01*
X141467778Y-78577453D01*
X141793525Y-78521300D01*
X141874783Y-78460624D01*
X142006453Y-78268441D01*
X142109770Y-78019615D01*
X142151577Y-77782559D01*
X142138068Y-77676600D01*
X142008081Y-77419844D01*
X141778998Y-77206018D01*
X141498802Y-77086304D01*
X141331192Y-77070332D01*
X141162852Y-77125976D01*
X140969636Y-77291549D01*
X140840280Y-77448728D01*
X140713340Y-77766215D01*
X140394265Y-77766215D01*
X140381414Y-77577609D01*
X140373577Y-77015838D01*
X140373579Y-76986929D01*
X140375096Y-76535046D01*
X140382091Y-76224621D01*
X140398466Y-76029211D01*
X140428126Y-75922372D01*
X140474973Y-75877661D01*
X140542910Y-75868633D01*
X140560591Y-75868929D01*
X140642094Y-75891387D01*
X140687801Y-75975263D01*
X140707817Y-76156499D01*
X140712243Y-76471037D01*
X140712243Y-77073442D01*
X140902743Y-76950097D01*
X141062004Y-76862043D01*
X141448397Y-76761725D01*
X141812303Y-76809436D01*
X142123849Y-76990922D01*
X142353160Y-77291924D01*
X142470361Y-77698187D01*
X142466762Y-77782559D01*
X142452125Y-78125671D01*
X142292735Y-78494875D01*
G37*
G36*
X152081025Y-76841307D02*
G01*
X152091685Y-76846575D01*
X152291163Y-76917889D01*
X152380969Y-76888123D01*
X152423928Y-76839723D01*
X152572632Y-76799967D01*
X152611662Y-76802518D01*
X152668186Y-76832594D01*
X152704215Y-76919425D01*
X152724307Y-77091152D01*
X152733019Y-77375915D01*
X152734910Y-77801855D01*
X152730508Y-78187427D01*
X152718041Y-78522341D01*
X152699455Y-78759033D01*
X152676702Y-78861953D01*
X152573485Y-78907823D01*
X152492813Y-78806337D01*
X152434532Y-78548962D01*
X152396243Y-78129436D01*
X152361590Y-77731766D01*
X152293762Y-77419348D01*
X152180134Y-77227644D01*
X152004723Y-77131252D01*
X151751545Y-77104767D01*
X151580608Y-77117654D01*
X151363414Y-77206205D01*
X151223470Y-77396663D01*
X151148505Y-77709870D01*
X151126243Y-78166670D01*
X151122694Y-78439929D01*
X151103295Y-78689558D01*
X151061387Y-78828206D01*
X150990699Y-78889294D01*
X150916460Y-78904873D01*
X150797066Y-78833839D01*
X150727610Y-78614567D01*
X150704679Y-78239300D01*
X150705220Y-78166241D01*
X150752514Y-77654643D01*
X150870912Y-77249248D01*
X151053035Y-76976797D01*
X151067989Y-76963264D01*
X151374502Y-76795986D01*
X151734639Y-76752374D01*
X152081025Y-76841307D01*
G37*
G36*
X161978105Y-65575565D02*
G01*
X161800482Y-65901252D01*
X161569149Y-66319145D01*
X161294450Y-66811002D01*
X160986732Y-67358581D01*
X160656341Y-67943639D01*
X160313624Y-68547934D01*
X159968925Y-69153225D01*
X159632592Y-69741269D01*
X159314971Y-70293824D01*
X159026406Y-70792647D01*
X158777246Y-71219498D01*
X158577834Y-71556133D01*
X158438518Y-71784310D01*
X158317901Y-71975654D01*
X154414820Y-71953644D01*
X150511740Y-71931633D01*
X148622330Y-68671967D01*
X148335067Y-68174909D01*
X147961601Y-67524071D01*
X147621954Y-66926872D01*
X147324734Y-66398736D01*
X147078547Y-65955086D01*
X146892003Y-65611348D01*
X146773709Y-65382945D01*
X146732273Y-65285300D01*
X146735702Y-65276298D01*
X148924910Y-65276298D01*
X148938692Y-65314572D01*
X149023986Y-65486096D01*
X149178516Y-65775297D01*
X149392216Y-66163947D01*
X149655022Y-66633818D01*
X149956868Y-67166681D01*
X150287689Y-67744309D01*
X151650468Y-70111300D01*
X157209500Y-70111300D01*
X157883196Y-68947133D01*
X157957207Y-68819203D01*
X158269796Y-68278311D01*
X158618991Y-67673372D01*
X158967271Y-67069413D01*
X159277114Y-66531459D01*
X159997335Y-65279952D01*
X158618871Y-62890793D01*
X157240407Y-60501633D01*
X154445302Y-60479335D01*
X151650196Y-60457037D01*
X150287553Y-62816157D01*
X150096671Y-63147623D01*
X149780727Y-63700905D01*
X149499573Y-64199104D01*
X149263311Y-64623982D01*
X149082046Y-64957300D01*
X148965878Y-65180818D01*
X148924910Y-65276298D01*
X146735702Y-65276298D01*
X146753961Y-65228368D01*
X146851432Y-65034484D01*
X147019427Y-64720942D01*
X147249358Y-64303177D01*
X147532634Y-63796628D01*
X147860668Y-63216729D01*
X148224869Y-62578919D01*
X148616649Y-61898633D01*
X150501671Y-58638967D01*
X158358815Y-58638967D01*
X160243799Y-61898633D01*
X160530324Y-62395418D01*
X160903005Y-63045700D01*
X161241999Y-63641920D01*
X161538712Y-64168705D01*
X161784548Y-64610680D01*
X161970912Y-64952472D01*
X162089210Y-65178707D01*
X162130846Y-65274011D01*
X162128150Y-65279952D01*
X162091671Y-65360325D01*
X161978105Y-65575565D01*
G37*
G36*
X144174659Y-65982564D02*
G01*
X144187122Y-66497969D01*
X144191298Y-67022314D01*
X144187018Y-67525929D01*
X144174114Y-67979145D01*
X144152419Y-68352291D01*
X144121762Y-68615700D01*
X144081977Y-68739700D01*
X144075718Y-68745842D01*
X143890196Y-68836447D01*
X143640168Y-68789908D01*
X143583910Y-68744379D01*
X143544933Y-68638633D01*
X143521218Y-68445783D01*
X143509432Y-68138447D01*
X143506243Y-67689241D01*
X143506195Y-67651073D01*
X143499607Y-67257003D01*
X143483516Y-66935667D01*
X143460202Y-66719257D01*
X143431944Y-66639967D01*
X143370995Y-66663066D01*
X143247610Y-66772549D01*
X143223032Y-66800659D01*
X142923461Y-67015771D01*
X142527238Y-67146298D01*
X142082265Y-67187277D01*
X141636442Y-67133747D01*
X141237670Y-66980747D01*
X141185848Y-66950074D01*
X140784788Y-66611076D01*
X140500080Y-66177622D01*
X140338166Y-65681165D01*
X140310668Y-65236895D01*
X140969005Y-65236895D01*
X141043518Y-65674670D01*
X141245479Y-66075182D01*
X141564142Y-66395395D01*
X141811958Y-66534025D01*
X142192279Y-66618642D01*
X142558717Y-66569049D01*
X142891054Y-66405750D01*
X143169068Y-66149248D01*
X143372540Y-65820045D01*
X143481248Y-65438646D01*
X143474973Y-65025554D01*
X143333495Y-64601272D01*
X143203070Y-64394807D01*
X142894549Y-64112502D01*
X142525952Y-63957464D01*
X142130628Y-63929593D01*
X141741928Y-64028786D01*
X141393203Y-64254945D01*
X141117804Y-64607967D01*
X141032684Y-64804892D01*
X140969005Y-65236895D01*
X140310668Y-65236895D01*
X140305485Y-65153155D01*
X140408477Y-64625044D01*
X140653583Y-64128282D01*
X140797105Y-63938135D01*
X141181482Y-63599141D01*
X141647162Y-63401868D01*
X142210600Y-63337967D01*
X142480865Y-63353654D01*
X143021593Y-63492149D01*
X143477955Y-63762243D01*
X143830236Y-64150029D01*
X144058721Y-64641600D01*
X144089230Y-64786687D01*
X144125544Y-65097254D01*
X144149389Y-65438646D01*
X144154077Y-65505769D01*
X144174659Y-65982564D01*
G37*
G36*
X146122762Y-76819445D02*
G01*
X146136507Y-76824796D01*
X146398877Y-76897193D01*
X146541285Y-76863725D01*
X146598787Y-76828724D01*
X146760219Y-76828400D01*
X146803157Y-76857134D01*
X146847988Y-76948546D01*
X146875418Y-77124199D01*
X146889155Y-77412419D01*
X146892910Y-77841531D01*
X146889149Y-78189805D01*
X146877176Y-78522086D01*
X146858945Y-78757647D01*
X146836466Y-78860189D01*
X146790551Y-78894470D01*
X146635956Y-78902558D01*
X146520969Y-78782708D01*
X146516114Y-78767092D01*
X146492488Y-78596175D01*
X146475862Y-78317537D01*
X146469577Y-77983176D01*
X146469380Y-77892652D01*
X146461250Y-77582296D01*
X146433871Y-77389251D01*
X146377252Y-77271186D01*
X146281405Y-77185767D01*
X146239504Y-77160958D01*
X146006688Y-77084685D01*
X145731071Y-77053967D01*
X145534479Y-77040850D01*
X145391338Y-76985009D01*
X145404249Y-76895872D01*
X145579696Y-76784962D01*
X145670418Y-76750948D01*
X145864165Y-76740966D01*
X146122762Y-76819445D01*
G37*
G36*
X117209354Y-76812603D02*
G01*
X117462807Y-76913653D01*
X117475901Y-76922377D01*
X117752123Y-77201826D01*
X117901624Y-77553990D01*
X117921974Y-77938048D01*
X117810741Y-78313177D01*
X117565496Y-78638558D01*
X117425727Y-78756451D01*
X117192463Y-78882311D01*
X116926137Y-78916633D01*
X116854811Y-78915060D01*
X116521184Y-78864188D01*
X116261469Y-78754980D01*
X116122662Y-78605627D01*
X116113867Y-78564446D01*
X116169700Y-78461013D01*
X116300296Y-78424319D01*
X116435535Y-78482058D01*
X116579258Y-78548288D01*
X116822021Y-78572290D01*
X117077230Y-78545613D01*
X117266914Y-78469440D01*
X117338550Y-78406914D01*
X117518851Y-78126665D01*
X117570970Y-77803012D01*
X117494077Y-77486324D01*
X117287344Y-77226969D01*
X117103660Y-77113948D01*
X116810210Y-77063490D01*
X116534926Y-77178274D01*
X116486371Y-77211879D01*
X116291732Y-77293094D01*
X116137196Y-77286499D01*
X116074243Y-77190704D01*
X116136521Y-77038974D01*
X116324975Y-76905475D01*
X116596134Y-76817354D01*
X116905695Y-76783450D01*
X117209354Y-76812603D01*
G37*
G36*
X120526672Y-78308074D02*
G01*
X120271711Y-78641416D01*
X120124625Y-78756716D01*
X119775776Y-78904876D01*
X119422937Y-78903246D01*
X119100851Y-78748645D01*
X119080399Y-78732566D01*
X118942464Y-78633552D01*
X118880175Y-78640874D01*
X118841434Y-78756009D01*
X118788403Y-78860136D01*
X118641411Y-78902037D01*
X118630749Y-78899759D01*
X118540459Y-78839911D01*
X118488546Y-78688922D01*
X118460774Y-78407840D01*
X118454861Y-78235768D01*
X118460639Y-77915741D01*
X118469559Y-77826995D01*
X118858493Y-77826995D01*
X118897866Y-78134184D01*
X119064200Y-78393875D01*
X119162161Y-78472480D01*
X119445638Y-78583090D01*
X119728974Y-78560765D01*
X119980032Y-78427893D01*
X120166673Y-78206866D01*
X120256762Y-77920073D01*
X120218160Y-77589905D01*
X120163578Y-77468565D01*
X119959271Y-77237300D01*
X119690093Y-77099744D01*
X119411801Y-77090435D01*
X119373934Y-77101195D01*
X119109348Y-77262424D01*
X118933260Y-77520383D01*
X118858493Y-77826995D01*
X118469559Y-77826995D01*
X118485310Y-77670292D01*
X118496824Y-77617999D01*
X118661730Y-77266613D01*
X118940611Y-76973540D01*
X119285094Y-76791906D01*
X119514773Y-76742767D01*
X119719474Y-76763626D01*
X119983451Y-76863617D01*
X120142259Y-76948262D01*
X120437475Y-77221096D01*
X120603791Y-77562371D01*
X120634052Y-77920073D01*
X120635445Y-77936545D01*
X120526672Y-78308074D01*
G37*
G36*
X127414685Y-75912879D02*
G01*
X127476161Y-75940075D01*
X127516944Y-76022268D01*
X127542764Y-76188038D01*
X127559349Y-76465967D01*
X127572429Y-76884633D01*
X127574421Y-76963869D01*
X127579235Y-77565743D01*
X127559480Y-78024154D01*
X127512237Y-78361103D01*
X127434585Y-78598588D01*
X127323601Y-78758609D01*
X127229541Y-78830877D01*
X127031076Y-78894931D01*
X126855099Y-78866607D01*
X126762113Y-78747141D01*
X126792596Y-78644551D01*
X126930581Y-78535474D01*
X126965784Y-78519027D01*
X127030505Y-78472142D01*
X127076423Y-78390743D01*
X127108214Y-78247876D01*
X127130552Y-78016593D01*
X127148115Y-77669940D01*
X127165577Y-77180967D01*
X127171550Y-77004604D01*
X127188617Y-76565901D01*
X127206995Y-76263221D01*
X127230865Y-76071476D01*
X127264409Y-75965578D01*
X127311808Y-75920438D01*
X127377243Y-75910967D01*
X127414685Y-75912879D01*
G37*
%TD*%
M02*
