%TF.GenerationSoftware,KiCad,Pcbnew,(6.0.0)*%
%TF.CreationDate,2022-06-20T16:18:32+01:00*%
%TF.ProjectId,RemoteLabs_supervisor_PCB,52656d6f-7465-44c6-9162-735f73757065,rev?*%
%TF.SameCoordinates,Original*%
%TF.FileFunction,Paste,Top*%
%TF.FilePolarity,Positive*%
%FSLAX46Y46*%
G04 Gerber Fmt 4.6, Leading zero omitted, Abs format (unit mm)*
G04 Created by KiCad (PCBNEW (6.0.0)) date 2022-06-20 16:18:32*
%MOMM*%
%LPD*%
G01*
G04 APERTURE LIST*
G04 Aperture macros list*
%AMRoundRect*
0 Rectangle with rounded corners*
0 $1 Rounding radius*
0 $2 $3 $4 $5 $6 $7 $8 $9 X,Y pos of 4 corners*
0 Add a 4 corners polygon primitive as box body*
4,1,4,$2,$3,$4,$5,$6,$7,$8,$9,$2,$3,0*
0 Add four circle primitives for the rounded corners*
1,1,$1+$1,$2,$3*
1,1,$1+$1,$4,$5*
1,1,$1+$1,$6,$7*
1,1,$1+$1,$8,$9*
0 Add four rect primitives between the rounded corners*
20,1,$1+$1,$2,$3,$4,$5,0*
20,1,$1+$1,$4,$5,$6,$7,0*
20,1,$1+$1,$6,$7,$8,$9,0*
20,1,$1+$1,$8,$9,$2,$3,0*%
G04 Aperture macros list end*
%ADD10RoundRect,0.250000X-0.350000X-0.450000X0.350000X-0.450000X0.350000X0.450000X-0.350000X0.450000X0*%
%ADD11RoundRect,0.250000X-0.475000X0.337500X-0.475000X-0.337500X0.475000X-0.337500X0.475000X0.337500X0*%
%ADD12RoundRect,0.250000X-0.550000X1.050000X-0.550000X-1.050000X0.550000X-1.050000X0.550000X1.050000X0*%
%ADD13RoundRect,0.250000X0.337500X0.475000X-0.337500X0.475000X-0.337500X-0.475000X0.337500X-0.475000X0*%
%ADD14RoundRect,0.250000X0.475000X-0.337500X0.475000X0.337500X-0.475000X0.337500X-0.475000X-0.337500X0*%
%ADD15RoundRect,0.250000X-0.550000X1.500000X-0.550000X-1.500000X0.550000X-1.500000X0.550000X1.500000X0*%
%ADD16RoundRect,0.150000X0.825000X0.150000X-0.825000X0.150000X-0.825000X-0.150000X0.825000X-0.150000X0*%
%ADD17RoundRect,0.250000X0.450000X-0.350000X0.450000X0.350000X-0.450000X0.350000X-0.450000X-0.350000X0*%
%ADD18RoundRect,0.250000X-0.450000X0.350000X-0.450000X-0.350000X0.450000X-0.350000X0.450000X0.350000X0*%
%ADD19RoundRect,0.150000X-0.825000X-0.150000X0.825000X-0.150000X0.825000X0.150000X-0.825000X0.150000X0*%
%ADD20R,1.700000X1.300000*%
%ADD21RoundRect,0.150000X0.150000X-0.825000X0.150000X0.825000X-0.150000X0.825000X-0.150000X-0.825000X0*%
%ADD22R,1.100000X1.300000*%
%ADD23RoundRect,0.250000X-0.337500X-0.475000X0.337500X-0.475000X0.337500X0.475000X-0.337500X0.475000X0*%
%ADD24RoundRect,0.250000X0.350000X0.450000X-0.350000X0.450000X-0.350000X-0.450000X0.350000X-0.450000X0*%
%ADD25RoundRect,0.250000X-0.275000X0.400000X-0.275000X-0.400000X0.275000X-0.400000X0.275000X0.400000X0*%
%ADD26RoundRect,0.250000X0.550000X-1.050000X0.550000X1.050000X-0.550000X1.050000X-0.550000X-1.050000X0*%
%ADD27RoundRect,0.250000X-0.325000X-0.450000X0.325000X-0.450000X0.325000X0.450000X-0.325000X0.450000X0*%
%ADD28RoundRect,0.250000X0.275000X-0.400000X0.275000X0.400000X-0.275000X0.400000X-0.275000X-0.400000X0*%
%ADD29R,0.650000X1.560000*%
%ADD30RoundRect,0.250000X0.450000X-0.325000X0.450000X0.325000X-0.450000X0.325000X-0.450000X-0.325000X0*%
%ADD31RoundRect,0.250000X-1.500000X-0.550000X1.500000X-0.550000X1.500000X0.550000X-1.500000X0.550000X0*%
%ADD32R,1.400000X1.200000*%
%ADD33R,1.400000X1.000000*%
%ADD34RoundRect,0.250000X0.550000X-1.500000X0.550000X1.500000X-0.550000X1.500000X-0.550000X-1.500000X0*%
%ADD35R,2.000000X1.500000*%
%ADD36R,2.000000X3.800000*%
%ADD37RoundRect,0.100000X-0.712500X-0.100000X0.712500X-0.100000X0.712500X0.100000X-0.712500X0.100000X0*%
%ADD38R,2.800000X1.000000*%
%ADD39RoundRect,0.250000X-0.381838X0.000000X0.000000X-0.381838X0.381838X0.000000X0.000000X0.381838X0*%
%ADD40RoundRect,0.062500X-0.309359X0.220971X0.220971X-0.309359X0.309359X-0.220971X-0.220971X0.309359X0*%
%ADD41RoundRect,0.062500X-0.309359X-0.220971X-0.220971X-0.309359X0.309359X0.220971X0.220971X0.309359X0*%
%ADD42R,0.500000X2.000000*%
%ADD43R,2.000000X1.700000*%
%ADD44C,2.000000*%
%ADD45RoundRect,0.250000X-1.050000X-0.550000X1.050000X-0.550000X1.050000X0.550000X-1.050000X0.550000X0*%
%ADD46R,1.200000X1.200000*%
%ADD47RoundRect,0.250000X-0.350000X0.275000X-0.350000X-0.275000X0.350000X-0.275000X0.350000X0.275000X0*%
%ADD48RoundRect,0.250000X0.381838X0.000000X0.000000X0.381838X-0.381838X0.000000X0.000000X-0.381838X0*%
%ADD49RoundRect,0.062500X0.309359X-0.220971X-0.220971X0.309359X-0.309359X0.220971X0.220971X-0.309359X0*%
%ADD50RoundRect,0.062500X0.309359X0.220971X0.220971X0.309359X-0.309359X-0.220971X-0.220971X-0.309359X0*%
%ADD51R,2.160000X1.120000*%
%ADD52RoundRect,0.250000X0.350000X-0.275000X0.350000X0.275000X-0.350000X0.275000X-0.350000X-0.275000X0*%
G04 APERTURE END LIST*
D10*
%TO.C,R11*%
X169291000Y-40843200D03*
X171291000Y-40843200D03*
%TD*%
D11*
%TO.C,C16*%
X58166000Y-52810500D03*
X58166000Y-54885500D03*
%TD*%
%TO.C,C38*%
X90373200Y-73948800D03*
X90373200Y-76023800D03*
%TD*%
D12*
%TO.C,EC4*%
X74676000Y-96062800D03*
X74676000Y-99662800D03*
%TD*%
D13*
%TO.C,C28*%
X134612200Y-38862000D03*
X132537200Y-38862000D03*
%TD*%
D14*
%TO.C,C33*%
X104851200Y-112311000D03*
X104851200Y-110236000D03*
%TD*%
D15*
%TO.C,EC9*%
X203758800Y-78521600D03*
X203758800Y-83921600D03*
%TD*%
D16*
%TO.C,U7*%
X97572600Y-35179000D03*
X97572600Y-33909000D03*
X97572600Y-32639000D03*
X97572600Y-31369000D03*
X97572600Y-30099000D03*
X97572600Y-28829000D03*
X97572600Y-27559000D03*
X97572600Y-26289000D03*
X92622600Y-26289000D03*
X92622600Y-27559000D03*
X92622600Y-28829000D03*
X92622600Y-30099000D03*
X92622600Y-31369000D03*
X92622600Y-32639000D03*
X92622600Y-33909000D03*
X92622600Y-35179000D03*
%TD*%
D17*
%TO.C,R35*%
X111658400Y-106172000D03*
X111658400Y-104172000D03*
%TD*%
D11*
%TO.C,C18*%
X57708800Y-56692800D03*
X57708800Y-58767800D03*
%TD*%
D18*
%TO.C,R4*%
X67665600Y-105562400D03*
X67665600Y-107562400D03*
%TD*%
D19*
%TO.C,U10*%
X132043400Y-66344800D03*
X132043400Y-67614800D03*
X132043400Y-68884800D03*
X132043400Y-70154800D03*
X132043400Y-71424800D03*
X132043400Y-72694800D03*
X132043400Y-73964800D03*
X136993400Y-73964800D03*
X136993400Y-72694800D03*
X136993400Y-71424800D03*
X136993400Y-70154800D03*
X136993400Y-68884800D03*
X136993400Y-67614800D03*
X136993400Y-66344800D03*
%TD*%
D14*
%TO.C,C4*%
X65481200Y-87376000D03*
X65481200Y-85301000D03*
%TD*%
D10*
%TO.C,R32*%
X98974400Y-104851200D03*
X100974400Y-104851200D03*
%TD*%
D13*
%TO.C,C24*%
X161072600Y-39116000D03*
X158997600Y-39116000D03*
%TD*%
D20*
%TO.C,D1*%
X196392800Y-98072000D03*
X196392800Y-101572000D03*
%TD*%
D11*
%TO.C,C11*%
X57302400Y-88116500D03*
X57302400Y-90191500D03*
%TD*%
%TO.C,C40*%
X86258400Y-61671200D03*
X86258400Y-63746200D03*
%TD*%
D14*
%TO.C,C8*%
X67614800Y-87651500D03*
X67614800Y-85576500D03*
%TD*%
D13*
%TO.C,C10*%
X191051000Y-85852000D03*
X188976000Y-85852000D03*
%TD*%
D18*
%TO.C,R39*%
X104800400Y-24282400D03*
X104800400Y-26282400D03*
%TD*%
%TO.C,R21*%
X113588800Y-34153600D03*
X113588800Y-36153600D03*
%TD*%
D17*
%TO.C,R27*%
X93827600Y-84434200D03*
X93827600Y-82434200D03*
%TD*%
D21*
%TO.C,U8*%
X129235200Y-58456600D03*
X130505200Y-58456600D03*
X131775200Y-58456600D03*
X133045200Y-58456600D03*
X134315200Y-58456600D03*
X135585200Y-58456600D03*
X136855200Y-58456600D03*
X136855200Y-53506600D03*
X135585200Y-53506600D03*
X134315200Y-53506600D03*
X133045200Y-53506600D03*
X131775200Y-53506600D03*
X130505200Y-53506600D03*
X129235200Y-53506600D03*
%TD*%
D19*
%TO.C,U14*%
X152980300Y-54813200D03*
X152980300Y-56083200D03*
X152980300Y-57353200D03*
X152980300Y-58623200D03*
X152980300Y-59893200D03*
X152980300Y-61163200D03*
X152980300Y-62433200D03*
X157930300Y-62433200D03*
X157930300Y-61163200D03*
X157930300Y-59893200D03*
X157930300Y-58623200D03*
X157930300Y-57353200D03*
X157930300Y-56083200D03*
X157930300Y-54813200D03*
%TD*%
D14*
%TO.C,C34*%
X102870000Y-119481600D03*
X102870000Y-117406600D03*
%TD*%
D22*
%TO.C,X2*%
X63652400Y-58826400D03*
X63652400Y-56726400D03*
X62002400Y-56726400D03*
X62002400Y-58826400D03*
%TD*%
D23*
%TO.C,C12*%
X95707200Y-93319600D03*
X97782200Y-93319600D03*
%TD*%
D24*
%TO.C,R33*%
X113674400Y-97231200D03*
X111674400Y-97231200D03*
%TD*%
%TO.C,R14*%
X111645200Y-119684800D03*
X109645200Y-119684800D03*
%TD*%
D18*
%TO.C,R3*%
X65633600Y-105578400D03*
X65633600Y-107578400D03*
%TD*%
D11*
%TO.C,C1B1*%
X52171600Y-48818800D03*
X52171600Y-50893800D03*
%TD*%
D25*
%TO.C,C7*%
X67716400Y-89550600D03*
X67716400Y-91500600D03*
%TD*%
D13*
%TO.C,C25*%
X137312400Y-63754000D03*
X135237400Y-63754000D03*
%TD*%
D26*
%TO.C,EC6*%
X74269600Y-51663600D03*
X74269600Y-48063600D03*
%TD*%
D18*
%TO.C,R30*%
X95300800Y-68884800D03*
X95300800Y-70884800D03*
%TD*%
D11*
%TO.C,C1A1*%
X52171600Y-43187800D03*
X52171600Y-45262800D03*
%TD*%
D18*
%TO.C,R31*%
X97815400Y-68897800D03*
X97815400Y-70897800D03*
%TD*%
D26*
%TO.C,EC3*%
X74676000Y-92579600D03*
X74676000Y-88979600D03*
%TD*%
D21*
%TO.C,U9*%
X140563600Y-47012400D03*
X141833600Y-47012400D03*
X143103600Y-47012400D03*
X144373600Y-47012400D03*
X145643600Y-47012400D03*
X146913600Y-47012400D03*
X148183600Y-47012400D03*
X148183600Y-42062400D03*
X146913600Y-42062400D03*
X145643600Y-42062400D03*
X144373600Y-42062400D03*
X143103600Y-42062400D03*
X141833600Y-42062400D03*
X140563600Y-42062400D03*
%TD*%
D14*
%TO.C,C9*%
X67767200Y-99995900D03*
X67767200Y-97920900D03*
%TD*%
D18*
%TO.C,R40*%
X59537600Y-85801200D03*
X59537600Y-87801200D03*
%TD*%
D11*
%TO.C,C32*%
X107238800Y-110236000D03*
X107238800Y-112311000D03*
%TD*%
D17*
%TO.C,R25*%
X64465200Y-66312800D03*
X64465200Y-64312800D03*
%TD*%
D11*
%TO.C,C19*%
X58064400Y-38514200D03*
X58064400Y-40589200D03*
%TD*%
D23*
%TO.C,C35*%
X112522000Y-115620800D03*
X114597000Y-115620800D03*
%TD*%
D13*
%TO.C,C20*%
X61815800Y-61010800D03*
X59740800Y-61010800D03*
%TD*%
D27*
%TO.C,D9*%
X100482400Y-24384000D03*
X102532400Y-24384000D03*
%TD*%
D18*
%TO.C,R29*%
X100355400Y-68962800D03*
X100355400Y-70962800D03*
%TD*%
D10*
%TO.C,R36*%
X193106800Y-110896400D03*
X195106800Y-110896400D03*
%TD*%
D13*
%TO.C,C43*%
X100974400Y-101041200D03*
X98899400Y-101041200D03*
%TD*%
D17*
%TO.C,R24*%
X62534800Y-66312800D03*
X62534800Y-64312800D03*
%TD*%
%TO.C,R41*%
X64008000Y-53171600D03*
X64008000Y-51171600D03*
%TD*%
D28*
%TO.C,C17*%
X57251600Y-50911400D03*
X57251600Y-48961400D03*
%TD*%
D14*
%TO.C,C21*%
X67259200Y-52294700D03*
X67259200Y-50219700D03*
%TD*%
D29*
%TO.C,U23*%
X60264000Y-54690000D03*
X61214000Y-54690000D03*
X62164000Y-54690000D03*
X62164000Y-51990000D03*
X60264000Y-51990000D03*
%TD*%
D24*
%TO.C,R6*%
X207384400Y-105359200D03*
X205384400Y-105359200D03*
%TD*%
D30*
%TO.C,D8*%
X94589600Y-120345200D03*
X94589600Y-118295200D03*
%TD*%
D17*
%TO.C,R38*%
X94640400Y-116078000D03*
X94640400Y-114078000D03*
%TD*%
%TO.C,R26*%
X96367600Y-84434200D03*
X96367600Y-82434200D03*
%TD*%
D12*
%TO.C,EC7*%
X98907600Y-116433600D03*
X98907600Y-120033600D03*
%TD*%
D11*
%TO.C,C39*%
X88595200Y-51590400D03*
X88595200Y-53665400D03*
%TD*%
D31*
%TO.C,EC10*%
X124815600Y-26822400D03*
X130215600Y-26822400D03*
%TD*%
D11*
%TO.C,C29*%
X126847600Y-53100200D03*
X126847600Y-55175200D03*
%TD*%
D18*
%TO.C,R12*%
X159766000Y-78365600D03*
X159766000Y-80365600D03*
%TD*%
D32*
%TO.C,D4*%
X61722000Y-32387200D03*
D33*
X61722000Y-34107200D03*
X63922000Y-34107200D03*
X63922000Y-32207200D03*
%TD*%
D18*
%TO.C,R7*%
X67310000Y-110522000D03*
X67310000Y-112522000D03*
%TD*%
D32*
%TO.C,D3*%
X62687200Y-112166400D03*
D33*
X62687200Y-110446400D03*
X60487200Y-110446400D03*
X60487200Y-112346400D03*
%TD*%
D34*
%TO.C,EC11*%
X203708000Y-73558400D03*
X203708000Y-68158400D03*
%TD*%
D17*
%TO.C,R1*%
X52222400Y-40522400D03*
X52222400Y-38522400D03*
%TD*%
D13*
%TO.C,C42*%
X101367500Y-91033600D03*
X99292500Y-91033600D03*
%TD*%
D18*
%TO.C,R18*%
X113588800Y-38404800D03*
X113588800Y-40404800D03*
%TD*%
D35*
%TO.C,U3*%
X80112400Y-73369200D03*
D36*
X73812400Y-71069200D03*
D35*
X80112400Y-71069200D03*
X80112400Y-68769200D03*
%TD*%
D14*
%TO.C,C3*%
X65176400Y-112318800D03*
X65176400Y-110243800D03*
%TD*%
D13*
%TO.C,C13*%
X59326600Y-34137600D03*
X57251600Y-34137600D03*
%TD*%
D21*
%TO.C,U22*%
X92608400Y-79116200D03*
X93878400Y-79116200D03*
X95148400Y-79116200D03*
X96418400Y-79116200D03*
X97688400Y-79116200D03*
X98958400Y-79116200D03*
X100228400Y-79116200D03*
X100228400Y-74166200D03*
X98958400Y-74166200D03*
X97688400Y-74166200D03*
X96418400Y-74166200D03*
X95148400Y-74166200D03*
X93878400Y-74166200D03*
X92608400Y-74166200D03*
%TD*%
D18*
%TO.C,R19*%
X118211600Y-34153600D03*
X118211600Y-36153600D03*
%TD*%
D10*
%TO.C,R16*%
X105105200Y-119684800D03*
X107105200Y-119684800D03*
%TD*%
D29*
%TO.C,U2*%
X63520400Y-84523600D03*
X62570400Y-84523600D03*
X61620400Y-84523600D03*
X61620400Y-87223600D03*
X63520400Y-87223600D03*
%TD*%
D17*
%TO.C,R28*%
X98907600Y-84434200D03*
X98907600Y-82434200D03*
%TD*%
D11*
%TO.C,C26*%
X137871200Y-41641800D03*
X137871200Y-43716800D03*
%TD*%
D37*
%TO.C,U19*%
X105460800Y-114676400D03*
X105460800Y-115326400D03*
X105460800Y-115976400D03*
X105460800Y-116626400D03*
X109685800Y-116626400D03*
X109685800Y-115976400D03*
X109685800Y-115326400D03*
X109685800Y-114676400D03*
%TD*%
D21*
%TO.C,U20*%
X91643200Y-56424600D03*
X92913200Y-56424600D03*
X94183200Y-56424600D03*
X95453200Y-56424600D03*
X96723200Y-56424600D03*
X97993200Y-56424600D03*
X99263200Y-56424600D03*
X99263200Y-51474600D03*
X97993200Y-51474600D03*
X96723200Y-51474600D03*
X95453200Y-51474600D03*
X94183200Y-51474600D03*
X92913200Y-51474600D03*
X91643200Y-51474600D03*
%TD*%
D11*
%TO.C,C2B1*%
X61010800Y-105562400D03*
X61010800Y-107637400D03*
%TD*%
D17*
%TO.C,R23*%
X60553600Y-66294000D03*
X60553600Y-64294000D03*
%TD*%
D18*
%TO.C,R2*%
X52222400Y-53594000D03*
X52222400Y-55594000D03*
%TD*%
D38*
%TO.C,SW2*%
X84378800Y-119062000D03*
X90178800Y-119062000D03*
X90178800Y-115062000D03*
X84378800Y-115062000D03*
%TD*%
D11*
%TO.C,C31*%
X109626400Y-110236000D03*
X109626400Y-112311000D03*
%TD*%
D39*
%TO.C,U4*%
X62481768Y-97122903D03*
X64306103Y-93474232D03*
X60657433Y-95298568D03*
X63393936Y-94386400D03*
X62481768Y-95298568D03*
X61569600Y-92562065D03*
X61569600Y-96210735D03*
X64306103Y-95298568D03*
X62481768Y-93474232D03*
X60657433Y-93474232D03*
X65218271Y-94386400D03*
X63393936Y-92562065D03*
X63393936Y-96210735D03*
X59745265Y-94386400D03*
X62481768Y-91649897D03*
X61569600Y-94386400D03*
D40*
X61995632Y-90011177D03*
X61642079Y-90364730D03*
X61288525Y-90718284D03*
X60934972Y-91071837D03*
X60581419Y-91425390D03*
X60227865Y-91778944D03*
X59874312Y-92132497D03*
X59520758Y-92486051D03*
X59167205Y-92839604D03*
X58813652Y-93193157D03*
X58460098Y-93546711D03*
X58106545Y-93900264D03*
D41*
X58106545Y-94872536D03*
X58460098Y-95226089D03*
X58813652Y-95579643D03*
X59167205Y-95933196D03*
X59520758Y-96286749D03*
X59874312Y-96640303D03*
X60227865Y-96993856D03*
X60581419Y-97347410D03*
X60934972Y-97700963D03*
X61288525Y-98054516D03*
X61642079Y-98408070D03*
X61995632Y-98761623D03*
D40*
X62967904Y-98761623D03*
X63321457Y-98408070D03*
X63675011Y-98054516D03*
X64028564Y-97700963D03*
X64382117Y-97347410D03*
X64735671Y-96993856D03*
X65089224Y-96640303D03*
X65442778Y-96286749D03*
X65796331Y-95933196D03*
X66149884Y-95579643D03*
X66503438Y-95226089D03*
X66856991Y-94872536D03*
D41*
X66856991Y-93900264D03*
X66503438Y-93546711D03*
X66149884Y-93193157D03*
X65796331Y-92839604D03*
X65442778Y-92486051D03*
X65089224Y-92132497D03*
X64735671Y-91778944D03*
X64382117Y-91425390D03*
X64028564Y-91071837D03*
X63675011Y-90718284D03*
X63321457Y-90364730D03*
X62967904Y-90011177D03*
%TD*%
D42*
%TO.C,J7*%
X61006000Y-114744400D03*
X61806000Y-114744400D03*
X62606000Y-114744400D03*
X63406000Y-114744400D03*
X64206000Y-114744400D03*
D43*
X58156000Y-120294400D03*
X67056000Y-120294400D03*
X58156000Y-114844400D03*
X67056000Y-114844400D03*
%TD*%
D26*
%TO.C,EC1*%
X80111600Y-65532000D03*
X80111600Y-61932000D03*
%TD*%
D44*
%TO.C,A3*%
X176199800Y-52194520D03*
X176199800Y-54734520D03*
X176199800Y-57274520D03*
X176199800Y-59814520D03*
X176199800Y-62354520D03*
%TD*%
D45*
%TO.C,EC5*%
X73558400Y-41808400D03*
X77158400Y-41808400D03*
%TD*%
D17*
%TO.C,R15*%
X112014000Y-112236000D03*
X112014000Y-110236000D03*
%TD*%
D26*
%TO.C,EC8*%
X100634800Y-112776000D03*
X100634800Y-109176000D03*
%TD*%
D22*
%TO.C,X1*%
X60935600Y-79840400D03*
X60935600Y-81940400D03*
X62585600Y-81940400D03*
X62585600Y-79840400D03*
%TD*%
D46*
%TO.C,D5*%
X67665600Y-34854800D03*
X67665600Y-32054800D03*
%TD*%
D19*
%TO.C,U12*%
X141949400Y-55118000D03*
X141949400Y-56388000D03*
X141949400Y-57658000D03*
X141949400Y-58928000D03*
X141949400Y-60198000D03*
X141949400Y-61468000D03*
X141949400Y-62738000D03*
X146899400Y-62738000D03*
X146899400Y-61468000D03*
X146899400Y-60198000D03*
X146899400Y-58928000D03*
X146899400Y-57658000D03*
X146899400Y-56388000D03*
X146899400Y-55118000D03*
%TD*%
D11*
%TO.C,C41*%
X124612400Y-104140000D03*
X124612400Y-106215000D03*
%TD*%
D13*
%TO.C,C30*%
X147356600Y-52679600D03*
X145281600Y-52679600D03*
%TD*%
D47*
%TO.C,FB1*%
X57708800Y-97605200D03*
X57708800Y-99905200D03*
%TD*%
D13*
%TO.C,C6*%
X184904200Y-85852000D03*
X182829200Y-85852000D03*
%TD*%
D18*
%TO.C,R13*%
X162407600Y-78365600D03*
X162407600Y-80365600D03*
%TD*%
D21*
%TO.C,U21*%
X88417400Y-65143200D03*
X89687400Y-65143200D03*
X90957400Y-65143200D03*
X92227400Y-65143200D03*
X93497400Y-65143200D03*
X94767400Y-65143200D03*
X96037400Y-65143200D03*
X96037400Y-60193200D03*
X94767400Y-60193200D03*
X93497400Y-60193200D03*
X92227400Y-60193200D03*
X90957400Y-60193200D03*
X89687400Y-60193200D03*
X88417400Y-60193200D03*
%TD*%
D18*
%TO.C,R20*%
X118211600Y-38423600D03*
X118211600Y-40423600D03*
%TD*%
D48*
%TO.C,U6*%
X62382400Y-42323097D03*
X61470232Y-46883935D03*
X64206735Y-44147432D03*
X59645897Y-45059600D03*
X61470232Y-43235265D03*
X62382400Y-44147432D03*
X61470232Y-45059600D03*
X63294568Y-45059600D03*
X62382400Y-45971768D03*
X60558065Y-45971768D03*
X64206735Y-45971768D03*
X63294568Y-46883935D03*
X60558065Y-44147432D03*
X63294568Y-43235265D03*
X65118903Y-45059600D03*
X62382400Y-47796103D03*
D49*
X62868536Y-49434823D03*
X63222089Y-49081270D03*
X63575643Y-48727716D03*
X63929196Y-48374163D03*
X64282749Y-48020610D03*
X64636303Y-47667056D03*
X64989856Y-47313503D03*
X65343410Y-46959949D03*
X65696963Y-46606396D03*
X66050516Y-46252843D03*
X66404070Y-45899289D03*
X66757623Y-45545736D03*
D50*
X66757623Y-44573464D03*
X66404070Y-44219911D03*
X66050516Y-43866357D03*
X65696963Y-43512804D03*
X65343410Y-43159251D03*
X64989856Y-42805697D03*
X64636303Y-42452144D03*
X64282749Y-42098590D03*
X63929196Y-41745037D03*
X63575643Y-41391484D03*
X63222089Y-41037930D03*
X62868536Y-40684377D03*
D49*
X61896264Y-40684377D03*
X61542711Y-41037930D03*
X61189157Y-41391484D03*
X60835604Y-41745037D03*
X60482051Y-42098590D03*
X60128497Y-42452144D03*
X59774944Y-42805697D03*
X59421390Y-43159251D03*
X59067837Y-43512804D03*
X58714284Y-43866357D03*
X58360730Y-44219911D03*
X58007177Y-44573464D03*
D50*
X58007177Y-45545736D03*
X58360730Y-45899289D03*
X58714284Y-46252843D03*
X59067837Y-46606396D03*
X59421390Y-46959949D03*
X59774944Y-47313503D03*
X60128497Y-47667056D03*
X60482051Y-48020610D03*
X60835604Y-48374163D03*
X61189157Y-48727716D03*
X61542711Y-49081270D03*
X61896264Y-49434823D03*
%TD*%
D19*
%TO.C,U5*%
X90757200Y-95758000D03*
X90757200Y-97028000D03*
X90757200Y-98298000D03*
X90757200Y-99568000D03*
X90757200Y-100838000D03*
X90757200Y-102108000D03*
X90757200Y-103378000D03*
X90757200Y-104648000D03*
X95707200Y-104648000D03*
X95707200Y-103378000D03*
X95707200Y-102108000D03*
X95707200Y-100838000D03*
X95707200Y-99568000D03*
X95707200Y-98298000D03*
X95707200Y-97028000D03*
X95707200Y-95758000D03*
%TD*%
D10*
%TO.C,R9*%
X169291000Y-45923200D03*
X171291000Y-45923200D03*
%TD*%
D19*
%TO.C,U17*%
X103644400Y-97231200D03*
X103644400Y-98501200D03*
X103644400Y-99771200D03*
X103644400Y-101041200D03*
X103644400Y-102311200D03*
X103644400Y-103581200D03*
X103644400Y-104851200D03*
X108594400Y-104851200D03*
X108594400Y-103581200D03*
X108594400Y-102311200D03*
X108594400Y-101041200D03*
X108594400Y-99771200D03*
X108594400Y-98501200D03*
X108594400Y-97231200D03*
%TD*%
D18*
%TO.C,R17*%
X122631200Y-34153600D03*
X122631200Y-36153600D03*
%TD*%
D51*
%TO.C,SW1*%
X182042800Y-35255200D03*
X182042800Y-37795200D03*
X182042800Y-40335200D03*
X188772800Y-40335200D03*
X188772800Y-37795200D03*
X188772800Y-35255200D03*
%TD*%
D30*
%TO.C,D6*%
X197510400Y-109644400D03*
X197510400Y-107594400D03*
%TD*%
D10*
%TO.C,R34*%
X98936900Y-97231200D03*
X100936900Y-97231200D03*
%TD*%
D27*
%TO.C,D7*%
X53576000Y-69469000D03*
X55626000Y-69469000D03*
%TD*%
D19*
%TO.C,U16*%
X103718500Y-87223600D03*
X103718500Y-88493600D03*
X103718500Y-89763600D03*
X103718500Y-91033600D03*
X103718500Y-92303600D03*
X103718500Y-93573600D03*
X103718500Y-94843600D03*
X108668500Y-94843600D03*
X108668500Y-93573600D03*
X108668500Y-92303600D03*
X108668500Y-91033600D03*
X108668500Y-89763600D03*
X108668500Y-88493600D03*
X108668500Y-87223600D03*
%TD*%
D14*
%TO.C,C2*%
X179832000Y-67056000D03*
X179832000Y-64981000D03*
%TD*%
D19*
%TO.C,U11*%
X128944600Y-41452800D03*
X128944600Y-42722800D03*
X128944600Y-43992800D03*
X128944600Y-45262800D03*
X128944600Y-46532800D03*
X128944600Y-47802800D03*
X128944600Y-49072800D03*
X133894600Y-49072800D03*
X133894600Y-47802800D03*
X133894600Y-46532800D03*
X133894600Y-45262800D03*
X133894600Y-43992800D03*
X133894600Y-42722800D03*
X133894600Y-41452800D03*
%TD*%
D17*
%TO.C,R22*%
X58623200Y-66278000D03*
X58623200Y-64278000D03*
%TD*%
D38*
%TO.C,SW3*%
X74773200Y-33306000D03*
X80573200Y-33306000D03*
X80573200Y-37306000D03*
X74773200Y-37306000D03*
%TD*%
D31*
%TO.C,EC12*%
X175143200Y-27381200D03*
X180543200Y-27381200D03*
%TD*%
D11*
%TO.C,C22*%
X93014800Y-37388800D03*
X93014800Y-39463800D03*
%TD*%
D19*
%TO.C,U13*%
X155919400Y-41706800D03*
X155919400Y-42976800D03*
X155919400Y-44246800D03*
X155919400Y-45516800D03*
X155919400Y-46786800D03*
X155919400Y-48056800D03*
X155919400Y-49326800D03*
X160869400Y-49326800D03*
X160869400Y-48056800D03*
X160869400Y-46786800D03*
X160869400Y-45516800D03*
X160869400Y-44246800D03*
X160869400Y-42976800D03*
X160869400Y-41706800D03*
%TD*%
D16*
%TO.C,U15*%
X121513600Y-107797600D03*
X121513600Y-106527600D03*
X121513600Y-105257600D03*
X121513600Y-103987600D03*
X121513600Y-102717600D03*
X121513600Y-101447600D03*
X121513600Y-100177600D03*
X116563600Y-100177600D03*
X116563600Y-101447600D03*
X116563600Y-102717600D03*
X116563600Y-103987600D03*
X116563600Y-105257600D03*
X116563600Y-106527600D03*
X116563600Y-107797600D03*
%TD*%
D11*
%TO.C,C23*%
X65735200Y-58826400D03*
X65735200Y-60901400D03*
%TD*%
D14*
%TO.C,C2A1*%
X63347600Y-107637400D03*
X63347600Y-105562400D03*
%TD*%
D42*
%TO.C,J13*%
X64165200Y-29832400D03*
X63365200Y-29832400D03*
X62565200Y-29832400D03*
X61765200Y-29832400D03*
X60965200Y-29832400D03*
D43*
X58115200Y-29732400D03*
X67015200Y-24282400D03*
X58115200Y-24282400D03*
X67015200Y-29732400D03*
%TD*%
D13*
%TO.C,C27*%
X158227800Y-52374800D03*
X156152800Y-52374800D03*
%TD*%
D14*
%TO.C,C15*%
X64871600Y-82085000D03*
X64871600Y-80010000D03*
%TD*%
D12*
%TO.C,EC2*%
X75438000Y-76301600D03*
X75438000Y-79901600D03*
%TD*%
D46*
%TO.C,D2*%
X58064400Y-109620400D03*
X58064400Y-112420400D03*
%TD*%
D52*
%TO.C,FB2*%
X67919600Y-56402000D03*
X67919600Y-54102000D03*
%TD*%
D11*
%TO.C,C14*%
X58572400Y-79806800D03*
X58572400Y-81881800D03*
%TD*%
D17*
%TO.C,R5*%
X122625530Y-40420677D03*
X122625530Y-38420677D03*
%TD*%
D10*
%TO.C,R8*%
X57318400Y-32156400D03*
X59318400Y-32156400D03*
%TD*%
D24*
%TO.C,R37*%
X55499000Y-72771000D03*
X53499000Y-72771000D03*
%TD*%
D13*
%TO.C,C1*%
X186580600Y-63042800D03*
X184505600Y-63042800D03*
%TD*%
D23*
%TO.C,C5*%
X63152200Y-77419200D03*
X65227200Y-77419200D03*
%TD*%
D10*
%TO.C,R10*%
X169291000Y-43383200D03*
X171291000Y-43383200D03*
%TD*%
D11*
%TO.C,C36*%
X59893200Y-56751400D03*
X59893200Y-58826400D03*
%TD*%
M02*
